<svg width="20" height="20" viewBox="0 0 20 20" fill="none" xmlns="http://www.w3.org/2000/svg">
<g clip-path="url(#clip0_1723_9906)">
<path d="M6.96721 0.66608C4.9689 1.35931 3.24556 2.67509 2.05032 4.42015C0.855082 6.1652 0.250946 8.24755 0.326651 10.3613C0.402355 12.4751 1.15391 14.5089 2.47092 16.164C3.78794 17.8191 5.60099 19.0082 7.64377 19.5567C9.2999 19.984 11.035 20.0028 12.7 19.6114C14.2083 19.2726 15.6028 18.5479 16.7469 17.5083C17.9376 16.3932 18.802 14.9746 19.2469 13.4051C19.7305 11.6984 19.8166 9.90347 19.4985 8.15827H10.1985V12.0161H15.5844C15.4768 12.6314 15.2461 13.2186 14.9062 13.7427C14.5663 14.2668 14.1242 14.7169 13.6063 15.0661C12.9486 15.5011 12.2072 15.7938 11.4297 15.9255C10.6499 16.0704 9.85011 16.0704 9.07033 15.9255C8.28 15.7621 7.53236 15.4359 6.87502 14.9676C5.819 14.2201 5.02608 13.1581 4.6094 11.9333C4.18567 10.6854 4.18567 9.33265 4.6094 8.08483C4.906 7.21017 5.39632 6.41379 6.04377 5.75514C6.7847 4.98756 7.72273 4.43889 8.75495 4.16932C9.78718 3.89976 10.8737 3.91972 11.8953 4.22702C12.6934 4.472 13.4232 4.90004 14.0266 5.47702C14.6339 4.87285 15.2401 4.26712 15.8453 3.65983C16.1578 3.33327 16.4985 3.02233 16.8063 2.68795C15.8853 1.83089 14.8042 1.16398 13.625 0.725455C11.4777 -0.0542486 9.12811 -0.0752023 6.96721 0.66608Z" fill="white"/>
<path d="M6.96758 0.666839C9.1283 -0.0749468 11.4779 -0.0545446 13.6254 0.724652C14.8048 1.16616 15.8854 1.83627 16.8051 2.69653C16.4926 3.0309 16.1629 3.3434 15.8441 3.6684C15.2379 4.27361 14.6322 4.87674 14.027 5.47778C13.4236 4.9008 12.6938 4.47276 11.8957 4.22778C10.8744 3.9194 9.78792 3.89829 8.75542 4.16675C7.72292 4.43521 6.78432 4.98287 6.04258 5.74965C5.39513 6.4083 4.90481 7.20468 4.6082 8.07934L1.36914 5.57153C2.52853 3.2724 4.53594 1.51375 6.96758 0.666839Z" fill="#E33629"/>
<path d="M0.510152 8.05469C0.684247 7.19187 0.973283 6.35629 1.36953 5.57031L4.60859 8.08437C4.18486 9.3322 4.18486 10.685 4.60859 11.9328C3.52942 12.7661 2.44974 13.6036 1.36953 14.4453C0.377575 12.4708 0.0750466 10.2211 0.510152 8.05469Z" fill="#F8BD00"/>
<path d="M10.198 8.15625H19.498C19.8161 9.90146 19.73 11.6964 19.2464 13.4031C18.8015 14.9726 17.9371 16.3912 16.7464 17.5062C15.7011 16.6906 14.6511 15.8813 13.6058 15.0656C14.124 14.7161 14.5663 14.2655 14.9063 13.7408C15.2462 13.2162 15.4766 12.6283 15.5839 12.0125H10.198C10.1964 10.7281 10.198 9.44219 10.198 8.15625Z" fill="#587DBD"/>
<path d="M1.36719 14.4461C2.4474 13.6128 3.52708 12.7753 4.60625 11.9336C5.02376 13.1589 5.81782 14.2209 6.875 14.968C7.53439 15.434 8.28364 15.7575 9.075 15.918C9.85478 16.063 10.6546 16.063 11.4344 15.918C12.2119 15.7864 12.9533 15.4936 13.6109 15.0586C14.6562 15.8742 15.7063 16.6836 16.7516 17.4992C15.6076 18.5394 14.2132 19.2647 12.7047 19.6039C11.0397 19.9953 9.30457 19.9766 7.64844 19.5492C6.3386 19.1995 5.11512 18.583 4.05469 17.7383C2.93228 16.8472 2.01556 15.7242 1.36719 14.4461Z" fill="#319F43"/>
</g>
<defs>
<clipPath id="clip0_1723_9906">
<rect width="20" height="20" fill="white" transform="translate(0 0.0078125)"/>
</clipPath>
</defs>
</svg>
