<svg width="24" height="24" viewBox="0 0 24 24" fill="none" xmlns="http://www.w3.org/2000/svg">
<rect y="0.0078125" width="24" height="24" rx="8" fill="#3E8CFF"/>
<path d="M19.3636 3.00781H4.63636C3.73227 3.00781 3 3.74009 3 4.64418V19.3714C3 20.2755 3.73227 21.0078 4.63636 21.0078H19.3636C20.2677 21.0078 21 20.2755 21 19.3714V4.64418C21 3.74009 20.2677 3.00781 19.3636 3.00781ZM8.68964 17.7351H6.276V9.9689H8.68964V17.7351ZM7.45827 8.85863C6.68018 8.85863 6.051 8.22781 6.051 7.45136C6.051 6.6749 6.681 6.0449 7.45827 6.0449C8.23391 6.0449 8.86473 6.67572 8.86473 7.45136C8.86473 8.22781 8.23391 8.85863 7.45827 8.85863ZM17.7305 17.7351H15.3185V13.9584C15.3185 13.0575 15.3022 11.899 14.0643 11.899C12.8084 11.899 12.6153 12.88 12.6153 13.8929V17.7351H10.2033V9.9689H12.5187V11.0301H12.5515C12.8738 10.4197 13.6609 9.77581 14.835 9.77581C17.2789 9.77581 17.7305 11.3844 17.7305 13.4756V17.7351Z" fill="white"/>
</svg>
