<svg width="24" height="24" viewBox="0 0 24 24" fill="none" xmlns="http://www.w3.org/2000/svg">
<mask id="mask0_1733_12513" style="mask-type:luminance" maskUnits="userSpaceOnUse" x="0" y="0" width="24" height="25">
<path d="M24 0.0078125H0V24.0078H24V0.0078125Z" fill="white"/>
</mask>
<g mask="url(#mask0_1733_12513)">
<path fill-rule="evenodd" clip-rule="evenodd" d="M12 4.00781C12.855 4.00781 13.732 4.02981 14.582 4.06581L15.586 4.11381L16.547 4.17081L17.447 4.23182L18.269 4.29581C19.161 4.36409 20.0004 4.74476 20.6396 5.37086C21.2786 5.99694 21.6764 6.82835 21.763 7.71881L21.803 8.14379L21.878 9.05381C21.948 9.99683 22 11.0248 22 12.0078C22 12.9908 21.948 14.0188 21.878 14.9618L21.803 15.8718C21.79 16.0178 21.777 16.1588 21.763 16.2968C21.6764 17.1874 21.2784 18.019 20.6391 18.6451C19.9998 19.2712 19.1603 19.6517 18.268 19.7198L17.448 19.7828L16.548 19.8448L15.586 19.9018L14.582 19.9498C13.7219 19.9872 12.861 20.0065 12 20.0078C11.139 20.0065 10.2782 19.9872 9.418 19.9498L8.41402 19.9018L7.453 19.8448L6.553 19.7828L5.731 19.7198C4.83895 19.6516 3.99955 19.2709 3.36048 18.6448C2.7214 18.0187 2.32357 17.1873 2.237 16.2968L2.197 15.8718L2.122 14.9618C2.04554 13.979 2.00485 12.9937 2 12.0078C2 11.0248 2.052 9.99683 2.122 9.05381L2.197 8.14379C2.21 7.99781 2.223 7.85681 2.237 7.71881C2.32354 6.82853 2.72122 5.99723 3.36009 5.37116C3.99897 4.74509 4.83813 4.36431 5.73 4.29581L6.55102 4.23182L7.45102 4.17081L8.413 4.11381L9.41698 4.06581C10.2775 4.02845 11.1387 4.00911 12 4.00781ZM10 9.58283V14.4328C10 14.8948 10.5 15.1828 10.9 14.9528L15.1 12.5278C15.1914 12.4752 15.2673 12.3994 15.3201 12.3082C15.3729 12.2168 15.4007 12.1133 15.4007 12.0078C15.4007 11.9024 15.3729 11.7988 15.3201 11.7075C15.2673 11.6162 15.1914 11.5405 15.1 11.4878L10.9 9.06383C10.8087 9.01115 10.7052 8.98343 10.5999 8.98343C10.4946 8.98343 10.3911 9.01121 10.2998 9.06389C10.2086 9.11663 10.1329 9.19241 10.0802 9.28367C10.0276 9.37493 9.99994 9.47843 10 9.58379V9.58283Z" fill="white"/>
</g>
</svg>
