<svg width="24" height="24" viewBox="0 0 24 24" fill="none" xmlns="http://www.w3.org/2000/svg">
<path d="M11.9991 8.8851C10.2788 8.8851 8.87491 10.289 8.87491 12.0093C8.87491 13.7296 10.2788 15.1335 11.9991 15.1335C13.7194 15.1335 15.1234 13.7296 15.1234 12.0093C15.1234 10.289 13.7194 8.8851 11.9991 8.8851ZM21.3694 12.0093C21.3694 10.7155 21.3812 9.4335 21.3085 8.14212C21.2359 6.64212 20.8937 5.31085 19.7968 4.21398C18.6976 3.11476 17.3687 2.77492 15.8687 2.70226C14.5749 2.6296 13.2929 2.64132 12.0014 2.64132C10.7077 2.64132 9.42571 2.6296 8.13427 2.70226C6.63427 2.77492 5.30304 3.1171 4.20616 4.21398C3.10695 5.3132 2.7671 6.64212 2.69445 8.14212C2.62179 9.43584 2.63351 10.7179 2.63351 12.0093C2.63351 13.3007 2.62179 14.5851 2.69445 15.8765C2.7671 17.3765 3.10929 18.7077 4.20616 19.8046C5.30538 20.9038 6.63427 21.2437 8.13427 21.3163C9.42805 21.389 10.7101 21.3773 12.0014 21.3773C13.2952 21.3773 14.5772 21.389 15.8687 21.3163C17.3687 21.2437 18.6999 20.9015 19.7968 19.8046C20.896 18.7054 21.2359 17.3765 21.3085 15.8765C21.3835 14.5851 21.3694 13.303 21.3694 12.0093ZM11.9991 16.8163C9.33895 16.8163 7.19209 14.6695 7.19209 12.0093C7.19209 9.34914 9.33895 7.20228 11.9991 7.20228C14.6593 7.20228 16.8062 9.34914 16.8062 12.0093C16.8062 14.6695 14.6593 16.8163 11.9991 16.8163ZM17.003 8.12802C16.3819 8.12802 15.8804 7.62648 15.8804 7.00536C15.8804 6.3843 16.3819 5.88273 17.003 5.88273C17.6241 5.88273 18.1257 6.3843 18.1257 7.00536C18.1259 7.15284 18.097 7.29894 18.0406 7.4352C17.9843 7.57152 17.9015 7.69536 17.7973 7.79964C17.693 7.90392 17.5691 7.9866 17.4329 8.04294C17.2966 8.09934 17.1505 8.1282 17.003 8.12802Z" fill="white"/>
</svg>
