<svg width="173" height="56" viewBox="0 0 173 56" fill="none" xmlns="http://www.w3.org/2000/svg">
<path d="M0 28.2122C0.118688 23.3442 0.256485 18.5006 1.88971 13.8768C4.49768 6.49359 9.72058 2.26763 17.4702 1.08767C22.7103 0.289795 27.9308 0.277026 33.1065 1.40426C41.1978 3.16649 45.8086 8.46054 47.7149 16.2994C48.9154 21.2356 49.0114 26.2773 48.813 31.3272C48.6636 35.1287 48.3184 38.907 47.0525 42.5291C44.7249 49.1889 40.2578 53.5391 33.2678 55.0525C27.4154 56.3381 21.3525 56.326 15.5054 55.0171C8.34555 53.4247 3.90221 48.8592 1.68713 42.0008C0.236822 37.5104 0.104287 32.8446 0 28.2122Z" fill="white"/>
<path d="M40.3354 33.2111V34.0332C40.3354 34.3346 40.3236 34.6399 40.308 34.9413C40.2962 35.1762 40.2766 35.411 40.2571 35.642C40.2023 36.2566 40.124 36.8672 40.0457 37.4661C40.0457 37.4739 40.0457 37.4818 40.0418 37.4974C40.0418 37.5366 40.03 37.5718 40.0261 37.6109C40.0261 37.6188 40.0222 37.6266 40.0222 37.6344C39.9752 37.9397 39.8656 38.5895 39.7325 39.2002C39.7286 39.2276 39.7208 39.2511 39.713 39.2785C38.3194 39.3528 37.2352 39.2002 36.4992 39.0436C36.3701 39.0436 36.0295 38.9732 35.4306 38.8087C35.1331 38.7305 34.7769 38.6248 34.3463 38.4956C33.0546 38.1042 31.9194 37.791 29.5316 37.791C27.1438 37.791 26.0086 38.1042 24.7169 38.4956C24.0906 38.6913 23.386 38.887 22.564 39.0436C22.2117 39.1219 20.7633 39.3959 18.8453 39.3568C18.1015 39.3568 17.1229 39.2785 15.9878 39.0436C15.8664 38.5895 15.7646 38.1198 15.6629 37.6344C15.6002 37.3291 15.5415 37.0159 15.4789 36.695C15.4554 36.5306 15.4241 36.3662 15.3928 36.2057C15.3458 35.8651 15.3066 35.5246 15.2753 35.184C15.2401 34.8004 15.2166 34.4168 15.2049 34.0332V33.2111C15.2049 32.35 15.244 31.4888 15.3614 30.6668C15.3614 30.5102 15.3614 30.3536 15.4397 30.1971C15.4789 29.8839 15.518 29.5707 15.5963 29.2967C15.5963 29.101 15.6746 28.9053 15.7137 28.7096C15.7529 28.5139 15.792 28.3181 15.8312 28.1616C15.9095 27.7701 16.0269 27.4178 16.1052 27.0655C16.4575 25.8912 16.8881 24.7169 17.3969 23.6208C18.0232 22.3682 18.7278 21.1548 19.5499 20.0196C20.137 19.2367 20.7633 18.4538 21.4679 17.7492C22.3291 16.8881 23.2294 16.0269 24.208 15.3223C24.4037 15.4789 24.5994 15.6355 24.7952 15.792C24.9517 15.9095 25.1083 16.066 25.304 16.1835C25.4998 16.3401 25.6955 16.4966 25.8521 16.6923C26.0478 16.8489 26.2435 17.0446 26.4392 17.2404L26.9872 17.7884C27.6527 18.493 28.3181 19.2759 28.9053 20.0587C29.7273 21.1939 30.4711 22.4074 31.0582 23.66H26.9872C26.2044 22.3682 25.304 21.1548 24.2472 20.0979C23.1903 21.1548 22.2899 22.3682 21.5071 23.66C20.8808 24.756 20.3327 25.8912 19.9022 27.1047H32.3891C32.7414 28.279 32.9763 29.4925 33.0937 30.7059H19.041C18.9275 31.6767 18.8883 32.534 18.8844 33.2503C18.8844 33.6926 18.8962 34.4794 18.994 35.4619C19.0018 35.5324 19.0097 35.6068 19.0175 35.6772C19.6712 35.6772 20.5793 35.6537 21.7419 35.4424C22.4465 35.3249 23.0337 35.1292 23.66 34.9726C25.03 34.5812 26.5958 34.1115 29.5316 34.1115C32.4674 34.1115 34.0332 34.5812 35.4032 34.9726C36.0217 35.1488 36.4014 35.2545 36.6597 35.3171C36.695 34.8904 36.7185 34.4638 36.7341 34.0332V33.2111C36.7341 32.35 36.695 31.4888 36.6167 30.6276C36.4992 29.4142 36.2644 28.2007 35.9904 27.0264C35.6772 25.8521 35.3249 24.7169 34.8943 23.5817C34.3855 22.3291 33.7983 21.1156 33.1329 19.9804C32.2717 18.5321 31.2931 17.1621 30.1579 15.9486C29.2967 14.97 28.3573 14.1088 27.3787 13.2477C26.4001 12.4256 25.3432 11.6819 24.208 10.9773C23.112 11.6428 22.0159 12.4256 21.0373 13.2477C20.0587 14.0697 19.1193 14.97 18.2581 15.9486C17.1621 17.2012 16.1443 18.5321 15.2832 19.9804C14.6177 21.1156 13.9914 22.3291 13.5217 23.5817C13.0911 24.6777 12.6996 25.8521 12.4256 27.0264C12.1516 28.2007 11.9168 29.4142 11.7993 30.6276C11.721 31.4497 11.6819 32.35 11.6819 33.2111C11.6819 34.0723 11.6819 33.6417 11.6819 34.0332C11.7132 34.773 11.7993 35.5872 11.905 36.3427C12.0694 37.5522 12.2769 38.6209 12.3474 39.0045C11.7602 38.887 11.0947 38.7696 10.351 38.6913C9.70121 38.6522 9.12971 38.6522 8.59344 38.6874C8.50732 38.2725 8.43686 37.8654 8.38597 37.5131C8.38206 37.4778 8.37423 37.4426 8.37031 37.4074C8.36249 37.3408 8.35074 37.2782 8.34291 37.2078C8.33508 37.149 8.32726 37.0903 8.31943 37.0277C8.3116 37.0003 8.30768 36.969 8.30768 36.9455C8.30768 36.8985 8.29594 36.8476 8.28811 36.7967C8.27637 36.7067 8.26854 36.6323 8.26463 36.5814C8.16676 35.7907 8.07673 34.9061 8.0415 34.0723V33.2503C8.0415 32.3891 8.11979 31.528 8.15894 30.6668C8.27637 29.4533 8.43294 28.2398 8.70695 27.0655C8.94182 25.8912 9.25497 24.756 9.64641 23.6208C10.077 22.4074 10.5467 21.1939 11.1339 20.0196C12.0342 18.1798 13.1694 16.4575 14.4611 14.8134C15.1266 13.9523 15.8703 13.1302 16.6532 12.3474C17.0955 11.905 17.1503 11.8385 17.1582 11.8385C17.1582 11.8385 17.1621 11.8502 17.2404 11.7993C18.2581 10.8207 19.315 9.95957 20.4502 9.13754C21.6245 8.27637 22.8771 7.53264 24.1689 6.86719C25.4606 7.53264 26.7132 8.27637 27.8875 9.13754C29.0227 9.92042 30.0796 10.8207 31.0974 11.7993C31.2931 11.9559 31.4888 12.1516 31.6845 12.3474C32.4674 13.1302 33.2111 13.9523 33.8766 14.8134C35.1683 16.4575 36.3035 18.1798 37.2038 20.0196C37.791 21.1939 38.2999 22.4074 38.7305 23.6208C39.1219 24.756 39.435 25.8912 39.6699 27.0655C39.9439 28.2398 40.1005 29.4533 40.2179 30.6668C40.2962 31.5162 40.3354 32.3617 40.3354 33.2111Z" fill="#3E8CFF"/>
<path d="M8.59382 38.6899C8.59382 38.6899 8.56642 38.6939 8.55076 38.6939C8.51161 38.4081 8.44898 38.001 8.38635 37.5156C8.43724 37.8679 8.5077 38.275 8.59382 38.6899Z" fill="#3E8CFF"/>
<path d="M38.5387 42.7141C37.932 44.0959 37.2548 45.3446 36.7694 46.1979C36.5228 46.1588 36.288 46.1118 36.0687 46.0648C35.372 45.9161 34.7887 45.7438 34.229 45.5834C32.9372 45.1919 31.8412 44.8788 29.4925 44.8788C27.1439 44.8788 26.0087 45.1919 24.7561 45.5834C23.3861 45.9748 21.8595 46.4445 18.9628 46.4445C16.0661 46.4445 14.5395 45.9748 13.1695 45.5834C12.8093 45.4738 12.4649 45.372 12.1008 45.2819C11.8229 45.2076 11.5332 45.1449 11.2201 45.0901C10.5233 44.0137 9.81482 42.6945 9.28638 41.2149C10.586 41.2579 11.5802 41.4067 12.4179 41.5867C13.099 41.7316 13.6744 41.9038 14.2264 42.0604C15.5181 42.4518 16.6141 42.765 18.9628 42.765C21.3114 42.765 22.4466 42.4518 23.6992 42.0604C25.0693 41.6689 26.5959 41.1992 29.4925 41.1992C32.3892 41.1992 33.9158 41.6689 35.2859 42.0604C35.4346 42.1074 35.5834 42.1504 35.7282 42.1896C36.5463 42.4323 37.3527 42.628 38.5387 42.7141Z" fill="#3E8CFF"/>
<path d="M40.0415 37.4961C40.0415 37.5196 40.0337 37.5587 40.0259 37.6096C40.0298 37.5705 40.0376 37.5352 40.0415 37.4961Z" fill="#3E8CFF"/>
<path d="M40.3194 34.757C40.3154 34.8197 40.3115 34.8823 40.3076 34.941C40.3233 34.6396 40.335 34.3343 40.335 34.0329V33.25C40.3468 33.7276 40.3428 34.2286 40.3194 34.757Z" fill="#3E8CFF"/>
<path d="M62.2339 17.766H66.279L64.3208 9.80471L62.2339 17.766ZM67.3353 25.0832C67.3353 24.4134 68.0052 24.7225 67.8249 24.0527L66.4851 18.5647H62.002L60.8684 22.8675C60.3273 24.9544 62.4143 24.3876 62.4143 25.0832C62.4143 25.3409 62.337 25.4955 62.0278 25.4955H59.0906C58.8072 25.4955 58.6526 25.3667 58.6526 25.0832C58.6526 24.3876 59.5544 24.7225 59.7347 24.0527L63.8828 8.23306C63.5994 7.79506 62.9038 8.00118 62.9038 7.40859C62.9038 7.12517 63.0068 6.97058 63.316 6.97058H68.4432C68.7266 6.97058 68.8555 7.09941 68.8555 7.40859C68.8555 8.05271 68.2113 7.74353 68.3659 8.43918L72.2049 24.0011C72.3852 24.7483 73.287 24.3876 73.287 25.0832C73.287 25.3409 73.1839 25.4955 72.9005 25.4955H67.7476C67.4642 25.4955 67.3353 25.3667 67.3353 25.0832Z" fill="white"/>
<path d="M86.7576 16.0398V24.0011C86.7576 24.7483 87.5305 24.4134 87.5305 25.0832C87.5305 25.3409 87.4275 25.4955 87.144 25.4955H82.1199C81.8623 25.4955 81.7077 25.3667 81.7077 25.109C81.7077 24.3876 82.5064 24.7483 82.5064 24.0011V16.349C82.5064 15.3441 82.2745 14.2105 80.9863 14.2105C79.5692 14.2105 78.5386 15.4987 78.5386 17.9464V24.0011C78.5386 24.7483 79.3373 24.4134 79.3373 25.109C79.3373 25.3409 79.2342 25.4955 78.9508 25.4955H73.9009C73.6433 25.4955 73.5145 25.3667 73.5145 25.0832C73.5145 24.3876 74.3132 24.7483 74.3132 24.0011V14.5454C74.3132 13.7983 73.5145 14.1332 73.5145 13.4633C73.5145 13.2057 73.6175 13.1026 73.9009 12.9738C74.6481 12.6904 76.5547 12.2524 77.4565 12.2524C78.4871 12.2524 78.5386 12.845 78.5386 13.3087V14.6227C79.4404 12.9996 81.0635 11.9947 83.0474 11.9947C85.5982 11.9947 86.7576 13.6437 86.7576 16.0398Z" fill="white"/>
<path d="M96.99 18.4102V17.9464C96.99 15.7049 96.011 13.6179 94.697 13.6179C93.2541 13.6179 92.945 16.349 92.945 18.5647C92.945 21.9915 93.6921 23.7177 94.8515 23.7177C96.011 23.7177 96.99 21.9142 96.99 18.4102ZM101.215 7.20247V23.4858C101.215 24.233 102.014 23.8723 102.014 24.568C102.014 24.7998 101.911 24.9029 101.602 25.0575C100.881 25.3409 98.9739 25.7531 98.0721 25.7531C97.0416 25.7531 96.99 25.1863 96.99 24.7225V23.4085C96.3201 24.9029 95.238 25.7531 93.5375 25.7531C90.4458 25.7531 88.4103 22.8417 88.4103 18.7966C88.4103 14.7 90.5231 11.9947 93.5633 11.9947C95.135 11.9947 96.2944 12.7161 96.99 14.0301V8.46494C96.99 7.71776 96.1913 8.05271 96.1913 7.35706C96.1913 7.12517 96.2944 7.02212 96.5778 6.89329C97.325 6.60988 99.2316 6.17188 100.133 6.17188C101.164 6.17188 101.215 6.76447 101.215 7.20247Z" fill="white"/>
<path d="M111.946 25.7531C110.915 25.7531 110.864 25.1863 110.864 24.7225V23.3055C110.168 24.8514 108.957 25.7531 106.973 25.7531C104.371 25.7531 102.825 24.1815 102.825 22.0172C102.825 18.7966 106.329 16.9931 110.89 16.8127C110.89 14.7516 110.735 13.2572 109.653 12.948C108.648 12.6646 108.081 13.7467 107.875 14.1074C107.102 15.4987 105.968 16.0398 105.067 16.0398C104.01 16.0398 103.289 15.2669 103.778 14.262C104.371 13.0253 106.406 11.9947 108.957 11.9947C113.208 11.9947 115.115 14.7773 115.115 18.8224V23.4858C115.115 24.233 115.888 23.8723 115.888 24.568C115.888 24.7998 115.785 24.9029 115.501 25.0575C114.754 25.3409 112.848 25.7531 111.946 25.7531ZM108.622 23.7177C109.885 23.7177 110.864 21.9142 110.864 18.4102C110.89 18.1267 110.89 17.8691 110.89 17.6115C108.751 17.8433 107.076 18.9512 107.076 21.3216C107.076 22.6356 107.617 23.7177 108.622 23.7177Z" fill="white"/>
<path d="M134.933 16.0398V24.0011C134.933 24.7483 135.706 24.4134 135.706 25.0832C135.706 25.3409 135.603 25.4955 135.319 25.4955H130.295C130.037 25.4955 129.909 25.3667 129.909 25.109C129.909 24.3876 130.682 24.7483 130.682 24.0011V16.349C130.682 15.3441 130.45 14.2105 129.728 14.2105C128.878 14.2105 128.311 15.8079 128.311 17.9464V24.0011C128.311 24.7483 129.11 24.4134 129.11 25.0832C129.11 25.3409 129.007 25.4955 128.698 25.4955H123.674C123.416 25.4955 123.287 25.3667 123.287 25.109C123.287 24.3876 124.086 24.7483 124.086 24.0011V16.349C124.086 15.3441 123.828 14.2105 123.132 14.2105C122.282 14.2105 121.69 15.8079 121.69 17.9464V24.0011C121.69 24.7483 122.488 24.4134 122.488 25.109C122.488 25.3409 122.385 25.4955 122.102 25.4955H117.052C116.794 25.4955 116.665 25.3667 116.665 25.0832C116.665 24.3876 117.464 24.7483 117.464 24.0011V14.5454C117.464 13.7983 116.665 14.1332 116.665 13.4633C116.665 13.2057 116.769 13.1026 117.052 12.9738C117.799 12.6904 119.706 12.2524 120.608 12.2524C121.638 12.2524 121.69 12.845 121.69 13.3087V14.3136C122.437 12.8707 123.699 11.9947 125.271 11.9947C126.817 11.9947 127.822 12.8707 128.182 14.597C128.904 12.9738 130.218 11.9947 131.892 11.9947C133.851 11.9947 134.933 13.386 134.933 16.0398Z" fill="white"/>
<path d="M145.611 25.7531C144.581 25.7531 144.529 25.1863 144.529 24.7225V23.3055C143.833 24.8514 142.623 25.7531 140.639 25.7531C138.036 25.7531 136.491 24.1815 136.491 22.0172C136.491 18.7966 139.995 16.9931 144.555 16.8127C144.555 14.7516 144.4 13.2572 143.318 12.948C142.313 12.6646 141.747 13.7467 141.54 14.1074C140.767 15.4987 139.634 16.0398 138.732 16.0398C137.676 16.0398 136.954 15.2669 137.444 14.262C138.036 13.0253 140.072 11.9947 142.623 11.9947C146.874 11.9947 148.78 14.7773 148.78 18.8224V23.4858C148.78 24.233 149.553 23.8723 149.553 24.568C149.553 24.7998 149.45 24.9029 149.167 25.0575C148.42 25.3409 146.513 25.7531 145.611 25.7531ZM142.288 23.7177C143.55 23.7177 144.529 21.9142 144.529 18.4102C144.555 18.1267 144.555 17.8691 144.555 17.6115C142.416 17.8433 140.742 18.9512 140.742 21.3216C140.742 22.6356 141.283 23.7177 142.288 23.7177Z" fill="white"/>
<path d="M163.574 16.0398V24.0011C163.574 24.7483 164.347 24.4134 164.347 25.0832C164.347 25.3409 164.244 25.4955 163.96 25.4955H158.936C158.679 25.4955 158.524 25.3667 158.524 25.109C158.524 24.3876 159.323 24.7483 159.323 24.0011V16.349C159.323 15.3441 159.091 14.2105 157.803 14.2105C156.386 14.2105 155.355 15.4987 155.355 17.9464V24.0011C155.355 24.7483 156.154 24.4134 156.154 25.109C156.154 25.3409 156.051 25.4955 155.767 25.4955H150.717C150.46 25.4955 150.331 25.3667 150.331 25.0832C150.331 24.3876 151.13 24.7483 151.13 24.0011V14.5454C151.13 13.7983 150.331 14.1332 150.331 13.4633C150.331 13.2057 150.434 13.1026 150.717 12.9738C151.464 12.6904 153.371 12.2524 154.273 12.2524C155.303 12.2524 155.355 12.845 155.355 13.3087V14.6227C156.257 12.9996 157.88 11.9947 159.864 11.9947C162.415 11.9947 163.574 13.6437 163.574 16.0398Z" fill="white"/>
<path d="M58.6526 49.7033C58.6526 48.9768 59.4569 49.3401 59.4569 48.5876V32.942C59.4569 32.1896 58.6526 32.5269 58.6526 31.8782C58.6526 31.5928 58.7564 31.4371 59.0418 31.4371H68.097C68.9273 31.4371 69.3943 31.8782 69.4722 32.6826L69.8095 35.848C69.8354 36.1075 69.7316 36.2372 69.4981 36.2372C68.1749 36.2372 67.9413 32.2415 64.3089 32.2415H63.7121V40.3627H64.0235C66.3067 40.3627 66.3327 38.2351 67.3186 38.2351C67.5781 38.2351 67.7078 38.3648 67.7078 38.6243V42.8794C67.7078 43.1649 67.5781 43.2946 67.2927 43.2946C66.3067 43.2946 66.3846 41.167 64.1532 41.167H63.7121V49.2882H65.1132C68.7457 49.2882 68.9533 45.2924 70.3025 45.2924C70.536 45.2924 70.6398 45.4222 70.6138 45.7076L70.2765 48.8471C70.1987 49.6774 69.7316 50.0925 68.8754 50.0925H59.0418C58.7823 50.0925 58.6526 49.9628 58.6526 49.7033Z" fill="white"/>
<path d="M71.3192 50.0925C71.0338 50.0925 70.93 49.9628 70.93 49.6774C70.93 48.899 72.0198 49.3401 72.409 48.6395L74.9258 43.7616L72.2014 38.261C71.8382 37.5086 70.93 37.9237 70.93 37.1972C70.93 36.9378 71.0079 36.7561 71.2933 36.7561H77.1312C77.4425 36.7561 77.5982 36.9118 77.5982 37.1972C77.5982 37.9237 76.6382 37.5345 76.9755 38.2351L78.9215 42.1789L80.5561 39.1172C81.6458 37.0415 79.2069 38.0015 79.2069 37.1972C79.2069 36.9378 79.3626 36.7561 79.648 36.7561H82.9691C83.2804 36.7561 83.3842 36.9118 83.3842 37.1972C83.3842 37.9756 82.2945 37.5086 81.9053 38.2351L79.3885 43.113L82.0869 48.5876C82.4761 49.3401 83.3842 48.9509 83.3842 49.6774C83.3842 49.9368 83.3064 50.0925 82.995 50.0925H77.1571C76.8717 50.0925 76.716 49.9628 76.716 49.6774C76.716 48.9509 77.6501 49.2882 77.2869 48.5876L75.3668 44.6957L73.7582 47.7573C72.6684 49.8071 75.0814 48.873 75.0814 49.6774C75.0814 49.9368 74.9517 50.0925 74.6663 50.0925H71.3192Z" fill="white"/>
<path d="M95.8972 46.486C94.4183 48.7692 91.9793 50.352 89.3847 50.352C85.9079 50.352 82.9241 47.5238 82.9241 43.3724C82.9241 39.2989 85.7782 36.4967 90.0334 36.4967C92.628 36.4967 94.6777 37.5345 95.2745 38.7799C95.7675 39.7918 95.015 40.5702 93.9512 40.5702C93.0431 40.5702 91.9015 40.0254 91.1231 38.6243C90.9155 38.261 90.3707 37.1713 89.3069 37.4567C87.8539 37.8978 86.842 40.674 87.5944 43.9173C88.0615 45.9411 89.1512 47.7573 91.668 47.7573C92.7577 47.7573 93.8734 47.3941 95.1707 45.9411C95.5599 45.526 95.7675 45.3443 95.9232 45.3443C96.001 45.3443 96.0529 45.3962 96.1307 45.4481C96.3643 45.6298 96.3643 45.8373 95.8972 46.486Z" fill="white"/>
<path d="M105.344 49.0547V47.7314C104.436 49.366 102.906 50.352 101.089 50.352C98.7541 50.352 97.6125 48.7174 97.6125 46.2784V39.0653C97.6125 38.3129 96.8082 38.6502 96.8082 37.9756C96.8082 37.7161 96.912 37.6124 97.1974 37.4826C97.9498 37.1972 99.8698 36.7561 100.778 36.7561C101.816 36.7561 101.868 37.3529 101.868 37.8199V45.993C101.868 47.0049 102.101 48.1206 103.165 48.1206C104.307 48.1206 105.344 46.8492 105.344 44.3584V39.0653C105.344 38.3129 104.54 38.6502 104.54 37.9756C104.54 37.7161 104.644 37.6124 104.929 37.4826C105.682 37.1972 107.602 36.7561 108.51 36.7561C109.548 36.7561 109.6 37.3529 109.6 37.8199V47.8092C109.6 48.5357 110.404 48.1984 110.404 48.899C110.404 49.1325 110.3 49.2363 109.989 49.366C109.262 49.6774 107.342 50.0925 106.434 50.0925C105.396 50.0925 105.344 49.4957 105.344 49.0547Z" fill="white"/>
<path d="M116.338 37.8199V38.6243C117.091 37.2751 118.336 36.4967 120.074 36.4967C121.735 36.4967 123.058 37.1972 123.551 38.4686C124.044 39.7399 123.292 40.6221 122.254 40.6221C121.502 40.6221 120.593 40.1551 119.893 39.0913C119.348 38.261 118.907 38.1053 118.518 38.1053C117.22 38.1053 116.338 39.9735 116.338 42.3086V48.5876C116.338 49.3401 117.143 49.0028 117.143 49.7033C117.143 49.9368 117.039 50.0925 116.753 50.0925H111.668C111.408 50.0925 111.279 49.9628 111.279 49.6774C111.279 48.9768 112.083 49.3401 112.083 48.5876V39.0653C112.083 38.3129 111.279 38.6502 111.279 37.9756C111.279 37.7161 111.382 37.6124 111.668 37.4826C112.42 37.1972 114.34 36.7561 115.248 36.7561C116.286 36.7561 116.338 37.3529 116.338 37.8199Z" fill="white"/>
<path d="M129.857 50.352C126.951 50.352 124.902 49.3141 124.305 48.0946C123.812 47.0568 124.538 46.3044 125.602 46.3044C126.536 46.3044 127.678 46.8492 128.456 48.2763C128.664 48.5876 129.131 49.5217 130.558 49.5217C131.596 49.5217 132.478 49.0287 132.478 47.9909C132.478 44.8773 124.461 45.4481 124.461 40.7778C124.461 38.287 126.692 36.4967 129.909 36.4967C131.648 36.4967 134.45 37.0156 135.254 38.6502C135.773 39.7399 135.047 40.5183 133.983 40.5183C133.075 40.5183 131.907 39.9475 131.077 38.4686C130.947 38.261 130.428 37.3269 129.494 37.3269C128.82 37.3269 128.197 37.8718 128.197 38.7799C128.197 41.9973 136.214 41.6859 136.214 46.0968C136.214 48.5876 133.62 50.352 129.857 50.352Z" fill="white"/>
<path d="M142.132 37.8199V48.5876C142.132 49.3401 142.937 49.0028 142.937 49.7033C142.937 49.9368 142.833 50.0925 142.548 50.0925H137.462C137.203 50.0925 137.073 49.9628 137.073 49.6774C137.073 48.9768 137.877 49.3401 137.877 48.5876V39.0653C137.877 38.3129 137.073 38.6502 137.073 37.9756C137.073 37.7161 137.177 37.6124 137.462 37.4826C138.215 37.1972 140.135 36.7561 141.043 36.7561C142.081 36.7561 142.132 37.3529 142.132 37.8199ZM137.488 33.1237C137.488 31.7485 138.63 30.6328 140.005 30.6328C141.354 30.6328 142.47 31.7485 142.47 33.1237C142.47 34.4988 141.354 35.6145 140.005 35.6145C138.63 35.6145 137.488 34.4988 137.488 33.1237Z" fill="white"/>
<path d="M143.761 43.4243C143.761 39.0913 146.875 36.4967 150.715 36.4967C154.529 36.4967 157.642 39.0913 157.642 43.4243C157.642 47.8092 154.529 50.352 150.715 50.352C146.875 50.352 143.761 47.8092 143.761 43.4243ZM151.778 49.4438C153.05 49.2363 153.75 46.8752 153.05 43.0351C152.401 39.1951 150.922 37.1713 149.625 37.4048C148.353 37.6124 147.653 40.0254 148.353 43.8654C149.002 47.7054 150.481 49.7033 151.778 49.4438Z" fill="white"/>
<path d="M171.896 40.5702V48.5876C171.896 49.3401 172.674 49.0028 172.674 49.6774C172.674 49.9368 172.571 50.0925 172.285 50.0925H167.226C166.966 50.0925 166.811 49.9628 166.811 49.7033C166.811 48.9768 167.615 49.3401 167.615 48.5876V40.8816C167.615 39.8697 167.381 38.728 166.084 38.728C164.657 38.728 163.619 40.0254 163.619 42.4903V48.5876C163.619 49.3401 164.424 49.0028 164.424 49.7033C164.424 49.9368 164.32 50.0925 164.034 50.0925H158.949C158.689 50.0925 158.56 49.9628 158.56 49.6774C158.56 48.9768 159.364 49.3401 159.364 48.5876V39.0653C159.364 38.3129 158.56 38.6502 158.56 37.9756C158.56 37.7161 158.663 37.6124 158.949 37.4826C159.701 37.1972 161.621 36.7561 162.529 36.7561C163.567 36.7561 163.619 37.3529 163.619 37.8199V39.1432C164.527 37.5086 166.162 36.4967 168.16 36.4967C170.728 36.4967 171.896 38.1572 171.896 40.5702Z" fill="white"/>
</svg>
