<svg width="123" height="40" viewBox="0 0 123 40" fill="none" xmlns="http://www.w3.org/2000/svg">
<path d="M0 19.9722C0.0845445 16.5046 0.1827 13.0544 1.34609 9.76082C3.2038 4.50155 6.9242 1.49131 12.4444 0.65079C16.1771 0.082447 19.8957 0.0733513 23.5825 0.876308C29.3462 2.13158 32.6305 5.90266 33.9884 11.4864C34.8435 15.0026 34.912 18.594 34.7706 22.1911C34.6642 24.899 34.4183 27.5904 33.5166 30.1704C31.8586 34.9144 28.6765 38.0132 23.6974 39.0912C19.5286 40.0069 15.2099 39.9983 11.0448 39.066C5.94473 37.9317 2.77964 34.6795 1.20178 29.7942C0.168694 26.5955 0.0742859 23.272 0 19.9722Z" fill="#3E8CFF"/>
<path d="M28.7319 23.5349V24.1205C28.7319 24.3352 28.7236 24.5527 28.7124 24.7674C28.704 24.9347 28.6901 25.102 28.6762 25.2665C28.6371 25.7043 28.5814 26.1392 28.5256 26.5658C28.5256 26.5714 28.5256 26.577 28.5228 26.5882C28.5228 26.616 28.5144 26.6411 28.5117 26.669C28.5117 26.6746 28.5089 26.6802 28.5089 26.6857C28.4754 26.9032 28.3973 27.3661 28.3025 27.8011C28.2997 27.8206 28.2942 27.8373 28.2886 27.8568C27.2959 27.9098 26.5236 27.8011 25.9994 27.6895C25.9074 27.6895 25.6648 27.6393 25.2382 27.5222C25.0263 27.4665 24.7725 27.3912 24.4658 27.2992C23.5457 27.0203 22.737 26.7973 21.0362 26.7973C19.3353 26.7973 18.5267 27.0203 17.6065 27.2992C17.1604 27.4386 16.6585 27.578 16.0729 27.6895C15.822 27.7453 14.7903 27.9405 13.424 27.9126C12.8943 27.9126 12.1972 27.8568 11.3886 27.6895C11.3021 27.3661 11.2296 27.0315 11.1571 26.6857C11.1125 26.4683 11.0707 26.2452 11.0261 26.0165C11.0094 25.8994 10.987 25.7823 10.9647 25.668C10.9313 25.4254 10.9034 25.1828 10.8811 24.9403C10.856 24.667 10.8393 24.3937 10.8309 24.1205V23.5349C10.8309 22.9215 10.8588 22.3081 10.9424 21.7225C10.9424 21.611 10.9424 21.4995 10.9982 21.3879C11.0261 21.1649 11.054 20.9418 11.1097 20.7466C11.1097 20.6072 11.1655 20.4678 11.1934 20.3284C11.2213 20.189 11.2491 20.0495 11.277 19.938C11.3328 19.6592 11.4164 19.4082 11.4722 19.1573C11.7232 18.3208 12.0299 17.4843 12.3924 16.7036C12.8385 15.8113 13.3404 14.9469 13.9259 14.1383C14.3442 13.5806 14.7903 13.023 15.2922 12.5211C15.9056 11.9076 16.547 11.2942 17.244 10.7923C17.3835 10.9038 17.5229 11.0154 17.6623 11.1269C17.7738 11.2106 17.8854 11.3221 18.0248 11.4057C18.1642 11.5173 18.3036 11.6288 18.4151 11.7682C18.5546 11.8798 18.694 12.0192 18.8334 12.1586L19.2238 12.549C19.6978 13.0508 20.1718 13.6085 20.59 14.1662C21.1756 14.9748 21.7054 15.8392 22.1236 16.7314H19.2238C18.6661 15.8113 18.0248 14.9469 17.2719 14.1941C16.5191 14.9469 15.8778 15.8113 15.3201 16.7314C14.874 17.5122 14.4836 18.3208 14.1769 19.1852H23.0716C23.3226 20.0217 23.4899 20.886 23.5735 21.7504H13.5635C13.4826 22.4419 13.4547 23.0526 13.4519 23.5628C13.4519 23.8779 13.4603 24.4384 13.53 25.1382C13.5356 25.1884 13.5412 25.2414 13.5467 25.2916C14.0124 25.2916 14.6593 25.2749 15.4874 25.1243C15.9893 25.0406 16.4075 24.9012 16.8537 24.7897C17.8296 24.5109 18.9449 24.1763 21.0362 24.1763C23.1274 24.1763 24.2427 24.5109 25.2186 24.7897C25.6592 24.9152 25.9297 24.9904 26.1137 25.0351C26.1388 24.7311 26.1555 24.4272 26.1667 24.1205V23.5349C26.1667 22.9215 26.1388 22.3081 26.083 21.6946C25.9994 20.8303 25.8321 19.9659 25.6369 19.1294C25.4138 18.2929 25.1629 17.4843 24.8562 16.6757C24.4937 15.7834 24.0754 14.919 23.6014 14.1104C22.988 13.0787 22.2909 12.1028 21.4823 11.2384C20.8689 10.5414 20.1997 9.92793 19.5026 9.3145C18.8055 8.72895 18.0527 8.19917 17.244 7.69727C16.4633 8.17128 15.6826 8.72895 14.9855 9.3145C14.2884 9.90004 13.6192 10.5414 13.0058 11.2384C12.2251 12.1307 11.5001 13.0787 10.8867 14.1104C10.4127 14.919 9.96652 15.7834 9.63192 16.6757C9.32521 17.4564 9.04637 18.2929 8.85119 19.1294C8.65601 19.9659 8.48871 20.8303 8.40506 21.6946C8.34929 22.2802 8.32141 22.9215 8.32141 23.5349C8.32141 24.1484 8.32141 23.8417 8.32141 24.1205C8.34372 24.6475 8.40506 25.2275 8.48035 25.7656C8.59745 26.6272 8.74524 27.3884 8.79543 27.6617C8.37718 27.578 7.90316 27.4944 7.37338 27.4386C6.91052 27.4107 6.50343 27.4107 6.12142 27.4358C6.06008 27.1402 6.00989 26.8503 5.97364 26.5993C5.97086 26.5742 5.96528 26.5491 5.96249 26.524C5.95691 26.4766 5.94855 26.432 5.94297 26.3818C5.9374 26.34 5.93182 26.2982 5.92624 26.2536C5.92067 26.234 5.91788 26.2117 5.91788 26.195C5.91788 26.1615 5.90951 26.1253 5.90394 26.089C5.89557 26.0249 5.88999 25.9719 5.88721 25.9357C5.8175 25.3724 5.75337 24.7423 5.72827 24.1484V23.5628C5.72827 22.9494 5.78404 22.336 5.81192 21.7225C5.89557 20.8582 6.0071 19.9938 6.20229 19.1573C6.36959 18.3208 6.59265 17.5122 6.87148 16.7036C7.1782 15.8392 7.5128 14.9748 7.93105 14.1383C8.57236 12.8278 9.38097 11.6009 10.3011 10.4298C10.7751 9.81639 11.3049 9.23085 11.8626 8.67318C12.1777 8.3581 12.2167 8.3107 12.2223 8.3107C12.2223 8.3107 12.2251 8.31907 12.2808 8.28282C13.0058 7.58574 13.7586 6.97231 14.5673 6.38676C15.4037 5.77333 16.296 5.24355 17.2162 4.76953C18.1363 5.24355 19.0286 5.77333 19.8651 6.38676C20.6737 6.94442 21.4265 7.58574 22.1515 8.28282C22.2909 8.39435 22.4303 8.53377 22.5697 8.67318C23.1274 9.23085 23.6572 9.81639 24.1312 10.4298C25.0513 11.6009 25.86 12.8278 26.5013 14.1383C26.9195 14.9748 27.282 15.8392 27.5887 16.7036C27.8675 17.5122 28.0906 18.3208 28.2579 19.1573C28.4531 19.9938 28.5646 20.8582 28.6483 21.7225C28.704 22.3276 28.7319 22.9299 28.7319 23.5349Z" fill="#F4F3EC"/>
<path d="M6.12169 27.4381C6.12169 27.4381 6.10217 27.4408 6.09102 27.4408C6.06313 27.2373 6.01852 26.9473 5.97391 26.6016C6.01016 26.8525 6.06035 27.1425 6.12169 27.4381Z" fill="#F4F3EC"/>
<path d="M27.4521 30.3017C27.0199 31.286 26.5375 32.1755 26.1918 32.7833C26.0161 32.7555 25.8488 32.722 25.6927 32.6885C25.1964 32.5826 24.7809 32.4599 24.3822 32.3456C23.462 32.0667 22.6813 31.8437 21.0083 31.8437C19.3353 31.8437 18.5267 32.0667 17.6344 32.3456C16.6585 32.6244 15.5711 32.959 13.5077 32.959C11.4444 32.959 10.3569 32.6244 9.38101 32.3456C9.12448 32.2675 8.87911 32.195 8.61979 32.1309C8.42182 32.0779 8.21549 32.0333 7.99242 31.9942C7.4961 31.2275 6.99141 30.2878 6.61499 29.2338C7.54071 29.2645 8.24895 29.3704 8.84565 29.4987C9.33082 29.6019 9.7407 29.7246 10.1339 29.8361C11.054 30.1149 11.8347 30.338 13.5077 30.338C15.1807 30.338 15.9893 30.1149 16.8816 29.8361C17.8575 29.5573 18.945 29.2227 21.0083 29.2227C23.0717 29.2227 24.1591 29.5573 25.135 29.8361C25.241 29.8695 25.3469 29.9002 25.4501 29.9281C26.0329 30.101 26.6073 30.2404 27.4521 30.3017Z" fill="#F4F3EC"/>
<path d="M28.5227 26.5859C28.5227 26.6028 28.5171 26.6309 28.5114 26.6675C28.5143 26.6393 28.5199 26.614 28.5227 26.5859Z" fill="#F4F3EC"/>
<path d="M28.7205 24.636C28.7177 24.6806 28.7149 24.7252 28.7121 24.7671C28.7233 24.5524 28.7316 24.3349 28.7316 24.1202V23.5625C28.74 23.9027 28.7372 24.2596 28.7205 24.636Z" fill="#F4F3EC"/>
<path d="M44.3307 12.5322H47.2121L45.8173 6.86119L44.3307 12.5322ZM47.9646 17.7444C47.9646 17.2673 48.4417 17.4875 48.3133 17.0103L47.3589 13.1012H44.1655L43.358 16.1661C42.9726 17.6527 44.4592 17.2489 44.4592 17.7444C44.4592 17.928 44.4041 18.0381 44.1839 18.0381H42.0916C41.8897 18.0381 41.7796 17.9463 41.7796 17.7444C41.7796 17.2489 42.422 17.4875 42.5505 17.0103L45.5053 5.74167C45.3034 5.42967 44.8079 5.57649 44.8079 5.15438C44.8079 4.95249 44.8813 4.84238 45.1015 4.84238H48.7537C48.9556 4.84238 49.0474 4.93414 49.0474 5.15438C49.0474 5.6132 48.5885 5.39296 48.6987 5.88849L51.4332 16.9736C51.5617 17.5059 52.2041 17.2489 52.2041 17.7444C52.2041 17.928 52.1307 18.0381 51.9288 18.0381H48.2582C48.0563 18.0381 47.9646 17.9463 47.9646 17.7444Z" fill="#2C2B2B"/>
<path d="M61.7995 11.3026V16.9736C61.7995 17.5059 62.35 17.2673 62.35 17.7444C62.35 17.928 62.2766 18.0381 62.0748 18.0381H58.4959C58.3124 18.0381 58.2023 17.9463 58.2023 17.7628C58.2023 17.2489 58.7712 17.5059 58.7712 16.9736V11.5228C58.7712 10.8071 58.6061 9.99953 57.6884 9.99953C56.679 9.99953 55.9449 10.9172 55.9449 12.6607V16.9736C55.9449 17.5059 56.5138 17.2673 56.5138 17.7628C56.5138 17.928 56.4404 18.0381 56.2385 18.0381H52.6414C52.4578 18.0381 52.3661 17.9463 52.3661 17.7444C52.3661 17.2489 52.935 17.5059 52.935 16.9736V10.2381C52.935 9.70589 52.3661 9.94447 52.3661 9.4673C52.3661 9.28377 52.4395 9.21036 52.6414 9.1186C53.1736 8.91671 54.5317 8.60472 55.1741 8.60472C55.9082 8.60472 55.9449 9.02683 55.9449 9.35718V10.2932C56.5872 9.13695 57.7435 8.42119 59.1566 8.42119C60.9736 8.42119 61.7995 9.59577 61.7995 11.3026Z" fill="#2C2B2B"/>
<path d="M69.0883 12.991V12.6607C69.0883 11.064 68.3909 9.57742 67.4549 9.57742C66.4271 9.57742 66.2069 11.5228 66.2069 13.1012C66.2069 15.5421 66.7391 16.7717 67.565 16.7717C68.3909 16.7717 69.0883 15.487 69.0883 12.991ZM72.0981 5.00755V16.6066C72.0981 17.1388 72.6671 16.8819 72.6671 17.3774C72.6671 17.5426 72.5937 17.616 72.3734 17.7261C71.8596 17.928 70.5014 18.2216 69.8591 18.2216C69.125 18.2216 69.0883 17.8179 69.0883 17.4875V16.5515C68.6111 17.616 67.8403 18.2216 66.629 18.2216C64.4266 18.2216 62.9768 16.1477 62.9768 13.2663C62.9768 10.3482 64.4817 8.42119 66.6473 8.42119C67.7669 8.42119 68.5927 8.93507 69.0883 9.87106V5.90684C69.0883 5.37461 68.5193 5.6132 68.5193 5.11767C68.5193 4.95249 68.5927 4.87908 68.7946 4.78732C69.3269 4.58544 70.685 4.27344 71.3273 4.27344C72.0614 4.27344 72.0981 4.69555 72.0981 5.00755Z" fill="#2C2B2B"/>
<path d="M79.7417 18.2216C79.0076 18.2216 78.9709 17.8179 78.9709 17.4875V16.4781C78.4753 17.5793 77.6127 18.2216 76.1996 18.2216C74.3459 18.2216 73.2448 17.1021 73.2448 15.5605C73.2448 13.2663 75.7408 11.9816 78.9892 11.8532C78.9892 10.3849 78.8791 9.32048 78.1083 9.10024C77.3925 8.89836 76.9887 9.66918 76.8419 9.92612C76.2913 10.9172 75.4838 11.3026 74.8415 11.3026C74.089 11.3026 73.5751 10.752 73.9238 10.0362C74.3459 9.1553 75.7958 8.42119 77.6127 8.42119C80.641 8.42119 81.9991 10.4033 81.9991 13.2847V16.6066C81.9991 17.1388 82.5497 16.8819 82.5497 17.3774C82.5497 17.5426 82.4763 17.616 82.2744 17.7261C81.7421 17.928 80.384 18.2216 79.7417 18.2216ZM77.3742 16.7717C78.2735 16.7717 78.9709 15.487 78.9709 12.991C78.9892 12.7892 78.9892 12.6056 78.9892 12.4221C77.4659 12.5873 76.273 13.3765 76.273 15.0649C76.273 16.0009 76.6584 16.7717 77.3742 16.7717Z" fill="#2C2B2B"/>
<path d="M96.1157 11.3026V16.9736C96.1157 17.5059 96.6663 17.2673 96.6663 17.7444C96.6663 17.928 96.5929 18.0381 96.391 18.0381H92.8122C92.6287 18.0381 92.5369 17.9463 92.5369 17.7628C92.5369 17.2489 93.0875 17.5059 93.0875 16.9736V11.5228C93.0875 10.8071 92.9223 9.99953 92.4085 9.99953C91.8028 9.99953 91.399 11.1374 91.399 12.6607V16.9736C91.399 17.5059 91.968 17.2673 91.968 17.7444C91.968 17.928 91.8946 18.0381 91.6743 18.0381H88.0955C87.912 18.0381 87.8202 17.9463 87.8202 17.7628C87.8202 17.2489 88.3892 17.5059 88.3892 16.9736V11.5228C88.3892 10.8071 88.2057 9.99953 87.7101 9.99953C87.1045 9.99953 86.6824 11.1374 86.6824 12.6607V16.9736C86.6824 17.5059 87.2513 17.2673 87.2513 17.7628C87.2513 17.928 87.1779 18.0381 86.976 18.0381H83.3788C83.1953 18.0381 83.1036 17.9463 83.1036 17.7444C83.1036 17.2489 83.6725 17.5059 83.6725 16.9736V10.2381C83.6725 9.70589 83.1036 9.94447 83.1036 9.4673C83.1036 9.28377 83.177 9.21036 83.3788 9.1186C83.9111 8.91671 85.2692 8.60472 85.9115 8.60472C86.6457 8.60472 86.6824 9.02683 86.6824 9.35718V10.0729C87.2146 9.04518 88.1139 8.42119 89.2334 8.42119C90.3346 8.42119 91.0504 9.04518 91.3073 10.2748C91.8212 9.1186 92.7572 8.42119 93.9501 8.42119C95.3449 8.42119 96.1157 9.41224 96.1157 11.3026Z" fill="#2C2B2B"/>
<path d="M103.722 18.2216C102.988 18.2216 102.951 17.8179 102.951 17.4875V16.4781C102.456 17.5793 101.593 18.2216 100.18 18.2216C98.3265 18.2216 97.2254 17.1021 97.2254 15.5605C97.2254 13.2663 99.7214 11.9816 102.97 11.8532C102.97 10.3849 102.86 9.32048 102.089 9.10024C101.373 8.89836 100.969 9.66918 100.823 9.92612C100.272 10.9172 99.4644 11.3026 98.8221 11.3026C98.0696 11.3026 97.5557 10.752 97.9044 10.0362C98.3265 9.1553 99.7764 8.42119 101.593 8.42119C104.622 8.42119 105.98 10.4033 105.98 13.2847V16.6066C105.98 17.1388 106.53 16.8819 106.53 17.3774C106.53 17.5426 106.457 17.616 106.255 17.7261C105.723 17.928 104.365 18.2216 103.722 18.2216ZM101.355 16.7717C102.254 16.7717 102.951 15.487 102.951 12.991C102.97 12.7892 102.97 12.6056 102.97 12.4221C101.447 12.5873 100.254 13.3765 100.254 15.0649C100.254 16.0009 100.639 16.7717 101.355 16.7717Z" fill="#2C2B2B"/>
<path d="M116.518 11.3026V16.9736C116.518 17.5059 117.068 17.2673 117.068 17.7444C117.068 17.928 116.995 18.0381 116.793 18.0381H113.214C113.03 18.0381 112.92 17.9463 112.92 17.7628C112.92 17.2489 113.489 17.5059 113.489 16.9736V11.5228C113.489 10.8071 113.324 9.99953 112.406 9.99953C111.397 9.99953 110.663 10.9172 110.663 12.6607V16.9736C110.663 17.5059 111.232 17.2673 111.232 17.7628C111.232 17.928 111.158 18.0381 110.957 18.0381H107.359C107.176 18.0381 107.084 17.9463 107.084 17.7444C107.084 17.2489 107.653 17.5059 107.653 16.9736V10.2381C107.653 9.70589 107.084 9.94447 107.084 9.4673C107.084 9.28377 107.158 9.21036 107.359 9.1186C107.892 8.91671 109.25 8.60472 109.892 8.60472C110.626 8.60472 110.663 9.02683 110.663 9.35718V10.2932C111.305 9.13695 112.462 8.42119 113.875 8.42119C115.692 8.42119 116.518 9.59577 116.518 11.3026Z" fill="#2C2B2B"/>
<path d="M41.7796 35.2836C41.7796 34.7661 42.3526 35.0248 42.3526 34.4888V23.3441C42.3526 22.8081 41.7796 23.0484 41.7796 22.5864C41.7796 22.3831 41.8536 22.2722 42.0569 22.2722H48.5071C49.0985 22.2722 49.4312 22.5864 49.4867 23.1593L49.7269 25.4141C49.7454 25.5989 49.6715 25.6914 49.5052 25.6914C48.5626 25.6914 48.3962 22.8451 45.8087 22.8451H45.3836V28.63H45.6054C47.2319 28.63 47.2503 27.1145 47.9527 27.1145C48.1375 27.1145 48.2299 27.2069 48.2299 27.3917V30.4228C48.2299 30.6261 48.1375 30.7185 47.9342 30.7185C47.2319 30.7185 47.2873 29.203 45.6978 29.203H45.3836V34.9879H46.3817C48.9692 34.9879 49.117 32.1416 50.0781 32.1416C50.2444 32.1416 50.3184 32.234 50.2999 32.4373L50.0596 34.6737C50.0042 35.2651 49.6715 35.5608 49.0616 35.5608H42.0569C41.872 35.5608 41.7796 35.4684 41.7796 35.2836Z" fill="#2C2B2B"/>
<path d="M50.8024 35.5608C50.5991 35.5608 50.5251 35.4684 50.5251 35.2651C50.5251 34.7106 51.3014 35.0248 51.5786 34.5258L53.3714 31.0512L51.4308 27.133C51.172 26.597 50.5251 26.8927 50.5251 26.3752C50.5251 26.1904 50.5806 26.061 50.7839 26.061H54.9424C55.1641 26.061 55.275 26.1719 55.275 26.3752C55.275 26.8927 54.5912 26.6155 54.8315 27.1145L56.2176 29.9238L57.382 27.7429C58.1583 26.2643 56.4209 26.9481 56.4209 26.3752C56.4209 26.1904 56.5318 26.061 56.7351 26.061H59.1008C59.3226 26.061 59.3966 26.1719 59.3966 26.3752C59.3966 26.9297 58.6203 26.597 58.3431 27.1145L56.5503 30.5891L58.4724 34.4888C58.7497 35.0248 59.3966 34.7476 59.3966 35.2651C59.3966 35.4499 59.3411 35.5608 59.1193 35.5608H54.9608C54.7575 35.5608 54.6466 35.4684 54.6466 35.2651C54.6466 34.7476 55.312 34.9879 55.0533 34.4888L53.6856 31.7165L52.5397 33.8974C51.7634 35.3575 53.4823 34.6921 53.4823 35.2651C53.4823 35.4499 53.3899 35.5608 53.1866 35.5608H50.8024Z" fill="#2C2B2B"/>
<path d="M68.3098 32.9918C67.2564 34.6182 65.519 35.7456 63.6708 35.7456C61.1942 35.7456 59.0688 33.7311 59.0688 30.7739C59.0688 27.8722 61.1018 25.8762 64.1329 25.8762C65.9811 25.8762 67.4412 26.6155 67.8663 27.5026C68.2174 28.2234 67.6814 28.7779 66.9237 28.7779C66.2768 28.7779 65.4636 28.3897 64.9091 27.3917C64.7613 27.133 64.3731 26.3567 63.6154 26.56C62.5804 26.8742 61.8596 28.8518 62.3956 31.1621C62.7282 32.6037 63.5045 33.8974 65.2973 33.8974C66.0735 33.8974 66.8682 33.6387 67.7923 32.6037C68.0696 32.308 68.2174 32.1786 68.3283 32.1786C68.3838 32.1786 68.4207 32.2155 68.4762 32.2525C68.6425 32.3819 68.6425 32.5297 68.3098 32.9918Z" fill="#2C2B2B"/>
<path d="M75.0393 34.8215V33.8789C74.3925 35.0433 73.302 35.7456 72.0083 35.7456C70.3449 35.7456 69.5317 34.5813 69.5317 32.8439V27.7059C69.5317 27.1699 68.9587 27.4102 68.9587 26.9297C68.9587 26.7448 69.0327 26.6709 69.236 26.5785C69.7719 26.3752 71.1396 26.061 71.7865 26.061C72.5258 26.061 72.5627 26.4861 72.5627 26.8188V32.6406C72.5627 33.3614 72.7291 34.1562 73.4869 34.1562C74.3001 34.1562 75.0393 33.2505 75.0393 31.4763V27.7059C75.0393 27.1699 74.4664 27.4102 74.4664 26.9297C74.4664 26.7448 74.5403 26.6709 74.7436 26.5785C75.2796 26.3752 76.6473 26.061 77.2942 26.061C78.0335 26.061 78.0704 26.4861 78.0704 26.8188V33.9344C78.0704 34.4519 78.6434 34.2116 78.6434 34.7106C78.6434 34.877 78.5694 34.9509 78.3477 35.0433C77.8302 35.2651 76.4625 35.5608 75.8156 35.5608C75.0763 35.5608 75.0393 35.1357 75.0393 34.8215Z" fill="#2C2B2B"/>
<path d="M82.8704 26.8188V27.3917C83.4064 26.4306 84.2936 25.8762 85.5319 25.8762C86.7147 25.8762 87.6573 26.3752 88.0085 27.2808C88.3596 28.1864 87.8236 28.8148 87.0844 28.8148C86.5484 28.8148 85.9015 28.4822 85.4025 27.7244C85.0144 27.133 84.7002 27.0221 84.4229 27.0221C83.4988 27.0221 82.8704 28.3528 82.8704 30.0162V34.4888C82.8704 35.0248 83.4434 34.7846 83.4434 35.2836C83.4434 35.4499 83.3694 35.5608 83.1661 35.5608H79.5436C79.3588 35.5608 79.2664 35.4684 79.2664 35.2651C79.2664 34.7661 79.8394 35.0248 79.8394 34.4888V27.7059C79.8394 27.1699 79.2664 27.4102 79.2664 26.9297C79.2664 26.7448 79.3403 26.6709 79.5436 26.5785C80.0796 26.3752 81.4473 26.061 82.0942 26.061C82.8335 26.061 82.8704 26.4861 82.8704 26.8188Z" fill="#2C2B2B"/>
<path d="M92.5005 35.7456C90.4305 35.7456 88.9704 35.0063 88.5453 34.1377C88.1941 33.3984 88.7116 32.8624 89.4694 32.8624C90.1348 32.8624 90.948 33.2505 91.5024 34.2671C91.6503 34.4888 91.983 35.1542 92.9995 35.1542C93.7388 35.1542 94.3672 34.803 94.3672 34.0638C94.3672 31.8459 88.6562 32.2525 88.6562 28.9257C88.6562 27.1514 90.2457 25.8762 92.5374 25.8762C93.7757 25.8762 95.7718 26.2458 96.3448 27.4102C96.7144 28.1864 96.1969 28.7409 95.4391 28.7409C94.7923 28.7409 93.9606 28.3343 93.3691 27.2808C93.2767 27.133 92.9071 26.4676 92.2417 26.4676C91.7612 26.4676 91.3176 26.8557 91.3176 27.5026C91.3176 29.7944 97.0286 29.5726 97.0286 32.7146C97.0286 34.4888 95.1804 35.7456 92.5005 35.7456Z" fill="#2C2B2B"/>
<path d="M101.244 26.8188V34.4888C101.244 35.0248 101.817 34.7846 101.817 35.2836C101.817 35.4499 101.743 35.5608 101.54 35.5608H97.9175C97.7327 35.5608 97.6402 35.4684 97.6402 35.2651C97.6402 34.7661 98.2132 35.0248 98.2132 34.4888V27.7059C98.2132 27.1699 97.6402 27.4102 97.6402 26.9297C97.6402 26.7448 97.7142 26.6709 97.9175 26.5785C98.4535 26.3752 99.8211 26.061 100.468 26.061C101.207 26.061 101.244 26.4861 101.244 26.8188ZM97.936 23.4735C97.936 22.494 98.7492 21.6992 99.7287 21.6992C100.69 21.6992 101.485 22.494 101.485 23.4735C101.485 24.4531 100.69 25.2478 99.7287 25.2478C98.7492 25.2478 97.936 24.4531 97.936 23.4735Z" fill="#2C2B2B"/>
<path d="M102.404 30.8109C102.404 27.7244 104.622 25.8762 107.357 25.8762C110.074 25.8762 112.292 27.7244 112.292 30.8109C112.292 33.9344 110.074 35.7456 107.357 35.7456C104.622 35.7456 102.404 33.9344 102.404 30.8109ZM108.115 35.0988C109.021 34.9509 109.52 33.269 109.021 30.5337C108.559 27.7983 107.505 26.3567 106.581 26.523C105.676 26.6709 105.177 28.3897 105.676 31.1251C106.138 33.8604 107.191 35.2836 108.115 35.0988Z" fill="#2C2B2B"/>
<path d="M122.446 28.7779V34.4888C122.446 35.0248 123 34.7846 123 35.2651C123 35.4499 122.926 35.5608 122.723 35.5608H119.119C118.934 35.5608 118.823 35.4684 118.823 35.2836C118.823 34.7661 119.396 35.0248 119.396 34.4888V28.9997C119.396 28.2789 119.23 27.4656 118.306 27.4656C117.289 27.4656 116.55 28.3897 116.55 30.1455V34.4888C116.55 35.0248 117.123 34.7846 117.123 35.2836C117.123 35.4499 117.049 35.5608 116.845 35.5608H113.223C113.038 35.5608 112.946 35.4684 112.946 35.2651C112.946 34.7661 113.519 35.0248 113.519 34.4888V27.7059C113.519 27.1699 112.946 27.4102 112.946 26.9297C112.946 26.7448 113.02 26.6709 113.223 26.5785C113.759 26.3752 115.127 26.061 115.773 26.061C116.513 26.061 116.55 26.4861 116.55 26.8188V27.7614C117.197 26.597 118.361 25.8762 119.784 25.8762C121.614 25.8762 122.446 27.059 122.446 28.7779Z" fill="#2C2B2B"/>
</svg>
