<svg width="24" height="24" viewBox="0 0 24 24" fill="none" xmlns="http://www.w3.org/2000/svg">
<rect y="0.0078125" width="24" height="24" rx="8" fill="white"/>
<path d="M16.4494 11.3505C16.3693 11.3133 16.2879 11.2775 16.2055 11.2433C16.0619 8.68327 14.6167 7.21766 12.1899 7.20266C12.1789 7.20259 12.168 7.20259 12.157 7.20259C10.7054 7.20259 9.49822 7.80227 8.75519 8.8935L10.0898 9.77964C10.6449 8.96453 11.5161 8.79076 12.1576 8.79076C12.165 8.79076 12.1725 8.79076 12.1798 8.79083C12.9788 8.79576 13.5818 9.02062 13.9721 9.45913C14.2561 9.77837 14.446 10.2195 14.5401 10.7763C13.8316 10.6598 13.0654 10.6239 12.2464 10.6694C9.9391 10.798 8.4558 12.1004 8.55542 13.9102C8.60597 14.8282 9.07848 15.6179 9.88585 16.1338C10.5685 16.57 11.4477 16.7833 12.3614 16.735C13.568 16.6709 14.5147 16.2253 15.1751 15.4106C15.6766 14.7918 15.9939 13.99 16.1339 12.9796C16.709 13.3155 17.1352 13.7576 17.3705 14.2889C17.7708 15.1922 17.7941 16.6766 16.5428 17.8867C15.4464 18.9468 14.1285 19.4054 12.1368 19.4196C9.92743 19.4038 8.25652 18.718 7.17015 17.3813C6.15285 16.1296 5.62711 14.3217 5.60749 12.0078C5.62711 9.69386 6.15285 7.88596 7.17015 6.63432C8.25652 5.29765 9.9274 4.61188 12.1367 4.59598C14.3621 4.612 16.0621 5.30107 17.1901 6.64419C17.7432 7.30284 18.1602 8.13114 18.4351 9.0969L19.9991 8.69302C19.6659 7.50427 19.1416 6.47991 18.4281 5.63038C16.982 3.90844 14.8672 3.02611 12.1422 3.00781H12.1313C9.41187 3.02604 7.32067 3.91173 5.91581 5.64025C4.66568 7.17841 4.02082 9.31866 3.99915 12.0015L3.99908 12.0078L3.99915 12.0141C4.02082 14.6969 4.66568 16.8373 5.91581 18.3754C7.32067 20.1039 9.41187 20.9896 12.1313 21.0078H12.1422C14.5599 20.9916 16.2641 20.3789 17.668 19.0213C19.5048 17.2453 19.4495 15.019 18.8441 13.6523C18.4098 12.6722 17.5817 11.8762 16.4494 11.3505ZM12.275 15.1491C11.2638 15.2042 10.2132 14.7649 10.1614 13.8239C10.123 13.1263 10.6744 12.3478 12.3371 12.255C12.5275 12.2444 12.7143 12.2392 12.8979 12.2392C13.5018 12.2392 14.0668 12.296 14.5804 12.4047C14.3889 14.7205 13.2651 15.0965 12.275 15.1491Z" fill="#3E8CFF"/>
</svg>
