<svg width="23" height="36" viewBox="0 0 23 36" fill="none" xmlns="http://www.w3.org/2000/svg">
<g clip-path="url(#clip0_559_2559)">
<path opacity="0.8" d="M4.50468 9.15039C3.96024 9.15039 3.44913 9.05039 2.97135 8.85039C2.49357 8.64483 2.07135 8.36428 1.70468 8.00872C1.34357 7.65317 1.06024 7.23928 0.854688 6.76706C0.654688 6.29483 0.554688 5.78928 0.554688 5.25039C0.554688 4.7115 0.654688 4.20595 0.854688 3.73372C1.06024 3.2615 1.34357 2.84761 1.70468 2.49206C2.07135 2.1365 2.49357 1.85872 2.97135 1.65872C3.44913 1.45317 3.96024 1.35039 4.50468 1.35039C5.01024 1.35039 5.48524 1.4365 5.92968 1.60872C6.37413 1.77539 6.77135 2.01428 7.12135 2.32539L6.72968 3.91706C6.51302 3.55595 6.21579 3.25595 5.83802 3.01706C5.46024 2.77817 5.02691 2.65872 4.53802 2.65872C4.06579 2.65872 3.63802 2.77539 3.25468 3.00872C2.87135 3.24206 2.56579 3.55317 2.33802 3.94206C2.11579 4.33095 2.00468 4.76706 2.00468 5.25039C2.00468 5.72817 2.11579 6.16428 2.33802 6.55872C2.56579 6.94761 2.87135 7.25872 3.25468 7.49206C3.63802 7.72539 4.06579 7.84206 4.53802 7.84206C5.02135 7.84206 5.45191 7.72261 5.82968 7.48372C6.21302 7.23928 6.51302 6.93928 6.72968 6.58372L7.12135 8.17539C6.77135 8.48095 6.37413 8.71983 5.92968 8.89206C5.48524 9.06428 5.01024 9.15039 4.50468 9.15039ZM10.2338 9.11706C9.77829 9.11706 9.36163 9.00039 8.98385 8.76706C8.60607 8.52817 8.30329 8.2115 8.07552 7.81706C7.85329 7.41706 7.74218 6.97817 7.74218 6.50039C7.74218 6.02261 7.85329 5.5865 8.07552 5.19206C8.30329 4.79206 8.60607 4.47539 8.98385 4.24206C9.36163 4.00317 9.77829 3.88372 10.2338 3.88372C10.5616 3.88372 10.8644 3.94206 11.1422 4.05872C11.4199 4.17539 11.6561 4.33928 11.8505 4.55039V4.00039H12.9922V9.00039H11.8505V8.45039C11.6561 8.65595 11.4199 8.81983 11.1422 8.94206C10.8644 9.05872 10.5616 9.11706 10.2338 9.11706ZM10.3922 7.95872C10.6588 7.95872 10.8977 7.89206 11.1088 7.75872C11.3255 7.62539 11.4977 7.45039 11.6255 7.23372C11.7533 7.0115 11.8172 6.76706 11.8172 6.50039C11.8172 6.23372 11.7533 5.99206 11.6255 5.77539C11.4977 5.55317 11.3255 5.37539 11.1088 5.24206C10.8977 5.10872 10.6616 5.04206 10.4005 5.04206C10.1338 5.04206 9.89218 5.10872 9.67552 5.24206C9.46441 5.37539 9.29496 5.55317 9.16718 5.77539C9.03941 5.99206 8.97552 6.23372 8.97552 6.50039C8.97552 6.76706 9.03941 7.0115 9.16718 7.23372C9.29496 7.45039 9.46441 7.62539 9.67552 7.75872C9.89218 7.89206 10.1311 7.95872 10.3922 7.95872ZM14.8114 9.00039V5.05039H13.8281V4.00039H14.8364V2.68372C14.8364 2.10039 15.0059 1.65872 15.3448 1.35872C15.6837 1.05317 16.1003 0.900391 16.5948 0.900391C16.7781 0.900391 16.9559 0.922613 17.1281 0.967058C17.3059 1.00595 17.4642 1.06983 17.6031 1.15872L17.3364 2.25872C17.1531 2.04206 16.9392 1.93372 16.6948 1.93372C16.5503 1.93372 16.4142 1.9865 16.2864 2.09206C16.1587 2.19206 16.0948 2.38372 16.0948 2.66706V4.00039H17.1448V5.05039H16.1198V9.00039H14.8114ZM20.2653 9.15039C19.7153 9.15039 19.2265 9.03372 18.7987 8.80039C18.3765 8.56706 18.0459 8.24761 17.807 7.84206C17.5737 7.43095 17.457 6.96706 17.457 6.45039C17.457 5.95595 17.5709 5.51428 17.7987 5.12539C18.032 4.73095 18.3459 4.41983 18.7403 4.19206C19.1348 3.96428 19.5709 3.85039 20.0487 3.85039C20.5376 3.85039 20.9737 3.96428 21.357 4.19206C21.7459 4.41428 22.0542 4.71706 22.282 5.10039C22.5098 5.48372 22.6237 5.91983 22.6237 6.40872V6.88372H19.5153C19.3765 6.88372 19.2403 6.87539 19.107 6.85872C18.9737 6.84206 18.8403 6.82261 18.707 6.80039C18.7737 7.1615 18.9487 7.45872 19.232 7.69206C19.5153 7.92539 19.8709 8.04206 20.2987 8.04206C20.6153 8.04206 20.9015 7.97539 21.157 7.84206C21.4126 7.70872 21.6237 7.54206 21.7903 7.34206L22.0903 8.56706C21.8403 8.7615 21.5598 8.90595 21.2487 9.00039C20.9376 9.10039 20.6098 9.15039 20.2653 9.15039ZM18.6737 5.99206C18.957 5.9365 19.2376 5.90872 19.5153 5.90872H20.5903C20.7403 5.90872 20.882 5.91428 21.0153 5.92539C21.1487 5.9365 21.2765 5.95317 21.3987 5.97539C21.3153 5.65317 21.1515 5.39483 20.907 5.20039C20.6681 5.00595 20.3792 4.90872 20.0403 4.90872C19.707 4.90872 19.4181 5.00872 19.1737 5.20872C18.9292 5.40872 18.7626 5.66983 18.6737 5.99206Z" fill="black"/>
<path d="M7 36V26.85C6.15 26.6167 5.4375 26.15 4.8625 25.45C4.2875 24.75 4 23.9333 4 23V16H6V23H7V16H9V23H10V16H12V23C12 23.9333 11.7125 24.75 11.1375 25.45C10.5625 26.15 9.85 26.6167 9 26.85V36H7ZM17 36V28H14V21C14 19.6167 14.4875 18.4375 15.4625 17.4625C16.4375 16.4875 17.6167 16 19 16V36H17Z" fill="#BEBEBE"/>
</g>
<defs>
<clipPath id="clip0_559_2559">
<rect width="23" height="36" fill="white"/>
</clipPath>
</defs>
</svg>
