<svg width="209" height="114" viewBox="0 0 209 114" fill="none" xmlns="http://www.w3.org/2000/svg">
<g clip-path="url(#clip0_559_2628)">
<path opacity="0.8" fill-rule="evenodd" clip-rule="evenodd" d="M3.20157 8.79922L3.20157 2.89922L1.10156 2.89922L1.10156 1.79922L6.70157 1.79922L6.70157 2.89922L4.50156 2.89922L4.50156 8.79922L3.20157 8.79922ZM7.40157 8.79922L7.40157 1.59922L8.60156 1.59922L8.60156 4.49922C8.90156 3.99922 9.50157 3.69922 10.2016 3.69922C11.3016 3.69922 12.1016 4.49922 12.1016 5.69922L12.1016 8.79922L10.8016 8.79922L10.8016 5.89922C10.8016 5.29922 10.4016 4.79922 9.80156 4.79922C9.10156 4.79922 8.60156 5.29922 8.60156 6.09922L8.60156 8.79922L7.40157 8.79922ZM13.1016 1.59922L14.4016 1.59922L14.4016 2.99922L13.1016 2.99922L13.1016 1.59922ZM13.2016 8.79922L13.2016 3.69922L14.4016 3.69922L14.4016 8.79922L13.2016 8.79922ZM17.4016 8.89922C16.1016 8.89922 15.3016 8.19922 15.3016 7.09922L16.4016 7.09922C16.4016 7.59922 16.8016 7.89922 17.4016 7.89922C17.8016 7.89922 18.2016 7.59922 18.2016 7.29922C18.2016 6.19922 15.4016 7.29922 15.4016 5.19922C15.4016 4.29922 16.2016 3.69922 17.2016 3.69922C18.4016 3.69922 19.2016 4.29922 19.2016 5.29922L18.1016 5.29922C18.1016 4.79922 17.6016 4.59922 17.2016 4.59922C16.8016 4.59922 16.5016 4.79922 16.5016 5.09922C16.5016 6.19922 19.3016 4.99922 19.3016 7.29922C19.3016 8.19922 18.5016 8.89922 17.4016 8.89922ZM23.5016 8.79922L21.9016 3.69922L23.2016 3.69922L24.1016 7.09922L25.1016 3.69922L26.2016 3.69922L27.2016 7.09922L28.1016 3.69922L29.3016 3.69922L27.7016 8.79922L26.7016 8.79922L25.6016 5.39922L24.6016 8.79922L23.5016 8.79922ZM31.9016 3.59922C33.1016 3.59922 34.0016 4.39922 34.0016 5.49922L34.0016 8.79922L32.8016 8.79922L32.8016 7.99922C32.6016 8.49922 32.0016 8.89922 31.3016 8.89922C30.3016 8.89922 29.6016 8.19922 29.6016 7.29922C29.6016 6.39922 30.4016 5.79922 31.5016 5.79922L32.5016 5.79922C32.7016 5.79922 32.8016 5.59922 32.8016 5.39922C32.8016 4.89922 32.4016 4.59922 31.8016 4.59922C31.1016 4.59922 30.8016 4.99922 30.7016 5.39922L29.6016 5.39922C29.7016 4.39922 30.5016 3.69922 31.9016 3.69922L31.9016 3.59922ZM31.6016 7.79922C32.4016 7.79922 32.8016 7.29922 32.8016 6.49922L31.7016 6.49922C31.2016 6.49922 30.8016 6.79922 30.8016 7.19922C30.8016 7.59922 31.1016 7.79922 31.6016 7.79922ZM39.2016 3.59922L37.5016 8.39922L36.7016 10.6992L35.5016 10.6992L36.2016 8.69922L34.4016 3.59922L35.6016 3.59922L36.8016 7.09922L38.0016 3.59922L39.2016 3.59922ZM46.7016 3.59922L46.7016 8.69922L45.4016 8.69922L45.4016 7.89922C45.1016 8.39922 44.6016 8.79922 43.9016 8.79922C42.7016 8.79922 42.0016 7.89922 42.0016 6.79922L42.0016 3.59922L43.2016 3.59922L43.2016 6.49922C43.2016 7.19922 43.6016 7.69922 44.3016 7.69922C44.9016 7.69922 45.4016 7.09922 45.4016 6.39922L45.4016 3.59922L46.7016 3.59922ZM47.9016 10.6992L47.9016 3.59922L49.1016 3.59922L49.1016 4.29922C49.4016 3.79922 50.0016 3.59922 50.6016 3.59922C52.1016 3.59922 53.0016 4.59922 53.0016 6.19922C53.0016 7.69922 52.0016 8.79922 50.5016 8.79922C49.9016 8.79922 49.4016 8.49922 49.1016 8.09922L49.1016 10.6992L47.9016 10.6992ZM50.4016 7.69922C51.2016 7.69922 51.8016 7.09922 51.8016 6.19922C51.8016 5.19922 51.2016 4.59922 50.4016 4.59922C49.6016 4.59922 49.1016 5.19922 49.1016 6.19922C49.1016 7.09922 49.6016 7.69922 50.4016 7.69922Z" fill="black"/>
<path opacity="0.6" d="M12.5 24.5L12.5 24L12 24L12 24.5L12.5 24.5ZM12.5 32.5L12 32.5L12 33L12.5 33L12.5 32.5ZM12.5 25L44.5 25L44.5 24L12.5 24L12.5 25ZM44.5 32L12.5 32L12.5 33L44.5 33L44.5 32ZM13 32.5L13 24.5L12 24.5L12 32.5L13 32.5Z" fill="#A5A5A5"/>
<path opacity="0.6" d="M12.5 40.5L12 40.5L12 41L12.5 41L12.5 40.5ZM44.5 40L12.5 40L12.5 41L44.5 41L44.5 40ZM13 40.5L13 32.5L12 32.5L12 40.5L13 40.5Z" fill="#A5A5A5"/>
<path opacity="0.6" d="M12.5 48.5L12 48.5L12 49L12.5 49L12.5 48.5ZM44.5 48L12.5 48L12.5 49L44.5 49L44.5 48ZM13 48.5L13 40.5L12 40.5L12 48.5L13 48.5Z" fill="#A5A5A5"/>
<path opacity="0.6" d="M12.5 56.5L12 56.5L12 57L12.5 57L12.5 56.5ZM44.5 56L12.5 56L12.5 57L44.5 57L44.5 56ZM13 56.5L13 48.5L12 48.5L12 56.5L13 56.5Z" fill="#A5A5A5"/>
<path opacity="0.6" d="M12.5 64.5L12 64.5L12 65L12.5 65L12.5 64.5ZM12 56.5L12 57.5L13 57.5L13 56.5L12 56.5ZM12 59.5L12 61.5L13 61.5L13 59.5L12 59.5ZM12 63.5L12 64.5L13 64.5L13 63.5L12 63.5ZM12.5 65L13.5 65L13.5 64L12.5 64L12.5 65ZM15.5 65L17.5 65L17.5 64L15.5 64L15.5 65ZM19.5 65L21.5 65L21.5 64L19.5 64L19.5 65ZM23.5 65L25.5 65L25.5 64L23.5 64L23.5 65ZM27.5 65L29.5 65L29.5 64L27.5 64L27.5 65ZM31.5 65L33.5 65L33.5 64L31.5 64L31.5 65ZM35.5 65L37.5 65L37.5 64L35.5 64L35.5 65ZM39.5 65L41.5 65L41.5 64L39.5 64L39.5 65ZM43.5 65L44.5 65L44.5 64L43.5 64L43.5 65Z" fill="#A5A5A5"/>
<path opacity="0.6" d="M12.5 72.5L12 72.5L12 73L12.5 73L12.5 72.5ZM12 64.5L12 65.5L13 65.5L13 64.5L12 64.5ZM12 67.5L12 69.5L13 69.5L13 67.5L12 67.5ZM12 71.5L12 72.5L13 72.5L13 71.5L12 71.5ZM12.5 73L13.5 73L13.5 72L12.5 72L12.5 73ZM15.5 73L17.5 73L17.5 72L15.5 72L15.5 73ZM19.5 73L21.5 73L21.5 72L19.5 72L19.5 73ZM23.5 73L25.5 73L25.5 72L23.5 72L23.5 73ZM27.5 73L29.5 73L29.5 72L27.5 72L27.5 73ZM31.5 73L33.5 73L33.5 72L31.5 72L31.5 73ZM35.5 73L37.5 73L37.5 72L35.5 72L35.5 73ZM39.5 73L41.5 73L41.5 72L39.5 72L39.5 73ZM43.5 73L44.5 73L44.5 72L43.5 72L43.5 73Z" fill="#A5A5A5"/>
<path opacity="0.6" d="M12.5 88.5L12 88.5L12 89L12.5 89L12.5 88.5ZM12 80.5L12 81.5L13 81.5L13 80.5L12 80.5ZM12 83.5L12 85.5L13 85.5L13 83.5L12 83.5ZM12 87.5L12 88.5L13 88.5L13 87.5L12 87.5ZM12.5 89L13.5 89L13.5 88L12.5 88L12.5 89ZM15.5 89L17.5 89L17.5 88L15.5 88L15.5 89ZM19.5 89L21.5 89L21.5 88L19.5 88L19.5 89ZM23.5 89L25.5 89L25.5 88L23.5 88L23.5 89ZM27.5 89L29.5 89L29.5 88L27.5 88L27.5 89ZM31.5 89L33.5 89L33.5 88L31.5 88L31.5 89ZM35.5 89L37.5 89L37.5 88L35.5 88L35.5 89ZM39.5 89L41.5 89L41.5 88L39.5 88L39.5 89ZM43.5 89L44.5 89L44.5 88L43.5 88L43.5 89Z" fill="#A5A5A5"/>
<path opacity="0.6" d="M12.5 104.5L12 104.5L12 105L12.5 105L12.5 104.5ZM12 96.5L12 97.5L13 97.5L13 96.5L12 96.5ZM12 99.5L12 101.5L13 101.5L13 99.5L12 99.5ZM12 103.5L12 104.5L13 104.5L13 103.5L12 103.5ZM12.5 105L13.5 105L13.5 104L12.5 104L12.5 105ZM15.5 105L17.5 105L17.5 104L15.5 104L15.5 105ZM19.5 105L21.5 105L21.5 104L19.5 104L19.5 105ZM23.5 105L25.5 105L25.5 104L23.5 104L23.5 105ZM27.5 105L29.5 105L29.5 104L27.5 104L27.5 105ZM31.5 105L33.5 105L33.5 104L31.5 104L31.5 105ZM35.5 105L37.5 105L37.5 104L35.5 104L35.5 105ZM39.5 105L41.5 105L41.5 104L39.5 104L39.5 105ZM43.5 105L44.5 105L44.5 104L43.5 104L43.5 105Z" fill="#A5A5A5"/>
<path opacity="0.6" d="M12.5 80.5L12 80.5L12 81L12.5 81L12.5 80.5ZM12 72.5L12 73.5L13 73.5L13 72.5L12 72.5ZM12 75.5L12 77.5L13 77.5L13 75.5L12 75.5ZM12 79.5L12 80.5L13 80.5L13 79.5L12 79.5ZM12.5 81L13.5 81L13.5 80L12.5 80L12.5 81ZM15.5 81L17.5 81L17.5 80L15.5 80L15.5 81ZM19.5 81L21.5 81L21.5 80L19.5 80L19.5 81ZM23.5 81L25.5 81L25.5 80L23.5 80L23.5 81ZM27.5 81L29.5 81L29.5 80L27.5 80L27.5 81ZM31.5 81L33.5 81L33.5 80L31.5 80L31.5 81ZM35.5 81L37.5 81L37.5 80L35.5 80L35.5 81ZM39.5 81L41.5 81L41.5 80L39.5 80L39.5 81ZM43.5 81L44.5 81L44.5 80L43.5 80L43.5 81Z" fill="#A5A5A5"/>
<path opacity="0.6" d="M12.5 96.5L12 96.5L12 97L12.5 97L12.5 96.5ZM12 88.5L12 89.5L13 89.5L13 88.5L12 88.5ZM12 91.5L12 93.5L13 93.5L13 91.5L12 91.5ZM12 95.5L12 96.5L13 96.5L13 95.5L12 95.5ZM12.5 97L13.5 97L13.5 96L12.5 96L12.5 97ZM15.5 97L17.5 97L17.5 96L15.5 96L15.5 97ZM19.5 97L21.5 97L21.5 96L19.5 96L19.5 97ZM23.5 97L25.5 97L25.5 96L23.5 96L23.5 97ZM27.5 97L29.5 97L29.5 96L27.5 96L27.5 97ZM31.5 97L33.5 97L33.5 96L31.5 96L31.5 97ZM35.5 97L37.5 97L37.5 96L35.5 96L35.5 97ZM39.5 97L41.5 97L41.5 96L39.5 96L39.5 97ZM43.5 97L44.5 97L44.5 96L43.5 96L43.5 97Z" fill="#A5A5A5"/>
<path opacity="0.6" d="M12.5 112.5L12 112.5L12 113L12.5 113L12.5 112.5ZM12 104.5L12 105.5L13 105.5L13 104.5L12 104.5ZM12 107.5L12 109.5L13 109.5L13 107.5L12 107.5ZM12 111.5L12 112.5L13 112.5L13 111.5L12 111.5ZM12.5 113L13.5 113L13.5 112L12.5 112L12.5 113ZM15.5 113L17.5 113L17.5 112L15.5 112L15.5 113ZM19.5 113L21.5 113L21.5 112L19.5 112L19.5 113ZM23.5 113L25.5 113L25.5 112L23.5 112L23.5 113ZM27.5 113L29.5 113L29.5 112L27.5 112L27.5 113ZM31.5 113L33.5 113L33.5 112L31.5 112L31.5 113ZM35.5 113L37.5 113L37.5 112L35.5 112L35.5 113ZM39.5 113L41.5 113L41.5 112L39.5 112L39.5 113ZM43.5 113L44.5 113L44.5 112L43.5 112L43.5 113Z" fill="#A5A5A5"/>
<path d="M26.0984 37.9C26.2984 38 26.6984 38 26.8984 37.9L29.9984 34.7C30.1984 34.5 30.1984 34.2 29.9984 34C29.7984 33.8 29.4984 33.8 29.2984 34L26.4984 36.8L23.6984 34C23.4984 33.8 23.1984 33.8 22.9984 34C22.7984 34.2 22.7984 34.5 22.9984 34.7L26.0984 37.9ZM25.8984 14.5L25.8984 37.5L26.8984 37.5L26.8984 14.5L25.8984 14.5Z" fill="black"/>
<path opacity="0.6" d="M208 15L208 113L45 113L45 15L208 15Z" fill="white" stroke="#A5A5A5"/>
<path opacity="0.8" fill-rule="evenodd" clip-rule="evenodd" d="M120.897 65.2996L121.097 67.4996L119.497 67.4996L119.297 65.3996C119.297 64.7996 118.797 64.2996 118.197 64.2996L116.397 64.2996L116.397 67.4996L114.797 67.4996L114.797 59.0996L118.197 59.0996C119.997 59.0996 120.997 60.1996 120.997 61.6996C120.997 62.5996 120.597 63.0996 119.897 63.4996C120.497 63.8996 120.797 64.4996 120.897 65.2996ZM116.397 60.3996L116.397 62.9996L118.197 62.9996C119.097 62.9996 119.497 62.3996 119.497 61.6996C119.497 60.9996 119.097 60.3996 118.197 60.3996L116.397 60.3996ZM126.397 65.4996L127.797 65.4996C127.597 66.7996 126.397 67.5996 124.997 67.5996C122.997 67.5996 121.897 65.9996 121.897 64.4996C121.897 62.8996 122.897 61.3996 124.797 61.3996C126.897 61.3996 127.797 62.7996 127.797 64.2996C127.797 64.4996 127.764 64.6663 127.697 64.7996L123.297 64.7996C123.397 65.6996 123.997 66.3996 124.997 66.3996C125.697 66.3996 126.197 66.0996 126.397 65.4996ZM124.797 62.4996C123.997 62.4996 123.497 62.8996 123.297 63.7996L126.297 63.7996C126.197 62.9996 125.697 62.4996 124.797 62.4996ZM131.197 61.3996C132.697 61.3996 133.797 62.1996 133.797 63.5996L133.797 67.4996L132.397 67.4996L132.397 66.5996C132.097 67.1996 131.397 67.5996 130.597 67.5996C129.397 67.5996 128.497 66.7996 128.497 65.7996C128.497 64.5996 129.497 63.8996 130.797 63.8996L131.897 63.8996C132.197 63.8996 132.397 63.6996 132.397 63.4996C132.397 62.8996 131.897 62.4996 131.097 62.4996C130.397 62.4996 129.897 62.9996 129.897 63.4996L128.497 63.4996C128.597 62.2996 129.597 61.3996 131.197 61.3996ZM130.897 66.4996C131.797 66.4996 132.397 65.8996 132.397 64.8996L132.397 64.7996L130.997 64.7996C130.397 64.7996 129.997 65.1996 129.997 65.6996C129.997 66.1996 130.397 66.4996 130.897 66.4996ZM138.797 62.6996L137.797 62.6996C136.897 62.6996 136.497 63.4996 136.497 64.5996L136.497 67.4996L135.097 67.4996L135.097 61.4996L136.497 61.4996L136.497 62.4996C136.797 61.7996 137.297 61.4996 138.097 61.4996L138.797 61.4996L138.797 62.6996Z" fill="black"/>
</g>
<defs>
<clipPath id="clip0_559_2628">
<rect width="113" height="208" fill="white" transform="translate(208.5 0.5) rotate(90)"/>
</clipPath>
</defs>
</svg>
