<svg width="142" height="36" viewBox="0 0 142 36" fill="none" xmlns="http://www.w3.org/2000/svg">
<g clip-path="url(#clip0_559_2563)">
<path opacity="0.8" d="M43.9457 19.7556L44.1497 21.9996L42.5777 21.9996L42.3737 19.9356C42.3137 19.2996 41.8695 18.8436 41.2455 18.8436L39.4335 18.8436L39.4335 21.9996L37.8375 21.9996L37.8375 13.5996L41.2815 13.5996C43.0337 13.5996 44.0657 14.6676 44.0657 16.1916C44.0657 17.0556 43.6337 17.6436 42.9377 18.0036C43.5137 18.3636 43.8857 18.9876 43.9457 19.7556ZM39.4335 14.9316L39.4335 17.4756L41.2095 17.4756C42.1457 17.4756 42.5297 16.8636 42.5297 16.1916C42.5297 15.5196 42.1457 14.9316 41.2095 14.9316L39.4335 14.9316ZM49.4163 19.9836L50.8563 19.9836C50.6283 21.2676 49.5003 22.0956 48.0123 22.0956C46.0323 22.0956 44.9283 20.5356 44.9283 18.9516C44.9283 17.3556 45.9123 15.8556 47.8923 15.8556C49.9203 15.8556 50.8323 17.3316 50.8323 18.7716C50.8323 18.9756 50.8203 19.1556 50.8083 19.2756L46.3443 19.2756C46.4523 20.2476 47.0763 20.8716 48.0123 20.8716C48.7683 20.8716 49.2603 20.5596 49.4163 19.9836ZM47.8923 16.9596C47.0643 16.9596 46.5363 17.3916 46.3803 18.3036L49.3563 18.3036C49.2963 17.5356 48.7683 16.9596 47.8923 16.9596ZM53.9754 22.0956C52.5114 22.0956 51.5394 21.2796 51.4674 19.9836L52.8114 19.9836C52.8714 20.5596 53.3154 20.9196 53.9754 20.9196C54.5514 20.9196 54.9354 20.6316 54.9354 20.2716C54.9354 18.9276 51.6234 20.2116 51.6234 17.6556C51.6234 16.5996 52.5474 15.8556 53.7954 15.8556C55.2114 15.8556 56.1834 16.6356 56.2434 17.8116L54.8994 17.8116C54.8154 17.2476 54.2994 16.9596 53.8314 16.9596C53.3034 16.9596 52.9554 17.1996 52.9554 17.6076C52.9554 18.9156 56.3154 17.4756 56.3154 20.2116C56.3154 21.3516 55.3914 22.0956 53.9754 22.0956ZM60.0706 22.0956C58.1866 22.0956 56.9986 20.7036 56.9986 18.9756C56.9986 17.2476 58.1866 15.8556 60.0706 15.8556C61.5946 15.8556 62.8306 16.7676 62.9626 18.1596L61.4986 18.1596C61.3906 17.5596 60.8026 17.1276 60.1066 17.1276C59.0866 17.1276 58.5346 17.9196 58.5346 18.9756C58.5346 20.0316 59.0986 20.8236 60.1306 20.8236C60.8266 20.8236 61.3666 20.4276 61.5106 19.8276L62.9986 19.8276C62.8066 21.1476 61.6306 22.0956 60.0706 22.0956ZM69.5597 15.9516L69.5597 21.9996L68.0837 21.9996L68.0837 21.0636C67.7477 21.7236 67.0637 22.0956 66.1997 22.0956C64.8437 22.0956 63.9557 21.1116 63.9557 19.6956L63.9557 15.9516L65.4197 15.9516L65.4197 19.3836C65.4197 20.2116 65.9357 20.7876 66.6797 20.7876C67.5077 20.7876 68.0837 20.1396 68.0837 19.2516L68.0837 15.9516L69.5597 15.9516ZM75.0452 19.9836L76.4852 19.9836C76.2572 21.2676 75.1292 22.0956 73.6412 22.0956C71.6612 22.0956 70.5572 20.5356 70.5572 18.9516C70.5572 17.3556 71.5412 15.8556 73.5212 15.8556C75.5492 15.8556 76.4612 17.3316 76.4612 18.7716C76.4612 18.9756 76.4492 19.1556 76.4372 19.2756L71.9732 19.2756C72.0812 20.2476 72.7052 20.8716 73.6412 20.8716C74.3972 20.8716 74.8892 20.5596 75.0452 19.9836ZM73.5212 16.9596C72.6932 16.9596 72.1652 17.3916 72.0092 18.3036L74.9852 18.3036C74.9252 17.5356 74.3972 16.9596 73.5212 16.9596ZM80.2479 21.9996L80.2479 13.5996L83.4999 13.5996C85.0359 13.5996 86.1279 14.3676 86.1279 15.7596C86.1279 16.5516 85.6239 17.1516 85.1079 17.4156C85.8999 17.7156 86.5479 18.3876 86.5479 19.5156C86.5479 21.0756 85.3839 21.9996 83.6199 21.9996L80.2479 21.9996ZM81.8079 16.8876L83.3919 16.8876C84.2319 16.8876 84.6519 16.5276 84.6519 15.8796C84.6519 15.2316 84.2319 14.8716 83.3679 14.8716L81.8079 14.8716L81.8079 16.8876ZM81.8079 20.6196L83.4519 20.6196C84.5199 20.6196 85.0239 20.2116 85.0239 19.4316C85.0239 18.6636 84.5199 18.2316 83.4519 18.2316L81.8079 18.2316L81.8079 20.6196ZM90.4713 22.0956C88.6233 22.0956 87.3033 20.7756 87.3033 18.9756C87.3033 17.1756 88.6233 15.8556 90.4713 15.8556C92.3073 15.8556 93.6273 17.1756 93.6273 18.9756C93.6273 20.7756 92.3073 22.0956 90.4713 22.0956ZM90.4713 20.8236C91.4673 20.8236 92.1393 20.0676 92.1393 18.9756C92.1393 17.8836 91.4673 17.1276 90.4713 17.1276C89.4633 17.1276 88.7913 17.8836 88.7913 18.9756C88.7913 20.0676 89.4633 20.8236 90.4713 20.8236ZM97.0482 15.8556C98.5842 15.8556 99.6642 16.7436 99.6642 18.1116L99.6642 21.9996L98.2122 21.9996L98.2122 21.0996C97.9602 21.6996 97.2642 22.0956 96.4002 22.0956C95.2002 22.0956 94.3842 21.3276 94.3842 20.2836C94.3842 19.1076 95.2962 18.3756 96.6522 18.3756L97.7682 18.3756C98.0682 18.3756 98.2122 18.2076 98.2122 17.9676C98.2122 17.3796 97.7562 16.9596 96.9762 16.9596C96.1962 16.9596 95.7282 17.4516 95.7042 17.9916L94.3842 17.9916C94.4562 16.7916 95.4762 15.8556 97.0482 15.8556ZM96.7482 21.0036C97.6722 21.0036 98.2122 20.3556 98.2122 19.4436L98.2122 19.3476L96.8562 19.3476C96.2322 19.3476 95.8122 19.6956 95.8122 20.2236C95.8122 20.6916 96.1962 21.0036 96.7482 21.0036ZM101.531 14.1276L103.007 14.1276L103.007 15.9516L104.687 15.9516L104.687 17.1876L103.007 17.1876L103.007 19.8276C103.007 20.4396 103.331 20.7516 103.883 20.7516L104.687 20.7516L104.687 21.9996L103.715 21.9996C102.395 21.9996 101.531 21.2316 101.531 19.8876L101.531 17.1876L100.343 17.1876L100.343 15.9516L101.531 15.9516L101.531 14.1276Z" fill="black"/>
<path opacity="0.6" d="M22.91 0.500004L134 0.5C138.142 0.499999 141.5 3.85786 141.5 8L141.5 28C141.5 32.1421 138.142 35.5 134 35.5L22.91 35.5C21.045 35.5 19.248 34.8055 17.867 33.552L6.85699 23.552C3.57999 20.5759 3.57999 15.4241 6.85699 12.448L17.867 2.44801C19.248 1.19448 21.045 0.500005 22.91 0.500004Z" stroke="black"/>
</g>
<defs>
<clipPath id="clip0_559_2563">
<rect width="36" height="142" fill="white" transform="translate(142) rotate(90)"/>
</clipPath>
</defs>
</svg>
