<svg width="73" height="92" viewBox="0 0 73 92" fill="none" xmlns="http://www.w3.org/2000/svg">
<rect x="1.09891" y="91.6316" width="8.57458" height="32.3409" transform="rotate(-90 1.09891 91.6316)" stroke="#6F6F6F" stroke-width="0.479069"/>
<mask id="path-2-inside-1_580_66" fill="white">
<path d="M0.859375 82.8164L0.859375 73.7628L33.6793 73.7628L33.6793 82.8164L0.859375 82.8164Z"/>
</mask>
<path d="M0.859375 73.7628L0.859375 73.2837L0.380306 73.2837L0.380306 73.7628L0.859375 73.7628ZM33.6793 73.7628L34.1584 73.7628L34.1584 73.2837L33.6793 73.2837L33.6793 73.7628ZM0.859375 82.8164L1.33844 82.8164L1.33844 73.7628L0.859375 73.7628L0.380306 73.7628L0.380306 82.8164L0.859375 82.8164ZM0.859375 73.7628L0.859375 74.2418L33.6793 74.2418L33.6793 73.7628L33.6793 73.2837L0.859375 73.2837L0.859375 73.7628ZM33.6793 73.7628L33.2003 73.7628L33.2003 82.8164L33.6793 82.8164L34.1584 82.8164L34.1584 73.7628L33.6793 73.7628Z" fill="#6F6F6F" mask="url(#path-2-inside-1_580_66)"/>
<mask id="path-4-inside-2_580_66" fill="white">
<path d="M0.859375 73.7617L0.859375 64.7081L33.6793 64.7081L33.6793 73.7617L0.859375 73.7617Z"/>
</mask>
<path d="M0.859375 64.7081L0.859375 64.229L0.380306 64.229L0.380306 64.7081L0.859375 64.7081ZM33.6793 64.7081L34.1584 64.7081L34.1584 64.229L33.6793 64.229L33.6793 64.7081ZM0.859375 73.7617L1.33844 73.7617L1.33844 64.7081L0.859375 64.7081L0.380306 64.7081L0.380306 73.7617L0.859375 73.7617ZM0.859375 64.7081L0.859375 65.1871L33.6793 65.1871L33.6793 64.7081L33.6793 64.229L0.859375 64.229L0.859375 64.7081ZM33.6793 64.7081L33.2003 64.7081L33.2003 73.7617L33.6793 73.7617L34.1584 73.7617L34.1584 64.7081L33.6793 64.7081Z" fill="#6F6F6F" mask="url(#path-4-inside-2_580_66)"/>
<mask id="path-6-inside-3_580_66" fill="white">
<path d="M0.859375 64.7148L0.859375 55.6612L33.6793 55.6612L33.6793 64.7148L0.859375 64.7148Z"/>
</mask>
<path d="M0.859375 55.6612L0.859375 55.1821L0.380306 55.1821L0.380306 55.6612L0.859375 55.6612ZM33.6793 55.6612L34.1584 55.6612L34.1584 55.1821L33.6793 55.1821L33.6793 55.6612ZM0.859375 64.7148L1.33844 64.7148L1.33844 55.6612L0.859375 55.6612L0.380306 55.6612L0.380306 64.7148L0.859375 64.7148ZM0.859375 55.6612L0.859375 56.1403L33.6793 56.1403L33.6793 55.6612L33.6793 55.1821L0.859375 55.1821L0.859375 55.6612ZM33.6793 55.6612L33.2003 55.6612L33.2003 64.7148L33.6793 64.7148L34.1584 64.7148L34.1584 55.6612L33.6793 55.6612Z" fill="#6F6F6F" mask="url(#path-6-inside-3_580_66)"/>
<mask id="path-8-inside-4_580_66" fill="white">
<path d="M0.859375 55.6523L0.859375 46.5987L33.6793 46.5987L33.6793 55.6523L0.859375 55.6523Z"/>
</mask>
<path d="M0.859375 46.5987L0.859375 46.1196L0.380306 46.1196L0.380306 46.5987L0.859375 46.5987ZM33.6793 46.5987L34.1584 46.5987L34.1584 46.1196L33.6793 46.1196L33.6793 46.5987ZM0.859375 55.6523L1.33844 55.6523L1.33844 46.5987L0.859375 46.5987L0.380306 46.5987L0.380306 55.6523L0.859375 55.6523ZM0.859375 46.5987L0.859375 47.0778L33.6793 47.0778L33.6793 46.5987L33.6793 46.1196L0.859375 46.1196L0.859375 46.5987ZM33.6793 46.5987L33.2003 46.5987L33.2003 55.6523L33.6793 55.6523L34.1584 55.6523L34.1584 46.5987L33.6793 46.5987Z" fill="#6F6F6F" mask="url(#path-8-inside-4_580_66)"/>
<mask id="path-10-inside-5_580_66" fill="white">
<path d="M0.859375 46.6055L0.859375 37.5518L33.6793 37.5518L33.6793 46.6055L0.859375 46.6055Z"/>
</mask>
<path d="M0.859375 37.5518L0.859375 37.0728L0.380306 37.0728L0.380306 37.5518L0.859375 37.5518ZM33.6793 37.5518L34.1584 37.5518L34.1584 37.0728L33.6793 37.0728L33.6793 37.5518ZM0.859375 46.6055L1.33844 46.6055L1.33844 37.5518L0.859375 37.5518L0.380306 37.5518L0.380306 46.6055L0.859375 46.6055ZM0.859375 37.5518L0.859375 38.0309L33.6793 38.0309L33.6793 37.5518L33.6793 37.0728L0.859375 37.0728L0.859375 37.5518ZM33.6793 37.5518L33.2003 37.5518L33.2003 46.6055L33.6793 46.6055L34.1584 46.6055L34.1584 37.5518L33.6793 37.5518Z" fill="#6F6F6F" mask="url(#path-10-inside-5_580_66)"/>
<mask id="path-12-inside-6_580_66" fill="white">
<path d="M0.859375 37.5508L0.859375 28.4971L33.6793 28.4971L33.6793 37.5508L0.859375 37.5508Z"/>
</mask>
<path d="M0.859375 28.4971L0.859375 28.0181L0.380306 28.0181L0.380306 28.4971L0.859375 28.4971ZM33.6793 28.4971L34.1584 28.4971L34.1584 28.0181L33.6793 28.0181L33.6793 28.4971ZM0.859375 37.5508L1.33844 37.5508L1.33844 28.4971L0.859375 28.4971L0.380306 28.4971L0.380306 37.5508L0.859375 37.5508ZM0.859375 28.4971L0.859375 28.9762L33.6793 28.9762L33.6793 28.4971L33.6793 28.0181L0.859375 28.0181L0.859375 28.4971ZM33.6793 28.4971L33.2003 28.4971L33.2003 37.5508L33.6793 37.5508L34.1584 37.5508L34.1584 28.4971L33.6793 28.4971Z" fill="#6F6F6F" mask="url(#path-12-inside-6_580_66)"/>
<mask id="path-14-inside-7_580_66" fill="white">
<path d="M0.859375 28.4961L0.859375 19.4424L33.6793 19.4424L33.6793 28.4961L0.859375 28.4961Z"/>
</mask>
<path d="M0.859375 19.4424L0.859375 18.9634L0.380306 18.9634L0.380306 19.4424L0.859375 19.4424ZM33.6793 19.4424L34.1584 19.4424L34.1584 18.9634L33.6793 18.9634L33.6793 19.4424ZM0.859375 28.4961L1.33844 28.4961L1.33844 19.4424L0.859375 19.4424L0.380306 19.4424L0.380306 28.4961L0.859375 28.4961ZM0.859375 19.4424L0.859375 19.9215L33.6793 19.9215L33.6793 19.4424L33.6793 18.9634L0.859375 18.9634L0.859375 19.4424ZM33.6793 19.4424L33.2003 19.4424L33.2003 28.4961L33.6793 28.4961L34.1584 28.4961L34.1584 19.4424L33.6793 19.4424Z" fill="#6F6F6F" mask="url(#path-14-inside-7_580_66)"/>
<rect x="40.2942" y="91.6316" width="8.57458" height="32.3409" transform="rotate(-90 40.2942 91.6316)" stroke="#6F6F6F" stroke-width="0.479069"/>
<mask id="path-17-inside-8_580_66" fill="white">
<path d="M40.0547 82.8164L40.0547 73.7628L72.8746 73.7628L72.8746 82.8164L40.0547 82.8164Z"/>
</mask>
<path d="M40.0547 73.7628L40.0547 73.2837L39.5756 73.2837L39.5756 73.7628L40.0547 73.7628ZM72.8746 73.7628L73.3537 73.7628L73.3537 73.2837L72.8746 73.2837L72.8746 73.7628ZM40.0547 82.8164L40.5338 82.8164L40.5338 73.7628L40.0547 73.7628L39.5756 73.7628L39.5756 82.8164L40.0547 82.8164ZM40.0547 73.7628L40.0547 74.2418L72.8746 74.2418L72.8746 73.7628L72.8746 73.2837L40.0547 73.2837L40.0547 73.7628ZM72.8746 73.7628L72.3956 73.7628L72.3956 82.8164L72.8746 82.8164L73.3537 82.8164L73.3537 73.7628L72.8746 73.7628Z" fill="#6F6F6F" mask="url(#path-17-inside-8_580_66)"/>
<mask id="path-19-inside-9_580_66" fill="white">
<path d="M40.0547 73.7617L40.0547 64.7081L72.8746 64.7081L72.8746 73.7617L40.0547 73.7617Z"/>
</mask>
<path d="M40.0547 64.7081L40.0547 64.229L39.5756 64.229L39.5756 64.7081L40.0547 64.7081ZM72.8746 64.7081L73.3537 64.7081L73.3537 64.229L72.8746 64.229L72.8746 64.7081ZM40.0547 73.7617L40.5338 73.7617L40.5338 64.7081L40.0547 64.7081L39.5756 64.7081L39.5756 73.7617L40.0547 73.7617ZM40.0547 64.7081L40.0547 65.1871L72.8746 65.1871L72.8746 64.7081L72.8746 64.229L40.0547 64.229L40.0547 64.7081ZM72.8746 64.7081L72.3956 64.7081L72.3956 73.7617L72.8746 73.7617L73.3537 73.7617L73.3537 64.7081L72.8746 64.7081Z" fill="#6F6F6F" mask="url(#path-19-inside-9_580_66)"/>
<mask id="path-21-inside-10_580_66" fill="white">
<path d="M40.0547 64.7148L40.0547 55.6612L72.8746 55.6612L72.8746 64.7148L40.0547 64.7148Z"/>
</mask>
<path d="M40.0547 55.6612L40.0547 55.1821L39.5756 55.1821L39.5756 55.6612L40.0547 55.6612ZM72.8746 55.6612L73.3537 55.6612L73.3537 55.1821L72.8746 55.1821L72.8746 55.6612ZM40.0547 64.7148L40.5338 64.7148L40.5338 55.6612L40.0547 55.6612L39.5756 55.6612L39.5756 64.7148L40.0547 64.7148ZM40.0547 55.6612L40.0547 56.1403L72.8746 56.1403L72.8746 55.6612L72.8746 55.1821L40.0547 55.1821L40.0547 55.6612ZM72.8746 55.6612L72.3956 55.6612L72.3956 64.7148L72.8746 64.7148L73.3537 64.7148L73.3537 55.6612L72.8746 55.6612Z" fill="#6F6F6F" mask="url(#path-21-inside-10_580_66)"/>
<mask id="path-23-inside-11_580_66" fill="white">
<path d="M40.0547 55.6523L40.0547 46.5987L72.8746 46.5987L72.8746 55.6523L40.0547 55.6523Z"/>
</mask>
<path d="M40.0547 46.5987L40.0547 46.1196L39.5756 46.1196L39.5756 46.5987L40.0547 46.5987ZM72.8746 46.5987L73.3537 46.5987L73.3537 46.1196L72.8746 46.1196L72.8746 46.5987ZM40.0547 55.6523L40.5338 55.6523L40.5338 46.5987L40.0547 46.5987L39.5756 46.5987L39.5756 55.6523L40.0547 55.6523ZM40.0547 46.5987L40.0547 47.0778L72.8746 47.0778L72.8746 46.5987L72.8746 46.1196L40.0547 46.1196L40.0547 46.5987ZM72.8746 46.5987L72.3956 46.5987L72.3956 55.6523L72.8746 55.6523L73.3537 55.6523L73.3537 46.5987L72.8746 46.5987Z" fill="#6F6F6F" mask="url(#path-23-inside-11_580_66)"/>
<mask id="path-25-inside-12_580_66" fill="white">
<path d="M40.0547 46.6055L40.0547 37.5518L72.8746 37.5518L72.8746 46.6055L40.0547 46.6055Z"/>
</mask>
<path d="M40.0547 37.5518L40.0547 37.0728L39.5756 37.0728L39.5756 37.5518L40.0547 37.5518ZM72.8746 37.5518L73.3537 37.5518L73.3537 37.0728L72.8746 37.0728L72.8746 37.5518ZM40.0547 46.6055L40.5338 46.6055L40.5338 37.5518L40.0547 37.5518L39.5756 37.5518L39.5756 46.6055L40.0547 46.6055ZM40.0547 37.5518L40.0547 38.0309L72.8746 38.0309L72.8746 37.5518L72.8746 37.0728L40.0547 37.0728L40.0547 37.5518ZM72.8746 37.5518L72.3956 37.5518L72.3956 46.6055L72.8746 46.6055L73.3537 46.6055L73.3537 37.5518L72.8746 37.5518Z" fill="#6F6F6F" mask="url(#path-25-inside-12_580_66)"/>
<mask id="path-27-inside-13_580_66" fill="white">
<path d="M40.0547 37.5508L40.0547 28.4971L72.8746 28.4971L72.8746 37.5508L40.0547 37.5508Z"/>
</mask>
<path d="M40.0547 28.4971L40.0547 28.0181L39.5756 28.0181L39.5756 28.4971L40.0547 28.4971ZM72.8746 28.4971L73.3537 28.4971L73.3537 28.0181L72.8746 28.0181L72.8746 28.4971ZM40.0547 37.5508L40.5338 37.5508L40.5338 28.4971L40.0547 28.4971L39.5756 28.4971L39.5756 37.5508L40.0547 37.5508ZM40.0547 28.4971L40.0547 28.9762L72.8746 28.9762L72.8746 28.4971L72.8746 28.0181L40.0547 28.0181L40.0547 28.4971ZM72.8746 28.4971L72.3956 28.4971L72.3956 37.5508L72.8746 37.5508L73.3537 37.5508L73.3537 28.4971L72.8746 28.4971Z" fill="#6F6F6F" mask="url(#path-27-inside-13_580_66)"/>
<mask id="path-29-inside-14_580_66" fill="white">
<path d="M40.0547 28.4961L40.0547 19.4424L72.8746 19.4424L72.8746 28.4961L40.0547 28.4961Z"/>
</mask>
<path d="M40.0547 19.4424L40.0547 18.9634L39.5756 18.9634L39.5756 19.4424L40.0547 19.4424ZM72.8746 19.4424L73.3537 19.4424L73.3537 18.9634L72.8746 18.9634L72.8746 19.4424ZM40.0547 28.4961L40.5338 28.4961L40.5338 19.4424L40.0547 19.4424L39.5756 19.4424L39.5756 28.4961L40.0547 28.4961ZM40.0547 19.4424L40.0547 19.9215L72.8746 19.9215L72.8746 19.4424L72.8746 18.9634L40.0547 18.9634L40.0547 19.4424ZM72.8746 19.4424L72.3956 19.4424L72.3956 28.4961L72.8746 28.4961L73.3537 28.4961L73.3537 19.4424L72.8746 19.4424Z" fill="#6F6F6F" mask="url(#path-29-inside-14_580_66)"/>
<path d="M19.6855 46.959C19.8808 47.1543 20.1974 47.1543 20.3926 46.959L23.5746 43.777C23.7699 43.5818 23.7699 43.2652 23.5746 43.0699C23.3793 42.8747 23.0628 42.8747 22.8675 43.0699L20.0391 45.8984L17.2106 43.0699C17.0154 42.8747 16.6988 42.8747 16.5035 43.0699C16.3083 43.2652 16.3083 43.5818 16.5035 43.777L19.6855 46.959ZM20.0391 46.6055L20.5391 46.6055L20.5391 12.1484L20.0391 12.1484L19.5391 12.1484L19.5391 46.6055L20.0391 46.6055Z" fill="black"/>
<path d="M54.1855 46.959C54.3808 47.1543 54.6974 47.1543 54.8926 46.959L58.0746 43.777C58.2699 43.5818 58.2699 43.2652 58.0746 43.0699C57.8793 42.8747 57.5628 42.8747 57.3675 43.0699L54.5391 45.8984L51.7106 43.0699C51.5154 42.8747 51.1988 42.8747 51.0035 43.0699C50.8083 43.2652 50.8083 43.5818 51.0035 43.777L54.1855 46.959ZM54.5391 46.6055L55.0391 46.6055L55.0391 12.1484L54.5391 12.1484L54.0391 12.1484L54.0391 46.6055L54.5391 46.6055Z" fill="black"/>
<path d="M8.02202 3.65305L8.02202 2.8718L13.4766 2.8718L13.4766 3.65305L11.1896 3.65305L11.1896 10.1445L10.3089 10.1445L10.3089 3.65305L8.02202 3.65305ZM15.5602 6.86328L15.5602 10.1445L14.7221 10.1445L14.7221 2.87181L15.5602 2.87181L15.5602 5.54226L15.6312 5.54226C15.7591 5.26054 15.9508 5.03681 16.2065 4.8711C16.4645 4.70301 16.8078 4.61896 17.2363 4.61896C17.608 4.61896 17.9335 4.69354 18.2129 4.84269C18.4922 4.98947 18.7089 5.21556 18.8627 5.52095C19.019 5.82398 19.0971 6.20987 19.0971 6.67862L19.0971 10.1445L18.2591 10.1445L18.2591 6.73544C18.2591 6.3022 18.1466 5.96721 17.9217 5.73047C17.6992 5.49136 17.3902 5.37181 16.9949 5.37181C16.7202 5.37181 16.474 5.42981 16.2562 5.54581C16.0408 5.66181 15.8703 5.83109 15.7448 6.05362C15.6217 6.27616 15.5602 6.54605 15.5602 6.86328ZM20.6303 10.1445L20.6303 4.68999L21.4684 4.68999L21.4684 10.1445L20.6303 10.1445ZM21.0565 3.7809C20.8931 3.7809 20.7522 3.72526 20.6339 3.61399C20.5179 3.50272 20.4599 3.36897 20.4599 3.21272C20.4599 3.05647 20.5179 2.92271 20.6339 2.81144C20.7522 2.70017 20.8931 2.64453 21.0565 2.64453C21.2198 2.64453 21.3595 2.70017 21.4755 2.81144C21.5939 2.92271 21.6531 3.05647 21.6531 3.21272C21.6531 3.36897 21.5939 3.50272 21.4755 3.61399C21.3595 3.72526 21.2198 3.7809 21.0565 3.7809ZM26.867 5.91158L26.1142 6.12465C26.0668 5.99917 25.997 5.87725 25.9047 5.75888C25.8147 5.63814 25.6916 5.53871 25.5353 5.46059C25.3791 5.38246 25.179 5.3434 24.9352 5.3434C24.6014 5.3434 24.3232 5.42034 24.1007 5.57422C23.8805 5.72574 23.7704 5.91868 23.7704 6.15306C23.7704 6.36139 23.8462 6.52593 23.9977 6.64666C24.1492 6.7674 24.3859 6.86802 24.7079 6.94851L25.5176 7.14738C26.0053 7.26575 26.3687 7.44685 26.6078 7.6907C26.8469 7.93218 26.9664 8.24349 26.9664 8.62465C26.9664 8.93715 26.8765 9.2165 26.6966 9.46272C26.519 9.70893 26.2704 9.90306 25.9508 10.0451C25.6312 10.1871 25.2595 10.2582 24.8358 10.2582C24.2794 10.2582 23.8189 10.1374 23.4544 9.89595C23.0898 9.65448 22.859 9.30173 22.7619 8.83772L23.5573 8.63885C23.6331 8.93241 23.7763 9.15258 23.987 9.29936C24.2001 9.44614 24.4783 9.51953 24.8216 9.51953C25.2122 9.51953 25.5223 9.43667 25.752 9.27095C25.984 9.10287 26.1 8.90164 26.1 8.66726C26.1 8.47787 26.0337 8.31925 25.9011 8.19141C25.7685 8.0612 25.5649 7.96414 25.2903 7.90022L24.3812 7.68715C23.8817 7.56878 23.5147 7.3853 23.2804 7.13672C23.0484 6.88577 22.9323 6.57209 22.9323 6.19567C22.9323 5.8879 23.0188 5.61565 23.1916 5.37891C23.3668 5.14217 23.6047 4.95632 23.9054 4.82138C24.2084 4.68644 24.5517 4.61897 24.9352 4.61897C25.475 4.61897 25.8987 4.73734 26.2065 4.97408C26.5166 5.21082 26.7368 5.52332 26.867 5.91158ZM32.2763 10.1445L30.6143 4.68999L31.495 4.68999L32.674 8.86613L32.7308 8.86613L33.8956 4.68999L34.7905 4.68999L35.941 8.85192L35.9979 8.85192L37.1768 4.68999L38.0575 4.68999L36.3956 10.1445L35.5717 10.1445L34.3786 5.9542L34.2933 5.95419L33.1001 10.1445L32.2763 10.1445ZM40.7706 10.2724C40.425 10.2724 40.1113 10.2073 39.8295 10.0771C39.5478 9.94449 39.3241 9.75391 39.1584 9.50533C38.9927 9.25439 38.9098 8.95135 38.9098 8.59624C38.9098 8.28374 38.9714 8.03043 39.0945 7.8363C39.2176 7.6398 39.3821 7.48592 39.5881 7.37465C39.794 7.26338 40.0213 7.18052 40.2699 7.12607C40.5208 7.06925 40.773 7.02427 41.0263 6.99113C41.3577 6.94851 41.6264 6.91655 41.8324 6.89525C42.0407 6.87157 42.1922 6.83251 42.2869 6.77806C42.384 6.72361 42.4325 6.62891 42.4325 6.49397L42.4325 6.46556C42.4325 6.11518 42.3366 5.84293 42.1449 5.6488C41.9555 5.45467 41.6678 5.35761 41.282 5.35761C40.8819 5.35761 40.5682 5.4452 40.3409 5.62039C40.1136 5.79558 39.9538 5.9826 39.8615 6.18147L39.0661 5.89738C39.2081 5.56594 39.3975 5.30789 39.6342 5.12323C39.8733 4.9362 40.1338 4.806 40.4155 4.73261C40.6996 4.65685 40.9789 4.61897 41.2536 4.61897C41.4287 4.61897 41.63 4.64028 41.8572 4.68289C42.0869 4.72314 42.3082 4.80718 42.5213 4.93502C42.7367 5.06286 42.9155 5.25581 43.0575 5.51386C43.1996 5.7719 43.2706 6.11755 43.2706 6.55079L43.2706 10.1445L42.4325 10.1445L42.4325 9.4059L42.3899 9.4059C42.3331 9.52427 42.2384 9.65093 42.1058 9.78587C41.9732 9.92082 41.7969 10.0356 41.5767 10.1303C41.3565 10.225 41.0878 10.2724 40.7706 10.2724ZM40.8984 9.51954C41.2299 9.51954 41.5092 9.45443 41.7365 9.32422C41.9661 9.19402 42.139 9.02593 42.255 8.81996C42.3733 8.614 42.4325 8.39738 42.4325 8.17011L42.4325 7.40306C42.397 7.44567 42.3189 7.48474 42.1982 7.52025C42.0798 7.55339 41.9425 7.58298 41.7862 7.60903C41.6323 7.6327 41.482 7.65401 41.3352 7.67295C41.1908 7.68952 41.0736 7.70372 40.9837 7.71556C40.7659 7.74397 40.5623 7.79013 40.3729 7.85405C40.1858 7.91561 40.0343 8.00912 39.9183 8.13459C39.8047 8.2577 39.7479 8.42579 39.7479 8.63886C39.7479 8.93005 39.8556 9.15022 40.071 9.29937C40.2888 9.44615 40.5646 9.51954 40.8984 9.51954ZM45.1447 12.19C45.0027 12.19 44.876 12.1782 44.7647 12.1545C44.6535 12.1332 44.5765 12.1119 44.5339 12.0906L44.747 11.3519C44.9506 11.404 45.1305 11.4229 45.2868 11.4087C45.443 11.3945 45.5815 11.3247 45.7022 11.1992C45.8253 11.0761 45.9378 10.8761 46.0396 10.5991L46.1958 10.1729L44.1788 4.68999L45.0879 4.68999L46.5936 9.03658L46.6504 9.03658L48.1561 4.68999L49.0652 4.68999L46.7498 10.94C46.6457 11.2217 46.5166 11.4549 46.3627 11.6396C46.2089 11.8266 46.0301 11.9651 45.8265 12.055C45.6253 12.145 45.398 12.19 45.1447 12.19ZM56.4213 7.91443L56.4213 4.68999L57.2594 4.68999L57.2594 10.1445L56.4213 10.1445L56.4213 9.22124L56.3645 9.22124C56.2367 9.49823 56.0378 9.73379 55.7679 9.92792C55.498 10.1197 55.1571 10.2156 54.7452 10.2156C54.4043 10.2156 54.1013 10.141 53.8361 9.99184C53.571 9.84033 53.3626 9.61305 53.2111 9.31002C53.0596 9.00462 52.9838 8.61992 52.9838 8.1559L52.9838 4.68999L53.8219 4.68999L53.8219 8.09908C53.8219 8.49681 53.9332 8.81405 54.1557 9.05079C54.3806 9.28753 54.6671 9.4059 55.0151 9.4059C55.2234 9.4059 55.4353 9.35264 55.6507 9.2461C55.8685 9.13957 56.0508 8.97622 56.1976 8.75605C56.3468 8.53587 56.4213 8.25534 56.4213 7.91443ZM58.7944 12.19L58.7944 4.68999L59.604 4.68999L59.604 5.55647L59.7035 5.55647C59.765 5.46178 59.8503 5.34104 59.9592 5.19426C60.0704 5.04511 60.229 4.91253 60.435 4.79653C60.6433 4.67816 60.9251 4.61897 61.2802 4.61897C61.7395 4.61897 62.1443 4.73379 62.4947 4.96343C62.8451 5.19307 63.1185 5.51859 63.315 5.94C63.5115 6.3614 63.6097 6.85856 63.6097 7.43147C63.6097 8.00912 63.5115 8.50983 63.315 8.9336C63.1185 9.355 62.8462 9.68171 62.4982 9.91372C62.1502 10.1434 61.7489 10.2582 61.2944 10.2582C60.944 10.2582 60.6635 10.2002 60.4528 10.0842C60.2421 9.9658 60.0799 9.83204 59.9663 9.68289C59.8526 9.53138 59.765 9.4059 59.7035 9.30647L59.6325 9.30647L59.6325 12.19L58.7944 12.19ZM59.6183 7.41727C59.6183 7.8292 59.6786 8.1926 59.7994 8.50747C59.9201 8.81997 60.0965 9.06499 60.3285 9.24255C60.5605 9.41774 60.8446 9.50534 61.1808 9.50534C61.5311 9.50534 61.8235 9.41301 62.0579 9.22835C62.2946 9.04132 62.4722 8.79037 62.5906 8.47551C62.7113 8.15827 62.7717 7.80553 62.7717 7.41727C62.7717 7.03375 62.7125 6.6881 62.5941 6.38034C62.4781 6.0702 62.3017 5.82518 62.065 5.64525C61.8306 5.46296 61.5359 5.37181 61.1808 5.37181C60.8398 5.37181 60.5534 5.45822 60.3214 5.63105C60.0894 5.8015 59.9142 6.04061 59.7958 6.34838C59.6774 6.65377 59.6183 7.01007 59.6183 7.41727Z" fill="black"/>
</svg>
