<svg width="80" height="47" viewBox="0 0 80 47" fill="none" xmlns="http://www.w3.org/2000/svg">
<g clip-path="url(#clip0_559_2604)">
<path opacity="0.8" d="M8.22657 0.591797H9.2474V4.87652H8.22657V3.31402H2.9974V2.15429H8.22657V0.591797ZM2.9974 5.69271H9.66407V6.78298H6.78212C6.94879 6.93113 7.07379 7.10706 7.15712 7.31076C7.24508 7.51447 7.28907 7.72974 7.28907 7.9566C7.28907 8.25289 7.21731 8.52835 7.07379 8.78298C6.93027 9.04224 6.72194 9.25058 6.44879 9.40798C6.18027 9.56539 5.85157 9.6441 5.46268 9.6441H2.9974V8.55382H5.31684C5.5761 8.55382 5.80527 8.47743 6.00434 8.32465C6.20342 8.17187 6.30296 7.95428 6.30296 7.67187C6.30296 7.44039 6.22194 7.23437 6.0599 7.05382C5.90249 6.87326 5.66175 6.78298 5.33768 6.78298H2.9974V5.69271ZM2.9974 10.5922H7.16407V11.6825H2.9974V10.5922ZM7.80296 11.1408C7.80296 10.9695 7.86083 10.8237 7.97657 10.7033C8.09694 10.5876 8.24277 10.5297 8.41407 10.5297C8.58999 10.5297 8.73583 10.5876 8.85157 10.7033C8.96731 10.8237 9.02518 10.9695 9.02518 11.1408C9.02518 11.3167 8.96731 11.4626 8.85157 11.5783C8.73583 11.6941 8.58999 11.7519 8.41407 11.7519C8.24277 11.7519 8.09694 11.6941 7.97657 11.5783C7.86083 11.4626 7.80296 11.3167 7.80296 11.1408ZM2.8724 14.0058C2.8724 13.7419 2.91638 13.4711 3.00434 13.1933C3.09694 12.9155 3.22657 12.6933 3.39323 12.5267L4.44879 12.8044C4.25434 12.9387 4.08768 13.1193 3.94879 13.3461C3.81453 13.5776 3.7474 13.816 3.7474 14.0614C3.7474 14.2466 3.78444 14.3808 3.85851 14.4642C3.93721 14.5521 4.03212 14.5961 4.14323 14.5961C4.26823 14.5961 4.35851 14.5521 4.41407 14.4642C4.47425 14.3762 4.52055 14.2882 4.55295 14.2003L4.76823 13.6239C4.81916 13.5035 4.88629 13.3623 4.96962 13.2003C5.05758 13.0382 5.18027 12.897 5.33768 12.7767C5.49971 12.6609 5.71036 12.603 5.96962 12.603C6.20573 12.603 6.42333 12.6609 6.6224 12.7767C6.82147 12.8924 6.9812 13.0591 7.10157 13.2767C7.22657 13.4989 7.28907 13.7651 7.28907 14.0753C7.28907 14.353 7.24046 14.6169 7.14323 14.8669C7.05064 15.1216 6.9349 15.3137 6.79601 15.4433L5.76823 15.1864C5.97194 15.0382 6.12934 14.86 6.24046 14.6517C6.3562 14.4433 6.41407 14.2419 6.41407 14.0475C6.41407 13.8855 6.37703 13.7651 6.30295 13.6864C6.23351 13.6077 6.15018 13.5683 6.05295 13.5683C5.97888 13.5683 5.90944 13.5961 5.84462 13.6517C5.77981 13.7072 5.72425 13.7975 5.67795 13.9225L5.46962 14.4642C5.4187 14.6077 5.34694 14.7651 5.25434 14.9364C5.16638 15.1077 5.04138 15.2535 4.87934 15.3739C4.71731 15.4989 4.49508 15.5614 4.21268 15.5614C3.81453 15.5614 3.49045 15.4155 3.24045 15.1239C2.99508 14.8368 2.8724 14.4642 2.8724 14.0058ZM2.78907 20.0618L7.16407 17.9785V19.159L5.70573 19.8535C5.5761 19.9183 5.43953 19.9808 5.29601 20.041C5.15249 20.1058 4.98583 20.1683 4.79601 20.2285C4.9812 20.2979 5.1386 20.3651 5.26823 20.4299C5.40249 20.4947 5.53444 20.5595 5.66407 20.6243L7.31684 21.4229L5.66407 22.2424C5.5437 22.3026 5.41638 22.3651 5.28212 22.4299C5.14786 22.4947 4.98583 22.5572 4.79601 22.6174C4.99971 22.6822 5.1687 22.7447 5.30295 22.8049C5.44184 22.8697 5.5761 22.9322 5.70573 22.9924L7.16407 23.6868V24.8118L2.78907 22.7285L4.45573 21.8049C4.58999 21.7308 4.72425 21.6614 4.85851 21.5965C4.99277 21.5317 5.14092 21.4646 5.30295 21.3952C5.14092 21.3303 4.99277 21.2632 4.85851 21.1938C4.72425 21.1289 4.58999 21.0572 4.45573 20.9785L2.78907 20.0618ZM2.90018 27.0223C2.90018 26.6427 2.9974 26.2955 3.19184 25.9807C3.39092 25.6658 3.65481 25.4135 3.98351 25.2237C4.31684 25.0385 4.68258 24.9459 5.08073 24.9459C5.47888 24.9459 5.84231 25.0385 6.17101 25.2237C6.50434 25.4135 6.76823 25.6658 6.96268 25.9807C7.16175 26.2955 7.26129 26.6427 7.26129 27.0223C7.26129 27.2955 7.21268 27.5478 7.11545 27.7793C7.01823 28.0107 6.88166 28.2075 6.70573 28.3695H7.16407V29.3209H2.9974V28.3695H3.45573C3.28444 28.2075 3.14786 28.0107 3.04601 27.7793C2.94879 27.5478 2.90018 27.2955 2.90018 27.0223ZM3.86545 27.1543C3.86545 27.3765 3.92101 27.5756 4.03212 27.7515C4.14323 27.932 4.28907 28.0756 4.46962 28.182C4.65481 28.2885 4.85851 28.3418 5.08073 28.3418C5.30295 28.3418 5.50434 28.2885 5.6849 28.182C5.87008 28.0756 6.01823 27.932 6.12934 27.7515C6.24045 27.5756 6.29601 27.3788 6.29601 27.1612C6.29601 26.939 6.24045 26.7376 6.12934 26.557C6.01823 26.3811 5.87008 26.2399 5.6849 26.1334C5.50434 26.027 5.30295 25.9737 5.08073 25.9737C4.85851 25.9737 4.65481 26.0269 4.46962 26.1334C4.28907 26.2399 4.14323 26.3811 4.03212 26.557C3.92101 26.7376 3.86545 26.9367 3.86545 27.1543ZM0.914062 30.2259L3.67795 31.6078L7.16407 29.8925V31.1009L5.56684 31.8717C5.42332 31.9412 5.28907 32.0037 5.16407 32.0592C5.03907 32.1148 4.90944 32.1634 4.77518 32.205C4.90944 32.2513 5.03907 32.3023 5.16407 32.3578C5.28907 32.418 5.42332 32.4851 5.56684 32.5592L7.16407 33.3439V34.5037L0.914062 31.3995V30.2259ZM2.8724 38.7617C2.8724 38.47 2.94416 38.1946 3.08768 37.9353C3.23119 37.676 3.43721 37.4677 3.70573 37.3103C3.97888 37.1529 4.3099 37.0742 4.69879 37.0742H7.16407V38.1645H4.84462C4.58536 38.1645 4.35619 38.2409 4.15712 38.3936C3.95805 38.551 3.85851 38.7686 3.85851 39.0464C3.85851 39.2779 3.94184 39.4839 4.10851 39.6645C4.27518 39.845 4.5136 39.9353 4.82379 39.9353H7.16407V41.0256H2.9974V40.0325H3.4974C3.29369 39.8844 3.1386 39.6992 3.03212 39.477C2.92564 39.2547 2.8724 39.0163 2.8724 38.7617ZM0.914062 42.0501H7.16407L7.16406 43.0015H6.71962C6.88629 43.1682 7.01823 43.3649 7.11545 43.5918C7.21268 43.8232 7.26129 44.0732 7.26129 44.3418C7.26129 44.7307 7.16175 45.0825 6.96268 45.3973C6.76823 45.7121 6.50666 45.9621 6.17795 46.1473C5.84925 46.3371 5.48351 46.432 5.08073 46.432C4.68258 46.432 4.31684 46.3371 3.98351 46.1473C3.65481 45.9621 3.39092 45.7121 3.19184 45.3973C2.9974 45.0825 2.90018 44.7307 2.90018 44.3418C2.90018 44.1057 2.93721 43.8857 3.01129 43.682C3.08536 43.483 3.18721 43.3024 3.31684 43.1404H0.914062V42.0501ZM3.86545 44.2098C3.86545 44.432 3.92101 44.6311 4.03212 44.807C4.14323 44.9876 4.28906 45.1311 4.46962 45.2376C4.65481 45.3441 4.85851 45.3973 5.08073 45.3973C5.30295 45.3973 5.50434 45.3441 5.6849 45.2376C5.87008 45.1311 6.01823 44.9876 6.12934 44.807C6.24045 44.6311 6.29601 44.4344 6.29601 44.2168C6.29601 43.9945 6.24045 43.7932 6.12934 43.6126C6.01823 43.4367 5.87008 43.2955 5.6849 43.189C5.50434 43.0825 5.30295 43.0293 5.08073 43.0293C4.85851 43.0293 4.65481 43.0825 4.46962 43.189C4.28906 43.2955 4.14323 43.4367 4.03212 43.6126C3.92101 43.7932 3.86545 43.9922 3.86545 44.2098Z" fill="black"/>
<path opacity="0.6" d="M23 38H22.5V38.5H23V38ZM31 38V38.5H31.5V38H31ZM23.5 38V6H22.5V38H23.5ZM30.5 6V38H31.5V6H30.5ZM31 37.5H23V38.5H31V37.5Z" fill="#A5A5A5"/>
<path opacity="0.6" d="M39 38V38.5H39.5V38H39ZM38.5 6V38H39.5V6H38.5ZM39 37.5H31V38.5H39V37.5Z" fill="#A5A5A5"/>
<path opacity="0.6" d="M47 38V38.5H47.5V38H47ZM46.5 6V38H47.5V6H46.5ZM47 37.5H39V38.5H47V37.5Z" fill="#A5A5A5"/>
<path opacity="0.6" d="M55 38V38.5H55.5V38H55ZM54.5 6V38H55.5V6H54.5ZM55 37.5H47V38.5H55V37.5Z" fill="#A5A5A5"/>
<path opacity="0.6" d="M63 38V38.5H63.5V38H63ZM55 38.5H56V37.5H55V38.5ZM58 38.5H60V37.5H58V38.5ZM62 38.5H63V37.5H62V38.5ZM63.5 38V37H62.5V38H63.5ZM63.5 35V33H62.5V35H63.5ZM63.5 31V29H62.5V31H63.5ZM63.5 27V25H62.5V27H63.5ZM63.5 23V21H62.5V23H63.5ZM63.5 19V17H62.5V19H63.5ZM63.5 15V13H62.5V15H63.5ZM63.5 11V9H62.5V11H63.5ZM63.5 7V6H62.5V7H63.5Z" fill="#A5A5A5"/>
<path opacity="0.6" d="M71 38V38.5H71.5V38H71ZM63 38.5H64V37.5H63V38.5ZM66 38.5H68V37.5H66V38.5ZM70 38.5H71V37.5H70V38.5ZM71.5 38V37H70.5V38H71.5ZM71.5 35V33H70.5V35H71.5ZM71.5 31V29H70.5V31H71.5ZM71.5 27V25H70.5V27H71.5ZM71.5 23V21H70.5V23H71.5ZM71.5 19V17H70.5V19H71.5ZM71.5 15V13H70.5V15H71.5ZM71.5 11V9H70.5V11H71.5ZM71.5 7V6H70.5V7H71.5Z" fill="#A5A5A5"/>
<path opacity="0.6" d="M79 38V38.5H79.5V38H79ZM71 38.5H72V37.5H71V38.5ZM74 38.5H76V37.5H74V38.5ZM78 38.5H79V37.5H78V38.5ZM79.5 38V37H78.5V38H79.5ZM79.5 35V33H78.5V35H79.5ZM79.5 31V29H78.5V31H79.5ZM79.5 27V25H78.5V27H79.5ZM79.5 23V21H78.5V23H79.5ZM79.5 19V17H78.5V19H79.5ZM79.5 15V13H78.5V15H79.5ZM79.5 11V9H78.5V11H79.5ZM79.5 7V6H78.5V7H79.5Z" fill="#A5A5A5"/>
<path d="M36.3536 24.3539C36.5488 24.1586 36.5488 23.842 36.3536 23.6467L33.1716 20.4648C32.9763 20.2695 32.6597 20.2695 32.4645 20.4648C32.2692 20.66 32.2692 20.9766 32.4645 21.1719L35.2929 24.0003L32.4645 26.8287C32.2692 27.024 32.2692 27.3406 32.4645 27.5358C32.6597 27.7311 32.9763 27.7311 33.1716 27.5358L36.3536 24.3539ZM13 24.5003H36V23.5003H13V24.5003Z" fill="black"/>
</g>
<defs>
<clipPath id="clip0_559_2604">
<rect width="80" height="47" fill="white"/>
</clipPath>
</defs>
</svg>
