<svg width="73" height="94" viewBox="0 0 73 94" fill="none" xmlns="http://www.w3.org/2000/svg">
<rect x="0.239534" y="89.487" width="8.57458" height="32.3409" transform="rotate(-90 0.239534 89.487)" stroke="#6F6F6F" stroke-width="0.479069"/>
<mask id="path-2-inside-1_580_66" fill="white">
<path d="M0 80.6719L1.07964e-07 71.6182L32.8199 71.6182L32.8199 80.6719L0 80.6719Z"/>
</mask>
<path d="M1.07964e-07 71.6182L1.13677e-07 71.1392L-0.479069 71.1392L-0.479069 71.6182L1.07964e-07 71.6182ZM32.8199 71.6182L33.299 71.6182L33.299 71.1392L32.8199 71.1392L32.8199 71.6182ZM0 80.6719L0.479069 80.6719L0.479069 71.6182L1.07964e-07 71.6182L-0.479069 71.6182L-0.479069 80.6719L0 80.6719ZM1.07964e-07 71.6182L1.02251e-07 72.0973L32.8199 72.0973L32.8199 71.6182L32.8199 71.1392L1.13677e-07 71.1392L1.07964e-07 71.6182ZM32.8199 71.6182L32.3409 71.6182L32.3409 80.6719L32.8199 80.6719L33.299 80.6719L33.299 71.6182L32.8199 71.6182Z" fill="#6F6F6F" mask="url(#path-2-inside-1_580_66)"/>
<mask id="path-4-inside-2_580_66" fill="white">
<path d="M0 71.6172L1.07964e-07 62.5635L32.8199 62.5635L32.8199 71.6172L0 71.6172Z"/>
</mask>
<path d="M1.07964e-07 62.5635L1.13677e-07 62.0845L-0.479069 62.0845L-0.479069 62.5635L1.07964e-07 62.5635ZM32.8199 62.5635L33.299 62.5635L33.299 62.0845L32.8199 62.0845L32.8199 62.5635ZM0 71.6172L0.479069 71.6172L0.479069 62.5635L1.07964e-07 62.5635L-0.479069 62.5635L-0.479069 71.6172L0 71.6172ZM1.07964e-07 62.5635L1.02251e-07 63.0426L32.8199 63.0426L32.8199 62.5635L32.8199 62.0845L1.13677e-07 62.0845L1.07964e-07 62.5635ZM32.8199 62.5635L32.3409 62.5635L32.3409 71.6172L32.8199 71.6172L33.299 71.6172L33.299 62.5635L32.8199 62.5635Z" fill="#6F6F6F" mask="url(#path-4-inside-2_580_66)"/>
<mask id="path-6-inside-3_580_66" fill="white">
<path d="M0 62.5703L1.07964e-07 53.5167L32.8199 53.5167L32.8199 62.5703L0 62.5703Z"/>
</mask>
<path d="M1.07964e-07 53.5167L1.13677e-07 53.0376L-0.479069 53.0376L-0.479069 53.5167L1.07964e-07 53.5167ZM32.8199 53.5167L33.299 53.5167L33.299 53.0376L32.8199 53.0376L32.8199 53.5167ZM0 62.5703L0.479069 62.5703L0.479069 53.5167L1.07964e-07 53.5167L-0.479069 53.5167L-0.479069 62.5703L0 62.5703ZM1.07964e-07 53.5167L1.02251e-07 53.9957L32.8199 53.9957L32.8199 53.5167L32.8199 53.0376L1.13677e-07 53.0376L1.07964e-07 53.5167ZM32.8199 53.5167L32.3409 53.5167L32.3409 62.5703L32.8199 62.5703L33.299 62.5703L33.299 53.5167L32.8199 53.5167Z" fill="#6F6F6F" mask="url(#path-6-inside-3_580_66)"/>
<mask id="path-8-inside-4_580_66" fill="white">
<path d="M0 53.5078L1.07964e-07 44.4542L32.8199 44.4542L32.8199 53.5078L0 53.5078Z"/>
</mask>
<path d="M1.07964e-07 44.4542L1.13677e-07 43.9751L-0.479069 43.9751L-0.479069 44.4542L1.07964e-07 44.4542ZM32.8199 44.4542L33.299 44.4542L33.299 43.9751L32.8199 43.9751L32.8199 44.4542ZM0 53.5078L0.479069 53.5078L0.479069 44.4542L1.07964e-07 44.4542L-0.479069 44.4542L-0.479069 53.5078L0 53.5078ZM1.07964e-07 44.4542L1.02251e-07 44.9332L32.8199 44.9332L32.8199 44.4542L32.8199 43.9751L1.13677e-07 43.9751L1.07964e-07 44.4542ZM32.8199 44.4542L32.3409 44.4542L32.3409 53.5078L32.8199 53.5078L33.299 53.5078L33.299 44.4542L32.8199 44.4542Z" fill="#6F6F6F" mask="url(#path-8-inside-4_580_66)"/>
<mask id="path-10-inside-5_580_66" fill="white">
<path d="M0 44.4609L1.07964e-07 35.4073L32.8199 35.4073L32.8199 44.4609L0 44.4609Z"/>
</mask>
<path d="M1.07964e-07 35.4073L1.13677e-07 34.9282L-0.479069 34.9282L-0.479069 35.4073L1.07964e-07 35.4073ZM32.8199 35.4073L33.299 35.4073L33.299 34.9282L32.8199 34.9282L32.8199 35.4073ZM0 44.4609L0.479069 44.4609L0.479069 35.4073L1.07964e-07 35.4073L-0.479069 35.4073L-0.479069 44.4609L0 44.4609ZM1.07964e-07 35.4073L1.02251e-07 35.8864L32.8199 35.8864L32.8199 35.4073L32.8199 34.9282L1.13677e-07 34.9282L1.07964e-07 35.4073ZM32.8199 35.4073L32.3409 35.4073L32.3409 44.4609L32.8199 44.4609L33.299 44.4609L33.299 35.4073L32.8199 35.4073Z" fill="#6F6F6F" mask="url(#path-10-inside-5_580_66)"/>
<mask id="path-12-inside-6_580_66" fill="white">
<path d="M0 35.4062L1.07964e-07 26.3526L32.8199 26.3526L32.8199 35.4063L0 35.4062Z"/>
</mask>
<path d="M1.07964e-07 26.3526L1.13677e-07 25.8735L-0.479069 25.8735L-0.479069 26.3526L1.07964e-07 26.3526ZM32.8199 26.3526L33.299 26.3526L33.299 25.8735L32.8199 25.8735L32.8199 26.3526ZM0 35.4062L0.479069 35.4063L0.479069 26.3526L1.07964e-07 26.3526L-0.479069 26.3526L-0.479069 35.4062L0 35.4062ZM1.07964e-07 26.3526L1.02251e-07 26.8317L32.8199 26.8317L32.8199 26.3526L32.8199 25.8735L1.13677e-07 25.8735L1.07964e-07 26.3526ZM32.8199 26.3526L32.3409 26.3526L32.3409 35.4063L32.8199 35.4063L33.299 35.4063L33.299 26.3526L32.8199 26.3526Z" fill="#6F6F6F" mask="url(#path-12-inside-6_580_66)"/>
<mask id="path-14-inside-7_580_66" fill="white">
<path d="M0 26.3516L1.07964e-07 17.2979L32.8199 17.2979L32.8199 26.3516L0 26.3516Z"/>
</mask>
<path d="M1.07964e-07 17.2979L1.13677e-07 16.8188L-0.479069 16.8188L-0.479069 17.2979L1.07964e-07 17.2979ZM32.8199 17.2979L33.299 17.2979L33.299 16.8188L32.8199 16.8188L32.8199 17.2979ZM0 26.3516L0.479069 26.3516L0.479069 17.2979L1.07964e-07 17.2979L-0.479069 17.2979L-0.479069 26.3516L0 26.3516ZM1.07964e-07 17.2979L1.02251e-07 17.777L32.8199 17.777L32.8199 17.2979L32.8199 16.8188L1.13677e-07 16.8188L1.07964e-07 17.2979ZM32.8199 17.2979L32.3409 17.2979L32.3409 26.3516L32.8199 26.3516L33.299 26.3516L33.299 17.2979L32.8199 17.2979Z" fill="#6F6F6F" mask="url(#path-14-inside-7_580_66)"/>
<rect x="39.4348" y="89.487" width="8.57458" height="32.3409" transform="rotate(-90 39.4348 89.487)" stroke="#6F6F6F" stroke-width="0.479069"/>
<mask id="path-17-inside-8_580_66" fill="white">
<path d="M39.1953 80.6719L39.1953 71.6182L72.0153 71.6182L72.0153 80.6719L39.1953 80.6719Z"/>
</mask>
<path d="M39.1953 71.6182L39.1953 71.1392L38.7162 71.1392L38.7162 71.6182L39.1953 71.6182ZM72.0153 71.6182L72.4943 71.6182L72.4943 71.1392L72.0153 71.1392L72.0153 71.6182ZM39.1953 80.6719L39.6744 80.6719L39.6744 71.6182L39.1953 71.6182L38.7162 71.6182L38.7162 80.6719L39.1953 80.6719ZM39.1953 71.6182L39.1953 72.0973L72.0153 72.0973L72.0153 71.6182L72.0153 71.1392L39.1953 71.1392L39.1953 71.6182ZM72.0153 71.6182L71.5362 71.6182L71.5362 80.6719L72.0153 80.6719L72.4943 80.6719L72.4943 71.6182L72.0153 71.6182Z" fill="#6F6F6F" mask="url(#path-17-inside-8_580_66)"/>
<mask id="path-19-inside-9_580_66" fill="white">
<path d="M39.1953 71.6172L39.1953 62.5635L72.0153 62.5635L72.0153 71.6172L39.1953 71.6172Z"/>
</mask>
<path d="M39.1953 62.5635L39.1953 62.0845L38.7162 62.0845L38.7162 62.5635L39.1953 62.5635ZM72.0153 62.5635L72.4943 62.5635L72.4943 62.0845L72.0153 62.0845L72.0153 62.5635ZM39.1953 71.6172L39.6744 71.6172L39.6744 62.5635L39.1953 62.5635L38.7162 62.5635L38.7162 71.6172L39.1953 71.6172ZM39.1953 62.5635L39.1953 63.0426L72.0153 63.0426L72.0153 62.5635L72.0153 62.0845L39.1953 62.0845L39.1953 62.5635ZM72.0153 62.5635L71.5362 62.5635L71.5362 71.6172L72.0153 71.6172L72.4943 71.6172L72.4943 62.5635L72.0153 62.5635Z" fill="#6F6F6F" mask="url(#path-19-inside-9_580_66)"/>
<mask id="path-21-inside-10_580_66" fill="white">
<path d="M39.1953 62.5703L39.1953 53.5167L72.0153 53.5167L72.0153 62.5703L39.1953 62.5703Z"/>
</mask>
<path d="M39.1953 53.5167L39.1953 53.0376L38.7162 53.0376L38.7162 53.5167L39.1953 53.5167ZM72.0153 53.5167L72.4943 53.5167L72.4943 53.0376L72.0153 53.0376L72.0153 53.5167ZM39.1953 62.5703L39.6744 62.5703L39.6744 53.5167L39.1953 53.5167L38.7162 53.5167L38.7162 62.5703L39.1953 62.5703ZM39.1953 53.5167L39.1953 53.9957L72.0153 53.9957L72.0153 53.5167L72.0153 53.0376L39.1953 53.0376L39.1953 53.5167ZM72.0153 53.5167L71.5362 53.5167L71.5362 62.5703L72.0153 62.5703L72.4943 62.5703L72.4943 53.5167L72.0153 53.5167Z" fill="#6F6F6F" mask="url(#path-21-inside-10_580_66)"/>
<mask id="path-23-inside-11_580_66" fill="white">
<path d="M39.1953 53.5078L39.1953 44.4542L72.0153 44.4542L72.0153 53.5078L39.1953 53.5078Z"/>
</mask>
<path d="M39.1953 44.4542L39.1953 43.9751L38.7162 43.9751L38.7162 44.4542L39.1953 44.4542ZM72.0153 44.4542L72.4943 44.4542L72.4943 43.9751L72.0153 43.9751L72.0153 44.4542ZM39.1953 53.5078L39.6744 53.5078L39.6744 44.4542L39.1953 44.4542L38.7162 44.4542L38.7162 53.5078L39.1953 53.5078ZM39.1953 44.4542L39.1953 44.9332L72.0153 44.9332L72.0153 44.4542L72.0153 43.9751L39.1953 43.9751L39.1953 44.4542ZM72.0153 44.4542L71.5362 44.4542L71.5362 53.5078L72.0153 53.5078L72.4943 53.5078L72.4943 44.4542L72.0153 44.4542Z" fill="#6F6F6F" mask="url(#path-23-inside-11_580_66)"/>
<mask id="path-25-inside-12_580_66" fill="white">
<path d="M39.1953 44.4609L39.1953 35.4073L72.0153 35.4073L72.0153 44.4609L39.1953 44.4609Z"/>
</mask>
<path d="M39.1953 35.4073L39.1953 34.9282L38.7162 34.9282L38.7162 35.4073L39.1953 35.4073ZM72.0153 35.4073L72.4943 35.4073L72.4943 34.9282L72.0153 34.9282L72.0153 35.4073ZM39.1953 44.4609L39.6744 44.4609L39.6744 35.4073L39.1953 35.4073L38.7162 35.4073L38.7162 44.4609L39.1953 44.4609ZM39.1953 35.4073L39.1953 35.8864L72.0153 35.8864L72.0153 35.4073L72.0153 34.9282L39.1953 34.9282L39.1953 35.4073ZM72.0153 35.4073L71.5362 35.4073L71.5362 44.4609L72.0153 44.4609L72.4943 44.4609L72.4943 35.4073L72.0153 35.4073Z" fill="#6F6F6F" mask="url(#path-25-inside-12_580_66)"/>
<mask id="path-27-inside-13_580_66" fill="white">
<path d="M39.1953 35.4062L39.1953 26.3526L72.0153 26.3526L72.0153 35.4063L39.1953 35.4062Z"/>
</mask>
<path d="M39.1953 26.3526L39.1953 25.8735L38.7162 25.8735L38.7162 26.3526L39.1953 26.3526ZM72.0153 26.3526L72.4943 26.3526L72.4943 25.8735L72.0153 25.8735L72.0153 26.3526ZM39.1953 35.4062L39.6744 35.4063L39.6744 26.3526L39.1953 26.3526L38.7162 26.3526L38.7162 35.4062L39.1953 35.4062ZM39.1953 26.3526L39.1953 26.8317L72.0153 26.8317L72.0153 26.3526L72.0153 25.8735L39.1953 25.8735L39.1953 26.3526ZM72.0153 26.3526L71.5362 26.3526L71.5362 35.4063L72.0153 35.4063L72.4943 35.4063L72.4943 26.3526L72.0153 26.3526Z" fill="#6F6F6F" mask="url(#path-27-inside-13_580_66)"/>
<mask id="path-29-inside-14_580_66" fill="white">
<path d="M39.1953 26.3516L39.1953 17.2979L72.0153 17.2979L72.0153 26.3516L39.1953 26.3516Z"/>
</mask>
<path d="M39.1953 17.2979L39.1953 16.8188L38.7162 16.8188L38.7162 17.2979L39.1953 17.2979ZM72.0153 17.2979L72.4943 17.2979L72.4943 16.8188L72.0153 16.8188L72.0153 17.2979ZM39.1953 26.3516L39.6744 26.3516L39.6744 17.2979L39.1953 17.2979L38.7162 17.2979L38.7162 26.3516L39.1953 26.3516ZM39.1953 17.2979L39.1953 17.777L72.0153 17.777L72.0153 17.2979L72.0153 16.8188L39.1953 16.8188L39.1953 17.2979ZM72.0153 17.2979L71.5362 17.2979L71.5362 26.3516L72.0153 26.3516L72.4943 26.3516L72.4943 17.2979L72.0153 17.2979Z" fill="#6F6F6F" mask="url(#path-29-inside-14_580_66)"/>
<path d="M16.3536 58.6464C16.1583 58.4512 15.8417 58.4512 15.6464 58.6464L12.4645 61.8284C12.2692 62.0237 12.2692 62.3403 12.4645 62.5355C12.6597 62.7308 12.9763 62.7308 13.1716 62.5355L16 59.7071L18.8284 62.5355C19.0237 62.7308 19.3403 62.7308 19.5355 62.5355C19.7308 62.3403 19.7308 62.0237 19.5355 61.8284L16.3536 58.6464ZM16 59L15.5 59L15.5 93.457L16 93.457L16.5 93.457L16.5 59L16 59Z" fill="black"/>
<path d="M55.6464 93.8106C55.8417 94.0058 56.1583 94.0058 56.3536 93.8106L59.5355 90.6286C59.7308 90.4333 59.7308 90.1168 59.5355 89.9215C59.3403 89.7262 59.0237 89.7262 58.8284 89.9215L56 92.7499L53.1716 89.9215C52.9763 89.7262 52.6597 89.7262 52.4645 89.9215C52.2692 90.1168 52.2692 90.4333 52.4645 90.6286L55.6464 93.8106ZM56 93.457L56.5 93.457L56.5 59L56 59L55.5 59L55.5 93.457L56 93.457Z" fill="black"/>
<path d="M26.858 4.54546C26.8153 4.18561 26.6425 3.90625 26.3395 3.70739C26.0365 3.50852 25.6648 3.40909 25.2244 3.40909C24.9025 3.40909 24.6207 3.46117 24.3793 3.56534C24.1402 3.66951 23.9531 3.81274 23.8182 3.99503C23.6856 4.17732 23.6193 4.38447 23.6193 4.61648C23.6193 4.81061 23.6655 4.97751 23.7578 5.11719C23.8525 5.2545 23.9732 5.36932 24.12 5.46165C24.2668 5.55161 24.4207 5.62618 24.5817 5.68537C24.7427 5.74219 24.8906 5.78835 25.0256 5.82386L25.7642 6.02273C25.9536 6.07244 26.1643 6.1411 26.3963 6.22869C26.6307 6.31629 26.8544 6.43584 27.0675 6.58736C27.2829 6.73651 27.4605 6.92827 27.6001 7.16264C27.7398 7.39702 27.8097 7.68466 27.8097 8.02557C27.8097 8.41856 27.7067 8.77368 27.5007 9.09091C27.2971 9.40814 26.9988 9.66028 26.6058 9.8473C26.2152 10.0343 25.7405 10.1278 25.1818 10.1278C24.661 10.1278 24.21 10.0438 23.8288 9.87571C23.45 9.70762 23.1518 9.47325 22.9339 9.17259C22.7185 8.87192 22.5966 8.52273 22.5682 8.125L23.4773 8.125C23.5009 8.39962 23.5933 8.62689 23.7543 8.80682C23.9176 8.98438 24.1236 9.11695 24.3722 9.20455C24.6231 9.28977 24.893 9.33239 25.1818 9.33239C25.518 9.33239 25.8198 9.27794 26.0874 9.16903C26.3549 9.05777 26.5668 8.90388 26.723 8.70739C26.8793 8.50852 26.9574 8.27652 26.9574 8.01136C26.9574 7.76989 26.8899 7.57339 26.755 7.42188C26.62 7.27036 26.4425 7.14725 26.2223 7.05256C26.0021 6.95786 25.7642 6.875 25.5085 6.80398L24.6136 6.5483C24.0455 6.38494 23.5956 6.15175 23.2642 5.84872C22.9328 5.54569 22.767 5.14915 22.767 4.65909C22.767 4.25189 22.8771 3.89678 23.0973 3.59375C23.3198 3.28835 23.6181 3.05161 23.9922 2.88352C24.3686 2.71307 24.7888 2.62784 25.2528 2.62784C25.7216 2.62784 26.1383 2.71188 26.5028 2.87997C26.8674 3.04569 27.1562 3.27296 27.3693 3.56179C27.5848 3.85062 27.6984 4.1785 27.7102 4.54546L26.858 4.54546ZM31.5162 4.54546L31.5162 5.25568L28.6895 5.25568L28.6895 4.54546L31.5162 4.54546ZM29.5133 3.23864L30.3514 3.23864L30.3514 8.4375C30.3514 8.67424 30.3857 8.8518 30.4544 8.97017C30.5254 9.08618 30.6154 9.1643 30.7243 9.20455C30.8355 9.24243 30.9527 9.26137 31.0758 9.26137C31.1681 9.26137 31.2439 9.25663 31.3031 9.24716C31.3623 9.23532 31.4096 9.22585 31.4451 9.21875L31.6156 9.97159C31.5588 9.9929 31.4795 10.0142 31.3777 10.0355C31.2759 10.0592 31.1468 10.071 30.9906 10.071C30.7538 10.071 30.5218 10.0201 30.2946 9.91833C30.0697 9.81653 29.8826 9.66146 29.7335 9.45313C29.5867 9.24479 29.5133 8.98201 29.5133 8.66477L29.5133 3.23864ZM34.3819 10.1278C34.0363 10.1278 33.7226 10.0627 33.4409 9.93253C33.1591 9.79995 32.9354 9.60938 32.7697 9.3608C32.604 9.10985 32.5211 8.80682 32.5211 8.45171C32.5211 8.13921 32.5827 7.88589 32.7058 7.69176C32.8289 7.49527 32.9934 7.34138 33.1994 7.23012C33.4054 7.11885 33.6326 7.03599 33.8812 6.98154C34.1322 6.92472 34.3843 6.87974 34.6376 6.84659C34.969 6.80398 35.2377 6.77202 35.4437 6.75071C35.652 6.72704 35.8036 6.68798 35.8983 6.63352C35.9953 6.57907 36.0439 6.48438 36.0439 6.34943L36.0439 6.32102C36.0439 5.97065 35.948 5.69839 35.7562 5.50426C35.5668 5.31013 35.2792 5.21307 34.8933 5.21307C34.4932 5.21307 34.1795 5.30066 33.9522 5.47585C33.725 5.65104 33.5652 5.83807 33.4728 6.03693L32.6774 5.75284C32.8194 5.4214 33.0088 5.16335 33.2456 4.9787C33.4847 4.79167 33.7451 4.66146 34.0268 4.58807C34.3109 4.51231 34.5903 4.47443 34.8649 4.47443C35.0401 4.47443 35.2413 4.49574 35.4686 4.53835C35.6982 4.5786 35.9196 4.66264 36.1326 4.79048C36.3481 4.91833 36.5268 5.11127 36.6689 5.36932C36.8109 5.62737 36.8819 5.97301 36.8819 6.40625L36.8819 10L36.0439 10L36.0439 9.26137L36.0012 9.26137C35.9444 9.37974 35.8497 9.50639 35.7172 9.64134C35.5846 9.77628 35.4082 9.8911 35.188 9.9858C34.9679 10.0805 34.6992 10.1278 34.3819 10.1278ZM34.5098 9.375C34.8412 9.375 35.1206 9.3099 35.3478 9.17969C35.5775 9.04948 35.7503 8.88139 35.8663 8.67543C35.9847 8.46946 36.0439 8.25284 36.0439 8.02557L36.0439 7.25852C36.0083 7.30114 35.9302 7.3402 35.8095 7.37571C35.6911 7.40886 35.5538 7.43845 35.3975 7.46449C35.2437 7.48817 35.0933 7.50947 34.9466 7.52841C34.8021 7.54498 34.685 7.55919 34.595 7.57102C34.3772 7.59943 34.1736 7.6456 33.9842 7.70952C33.7972 7.77107 33.6457 7.86459 33.5297 7.99006C33.416 8.11316 33.3592 8.28125 33.3592 8.49432C33.3592 8.78551 33.4669 9.00568 33.6823 9.15483C33.9002 9.30161 34.176 9.375 34.5098 9.375ZM38.4116 10L38.4116 4.54546L39.2496 4.54546L39.2496 10L38.4116 10ZM38.8377 3.63637C38.6744 3.63637 38.5335 3.58073 38.4151 3.46946C38.2991 3.35819 38.2411 3.22443 38.2411 3.06818C38.2411 2.91193 38.2991 2.77818 38.4151 2.66691C38.5335 2.55564 38.6744 2.5 38.8377 2.5C39.0011 2.5 39.1407 2.55564 39.2567 2.66691C39.3751 2.77818 39.4343 2.91193 39.4343 3.06818C39.4343 3.22443 39.3751 3.35819 39.2567 3.46946C39.1407 3.58073 39.0011 3.63637 38.8377 3.63637ZM40.7846 10L40.7846 4.54546L41.5943 4.54546L41.5943 5.36932L41.6511 5.36932C41.7505 5.09944 41.9305 4.88045 42.1909 4.71236C42.4513 4.54427 42.7449 4.46023 43.0716 4.46023C43.1331 4.46023 43.21 4.46141 43.3024 4.46378C43.3947 4.46615 43.4645 4.4697 43.5119 4.47444L43.5119 5.32671C43.4835 5.31961 43.4184 5.30895 43.3166 5.29475C43.2172 5.27818 43.1118 5.26989 43.0005 5.26989C42.7354 5.26989 42.4986 5.32552 42.2903 5.43679C42.0843 5.54569 41.921 5.69721 41.8002 5.89134C41.6819 6.0831 41.6227 6.30209 41.6227 6.5483L41.6227 10L40.7846 10ZM48.369 5.76705L47.6161 5.98012C47.5688 5.85464 47.4989 5.73272 47.4066 5.61435C47.3166 5.49361 47.1935 5.39418 47.0373 5.31606C46.881 5.23793 46.681 5.19887 46.4371 5.19887C46.1033 5.19887 45.8252 5.27581 45.6026 5.42969C45.3825 5.58121 45.2724 5.77415 45.2724 6.00853C45.2724 6.21686 45.3481 6.3814 45.4996 6.50213C45.6512 6.62287 45.8879 6.72349 46.2099 6.80398L47.0195 7.00285C47.5072 7.12122 47.8706 7.30232 48.1097 7.54617C48.3488 7.78765 48.4684 8.09896 48.4684 8.48012C48.4684 8.79262 48.3784 9.07197 48.1985 9.31819C48.021 9.5644 47.7724 9.75853 47.4528 9.90057C47.1332 10.0426 46.7615 10.1136 46.3377 10.1136C45.7814 10.1136 45.3209 9.9929 44.9563 9.75142C44.5917 9.50995 44.3609 9.1572 44.2638 8.69319L45.0593 8.49432C45.1351 8.78788 45.2783 9.00805 45.489 9.15483C45.7021 9.30161 45.9802 9.375 46.3235 9.375C46.7141 9.375 47.0243 9.29214 47.2539 9.12642C47.4859 8.95834 47.6019 8.75711 47.6019 8.52273C47.6019 8.33334 47.5356 8.17472 47.4031 8.04688C47.2705 7.91667 47.0669 7.81961 46.7923 7.75569L45.8832 7.54262C45.3836 7.42425 45.0167 7.24077 44.7823 6.99219C44.5503 6.74124 44.4343 6.42756 44.4343 6.05114C44.4343 5.74337 44.5207 5.47112 44.6935 5.23438C44.8687 4.99764 45.1067 4.81179 45.4073 4.67685C45.7103 4.54191 46.0536 4.47444 46.4371 4.47444C46.9769 4.47444 47.4007 4.59281 47.7085 4.82955C48.0186 5.06629 48.2388 5.37879 48.369 5.76705Z" fill="black"/>
</svg>
