<svg width="84" height="59" viewBox="0 0 84 59" fill="none" xmlns="http://www.w3.org/2000/svg">
<g clip-path="url(#clip0_559_2590)">
<path opacity="0.8" d="M8.22657 0.669922H9.2474V4.95465H8.22657V3.39215H2.9974V2.23242H8.22657V0.669922ZM2.9974 5.77083H9.66407V6.86111H6.78212C6.94879 7.00926 7.07379 7.18519 7.15712 7.38889C7.24508 7.59259 7.28907 7.80787 7.28907 8.03472C7.28907 8.33102 7.21731 8.60648 7.07379 8.86111C6.93027 9.12037 6.72194 9.32871 6.44879 9.48611C6.18027 9.64352 5.85157 9.72222 5.46268 9.72222H2.9974V8.63195H5.31684C5.5761 8.63195 5.80527 8.55556 6.00434 8.40278C6.20342 8.25 6.30296 8.03241 6.30296 7.75C6.30296 7.51852 6.22194 7.3125 6.0599 7.13195C5.90249 6.95139 5.66175 6.86111 5.33768 6.86111H2.9974V5.77083ZM2.9974 10.6703H7.16407V11.7606H2.9974V10.6703ZM7.80296 11.219C7.80296 11.0477 7.86083 10.9018 7.97657 10.7815C8.09694 10.6657 8.24277 10.6078 8.41407 10.6078C8.58999 10.6078 8.73583 10.6657 8.85157 10.7815C8.96731 10.9018 9.02518 11.0477 9.02518 11.219C9.02518 11.3949 8.96731 11.5407 8.85157 11.6565C8.73583 11.7722 8.58999 11.8301 8.41407 11.8301C8.24277 11.8301 8.09694 11.7722 7.97657 11.6565C7.86083 11.5407 7.80296 11.3949 7.80296 11.219ZM2.8724 14.084C2.8724 13.8201 2.91638 13.5493 3.00434 13.2715C3.09694 12.9937 3.22657 12.7715 3.39323 12.6048L4.44879 12.8826C4.25434 13.0168 4.08768 13.1974 3.94879 13.4243C3.81453 13.6557 3.7474 13.8942 3.7474 14.1395C3.7474 14.3247 3.78444 14.459 3.85851 14.5423C3.93721 14.6303 4.03212 14.6743 4.14323 14.6743C4.26823 14.6743 4.35851 14.6303 4.41407 14.5423C4.47425 14.4543 4.52055 14.3664 4.55295 14.2784L4.76823 13.702C4.81916 13.5817 4.88629 13.4405 4.96962 13.2784C5.05758 13.1164 5.18027 12.9752 5.33768 12.8548C5.49971 12.7391 5.71036 12.6812 5.96962 12.6812C6.20573 12.6812 6.42333 12.7391 6.6224 12.8548C6.82147 12.9705 6.9812 13.1372 7.10157 13.3548C7.22657 13.577 7.28907 13.8432 7.28907 14.1534C7.28907 14.4312 7.24046 14.6951 7.14323 14.9451C7.05064 15.1997 6.9349 15.3918 6.79601 15.5215L5.76823 15.2645C5.97194 15.1164 6.12934 14.9381 6.24045 14.7298C6.3562 14.5215 6.41407 14.3201 6.41407 14.1256C6.41407 13.9636 6.37703 13.8432 6.30295 13.7645C6.23351 13.6858 6.15018 13.6465 6.05295 13.6465C5.97888 13.6465 5.90944 13.6743 5.84462 13.7298C5.77981 13.7854 5.72425 13.8756 5.67795 14.0006L5.46962 14.5423C5.4187 14.6858 5.34694 14.8432 5.25434 15.0145C5.16638 15.1858 5.04138 15.3317 4.87934 15.452C4.71731 15.577 4.49508 15.6395 4.21268 15.6395C3.81453 15.6395 3.49045 15.4937 3.24045 15.202C2.99508 14.915 2.8724 14.5423 2.8724 14.084ZM2.78907 20.14L7.16407 18.0566V19.2372L5.70573 19.9316C5.5761 19.9964 5.43953 20.0589 5.29601 20.1191C5.15249 20.1839 4.98583 20.2464 4.79601 20.3066C4.9812 20.3761 5.1386 20.4432 5.26823 20.508C5.40249 20.5728 5.53444 20.6377 5.66407 20.7025L7.31684 21.5011L5.66407 22.3205C5.5437 22.3807 5.41638 22.4432 5.28212 22.508C5.14786 22.5728 4.98583 22.6353 4.79601 22.6955C4.99971 22.7603 5.1687 22.8228 5.30295 22.883C5.44184 22.9478 5.5761 23.0103 5.70573 23.0705L7.16407 23.765V24.89L2.78907 22.8066L4.45573 21.883C4.58999 21.8089 4.72425 21.7395 4.85851 21.6747C4.99277 21.6099 5.14092 21.5427 5.30295 21.4733C5.14092 21.4085 4.99277 21.3414 4.85851 21.2719C4.72425 21.2071 4.58999 21.1353 4.45573 21.0566L2.78907 20.14ZM2.90018 27.1005C2.90018 26.7208 2.9974 26.3736 3.19184 26.0588C3.39092 25.744 3.65481 25.4917 3.98351 25.3019C4.31684 25.1167 4.68258 25.0241 5.08073 25.0241C5.47888 25.0241 5.84231 25.1167 6.17101 25.3019C6.50434 25.4917 6.76823 25.744 6.96268 26.0588C7.16175 26.3736 7.26129 26.7208 7.26129 27.1005C7.26129 27.3736 7.21268 27.6259 7.11545 27.8574C7.01823 28.0889 6.88166 28.2857 6.70573 28.4477H7.16407V29.3991H2.9974V28.4477H3.45573C3.28444 28.2857 3.14786 28.0889 3.04601 27.8574C2.94879 27.6259 2.90018 27.3736 2.90018 27.1005ZM3.86545 27.2324C3.86545 27.4546 3.92101 27.6537 4.03212 27.8296C4.14323 28.0102 4.28907 28.1537 4.46962 28.2602C4.65481 28.3667 4.85851 28.4199 5.08073 28.4199C5.30295 28.4199 5.50434 28.3667 5.6849 28.2602C5.87008 28.1537 6.01823 28.0102 6.12934 27.8296C6.24045 27.6537 6.29601 27.457 6.29601 27.2394C6.29601 27.0171 6.24045 26.8157 6.12934 26.6352C6.01823 26.4593 5.87008 26.3181 5.6849 26.2116C5.50434 26.1051 5.30295 26.0519 5.08073 26.0519C4.85851 26.0519 4.65481 26.1051 4.46962 26.2116C4.28907 26.3181 4.14323 26.4593 4.03212 26.6352C3.92101 26.8157 3.86545 27.0148 3.86545 27.2324ZM0.914062 30.304L3.67795 31.686L7.16407 29.9707V31.179L5.56684 31.9499C5.42332 32.0193 5.28907 32.0818 5.16407 32.1374C5.03907 32.1929 4.90944 32.2415 4.77518 32.2832C4.90944 32.3295 5.03907 32.3804 5.16407 32.436C5.28907 32.4962 5.42332 32.5633 5.56684 32.6374L7.16407 33.4221V34.5818L0.914062 31.4776V30.304ZM2.90018 39.0898C2.90018 38.7056 2.9974 38.356 3.19184 38.0412C3.39092 37.7264 3.65481 37.4741 3.98351 37.2843C4.31684 37.0991 4.68258 37.0065 5.08073 37.0065C5.47888 37.0065 5.84231 37.0991 6.17101 37.2843C6.50434 37.4741 6.76823 37.7264 6.96268 38.0412C7.16175 38.356 7.26129 38.7056 7.26129 39.0898C7.26129 39.3259 7.22425 39.5435 7.15018 39.7426C7.0761 39.9463 6.97425 40.1292 6.84462 40.2912H9.66407V41.3815H2.9974V40.4301H3.44184C3.27518 40.2681 3.14323 40.0713 3.04601 39.8398C2.94879 39.6084 2.90018 39.3584 2.90018 39.0898ZM3.86545 39.2148C3.86545 39.4371 3.92101 39.6361 4.03212 39.8121C4.14323 39.9926 4.28906 40.1361 4.46962 40.2426C4.65481 40.3491 4.85851 40.4023 5.08073 40.4023C5.30295 40.4023 5.50434 40.3491 5.6849 40.2426C5.87008 40.1361 6.01823 39.9926 6.12934 39.8121C6.24045 39.6361 6.29601 39.4394 6.29601 39.2218C6.29601 38.9996 6.24045 38.7982 6.12934 38.6176C6.01823 38.4417 5.87008 38.3005 5.6849 38.194C5.50434 38.0875 5.30295 38.0343 5.08073 38.0343C4.85851 38.0343 4.65481 38.0875 4.46962 38.194C4.28907 38.3005 4.14323 38.4417 4.03212 38.6176C3.92101 38.7982 3.86545 38.9972 3.86545 39.2148ZM2.8724 44.4184C2.8724 44.0064 2.97194 43.629 3.17101 43.2864C3.37008 42.9485 3.63629 42.68 3.96962 42.4809C4.30295 42.2818 4.67332 42.1823 5.08073 42.1823C5.48814 42.1823 5.85851 42.2818 6.19184 42.4809C6.52518 42.68 6.79138 42.9485 6.99045 43.2864C7.18953 43.629 7.28906 44.004 7.28906 44.4114C7.28906 44.8281 7.18953 45.2054 6.99045 45.5434C6.79138 45.8814 6.52518 46.1499 6.19184 46.3489C5.86314 46.5527 5.49277 46.6545 5.08073 46.6545C4.67795 46.6545 4.30758 46.5527 3.96962 46.3489C3.63629 46.1499 3.37008 45.8814 3.17101 45.5434C2.97194 45.2054 2.8724 44.8304 2.8724 44.4184ZM3.85851 44.4114C3.85851 44.6383 3.91406 44.842 4.02518 45.0226C4.13629 45.2031 4.28444 45.3466 4.46962 45.4531C4.65481 45.5596 4.85851 45.6128 5.08073 45.6128C5.30758 45.6128 5.51129 45.5596 5.69184 45.4531C5.87703 45.3466 6.02518 45.2031 6.13629 45.0226C6.2474 44.842 6.30295 44.6383 6.30295 44.4114C6.30295 44.1892 6.2474 43.9878 6.13629 43.8073C6.02518 43.6267 5.87703 43.4832 5.69184 43.3767C5.51129 43.2702 5.30758 43.217 5.08073 43.217C4.85851 43.217 4.65481 43.2702 4.46962 43.3767C4.28444 43.4832 4.13629 43.6267 4.02518 43.8073C3.91406 43.9878 3.85851 44.1892 3.85851 44.4114ZM2.78906 48.9388L7.16406 46.8555V48.036L5.70573 48.7305C5.5761 48.7953 5.43953 48.8578 5.29601 48.918C5.15249 48.9828 4.98582 49.0453 4.79601 49.1055C4.98119 49.1749 5.1386 49.242 5.26823 49.3068C5.40249 49.3717 5.53443 49.4365 5.66406 49.5013L7.31684 50.2999L5.66406 51.1193C5.54369 51.1795 5.41638 51.242 5.28212 51.3068C5.14786 51.3717 4.98582 51.4342 4.79601 51.4943C4.99971 51.5592 5.16869 51.6217 5.30295 51.6818C5.44184 51.7467 5.5761 51.8092 5.70573 51.8693L7.16406 52.5638V53.6888L2.78906 51.6055L4.45573 50.6818C4.58999 50.6078 4.72425 50.5383 4.85851 50.4735C4.99277 50.4087 5.14092 50.3416 5.30295 50.2721C5.14092 50.2073 4.99277 50.1402 4.85851 50.0707C4.72425 50.0059 4.58999 49.9342 4.45573 49.8555L2.78906 48.9388ZM2.9974 54.2572H7.16406V55.2363H6.65018C6.85851 55.3891 7.01592 55.5766 7.1224 55.7988C7.23351 56.021 7.28906 56.2618 7.28906 56.521C7.28906 56.8173 7.21731 57.0928 7.07379 57.3474C6.93027 57.6067 6.72193 57.815 6.44879 57.9724C6.18027 58.1298 5.85156 58.2085 5.46268 58.2085H2.9974V57.1183H5.31684C5.5761 57.1183 5.80527 57.0419 6.00434 56.8891C6.20342 56.7363 6.30295 56.5187 6.30295 56.2363C6.30295 56.0048 6.22193 55.7988 6.0599 55.6183C5.90249 55.4377 5.66175 55.3474 5.33768 55.3474H2.9974V54.2572Z" fill="black"/>
<path opacity="0.6" d="M27 44H26.5V44.5H27V44ZM35 44V44.5H35.5V44H35ZM27.5 44V12H26.5V44H27.5ZM34.5 12V44H35.5V12H34.5ZM35 43.5H27V44.5H35V43.5Z" fill="#A5A5A5"/>
<path opacity="0.6" d="M43 44V44.5H43.5V44H43ZM42.5 12V44H43.5V12H42.5ZM43 43.5H35V44.5H43V43.5Z" fill="#A5A5A5"/>
<path opacity="0.6" d="M51 44V44.5H51.5V44H51ZM50.5 12V44H51.5V12H50.5ZM51 43.5H43V44.5H51V43.5Z" fill="#A5A5A5"/>
<path opacity="0.6" d="M59 44V44.5H59.5V44H59ZM58.5 12V44H59.5V12H58.5ZM59 43.5H51V44.5H59V43.5Z" fill="#A5A5A5"/>
<path opacity="0.6" d="M67 44V44.5H67.5V44H67ZM59 44.5H60V43.5H59V44.5ZM62 44.5H64V43.5H62V44.5ZM66 44.5H67V43.5H66V44.5ZM67.5 44V43H66.5V44H67.5ZM67.5 41V39H66.5V41H67.5ZM67.5 37V35H66.5V37H67.5ZM67.5 33V31H66.5V33H67.5ZM67.5 29V27H66.5V29H67.5ZM67.5 25V23H66.5V25H67.5ZM67.5 21V19H66.5V21H67.5ZM67.5 17V15H66.5V17H67.5ZM67.5 13V12H66.5V13H67.5Z" fill="#A5A5A5"/>
<path opacity="0.6" d="M75 44V44.5H75.5V44H75ZM67 44.5H68V43.5H67V44.5ZM70 44.5H72V43.5H70V44.5ZM74 44.5H75V43.5H74V44.5ZM75.5 44V43H74.5V44H75.5ZM75.5 41V39H74.5V41H75.5ZM75.5 37V35H74.5V37H75.5ZM75.5 33V31H74.5V33H75.5ZM75.5 29V27H74.5V29H75.5ZM75.5 25V23H74.5V25H75.5ZM75.5 21V19H74.5V21H75.5ZM75.5 17V15H74.5V17H75.5ZM75.5 13V12H74.5V13H75.5Z" fill="#A5A5A5"/>
<path opacity="0.6" d="M83 44V44.5H83.5V44H83ZM75 44.5H76V43.5H75V44.5ZM78 44.5H80V43.5H78V44.5ZM82 44.5H83V43.5H82V44.5ZM83.5 44V43H82.5V44H83.5ZM83.5 41V39H82.5V41H83.5ZM83.5 37V35H82.5V37H83.5ZM83.5 33V31H82.5V33H83.5ZM83.5 29V27H82.5V29H83.5ZM83.5 25V23H82.5V25H83.5ZM83.5 21V19H82.5V21H83.5ZM83.5 17V15H82.5V17H83.5ZM83.5 13V12H82.5V13H83.5Z" fill="#A5A5A5"/>
<path d="M40.3536 30.3539C40.5488 30.1586 40.5488 29.842 40.3536 29.6467L37.1716 26.4648C36.9763 26.2695 36.6597 26.2695 36.4645 26.4648C36.2692 26.66 36.2692 26.9766 36.4645 27.1719L39.2929 30.0003L36.4645 32.8287C36.2692 33.024 36.2692 33.3406 36.4645 33.5358C36.6597 33.7311 36.9763 33.7311 37.1716 33.5358L40.3536 30.3539ZM17 30.5003H40V29.5003H17V30.5003Z" fill="black"/>
</g>
<defs>
<clipPath id="clip0_559_2590">
<rect width="84" height="59" fill="white"/>
</clipPath>
</defs>
</svg>
