<svg width="80" height="47" viewBox="0 0 80 47" fill="none" xmlns="http://www.w3.org/2000/svg">
<g clip-path="url(#clip0_559_2615)">
<path opacity="0.8" d="M71.7734 46.4066H70.7526V42.1219H71.7734V43.6844H77.0026V44.8441H71.7734V46.4066ZM77.0026 41.3057H70.3359V40.2154H73.2179C73.0512 40.0673 72.9262 39.8914 72.8429 39.6877C72.7549 39.484 72.7109 39.2687 72.7109 39.0418C72.7109 38.7455 72.7827 38.4701 72.9262 38.2154C73.0697 37.9562 73.2781 37.7479 73.5512 37.5904C73.8197 37.433 74.1484 37.3543 74.5373 37.3543H77.0026V38.4446H74.6832C74.4239 38.4446 74.1947 38.521 73.9957 38.6738C73.7966 38.8266 73.697 39.0441 73.697 39.3266C73.697 39.558 73.7781 39.7641 73.9401 39.9446C74.0975 40.1252 74.3382 40.2154 74.6623 40.2154H77.0026V41.3057ZM77.0026 36.4062H72.8359V35.3159H77.0026V36.4062ZM72.197 35.8576C72.197 36.0289 72.1392 36.1747 72.0234 36.2951C71.9031 36.4108 71.7572 36.4687 71.5859 36.4687C71.41 36.4687 71.2642 36.4108 71.1484 36.2951C71.0327 36.1747 70.9748 36.0289 70.9748 35.8576C70.9748 35.6817 71.0327 35.5358 71.1484 35.4201C71.2642 35.3043 71.41 35.2465 71.5859 35.2465C71.7572 35.2465 71.9031 35.3043 72.0234 35.4201C72.1392 35.5358 72.197 35.6817 72.197 35.8576ZM77.1276 32.9926C77.1276 33.2565 77.0836 33.5273 76.9957 33.8051C76.9031 34.0829 76.7734 34.3051 76.6068 34.4717L75.5512 34.194C75.7457 34.0597 75.9123 33.8791 76.0512 33.6523C76.1855 33.4208 76.2526 33.1824 76.2526 32.937C76.2526 32.7518 76.2156 32.6177 76.1415 32.5343C76.0628 32.4464 75.9679 32.4023 75.8568 32.4023C75.7318 32.4023 75.6415 32.4464 75.5859 32.5343C75.5257 32.6223 75.4795 32.7102 75.447 32.7981L75.2318 33.3745C75.1808 33.4949 75.1137 33.6361 75.0304 33.7981C74.9424 33.9602 74.8197 34.1014 74.6623 34.2217C74.5003 34.3375 74.2896 34.3954 74.0304 34.3954C73.7943 34.3954 73.5767 34.3375 73.3776 34.2217C73.1785 34.106 73.0188 33.9393 72.8984 33.7217C72.7734 33.4995 72.7109 33.2333 72.7109 32.9231C72.7109 32.6454 72.7595 32.3815 72.8568 32.1315C72.9494 31.8768 73.0651 31.6847 73.204 31.5551L74.2318 31.812C74.0281 31.9602 73.8707 32.1385 73.7595 32.3468C73.6438 32.5552 73.5859 32.7565 73.5859 32.9509C73.5859 33.1129 73.623 33.2333 73.697 33.312C73.7665 33.3907 73.8498 33.4301 73.947 33.4301C74.0211 33.4301 74.0906 33.4023 74.1554 33.3467C74.2202 33.2912 74.2757 33.2009 74.322 33.0759L74.5304 32.5343C74.5813 32.3908 74.6531 32.2333 74.7457 32.062C74.8336 31.8907 74.9586 31.7449 75.1207 31.6245C75.2827 31.4995 75.5049 31.437 75.7873 31.437C76.1855 31.437 76.5095 31.5829 76.7595 31.8745C77.0049 32.1616 77.1276 32.5342 77.1276 32.9926ZM77.2109 26.9366L72.8359 29.0199V27.8394L74.2943 27.1449C74.4239 27.0801 74.5605 27.0176 74.704 26.9574C74.8475 26.8926 75.0142 26.8301 75.204 26.7699C75.0188 26.7005 74.8614 26.6334 74.7318 26.5686C74.5975 26.5038 74.4656 26.4389 74.3359 26.3741L72.6832 25.5756L74.3359 24.7561C74.4563 24.6959 74.5836 24.6334 74.7179 24.5686C74.8521 24.5038 75.0142 24.4413 75.204 24.3811C75.0003 24.3163 74.8313 24.2538 74.697 24.1936C74.5582 24.1288 74.4239 24.0663 74.2943 24.0061L72.8359 23.3116V22.1866L77.2109 24.2699L75.5443 25.1936C75.41 25.2677 75.2757 25.337 75.1415 25.4019C75.0072 25.4667 74.8591 25.5339 74.697 25.6033C74.8591 25.6682 75.0072 25.7352 75.1415 25.8046C75.2757 25.8695 75.41 25.9412 75.5443 26.0199L77.2109 26.9366ZM77.0998 19.9762C77.0998 20.3558 77.0026 20.7029 76.8082 21.0177C76.6091 21.3326 76.3452 21.5849 76.0165 21.7747C75.6832 21.9599 75.3174 22.0525 74.9193 22.0525C74.5211 22.0525 74.1577 21.9599 73.829 21.7747C73.4957 21.5849 73.2318 21.3326 73.0373 21.0177C72.8382 20.7029 72.7387 20.3558 72.7387 19.9762C72.7387 19.703 72.7873 19.4507 72.8845 19.2192C72.9818 18.9878 73.1183 18.791 73.2943 18.629H72.8359V17.6775H77.0026V18.629H76.5443C76.7156 18.791 76.8521 18.9878 76.954 19.2192C77.0512 19.4507 77.0998 19.703 77.0998 19.9762ZM76.1345 19.8442C76.1345 19.622 76.079 19.4229 75.9679 19.247C75.8568 19.0665 75.7109 18.9229 75.5304 18.8165C75.3452 18.71 75.1415 18.6567 74.9193 18.6567C74.697 18.6567 74.4957 18.71 74.3151 18.8165C74.1299 18.9229 73.9818 19.0665 73.8707 19.247C73.7595 19.4229 73.704 19.6196 73.704 19.8372C73.704 20.0594 73.7595 20.2609 73.8707 20.4415C73.9818 20.6174 74.1299 20.7585 74.3151 20.865C74.4957 20.9714 74.697 21.0247 74.9193 21.0247C75.1415 21.0247 75.3452 20.9715 75.5304 20.865C75.7109 20.7585 75.8568 20.6174 75.9679 20.4415C76.079 20.2609 76.1345 20.0618 76.1345 19.8442ZM79.0859 16.7725L76.322 15.3906L72.8359 17.1059V15.8975L74.4332 15.1267C74.5767 15.0572 74.7109 14.9947 74.8359 14.9392C74.9609 14.8836 75.0906 14.835 75.2248 14.7934C75.0906 14.7471 74.9609 14.6961 74.8359 14.6406C74.7109 14.5804 74.5767 14.5133 74.4332 14.4392L72.8359 13.6545V12.4948L79.0859 15.5989V16.7725ZM77.1276 8.23676C77.1276 8.52843 77.0558 8.80389 76.9123 9.06315C76.7688 9.32241 76.5628 9.53074 76.2943 9.68815C76.0211 9.84556 75.6901 9.92426 75.3012 9.92426H72.8359V8.83399H75.1554C75.4146 8.83399 75.6438 8.7576 75.8429 8.60482C76.042 8.44741 76.1415 8.22982 76.1415 7.95204C76.1415 7.72056 76.0582 7.51454 75.8915 7.33399C75.7248 7.15343 75.4864 7.06315 75.1762 7.06315H72.8359V5.97287H77.0026V6.96593H76.5026C76.7063 7.11408 76.8614 7.29926 76.9679 7.52149C77.0744 7.74371 77.1276 7.98213 77.1276 8.23676ZM79.0859 4.94835H72.8359V3.99696H73.2804C73.1137 3.8303 72.9818 3.63354 72.8845 3.40669C72.7873 3.1752 72.7387 2.9252 72.7387 2.65668C72.7387 2.2678 72.8383 1.91594 73.0373 1.60113C73.2318 1.28631 73.4933 1.03631 73.822 0.851128C74.1508 0.661314 74.5165 0.566406 74.9193 0.566406C75.3174 0.566406 75.6832 0.661314 76.0165 0.851129C76.3452 1.03631 76.6091 1.28631 76.8082 1.60113C77.0026 1.91594 77.0998 2.2678 77.0998 2.65669C77.0998 2.8928 77.0628 3.1127 76.9887 3.31641C76.9146 3.51548 76.8128 3.69604 76.6832 3.85807H79.0859V4.94835ZM76.1345 2.78863C76.1345 2.56641 76.079 2.36733 75.9679 2.19141C75.8568 2.01085 75.7109 1.86733 75.5304 1.76085C75.3452 1.65437 75.1415 1.60113 74.9193 1.60113C74.697 1.60113 74.4957 1.65437 74.3151 1.76085C74.1299 1.86733 73.9818 2.01085 73.8707 2.19141C73.7595 2.36733 73.704 2.56409 73.704 2.78169C73.704 3.00391 73.7595 3.2053 73.8707 3.38585C73.9818 3.56178 74.1299 3.70298 74.3151 3.80946C74.4957 3.91594 74.697 3.96919 74.9193 3.96919C75.1415 3.96919 75.3452 3.91594 75.5304 3.80946C75.7109 3.70298 75.8568 3.56178 75.9679 3.38585C76.079 3.2053 76.1345 3.00622 76.1345 2.78863Z" fill="black"/>
<path opacity="0.6" d="M57 9H57.5V8.5H57V9ZM49 9V8.5H48.5V9H49ZM56.5 9V41H57.5V9H56.5ZM49.5 41V9H48.5V41H49.5ZM49 9.5H57V8.5H49V9.5Z" fill="#A5A5A5"/>
<path opacity="0.6" d="M41 9V8.5H40.5V9H41ZM41.5 41V9H40.5V41H41.5ZM41 9.5H49V8.5H41V9.5Z" fill="#A5A5A5"/>
<path opacity="0.6" d="M33 9V8.5H32.5V9H33ZM33.5 41V9H32.5V41H33.5ZM33 9.5H41V8.5H33V9.5Z" fill="#A5A5A5"/>
<path opacity="0.6" d="M25 9V8.5H24.5V9H25ZM25.5 41V9H24.5V41H25.5ZM25 9.5H33V8.5H25V9.5Z" fill="#A5A5A5"/>
<path opacity="0.6" d="M17 9V8.5H16.5V9H17ZM25 8.5H24V9.5H25V8.5ZM22 8.5H20V9.5H22V8.5ZM18 8.5H17V9.5H18V8.5ZM16.5 9V10H17.5V9H16.5ZM16.5 12V14H17.5V12H16.5ZM16.5 16V18H17.5V16H16.5ZM16.5 20V22H17.5V20H16.5ZM16.5 24V26H17.5V24H16.5ZM16.5 28V30H17.5V28H16.5ZM16.5 32V34H17.5V32H16.5ZM16.5 36V38H17.5V36H16.5ZM16.5 40V41H17.5V40H16.5Z" fill="#A5A5A5"/>
<path opacity="0.6" d="M9 9V8.5H8.5V9H9ZM17 8.5H16V9.5H17V8.5ZM14 8.5H12V9.5H14V8.5ZM10 8.5H9V9.5H10V8.5ZM8.5 9V10H9.5V9H8.5ZM8.5 12V14H9.5V12H8.5ZM8.5 16V18H9.5V16H8.5ZM8.5 20V22H9.5V20H8.5ZM8.5 24V26H9.5V24H8.5ZM8.5 28V30H9.5V28H8.5ZM8.5 32V34H9.5V32H8.5ZM8.5 36V38H9.5V36H8.5ZM8.5 40V41H9.5V40H8.5Z" fill="#A5A5A5"/>
<path opacity="0.6" d="M1 9V8.5H0.5V9H1ZM9 8.5H8V9.5H9V8.5ZM6 8.5H4V9.5H6V8.5ZM2 8.5H1V9.5H2V8.5ZM0.5 9V10H1.5V9H0.5ZM0.5 12V14H1.5V12H0.5ZM0.5 16V18H1.5V16H0.5ZM0.5 20L0.500001 22H1.5V20H0.5ZM0.500001 24V26H1.5V24H0.500001ZM0.500001 28V30H1.5V28H0.500001ZM0.500001 32V34H1.5V32H0.500001ZM0.500001 36V38H1.5V36H0.500001ZM0.500001 40V41H1.5V40H0.500001Z" fill="#A5A5A5"/>
<path d="M43.6464 22.6467C43.4512 22.842 43.4512 23.1586 43.6464 23.3539L46.8284 26.5358C47.0237 26.7311 47.3403 26.7311 47.5355 26.5358C47.7308 26.3406 47.7308 26.024 47.5355 25.8287L44.7071 23.0003L47.5355 20.1719C47.7308 19.9766 47.7308 19.66 47.5355 19.4648C47.3403 19.2695 47.0237 19.2695 46.8284 19.4648L43.6464 22.6467ZM67 22.5003H44V23.5003H67V22.5003Z" fill="black"/>
</g>
<defs>
<clipPath id="clip0_559_2615">
<rect width="80" height="47" fill="white"/>
</clipPath>
</defs>
</svg>
