<svg width="60" height="85" viewBox="0 0 60 85" fill="none" xmlns="http://www.w3.org/2000/svg">
<g clip-path="url(#clip0_559_2590)">
<path opacity="0.8" d="M1.28906 2.85351L1.28906 1.83268L5.57379 1.83268L5.57379 2.85351L4.01129 2.85351L4.01129 8.08268L2.85156 8.08268L2.85156 2.85351L1.28906 2.85351ZM6.38997 8.08268L6.38997 1.41601L7.48025 1.41601L7.48025 4.29796C7.6284 4.13129 7.80433 4.00629 8.00803 3.92296C8.21173 3.835 8.42701 3.79101 8.65386 3.79101C8.95016 3.79101 9.22562 3.86277 9.48025 4.00629C9.73951 4.14981 9.94785 4.35814 10.1052 4.63129C10.2627 4.89981 10.3414 5.22851 10.3414 5.6174L10.3414 8.08268L9.25109 8.08268L9.25109 5.76324C9.25109 5.50398 9.1747 5.27481 9.02192 5.07574C8.86914 4.87666 8.65155 4.77712 8.36914 4.77712C8.13766 4.77712 7.93164 4.85814 7.75109 5.02018C7.57053 5.17759 7.48025 5.41833 7.48025 5.7424L7.48025 8.08268L6.38997 8.08268ZM11.2894 8.08268L11.2894 3.91601L12.3797 3.91601L12.3797 8.08268L11.2894 8.08268ZM11.8381 3.27712C11.6668 3.27712 11.5209 3.21925 11.4006 3.10351C11.2848 2.98314 11.2269 2.83731 11.2269 2.66601C11.2269 2.49009 11.2848 2.34425 11.4006 2.22851C11.5209 2.11277 11.6668 2.0549 11.8381 2.0549C12.014 2.0549 12.1598 2.11277 12.2756 2.22851C12.3913 2.34425 12.4492 2.49009 12.4492 2.66601C12.4492 2.83731 12.3913 2.98314 12.2756 3.10351C12.1598 3.21925 12.014 3.27712 11.8381 3.27712ZM14.7031 8.20768C14.4393 8.20768 14.1684 8.1637 13.8906 8.07574C13.6129 7.98314 13.3906 7.85351 13.2239 7.68685L13.5017 6.63129C13.6359 6.82574 13.8165 6.9924 14.0434 7.13129C14.2748 7.26555 14.5133 7.33268 14.7586 7.33268C14.9438 7.33268 15.0781 7.29564 15.1614 7.22157C15.2494 7.14287 15.2934 7.04796 15.2934 6.93685C15.2934 6.81185 15.2494 6.72157 15.1614 6.66601C15.0734 6.60583 14.9855 6.55953 14.8975 6.52713L14.3211 6.31185C14.2008 6.26092 14.0596 6.19379 13.8975 6.11046C13.7355 6.0225 13.5943 5.89981 13.4739 5.7424C13.3582 5.58037 13.3003 5.36972 13.3003 5.11046C13.3003 4.87435 13.3582 4.65675 13.4739 4.45768C13.5896 4.25861 13.7563 4.09888 13.9739 3.97851C14.1961 3.85351 14.4623 3.79101 14.7725 3.79101C15.0503 3.79101 15.3142 3.83962 15.5642 3.93685C15.8188 4.02944 16.011 4.14518 16.1406 4.28407L15.8836 5.31185C15.7355 5.10814 15.5572 4.95074 15.3489 4.83963C15.1406 4.72388 14.9392 4.66601 14.7447 4.66601C14.5827 4.66601 14.4623 4.70305 14.3836 4.77713C14.3049 4.84657 14.2656 4.9299 14.2656 5.02713C14.2656 5.1012 14.2934 5.17064 14.3489 5.23546C14.4045 5.30027 14.4947 5.35583 14.6197 5.40213L15.1614 5.61046C15.3049 5.66138 15.4623 5.73314 15.6336 5.82574C15.8049 5.9137 15.9508 6.0387 16.0711 6.20074C16.1961 6.36277 16.2586 6.585 16.2586 6.8674C16.2586 7.26555 16.1128 7.58963 15.8211 7.83963C15.5341 8.085 15.1614 8.20768 14.7031 8.20768ZM20.7591 8.29101L18.6757 3.91601L19.8564 3.91601L20.5507 5.37435C20.6155 5.50398 20.678 5.64055 20.7382 5.78407C20.803 5.92759 20.8655 6.09425 20.9257 6.28407C20.9952 6.09888 21.0623 5.94148 21.1271 5.81185C21.1919 5.67759 21.2568 5.54564 21.3216 5.41601L22.1202 3.76324L22.9396 5.41601C22.9998 5.53638 23.0623 5.6637 23.1271 5.79796C23.1919 5.93222 23.2544 6.09425 23.3146 6.28407C23.3794 6.08037 23.4419 5.91138 23.5021 5.77713C23.5669 5.63824 23.6294 5.50398 23.6896 5.37435L24.3841 3.91601L25.5091 3.91601L23.4257 8.29101L22.5021 6.62435C22.428 6.49009 22.3587 6.35583 22.2938 6.22157C22.229 6.08731 22.1619 5.93916 22.0924 5.77713C22.0276 5.93916 21.9605 6.08731 21.891 6.22157C21.8262 6.35583 21.7544 6.49009 21.6757 6.62435L20.7591 8.29101ZM27.7197 8.1799C27.34 8.1799 26.9928 8.08268 26.6779 7.88824C26.3631 7.68916 26.1108 7.42527 25.921 7.09657C25.7358 6.76324 25.6432 6.3975 25.6432 5.99935C25.6432 5.6012 25.7358 5.23777 25.921 4.90907C26.1108 4.57574 26.3631 4.31185 26.6779 4.1174C26.9928 3.91833 27.34 3.81879 27.7197 3.81879C27.9928 3.81879 28.245 3.8674 28.4765 3.96463C28.708 4.06185 28.9048 4.19842 29.0668 4.37435L29.0668 3.91601L30.0182 3.91601L30.0182 8.08268L29.0668 8.08268L29.0668 7.62435C28.9048 7.79564 28.708 7.93222 28.4765 8.03407C28.245 8.13129 27.9928 8.1799 27.7197 8.1799ZM27.8515 7.21463C28.0737 7.21463 28.2729 7.15907 28.4487 7.04796C28.6293 6.93685 28.7728 6.79101 28.8793 6.61046C28.9858 6.42527 29.039 6.22157 29.039 5.99935C29.039 5.77713 28.9858 5.57574 28.8793 5.39518C28.7728 5.21 28.6293 5.06185 28.4487 4.95074C28.2729 4.83963 28.0761 4.78407 27.8585 4.78407C27.6362 4.78407 27.4348 4.83963 27.2543 4.95074C27.0784 5.06185 26.9373 5.21 26.8307 5.39518C26.7242 5.57574 26.671 5.77713 26.671 5.99935C26.671 6.22157 26.7242 6.42527 26.8307 6.61046C26.9373 6.79101 27.0784 6.93685 27.2543 7.04796C27.4348 7.15907 27.6339 7.21463 27.8515 7.21463ZM30.9231 10.166L32.3051 7.40213L30.5898 3.91601L31.7981 3.91601L32.569 5.51324C32.6385 5.65676 32.7009 5.79101 32.7565 5.91601C32.812 6.04101 32.8606 6.17064 32.9023 6.3049C32.9487 6.17064 32.9996 6.04101 33.0552 5.91601C33.1154 5.79101 33.1824 5.65676 33.2565 5.51324L34.0413 3.91601L35.201 3.91601L32.0968 10.166L30.9231 10.166ZM39.709 8.1799C39.3247 8.1799 38.9752 8.08268 38.6604 7.88824C38.3456 7.68916 38.0933 7.42527 37.9035 7.09657C37.7183 6.76324 37.6257 6.3975 37.6257 5.99935C37.6257 5.6012 37.7183 5.23777 37.9035 4.90907C38.0933 4.57574 38.3456 4.31185 38.6604 4.1174C38.9752 3.91833 39.3247 3.81879 39.709 3.81879C39.945 3.81879 40.1627 3.85583 40.3618 3.9299C40.5655 4.00398 40.7484 4.10583 40.9104 4.23546L40.9104 1.41601L42.0007 1.41601L42.0007 8.08268L41.0493 8.08268L41.0493 7.63824C40.8873 7.8049 40.6904 7.93685 40.459 8.03407C40.2276 8.13129 39.9776 8.1799 39.709 8.1799ZM39.834 7.21463C40.0563 7.21463 40.2553 7.15907 40.4313 7.04796C40.6118 6.93685 40.7553 6.79102 40.8618 6.61046C40.9683 6.42527 41.0215 6.22157 41.0215 5.99935C41.0215 5.77713 40.9683 5.57574 40.8618 5.39518C40.7553 5.21 40.6118 5.06185 40.4313 4.95074C40.2553 4.83963 40.0586 4.78407 39.841 4.78407C39.6188 4.78407 39.4174 4.83963 39.2368 4.95074C39.0609 5.06185 38.9197 5.21 38.8132 5.39518C38.7067 5.57574 38.6535 5.77713 38.6535 5.99935C38.6535 6.22157 38.7067 6.42527 38.8132 6.61046C38.9197 6.79101 39.0609 6.93685 39.2368 7.04796C39.4174 7.15907 39.6163 7.21463 39.834 7.21463ZM45.0376 8.20768C44.6256 8.20768 44.2482 8.10814 43.9056 7.90907C43.5677 7.71 43.2992 7.44379 43.1001 7.11046C42.901 6.77713 42.8015 6.40676 42.8015 5.99935C42.8015 5.59194 42.901 5.22157 43.1001 4.88824C43.2992 4.5549 43.5677 4.2887 43.9056 4.08963C44.2482 3.89055 44.6232 3.79102 45.0306 3.79102C45.4473 3.79102 45.8246 3.89055 46.1626 4.08963C46.5006 4.2887 46.7691 4.5549 46.9681 4.88824C47.1719 5.21694 47.2737 5.58731 47.2737 5.99935C47.2737 6.40213 47.1719 6.7725 46.9681 7.11046C46.7691 7.44379 46.5006 7.71 46.1626 7.90907C45.8246 8.10814 45.4496 8.20768 45.0376 8.20768ZM45.0306 7.22157C45.2575 7.22157 45.4612 7.16602 45.6418 7.0549C45.8223 6.94379 45.9658 6.79564 46.0723 6.61046C46.1787 6.42527 46.232 6.22157 46.232 5.99935C46.232 5.7725 46.1787 5.56879 46.0723 5.38824C45.9658 5.20305 45.8223 5.0549 45.6418 4.94379C45.4612 4.83268 45.2575 4.77713 45.0306 4.77713C44.8084 4.77713 44.607 4.83268 44.4265 4.94379C44.2459 5.0549 44.1023 5.20305 43.9958 5.38824C43.8894 5.56879 43.8362 5.7725 43.8362 5.99935C43.8362 6.22157 43.8894 6.42527 43.9958 6.61046C44.1023 6.79564 44.2459 6.94379 44.4265 7.0549C44.607 7.16602 44.8084 7.22157 45.0306 7.22157ZM49.558 8.29102L47.4747 3.91602L48.6552 3.91602L49.3497 5.37435C49.4145 5.50398 49.477 5.64055 49.5372 5.78407C49.602 5.92759 49.6645 6.09426 49.7247 6.28407C49.7941 6.09889 49.8612 5.94148 49.926 5.81185C49.9909 5.67759 50.0557 5.54565 50.1205 5.41602L50.9191 3.76324L51.7385 5.41602C51.7987 5.53639 51.8612 5.6637 51.926 5.79796C51.9909 5.93222 52.0534 6.09426 52.1135 6.28407C52.1784 6.08037 52.2409 5.91139 52.301 5.77713C52.3659 5.63824 52.4284 5.50398 52.4885 5.37435L53.183 3.91602L54.308 3.91602L52.2247 8.29102L51.301 6.62435C51.227 6.49009 51.1575 6.35583 51.0927 6.22157C51.0279 6.08731 50.9608 5.93916 50.8913 5.77713C50.8265 5.93916 50.7593 6.08731 50.6898 6.22157C50.625 6.35583 50.5534 6.49009 50.4747 6.62435L49.558 8.29102ZM54.8764 8.08268L54.8764 3.91602L55.8554 3.91602L55.8554 4.4299C56.0083 4.22157 56.1958 4.06416 56.4179 3.95768C56.6401 3.84657 56.881 3.79102 57.1402 3.79102C57.4365 3.79102 57.712 3.86277 57.9666 4.00629C58.2259 4.14981 58.4342 4.35815 58.5916 4.63129C58.749 4.89981 58.8277 5.22852 58.8277 5.6174L58.8277 8.08268L57.7374 8.08268L57.7374 5.76324C57.7374 5.50398 57.6611 5.27481 57.5083 5.07574C57.3554 4.87666 57.1378 4.77713 56.8554 4.77713C56.624 4.77713 56.4179 4.85815 56.2374 5.02018C56.0569 5.17759 55.9666 5.41833 55.9666 5.7424L55.9666 8.08268L54.8764 8.08268Z" fill="black"/>
<path opacity="0.6" d="M15.5 27.5L15.5 27L15 27L15 27.5L15.5 27.5ZM15.5 35.5L15 35.5L15 36L15.5 36L15.5 35.5ZM15.5 28L47.5 28L47.5 27L15.5 27L15.5 28ZM47.5 35L15.5 35L15.5 36L47.5 36L47.5 35ZM16 35.5L16 27.5L15 27.5L15 35.5L16 35.5Z" fill="#A5A5A5"/>
<path opacity="0.6" d="M15.5 43.5L15 43.5L15 44L15.5 44L15.5 43.5ZM47.5 43L15.5 43L15.5 44L47.5 44L47.5 43ZM16 43.5L16 35.5L15 35.5L15 43.5L16 43.5Z" fill="#A5A5A5"/>
<path opacity="0.6" d="M15.5 51.5L15 51.5L15 52L15.5 52L15.5 51.5ZM47.5 51L15.5 51L15.5 52L47.5 52L47.5 51ZM16 51.5L16 43.5L15 43.5L15 51.5L16 51.5Z" fill="#A5A5A5"/>
<path opacity="0.6" d="M15.5 59.5L15 59.5L15 60L15.5 60L15.5 59.5ZM47.5 59L15.5 59L15.5 60L47.5 60L47.5 59ZM16 59.5L16 51.5L15 51.5L15 59.5L16 59.5Z" fill="#A5A5A5"/>
<path opacity="0.6" d="M15.5 67.5L15 67.5L15 68L15.5 68L15.5 67.5ZM15 59.5L15 60.5L16 60.5L16 59.5L15 59.5ZM15 62.5L15 64.5L16 64.5L16 62.5L15 62.5ZM15 66.5L15 67.5L16 67.5L16 66.5L15 66.5ZM15.5 68L16.5 68L16.5 67L15.5 67L15.5 68ZM18.5 68L20.5 68L20.5 67L18.5 67L18.5 68ZM22.5 68L24.5 68L24.5 67L22.5 67L22.5 68ZM26.5 68L28.5 68L28.5 67L26.5 67L26.5 68ZM30.5 68L32.5 68L32.5 67L30.5 67L30.5 68ZM34.5 68L36.5 68L36.5 67L34.5 67L34.5 68ZM38.5 68L40.5 68L40.5 67L38.5 67L38.5 68ZM42.5 68L44.5 68L44.5 67L42.5 67L42.5 68ZM46.5 68L47.5 68L47.5 67L46.5 67L46.5 68Z" fill="#A5A5A5"/>
<path opacity="0.6" d="M15.5 75.5L15 75.5L15 76L15.5 76L15.5 75.5ZM15 67.5L15 68.5L16 68.5L16 67.5L15 67.5ZM15 70.5L15 72.5L16 72.5L16 70.5L15 70.5ZM15 74.5L15 75.5L16 75.5L16 74.5L15 74.5ZM15.5 76L16.5 76L16.5 75L15.5 75L15.5 76ZM18.5 76L20.5 76L20.5 75L18.5 75L18.5 76ZM22.5 76L24.5 76L24.5 75L22.5 75L22.5 76ZM26.5 76L28.5 76L28.5 75L26.5 75L26.5 76ZM30.5 76L32.5 76L32.5 75L30.5 75L30.5 76ZM34.5 76L36.5 76L36.5 75L34.5 75L34.5 76ZM38.5 76L40.5 76L40.5 75L38.5 75L38.5 76ZM42.5 76L44.5 76L44.5 75L42.5 75L42.5 76ZM46.5 76L47.5 76L47.5 75L46.5 75L46.5 76Z" fill="#A5A5A5"/>
<path opacity="0.6" d="M15.5 83.5L15 83.5L15 84L15.5 84L15.5 83.5ZM15 75.5L15 76.5L16 76.5L16 75.5L15 75.5ZM15 78.5L15 80.5L16 80.5L16 78.5L15 78.5ZM15 82.5L15 83.5L16 83.5L16 82.5L15 82.5ZM15.5 84L16.5 84L16.5 83L15.5 83L15.5 84ZM18.5 84L20.5 84L20.5 83L18.5 83L18.5 84ZM22.5 84L24.5 84L24.5 83L22.5 83L22.5 84ZM26.5 84L28.5 84L28.5 83L26.5 83L26.5 84ZM30.5 84L32.5 84L32.5 83L30.5 83L30.5 84ZM34.5 84L36.5 84L36.5 83L34.5 83L34.5 84ZM38.5 84L40.5 84L40.5 83L38.5 83L38.5 84ZM42.5 84L44.5 84L44.5 83L42.5 83L42.5 84ZM46.5 84L47.5 84L47.5 83L46.5 83L46.5 84Z" fill="#A5A5A5"/>
<path d="M29.1441 40.8536C29.3394 41.0488 29.656 41.0488 29.8513 40.8536L33.0332 37.6716C33.2285 37.4763 33.2285 37.1597 33.0332 36.9645C32.838 36.7692 32.5214 36.7692 32.3261 36.9645L29.4977 39.7929L26.6693 36.9645C26.474 36.7692 26.1574 36.7692 25.9622 36.9645C25.7669 37.1597 25.7669 37.4763 25.9622 37.6716L29.1441 40.8536ZM28.9977 17.5L28.9977 40.5L29.9977 40.5L29.9977 17.5L28.9977 17.5Z" fill="black"/>
</g>
<defs>
<clipPath id="clip0_559_2590">
<rect width="84" height="59" fill="white" transform="translate(59.5 0.5) rotate(90)"/>
</clipPath>
</defs>
</svg>
