<svg width="32" height="33" viewBox="0 0 32 33" fill="none" xmlns="http://www.w3.org/2000/svg">
<path d="M2.67188 6.10156C2.67188 4.99699 3.56731 4.10156 4.67187 4.10156H27.3385C28.4431 4.10156 29.3385 4.99699 29.3385 6.10156V7.43489C29.3385 8.53946 28.4431 9.4349 27.3385 9.4349H4.67187C3.5673 9.4349 2.67188 8.53947 2.67188 7.4349V6.10156ZM25.3385 10.7682H4.00521V25.4349C4.00521 26.1421 4.28616 26.8204 4.78626 27.3205C5.28635 27.8206 5.96463 28.1016 6.67188 28.1016H25.3385C26.0458 28.1016 26.7241 27.8206 27.2242 27.3205C27.7243 26.8204 28.0052 26.1421 28.0052 25.4349V10.7682H25.3385ZM21.3385 17.4349C21.3385 18.1713 20.7416 18.7682 20.0052 18.7682H12.0052C11.2688 18.7682 10.6719 18.1713 10.6719 17.4349C10.6719 16.6985 11.2688 16.1016 12.0052 16.1016H20.0052C20.7416 16.1016 21.3385 16.6985 21.3385 17.4349Z" fill="#FF8A34"/>
</svg>
