<svg width="22" height="23" viewBox="0 0 22 23" fill="none" xmlns="http://www.w3.org/2000/svg">
<path d="M10.8333 0.699219C10.5972 0.699219 10.3653 0.701386 10.1378 0.704636L9.4705 0.723052L9.14658 0.737136L8.51933 0.773969L7.92025 0.823802C2.7365 1.32647 0.62725 3.43572 0.124583 8.61947L0.07475 9.21855L0.0379168 9.8458C0.0325001 9.95197 0.0270834 10.0603 0.0238334 10.1697L0.00541679 10.8371L0.00108325 11.1816L0 11.5326C0 11.7687 0.00216679 12.0006 0.00541679 12.2281L0.0238334 12.8954L0.0379168 13.2193L0.07475 13.8466L0.124583 14.4456C0.62725 19.6294 2.7365 21.7386 7.92025 22.2413L8.51933 22.2911L9.14658 22.328C9.25275 22.3334 9.36108 22.3388 9.4705 22.3421L10.1378 22.3605L10.8333 22.3659L11.5288 22.3605L12.1962 22.3421L12.5201 22.328L13.1473 22.2911L13.7464 22.2413C18.9302 21.7386 21.0394 19.6294 21.5421 14.4456L21.5919 13.8466L21.6288 13.2193C21.6342 13.1131 21.6396 13.0048 21.6428 12.8954L21.6613 12.2281L21.6667 11.5326L21.6613 10.8371L21.6428 10.1697L21.6288 9.8458L21.5919 9.21855L21.5421 8.61947C21.0394 3.43572 18.9302 1.32647 13.7464 0.823802L13.1473 0.773969L12.5201 0.737136C12.4121 0.731865 12.3042 0.727171 12.1962 0.723052L11.5288 0.704636L11.1843 0.700302L10.8333 0.699219ZM13.3174 8.59997C13.5124 8.40568 13.774 8.29287 14.0491 8.28447C14.3242 8.27607 14.5922 8.3727 14.7986 8.55474C15.0051 8.73677 15.1345 8.99057 15.1606 9.26457C15.1867 9.53857 15.1075 9.81223 14.9392 10.03L14.8492 10.1318L10.5159 14.4651C10.3294 14.6517 10.0812 14.7637 9.81791 14.7803C9.55463 14.7968 9.29435 14.7167 9.08592 14.5551L8.98408 14.4651L6.81742 12.2985C6.62312 12.1035 6.51032 11.8419 6.50192 11.5668C6.49352 11.2917 6.59015 11.0237 6.77219 10.8173C6.95422 10.6108 7.20801 10.4814 7.48201 10.4553C7.75601 10.4292 8.02968 10.5084 8.24742 10.6767L8.34925 10.7666L9.75 12.1663L13.3174 8.59997Z" fill="#FF8A34"/>
</svg>
