<svg width="32" height="33" viewBox="0 0 32 33" fill="none" xmlns="http://www.w3.org/2000/svg">
<path d="M12.2787 1.24219C12.5231 2.44 12.222 3.60556 11.3587 4.71094C10.3679 5.97981 8.59793 7.13906 6.05806 7.91019C3.88056 8.57125 2.40831 9.73538 1.62056 11.0938C0.832681 12.4521 0.744306 13.9915 1.26306 15.3125C2.18956 17.6714 5.03806 19.245 8.84306 18.2774C9.64824 18.0241 10.5599 17.6524 11.2787 17.2031C11.4281 17.1101 11.5728 17.0097 11.7123 16.9023C11.4659 16.6719 11.2675 16.3951 11.1283 16.0879C10.3128 16.5908 9.26937 17.1024 7.90756 17.2989C4.91168 17.8591 3.00149 16.5483 2.34893 14.8868C1.95787 13.8911 2.01306 12.7438 2.63018 11.6798C3.24731 10.6157 4.44281 9.621 6.39768 9.02738C9.10287 8.20613 11.0881 6.95425 12.2786 5.42975C13.2642 4.16762 13.6786 2.69837 13.4602 1.24225L12.2787 1.24219ZM13.3939 10.7091C13.3447 10.7091 13.2947 10.7091 13.2454 10.7109C12.5289 10.7369 11.8061 10.9348 11.1419 11.3184C9.49049 12.2717 8.69781 14.0787 9.00131 15.8341C9.76443 15.5657 10.3824 15.1919 10.9329 14.8243C11.0216 14.1319 11.4286 13.4949 12.1029 13.1055C12.499 12.8767 12.9332 12.764 13.3607 12.7618C14.1766 12.7574 14.9649 13.1557 15.4017 13.9121C16.0672 15.0646 15.6558 16.598 14.5032 17.2636C13.968 17.5727 13.3711 17.638 12.8176 17.5039C12.5409 17.7589 12.226 17.9881 11.8976 18.1933C11.5672 18.3999 11.2152 18.5864 10.8567 18.7539C11.8048 19.4214 12.9798 19.702 14.1223 19.5117H14.1242L18.6477 27.3496C19.7271 29.2188 21.3058 30.3625 22.9466 30.7537C24.5872 31.145 26.2429 30.8263 27.5872 30.0019C30.276 28.3531 31.7347 24.5322 29.6829 20.9784L28.6497 19.1874L28.6399 19.1699C27.414 16.9179 25.8246 15.3884 23.9309 14.4648C24.7296 17.3345 25.0184 20.2043 24.9368 23.0741L26.7298 20.9491L27.0364 20.7616L27.6927 21.8966C29.0649 24.2731 27.9173 26.4413 26.3724 27.3887C24.1409 28.4222 22.462 28.1398 21.0834 25.9434L16.5971 18.1699C17.8921 16.7683 18.2034 14.6041 17.2084 12.8808C16.3959 11.4735 14.9186 10.7038 13.394 10.7089L13.3939 10.7091Z" fill="#FF8A34"/>
</svg>
