<svg width="38" height="25" viewBox="0 0 38 25" fill="none" xmlns="http://www.w3.org/2000/svg">
<path d="M35.6684 12.5073C35.9626 12.5074 36.2515 12.5853 36.5058 12.7331C36.7602 12.881 36.9708 13.0935 37.1164 13.3492C37.262 13.6048 37.3373 13.8944 37.3347 14.1885C37.3322 14.4827 37.2518 14.7709 37.1018 15.024L33.4318 21.2057C32.8108 22.1212 31.9748 22.8705 30.9971 23.388C30.0194 23.9055 28.9297 24.1753 27.8234 24.174H2.3351C2.0747 24.1741 1.81791 24.1131 1.58531 23.996C1.35272 23.879 1.15079 23.709 0.995723 23.4998C0.840654 23.2906 0.736758 23.048 0.692366 22.7914C0.647974 22.5349 0.664322 22.2714 0.740097 22.0223L3.2751 13.689C3.37911 13.347 3.59029 13.0476 3.87749 12.8348C4.16468 12.622 4.51267 12.5072 4.8701 12.5073H35.6684ZM30.6684 14.174C30.2264 14.174 29.8025 14.3496 29.4899 14.6621C29.1774 14.9747 29.0018 15.3986 29.0018 15.8407C29.0018 16.2827 29.1774 16.7066 29.4899 17.0192C29.8025 17.3317 30.2264 17.5073 30.6684 17.5073C31.1105 17.5073 31.5344 17.3317 31.8469 17.0192C32.1595 16.7066 32.3351 16.2827 32.3351 15.8407C32.3351 15.3986 32.1595 14.9747 31.8469 14.6621C31.5344 14.3496 31.1105 14.174 30.6684 14.174ZM22.1584 1.76232L23.3634 4.17399H24.8201C25.1116 4.17407 25.398 4.2506 25.6507 4.39595C25.9033 4.5413 26.1135 4.75038 26.2601 5.00232L29.6551 10.8407H8.26843L9.8901 5.36732C9.99211 5.02292 10.2027 4.72068 10.4904 4.50565C10.7781 4.29061 11.1276 4.17428 11.4868 4.17399H19.6368L19.1784 3.25232C18.9968 2.85913 18.9754 2.41069 19.1187 2.00197C19.262 1.59325 19.5587 1.25637 19.9461 1.06268C20.3335 0.868983 20.7811 0.833697 21.194 0.964292C21.607 1.09489 21.9529 1.38111 22.1584 1.76232Z" fill="#FF8A34"/>
</svg>
