<svg width="2029" height="2918" viewBox="0 0 2029 2918" fill="none" xmlns="http://www.w3.org/2000/svg">
<path d="M1204.69 1C1204.69 1 1284.69 119 1491.69 154C1698.69 189 2086.19 112 2020.19 718.5C1954.19 1325 977.839 708.844 801.194 1266C727.11 1499.67 1121.19 1549.5 1121.19 1983.5C1121.19 2417.5 267.193 2485 267.193 2485C114.027 2502.33 -135.207 2613 93.1934 2917" stroke="#89B9FF" stroke-linecap="round" stroke-dasharray="12 10"/>
<path opacity="0.1" d="M1709.31 157.275L1708.26 162.357C1708.13 162.974 1708.17 163.624 1708.38 164.225L1708.7 165.163L1707.45 171.982C1707.01 172.054 1706.66 172.288 1706.5 172.593C1704.43 172.459 1702.17 172.402 1699.72 172.463C1694.62 172.573 1689.58 173.663 1686.63 174.384C1683.68 175.105 1683.26 175.326 1682.95 175.743C1682.79 175.96 1682.72 176.415 1682.68 176.797C1682.64 177.209 1682.64 177.778 1682.78 178.064C1683 178.53 1683.39 178.816 1686.18 180.002C1688.97 181.2 1693.75 183.084 1698.77 184.027C1701.03 184.452 1703.13 184.743 1705.08 184.949L1703.59 193.064C1703.22 193.153 1702.57 193.319 1702.22 193.57C1701.68 193.947 1700.92 199.94 1700.92 199.94C1700.92 199.94 1700.92 201.174 1701.79 201.7C1702.01 201.828 1702.22 201.872 1702.42 201.854C1702.61 201.836 1702.78 201.769 1702.93 201.682C1703.08 201.596 1703.2 201.494 1703.28 201.419C1703.37 201.343 1703.41 201.283 1703.41 201.283L1704.46 196.2C1704.52 195.892 1704.54 195.573 1704.53 195.252C1704.5 194.935 1704.44 194.633 1704.34 194.332L1704.08 193.555L1705.59 185.259C1705.81 185.558 1706.2 185.79 1706.67 185.834C1707.28 185.879 1707.8 185.607 1708 185.188C1707.9 185.184 1707.8 185.181 1707.71 185.172C1707.53 185.428 1707.14 185.581 1706.7 185.552C1706.26 185.523 1705.91 185.306 1705.76 185.025C1707.87 185.223 1709.81 185.309 1711.52 185.297C1714.96 185.263 1721.54 185.005 1727.25 183.38L1730.63 182.338C1730.63 182.338 1731.73 181.983 1731.8 180.976C1731.8 180.963 1731.79 180.939 1731.78 180.926C1731.78 180.914 1731.8 180.892 1731.81 180.875C1731.89 179.851 1730.87 179.327 1730.87 179.327L1727.7 177.75C1722.31 175.223 1715.88 173.88 1712.48 173.301C1711.1 173.059 1709.55 172.867 1707.86 172.715L1707.94 172.289C1708.29 172.363 1708.58 172.55 1708.7 172.787C1708.8 172.79 1708.89 172.811 1708.99 172.814C1708.87 172.423 1708.5 172.115 1707.98 172.002L1709.17 165.462C1709.48 165.384 1709.9 165.263 1710.24 165.105C1710.32 165.071 1710.4 165.013 1710.46 164.977C1710.53 164.936 1710.6 164.794 1710.66 164.599C1710.7 164.501 1710.74 164.386 1710.77 164.259C1711.03 163.351 1711.29 161.791 1711.48 160.527C1711.64 159.457 1711.74 158.612 1711.74 158.612C1711.74 158.612 1711.74 157.846 1711.3 157.265C1711.19 157.112 1711.05 156.969 1710.87 156.851C1710 156.325 1709.25 157.269 1709.25 157.269L1709.31 157.275ZM1730.21 179.711C1730.74 179.832 1731.12 180.306 1731.07 180.865C1731.03 181.419 1730.57 181.822 1730.03 181.848C1730.08 181.858 1730.13 181.881 1730.18 181.891C1730.12 181.886 1730.07 181.863 1730.01 181.841C1730.23 181.546 1730.37 181.192 1730.4 180.797C1730.43 180.402 1730.35 180.039 1730.19 179.703C1730.19 179.703 1730.19 179.703 1730.2 179.699L1730.21 179.711ZM1710.95 173.217L1710.89 173.567C1710.71 173.55 1710.53 173.534 1710.36 173.53C1710.48 173.369 1710.7 173.271 1710.95 173.217Z" fill="#F36F0D"/>
<path d="M1704.92 170.148C1699.82 170.258 1694.79 171.348 1691.84 172.069C1688.89 172.79 1688.46 173.011 1688.16 173.428C1688 173.644 1687.92 174.1 1687.89 174.482C1687.85 174.894 1687.84 175.463 1687.98 175.749C1688.2 176.215 1688.6 176.501 1691.38 177.687C1694.17 178.885 1698.96 180.768 1703.97 181.712C1708.99 182.656 1713.29 183.011 1716.73 182.977C1720.18 182.943 1726.75 182.685 1732.47 181.06L1735.85 180.018C1735.85 180.018 1736.94 179.663 1737.03 178.651C1737.03 178.639 1737.02 178.614 1737.01 178.602C1737.01 178.589 1737.03 178.568 1737.04 178.55C1737.12 177.526 1736.1 177.003 1736.1 177.003L1732.93 175.425C1727.54 172.898 1721.11 171.555 1717.71 170.976C1714.31 170.385 1710.02 170.038 1704.91 170.153L1704.92 170.148ZM1735.41 177.396C1735.94 177.516 1736.32 177.991 1736.27 178.55C1736.23 179.104 1735.78 179.507 1735.24 179.533C1735.28 179.543 1735.33 179.566 1735.38 179.576C1735.32 179.571 1735.27 179.548 1735.22 179.526C1735.43 179.231 1735.58 178.877 1735.61 178.482C1735.64 178.087 1735.55 177.723 1735.4 177.388C1735.45 177.381 1735.5 177.362 1735.56 177.368C1735.5 177.362 1735.46 177.377 1735.41 177.383L1735.41 177.396Z" fill="#F36F0D"/>
<path d="M1704.28 170.937C1700.75 171.017 1700.83 173.991 1700.83 173.991L1700.74 175.133L1700.65 176.116L1700.56 177.258C1700.56 177.258 1699.99 180.183 1703.46 180.834C1706.93 181.485 1709.49 182.092 1713.5 182.236C1717.51 182.379 1722.62 182.08 1722.62 182.08L1724.27 181.849C1724.27 181.849 1726.02 181.852 1726.18 179.862C1726.2 179.756 1726.2 179.656 1726.2 179.543C1726.35 177.67 1726.5 175.898 1726.5 175.898C1726.5 175.798 1726.52 175.692 1726.52 175.58C1726.68 173.602 1724.95 173.309 1724.95 173.309L1723.36 172.822C1723.36 172.822 1718.37 171.685 1714.39 171.176C1710.41 170.668 1707.79 170.85 1704.26 170.929L1704.28 170.937Z" fill="#F36F0D"/>
<path d="M1704.28 170.937C1700.75 171.017 1700.83 173.991 1700.83 173.991L1700.74 175.133L1700.65 176.116L1700.56 177.258C1700.56 177.258 1699.99 180.183 1703.46 180.834C1706.93 181.485 1709.49 182.092 1713.5 182.236C1717.51 182.379 1722.62 182.08 1722.62 182.08L1724.27 181.849C1724.27 181.849 1726.02 181.852 1726.18 179.862C1726.18 179.761 1726.2 179.656 1726.2 179.543C1726.35 177.67 1726.5 175.898 1726.5 175.898C1726.5 175.798 1726.52 175.692 1726.52 175.58C1726.68 173.602 1724.95 173.309 1724.95 173.309L1723.36 172.822C1723.36 172.822 1718.37 171.685 1714.39 171.176C1710.41 170.668 1707.79 170.85 1704.26 170.929L1704.28 170.937ZM1714.31 171.745C1717.89 172.198 1722.37 173.222 1722.37 173.222L1723.8 173.658C1723.8 173.658 1725.34 173.909 1725.2 175.694C1725.19 175.782 1725.19 175.883 1725.18 175.971C1725.18 175.971 1725.05 177.566 1724.91 179.25C1724.9 179.339 1724.9 179.439 1724.89 179.527C1724.75 181.312 1723.19 181.308 1723.19 181.308L1721.71 181.514C1721.71 181.514 1717.12 181.792 1713.52 181.662C1709.91 181.532 1707.61 180.979 1704.5 180.403C1701.38 179.827 1701.89 177.193 1701.89 177.193L1701.97 176.168L1702.04 175.291L1702.13 174.266C1702.13 174.266 1702.05 171.589 1705.22 171.523C1708.38 171.457 1710.74 171.292 1714.31 171.745Z" fill="white"/>
<path d="M1706.35 172.217C1703.61 172.275 1703.68 174.584 1703.68 174.584L1703.62 175.474L1703.56 176.234L1703.49 177.124C1703.49 177.124 1703.06 179.391 1705.74 179.891C1708.43 180.392 1710.42 180.868 1713.53 180.976C1716.65 181.083 1720.61 180.849 1720.61 180.849L1721.89 180.677C1721.89 180.677 1723.24 180.679 1723.36 179.142C1723.37 179.054 1723.37 178.983 1723.38 178.894C1723.5 177.446 1723.62 176.068 1723.62 176.068C1723.62 175.98 1723.63 175.909 1723.63 175.821C1723.76 174.284 1722.43 174.064 1722.43 174.064L1721.19 173.681C1721.19 173.681 1717.32 172.803 1714.23 172.402C1711.14 172 1709.1 172.154 1706.36 172.212L1706.35 172.217Z" fill="white"/>
<path d="M1723.6 175.702C1723.61 175.442 1723.57 175.219 1723.51 175.029L1703.97 173.433C1703.85 173.665 1703.78 173.878 1703.74 174.076L1723.6 175.702Z" fill="#F36F0D"/>
<path d="M1723.11 179.918C1723.2 179.743 1723.28 179.53 1723.32 179.273L1703.46 177.647C1703.46 177.843 1703.49 178.072 1703.59 178.318L1723.13 179.913L1723.11 179.918Z" fill="#F36F0D"/>
<path d="M1712.94 182.864C1712.75 183.12 1712.36 183.273 1711.92 183.244C1711.48 183.215 1711.13 182.998 1710.98 182.717C1710.88 182.713 1710.77 182.697 1710.68 182.689C1710.83 183.13 1711.29 183.475 1711.91 183.533C1712.52 183.579 1713.04 183.307 1713.24 182.887C1713.14 182.883 1713.04 182.88 1712.95 182.872L1712.94 182.864Z" fill="#F36F0D"/>
<path d="M1713.95 170.471C1713.81 170.185 1713.44 169.973 1713 169.932C1712.56 169.903 1712.18 170.051 1711.99 170.295C1711.89 170.291 1711.79 170.288 1711.69 170.272C1711.9 169.864 1712.42 169.592 1713.03 169.638C1713.64 169.683 1714.11 170.054 1714.24 170.487C1714.14 170.483 1714.04 170.463 1713.94 170.459L1713.95 170.471Z" fill="#F36F0D"/>
<path d="M1714.51 154.944C1714.51 154.944 1715.26 154.013 1716.13 154.527C1717 155.053 1717 156.287 1717 156.287C1717 156.287 1716.23 162.279 1715.7 162.657C1715.17 163.034 1714.01 163.241 1714.01 163.241L1713.55 161.904C1713.35 161.303 1713.31 160.653 1713.44 160.036L1714.48 154.954L1714.51 154.944Z" fill="#F36F0D"/>
<path d="M1716.85 156.063C1716.85 156.063 1716.09 162.055 1715.56 162.433C1715.1 162.752 1714.19 162.951 1713.93 162.993L1714.02 163.227C1714.02 163.227 1715.16 163.025 1715.7 162.647C1716.23 162.27 1716.99 156.278 1716.99 156.278C1716.99 156.278 1716.99 155.512 1716.56 154.931C1716.84 155.474 1716.85 156.05 1716.85 156.05L1716.85 156.063Z" fill="black"/>
<path d="M1712.7 172.227C1712.56 172.166 1712.39 172.12 1712.2 172.079L1708.69 191.384C1708.66 191.553 1708.77 191.694 1708.92 191.72C1709.07 191.746 1709.23 191.642 1709.25 191.49L1712.76 172.244C1712.76 172.244 1712.72 172.246 1712.7 172.227Z" fill="#F36F0D"/>
<path d="M1713.9 162.762L1712.45 170.737C1712.65 170.786 1712.84 170.839 1713.01 170.914L1714.48 162.863C1714.48 162.863 1714.47 162.851 1714.48 162.834C1714.49 162.687 1714.39 162.558 1714.25 162.527C1714.1 162.501 1713.94 162.605 1713.91 162.757L1713.9 162.762Z" fill="#F36F0D"/>
<path d="M1708.63 198.973C1708.63 198.973 1707.87 199.905 1707.01 199.391C1706.14 198.865 1706.14 197.631 1706.14 197.631C1706.14 197.631 1706.9 191.638 1707.44 191.261C1707.97 190.884 1709.12 190.677 1709.12 190.677L1709.59 192.014C1709.79 192.614 1709.83 193.265 1709.7 193.882L1708.66 198.964L1708.63 198.973Z" fill="#F36F0D"/>
<path d="M1709.32 191.793C1709.52 192.394 1709.56 193.044 1709.43 193.661L1708.39 198.743C1708.39 198.743 1707.63 199.675 1706.76 199.161C1706.73 199.134 1706.7 199.101 1706.66 199.086C1706.77 199.203 1706.88 199.314 1707.03 199.399C1707.9 199.926 1708.65 198.981 1708.65 198.981L1709.69 193.899C1709.82 193.282 1709.78 192.632 1709.58 192.031L1709.12 190.695C1709.12 190.695 1709.05 190.719 1708.95 190.732L1709.31 191.81L1709.32 191.793Z" fill="black"/>
</svg>
