<svg width="1910" height="8807" viewBox="0 0 1910 8807" fill="none" xmlns="http://www.w3.org/2000/svg">
<path d="M1602.87 8806.5C1801.87 7805 1049.87 8322 451.871 8160.5C-146.129 7999 -227.126 6629 687.871 6730.5C1602.87 6832 1429.37 6026.5 1024.87 5972C620.367 5917.5 -97.6304 6219.5 53.8696 5549C205.37 4878.5 713.214 5346.53 904.369 5220C1095.52 5093.47 669.285 4986.5 904.369 4685C1139.45 4383.5 1600.87 4852.5 1713.37 4531C1825.87 4209.5 1567.21 4115.71 1413.37 4137C1259.53 4158.29 868.369 4277 821.369 4070C774.369 3863 1225.89 3931 1242.37 3595.5C1258.85 3260 858.369 3332.5 690.369 3371.5C319.358 3457.63 15.3688 3024 242.369 2629.5C469.369 2235 814.87 2695 1062.87 2568C1310.87 2441 1850.49 2909 1905.18 2309C1959.87 1709 1426.37 1893.5 1057.87 1893.5C689.37 1893.5 864.369 1458.05 1322.87 1615C1774.14 1769.48 1868.87 1105 1710.87 940C1552.87 775 1309.84 890.809 1118.37 918.5C926.896 946.191 744.019 880.86 775.869 666.5C811.129 443.11 1139.37 464 1185.37 361.5C1231.37 259 1180.87 157.5 1086.04 93.67C991.209 29.84 707.369 54 541.369 1" stroke="#89B9FF" stroke-linecap="round" stroke-dasharray="12 10"/>
<path opacity="0.1" d="M1086.46 113.298L1089.82 109.349C1090.23 108.871 1090.51 108.281 1090.62 107.656L1090.79 106.68L1095.17 101.306C1095.59 101.455 1096.01 101.418 1096.3 101.23C1098.04 102.342 1100 103.482 1102.18 104.612C1106.7 106.974 1111.64 108.444 1114.57 109.234C1117.5 110.025 1117.98 110.035 1118.45 109.818C1118.69 109.704 1118.98 109.342 1119.2 109.024C1119.43 108.682 1119.71 108.186 1119.72 107.869C1119.75 107.353 1119.54 106.912 1117.68 104.531C1115.81 102.137 1112.52 98.1809 1108.59 94.9376C1106.81 93.4748 1105.11 92.2093 1103.5 91.0886L1108.71 84.693C1109.08 84.796 1109.73 84.9618 1110.16 84.9129C1110.81 84.8395 1114.37 79.956 1114.37 79.956C1114.37 79.956 1114.96 78.8761 1114.45 77.9954C1114.32 77.778 1114.16 77.6358 1113.98 77.559C1113.8 77.4822 1113.62 77.4578 1113.45 77.4613C1113.27 77.4648 1113.12 77.498 1113.01 77.5233C1112.9 77.5486 1112.83 77.5792 1112.83 77.5792L1109.47 81.5286C1109.26 81.7678 1109.09 82.0385 1108.95 82.3257C1108.81 82.6146 1108.72 82.9088 1108.67 83.2213L1108.52 84.0279L1103.2 90.5684C1103.15 90.2027 1102.93 89.8125 1102.53 89.5472C1102.02 89.212 1101.43 89.2008 1101.05 89.4697C1101.14 89.5211 1101.22 89.5726 1101.3 89.6224C1101.58 89.4871 1102 89.5429 1102.37 89.7785C1102.74 90.0142 1102.94 90.3747 1102.94 90.6941C1101.18 89.5002 1099.53 88.4939 1098.03 87.6805C1094.99 86.0503 1089.11 83.1075 1083.31 81.7761L1079.85 81.0616C1079.85 81.0616 1078.72 80.8443 1078.17 81.6903C1078.17 81.7034 1078.16 81.7295 1078.16 81.7426C1078.16 81.7557 1078.13 81.7653 1078.12 81.7767C1077.55 82.634 1078.19 83.5862 1078.19 83.5862L1080.21 86.4928C1083.71 91.3039 1088.7 95.5798 1091.4 97.7251C1092.49 98.604 1093.76 99.5186 1095.16 100.466L1094.89 100.803C1094.62 100.566 1094.46 100.265 1094.47 99.9995C1094.38 99.948 1094.31 99.8852 1094.22 99.8337C1094.14 100.236 1094.32 100.687 1094.71 101.032L1090.52 106.191C1090.21 106.11 1089.79 106.013 1089.42 105.99C1089.32 105.978 1089.23 105.992 1089.16 105.996C1089.08 105.999 1088.95 106.088 1088.8 106.228C1088.72 106.297 1088.63 106.379 1088.54 106.473C1087.88 107.144 1086.9 108.387 1086.12 109.403C1085.46 110.261 1084.97 110.955 1084.97 110.955C1084.97 110.955 1084.6 111.625 1084.7 112.345C1084.73 112.536 1084.79 112.73 1084.88 112.915C1085.39 113.796 1086.51 113.332 1086.51 113.332L1086.46 113.298ZM1078.96 83.5678C1078.55 83.2073 1078.45 82.6068 1078.76 82.1424C1079.06 81.6762 1079.65 81.5417 1080.14 81.7799C1080.11 81.7485 1080.07 81.704 1080.04 81.6726C1080.08 81.7057 1080.12 81.7503 1080.15 81.7948C1079.83 81.9511 1079.53 82.1912 1079.31 82.522C1079.09 82.8529 1078.99 83.2125 1078.97 83.5826C1078.97 83.5826 1078.97 83.5826 1078.96 83.5809L1078.96 83.5678ZM1092.7 98.5385L1092.92 98.2617C1093.07 98.3612 1093.22 98.4607 1093.37 98.5471C1093.18 98.6292 1092.94 98.6109 1092.7 98.5385Z" fill="#F36F0D"/>
<path d="M1095.24 107.978C1099.76 110.339 1104.7 111.81 1107.63 112.6C1110.56 113.391 1111.04 113.401 1111.51 113.184C1111.75 113.069 1112.04 112.708 1112.26 112.39C1112.49 112.048 1112.77 111.552 1112.78 111.234C1112.81 110.718 1112.61 110.278 1110.74 107.896C1108.87 105.502 1105.59 101.547 1101.65 98.3033C1097.71 95.06 1094.11 92.6747 1091.07 91.0444C1088.04 89.4142 1082.15 86.4714 1076.36 85.14L1072.9 84.4255C1072.9 84.4255 1071.77 84.2082 1071.2 85.0524C1071.2 85.0655 1071.2 85.0917 1071.2 85.1048C1071.19 85.1179 1071.17 85.1275 1071.15 85.1388C1070.58 85.9961 1071.23 86.9484 1071.23 86.9484L1073.24 89.855C1076.75 94.6661 1081.73 98.9419 1084.43 101.087C1087.13 103.246 1090.72 105.616 1095.25 107.979L1095.24 107.978ZM1072.02 86.9335C1071.61 86.573 1071.51 85.9724 1071.82 85.508C1072.12 85.0418 1072.71 84.9073 1073.2 85.1456C1073.17 85.1142 1073.13 85.0697 1073.1 85.0382C1073.15 85.0714 1073.18 85.1159 1073.21 85.1604C1072.89 85.3167 1072.59 85.5568 1072.37 85.8877C1072.15 86.2185 1072.05 86.5782 1072.03 86.9483C1071.98 86.9282 1071.93 86.9212 1071.88 86.8881C1071.93 86.9212 1071.97 86.9265 1072.02 86.9466L1072.02 86.9335Z" fill="#F36F0D"/>
<path d="M1096.18 107.596C1099.31 109.226 1100.68 106.582 1100.68 106.582L1101.31 105.627L1101.86 104.807L1102.49 103.852C1102.49 103.852 1104.4 101.561 1101.67 99.3185C1098.95 97.0763 1096.99 95.3106 1093.55 93.2527C1090.11 91.1948 1085.48 88.9929 1085.48 88.9929L1083.92 88.3987C1083.92 88.3987 1082.4 87.5556 1081.29 89.2213C1081.23 89.3059 1081.18 89.3924 1081.13 89.4919C1080.09 91.0598 1079.11 92.5412 1079.11 92.5412C1079.06 92.6276 1078.99 92.7123 1078.94 92.8118C1077.84 94.4644 1079.21 95.5536 1079.21 95.5536L1080.37 96.7476C1080.37 96.7476 1084.2 100.149 1087.44 102.513C1090.68 104.878 1093.07 105.982 1096.2 107.611L1096.18 107.596Z" fill="#F36F0D"/>
<path d="M1096.18 107.596C1099.31 109.226 1100.68 106.582 1100.68 106.582L1101.31 105.627L1101.86 104.807L1102.49 103.852C1102.49 103.852 1104.4 101.561 1101.67 99.3185C1098.95 97.0763 1096.99 95.3106 1093.55 93.2527C1090.11 91.1948 1085.48 88.9929 1085.48 88.9929L1083.92 88.3987C1083.92 88.3987 1082.4 87.5556 1081.29 89.2213C1081.24 89.3077 1081.18 89.3924 1081.13 89.4919C1080.09 91.0598 1079.11 92.5412 1079.11 92.5412C1079.06 92.6276 1078.99 92.7123 1078.94 92.8118C1077.84 94.4644 1079.21 95.5536 1079.21 95.5536L1080.37 96.7476C1080.37 96.7476 1084.2 100.149 1087.44 102.513C1090.68 104.878 1093.07 105.982 1096.2 107.611L1096.18 107.596ZM1087.78 102.052C1084.87 99.9315 1081.43 96.8758 1081.43 96.8758L1080.39 95.804C1080.39 95.804 1079.16 94.8405 1080.15 93.3459C1080.2 93.2726 1080.25 93.1862 1080.3 93.1128C1080.3 93.1128 1081.18 91.778 1082.11 90.3699C1082.16 90.2966 1082.22 90.2102 1082.27 90.1368C1083.25 88.6423 1084.62 89.3972 1084.62 89.3972L1086.01 89.9295C1086.01 89.9295 1090.16 91.8948 1093.26 93.7468C1096.36 95.5988 1098.1 97.1908 1100.56 99.1965C1103.01 101.202 1101.29 103.266 1101.29 103.266L1100.73 104.123L1100.24 104.858L1099.67 105.715C1099.67 105.715 1098.45 108.098 1095.65 106.632C1092.84 105.165 1090.7 104.173 1087.78 102.052Z" fill="white"/>
<path d="M1094.99 105.478C1097.42 106.747 1098.46 104.688 1098.46 104.688L1098.95 103.94L1099.37 103.303L1099.86 102.554C1099.86 102.554 1101.33 100.779 1099.22 99.0445C1097.1 97.3103 1095.59 95.9365 1092.91 94.3403C1090.23 92.744 1086.65 91.0405 1086.65 91.0405L1085.45 90.5736C1085.45 90.5736 1084.27 89.9234 1083.42 91.2093C1083.37 91.2827 1083.33 91.3446 1083.28 91.418C1082.48 92.6305 1081.71 93.7811 1081.71 93.7811C1081.66 93.8545 1081.63 93.9164 1081.58 93.9898C1080.73 95.2757 1081.79 96.1101 1081.79 96.1101L1082.69 97.0431C1082.69 97.0431 1085.66 99.6772 1088.17 101.518C1090.69 103.359 1092.55 104.206 1094.98 105.476L1094.99 105.478Z" fill="white"/>
<path d="M1081.55 94.1092C1081.41 94.3309 1081.35 94.5483 1081.31 94.7429L1097.66 105.556C1097.88 105.412 1098.04 105.261 1098.17 105.105L1081.55 94.1092Z" fill="#F36F0D"/>
<path d="M1084.01 90.6495C1083.85 90.7612 1083.68 90.9123 1083.52 91.1174L1100.14 102.113C1100.23 101.939 1100.31 101.723 1100.35 101.461L1084 90.6477L1084.01 90.6495Z" fill="#F36F0D"/>
<path d="M1094.35 92.9742C1094.63 92.8389 1095.05 92.8947 1095.42 93.1303C1095.79 93.366 1095.99 93.7265 1095.99 94.0459C1096.08 94.0974 1096.16 94.162 1096.24 94.2118C1096.32 93.757 1096.09 93.2324 1095.57 92.8841C1095.06 92.549 1094.47 92.5377 1094.09 92.8066C1094.18 92.8581 1094.26 92.9096 1094.34 92.9594L1094.35 92.9742Z" fill="#F36F0D"/>
<path d="M1087.49 103.345C1087.47 103.663 1087.69 104.025 1088.06 104.274C1088.43 104.509 1088.83 104.563 1089.12 104.441C1089.2 104.493 1089.29 104.544 1089.37 104.609C1088.99 104.865 1088.41 104.853 1087.89 104.518C1087.38 104.183 1087.14 103.632 1087.24 103.192C1087.33 103.244 1087.4 103.307 1087.49 103.358L1087.49 103.345Z" fill="#F36F0D"/>
<path d="M1079.52 116.681C1079.52 116.681 1078.4 117.133 1077.89 116.265C1077.38 115.385 1077.98 114.305 1077.98 114.305C1077.98 114.305 1081.54 109.421 1082.19 109.348C1082.84 109.274 1083.95 109.649 1083.95 109.649L1083.71 111.043C1083.6 111.668 1083.32 112.257 1082.91 112.735L1079.54 116.685L1079.52 116.681Z" fill="#F36F0D"/>
<path d="M1078 114.57C1078 114.57 1081.55 109.686 1082.2 109.613C1082.76 109.554 1083.66 109.82 1083.9 109.905L1083.93 109.657C1083.93 109.657 1082.83 109.284 1082.18 109.357C1081.53 109.431 1077.98 114.314 1077.98 114.314C1077.98 114.314 1077.61 114.985 1077.71 115.705C1077.73 115.094 1078 114.583 1078 114.583L1078 114.57Z" fill="black"/>
<path d="M1089.43 102.409C1089.52 102.528 1089.65 102.651 1089.79 102.777L1102.17 87.5555C1102.28 87.4237 1102.25 87.2465 1102.13 87.1505C1102.01 87.0545 1101.83 87.0694 1101.73 87.1898L1089.38 102.363C1089.38 102.363 1089.42 102.381 1089.43 102.409Z" fill="#F36F0D"/>
<path d="M1083.81 110.123L1088.93 103.835C1088.78 103.695 1088.63 103.556 1088.52 103.407L1083.36 109.756C1083.36 109.756 1083.36 109.769 1083.34 109.78C1083.26 109.903 1083.29 110.067 1083.4 110.161C1083.52 110.257 1083.71 110.242 1083.8 110.122L1083.81 110.123Z" fill="#F36F0D"/>
<path d="M1105.88 80.9331C1105.88 80.9331 1106.99 80.4816 1107.5 81.3493C1108.01 82.23 1107.42 83.3098 1107.42 83.3098C1107.42 83.3098 1103.86 88.1934 1103.21 88.2668C1102.56 88.3402 1101.45 87.9658 1101.45 87.9658L1101.69 86.5717C1101.8 85.9467 1102.08 85.3575 1102.49 84.879L1105.85 80.9296L1105.88 80.9331Z" fill="#F36F0D"/>
<path d="M1101.82 86.8947C1101.93 86.2696 1102.21 85.6804 1102.62 85.202L1105.98 81.2525C1105.98 81.2525 1107.1 80.8011 1107.61 81.6687C1107.63 81.7115 1107.64 81.7525 1107.66 81.7822C1107.63 81.6312 1107.58 81.4784 1107.49 81.3335C1106.98 80.4528 1105.87 80.9173 1105.87 80.9173L1102.5 84.8668C1102.09 85.3452 1101.82 85.9345 1101.71 86.5595L1101.47 87.9536C1101.47 87.9536 1101.53 87.9623 1101.63 88.0024L1101.84 86.8833L1101.82 86.8947Z" fill="black"/>
<path opacity="0.1" d="M1323.85 4169.05L1323.54 4163.87C1323.51 4163.24 1323.3 4162.63 1322.95 4162.1L1322.4 4161.28L1321.84 4154.37C1322.24 4154.18 1322.52 4153.87 1322.6 4153.53C1324.63 4153.13 1326.83 4152.6 1329.18 4151.9C1334.08 4150.47 1338.66 4148.12 1341.33 4146.66C1343.99 4145.2 1344.34 4144.88 1344.53 4144.4C1344.63 4144.15 1344.58 4143.69 1344.52 4143.31C1344.45 4142.9 1344.31 4142.35 1344.1 4142.11C1343.76 4141.72 1343.31 4141.54 1340.31 4141.12C1337.31 4140.68 1332.2 4140.1 1327.11 4140.48C1324.82 4140.66 1322.72 4140.92 1320.78 4141.23L1320.11 4133C1320.45 4132.82 1321.03 4132.49 1321.31 4132.16C1321.73 4131.66 1320.91 4125.67 1320.91 4125.67C1320.91 4125.67 1320.6 4124.48 1319.62 4124.19C1319.38 4124.13 1319.16 4124.14 1318.98 4124.21C1318.79 4124.28 1318.65 4124.38 1318.52 4124.51C1318.4 4124.63 1318.31 4124.76 1318.25 4124.85C1318.19 4124.95 1318.16 4125.02 1318.16 4125.02L1318.47 4130.2C1318.48 4130.51 1318.55 4130.82 1318.64 4131.13C1318.75 4131.43 1318.88 4131.71 1319.06 4131.97L1319.51 4132.66L1320.2 4141.06C1319.91 4140.83 1319.48 4140.7 1319.01 4140.78C1318.41 4140.9 1317.98 4141.29 1317.89 4141.75C1317.99 4141.73 1318.09 4141.71 1318.17 4141.69C1318.28 4141.4 1318.63 4141.15 1319.05 4141.06C1319.48 4140.98 1319.88 4141.1 1320.1 4141.33C1318 4141.69 1316.12 4142.1 1314.47 4142.56C1311.15 4143.48 1304.86 4145.43 1299.76 4148.48L1296.77 4150.36C1296.77 4150.36 1295.8 4150.99 1295.99 4151.98C1296 4151.99 1296.01 4152.01 1296.02 4152.02C1296.03 4152.03 1296.01 4152.06 1296.01 4152.08C1296.19 4153.09 1297.32 4153.33 1297.32 4153.33L1300.78 4154.03C1306.64 4155.08 1313.2 4154.71 1316.64 4154.39C1318.03 4154.27 1319.58 4154.06 1321.25 4153.77L1321.29 4154.2C1320.93 4154.22 1320.6 4154.11 1320.42 4153.91C1320.33 4153.93 1320.23 4153.94 1320.13 4153.96C1320.35 4154.31 1320.8 4154.51 1321.32 4154.48L1321.86 4161.11C1321.58 4161.26 1321.21 4161.49 1320.93 4161.73C1320.85 4161.78 1320.79 4161.86 1320.75 4161.91C1320.69 4161.97 1320.66 4162.12 1320.64 4162.33C1320.64 4162.43 1320.63 4162.55 1320.63 4162.69C1320.61 4163.63 1320.77 4165.2 1320.91 4166.47C1321.03 4167.55 1321.15 4168.39 1321.15 4168.39C1321.15 4168.39 1321.35 4169.13 1321.93 4169.58C1322.08 4169.7 1322.25 4169.8 1322.45 4169.87C1323.42 4170.15 1323.91 4169.04 1323.91 4169.04L1323.85 4169.05ZM1297.86 4152.79C1297.32 4152.81 1296.82 4152.45 1296.73 4151.89C1296.62 4151.35 1296.96 4150.84 1297.47 4150.68C1297.43 4150.68 1297.37 4150.67 1297.32 4150.67C1297.38 4150.66 1297.44 4150.67 1297.49 4150.68C1297.37 4151.02 1297.32 4151.4 1297.39 4151.79C1297.46 4152.18 1297.64 4152.51 1297.88 4152.79C1297.88 4152.79 1297.88 4152.79 1297.87 4152.8L1297.86 4152.79ZM1318.14 4154.08L1318.11 4153.72C1318.28 4153.69 1318.46 4153.66 1318.63 4153.62C1318.55 4153.81 1318.37 4153.96 1318.14 4154.08Z" fill="#F36F0D"/>
<path d="M1326.51 4159.13C1331.41 4157.71 1335.99 4155.35 1338.65 4153.89C1341.31 4152.43 1341.67 4152.11 1341.85 4151.63C1341.95 4151.38 1341.91 4150.92 1341.84 4150.54C1341.77 4150.13 1341.63 4149.58 1341.42 4149.34C1341.09 4148.95 1340.63 4148.77 1337.63 4148.35C1334.63 4147.91 1329.52 4147.33 1324.43 4147.72C1319.35 4148.1 1315.1 4148.87 1311.78 4149.8C1308.46 4150.72 1302.18 4152.67 1297.07 4155.72L1294.08 4157.6C1294.08 4157.6 1293.11 4158.22 1293.29 4159.22C1293.3 4159.24 1293.31 4159.26 1293.32 4159.27C1293.33 4159.28 1293.32 4159.3 1293.31 4159.32C1293.5 4160.33 1294.62 4160.57 1294.62 4160.57L1298.09 4161.28C1303.94 4162.33 1310.5 4161.96 1313.94 4161.64C1317.38 4161.33 1321.61 4160.56 1326.52 4159.12L1326.51 4159.13ZM1295.18 4160.02C1294.64 4160.04 1294.15 4159.68 1294.05 4159.13C1293.95 4158.58 1294.28 4158.07 1294.8 4157.91C1294.75 4157.91 1294.69 4157.9 1294.65 4157.9C1294.71 4157.89 1294.76 4157.9 1294.82 4157.91C1294.69 4158.25 1294.64 4158.63 1294.71 4159.02C1294.78 4159.41 1294.96 4159.74 1295.2 4160.02C1295.15 4160.04 1295.11 4160.07 1295.05 4160.08C1295.11 4160.07 1295.14 4160.05 1295.19 4160.03L1295.18 4160.02Z" fill="#F36F0D"/>
<path d="M1326.92 4158.2C1330.31 4157.21 1329.46 4154.36 1329.46 4154.36L1329.26 4153.23L1329.09 4152.26L1328.89 4151.13C1328.89 4151.13 1328.67 4148.16 1325.15 4148.43C1321.63 4148.7 1319.01 4148.78 1315.1 4149.67C1311.19 4150.57 1306.32 4152.18 1306.32 4152.18L1304.79 4152.83C1304.79 4152.83 1303.1 4153.28 1303.46 4155.25C1303.47 4155.35 1303.49 4155.45 1303.52 4155.56C1303.86 4157.41 1304.18 4159.16 1304.18 4159.16C1304.2 4159.26 1304.21 4159.36 1304.24 4159.47C1304.59 4161.42 1306.34 4161.26 1306.34 4161.26L1308 4161.32C1308 4161.32 1313.12 4161.13 1317.09 4160.59C1321.07 4160.05 1323.56 4159.2 1326.94 4158.21L1326.92 4158.2Z" fill="#F36F0D"/>
<path d="M1326.92 4158.2C1330.31 4157.21 1329.46 4154.36 1329.46 4154.36L1329.26 4153.23L1329.09 4152.26L1328.89 4151.13C1328.89 4151.13 1328.67 4148.16 1325.15 4148.43C1321.63 4148.7 1319.01 4148.78 1315.1 4149.67C1311.19 4150.57 1306.32 4152.18 1306.32 4152.18L1304.79 4152.83C1304.79 4152.83 1303.1 4153.28 1303.46 4155.25C1303.48 4155.35 1303.49 4155.45 1303.52 4155.56C1303.86 4157.41 1304.18 4159.16 1304.18 4159.16C1304.2 4159.26 1304.21 4159.36 1304.24 4159.47C1304.59 4161.42 1306.34 4161.26 1306.34 4161.26L1308 4161.32C1308 4161.32 1313.12 4161.13 1317.09 4160.59C1321.07 4160.05 1323.56 4159.2 1326.94 4158.21L1326.92 4158.2ZM1317.02 4160.02C1313.45 4160.51 1308.86 4160.68 1308.86 4160.68L1307.36 4160.62C1307.36 4160.62 1305.81 4160.78 1305.48 4159.02C1305.47 4158.93 1305.45 4158.83 1305.43 4158.75C1305.43 4158.75 1305.15 4157.17 1304.85 4155.51C1304.83 4155.42 1304.81 4155.32 1304.79 4155.24C1304.47 4153.48 1305.98 4153.08 1305.98 4153.08L1307.35 4152.49C1307.35 4152.49 1311.71 4151.04 1315.23 4150.23C1318.74 4149.43 1321.11 4149.36 1324.26 4149.12C1327.42 4148.87 1327.61 4151.54 1327.61 4151.54L1327.8 4152.55L1327.96 4153.42L1328.14 4154.43C1328.14 4154.43 1328.91 4157 1325.87 4157.88C1322.83 4158.76 1320.59 4159.53 1317.02 4160.02Z" fill="white"/>
<path d="M1324.59 4157.5C1327.23 4156.74 1326.56 4154.53 1326.56 4154.53L1326.39 4153.65L1326.25 4152.9L1326.08 4152.02C1326.08 4152.02 1325.92 4149.72 1323.19 4149.93C1320.47 4150.14 1318.43 4150.2 1315.39 4150.9C1312.35 4151.6 1308.58 4152.85 1308.58 4152.85L1307.39 4153.35C1307.39 4153.35 1306.09 4153.7 1306.37 4155.21C1306.38 4155.3 1306.4 4155.37 1306.41 4155.46C1306.67 4156.89 1306.92 4158.25 1306.92 4158.25C1306.93 4158.34 1306.95 4158.4 1306.97 4158.49C1307.24 4160.01 1308.58 4159.88 1308.58 4159.88L1309.88 4159.93C1309.88 4159.93 1313.85 4159.77 1316.93 4159.36C1320.02 4158.95 1321.95 4158.28 1324.58 4157.51L1324.59 4157.5Z" fill="white"/>
<path d="M1307.03 4158.6C1307.08 4158.85 1307.18 4159.06 1307.29 4159.23L1326.57 4155.71C1326.63 4155.46 1326.65 4155.23 1326.63 4155.03L1307.03 4158.6Z" fill="#F36F0D"/>
<path d="M1306.41 4154.4C1306.37 4154.59 1306.35 4154.82 1306.38 4155.08L1325.98 4151.51C1325.93 4151.32 1325.84 4151.11 1325.68 4150.9L1306.4 4154.41L1306.41 4154.4Z" fill="#F36F0D"/>
<path d="M1315.48 4148.92C1315.59 4148.63 1315.93 4148.38 1316.36 4148.29C1316.79 4148.21 1317.19 4148.33 1317.41 4148.56C1317.5 4148.53 1317.61 4148.52 1317.7 4148.51C1317.44 4148.12 1316.91 4147.9 1316.3 4148.01C1315.7 4148.12 1315.27 4148.52 1315.18 4148.98C1315.27 4148.96 1315.37 4148.93 1315.46 4148.92L1315.48 4148.92Z" fill="#F36F0D"/>
<path d="M1317.71 4161.15C1317.91 4161.39 1318.32 4161.5 1318.76 4161.43C1319.19 4161.35 1319.52 4161.1 1319.64 4160.82C1319.74 4160.8 1319.83 4160.77 1319.94 4160.76C1319.84 4161.21 1319.41 4161.61 1318.81 4161.72C1318.21 4161.84 1317.66 4161.6 1317.42 4161.21C1317.52 4161.19 1317.62 4161.19 1317.71 4161.16L1317.71 4161.15Z" fill="#F36F0D"/>
<path d="M1321.18 4176.3C1321.18 4176.3 1320.69 4177.39 1319.72 4177.12C1318.74 4176.84 1318.43 4175.65 1318.43 4175.65C1318.43 4175.65 1317.61 4169.66 1318.03 4169.16C1318.45 4168.66 1319.51 4168.16 1319.51 4168.16L1320.3 4169.33C1320.65 4169.86 1320.86 4170.47 1320.9 4171.1L1321.2 4176.28L1321.18 4176.3Z" fill="#F36F0D"/>
<path d="M1318.62 4175.83C1318.62 4175.83 1317.81 4169.84 1318.23 4169.34C1318.58 4168.91 1319.42 4168.48 1319.65 4168.38L1319.5 4168.17C1319.5 4168.17 1318.45 4168.66 1318.04 4169.17C1317.62 4169.67 1318.43 4175.65 1318.43 4175.65C1318.43 4175.65 1318.63 4176.39 1319.2 4176.84C1318.79 4176.39 1318.63 4175.84 1318.63 4175.84L1318.62 4175.83Z" fill="black"/>
<path d="M1318.45 4159.14C1318.6 4159.16 1318.78 4159.16 1318.97 4159.15L1317.37 4139.59C1317.36 4139.42 1317.22 4139.32 1317.06 4139.33C1316.91 4139.34 1316.78 4139.48 1316.8 4139.64L1318.39 4159.14C1318.39 4159.14 1318.43 4159.12 1318.45 4159.14Z" fill="#F36F0D"/>
<path d="M1319.74 4168.59L1319.08 4160.51C1318.87 4160.52 1318.67 4160.51 1318.49 4160.49L1319.16 4168.64C1319.16 4168.64 1319.17 4168.65 1319.16 4168.67C1319.19 4168.82 1319.32 4168.91 1319.47 4168.91C1319.62 4168.89 1319.75 4168.75 1319.73 4168.6L1319.74 4168.59Z" fill="#F36F0D"/>
<path d="M1315.46 4132.25C1315.46 4132.25 1315.95 4131.15 1316.92 4131.43C1317.9 4131.71 1318.22 4132.9 1318.22 4132.9C1318.22 4132.9 1319.03 4138.89 1318.61 4139.39C1318.19 4139.89 1317.13 4140.39 1317.13 4140.39L1316.34 4139.22C1315.99 4138.69 1315.78 4138.07 1315.75 4137.44L1315.44 4132.26L1315.46 4132.25Z" fill="#F36F0D"/>
<path d="M1316.66 4139.36C1316.31 4138.83 1316.1 4138.22 1316.06 4137.59L1315.76 4132.41C1315.76 4132.41 1316.25 4131.31 1317.22 4131.58C1317.26 4131.6 1317.3 4131.62 1317.33 4131.63C1317.21 4131.54 1317.07 4131.47 1316.9 4131.42C1315.93 4131.14 1315.44 4132.25 1315.44 4132.25L1315.75 4137.42C1315.78 4138.05 1315.99 4138.67 1316.34 4139.2L1317.14 4140.37C1317.14 4140.37 1317.19 4140.33 1317.29 4140.29L1316.66 4139.34L1316.66 4139.36Z" fill="black"/>
<path opacity="0.1" d="M722.847 5989.61L723.193 5984.43C723.237 5983.8 723.109 5983.16 722.824 5982.6L722.379 5981.71L722.691 5974.78C723.117 5974.65 723.43 5974.37 723.552 5974.05C725.615 5973.9 727.863 5973.65 730.289 5973.26C735.328 5972.46 740.166 5970.69 742.992 5969.58C745.818 5968.47 746.208 5968.19 746.455 5967.73C746.58 5967.5 746.596 5967.04 746.58 5966.65C746.562 5966.24 746.49 5965.68 746.314 5965.41C746.029 5964.98 745.599 5964.75 742.68 5963.95C739.754 5963.14 734.758 5961.93 729.662 5961.67C727.363 5961.56 725.246 5961.55 723.286 5961.61L723.654 5953.37C724.015 5953.23 724.631 5952.98 724.949 5952.69C725.427 5952.24 725.369 5946.2 725.369 5946.2C725.369 5946.2 725.204 5944.98 724.27 5944.57C724.036 5944.48 723.816 5944.46 723.629 5944.51C723.441 5944.55 723.28 5944.64 723.142 5944.74C723.005 5944.85 722.904 5944.97 722.83 5945.05C722.757 5945.14 722.719 5945.21 722.719 5945.21L722.373 5950.38C722.351 5950.7 722.376 5951.02 722.431 5951.33C722.498 5951.64 722.599 5951.93 722.741 5952.22L723.104 5952.95L722.731 5961.38C722.478 5961.11 722.062 5960.93 721.59 5960.95C720.977 5960.99 720.5 5961.33 720.354 5961.78C720.454 5961.77 720.554 5961.75 720.642 5961.75C720.79 5961.47 721.16 5961.27 721.596 5961.24C722.032 5961.21 722.412 5961.37 722.6 5961.63C720.476 5961.72 718.55 5961.9 716.857 5962.14C713.449 5962.64 706.97 5963.79 701.526 5966.18L698.32 5967.67C698.32 5967.67 697.283 5968.17 697.344 5969.18C697.351 5969.19 697.364 5969.21 697.37 5969.22C697.376 5969.23 697.36 5969.26 697.354 5969.28C697.41 5970.3 698.497 5970.68 698.497 5970.68L701.845 5971.82C707.526 5973.59 714.08 5974.05 717.526 5974.16C718.929 5974.21 720.49 5974.19 722.183 5974.11L722.166 5974.55C721.804 5974.52 721.497 5974.37 721.345 5974.16C721.245 5974.17 721.15 5974.16 721.05 5974.17C721.226 5974.54 721.639 5974.79 722.161 5974.84L721.872 5981.48C721.575 5981.6 721.175 5981.77 720.864 5981.98C720.783 5982.02 720.715 5982.09 720.664 5982.13C720.601 5982.18 720.549 5982.33 720.51 5982.53C720.491 5982.64 720.466 5982.76 720.448 5982.89C720.317 5983.82 720.272 5985.4 720.256 5986.68C720.237 5987.76 720.256 5988.61 720.256 5988.61C720.256 5988.61 720.359 5989.37 720.872 5989.89C721.008 5990.02 721.167 5990.15 721.354 5990.24C722.288 5990.64 722.906 5989.6 722.906 5989.6L722.847 5989.61ZM699.098 5970.21C698.557 5970.17 698.114 5969.75 698.09 5969.19C698.054 5968.63 698.448 5968.17 698.982 5968.07C698.935 5968.07 698.881 5968.05 698.833 5968.05C698.892 5968.05 698.946 5968.06 699 5968.08C698.831 5968.4 698.734 5968.77 698.757 5969.16C698.78 5969.56 698.913 5969.91 699.115 5970.22C699.115 5970.22 699.115 5970.22 699.104 5970.22L699.098 5970.21ZM719.058 5974.04L719.072 5973.68C719.249 5973.67 719.426 5973.66 719.597 5973.65C719.498 5973.82 719.296 5973.95 719.058 5974.04Z" fill="#F36F0D"/>
<path d="M726.725 5980.1C731.764 5979.3 736.603 5977.53 739.429 5976.42C742.254 5975.31 742.645 5975.03 742.891 5974.58C743.017 5974.34 743.033 5973.88 743.016 5973.49C742.999 5973.08 742.927 5972.52 742.75 5972.25C742.466 5971.82 742.036 5971.59 739.117 5970.79C736.19 5969.98 731.195 5968.77 726.099 5968.51C721.003 5968.26 716.691 5968.49 713.283 5968.99C709.874 5969.49 703.396 5970.64 697.952 5973.02L694.746 5974.51C694.746 5974.51 693.709 5975.01 693.758 5976.03C693.764 5976.04 693.777 5976.06 693.784 5976.08C693.79 5976.09 693.773 5976.11 693.768 5976.13C693.824 5977.16 694.91 5977.54 694.91 5977.54L698.258 5978.67C703.94 5980.44 710.493 5980.9 713.939 5981.01C717.392 5981.14 721.686 5980.9 726.737 5980.09L726.725 5980.1ZM695.534 5977.05C694.994 5977.01 694.551 5976.59 694.527 5976.03C694.491 5975.47 694.885 5975.01 695.419 5974.91C695.371 5974.91 695.318 5974.89 695.27 5974.89C695.329 5974.89 695.383 5974.9 695.437 5974.92C695.267 5975.24 695.171 5975.61 695.194 5976C695.217 5976.4 695.35 5976.75 695.552 5977.06C695.5 5977.07 695.453 5977.1 695.394 5977.1C695.453 5977.1 695.488 5977.08 695.541 5977.06L695.534 5977.05Z" fill="#F36F0D"/>
<path d="M727.255 5979.23C730.738 5978.67 730.257 5975.74 730.257 5975.74L730.196 5974.59L730.148 5973.61L730.088 5972.46C730.088 5972.46 730.25 5969.49 726.724 5969.31C723.198 5969.14 720.58 5968.88 716.588 5969.29C712.596 5969.69 707.571 5970.68 707.571 5970.68L705.965 5971.13C705.965 5971.13 704.236 5971.36 704.345 5973.36C704.344 5973.46 704.354 5973.56 704.371 5973.68C704.475 5975.55 704.569 5977.33 704.569 5977.33C704.579 5977.43 704.578 5977.53 704.594 5977.65C704.697 5979.63 706.449 5979.68 706.449 5979.68L708.093 5979.95C708.093 5979.95 713.191 5980.4 717.205 5980.36C721.218 5980.33 723.791 5979.79 727.273 5979.23L727.255 5979.23Z" fill="#F36F0D"/>
<path d="M727.255 5979.23C730.738 5978.67 730.257 5975.74 730.257 5975.74L730.196 5974.59L730.148 5973.61L730.088 5972.46C730.088 5972.46 730.25 5969.49 726.724 5969.31C723.198 5969.14 720.58 5968.88 716.588 5969.29C712.596 5969.69 707.571 5970.68 707.571 5970.68L705.965 5971.13C705.965 5971.13 704.236 5971.36 704.345 5973.36C704.356 5973.46 704.354 5973.56 704.371 5973.68C704.475 5975.55 704.569 5977.33 704.569 5977.33C704.579 5977.43 704.578 5977.53 704.594 5977.65C704.697 5979.63 706.449 5979.68 706.449 5979.68L708.093 5979.95C708.093 5979.95 713.191 5980.4 717.205 5980.36C721.218 5980.33 723.791 5979.79 727.273 5979.23L727.255 5979.23ZM717.204 5979.79C713.598 5979.83 709.022 5979.42 709.022 5979.42L707.545 5979.18C707.545 5979.18 705.983 5979.14 705.883 5977.35C705.879 5977.27 705.869 5977.17 705.865 5977.08C705.865 5977.08 705.779 5975.48 705.689 5973.79C705.685 5973.7 705.675 5973.6 705.671 5973.51C705.571 5971.73 707.117 5971.52 707.117 5971.52L708.554 5971.11C708.554 5971.11 713.057 5970.22 716.648 5969.86C720.24 5969.5 722.591 5969.73 725.755 5969.88C728.919 5970.03 728.774 5972.71 728.774 5972.71L728.829 5973.73L728.879 5974.61L728.935 5975.64C728.935 5975.64 729.373 5978.28 726.248 5978.78C723.124 5979.27 720.809 5979.75 717.204 5979.79Z" fill="white"/>
<path d="M725.032 5978.24C727.739 5977.81 727.352 5975.54 727.352 5975.54L727.296 5974.64L727.251 5973.88L727.196 5972.99C727.196 5972.99 727.322 5970.69 724.59 5970.56C721.859 5970.43 719.828 5970.22 716.725 5970.54C713.622 5970.85 709.729 5971.62 709.729 5971.62L708.485 5971.97C708.485 5971.97 707.15 5972.15 707.234 5973.69C707.238 5973.78 707.246 5973.85 707.25 5973.94C707.33 5975.39 707.401 5976.77 707.401 5976.77C707.405 5976.86 707.414 5976.93 707.418 5977.02C707.501 5978.56 708.851 5978.59 708.851 5978.59L710.131 5978.8C710.131 5978.8 714.084 5979.15 717.199 5979.13C720.315 5979.11 722.313 5978.68 725.02 5978.25L725.032 5978.24Z" fill="white"/>
<path d="M707.466 5977.13C707.488 5977.39 707.563 5977.6 707.647 5977.78L727.221 5976.71C727.311 5976.47 727.354 5976.25 727.363 5976.05L707.466 5977.13Z" fill="#F36F0D"/>
<path d="M707.376 5972.89C707.313 5973.07 707.269 5973.29 707.263 5973.55L727.16 5972.47C727.129 5972.28 727.066 5972.05 726.938 5971.82L707.364 5972.89L707.376 5972.89Z" fill="#F36F0D"/>
<path d="M717.062 5968.59C717.21 5968.31 717.579 5968.1 718.016 5968.07C718.452 5968.04 718.832 5968.21 719.02 5968.47C719.12 5968.46 719.227 5968.46 719.315 5968.45C719.114 5968.04 718.611 5967.76 717.992 5967.78C717.378 5967.82 716.902 5968.16 716.755 5968.61C716.856 5968.6 716.956 5968.59 717.044 5968.58L717.062 5968.59Z" fill="#F36F0D"/>
<path d="M717.74 5981C717.917 5981.27 718.308 5981.43 718.751 5981.41C719.187 5981.38 719.545 5981.18 719.699 5980.91C719.799 5980.9 719.899 5980.89 720.006 5980.89C719.853 5981.33 719.377 5981.67 718.763 5981.7C718.15 5981.74 717.634 5981.44 717.451 5981.03C717.551 5981.02 717.646 5981.02 717.746 5981.01L717.74 5981Z" fill="#F36F0D"/>
<path d="M719.29 5996.46C719.29 5996.46 718.666 5997.49 717.738 5997.1C716.804 5996.69 716.64 5995.47 716.64 5995.47C716.64 5995.47 716.582 5989.43 717.059 5988.98C717.537 5988.54 718.651 5988.18 718.651 5988.18L719.29 5989.44C719.575 5990 719.703 5990.64 719.659 5991.27L719.313 5996.45L719.29 5996.46Z" fill="#F36F0D"/>
<path d="M716.812 5995.67C716.812 5995.67 716.754 5989.63 717.232 5989.19C717.641 5988.81 718.52 5988.49 718.765 5988.41L718.644 5988.19C718.644 5988.19 717.541 5988.55 717.064 5988.99C716.586 5989.44 716.644 5995.48 716.644 5995.48C716.644 5995.48 716.747 5996.24 717.26 5996.75C716.908 5996.25 716.818 5995.68 716.818 5995.68L716.812 5995.67Z" fill="black"/>
<path d="M718.735 5979.09C718.878 5979.14 719.057 5979.16 719.247 5979.17L720.11 5959.57C720.12 5959.4 719.991 5959.27 719.837 5959.27C719.683 5959.26 719.54 5959.39 719.535 5959.54L718.669 5979.09C718.669 5979.09 718.71 5979.08 718.735 5979.09Z" fill="#F36F0D"/>
<path d="M718.829 5988.63L719.186 5980.54C718.978 5980.52 718.782 5980.49 718.602 5980.44L718.243 5988.61C718.243 5988.61 718.249 5988.62 718.244 5988.64C718.25 5988.79 718.373 5988.9 718.516 5988.91C718.67 5988.92 718.812 5988.79 718.817 5988.64L718.829 5988.63Z" fill="#F36F0D"/>
<path d="M719.137 5952.04C719.137 5952.04 719.761 5951.02 720.688 5951.41C721.622 5951.81 721.787 5953.04 721.787 5953.04C721.787 5953.04 721.844 5959.08 721.367 5959.52C720.889 5959.97 719.775 5960.33 719.775 5960.33L719.136 5959.07C718.851 5958.5 718.724 5957.86 718.768 5957.23L719.113 5952.06L719.137 5952.04Z" fill="#F36F0D"/>
<path d="M719.433 5959.25C719.148 5958.68 719.02 5958.04 719.064 5957.41L719.41 5952.24C719.41 5952.24 720.035 5951.21 720.962 5951.6C721.004 5951.63 721.035 5951.65 721.071 5951.66C720.954 5951.56 720.826 5951.47 720.67 5951.4C719.736 5951 719.118 5952.04 719.118 5952.04L718.772 5957.21C718.728 5957.84 718.856 5958.48 719.14 5959.05L719.78 5960.31C719.78 5960.31 719.838 5960.28 719.943 5960.25L719.438 5959.23L719.433 5959.25Z" fill="black"/>
<path opacity="0.1" d="M684.539 8208.17L685.212 8203.03C685.296 8202.4 685.209 8201.76 684.961 8201.17L684.572 8200.26L685.324 8193.37C685.757 8193.26 686.087 8193.01 686.23 8192.69C688.298 8192.67 690.558 8192.57 693.003 8192.33C698.083 8191.85 703.023 8190.4 705.914 8189.46C708.805 8188.53 709.212 8188.28 709.487 8187.84C709.627 8187.61 709.672 8187.15 709.68 8186.77C709.689 8186.36 709.653 8185.79 709.494 8185.51C709.237 8185.06 708.823 8184.81 705.96 8183.83C703.091 8182.83 698.183 8181.3 693.113 8180.72C690.826 8180.46 688.713 8180.33 686.753 8180.26L687.644 8172.06C688.012 8171.95 688.643 8171.73 688.98 8171.46C689.485 8171.04 689.81 8165.01 689.81 8165.01C689.81 8165.01 689.724 8163.78 688.817 8163.32C688.589 8163.21 688.371 8163.18 688.181 8163.21C687.992 8163.24 687.825 8163.32 687.681 8163.42C687.537 8163.52 687.428 8163.63 687.35 8163.71C687.271 8163.79 687.229 8163.85 687.229 8163.85L686.555 8169C686.513 8169.31 686.518 8169.63 686.553 8169.95C686.6 8170.26 686.682 8170.56 686.806 8170.85L687.121 8171.61L686.215 8179.99C685.979 8179.71 685.575 8179.51 685.103 8179.5C684.488 8179.49 683.991 8179.8 683.817 8180.24C683.917 8180.23 684.018 8180.23 684.107 8180.23C684.272 8179.96 684.654 8179.78 685.091 8179.78C685.528 8179.78 685.896 8179.97 686.068 8180.24C683.942 8180.19 682.009 8180.25 680.304 8180.38C676.871 8180.67 670.333 8181.4 664.748 8183.43L661.454 8184.72C661.454 8184.72 660.387 8185.15 660.384 8186.16C660.39 8186.17 660.401 8186.2 660.407 8186.21C660.412 8186.22 660.394 8186.25 660.388 8186.26C660.378 8187.29 661.439 8187.74 661.439 8187.74L664.708 8189.08C670.265 8191.21 676.776 8192.09 680.209 8192.42C681.606 8192.56 683.164 8192.64 684.859 8192.67L684.815 8193.1C684.456 8193.05 684.158 8192.88 684.021 8192.66C683.92 8192.66 683.826 8192.65 683.725 8192.65C683.877 8193.03 684.273 8193.31 684.791 8193.39L684.081 8200C683.778 8200.1 683.367 8200.25 683.044 8200.43C682.961 8200.47 682.889 8200.53 682.835 8200.57C682.769 8200.62 682.706 8200.76 682.655 8200.96C682.629 8201.06 682.597 8201.18 682.571 8201.31C682.381 8202.24 682.236 8203.81 682.138 8205.08C682.051 8206.16 682.016 8207.01 682.016 8207.01C682.016 8207.01 682.071 8207.78 682.55 8208.32C682.677 8208.47 682.828 8208.6 683.009 8208.71C683.915 8209.17 684.598 8208.17 684.598 8208.17L684.539 8208.17ZM662.068 8187.31C661.532 8187.23 661.116 8186.78 661.127 8186.22C661.127 8185.66 661.55 8185.23 662.089 8185.16C662.042 8185.16 661.989 8185.14 661.942 8185.13C662.001 8185.13 662.054 8185.15 662.106 8185.17C661.917 8185.48 661.797 8185.84 661.795 8186.24C661.792 8186.64 661.903 8186.99 662.086 8187.31C662.086 8187.31 662.086 8187.31 662.074 8187.32L662.068 8187.31ZM681.745 8192.39L681.782 8192.04C681.959 8192.04 682.137 8192.04 682.308 8192.04C682.198 8192.2 681.989 8192.32 681.745 8192.39Z" fill="#F36F0D"/>
<path d="M689.01 8198.93C694.09 8198.45 699.03 8197 701.921 8196.06C704.812 8195.13 705.219 8194.88 705.494 8194.44C705.634 8194.21 705.679 8193.75 705.687 8193.37C705.696 8192.96 705.66 8192.39 705.501 8192.11C705.244 8191.67 704.83 8191.41 701.967 8190.43C699.098 8189.43 694.19 8187.9 689.12 8187.33C684.05 8186.75 679.732 8186.71 676.299 8186.99C672.866 8187.27 666.328 8188.01 660.743 8190.04L657.449 8191.33C657.449 8191.33 656.382 8191.76 656.367 8192.77C656.373 8192.79 656.384 8192.81 656.39 8192.82C656.395 8192.83 656.377 8192.86 656.371 8192.88C656.361 8193.9 657.422 8194.35 657.422 8194.35L660.691 8195.69C666.248 8197.82 672.76 8198.7 676.192 8199.03C679.629 8199.37 683.93 8199.41 689.022 8198.92L689.01 8198.93ZM658.075 8193.91C657.539 8193.83 657.123 8193.38 657.134 8192.82C657.134 8192.26 657.557 8191.83 658.096 8191.76C658.049 8191.76 657.996 8191.74 657.949 8191.73C658.008 8191.73 658.06 8191.75 658.113 8191.77C657.924 8192.08 657.804 8192.44 657.802 8192.84C657.799 8193.24 657.91 8193.59 658.092 8193.92C658.039 8193.93 657.991 8193.95 657.932 8193.95C657.991 8193.95 658.027 8193.93 658.081 8193.92L658.075 8193.91Z" fill="#F36F0D"/>
<path d="M689.594 8198.09C693.105 8197.76 692.811 8194.8 692.811 8194.8L692.823 8193.65L692.838 8192.67L692.85 8191.52C692.85 8191.52 693.201 8188.56 689.693 8188.16C686.186 8187.77 683.589 8187.35 679.579 8187.49C675.57 8187.64 670.492 8188.31 670.492 8188.31L668.86 8188.66C668.86 8188.66 667.12 8188.78 667.103 8190.78C667.095 8190.89 667.099 8190.99 667.108 8191.1C667.093 8192.98 667.074 8194.76 667.074 8194.76C667.077 8194.86 667.069 8194.96 667.079 8195.08C667.056 8197.06 668.801 8197.23 668.801 8197.23L670.424 8197.6C670.424 8197.6 675.484 8198.37 679.491 8198.59C683.499 8198.81 686.101 8198.44 689.611 8198.1L689.594 8198.09Z" fill="#F36F0D"/>
<path d="M689.594 8198.09C693.105 8197.76 692.811 8194.8 692.811 8194.8L692.823 8193.65L692.838 8192.67L692.85 8191.52C692.85 8191.52 693.201 8188.56 689.693 8188.16C686.186 8187.77 683.589 8187.35 679.579 8187.49C675.57 8187.64 670.492 8188.31 670.492 8188.31L668.86 8188.66C668.86 8188.66 667.12 8188.78 667.103 8190.78C667.107 8190.88 667.099 8190.99 667.108 8191.1C667.093 8192.98 667.074 8194.76 667.074 8194.76C667.077 8194.86 667.069 8194.96 667.079 8195.08C667.056 8197.06 668.801 8197.23 668.801 8197.23L670.424 8197.6C670.424 8197.6 675.484 8198.37 679.491 8198.59C683.499 8198.81 686.101 8198.44 689.611 8198.1L689.594 8198.09ZM679.527 8198.02C675.927 8197.82 671.385 8197.13 671.385 8197.13L669.927 8196.8C669.927 8196.8 668.37 8196.66 668.383 8194.87C668.385 8194.78 668.381 8194.68 668.383 8194.59C668.383 8194.59 668.398 8192.99 668.416 8191.3C668.417 8191.21 668.414 8191.11 668.415 8191.02C668.429 8189.23 669.985 8189.12 669.985 8189.12L671.445 8188.81C671.445 8188.81 675.996 8188.2 679.603 8188.07C683.21 8187.94 685.542 8188.32 688.69 8188.67C691.838 8189.02 691.523 8191.68 691.523 8191.68L691.513 8192.71L691.507 8193.59L691.498 8194.62C691.498 8194.62 691.767 8197.28 688.618 8197.58C685.468 8197.87 683.127 8198.21 679.527 8198.02Z" fill="white"/>
<path d="M687.437 8196.97C690.166 8196.71 689.925 8194.41 689.925 8194.41L689.925 8193.52L689.929 8192.76L689.93 8191.87C689.93 8191.87 690.202 8189.57 687.484 8189.27C684.767 8188.97 682.753 8188.63 679.636 8188.75C676.52 8188.87 672.586 8189.39 672.586 8189.39L671.322 8189.66C671.322 8189.66 669.978 8189.75 669.964 8191.29C669.962 8191.38 669.967 8191.45 669.965 8191.54C669.953 8193 669.936 8194.38 669.936 8194.38C669.934 8194.47 669.938 8194.54 669.937 8194.63C669.922 8196.17 671.267 8196.29 671.267 8196.29L672.531 8196.58C672.531 8196.58 676.454 8197.18 679.565 8197.35C682.675 8197.53 684.696 8197.23 687.425 8196.97L687.437 8196.97Z" fill="white"/>
<path d="M669.977 8194.74C669.984 8195 670.044 8195.22 670.117 8195.41L689.719 8195.58C689.824 8195.34 689.882 8195.12 689.904 8194.92L669.977 8194.74Z" fill="#F36F0D"/>
<path d="M670.157 8190.5C670.082 8190.68 670.025 8190.9 670.002 8191.16L689.928 8191.34C689.909 8191.15 689.86 8190.92 689.747 8190.68L670.145 8190.51L670.157 8190.5Z" fill="#F36F0D"/>
<path d="M680.097 8186.83C680.262 8186.56 680.644 8186.38 681.081 8186.37C681.518 8186.37 681.887 8186.56 682.058 8186.83C682.159 8186.83 682.265 8186.84 682.354 8186.84C682.179 8186.41 681.695 8186.1 681.075 8186.08C680.461 8186.08 679.964 8186.39 679.789 8186.83C679.89 8186.82 679.99 8186.82 680.079 8186.82L680.097 8186.83Z" fill="#F36F0D"/>
<path d="M679.985 8199.26C680.145 8199.53 680.525 8199.72 680.968 8199.73C681.405 8199.73 681.775 8199.55 681.946 8199.29C682.047 8199.29 682.147 8199.29 682.253 8199.29C682.073 8199.72 681.576 8200.03 680.962 8200.02C680.347 8200.02 679.852 8199.69 679.695 8199.27C679.796 8199.26 679.89 8199.28 679.991 8199.27L679.985 8199.26Z" fill="#F36F0D"/>
<path d="M680.555 8214.79C680.555 8214.79 679.867 8215.77 678.966 8215.32C678.06 8214.86 677.973 8213.63 677.973 8213.63C677.973 8213.63 678.299 8207.6 678.804 8207.18C679.309 8206.77 680.443 8206.48 680.443 8206.48L681.001 8207.78C681.249 8208.36 681.336 8209.01 681.252 8209.63L680.579 8214.78L680.555 8214.79Z" fill="#F36F0D"/>
<path d="M678.132 8213.84C678.132 8213.84 678.458 8207.81 678.963 8207.4C679.395 8207.04 680.293 8206.78 680.542 8206.72L680.435 8206.49C680.435 8206.49 679.312 8206.78 678.807 8207.19C678.302 8207.61 677.977 8213.64 677.977 8213.64C677.977 8213.64 678.032 8214.4 678.511 8214.95C678.191 8214.43 678.138 8213.86 678.138 8213.86L678.132 8213.84Z" fill="black"/>
<path d="M681.103 8197.42C681.244 8197.47 681.421 8197.5 681.609 8197.53L683.715 8178.02C683.736 8177.85 683.615 8177.72 683.461 8177.71C683.308 8177.69 683.158 8177.81 683.143 8177.96L681.038 8197.41C681.038 8197.41 681.08 8197.4 681.103 8197.42Z" fill="#F36F0D"/>
<path d="M680.592 8206.95L681.462 8198.89C681.256 8198.85 681.061 8198.82 680.885 8198.75L680.008 8206.89C680.008 8206.89 680.014 8206.9 680.007 8206.92C680.004 8207.07 680.12 8207.19 680.261 8207.21C680.415 8207.22 680.565 8207.11 680.58 8206.95L680.592 8206.95Z" fill="#F36F0D"/>
<path d="M683.221 8170.45C683.221 8170.45 683.909 8169.47 684.81 8169.92C685.716 8170.38 685.803 8171.61 685.803 8171.61C685.803 8171.61 685.477 8177.64 684.972 8178.06C684.467 8178.47 683.333 8178.76 683.333 8178.76L682.775 8177.46C682.527 8176.88 682.44 8176.23 682.523 8175.61L683.197 8170.46L683.221 8170.45Z" fill="#F36F0D"/>
<path d="M683.059 8177.66C682.811 8177.08 682.724 8176.43 682.808 8175.81L683.482 8170.66C683.482 8170.66 684.17 8169.68 685.071 8170.13C685.112 8170.15 685.14 8170.18 685.176 8170.19C685.066 8170.09 684.944 8169.98 684.792 8169.91C683.885 8169.45 683.203 8170.44 683.203 8170.44L682.529 8175.59C682.445 8176.21 682.532 8176.86 682.78 8177.44L683.338 8178.74C683.338 8178.74 683.398 8178.71 683.505 8178.69L683.066 8177.64L683.059 8177.66Z" fill="black"/>
</svg>
