<svg width="2145" height="4412" viewBox="0 0 2145 4412" fill="none" xmlns="http://www.w3.org/2000/svg">
<path d="M1648.72 0.5C1648.72 0.5 1780.14 175.059 1696.72 207.5C1660.72 221.5 1655.72 177.5 1686.72 173C1717.72 168.5 1773.72 196.5 1822.72 235.5C2014.14 387.856 2173.21 868.573 2139.07 1180.5C2127.91 1282.46 2037.54 1386.75 1904.06 1334C1653.56 1235 1429.06 1398.96 1302.06 1371C1175.06 1343.04 1223.56 1211 1058.56 1130C893.565 1049 480.789 1115.78 261.567 1334C42.3456 1552.22 -183.775 1833.15 241.218 2023C666.211 2212.85 693.72 2020.85 882.72 2062C1071.72 2103.15 1185.86 2193.18 1231.22 2375.5C1276.58 2557.82 1216.33 2715.95 1023.72 2842C831.112 2968.05 304.479 2739.29 276.72 2981.5C248.962 3223.71 660.22 3070 882.72 3267C1105.22 3464 995.217 4411 995.217 4411" stroke="#89B9FF" stroke-linecap="round" stroke-dasharray="12 10"/>
<path opacity="0.1" d="M1557.63 1306.92L1558.36 1312.06C1558.45 1312.68 1558.71 1313.28 1559.1 1313.78L1559.72 1314.55L1560.85 1321.39C1560.46 1321.61 1560.21 1321.95 1560.16 1322.29C1558.17 1322.86 1556.02 1323.57 1553.73 1324.46C1548.96 1326.28 1544.59 1329.01 1542.06 1330.68C1539.53 1332.35 1539.2 1332.71 1539.05 1333.2C1538.98 1333.46 1539.06 1333.91 1539.16 1334.29C1539.26 1334.69 1539.44 1335.22 1539.67 1335.45C1540.04 1335.81 1540.51 1335.94 1543.53 1336.12C1546.56 1336.31 1551.7 1336.47 1556.74 1335.66C1559.01 1335.3 1561.08 1334.86 1562.99 1334.4L1564.33 1342.54C1564.01 1342.75 1563.46 1343.12 1563.21 1343.48C1562.83 1344.02 1564.14 1349.91 1564.14 1349.91C1564.14 1349.91 1564.55 1351.08 1565.55 1351.28C1565.8 1351.32 1566.01 1351.29 1566.19 1351.21C1566.36 1351.13 1566.5 1351.01 1566.61 1350.88C1566.73 1350.74 1566.8 1350.61 1566.86 1350.51C1566.91 1350.41 1566.93 1350.34 1566.93 1350.34L1566.2 1345.2C1566.16 1344.89 1566.07 1344.58 1565.95 1344.28C1565.82 1343.99 1565.66 1343.73 1565.46 1343.48L1564.96 1342.84L1563.58 1334.52C1563.88 1334.73 1564.33 1334.81 1564.78 1334.7C1565.38 1334.53 1565.77 1334.1 1565.82 1333.64C1565.73 1333.67 1565.63 1333.7 1565.55 1333.72C1565.46 1334.02 1565.14 1334.3 1564.72 1334.42C1564.3 1334.54 1563.89 1334.46 1563.65 1334.24C1565.71 1333.71 1567.56 1333.14 1569.17 1332.55C1572.4 1331.36 1578.5 1328.9 1583.33 1325.44L1586.16 1323.32C1586.16 1323.32 1587.07 1322.61 1586.81 1321.64C1586.8 1321.63 1586.78 1321.61 1586.77 1321.6C1586.76 1321.59 1586.77 1321.56 1586.77 1321.54C1586.51 1320.55 1585.37 1320.4 1585.37 1320.4L1581.86 1319.99C1575.93 1319.43 1569.42 1320.33 1566.03 1320.94C1564.65 1321.17 1563.12 1321.52 1561.48 1321.94L1561.41 1321.52C1561.77 1321.47 1562.1 1321.55 1562.29 1321.73C1562.39 1321.7 1562.48 1321.69 1562.58 1321.66C1562.33 1321.33 1561.87 1321.17 1561.35 1321.23L1560.26 1314.67C1560.53 1314.5 1560.89 1314.24 1561.15 1313.98C1561.22 1313.92 1561.27 1313.84 1561.31 1313.78C1561.36 1313.72 1561.38 1313.56 1561.38 1313.36C1561.38 1313.25 1561.38 1313.13 1561.37 1313C1561.3 1312.06 1561.02 1310.5 1560.77 1309.25C1560.57 1308.19 1560.37 1307.36 1560.37 1307.36C1560.37 1307.36 1560.11 1306.64 1559.5 1306.24C1559.34 1306.13 1559.16 1306.05 1558.96 1306C1557.96 1305.79 1557.57 1306.94 1557.57 1306.94L1557.63 1306.92ZM1584.88 1320.99C1585.41 1320.92 1585.93 1321.24 1586.07 1321.78C1586.22 1322.32 1585.93 1322.85 1585.43 1323.06C1585.48 1323.05 1585.53 1323.06 1585.58 1323.05C1585.52 1323.07 1585.47 1323.06 1585.41 1323.06C1585.51 1322.71 1585.53 1322.33 1585.43 1321.94C1585.32 1321.56 1585.12 1321.25 1584.86 1320.99C1584.86 1320.99 1584.86 1320.99 1584.87 1320.98L1584.88 1320.99ZM1564.56 1321.37L1564.62 1321.72C1564.44 1321.77 1564.27 1321.81 1564.11 1321.87C1564.17 1321.67 1564.34 1321.51 1564.56 1321.37Z" fill="#F36F0D"/>
<path d="M1557.85 1320.52C1553.09 1322.34 1548.72 1325.07 1546.18 1326.74C1543.65 1328.42 1543.32 1328.77 1543.18 1329.26C1543.1 1329.52 1543.18 1329.98 1543.28 1330.35C1543.38 1330.75 1543.57 1331.29 1543.8 1331.51C1544.16 1331.87 1544.63 1332.01 1547.65 1332.18C1550.68 1332.37 1555.82 1332.53 1560.86 1331.72C1565.9 1330.92 1570.07 1329.8 1573.3 1328.61C1576.53 1327.41 1582.63 1324.95 1587.47 1321.49L1590.3 1319.37C1590.3 1319.37 1591.21 1318.67 1590.95 1317.68C1590.94 1317.67 1590.92 1317.65 1590.91 1317.64C1590.91 1317.63 1590.92 1317.61 1590.92 1317.59C1590.65 1316.6 1589.51 1316.45 1589.51 1316.45L1586 1316.03C1580.07 1315.47 1573.57 1316.38 1570.17 1316.98C1566.77 1317.57 1562.62 1318.69 1557.84 1320.53L1557.85 1320.52ZM1589 1317.05C1589.54 1316.98 1590.06 1317.3 1590.2 1317.85C1590.35 1318.38 1590.06 1318.91 1589.55 1319.12C1589.6 1319.11 1589.66 1319.12 1589.7 1319.11C1589.65 1319.13 1589.59 1319.12 1589.54 1319.12C1589.64 1318.77 1589.65 1318.39 1589.55 1318.01C1589.45 1317.62 1589.24 1317.31 1588.98 1317.05C1589.03 1317.02 1589.07 1316.99 1589.13 1316.97C1589.07 1316.99 1589.04 1317.01 1588.99 1317.04L1589 1317.05Z" fill="#F36F0D"/>
<path d="M1557.51 1321.48C1554.22 1322.74 1555.3 1325.52 1555.3 1325.52L1555.59 1326.62L1555.85 1327.58L1556.14 1328.68C1556.14 1328.68 1556.6 1331.63 1560.08 1331.07C1563.57 1330.51 1566.18 1330.22 1570.01 1329C1573.83 1327.78 1578.54 1325.78 1578.54 1325.78L1580.02 1325C1580.02 1325 1581.66 1324.41 1581.14 1322.49C1581.12 1322.38 1581.09 1322.29 1581.05 1322.18C1580.56 1320.37 1580.1 1318.65 1580.1 1318.65C1580.07 1318.55 1580.05 1318.45 1580.01 1318.34C1579.5 1316.42 1577.78 1316.73 1577.78 1316.73L1576.11 1316.81C1576.11 1316.81 1571.03 1317.43 1567.11 1318.29C1563.19 1319.15 1560.79 1320.21 1557.49 1321.48L1557.51 1321.48Z" fill="#F36F0D"/>
<path d="M1557.51 1321.48C1554.22 1322.74 1555.3 1325.52 1555.3 1325.52L1555.59 1326.62L1555.85 1327.58L1556.14 1328.68C1556.14 1328.68 1556.6 1331.63 1560.08 1331.07C1563.57 1330.51 1566.18 1330.22 1570.01 1329C1573.83 1327.78 1578.54 1325.78 1578.54 1325.78L1580.02 1325C1580.02 1325 1581.66 1324.41 1581.14 1322.49C1581.11 1322.39 1581.09 1322.29 1581.05 1322.18C1580.56 1320.37 1580.1 1318.65 1580.1 1318.65C1580.07 1318.55 1580.05 1318.45 1580.01 1318.34C1579.5 1316.42 1577.78 1316.73 1577.78 1316.73L1576.11 1316.81C1576.11 1316.81 1571.03 1317.43 1567.11 1318.29C1563.19 1319.15 1560.79 1320.21 1557.49 1321.48L1557.51 1321.48ZM1567.23 1318.85C1570.75 1318.07 1575.31 1317.52 1575.31 1317.52L1576.81 1317.45C1576.81 1317.45 1578.34 1317.17 1578.81 1318.89C1578.83 1318.98 1578.86 1319.08 1578.89 1319.16C1578.89 1319.16 1579.3 1320.71 1579.74 1322.34C1579.76 1322.43 1579.79 1322.52 1579.81 1322.61C1580.28 1324.34 1578.81 1324.86 1578.81 1324.86L1577.49 1325.55C1577.49 1325.55 1573.27 1327.36 1569.83 1328.46C1566.39 1329.55 1564.04 1329.81 1560.91 1330.31C1557.79 1330.82 1557.38 1328.17 1557.38 1328.17L1557.11 1327.18L1556.88 1326.33L1556.61 1325.34C1556.61 1325.34 1555.64 1322.84 1558.59 1321.71C1561.55 1320.58 1563.71 1319.63 1567.23 1318.85Z" fill="white"/>
<path d="M1559.89 1321.98C1557.33 1322.96 1558.18 1325.11 1558.18 1325.11L1558.42 1325.97L1558.62 1326.71L1558.86 1327.57C1558.86 1327.57 1559.21 1329.85 1561.91 1329.41C1564.61 1328.98 1566.64 1328.75 1569.61 1327.8C1572.58 1326.85 1576.23 1325.29 1576.23 1325.29L1577.38 1324.7C1577.38 1324.7 1578.65 1324.25 1578.25 1322.76C1578.23 1322.67 1578.2 1322.61 1578.18 1322.52C1577.8 1321.12 1577.45 1319.78 1577.45 1319.78C1577.43 1319.7 1577.4 1319.63 1577.38 1319.54C1576.98 1318.05 1575.65 1318.3 1575.65 1318.3L1574.36 1318.35C1574.36 1318.35 1570.42 1318.83 1567.37 1319.5C1564.33 1320.16 1562.46 1321 1559.9 1321.97L1559.89 1321.98Z" fill="white"/>
<path d="M1577.31 1319.44C1577.23 1319.19 1577.12 1319 1577 1318.84L1558.07 1323.93C1558.03 1324.19 1558.03 1324.42 1558.07 1324.61L1577.31 1319.44Z" fill="#F36F0D"/>
<path d="M1578.27 1323.57C1578.3 1323.38 1578.3 1323.15 1578.25 1322.9L1559 1328.07C1559.07 1328.25 1559.18 1328.46 1559.36 1328.66L1578.28 1323.57L1578.27 1323.57Z" fill="#F36F0D"/>
<path d="M1569.69 1329.78C1569.6 1330.09 1569.28 1330.36 1568.86 1330.48C1568.44 1330.6 1568.03 1330.52 1567.8 1330.3C1567.7 1330.34 1567.6 1330.36 1567.51 1330.38C1567.79 1330.74 1568.34 1330.91 1568.94 1330.76C1569.54 1330.6 1569.93 1330.17 1569.98 1329.7C1569.89 1329.73 1569.79 1329.76 1569.7 1329.78L1569.69 1329.78Z" fill="#F36F0D"/>
<path d="M1566.46 1317.78C1566.23 1317.55 1565.81 1317.48 1565.38 1317.59C1564.96 1317.71 1564.65 1317.98 1564.56 1318.27C1564.46 1318.3 1564.37 1318.33 1564.26 1318.35C1564.32 1317.9 1564.72 1317.47 1565.31 1317.3C1565.9 1317.14 1566.47 1317.33 1566.73 1317.69C1566.64 1317.72 1566.54 1317.74 1566.45 1317.77L1566.46 1317.78Z" fill="#F36F0D"/>
<path d="M1561.74 1302.97C1561.74 1302.97 1562.14 1301.84 1563.13 1302.03C1564.13 1302.23 1564.54 1303.39 1564.54 1303.39C1564.54 1303.39 1565.84 1309.29 1565.47 1309.83C1565.09 1310.36 1564.08 1310.95 1564.08 1310.95L1563.19 1309.84C1562.8 1309.35 1562.54 1308.75 1562.45 1308.13L1561.72 1302.99L1561.74 1302.97Z" fill="#F36F0D"/>
<path d="M1564.33 1303.23C1564.33 1303.23 1565.63 1309.13 1565.26 1309.67C1564.94 1310.12 1564.14 1310.62 1563.92 1310.74L1564.08 1310.93C1564.08 1310.93 1565.09 1310.36 1565.46 1309.82C1565.84 1309.29 1564.53 1303.39 1564.53 1303.39C1564.53 1303.39 1564.28 1302.67 1563.67 1302.27C1564.11 1302.68 1564.32 1303.22 1564.32 1303.22L1564.33 1303.23Z" fill="black"/>
<path d="M1565.87 1319.85C1565.73 1319.84 1565.55 1319.85 1565.36 1319.88L1568.56 1339.24C1568.59 1339.41 1568.74 1339.5 1568.89 1339.47C1569.05 1339.45 1569.16 1339.3 1569.13 1339.15L1565.94 1319.84C1565.94 1319.84 1565.9 1319.86 1565.87 1319.85Z" fill="#F36F0D"/>
<path d="M1563.81 1310.53L1565.13 1318.53C1565.34 1318.51 1565.54 1318.5 1565.73 1318.51L1564.39 1310.44C1564.39 1310.44 1564.38 1310.43 1564.38 1310.41C1564.34 1310.26 1564.2 1310.18 1564.06 1310.2C1563.91 1310.22 1563.79 1310.37 1563.82 1310.53L1563.81 1310.53Z" fill="#F36F0D"/>
<path d="M1571.07 1346.4C1571.07 1346.4 1570.67 1347.53 1569.69 1347.34C1568.69 1347.14 1568.27 1345.98 1568.27 1345.98C1568.27 1345.98 1566.97 1340.08 1567.34 1339.54C1567.72 1339.01 1568.74 1338.42 1568.74 1338.42L1569.62 1339.53C1570.02 1340.02 1570.27 1340.62 1570.36 1341.25L1571.09 1346.38L1571.07 1346.4Z" fill="#F36F0D"/>
<path d="M1569.29 1339.41C1569.69 1339.91 1569.95 1340.5 1570.03 1341.13L1570.76 1346.27C1570.76 1346.27 1570.37 1347.4 1569.38 1347.21C1569.33 1347.19 1569.3 1347.17 1569.26 1347.17C1569.39 1347.25 1569.54 1347.31 1569.71 1347.34C1570.7 1347.54 1571.09 1346.4 1571.09 1346.4L1570.36 1341.26C1570.27 1340.64 1570.02 1340.04 1569.62 1339.55L1568.73 1338.44C1568.73 1338.44 1568.68 1338.49 1568.59 1338.54L1569.29 1339.43L1569.29 1339.41Z" fill="black"/>
</svg>
