<svg width="974" height="218" viewBox="0 0 974 218" fill="none" xmlns="http://www.w3.org/2000/svg">
<path d="M1088.26 167.738C1033.12 109.869 805.499 325.009 529.427 112.87C253.355 -99.2691 6.05542 54.6786 1 57.5104" stroke="#89B9FF" stroke-dasharray="9 9"/>
<g clip-path="url(#clip0_406_3794)">
<path opacity="0.1" d="M675.128 176.519L672.876 180.428C672.6 180.902 672.455 181.45 672.46 182.002L672.469 182.864L669.573 188.15C669.19 188.089 668.839 188.187 668.619 188.394C666.952 187.719 665.101 187.053 663.058 186.432C658.817 185.127 654.365 184.65 651.732 184.438C649.1 184.226 648.689 184.292 648.322 184.552C648.134 184.688 647.945 185.043 647.811 185.349C647.666 185.678 647.506 186.146 647.543 186.42C647.599 186.866 647.847 187.21 649.821 188.95C651.795 190.703 655.229 193.566 659.109 195.716C660.86 196.686 662.511 197.5 664.065 198.204L660.621 204.496C660.286 204.466 659.709 204.427 659.347 204.537C658.803 204.702 656.535 209.44 656.535 209.44C656.535 209.44 656.195 210.457 656.769 211.13C656.916 211.295 657.081 211.39 657.244 211.428C657.407 211.466 657.568 211.458 657.716 211.427C657.864 211.397 657.988 211.345 658.078 211.306C658.168 211.267 658.223 211.229 658.223 211.229L660.476 207.321C660.614 207.084 660.716 206.825 660.794 206.557C660.861 206.289 660.894 206.023 660.891 205.747L660.89 205.034L664.407 198.6C664.503 198.906 664.759 199.204 665.136 199.369C665.629 199.574 666.131 199.491 666.415 199.201C666.333 199.17 666.251 199.14 666.181 199.109C665.959 199.27 665.592 199.288 665.239 199.145C664.887 199.002 664.655 198.726 664.606 198.452C666.3 199.195 667.871 199.794 669.286 200.252C672.138 201.166 677.635 202.753 682.798 202.975L685.872 203.039C685.872 203.039 686.873 203.046 687.212 202.235C687.211 202.224 687.21 202.201 687.21 202.19C687.209 202.178 687.231 202.165 687.242 202.153C687.592 201.331 686.889 200.619 686.889 200.619L684.71 198.451C680.953 194.891 676.013 192.024 673.366 190.616C672.29 190.038 671.065 189.455 669.713 188.868L669.892 188.537C670.164 188.696 670.348 188.928 670.383 189.156C670.465 189.187 670.536 189.229 670.618 189.259C670.623 188.903 670.398 188.546 670.007 188.313L672.776 183.239C673.053 183.26 673.433 183.275 673.753 183.236C673.833 183.232 673.913 183.205 673.969 183.191C674.038 183.176 674.136 183.079 674.244 182.935C674.298 182.864 674.363 182.78 674.427 182.685C674.887 182.006 675.527 180.789 676.029 179.798C676.459 178.959 676.77 178.288 676.77 178.288C676.77 178.288 676.98 177.657 676.777 177.057C676.723 176.899 676.646 176.742 676.535 176.598C675.961 175.925 675.081 176.499 675.081 176.499L675.128 176.519ZM686.24 200.755C686.644 200.999 686.83 201.496 686.634 201.943C686.449 202.389 685.965 202.597 685.51 202.471C685.546 202.492 685.582 202.525 685.617 202.546C685.57 202.525 685.534 202.492 685.498 202.46C685.753 202.274 685.971 202.022 686.104 201.705C686.238 201.387 686.267 201.064 686.228 200.744C686.228 200.744 686.228 200.744 686.24 200.743L686.24 200.755ZM672.122 190.127L671.975 190.399C671.834 190.337 671.693 190.275 671.552 190.224C671.697 190.125 671.903 190.103 672.122 190.127Z" fill="#FF8A34"/>
<path d="M668.459 182.456C664.219 181.152 659.767 180.675 657.134 180.462C654.501 180.25 654.091 180.317 653.724 180.577C653.536 180.713 653.346 181.067 653.212 181.373C653.068 181.702 652.908 182.17 652.944 182.445C653.001 182.89 653.249 183.234 655.223 184.975C657.197 186.727 660.63 189.59 664.511 191.741C668.392 193.891 671.847 195.362 674.699 196.276C677.551 197.19 683.048 198.776 688.212 198.999L691.286 199.063C691.286 199.063 692.287 199.07 692.637 198.259C692.636 198.247 692.635 198.224 692.634 198.213C692.634 198.201 692.656 198.189 692.667 198.177C693.017 197.354 692.314 196.642 692.314 196.642L690.134 194.475C686.378 190.915 681.438 188.047 678.791 186.639C676.143 185.22 672.7 183.761 668.448 182.457L668.459 182.456ZM691.642 196.779C692.045 197.023 692.231 197.52 692.035 197.967C691.851 198.413 691.367 198.622 690.912 198.495C690.948 198.516 690.984 198.549 691.019 198.57C690.972 198.55 690.936 198.517 690.9 198.484C691.155 198.299 691.372 198.046 691.506 197.729C691.639 197.412 691.669 197.088 691.63 196.768C691.676 196.778 691.722 196.775 691.769 196.796C691.722 196.775 691.688 196.777 691.641 196.768L691.642 196.779Z" fill="#FF8A34"/>
<path d="M667.712 182.934C664.78 182.035 664.03 184.511 664.03 184.511L663.64 185.428L663.3 186.215L662.909 187.132C662.909 187.132 661.643 189.393 664.328 190.879C667.014 192.365 668.961 193.566 672.231 194.782C675.5 195.997 679.802 197.149 679.802 197.149L681.23 197.41C681.23 197.41 682.669 197.89 683.347 196.292C683.389 196.209 683.419 196.127 683.449 196.033C684.087 194.529 684.693 193.107 684.693 193.107C684.724 193.025 684.766 192.942 684.795 192.849C685.474 191.262 684.127 190.548 684.127 190.548L682.947 189.71C682.947 189.71 679.139 187.407 675.992 185.898C672.845 184.389 670.632 183.822 667.7 182.923L667.712 182.934Z" fill="#FF8A34"/>
<path d="M667.712 182.934C664.78 182.035 664.03 184.511 664.03 184.511L663.64 185.428L663.3 186.215L662.909 187.132C662.909 187.132 661.643 189.393 664.328 190.879C667.014 192.365 668.961 193.566 672.231 194.782C675.5 195.997 679.802 197.149 679.802 197.149L681.23 197.41C681.23 197.41 682.669 197.89 683.347 196.292C683.378 196.21 683.419 196.127 683.449 196.033C684.087 194.529 684.693 193.107 684.693 193.107C684.724 193.025 684.766 192.942 684.795 192.849C685.474 191.262 684.127 190.548 684.127 190.548L682.947 189.71C682.947 189.71 679.139 187.407 675.992 185.898C672.845 184.389 670.632 183.822 667.7 182.923L667.712 182.934ZM675.773 186.346C678.601 187.698 682.018 189.769 682.018 189.769L683.079 190.52C683.079 190.52 684.284 191.15 683.678 192.583C683.647 192.654 683.617 192.736 683.586 192.806C683.586 192.806 683.041 194.087 682.465 195.439C682.434 195.51 682.403 195.592 682.373 195.662C681.766 197.096 680.479 196.666 680.479 196.666L679.203 196.432C679.203 196.432 675.344 195.407 672.402 194.313C669.461 193.219 667.715 192.134 665.302 190.807C662.889 189.479 664.029 187.444 664.029 187.444L664.378 186.621L664.676 185.916L665.026 185.093C665.026 185.093 665.696 182.863 668.324 183.673C670.953 184.484 672.945 184.993 675.773 186.346Z" fill="white"/>
<path d="M669.068 184.55C666.79 183.848 666.22 185.775 666.22 185.775L665.923 186.491L665.666 187.102L665.369 187.819C665.369 187.819 664.388 189.57 666.47 190.719C668.552 191.868 670.059 192.804 672.602 193.745C675.146 194.686 678.48 195.576 678.48 195.576L679.583 195.785C679.583 195.785 680.694 196.155 681.218 194.921C681.249 194.85 681.269 194.792 681.3 194.721C681.794 193.558 682.267 192.453 682.267 192.453C682.298 192.382 682.318 192.324 682.349 192.253C682.873 191.019 681.834 190.474 681.834 190.474L680.915 189.818C680.915 189.818 677.961 188.035 675.522 186.858C673.082 185.682 671.358 185.251 669.08 184.549L669.068 184.55Z" fill="white"/>
<path d="M682.356 192.149C682.437 191.938 682.462 191.741 682.465 191.569L666.776 184.907C666.611 185.065 666.492 185.22 666.408 185.374L682.356 192.149Z" fill="#FF8A34"/>
<path d="M680.803 195.494C680.923 195.373 681.042 195.218 681.147 195.017L665.199 188.242C665.15 188.405 665.114 188.603 665.125 188.832L680.815 195.494L680.803 195.494Z" fill="#FF8A34"/>
<path d="M671.594 195.14C671.372 195.301 671.005 195.32 670.652 195.176C670.3 195.033 670.068 194.757 670.019 194.484C669.937 194.453 669.855 194.411 669.784 194.381C669.781 194.783 670.067 195.194 670.561 195.411C671.054 195.616 671.556 195.533 671.84 195.243C671.758 195.213 671.676 195.182 671.606 195.151L671.594 195.14Z" fill="#FF8A34"/>
<path d="M675.82 185.187C675.783 184.912 675.539 184.637 675.186 184.483C674.834 184.339 674.479 184.357 674.256 184.506C674.174 184.476 674.092 184.446 674.009 184.404C674.294 184.125 674.796 184.042 675.29 184.247C675.783 184.452 676.069 184.887 676.055 185.278C675.973 185.248 675.901 185.206 675.819 185.175L675.82 185.187Z" fill="#FF8A34"/>
<path d="M680.537 172.528C680.537 172.528 681.417 171.966 681.991 172.627C682.565 173.3 682.225 174.317 682.225 174.317C682.225 174.317 679.957 179.055 679.413 179.22C678.87 179.386 677.862 179.241 677.862 179.241L677.846 178.011C677.841 177.46 677.986 176.912 678.261 176.438L680.514 172.529L680.537 172.528Z" fill="#FF8A34"/>
<path d="M682.169 174.091C682.169 174.091 679.9 178.828 679.357 178.994C678.892 179.132 678.083 179.046 677.863 179.011L677.874 179.229C677.874 179.229 678.87 179.375 679.414 179.209C679.957 179.044 682.226 174.306 682.226 174.306C682.226 174.306 682.435 173.675 682.233 173.075C682.317 173.6 682.168 174.079 682.168 174.079L682.169 174.091Z" fill="black"/>
<path d="M674.314 186.302C674.218 186.215 674.087 186.13 673.945 186.045L665.763 201.017C665.69 201.147 665.743 201.294 665.861 201.357C665.979 201.42 666.138 201.378 666.201 201.259L674.362 186.334C674.362 186.334 674.327 186.325 674.314 186.302Z" fill="#FF8A34"/>
<path d="M677.895 178.818L674.515 185.003C674.669 185.099 674.812 185.195 674.933 185.304L678.344 179.06C678.344 179.06 678.344 179.048 678.355 179.036C678.406 178.919 678.353 178.783 678.247 178.72C678.128 178.657 677.97 178.699 677.907 178.817L677.895 178.818Z" fill="#FF8A34"/>
<path d="M663.64 207.262C663.64 207.262 662.759 207.824 662.185 207.163C661.611 206.49 661.951 205.473 661.951 205.473C661.951 205.473 664.219 200.735 664.763 200.57C665.307 200.404 666.314 200.549 666.314 200.549L666.33 201.779C666.335 202.33 666.19 202.878 665.915 203.352L663.662 207.261L663.64 207.262Z" fill="#FF8A34"/>
<path d="M666.171 201.527C666.175 202.078 666.031 202.626 665.755 203.1L663.503 207.009C663.503 207.009 662.622 207.571 662.049 206.91C662.024 206.876 662.011 206.843 661.987 206.821C662.039 206.945 662.103 207.068 662.2 207.178C662.775 207.851 663.654 207.277 663.654 207.277L665.907 203.369C666.182 202.895 666.327 202.347 666.322 201.795L666.306 200.565C666.306 200.565 666.249 200.568 666.156 200.55L666.16 201.539L666.171 201.527Z" fill="black"/>
</g>
<defs>
<clipPath id="clip0_406_3794">
<rect width="37.9156" height="44.6005" fill="white" transform="translate(648.828 211.91) rotate(-92.8852)"/>
</clipPath>
</defs>
</svg>
