<svg width="1661" height="1953" viewBox="0 0 1661 1953" fill="none" xmlns="http://www.w3.org/2000/svg">
<path d="M1 0.500977C1 0.500977 123.022 34.5561 154 129.501C184.978 224.446 14 459.5 154 529.501C294 599.502 636.5 -155.5 890.5 274.5C1144.5 704.5 1618.47 12.7247 1658.5 159.501C1678.65 233.385 1445 288.502 1320.5 423.001C1196 557.5 1246.5 1148.5 1196 1345C1145.5 1541.5 956.5 1952 956.5 1952" stroke="#89B9FF" stroke-linecap="round" stroke-dasharray="12 10"/>
<path opacity="0.1" d="M96.8561 328.112L101.656 330.081C102.239 330.322 102.885 330.403 103.513 330.313L104.495 330.171L110.964 332.663C110.953 333.108 111.119 333.494 111.388 333.713C110.874 335.716 110.398 337.928 110.003 340.353C109.165 345.386 109.303 350.533 109.464 353.566C109.626 356.6 109.765 357.058 110.117 357.436C110.301 357.63 110.734 357.791 111.103 357.897C111.5 358.011 112.059 358.122 112.365 358.038C112.865 357.905 113.219 357.571 114.901 355.054C116.595 352.536 119.333 348.184 121.19 343.431C122.027 341.287 122.702 339.28 123.266 337.402L130.965 340.363C130.983 340.75 131.026 341.413 131.207 341.81C131.479 342.404 137.227 344.264 137.227 344.264C137.227 344.264 138.439 344.495 139.117 343.738C139.283 343.546 139.366 343.342 139.384 343.151C139.402 342.959 139.369 342.777 139.311 342.613C139.254 342.449 139.175 342.316 139.117 342.219C139.059 342.123 139.008 342.065 139.008 342.065L134.207 340.096C133.916 339.976 133.606 339.899 133.288 339.851C132.973 339.815 132.664 339.819 132.35 339.864L131.538 339.975L123.666 336.951C124 336.795 124.3 336.457 124.43 336.003C124.589 335.409 124.417 334.85 124.043 334.57C124.021 334.668 123.999 334.766 123.974 334.851C124.192 335.08 124.269 335.495 124.159 335.919C124.05 336.342 123.771 336.649 123.467 336.746C124.054 334.702 124.497 332.82 124.802 331.137C125.407 327.746 126.373 321.238 125.836 315.318L125.438 311.805C125.438 311.805 125.293 310.663 124.317 310.401C124.304 310.403 124.278 310.408 124.265 310.411C124.252 310.413 124.234 310.39 124.219 310.379C123.228 310.107 122.524 311.017 122.524 311.017L120.387 313.833C116.905 318.659 114.393 324.729 113.194 327.962C112.699 329.277 112.223 330.763 111.761 332.394L111.356 332.241C111.495 331.906 111.732 331.66 111.987 331.586C112.009 331.488 112.046 331.4 112.068 331.302C111.661 331.351 111.289 331.662 111.083 332.144L104.876 329.764C104.857 329.446 104.816 329.01 104.722 328.651C104.706 328.56 104.663 328.474 104.638 328.411C104.61 328.336 104.485 328.238 104.305 328.137C104.215 328.087 104.109 328.026 103.991 327.967C103.147 327.547 101.662 327.003 100.455 326.583C99.4336 326.222 98.6209 325.97 98.6209 325.97C98.6209 325.97 97.8689 325.828 97.2168 326.151C97.0447 326.236 96.8773 326.348 96.7303 326.496C96.0516 327.254 96.8398 328.169 96.8398 328.169L96.8561 328.112ZM122.778 311.735C122.995 311.238 123.533 310.95 124.072 311.105C124.609 311.247 124.921 311.767 124.846 312.305C124.865 312.261 124.896 312.215 124.915 312.171C124.899 312.228 124.867 312.274 124.835 312.32C124.585 312.058 124.264 311.849 123.882 311.745C123.5 311.641 123.127 311.657 122.768 311.751C122.768 311.751 122.768 311.751 122.765 311.738L122.778 311.735ZM112.826 329.455L113.159 329.581C113.11 329.751 113.061 329.922 113.025 330.089C112.89 329.94 112.833 329.709 112.826 329.455Z" fill="#F36F0D"/>
<path d="M108.695 334.805C107.857 339.838 107.995 344.986 108.156 348.019C108.318 351.053 108.456 351.51 108.809 351.888C108.993 352.082 109.426 352.244 109.795 352.35C110.192 352.464 110.751 352.575 111.057 352.491C111.557 352.358 111.911 352.023 113.593 349.507C115.287 346.988 118.025 342.636 119.882 337.884C121.739 333.131 122.886 328.968 123.491 325.577C124.097 322.186 125.063 315.677 124.526 309.758L124.128 306.245C124.128 306.245 123.983 305.103 123.004 304.828C122.991 304.83 122.965 304.835 122.952 304.837C122.939 304.84 122.922 304.816 122.906 304.806C121.915 304.533 121.211 305.443 121.211 305.443L119.074 308.259C115.592 313.086 113.08 319.156 111.881 322.389C110.669 325.624 109.532 329.772 108.697 334.818L108.695 334.805ZM121.47 306.188C121.687 305.691 122.224 305.403 122.764 305.558C123.301 305.7 123.613 306.219 123.538 306.757C123.557 306.714 123.588 306.667 123.607 306.624C123.591 306.68 123.559 306.727 123.527 306.773C123.277 306.51 122.956 306.301 122.574 306.198C122.192 306.094 121.819 306.11 121.46 306.203C121.463 306.149 121.453 306.097 121.47 306.04C121.453 306.097 121.461 306.136 121.457 306.19L121.47 306.188Z" fill="#F36F0D"/>
<path d="M109.351 335.583C108.775 339.063 111.712 339.538 111.712 339.538L112.817 339.843L113.767 340.109L114.872 340.414C114.872 340.414 117.642 341.512 118.925 338.223C120.208 334.934 121.279 332.531 122.163 328.618C123.048 324.705 123.702 319.625 123.702 319.625L123.781 317.958C123.781 317.958 124.108 316.245 122.182 315.716C122.081 315.681 121.983 315.659 121.872 315.639C120.06 315.143 118.346 314.669 118.346 314.669C118.248 314.647 118.147 314.612 118.036 314.593C116.124 314.062 115.516 315.706 115.516 315.706L114.742 317.181C114.742 317.181 112.699 321.874 111.461 325.691C110.223 329.509 109.916 332.119 109.34 335.599L109.351 335.583Z" fill="#F36F0D"/>
<path d="M109.351 335.583C108.775 339.063 111.712 339.538 111.712 339.538L112.817 339.843L113.767 340.109L114.872 340.414C114.872 340.414 117.642 341.512 118.925 338.223C120.208 334.934 121.279 332.531 122.163 328.618C123.048 324.705 123.702 319.625 123.702 319.625L123.781 317.958C123.781 317.958 124.108 316.245 122.182 315.716C122.084 315.694 121.983 315.659 121.872 315.639C120.06 315.143 118.346 314.669 118.346 314.669C118.248 314.647 118.147 314.612 118.036 314.593C116.124 314.062 115.516 315.706 115.516 315.706L114.742 317.181C114.742 317.181 112.699 321.874 111.461 325.691C110.223 329.509 109.916 332.119 109.34 335.599L109.351 335.583ZM112.005 325.872C113.114 322.441 114.951 318.23 114.951 318.23L115.645 316.905C115.645 316.905 116.178 315.436 117.904 315.907C117.99 315.932 118.088 315.954 118.173 315.978C118.173 315.978 119.717 316.403 121.345 316.852C121.43 316.877 121.529 316.899 121.614 316.923C123.341 317.395 123.048 318.927 123.048 318.927L122.976 320.419C122.976 320.419 122.399 324.973 121.603 328.494C120.807 332.015 119.837 334.17 118.693 337.124C117.55 340.078 115.055 339.09 115.055 339.09L114.064 338.818L113.215 338.586L112.224 338.314C112.224 338.314 109.579 337.892 110.1 334.772C110.622 331.652 110.897 329.303 112.005 325.872Z" fill="white"/>
<path d="M110.992 333.787C110.541 336.491 112.824 336.846 112.824 336.846L113.686 337.075L114.422 337.274L115.284 337.503C115.284 337.503 117.431 338.354 118.421 335.805C119.412 333.256 120.248 331.394 120.931 328.351C121.615 325.308 122.119 321.372 122.119 321.372L122.188 320.082C122.188 320.082 122.439 318.759 120.952 318.35C120.867 318.326 120.797 318.312 120.712 318.288C119.311 317.903 117.979 317.533 117.979 317.533C117.894 317.509 117.824 317.495 117.739 317.47C116.252 317.061 115.789 318.33 115.789 318.33L115.183 319.477C115.183 319.477 113.603 323.117 112.635 326.078C111.668 329.039 111.441 331.07 110.99 333.774L110.992 333.787Z" fill="white"/>
<path d="M117.616 317.48C117.363 317.419 117.135 317.421 116.938 317.445L111.747 336.347C111.952 336.511 112.148 336.622 112.336 336.695L117.616 317.48Z" fill="#F36F0D"/>
<path d="M121.669 318.74C121.512 318.621 121.317 318.51 121.072 318.421L115.792 337.636C115.986 337.667 116.216 337.678 116.476 337.63L121.666 318.727L121.669 318.74Z" fill="#F36F0D"/>
<path d="M122.676 329.289C122.893 329.518 122.97 329.933 122.861 330.357C122.752 330.78 122.473 331.087 122.169 331.184C122.147 331.282 122.111 331.383 122.087 331.468C122.546 331.409 122.971 331.021 123.143 330.425C123.301 329.831 123.13 329.272 122.755 328.992C122.733 329.091 122.711 329.189 122.687 329.274L122.676 329.289Z" fill="#F36F0D"/>
<path d="M110.686 325.997C110.379 326.081 110.103 326.401 109.98 326.826C109.871 327.25 109.946 327.653 110.15 327.883C110.128 327.981 110.106 328.08 110.071 328.18C109.709 327.898 109.538 327.339 109.697 326.745C109.855 326.151 110.306 325.758 110.755 325.715C110.732 325.813 110.695 325.901 110.673 325.999L110.686 325.997Z" fill="#F36F0D"/>
<path d="M95.5317 322.57C95.5317 322.57 94.7565 321.652 95.4221 320.897C96.1008 320.139 97.3128 320.371 97.3128 320.371C97.3128 320.371 103.06 322.231 103.332 322.825C103.604 323.419 103.593 324.59 103.593 324.59L102.194 324.797C101.566 324.887 100.919 324.806 100.337 324.565L95.5365 322.596L95.5317 322.57Z" fill="#F36F0D"/>
<path d="M97.066 320.47C97.066 320.47 102.813 322.33 103.085 322.924C103.314 323.432 103.34 324.368 103.334 324.624L103.581 324.579C103.581 324.579 103.594 323.421 103.322 322.826C103.05 322.232 97.3031 320.372 97.3031 320.372C97.3031 320.372 96.5511 320.23 95.899 320.552C96.4843 320.376 97.053 320.472 97.053 320.472L97.066 320.47Z" fill="black"/>
<path d="M112.179 327.549C112.095 327.672 112.017 327.834 111.943 328.009L130.261 335.042C130.421 335.106 130.58 335.023 130.634 334.878C130.687 334.734 130.615 334.559 130.47 334.506L112.209 327.489C112.209 327.489 112.203 327.531 112.179 327.549Z" fill="#F36F0D"/>
<path d="M103.101 324.614L110.669 327.519C110.754 327.329 110.842 327.151 110.948 326.997L103.308 324.065C103.308 324.065 103.295 324.067 103.28 324.057C103.138 324.016 102.992 324.097 102.936 324.228C102.882 324.372 102.955 324.547 103.099 324.601L103.101 324.614Z" fill="#F36F0D"/>
<path d="M137.708 336.505C137.708 336.505 138.483 337.422 137.818 338.177C137.139 338.935 135.927 338.703 135.927 338.703C135.927 338.703 130.18 336.843 129.908 336.249C129.636 335.655 129.647 334.484 129.647 334.484L131.046 334.277C131.674 334.187 132.321 334.269 132.903 334.51L137.703 336.479L137.708 336.505Z" fill="#F36F0D"/>
<path d="M130.779 334.501C131.408 334.411 132.054 334.492 132.636 334.734L137.437 336.703C137.437 336.703 138.212 337.62 137.546 338.375C137.512 338.408 137.476 338.429 137.454 338.459C137.588 338.381 137.718 338.289 137.829 338.161C138.508 337.404 137.719 336.489 137.719 336.489L132.919 334.52C132.337 334.279 131.69 334.197 131.062 334.287L129.663 334.494C129.663 334.494 129.675 334.559 129.668 334.668L130.795 334.512L130.779 334.501Z" fill="black"/>
</svg>
