<svg width="1879" height="4608" viewBox="0 0 1879 4608" fill="none" xmlns="http://www.w3.org/2000/svg">
<path d="M782.074 0.97998C750.224 215.34 932.524 309.17 1117.85 267.45C1315.45 242.48 1555.71 105.88 1720.75 280.06C1902.19 461.5 1846.17 665.5 1788.05 766.16C1752.69 824.03 1696.87 886.45 1615.97 888.41C1507.15 891.04 1393.42 848.77 1288.41 819.2C1151.48 780.64 1010.51 791.74 896.434 858.45C796.524 916.87 764.394 1059.97 837.044 1150.16C907.464 1237.59 992.954 1261.54 1105.04 1263.16C1219.96 1264.83 1331.06 1202.24 1450.96 1194.93C1562.04 1188.16 1748.16 1134.46 1788.05 1375.5C1827.94 1616.54 1567.67 1897.79 1402.5 1957.5C1237.33 2017.21 666.084 1963.22 536.294 2058C406.504 2152.78 191.794 1912.82 78.7942 2166.16C-34.2058 2419.5 234.794 2542.5 468.794 2583C702.794 2623.5 600.544 2722.5 837.044 2735C1073.54 2747.5 1207.94 2572.5 1338.71 2799C1408.28 2919.49 1458.48 3014 1609.92 3014C1751.92 3014 1898.92 3166.5 1875.42 3374C1851.92 3581.5 1633.08 3687.93 1451.42 3696C911.417 3720 302.91 3175 78.7942 3578.5C-145.321 3982 165.179 4421 375.179 4607.5" stroke="#89B9FF" stroke-linecap="round" stroke-dasharray="12 10"/>
<path opacity="0.1" d="M1311.89 238.837L1311.48 233.666C1311.43 233.037 1311.21 232.424 1310.85 231.904L1310.28 231.093L1309.57 224.196C1309.98 224.005 1310.24 223.682 1310.32 223.344C1312.34 222.896 1314.53 222.321 1316.87 221.577C1321.74 220.049 1326.26 217.599 1328.9 216.084C1331.53 214.569 1331.88 214.239 1332.05 213.753C1332.14 213.502 1332.09 213.042 1332.02 212.665C1331.94 212.259 1331.79 211.711 1331.57 211.475C1331.23 211.09 1330.77 210.925 1327.77 210.563C1324.75 210.19 1319.63 209.715 1314.56 210.207C1312.26 210.429 1310.17 210.734 1308.24 211.08L1307.4 202.874C1307.74 202.683 1308.31 202.345 1308.58 202.004C1308.99 201.493 1308.05 195.526 1308.05 195.526C1308.05 195.526 1307.71 194.34 1306.73 194.077C1306.48 194.016 1306.26 194.034 1306.08 194.105C1305.9 194.175 1305.76 194.287 1305.64 194.413C1305.51 194.538 1305.43 194.668 1305.37 194.764C1305.31 194.859 1305.28 194.931 1305.28 194.931L1305.7 200.103C1305.72 200.417 1305.79 200.728 1305.89 201.034C1306 201.331 1306.15 201.605 1306.33 201.864L1306.8 202.539L1307.66 210.927C1307.37 210.7 1306.93 210.585 1306.47 210.674C1305.86 210.802 1305.44 211.207 1305.36 211.668C1305.46 211.643 1305.56 211.618 1305.64 211.602C1305.75 211.305 1306.09 211.048 1306.51 210.954C1306.94 210.86 1307.34 210.97 1307.56 211.198C1305.48 211.598 1303.6 212.054 1301.96 212.543C1298.66 213.536 1292.42 215.616 1287.38 218.771L1284.43 220.714C1284.43 220.714 1283.47 221.36 1283.68 222.349C1283.69 222.359 1283.7 222.38 1283.71 222.39C1283.72 222.401 1283.71 222.428 1283.7 222.446C1283.91 223.453 1285.04 223.67 1285.04 223.67L1288.52 224.303C1294.4 225.227 1300.95 224.724 1304.37 224.332C1305.77 224.179 1307.31 223.932 1308.97 223.607L1309.02 224.037C1308.66 224.065 1308.33 223.965 1308.15 223.771C1308.05 223.796 1307.96 223.802 1307.86 223.827C1308.09 224.168 1308.53 224.359 1309.06 224.325L1309.74 230.937C1309.46 231.098 1309.09 231.331 1308.82 231.577C1308.74 231.633 1308.69 231.71 1308.64 231.761C1308.59 231.82 1308.56 231.976 1308.55 232.182C1308.54 232.285 1308.54 232.407 1308.54 232.539C1308.54 233.482 1308.73 235.052 1308.9 236.319C1309.04 237.393 1309.18 238.232 1309.18 238.232C1309.18 238.232 1309.4 238.967 1309.98 239.402C1310.13 239.517 1310.31 239.616 1310.51 239.68C1311.49 239.943 1311.95 238.826 1311.95 238.826L1311.89 238.837ZM1285.57 223.118C1285.02 223.15 1284.52 222.8 1284.42 222.249C1284.3 221.706 1284.63 221.193 1285.14 221.016C1285.09 221.019 1285.04 221.012 1284.99 221.015C1285.05 221.004 1285.1 221.011 1285.16 221.019C1285.04 221.361 1285 221.742 1285.08 222.129C1285.16 222.517 1285.34 222.843 1285.58 223.12C1285.58 223.12 1285.58 223.12 1285.57 223.129L1285.57 223.118ZM1305.87 223.985L1305.83 223.632C1306.01 223.598 1306.18 223.565 1306.35 223.521C1306.27 223.709 1306.09 223.864 1305.87 223.985Z" fill="#F36F0D"/>
<path d="M1314.33 228.866C1319.2 227.338 1323.73 224.888 1326.36 223.373C1328.99 221.858 1329.34 221.527 1329.52 221.042C1329.61 220.79 1329.55 220.331 1329.48 219.954C1329.4 219.548 1329.25 219 1329.04 218.764C1328.69 218.379 1328.23 218.214 1325.23 217.852C1322.22 217.479 1317.1 217.004 1312.02 217.496C1306.94 217.988 1302.71 218.847 1299.41 219.84C1296.11 220.833 1289.87 222.913 1284.83 226.067L1281.88 228.011C1281.88 228.011 1280.92 228.657 1281.12 229.654C1281.13 229.664 1281.15 229.685 1281.15 229.695C1281.16 229.706 1281.15 229.733 1281.15 229.751C1281.35 230.758 1282.48 230.975 1282.48 230.975L1285.96 231.608C1291.84 232.532 1298.39 232.029 1301.81 231.637C1305.25 231.256 1309.46 230.395 1314.34 228.858L1314.33 228.866ZM1283.03 230.407C1282.49 230.438 1281.99 230.089 1281.88 229.538C1281.77 228.995 1282.09 228.482 1282.6 228.305C1282.55 228.308 1282.5 228.301 1282.45 228.304C1282.51 228.293 1282.56 228.3 1282.62 228.308C1282.5 228.65 1282.46 229.031 1282.54 229.418C1282.62 229.806 1282.8 230.132 1283.05 230.409C1283 230.431 1282.95 230.463 1282.9 230.474C1282.95 230.463 1282.99 230.439 1283.04 230.417L1283.03 230.407Z" fill="#F36F0D"/>
<path d="M1314.73 227.929C1318.09 226.87 1317.19 224.035 1317.19 224.035L1316.96 222.912L1316.77 221.944L1316.54 220.821C1316.54 220.821 1316.27 217.854 1312.76 218.196C1309.24 218.538 1306.61 218.669 1302.72 219.649C1298.83 220.629 1294.01 222.342 1294.01 222.342L1292.48 223.025C1292.48 223.025 1290.81 223.508 1291.21 225.465C1291.22 225.57 1291.25 225.668 1291.28 225.776C1291.66 227.616 1292.01 229.359 1292.01 229.359C1292.03 229.457 1292.05 229.563 1292.08 229.671C1292.47 231.617 1294.21 231.415 1294.21 231.415L1295.88 231.439C1295.88 231.439 1300.99 231.14 1304.95 230.518C1308.92 229.897 1311.38 228.991 1314.75 227.932L1314.73 227.929Z" fill="#F36F0D"/>
<path d="M1314.73 227.929C1318.09 226.87 1317.19 224.035 1317.19 224.035L1316.96 222.912L1316.77 221.944L1316.54 220.821C1316.54 220.821 1316.27 217.854 1312.76 218.196C1309.24 218.538 1306.61 218.669 1302.72 219.649C1298.83 220.629 1294.01 222.342 1294.01 222.342L1292.48 223.025C1292.48 223.025 1290.81 223.508 1291.21 225.465C1291.23 225.562 1291.25 225.668 1291.28 225.776C1291.66 227.616 1292.01 229.359 1292.01 229.359C1292.03 229.457 1292.05 229.563 1292.08 229.671C1292.47 231.617 1294.21 231.415 1294.21 231.415L1295.88 231.439C1295.88 231.439 1300.99 231.14 1304.95 230.518C1308.92 229.897 1311.38 228.991 1314.75 227.932L1314.73 227.929ZM1304.87 229.951C1301.3 230.513 1296.72 230.779 1296.72 230.779L1295.22 230.758C1295.22 230.758 1293.67 230.947 1293.31 229.194C1293.29 229.107 1293.27 229.009 1293.25 228.922C1293.25 228.922 1292.93 227.353 1292.6 225.697C1292.58 225.61 1292.56 225.513 1292.54 225.426C1292.18 223.672 1293.68 223.241 1293.68 223.241L1295.04 222.631C1295.04 222.631 1299.37 221.086 1302.87 220.205C1306.37 219.324 1308.73 219.214 1311.88 218.899C1315.03 218.584 1315.28 221.255 1315.28 221.255L1315.48 222.263L1315.66 223.125L1315.87 224.132C1315.87 224.132 1316.68 226.682 1313.67 227.627C1310.65 228.573 1308.43 229.389 1304.87 229.951Z" fill="white"/>
<path d="M1312.38 227.277C1315 226.457 1314.28 224.261 1314.28 224.261L1314.1 223.388L1313.94 222.642L1313.76 221.769C1313.76 221.769 1313.55 219.47 1310.83 219.739C1308.1 220.007 1306.07 220.103 1303.04 220.869C1300.02 221.635 1296.28 222.965 1296.28 222.965L1295.1 223.486C1295.1 223.486 1293.8 223.86 1294.11 225.371C1294.13 225.458 1294.15 225.527 1294.16 225.614C1294.46 227.038 1294.73 228.393 1294.73 228.393C1294.74 228.48 1294.76 228.549 1294.78 228.636C1295.09 230.147 1296.43 229.986 1296.43 229.986L1297.73 230.008C1297.73 230.008 1301.69 229.772 1304.76 229.297C1307.84 228.821 1309.76 228.105 1312.37 227.285L1312.38 227.277Z" fill="white"/>
<path d="M1294.84 228.74C1294.9 228.993 1295.01 229.196 1295.12 229.361L1314.32 225.446C1314.38 225.189 1314.39 224.965 1314.37 224.764L1294.84 228.74Z" fill="#F36F0D"/>
<path d="M1294.14 224.555C1294.1 224.749 1294.09 224.973 1294.12 225.232L1313.65 221.256C1313.59 221.069 1313.49 220.858 1313.33 220.649L1294.13 224.564L1294.14 224.555Z" fill="#F36F0D"/>
<path d="M1303.09 218.889C1303.19 218.592 1303.53 218.335 1303.96 218.241C1304.38 218.147 1304.78 218.257 1305.01 218.485C1305.11 218.46 1305.21 218.446 1305.3 218.429C1305.04 218.046 1304.5 217.842 1303.89 217.959C1303.29 218.086 1302.87 218.492 1302.79 218.952C1302.89 218.928 1302.98 218.903 1303.07 218.886L1303.09 218.889Z" fill="#F36F0D"/>
<path d="M1305.57 231.073C1305.79 231.308 1306.2 231.41 1306.63 231.327C1307.06 231.233 1307.39 230.984 1307.5 230.698C1307.6 230.673 1307.69 230.648 1307.8 230.634C1307.71 231.084 1307.29 231.49 1306.69 231.617C1306.09 231.744 1305.53 231.519 1305.29 231.139C1305.39 231.114 1305.48 231.108 1305.58 231.083L1305.57 231.073Z" fill="#F36F0D"/>
<path d="M1309.37 246.139C1309.37 246.139 1308.9 247.245 1307.93 246.993C1306.94 246.73 1306.6 245.544 1306.6 245.544C1306.6 245.544 1305.66 239.577 1306.07 239.066C1306.48 238.555 1307.53 238.035 1307.53 238.035L1308.34 239.19C1308.71 239.709 1308.93 240.323 1308.98 240.951L1309.39 246.123L1309.37 246.139Z" fill="#F36F0D"/>
<path d="M1306.8 245.719C1306.8 245.719 1305.86 239.752 1306.27 239.241C1306.62 238.807 1307.44 238.36 1307.67 238.25L1307.52 238.051C1307.52 238.051 1306.48 238.562 1306.07 239.074C1305.67 239.585 1306.61 245.552 1306.61 245.552C1306.61 245.552 1306.82 246.287 1307.4 246.723C1306.98 246.28 1306.81 245.73 1306.81 245.73L1306.8 245.719Z" fill="black"/>
<path d="M1306.28 229.039C1306.43 229.058 1306.61 229.054 1306.8 229.042L1304.79 209.523C1304.78 209.351 1304.63 209.247 1304.48 209.264C1304.32 209.282 1304.2 209.425 1304.22 209.578L1306.21 229.039C1306.21 229.039 1306.25 229.026 1306.28 229.039Z" fill="#F36F0D"/>
<path d="M1307.76 238.463L1306.94 230.399C1306.73 230.409 1306.53 230.411 1306.34 230.386L1307.18 238.526C1307.18 238.526 1307.19 238.537 1307.19 238.555C1307.21 238.701 1307.35 238.794 1307.5 238.785C1307.65 238.768 1307.77 238.624 1307.75 238.471L1307.76 238.463Z" fill="#F36F0D"/>
<path d="M1302.73 202.219C1302.73 202.219 1303.2 201.113 1304.18 201.365C1305.16 201.628 1305.5 202.814 1305.5 202.814C1305.5 202.814 1306.44 208.781 1306.03 209.292C1305.63 209.803 1304.58 210.323 1304.58 210.323L1303.76 209.168C1303.39 208.649 1303.18 208.035 1303.13 207.407L1302.71 202.235L1302.73 202.219Z" fill="#F36F0D"/>
<path d="M1304.08 209.305C1303.71 208.785 1303.49 208.171 1303.44 207.543L1303.03 202.371C1303.03 202.371 1303.5 201.265 1304.47 201.517C1304.52 201.533 1304.55 201.556 1304.59 201.561C1304.46 201.478 1304.32 201.403 1304.15 201.362C1303.17 201.099 1302.71 202.216 1302.71 202.216L1303.12 207.388C1303.17 208.016 1303.39 208.629 1303.76 209.149L1304.57 210.304C1304.57 210.304 1304.63 210.264 1304.73 210.221L1304.08 209.286L1304.08 209.305Z" fill="black"/>
<path opacity="0.1" d="M924.561 2746.76L924.539 2741.57C924.538 2740.94 924.365 2740.32 924.041 2739.77L923.533 2738.92L923.353 2731.99C923.769 2731.83 924.062 2731.53 924.16 2731.19C926.208 2730.9 928.433 2730.49 930.824 2729.93C935.793 2728.77 940.494 2726.67 943.234 2725.36C945.973 2724.04 946.343 2723.74 946.557 2723.27C946.666 2723.03 946.648 2722.56 946.605 2722.18C946.558 2721.77 946.447 2721.21 946.251 2720.96C945.937 2720.55 945.492 2720.35 942.523 2719.76C939.547 2719.17 934.478 2718.31 929.377 2718.41C927.075 2718.46 924.963 2718.61 923.012 2718.81L922.794 2710.56C923.144 2710.4 923.741 2710.1 924.037 2709.78C924.482 2709.31 923.996 2703.28 923.996 2703.28C923.996 2703.28 923.745 2702.08 922.785 2701.74C922.544 2701.66 922.324 2701.66 922.14 2701.72C921.956 2701.78 921.801 2701.88 921.672 2701.99C921.542 2702.11 921.449 2702.23 921.383 2702.32C921.316 2702.41 921.282 2702.48 921.282 2702.48L921.304 2707.67C921.305 2707.99 921.353 2708.3 921.43 2708.61C921.518 2708.92 921.64 2709.2 921.802 2709.48L922.216 2710.18L922.442 2718.61C922.17 2718.36 921.743 2718.22 921.274 2718.27C920.664 2718.35 920.214 2718.72 920.099 2719.18C920.198 2719.16 920.297 2719.14 920.385 2719.13C920.513 2718.84 920.867 2718.61 921.3 2718.55C921.733 2718.49 922.123 2718.63 922.33 2718.87C920.217 2719.12 918.308 2719.43 916.637 2719.79C913.273 2720.53 906.892 2722.14 901.631 2724.9L898.539 2726.62C898.539 2726.62 897.54 2727.19 897.673 2728.19C897.68 2728.2 897.694 2728.23 897.702 2728.24C897.709 2728.25 897.694 2728.27 897.69 2728.29C897.818 2729.31 898.929 2729.61 898.929 2729.61L902.349 2730.51C908.142 2731.87 914.711 2731.86 918.157 2731.73C919.561 2731.68 921.116 2731.55 922.799 2731.36L922.813 2731.79C922.45 2731.79 922.133 2731.66 921.967 2731.46C921.868 2731.47 921.772 2731.47 921.673 2731.49C921.875 2731.85 922.305 2732.07 922.828 2732.08L923.011 2738.72C922.724 2738.86 922.337 2739.07 922.042 2739.29C921.964 2739.34 921.901 2739.41 921.853 2739.46C921.794 2739.52 921.752 2739.67 921.728 2739.87C921.716 2739.98 921.7 2740.1 921.691 2740.23C921.626 2741.17 921.694 2742.75 921.769 2744.03C921.827 2745.11 921.906 2745.95 921.906 2745.95C921.906 2745.95 922.063 2746.7 922.611 2747.18C922.756 2747.31 922.924 2747.42 923.117 2747.5C924.077 2747.83 924.62 2746.76 924.62 2746.76L924.561 2746.76ZM899.495 2729.1C898.953 2729.09 898.481 2728.71 898.417 2728.15C898.342 2727.6 898.703 2727.11 899.228 2726.97C899.18 2726.97 899.126 2726.96 899.078 2726.96C899.137 2726.96 899.191 2726.97 899.246 2726.98C899.1 2727.31 899.03 2727.69 899.081 2728.08C899.132 2728.47 899.289 2728.81 899.513 2729.11C899.513 2729.11 899.513 2729.11 899.502 2729.11L899.495 2729.1ZM919.676 2731.5L919.665 2731.14C919.841 2731.12 920.017 2731.1 920.186 2731.07C920.1 2731.25 919.908 2731.39 919.676 2731.5Z" fill="#F36F0D"/>
<path d="M927.754 2737.01C932.723 2735.85 937.424 2733.75 940.164 2732.44C942.904 2731.12 943.273 2730.82 943.487 2730.35C943.596 2730.1 943.579 2729.64 943.535 2729.26C943.488 2728.85 943.377 2728.29 943.182 2728.04C942.867 2727.63 942.422 2727.43 939.453 2726.84C936.477 2726.24 931.408 2725.39 926.307 2725.49C921.206 2725.6 916.92 2726.14 913.557 2726.88C910.193 2727.62 903.812 2729.22 898.55 2731.99L895.458 2733.71C895.458 2733.71 894.459 2734.28 894.581 2735.29C894.588 2735.3 894.602 2735.32 894.61 2735.33C894.617 2735.34 894.602 2735.37 894.598 2735.39C894.727 2736.41 895.837 2736.71 895.837 2736.71L899.257 2737.6C905.05 2738.97 911.62 2738.96 915.065 2738.82C918.518 2738.7 922.784 2738.16 927.765 2737L927.754 2737.01ZM896.425 2736.18C895.883 2736.17 895.411 2735.79 895.347 2735.23C895.272 2734.68 895.633 2734.19 896.158 2734.05C896.111 2734.05 896.056 2734.04 896.008 2734.04C896.067 2734.03 896.122 2734.05 896.177 2734.06C896.03 2734.39 895.96 2734.77 896.011 2735.16C896.062 2735.55 896.22 2735.89 896.444 2736.19C896.392 2736.2 896.348 2736.23 896.289 2736.24C896.348 2736.23 896.381 2736.21 896.433 2736.19L896.425 2736.18Z" fill="#F36F0D"/>
<path d="M928.221 2736.1C931.655 2735.3 930.967 2732.4 930.967 2732.4L930.825 2731.27L930.707 2730.29L930.566 2729.15C930.566 2729.15 930.516 2726.17 926.987 2726.25C923.458 2726.32 920.828 2726.26 916.875 2726.94C912.922 2727.62 907.98 2728.97 907.98 2728.97L906.409 2729.53C906.409 2729.53 904.702 2729.89 904.952 2731.87C904.958 2731.98 904.975 2732.08 905 2732.19C905.237 2734.05 905.456 2735.81 905.456 2735.81C905.474 2735.91 905.48 2736.02 905.504 2736.13C905.747 2738.1 907.5 2738.03 907.5 2738.03L909.158 2738.18C909.158 2738.18 914.275 2738.27 918.276 2737.95C922.277 2737.63 924.805 2736.91 928.239 2736.1L928.221 2736.1Z" fill="#F36F0D"/>
<path d="M928.221 2736.1C931.655 2735.3 930.967 2732.4 930.967 2732.4L930.825 2731.27L930.707 2730.29L930.566 2729.15C930.566 2729.15 930.516 2726.17 926.987 2726.25C923.458 2726.32 920.828 2726.26 916.875 2726.94C912.922 2727.62 907.98 2728.97 907.98 2728.97L906.409 2729.53C906.409 2729.53 904.702 2729.89 904.952 2731.87C904.969 2731.97 904.975 2732.08 905 2732.19C905.237 2734.05 905.456 2735.81 905.456 2735.81C905.474 2735.91 905.48 2736.02 905.504 2736.13C905.747 2738.1 907.5 2738.03 907.5 2738.03L909.158 2738.18C909.158 2738.18 914.275 2738.27 918.276 2737.95C922.277 2737.63 924.805 2736.91 928.239 2736.1L928.221 2736.1ZM918.234 2737.37C914.641 2737.67 910.047 2737.58 910.047 2737.58L908.557 2737.45C908.557 2737.45 906.996 2737.52 906.769 2735.75C906.759 2735.66 906.741 2735.56 906.731 2735.47C906.731 2735.47 906.532 2733.88 906.322 2732.21C906.312 2732.12 906.295 2732.02 906.285 2731.93C906.058 2730.16 907.586 2729.84 907.586 2729.84L908.991 2729.33C908.991 2729.33 913.418 2728.12 916.975 2727.5C920.532 2726.89 922.894 2726.96 926.061 2726.88C929.227 2726.81 929.272 2729.49 929.272 2729.49L929.401 2730.51L929.513 2731.38L929.641 2732.4C929.641 2732.4 930.266 2735.01 927.184 2735.72C924.103 2736.44 921.828 2737.08 918.234 2737.37Z" fill="white"/>
<path d="M925.933 2735.27C928.603 2734.65 928.055 2732.41 928.055 2732.41L927.936 2731.53L927.838 2730.77L927.719 2729.88C927.719 2729.88 927.681 2727.58 924.947 2727.64C922.213 2727.7 920.173 2727.64 917.1 2728.18C914.028 2728.72 910.199 2729.76 910.199 2729.76L908.982 2730.19C908.982 2730.19 907.664 2730.47 907.856 2732C907.867 2732.08 907.88 2732.15 907.891 2732.24C908.073 2733.68 908.242 2735.06 908.242 2735.06C908.252 2735.14 908.266 2735.21 908.276 2735.3C908.469 2736.83 909.818 2736.77 909.818 2736.77L911.11 2736.89C911.11 2736.89 915.077 2736.96 918.183 2736.71C921.289 2736.47 923.251 2735.9 925.922 2735.28L925.933 2735.27Z" fill="white"/>
<path d="M908.332 2735.41C908.373 2735.67 908.462 2735.88 908.56 2736.05L928.008 2733.59C928.08 2733.34 928.108 2733.12 928.103 2732.92L908.332 2735.41Z" fill="#F36F0D"/>
<path d="M907.941 2731.18C907.892 2731.37 907.864 2731.6 907.876 2731.86L927.646 2729.37C927.601 2729.17 927.522 2728.96 927.378 2728.74L907.93 2731.19L907.941 2731.18Z" fill="#F36F0D"/>
<path d="M917.298 2726.21C917.426 2725.92 917.78 2725.69 918.213 2725.63C918.646 2725.57 919.036 2725.71 919.243 2725.95C919.342 2725.93 919.448 2725.93 919.536 2725.92C919.306 2725.52 918.784 2725.27 918.168 2725.34C917.559 2725.42 917.108 2725.8 916.993 2726.25C917.093 2726.23 917.192 2726.21 917.28 2726.2L917.298 2726.21Z" fill="#F36F0D"/>
<path d="M918.855 2738.54C919.05 2738.8 919.452 2738.93 919.892 2738.88C920.325 2738.82 920.668 2738.59 920.803 2738.32C920.902 2738.3 921.001 2738.28 921.108 2738.28C920.986 2738.72 920.535 2739.09 919.926 2739.17C919.317 2739.25 918.781 2738.99 918.569 2738.59C918.668 2738.57 918.763 2738.57 918.862 2738.56L918.855 2738.54Z" fill="#F36F0D"/>
<path d="M921.502 2753.85C921.502 2753.85 920.952 2754.92 919.999 2754.6C919.039 2754.26 918.788 2753.05 918.788 2753.05C918.788 2753.05 918.302 2747.03 918.746 2746.55C919.191 2746.07 920.277 2745.63 920.277 2745.63L921.004 2746.85C921.328 2747.39 921.501 2748.02 921.502 2748.65L921.524 2753.84L921.502 2753.85Z" fill="#F36F0D"/>
<path d="M918.974 2753.24C918.974 2753.24 918.488 2747.22 918.933 2746.74C919.314 2746.34 920.168 2745.95 920.407 2745.86L920.27 2745.65C920.27 2745.65 919.196 2746.08 918.751 2746.56C918.307 2747.04 918.793 2753.06 918.793 2753.06C918.793 2753.06 918.95 2753.81 919.498 2754.29C919.111 2753.82 918.981 2753.25 918.981 2753.25L918.974 2753.24Z" fill="black"/>
<path d="M919.716 2736.57C919.862 2736.6 920.041 2736.61 920.232 2736.61L919.702 2717C919.7 2716.83 919.562 2716.71 919.408 2716.72C919.254 2716.72 919.121 2716.86 919.126 2717.01L919.65 2736.57C919.65 2736.57 919.69 2736.56 919.716 2736.57Z" fill="#F36F0D"/>
<path d="M920.487 2746.08L920.268 2737.98C920.059 2737.97 919.861 2737.96 919.679 2737.92L919.9 2746.1C919.9 2746.1 919.908 2746.11 919.904 2746.13C919.921 2746.28 920.051 2746.38 920.194 2746.38C920.348 2746.37 920.482 2746.24 920.476 2746.09L920.487 2746.08Z" fill="#F36F0D"/>
<path d="M918.197 2709.56C918.197 2709.56 918.747 2708.49 919.699 2708.82C920.66 2709.15 920.911 2710.36 920.911 2710.36C920.911 2710.36 921.397 2716.38 920.952 2716.86C920.507 2717.34 919.422 2717.78 919.422 2717.78L918.695 2716.57C918.371 2716.02 918.198 2715.39 918.197 2714.76L918.175 2709.57L918.197 2709.56Z" fill="#F36F0D"/>
<path d="M919.004 2716.73C918.68 2716.18 918.507 2715.55 918.506 2714.92L918.484 2709.73C918.484 2709.73 919.033 2708.67 919.986 2708.99C920.03 2709.01 920.063 2709.04 920.099 2709.04C919.976 2708.95 919.841 2708.86 919.68 2708.81C918.72 2708.48 918.178 2709.55 918.178 2709.55L918.2 2714.74C918.201 2715.37 918.374 2716 918.698 2716.55L919.425 2717.76C919.425 2717.76 919.481 2717.72 919.583 2717.69L919.008 2716.71L919.004 2716.73Z" fill="black"/>
</svg>
