<svg width="395" height="833" viewBox="0 0 395 833" fill="none" xmlns="http://www.w3.org/2000/svg">
<g clip-path="url(#clip0_584_71)">
<g opacity="0.6">
<path d="M33 690L8.99998 690L9 277L13 277C24.046 277 33 285.954 33 297L33 690Z" fill="#C1F6E1"/>
<path d="M33.5 690.5L8.99998 690.5L8.99998 689.5L32.5 689.5L33.5 690.5ZM9 276.5L13 276.5C24.322 276.5 33.5 285.678 33.5 297L32.5 297C32.5 286.23 23.77 277.5 13 277.5L9 277.5L9 276.5ZM13 276.5C24.322 276.5 33.5 285.678 33.5 297L33.5 690.5L32.5 689.5L32.5 297C32.5 286.23 23.77 277.5 13 277.5L13 276.5Z" fill="#A5A5A5"/>
</g>
<path opacity="0.8" d="M17.0006 422.092L25.4006 419.572L25.4006 421.18L19.3406 422.92L25.4006 424.744L25.4006 426.1L19.3406 427.936L25.4006 429.688L25.4006 431.284L17.0006 428.776L17.0006 427.216L22.9406 425.428L17.0006 423.64L17.0006 422.092ZM25.6406 432.097L25.6406 433.681L23.9966 433.681L23.9966 432.097L25.6406 432.097ZM17.0006 432.157L23.0486 432.157L23.0486 433.633L17.0006 433.633L17.0006 432.157ZM17.0006 434.958L23.0486 434.958L23.0486 436.434L22.1126 436.434C22.7726 436.77 23.1446 437.454 23.1446 438.318C23.1446 439.686 22.1606 440.574 20.7446 440.574L17.0006 440.574L17.0006 439.098L20.4326 439.098C21.2606 439.098 21.8366 438.594 21.8366 437.838C21.8366 437.01 21.1886 436.434 20.3006 436.434L17.0006 436.434L17.0006 434.958ZM16.9046 444.451C16.9046 442.639 18.1766 441.571 20.0246 441.571C21.8726 441.571 23.1446 442.639 23.1446 444.427C23.1446 445.219 22.8086 445.855 22.3166 446.203L25.6406 446.203L25.6406 447.667L17.0006 447.667L17.0006 446.203L17.7566 446.203C17.2286 445.855 16.9046 445.183 16.9046 444.451ZM18.1766 444.667C18.1766 445.651 18.9086 446.299 20.0246 446.299C21.1406 446.299 21.8726 445.651 21.8726 444.667C21.8726 443.683 21.1406 443.035 20.0246 443.035C18.9086 443.035 18.1766 443.683 18.1766 444.667ZM16.9046 451.911C16.9046 450.063 18.2246 448.743 20.0246 448.743C21.8246 448.743 23.1446 450.063 23.1446 451.911C23.1446 453.747 21.8246 455.067 20.0246 455.067C18.2246 455.067 16.9046 453.747 16.9046 451.911ZM18.1766 451.911C18.1766 452.907 18.9326 453.579 20.0246 453.579C21.1166 453.579 21.8726 452.907 21.8726 451.911C21.8726 450.903 21.1166 450.231 20.0246 450.231C18.9326 450.231 18.1766 450.903 18.1766 451.911ZM17.0006 457.269L23.0486 455.337L23.0486 456.813L19.0046 457.917L23.0486 459.105L23.0486 460.461L19.0046 461.649L23.0486 462.765L23.0486 464.229L17.0006 462.309L17.0006 461.001L21.0686 459.789L17.0006 458.565L17.0006 457.269ZM16.9046 470.569C16.9046 468.661 18.0566 467.413 19.8206 467.329L19.8206 468.853C18.8846 468.937 18.2846 469.561 18.2846 470.569C18.2846 471.469 18.6446 472.093 19.3886 472.093C21.1886 472.093 19.9406 467.581 23.1566 467.581C24.5366 467.581 25.4966 468.769 25.4966 470.473C25.4966 472.249 24.4766 473.449 22.9046 473.521L22.9046 472.009C23.6366 471.937 24.1286 471.361 24.1286 470.473C24.1286 469.645 23.7446 469.129 23.1566 469.129C21.2966 469.129 22.6886 473.701 19.4126 473.701C17.8526 473.701 16.9046 472.417 16.9046 470.569ZM19.0166 478.86L19.0166 480.3C17.7326 480.072 16.9046 478.944 16.9046 477.456C16.9046 475.476 18.4646 474.372 20.0486 474.372C21.6446 474.372 23.1446 475.356 23.1446 477.336C23.1446 479.364 21.6686 480.276 20.2286 480.276C20.0246 480.276 19.8446 480.264 19.7246 480.252L19.7246 475.788C18.7526 475.896 18.1286 476.52 18.1286 477.456C18.1286 478.212 18.4406 478.704 19.0166 478.86ZM22.0406 477.336C22.0406 476.508 21.6086 475.98 20.6966 475.824L20.6966 478.8C21.4646 478.74 22.0406 478.212 22.0406 477.336ZM23.1446 483.719C23.1446 485.255 22.2566 486.335 20.8886 486.335L17.0006 486.335L17.0006 484.883L17.9006 484.883C17.3006 484.631 16.9046 483.935 16.9046 483.071C16.9046 481.871 17.6726 481.055 18.7166 481.055C19.8926 481.055 20.6246 481.967 20.6246 483.323L20.6246 484.439C20.6246 484.739 20.7926 484.883 21.0326 484.883C21.6206 484.883 22.0406 484.427 22.0406 483.647C22.0406 482.867 21.5486 482.399 21.0086 482.375L21.0086 481.055C22.2086 481.127 23.1446 482.147 23.1446 483.719ZM17.9966 483.419C17.9966 484.343 18.6446 484.883 19.5566 484.883L19.6526 484.883L19.6526 483.527C19.6526 482.903 19.3046 482.483 18.7766 482.483C18.3086 482.483 17.9966 482.867 17.9966 483.419ZM24.8726 488.202L24.8726 489.678L23.0486 489.678L23.0486 491.358L21.8126 491.358L21.8126 489.678L19.1726 489.678C18.5606 489.678 18.2486 490.002 18.2486 490.554L18.2486 491.358L17.0006 491.358L17.0006 490.386C17.0006 489.066 17.7686 488.202 19.1126 488.202L21.8126 488.202L21.8126 487.014L23.0486 487.014L23.0486 488.202L24.8726 488.202ZM25.6406 492.238L25.6406 493.822L23.9966 493.822L23.9966 492.238L25.6406 492.238ZM17.0006 492.298L23.0486 492.298L23.0486 493.774L17.0006 493.774L17.0006 492.298ZM17.0006 495.098L23.0486 495.098L23.0486 496.574L22.1126 496.574C22.7726 496.91 23.1446 497.594 23.1446 498.458C23.1446 499.826 22.1606 500.714 20.7446 500.714L17.0006 500.714L17.0006 499.238L20.4326 499.238C21.2606 499.238 21.8366 498.734 21.8366 497.978C21.8366 497.15 21.1886 496.574 20.3006 496.574L17.0006 496.574L17.0006 495.098ZM23.0486 506.416L23.0486 507.892L16.6646 507.892C15.4046 507.892 14.5526 506.98 14.5526 505.624L14.5526 502.636L15.7286 502.636L15.7286 505.42C15.7286 506.008 16.1726 506.428 16.8086 506.428L17.6726 506.428C17.2046 506.128 16.9046 505.432 16.9046 504.676C16.9046 502.852 18.1766 501.796 20.0246 501.796C21.8726 501.796 23.1446 502.852 23.1446 504.652C23.1446 505.408 22.8326 506.068 22.3646 506.416L23.0486 506.416ZM18.1766 504.88C18.1766 505.876 18.9086 506.524 20.0246 506.524C21.1406 506.524 21.8726 505.876 21.8726 504.88C21.8726 503.896 21.1406 503.26 20.0246 503.26C18.9086 503.26 18.1766 503.896 18.1766 504.88Z" fill="black"/>
<path d="M395 690.5L386 690.5" stroke="#666666"/>
<path d="M10 690.5L1 690.5" stroke="#666666"/>
<path opacity="0.6" d="M395 236.5L387 236.5" stroke="black"/>
<path opacity="0.6" d="M9 236.5L1 236.5" stroke="black"/>
<path d="M390.5 690L390.5 237" stroke="#BEBEBE"/>
<path d="M10 276.5L386 276.5" stroke="#BEBEBE"/>
<path d="M5.49998 690L5.5 237" stroke="#BEBEBE"/>
<path d="M0.49998 690L0.5 237" stroke="#BEBEBE"/>
<path d="M394.5 690L394.5 237" stroke="#BEBEBE"/>
<path d="M9.49998 690L9.5 237" stroke="#BEBEBE"/>
<path d="M386.5 690L386.5 237" stroke="#BEBEBE"/>
<path opacity="0.6" d="M394.5 236.752L394.5 779.474C394.5 808.76 370.76 832.5 341.474 832.5L53.5258 832.5C24.2398 832.5 0.499843 808.76 0.499844 779.474L0.499868 236.752C0.499871 159.871 41.8159 88.921 108.681 50.977L171.33 15.4256C187.561 6.21489 207.439 6.21488 223.67 15.4256L286.319 50.977C353.184 88.921 394.5 159.871 394.5 236.752Z" stroke="black"/>
<path opacity="0.6" d="M386.5 240.985L386.5 769.974C386.5 799.26 362.76 823 333.474 823L62.526 823C33.24 823 9.49997 799.26 9.49997 769.974L9.49999 240.985C9.49999 164.849 50.026 94.4685 115.873 56.2479L171.381 24.0288C187.841 14.4747 208.159 14.4747 224.619 24.0289L280.127 56.2479C345.974 94.4685 386.5 164.849 386.5 240.985Z" stroke="black"/>
<g opacity="0.6">
<path d="M362 691L386 691L386 277L382 277C370.954 277 362 285.954 362 297L362 691Z" fill="#C1F6E1"/>
<path d="M361.5 691.5L386 691.5L386 690.5L362.5 690.5L361.5 691.5ZM386 276.5L382 276.5C370.678 276.5 361.5 285.678 361.5 297L362.5 297C362.5 286.23 371.231 277.5 382 277.5L386 277.5L386 276.5ZM382 276.5C370.678 276.5 361.5 285.678 361.5 297L361.5 691.5L362.5 690.5L362.5 297C362.5 286.23 371.231 277.5 382 277.5L382 276.5Z" fill="#A5A5A5"/>
</g>
<path opacity="0.8" d="M371.001 422.092L379.401 419.572L379.401 421.18L373.341 422.92L379.401 424.744L379.401 426.1L373.341 427.936L379.401 429.688L379.401 431.284L371.001 428.776L371.001 427.216L376.941 425.428L371.001 423.64L371.001 422.092ZM379.641 432.097L379.641 433.681L377.997 433.681L377.997 432.097L379.641 432.097ZM371.001 432.157L377.049 432.157L377.049 433.633L371.001 433.633L371.001 432.157ZM371.001 434.958L377.049 434.958L377.049 436.434L376.113 436.434C376.773 436.77 377.145 437.454 377.145 438.318C377.145 439.686 376.161 440.574 374.745 440.574L371.001 440.574L371.001 439.098L374.433 439.098C375.261 439.098 375.837 438.594 375.837 437.838C375.837 437.01 375.189 436.434 374.301 436.434L371.001 436.434L371.001 434.958ZM370.905 444.451C370.905 442.639 372.177 441.571 374.025 441.571C375.873 441.571 377.145 442.639 377.145 444.427C377.145 445.219 376.809 445.855 376.317 446.203L379.641 446.203L379.641 447.667L371.001 447.667L371.001 446.203L371.757 446.203C371.229 445.855 370.905 445.183 370.905 444.451ZM372.177 444.667C372.177 445.651 372.909 446.299 374.025 446.299C375.141 446.299 375.873 445.651 375.873 444.667C375.873 443.683 375.141 443.035 374.025 443.035C372.909 443.035 372.177 443.683 372.177 444.667ZM370.905 451.911C370.905 450.063 372.225 448.743 374.025 448.743C375.825 448.743 377.145 450.063 377.145 451.911C377.145 453.747 375.825 455.067 374.025 455.067C372.225 455.067 370.905 453.747 370.905 451.911ZM372.177 451.911C372.177 452.907 372.933 453.579 374.025 453.579C375.117 453.579 375.873 452.907 375.873 451.911C375.873 450.903 375.117 450.231 374.025 450.231C372.933 450.231 372.177 450.903 372.177 451.911ZM371.001 457.269L377.049 455.337L377.049 456.813L373.005 457.917L377.049 459.105L377.049 460.461L373.005 461.649L377.049 462.765L377.049 464.229L371.001 462.309L371.001 461.001L375.069 459.789L371.001 458.565L371.001 457.269ZM370.905 470.569C370.905 468.661 372.057 467.413 373.821 467.329L373.821 468.853C372.885 468.937 372.285 469.561 372.285 470.569C372.285 471.469 372.645 472.093 373.389 472.093C375.189 472.093 373.941 467.581 377.157 467.581C378.537 467.581 379.497 468.769 379.497 470.473C379.497 472.249 378.477 473.449 376.905 473.521L376.905 472.009C377.637 471.937 378.129 471.361 378.129 470.473C378.129 469.645 377.745 469.129 377.157 469.129C375.297 469.129 376.689 473.701 373.413 473.701C371.853 473.701 370.905 472.417 370.905 470.569ZM373.017 478.86L373.017 480.3C371.733 480.072 370.905 478.944 370.905 477.456C370.905 475.476 372.465 474.372 374.049 474.372C375.645 474.372 377.145 475.356 377.145 477.336C377.145 479.364 375.669 480.276 374.229 480.276C374.025 480.276 373.845 480.264 373.725 480.252L373.725 475.788C372.753 475.896 372.129 476.52 372.129 477.456C372.129 478.212 372.441 478.704 373.017 478.86ZM376.041 477.336C376.041 476.508 375.609 475.98 374.697 475.824L374.697 478.8C375.465 478.74 376.041 478.212 376.041 477.336ZM377.145 483.719C377.145 485.255 376.257 486.335 374.889 486.335L371.001 486.335L371.001 484.883L371.901 484.883C371.301 484.631 370.905 483.935 370.905 483.071C370.905 481.871 371.673 481.055 372.717 481.055C373.893 481.055 374.625 481.967 374.625 483.323L374.625 484.439C374.625 484.739 374.793 484.883 375.033 484.883C375.621 484.883 376.041 484.427 376.041 483.647C376.041 482.867 375.549 482.399 375.009 482.375L375.009 481.055C376.209 481.127 377.145 482.147 377.145 483.719ZM371.997 483.419C371.997 484.343 372.645 484.883 373.557 484.883L373.653 484.883L373.653 483.527C373.653 482.903 373.305 482.483 372.777 482.483C372.309 482.483 371.997 482.867 371.997 483.419ZM378.873 488.202L378.873 489.678L377.049 489.678L377.049 491.358L375.813 491.358L375.813 489.678L373.173 489.678C372.561 489.678 372.249 490.002 372.249 490.554L372.249 491.358L371.001 491.358L371.001 490.386C371.001 489.066 371.769 488.202 373.113 488.202L375.813 488.202L375.813 487.014L377.049 487.014L377.049 488.202L378.873 488.202ZM379.641 492.238L379.641 493.822L377.997 493.822L377.997 492.238L379.641 492.238ZM371.001 492.298L377.049 492.298L377.049 493.774L371.001 493.774L371.001 492.298ZM371.001 495.098L377.049 495.098L377.049 496.574L376.113 496.574C376.773 496.91 377.145 497.594 377.145 498.458C377.145 499.826 376.161 500.714 374.745 500.714L371.001 500.714L371.001 499.238L374.433 499.238C375.261 499.238 375.837 498.734 375.837 497.978C375.837 497.15 375.189 496.574 374.301 496.574L371.001 496.574L371.001 495.098ZM377.049 506.416L377.049 507.892L370.665 507.892C369.405 507.892 368.553 506.98 368.553 505.624L368.553 502.636L369.729 502.636L369.729 505.42C369.729 506.008 370.173 506.428 370.809 506.428L371.673 506.428C371.205 506.128 370.905 505.432 370.905 504.676C370.905 502.852 372.177 501.796 374.025 501.796C375.873 501.796 377.145 502.852 377.145 504.652C377.145 505.408 376.833 506.068 376.365 506.416L377.049 506.416ZM372.177 504.88C372.177 505.876 372.909 506.524 374.025 506.524C375.141 506.524 375.873 505.876 375.873 504.88C375.873 503.896 375.141 503.26 374.025 503.26C372.909 503.26 372.177 503.896 372.177 504.88Z" fill="black"/>
</g>
<defs>
<clipPath id="clip0_584_71">
<rect width="833" height="395" fill="white" transform="translate(395) rotate(90)"/>
</clipPath>
</defs>
</svg>
