<svg width="33" height="32" viewBox="0 0 33 32" fill="none" xmlns="http://www.w3.org/2000/svg">
<path d="M23.66 24.7892L22.7867 23.9145C22.6711 23.7998 22.5347 23.7425 22.3774 23.7425C22.2191 23.7425 22.0827 23.7998 21.968 23.9145C21.8534 24.0283 21.796 24.163 21.796 24.3185C21.796 24.4741 21.8534 24.6092 21.968 24.7238L23.1147 25.8705C23.28 26.0367 23.4663 26.1198 23.6734 26.1198C23.8805 26.1198 24.0667 26.0367 24.232 25.8705L27.0294 23.1145C27.144 22.9998 27.2058 22.8678 27.2147 22.7185C27.2236 22.5683 27.1618 22.4274 27.0294 22.2958C26.9147 22.1812 26.7743 22.1238 26.608 22.1238C26.4418 22.1238 26.3009 22.1816 26.1854 22.2972L23.66 24.7892ZM10.192 11.6465H22.808C22.9974 11.6465 23.1556 11.583 23.2827 11.4558C23.4098 11.3287 23.4738 11.1701 23.4747 10.9798C23.4747 10.7727 23.4107 10.6101 23.2827 10.4918C23.1556 10.3727 22.9974 10.3132 22.808 10.3132H10.1907C10.0014 10.3132 9.8427 10.3767 9.7147 10.5038C9.5867 10.631 9.52314 10.7896 9.52403 10.9798C9.52492 11.1701 9.58848 11.3287 9.7147 11.4558C9.84092 11.583 10.0009 11.6465 10.192 11.6465ZM24.4987 29.4945C23.0134 29.4945 21.7534 28.9767 20.7187 27.9412C19.6831 26.9065 19.1654 25.6465 19.1654 24.1612C19.1654 22.6758 19.6831 21.4154 20.7187 20.3798C21.7543 19.3443 23.0143 18.827 24.4987 18.8278C25.9831 18.8287 27.2436 19.3461 28.28 20.3798C29.3165 21.4136 29.8338 22.6741 29.832 24.1612C29.832 25.6456 29.3147 26.9056 28.28 27.9412C27.2436 28.9767 25.9831 29.4945 24.4987 29.4945ZM5.83203 7.49451C5.83203 6.89718 6.04181 6.38873 6.46136 5.96918C6.88092 5.54962 7.38936 5.33984 7.9867 5.33984H25.012C25.6076 5.33984 26.1156 5.54962 26.536 5.96918C26.9556 6.38873 27.1654 6.89718 27.1654 7.49451V14.5838C27.1654 14.7732 27.1018 14.9318 26.9747 15.0598C26.8476 15.1878 26.6889 15.2514 26.4987 15.2505C26.3085 15.2496 26.1498 15.1861 26.0227 15.0598C25.8956 14.9336 25.832 14.775 25.832 14.5838V7.49451C25.832 7.28918 25.7467 7.10073 25.576 6.92918C25.4054 6.75762 25.2169 6.67229 25.0107 6.67318H7.9867C7.78136 6.67318 7.59292 6.75851 7.42136 6.92918C7.24981 7.09984 7.16448 7.28829 7.16536 7.49451V25.4065H15.624C15.6516 25.5861 15.684 25.7656 15.7214 25.9452C15.7596 26.1247 15.8085 26.3016 15.868 26.4758C15.9276 26.635 15.8876 26.7652 15.748 26.8665C15.6076 26.9687 15.4743 26.9732 15.348 26.8798L15.016 26.6532C14.9174 26.5883 14.8134 26.5558 14.704 26.5558C14.5947 26.5558 14.4903 26.5883 14.3907 26.6532L13.2214 27.4625C13.1227 27.5283 13.0187 27.5612 12.9094 27.5612C12.8 27.5612 12.6956 27.5283 12.596 27.4625L11.4267 26.6532C11.3271 26.5883 11.2227 26.5558 11.1134 26.5558C11.004 26.5558 10.9 26.5883 10.8014 26.6532L9.63203 27.4625C9.53336 27.5283 9.42936 27.5612 9.32003 27.5612C9.2107 27.5612 9.10625 27.5283 9.0067 27.4625L7.83736 26.6532C7.73781 26.5883 7.63336 26.5558 7.52403 26.5558C7.4147 26.5558 7.3107 26.5883 7.21203 26.6532L5.83203 27.7238V7.49451ZM10.192 21.6985H15.3574C15.5476 21.6985 15.7063 21.635 15.8334 21.5078C15.9605 21.3807 16.024 21.2221 16.024 21.0318C16.024 20.8416 15.9605 20.6834 15.8334 20.5572C15.7063 20.431 15.5476 20.367 15.3574 20.3652H10.192C10.0027 20.3652 9.84403 20.4292 9.71603 20.5572C9.58803 20.6852 9.52448 20.8434 9.52536 21.0318C9.52625 21.2203 9.58981 21.379 9.71603 21.5078C9.84225 21.6367 10.0009 21.7003 10.192 21.6985ZM10.192 16.6732H19.7974C19.9867 16.6732 20.1454 16.6096 20.2734 16.4825C20.4014 16.3554 20.4649 16.1967 20.464 16.0065C20.4631 15.8163 20.3996 15.6576 20.2734 15.5305C20.1471 15.4034 19.9885 15.3398 19.7974 15.3398H10.1907C10.0014 15.3398 9.8427 15.4034 9.7147 15.5305C9.5867 15.6576 9.52359 15.8163 9.52536 16.0065C9.52714 16.1967 9.5907 16.3554 9.71603 16.4825C9.84136 16.6096 10 16.6732 10.192 16.6732Z" fill="#FF8A34"/>
</svg>
