<svg width="53" height="49" viewBox="0 0 53 49" fill="none" xmlns="http://www.w3.org/2000/svg">
<path opacity="0.1" d="M8.91104 32.6348L13.9415 31.3643C14.553 31.212 15.1212 30.8929 15.5729 30.4471L16.2773 29.7494L22.9606 27.9068C23.2165 28.2717 23.5791 28.4833 23.9255 28.4991C24.7032 30.4158 25.6355 32.4766 26.7591 34.6616C29.0779 39.2065 32.2488 43.2635 34.1818 45.6069C36.1148 47.9503 36.4987 48.2359 37.0067 48.3302C37.2701 48.377 37.7142 48.2492 38.074 48.115C38.4614 47.9706 38.9763 47.7282 39.1732 47.4782C39.4954 47.0743 39.5814 46.5947 39.4377 43.5715C39.303 40.5386 38.9171 35.4117 37.585 30.4863C36.9834 28.2643 36.3331 26.2496 35.6701 24.4037L43.6214 22.2081C43.8656 22.5079 44.2947 23.0162 44.676 23.2271C45.2479 23.5435 50.9751 21.6224 50.9751 21.6224C50.9751 21.6224 52.0872 21.0879 52.1825 20.0752C52.2016 19.8221 52.1474 19.6091 52.0481 19.4443C51.9489 19.2796 51.8136 19.1535 51.6699 19.0557C51.5263 18.958 51.384 18.8976 51.2797 18.8545C51.1753 18.8114 51.1 18.7954 51.1 18.7954L46.0696 20.0658C45.7638 20.142 45.4691 20.2645 45.1846 20.4147C44.9098 20.5739 44.664 20.7601 44.4382 20.983L43.8508 21.5551L35.7237 23.8036C35.8993 23.4797 35.9395 23.0296 35.7744 22.5868C35.5487 22.0153 35.0785 21.6673 34.6111 21.665C34.6517 21.7571 34.6923 21.8491 34.7233 21.9321C35.0336 21.9867 35.3428 22.2749 35.5066 22.6803C35.6704 23.0858 35.6289 23.4985 35.4417 23.7575C34.6987 21.7648 33.9352 19.9878 33.1803 18.4535C31.6511 15.3668 28.5589 9.55931 24.6081 5.1185L22.1992 2.53014C22.1992 2.53014 21.4036 1.69825 20.4632 2.06778C20.4542 2.07744 20.4362 2.09677 20.4272 2.10643C20.4182 2.1161 20.3898 2.10774 20.3712 2.1084C19.4122 2.47859 19.3872 3.62907 19.3872 3.62907L19.3432 7.16355C19.4123 13.1148 21.001 19.4892 21.9587 22.8016C22.3426 24.1526 22.8432 25.6304 23.4411 27.217L23.0246 27.3344C22.9375 26.9824 22.9817 26.6443 23.1425 26.4331C23.1019 26.341 23.0799 26.2483 23.0393 26.1563C22.7408 26.4378 22.6265 26.9092 22.7472 27.419L16.342 29.1957C16.1371 28.9505 15.8452 28.6243 15.5567 28.3915C15.489 28.3284 15.4034 28.2847 15.346 28.2493C15.2791 28.205 15.12 28.2012 14.9153 28.2271C14.813 28.24 14.6919 28.2536 14.5619 28.2769C13.633 28.4404 12.1159 28.8863 10.8955 29.2657C9.85986 29.5825 9.05659 29.8631 9.05659 29.8631C9.05659 29.8631 8.36731 30.1958 8.0349 30.843C7.94746 31.0143 7.87935 31.2036 7.84923 31.4103C7.75399 32.4231 8.93168 32.6901 8.93168 32.6901L8.91104 32.6348ZM20.0191 4.05548C19.8977 3.52701 20.1587 2.97574 20.6845 2.77967C21.2007 2.57459 21.7603 2.80727 22.0201 3.28414C22.0091 3.2378 22.0071 3.18179 21.9962 3.13544C22.0168 3.1908 22.0188 3.24681 22.0208 3.30282C21.6634 3.24061 21.281 3.2634 20.9122 3.40722C20.5434 3.55103 20.2526 3.78558 20.0197 4.07415C20.0197 4.07415 20.0197 4.07415 20.01 4.06515L20.0191 4.05548ZM22.5506 24.2201L22.8931 24.1239C22.955 24.29 23.0169 24.456 23.0878 24.6124C22.8901 24.5727 22.7072 24.4202 22.5506 24.2201Z" fill="#F36F0D"/>
<path d="M19.1485 33.383C21.4673 37.928 24.6382 41.985 26.5712 44.3284C28.5042 46.6718 28.8881 46.9574 29.3961 47.0517C29.6594 47.0985 30.1036 46.9707 30.4634 46.8365C30.8508 46.6921 31.3657 46.4496 31.5625 46.1997C31.8848 45.7958 31.9708 45.3162 31.8271 42.293C31.6924 39.2601 31.3065 34.1332 29.9744 29.2078C28.6422 24.2823 27.0892 20.2526 25.56 17.1659C24.0309 14.0793 20.9386 8.2718 16.9878 3.83099L14.5789 1.24262C14.5789 1.24262 13.7833 0.410733 12.8333 0.77126C12.8243 0.780924 12.8063 0.80025 12.7972 0.809913C12.7882 0.819576 12.7599 0.811224 12.7412 0.81188C11.7822 1.18207 11.7573 2.33255 11.7573 2.33255L11.7133 5.86703C11.7824 11.8183 13.3711 18.1927 14.3287 21.505C15.2774 24.827 16.8297 28.8381 19.1582 33.3921L19.1485 33.383ZM12.4084 2.77698C12.287 2.2485 12.5481 1.69723 13.0739 1.50116C13.5901 1.29608 14.1497 1.52876 14.4095 2.00564C14.3985 1.95929 14.3965 1.90328 14.3856 1.85694C14.4062 1.91229 14.4082 1.9683 14.4101 2.02431C14.0528 1.9621 13.6704 1.98489 13.3016 2.12871C12.9328 2.27253 12.642 2.50707 12.4091 2.79565C12.3794 2.74996 12.3408 2.71393 12.3202 2.65858C12.3408 2.71393 12.3698 2.74095 12.3994 2.78664L12.4084 2.77698Z" fill="#F36F0D"/>
<path d="M20.1386 33.6186C21.7444 36.7586 24.3882 35.3945 24.3882 35.3945L25.4579 34.9831L26.3803 34.6329L27.45 34.2214C27.45 34.2214 30.3298 33.4565 29.4062 30.0496C28.4826 26.6426 27.9156 24.0735 26.3004 20.4011C24.6852 16.7287 22.1913 12.2554 22.1913 12.2554L21.264 10.8673C21.264 10.8673 20.5077 9.29569 18.6451 10.0154C18.5434 10.047 18.4513 10.0877 18.3503 10.138C16.5983 10.8164 14.9384 11.4543 14.9384 11.4543C14.8464 11.4949 14.7447 11.5265 14.6436 11.5768C12.79 12.2869 13.2791 13.9707 13.2791 13.9707L13.5333 15.6161C13.5333 15.6161 14.6807 20.6041 15.9547 24.41C17.2288 28.2159 18.5334 30.4973 20.1393 33.6373L20.1386 33.6186Z" fill="#F36F0D"/>
<path d="M20.1386 33.6186C21.7444 36.7586 24.3882 35.3945 24.3882 35.3945L25.4579 34.9831L26.3803 34.6329L27.45 34.2214C27.45 34.2214 30.3298 33.4565 29.4062 30.0496C28.4826 26.6426 27.9156 24.0735 26.3004 20.4011C24.6852 16.7287 22.1913 12.2554 22.1913 12.2554L21.264 10.8673C21.264 10.8673 20.5077 9.29569 18.6451 10.0154C18.553 10.0561 18.4513 10.0877 18.3503 10.138C16.5983 10.8164 14.9384 11.4543 14.9384 11.4543C14.8464 11.4949 14.7447 11.5265 14.6436 11.5768C12.79 12.2869 13.2791 13.9707 13.2791 13.9707L13.5333 15.6161C13.5333 15.6161 14.6807 20.6041 15.9547 24.41C17.2288 28.2159 18.5334 30.4973 20.1393 33.6373L20.1386 33.6186ZM16.4999 24.2319C15.3516 20.8142 14.325 16.3359 14.325 16.3359L14.0954 14.8579C14.0954 14.8579 13.6502 13.3595 15.3191 12.712C15.4021 12.681 15.4942 12.6404 15.5772 12.6094C15.5772 12.6094 17.0711 12.0335 18.648 11.4266C18.731 11.3957 18.823 11.3551 18.9061 11.3241C20.575 10.6766 21.2506 12.0828 21.2506 12.0828L22.0794 13.3248C22.0794 13.3248 24.3232 17.3303 25.7759 20.6345C27.2286 23.9388 27.7304 26.2484 28.5668 29.3033C29.4033 32.3582 26.8105 33.0475 26.8105 33.0475L25.8515 33.4177L25.0309 33.7363L24.0719 34.1065C24.0719 34.1065 21.6945 35.3397 20.2589 32.5209C18.8232 29.702 17.6482 27.6497 16.4999 24.2319Z" fill="white"/>
<path d="M20.3906 31.1986C21.6354 33.641 23.6819 32.569 23.6819 32.569L24.5116 32.2407L25.2215 31.9634L26.0511 31.6351C26.0511 31.6351 28.2828 31.0426 27.5638 28.4042C26.8448 25.7657 26.4102 23.7715 25.1509 20.9184C23.8916 18.0653 21.9566 14.6004 21.9566 14.6004L21.2458 13.5226C21.2458 13.5226 20.661 12.3094 19.2225 12.8647C19.1395 12.8956 19.0751 12.9259 18.9921 12.9569C17.6366 13.4812 16.3455 13.9753 16.3455 13.9753C16.2625 14.0062 16.1981 14.0365 16.1151 14.0675C14.6766 14.6228 15.0586 15.9178 15.0586 15.9178L15.2532 17.2008C15.2532 17.2008 16.1462 21.0668 17.1287 24.0231C18.1112 26.9794 19.1361 28.7472 20.3809 31.1896L20.3906 31.1986Z" fill="white"/>
<path d="M16.0222 14.148C15.7828 14.2499 15.6007 14.3871 15.4559 14.5231L22.5199 32.8085C22.7819 32.818 23.0053 32.7915 23.1997 32.7379L16.0222 14.148Z" fill="#F36F0D"/>
<path d="M20.0301 12.7518C19.8338 12.7493 19.6104 12.7759 19.3606 12.8501L26.5381 31.44C26.7125 31.3498 26.9043 31.2215 27.0844 31.0283L20.0205 12.7428L20.0301 12.7518Z" fill="#F36F0D"/>
<path d="M27.1117 20.6359C27.422 20.6904 27.7312 20.9787 27.895 21.3841C28.0588 21.7896 28.0173 22.2023 27.8301 22.4613C27.8707 22.5533 27.9023 22.655 27.9333 22.738C28.2678 22.4178 28.3788 21.8531 28.1621 21.2719C27.9364 20.7004 27.4662 20.3524 26.9988 20.3502C27.0394 20.4422 27.08 20.5342 27.111 20.6173L27.1117 20.6359Z" fill="#F36F0D"/>
<path d="M15.513 25.1163C15.3161 25.3662 15.2842 25.788 15.439 26.2031C15.6028 26.6086 15.9024 26.8878 16.2037 26.952C16.2443 27.044 16.285 27.136 16.3166 27.2377C15.8582 27.2258 15.388 26.8778 15.1623 26.3063C14.9365 25.7348 15.0655 25.1507 15.4008 24.8492C15.4414 24.9412 15.4633 25.0339 15.504 25.126L15.513 25.1163Z" fill="#F36F0D"/>
<path d="M1.29012 31.3699C1.29012 31.3699 0.12144 31.0932 0.207673 30.0901C0.302912 29.0773 1.41503 28.5429 1.41503 28.5429C1.41503 28.5429 7.14224 26.6217 7.71415 26.9381C8.28605 27.2545 8.97363 28.2023 8.97363 28.2023L7.97127 29.2002C7.51962 29.646 6.95137 29.9651 6.33986 30.1175L1.30945 31.3879L1.29012 31.3699Z" fill="#F36F0D"/>
<path d="M1.27546 28.7692C1.27546 28.7692 7.00267 26.848 7.57457 27.1644C8.06082 27.437 8.63817 28.1738 8.78574 28.3836L8.95686 28.2C8.95686 28.2 8.27895 27.2611 7.70705 26.9448C7.13514 26.6284 1.40793 28.5495 1.40793 28.5495C1.40793 28.5495 0.71865 28.8822 0.386246 29.5294C0.752235 29.0399 1.26645 28.7788 1.26645 28.7788L1.27546 28.7692Z" fill="black"/>
<path d="M17.6364 25.4764C17.6416 25.6258 17.6759 25.8022 17.7198 25.9876L36.6303 20.7523C36.797 20.709 36.8755 20.5474 36.8329 20.3993C36.7903 20.2513 36.628 20.1542 36.48 20.1968L17.6247 25.4114C17.6247 25.4114 17.6447 25.4481 17.6364 25.4764Z" fill="#F36F0D"/>
<path d="M8.59212 28.5135L16.4044 26.3508C16.3599 26.1468 16.325 25.9517 16.3184 25.765L8.43207 27.949C8.43207 27.949 8.42306 27.9586 8.40439 27.9593C8.26601 28.0109 8.19659 28.1629 8.22951 28.3019C8.2721 28.45 8.43441 28.5471 8.58245 28.5045L8.59212 28.5135Z" fill="#F36F0D"/>
<path d="M43.4882 17.5013C43.4882 17.5013 44.6569 17.778 44.5707 18.7811C44.4754 19.7938 43.3633 20.3283 43.3633 20.3283C43.3633 20.3283 37.6361 22.2494 37.0642 21.9331C36.4923 21.6167 35.8047 20.6688 35.8047 20.6688L36.8071 19.6709C37.2587 19.2251 37.827 18.906 38.4385 18.7537L43.4689 17.4833L43.4882 17.5013Z" fill="#F36F0D"/>
<path d="M36.7259 20.0094C37.1776 19.5636 37.7458 19.2446 38.3573 19.0922L43.3878 17.8218C43.3878 17.8218 44.5564 18.0985 44.4702 19.1016C44.4625 19.1486 44.4452 19.1866 44.4465 19.2239C44.5069 19.0816 44.5577 18.9303 44.5704 18.7616C44.6657 17.7488 43.488 17.4818 43.488 17.4818L38.4576 18.7522C37.846 18.9046 37.2778 19.2236 36.8261 19.6695L35.8238 20.6674C35.8238 20.6674 35.8721 20.7124 35.9314 20.8038L36.7446 20.0088L36.7259 20.0094Z" fill="black"/>
</svg>
