<svg width="90" height="89" viewBox="0 0 90 89" fill="none" xmlns="http://www.w3.org/2000/svg">
<g clip-path="url(#clip0_1742_8758)">
<path opacity="0.1" d="M47.4488 66.9665L48.0405 60.7803C48.1147 60.0291 47.9835 59.2596 47.6624 58.5707L47.1588 57.4951L47.7703 49.2139C48.2849 49.0722 48.6695 48.7483 48.8268 48.3639C51.3021 48.258 54.0022 48.0357 56.9193 47.6476C62.9799 46.8611 68.8329 44.917 72.2546 43.6796C75.6763 42.4422 76.153 42.1241 76.4638 41.589C76.6226 41.3107 76.6573 40.7583 76.6508 40.2984C76.6437 39.8031 76.5775 39.1247 76.3748 38.8021C76.0489 38.2759 75.5423 37.9859 72.074 36.9311C68.5984 35.8623 62.6593 34.234 56.5667 33.7543C53.8179 33.5385 51.2834 33.4612 48.934 33.4662L49.6577 23.6124C50.0942 23.4576 50.8404 23.1781 51.2318 22.8329C51.8188 22.3151 51.9569 15.0809 51.9569 15.0809C51.9569 15.0809 51.8016 13.6111 50.6974 13.0961C50.4197 12.9726 50.1575 12.948 49.9317 12.9937C49.7059 13.0394 49.5092 13.1412 49.3411 13.2639C49.173 13.3866 49.0475 13.5228 48.957 13.6232C48.8664 13.7235 48.818 13.8021 48.818 13.8021L48.2263 19.9883C48.1892 20.3639 48.2088 20.7457 48.2637 21.1271C48.3327 21.5012 48.4439 21.8534 48.6044 22.1979L49.0134 23.0908L48.2787 33.1641C47.9839 32.8357 47.4924 32.6091 46.9264 32.6172C46.1908 32.6417 45.609 33.0321 45.4183 33.5585C45.5385 33.5497 45.6586 33.5409 45.7648 33.5394C45.9512 33.2113 46.4008 32.9784 46.9241 32.9569C47.4475 32.9353 47.8963 33.1483 48.1131 33.4637C45.5661 33.4998 43.2541 33.6458 41.2194 33.8799C37.1218 34.3626 29.3256 35.5134 22.7256 38.1828L18.836 39.8585C18.836 39.8585 17.5773 40.4212 17.6157 41.6308C17.623 41.6448 17.6375 41.6729 17.6448 41.687C17.6521 41.701 17.6312 41.7296 17.6245 41.751C17.6561 42.9818 18.9439 43.4731 18.9439 43.4731L22.9135 44.9453C29.6549 47.2629 37.4855 48.0364 41.6077 48.2893C43.2864 48.4 45.155 48.4301 47.1855 48.3942L47.1504 48.9113C46.7181 48.8679 46.3545 48.682 46.1809 48.4156C46.0607 48.4243 45.9473 48.4118 45.8272 48.4206C46.0246 48.8707 46.5103 49.1893 47.1341 49.2583L46.5602 57.1993C46.2012 57.3317 45.7157 57.5297 45.3369 57.7615C45.2385 57.8124 45.1547 57.8915 45.0917 57.9419C45.0147 57.9996 44.9465 58.1775 44.8933 58.4189C44.8667 58.5395 44.8333 58.6815 44.8072 58.8376C44.6178 59.9513 44.5102 61.8423 44.4469 63.3717C44.3875 64.6676 44.3807 65.6867 44.3807 65.6867C44.3807 65.6867 44.4785 66.5982 45.0749 67.2337C45.2329 67.4013 45.4191 67.5543 45.6401 67.6715C46.7443 68.1866 47.5196 66.9655 47.5196 66.9655L47.4488 66.9665ZM19.6793 42.9319C19.0342 42.8562 18.5174 42.3398 18.5079 41.6677C18.4843 41.0028 18.972 40.4652 19.6145 40.364C19.5578 40.3578 19.4939 40.3375 19.4372 40.3312C19.5079 40.3302 19.5719 40.3505 19.6359 40.3708C19.4219 40.7489 19.2937 41.1895 19.3075 41.6634C19.3212 42.1373 19.4688 42.5598 19.7006 42.9387C19.7006 42.9387 19.7006 42.9387 19.6865 42.946L19.6793 42.9319ZM43.4462 48.1925L43.4756 47.7675C43.6878 47.7645 43.9001 47.7615 44.105 47.7444C43.9806 47.9514 43.735 48.0964 43.4462 48.1925Z" fill="#FF8A34"/>
<path d="M52.4192 55.7137C58.4797 54.9272 64.3328 52.983 67.7545 51.7457C71.1761 50.5083 71.6528 50.1902 71.9637 49.655C72.1225 49.3768 72.1571 48.8243 72.1506 48.3644C72.1436 47.8692 72.0774 47.1907 71.8747 46.8681C71.5487 46.342 71.0422 46.0519 67.5739 44.9972C64.0983 43.9284 58.1592 42.3 52.0665 41.8203C45.9739 41.3406 40.8027 41.4705 36.7052 41.9532C32.6076 42.4359 24.8114 43.5867 18.2114 46.2561L14.3218 47.9318C14.3218 47.9318 13.0631 48.4946 13.0875 49.7114C13.0947 49.7254 13.1093 49.7535 13.1166 49.7676C13.1238 49.7816 13.103 49.8102 13.0962 49.8316C13.1278 51.0624 14.4157 51.5537 14.4157 51.5537L18.3853 53.0259C25.1267 55.3435 32.9573 56.117 37.0794 56.3699C41.2089 56.6369 46.3587 56.5002 52.4333 55.7064L52.4192 55.7137ZM15.1791 50.998C14.5341 50.9222 14.0173 50.4059 14.0077 49.7337C13.9841 49.0689 14.4719 48.5312 15.1144 48.4301C15.0577 48.4238 14.9937 48.4035 14.937 48.3972C15.0078 48.3962 15.0718 48.4165 15.1357 48.4369C14.9217 48.815 14.7935 49.2555 14.8073 49.7295C14.8211 50.2034 14.9686 50.6259 15.2005 51.0047C15.137 51.0198 15.0808 51.0489 15.01 51.0499C15.0808 51.0489 15.1229 51.0271 15.1864 51.012L15.1791 50.998Z" fill="#FF8A34"/>
<path d="M53.086 54.6924C57.2746 54.1448 56.8 50.6132 56.8 50.6132L56.7664 49.2408L56.7425 48.0594L56.7089 46.687C56.7089 46.687 57.0053 43.1304 52.79 42.8009C48.5748 42.4715 45.4484 42.077 40.6554 42.421C35.8624 42.7649 29.8121 43.7778 29.8121 43.7778L27.873 44.2652C27.873 44.2652 25.7956 44.4858 25.8578 46.8767C25.8525 47.0042 25.8613 47.1244 25.8774 47.2586C25.9376 49.5081 25.989 51.6374 25.989 51.6374C25.9978 51.7576 25.9925 51.8851 26.0085 52.0193C26.0635 54.3962 28.1599 54.5222 28.1599 54.5222L30.1184 54.8978C30.1184 54.8978 36.2073 55.6111 41.0136 55.7057C45.8199 55.8003 48.9187 55.2469 53.1073 54.6992L53.086 54.6924Z" fill="#FF8A34"/>
<path d="M53.086 54.6924C57.2746 54.1448 56.8 50.6132 56.8 50.6132L56.7664 49.2408L56.7425 48.0594L56.7089 46.687C56.7089 46.687 57.0053 43.1304 52.79 42.8009C48.5748 42.4715 45.4484 42.077 40.6554 42.421C35.8624 42.7649 29.8121 43.7778 29.8121 43.7778L27.873 44.2652C27.873 44.2652 25.7956 44.4858 25.8578 46.8767C25.8666 46.9969 25.8613 47.1244 25.8774 47.2586C25.9376 49.5081 25.989 51.6374 25.989 51.6374C25.9978 51.7576 25.9925 51.8851 26.0085 52.0193C26.0635 54.3962 28.1599 54.5222 28.1599 54.5222L30.1184 54.8978C30.1184 54.8978 36.2073 55.6111 41.0136 55.7057C45.8199 55.8003 48.9187 55.2469 53.1073 54.6992L53.086 54.6924ZM41.0322 55.019C36.7143 54.9387 31.2492 54.2944 31.2492 54.2944L29.4894 53.9584C29.4894 53.9584 27.6198 53.8576 27.5611 51.7142C27.5596 51.6081 27.5508 51.4879 27.5493 51.3818C27.5493 51.3818 27.5009 49.4647 27.4509 47.4415C27.4494 47.3354 27.4407 47.2152 27.4392 47.1091C27.3805 44.9657 29.2388 44.7695 29.2388 44.7695L30.9735 44.3345C30.9735 44.3345 36.3953 43.4155 40.7076 43.1067C45.0199 42.7979 47.8274 43.1614 51.6103 43.4475C55.3933 43.7335 55.1273 46.9359 55.1273 46.9359L55.1589 48.1667L55.188 49.2207L55.2196 50.4516C55.2196 50.4516 55.6539 53.6299 51.896 54.1149C48.1382 54.5998 45.35 55.0993 41.0322 55.019Z" fill="white"/>
<path d="M50.4546 53.4329C53.711 53.0117 53.3254 50.2715 53.3254 50.2715L53.289 49.2034L53.2619 48.2909L53.2255 47.2229C53.2255 47.2229 53.4553 44.4668 50.1895 44.2159C46.9236 43.965 44.499 43.6526 40.7735 43.9248C37.048 44.197 32.3604 44.9853 32.3604 44.9853L30.8583 45.3534C30.8583 45.3534 29.2543 45.5247 29.3017 47.371C29.3032 47.4771 29.3115 47.5619 29.313 47.6681C29.3589 49.4083 29.3966 51.0636 29.3966 51.0636C29.3981 51.1698 29.4063 51.2546 29.4078 51.3607C29.4553 53.207 31.07 53.2973 31.07 53.2973L32.5957 53.5942C32.5957 53.5942 37.3164 54.1429 41.0469 54.2244C44.7775 54.306 47.1843 53.8614 50.4406 53.4402L50.4546 53.4329Z" fill="white"/>
<path d="M29.4576 51.4943C29.4762 51.8054 29.5577 52.0661 29.6528 52.2841L53.1242 51.6754C53.2404 51.3836 53.3004 51.1209 53.3182 50.88L29.4576 51.4943Z" fill="#FF8A34"/>
<path d="M29.4995 46.4129C29.4177 46.6335 29.3578 46.8961 29.341 47.2077L53.2015 46.5934C53.1699 46.3604 53.1024 46.0924 52.9569 45.8114L29.4855 46.4202L29.4995 46.4129Z" fill="#FF8A34"/>
<path d="M41.2429 41.5979C41.4293 41.2697 41.8789 41.0369 42.4022 41.0153C42.9256 40.9937 43.3744 41.2067 43.5912 41.5221C43.7114 41.5133 43.8388 41.5186 43.945 41.5171C43.7184 41.0108 43.1261 40.6583 42.3832 40.6688C41.6476 40.6934 41.0657 41.0838 40.8751 41.6102C40.9952 41.6014 41.1154 41.5926 41.2215 41.5911L41.2429 41.5979Z" fill="#FF8A34"/>
<path d="M41.6323 56.4891C41.835 56.8118 42.2979 57.0175 42.8285 57.01C43.3519 56.9884 43.7874 56.7628 43.9811 56.4487C44.1013 56.4399 44.2215 56.4312 44.3489 56.4364C44.151 56.9488 43.5691 57.3391 42.8335 57.3637C42.0979 57.3883 41.491 57.0077 41.2858 56.5082C41.406 56.4994 41.5194 56.5119 41.6395 56.5032L41.6323 56.4891Z" fill="#FF8A34"/>
<path d="M42.9545 75.046C42.9545 75.046 42.1719 76.253 41.075 75.752C39.9709 75.2369 39.8156 73.7672 39.8156 73.7672C39.8156 73.7672 39.9536 66.533 40.5407 66.0151C41.1278 65.4973 42.4738 65.1031 42.4738 65.1031L43.1961 66.6356C43.5173 67.3245 43.6485 68.094 43.5742 68.8452L42.9826 75.0314L42.9545 75.046Z" fill="#FF8A34"/>
<path d="M40.0163 74.0212C40.0163 74.0212 40.1543 66.787 40.7414 66.2691C41.2447 65.8303 42.3082 65.4756 42.6042 65.3935L42.466 65.1266C42.466 65.1266 41.134 65.5134 40.5469 66.0313C39.9598 66.5491 39.8218 73.7833 39.8218 73.7833C39.8218 73.7833 39.9197 74.6948 40.516 75.3303C40.1111 74.7204 40.0235 74.0352 40.0235 74.0352L40.0163 74.0212Z" fill="#FF8A34"/>
<path d="M42.887 54.2333C43.0576 54.2875 43.2704 54.3199 43.4972 54.345L45.2029 30.9044C45.2212 30.699 45.0704 30.5454 44.8863 30.5339C44.7021 30.5223 44.5273 30.6663 44.5157 30.8505L42.809 54.2203C42.809 54.2203 42.8584 54.2125 42.887 54.2333Z" fill="#FF8A34"/>
<path d="M42.6708 65.6552L43.3756 55.9715C43.1275 55.9397 42.8934 55.9005 42.6801 55.8328L41.9695 65.6085C41.9695 65.6085 41.9768 65.6226 41.97 65.6439C41.9726 65.8208 42.1161 65.9603 42.2862 65.9791C42.4703 65.9906 42.6452 65.8466 42.6567 65.6625L42.6708 65.6552Z" fill="#FF8A34"/>
<path d="M44.2948 21.8645C44.2948 21.8645 45.0773 20.6575 46.1742 21.1585C47.2784 21.6736 47.4337 23.1433 47.4337 23.1433C47.4337 23.1433 47.2956 30.3775 46.7086 30.8954C46.1215 31.4132 44.7754 31.8073 44.7754 31.8073L44.0531 30.2749C43.732 29.5859 43.6008 28.8165 43.675 28.0653L44.2667 21.8791L44.2948 21.8645Z" fill="#FF8A34"/>
<path d="M44.4017 30.498C44.0805 29.809 43.9493 29.0395 44.0236 28.2884L44.6152 22.1021C44.6152 22.1021 45.3978 20.8951 46.4947 21.3961C46.5446 21.4237 46.5805 21.4586 46.6231 21.4722C46.4869 21.3467 46.3366 21.2285 46.1515 21.1462C45.0473 20.6312 44.272 21.8522 44.272 21.8522L43.6804 28.0385C43.6061 28.7896 43.7373 29.5591 44.0585 30.2481L44.7808 31.7805C44.7808 31.7805 44.851 31.7442 44.978 31.714L44.4085 30.4766L44.4017 30.498Z" fill="#FF8A34"/>
</g>
<defs>
<clipPath id="clip0_1742_8758">
<rect width="52.2287" height="61.4372" fill="white" transform="translate(60.207 7.58203) rotate(62.6226)"/>
</clipPath>
</defs>
</svg>
