<svg width="33" height="32" viewBox="0 0 33 32" fill="none" xmlns="http://www.w3.org/2000/svg">
<path d="M13.5 2.00781C13.2348 2.00781 12.9804 2.11317 12.7929 2.30071C12.6054 2.48824 12.5 2.7426 12.5 3.00781V4.00781H11.138C10.1657 4.00759 9.22653 4.36156 8.49622 5.00352C7.76592 5.64548 7.29446 6.53147 7.17 7.49581L6.846 10.0078H5.5C5.23478 10.0078 4.98043 10.1132 4.79289 10.3007C4.60536 10.4882 4.5 10.7426 4.5 11.0078C4.5 11.273 4.60536 11.5274 4.79289 11.7149C4.98043 11.9025 5.23478 12.0078 5.5 12.0078H6.588L6.568 12.1558C5.96658 12.3524 5.44271 12.7341 5.07129 13.2463C4.69987 13.7585 4.49991 14.3751 4.5 15.0078V21.0078C4.5 21.8035 4.81607 22.5665 5.37868 23.1291C5.94129 23.6917 6.70435 24.0078 7.5 24.0078H25.5C26.2956 24.0078 27.0587 23.6917 27.6213 23.1291C28.1839 22.5665 28.5 21.8035 28.5 21.0078V15.0078C28.5001 14.3729 28.2988 13.7543 27.925 13.2411C27.5513 12.7279 27.0243 12.3465 26.42 12.1518L26.402 12.0078H27.5C27.7652 12.0078 28.0196 11.9025 28.2071 11.7149C28.3946 11.5274 28.5 11.273 28.5 11.0078C28.5 10.7426 28.3946 10.4882 28.2071 10.3007C28.0196 10.1132 27.7652 10.0078 27.5 10.0078H26.146L25.826 7.50181C25.7029 6.53672 25.2323 5.64957 24.5023 5.00643C23.7723 4.36329 22.8329 4.00827 21.86 4.00781H20.5V3.00781C20.5 2.7426 20.3946 2.48824 20.2071 2.30071C20.0196 2.11317 19.7652 2.00781 19.5 2.00781H13.5ZM21.86 6.00781C22.3461 6.00825 22.8155 6.18573 23.1802 6.50708C23.545 6.82842 23.7803 7.27162 23.842 7.75381L24.386 12.0078H8.606L9.154 7.75181C9.21623 7.26964 9.45196 6.82664 9.81711 6.50566C10.1823 6.18469 10.6518 6.0077 11.138 6.00781H21.86ZM9.504 18.0078C9.504 17.8111 9.54275 17.6163 9.61803 17.4346C9.69331 17.2528 9.80365 17.0877 9.94275 16.9486C10.0819 16.8095 10.247 16.6991 10.4287 16.6238C10.6105 16.5486 10.8053 16.5098 11.002 16.5098C11.1987 16.5098 11.3935 16.5486 11.5753 16.6238C11.757 16.6991 11.9221 16.8095 12.0612 16.9486C12.2003 17.0877 12.3107 17.2528 12.386 17.4346C12.4613 17.6163 12.5 17.8111 12.5 18.0078C12.5 18.4051 12.3422 18.7861 12.0612 19.0671C11.7803 19.348 11.3993 19.5058 11.002 19.5058C10.6047 19.5058 10.2237 19.348 9.94275 19.0671C9.66182 18.7861 9.504 18.4051 9.504 18.0078ZM20.5 18.0078C20.5 17.6105 20.6578 17.2295 20.9388 16.9486C21.2197 16.6676 21.6007 16.5098 21.998 16.5098C22.3953 16.5098 22.7763 16.6676 23.0572 16.9486C23.3382 17.2295 23.496 17.6105 23.496 18.0078C23.496 18.4051 23.3382 18.7861 23.0572 19.0671C22.7763 19.348 22.3953 19.5058 21.998 19.5058C21.6007 19.5058 21.2197 19.348 20.9388 19.0671C20.6578 18.7861 20.5 18.4051 20.5 18.0078ZM22.494 26.0078H25.494V26.5078C25.494 26.9056 25.336 27.2872 25.0547 27.5685C24.7734 27.8498 24.3918 28.0078 23.994 28.0078C23.5962 28.0078 23.2146 27.8498 22.9333 27.5685C22.652 27.2872 22.494 26.9056 22.494 26.5078V26.0078ZM7.5 26.0078H10.5V26.5078C10.5 26.9056 10.342 27.2872 10.0607 27.5685C9.77936 27.8498 9.39782 28.0078 9 28.0078C8.60218 28.0078 8.22064 27.8498 7.93934 27.5685C7.65804 27.2872 7.5 26.9056 7.5 26.5078V26.0078Z" fill="#FF8A34"/>
</svg>
