<svg width="32" height="33" viewBox="0 0 32 33" fill="none" xmlns="http://www.w3.org/2000/svg">
<path fill-rule="evenodd" clip-rule="evenodd" d="M16 28.1016C17.5759 28.1016 19.1363 27.7912 20.5922 27.1881C22.0481 26.5851 23.371 25.7011 24.4853 24.5868C25.5996 23.4725 26.4835 22.1497 27.0866 20.6938C27.6896 19.2379 28 17.6774 28 16.1016C28 14.5257 27.6896 12.9653 27.0866 11.5094C26.4835 10.0535 25.5996 8.73058 24.4853 7.61628C23.371 6.50198 22.0481 5.61806 20.5922 5.01501C19.1363 4.41195 17.5759 4.10156 16 4.10156C12.8174 4.10156 9.76516 5.36584 7.51472 7.61628C5.26428 9.86672 4 12.919 4 16.1016C4 19.2842 5.26428 22.3364 7.51472 24.5868C9.76516 26.8373 12.8174 28.1016 16 28.1016ZM15.6907 20.9549L22.3573 12.9549L20.3093 11.2482L14.576 18.1269L11.6093 15.1589L9.724 17.0442L13.724 21.0442L14.756 22.0762L15.6907 20.9549Z" fill="#FF8A34"/>
</svg>
