<svg width="24" height="24" viewBox="0 0 24 24" fill="none" xmlns="http://www.w3.org/2000/svg">
<path d="M12 7.00781V12.0078L15 15.0078M3 12.0078C3 13.1897 3.23279 14.36 3.68508 15.452C4.13738 16.5439 4.80031 17.536 5.63604 18.3718C6.47177 19.2075 7.46392 19.8704 8.55585 20.3227C9.64778 20.775 10.8181 21.0078 12 21.0078C13.1819 21.0078 14.3522 20.775 15.4442 20.3227C16.5361 19.8704 17.5282 19.2075 18.364 18.3718C19.1997 17.536 19.8626 16.5439 20.3149 15.452C20.7672 14.36 21 13.1897 21 12.0078C21 9.62086 20.0518 7.33168 18.364 5.64385C16.6761 3.95602 14.3869 3.00781 12 3.00781C9.61305 3.00781 7.32387 3.95602 5.63604 5.64385C3.94821 7.33168 3 9.62086 3 12.0078Z" stroke="#FF8A34" stroke-width="2" stroke-linecap="round" stroke-linejoin="round"/>
</svg>
