<svg width="24" height="24" viewBox="0 0 24 24" fill="none" xmlns="http://www.w3.org/2000/svg">
<path d="M6 20.0078C5.71667 20.0078 5.47934 19.9118 5.288 19.7198C5.09667 19.5278 5.00067 19.2905 5 19.0078C4.99934 18.7251 5.09534 18.4878 5.288 18.2958C5.48067 18.1038 5.718 18.0078 6 18.0078H18C18.2833 18.0078 18.521 18.1038 18.713 18.2958C18.905 18.4878 19.0007 18.7251 19 19.0078C18.9993 19.2905 18.9033 19.5281 18.712 19.7208C18.5207 19.9135 18.2833 20.0091 18 20.0078H6ZM6.7 16.5078C6.21667 16.5078 5.78767 16.3495 5.413 16.0328C5.03834 15.7161 4.809 15.3161 4.725 14.8328L3.725 8.48282C3.69167 8.48282 3.65434 8.48715 3.613 8.49581C3.57167 8.50448 3.534 8.50848 3.5 8.50781C3.08334 8.50781 2.72934 8.36215 2.438 8.07081C2.14667 7.77948 2.00067 7.42515 2 7.00781C1.99934 6.59048 2.14534 6.23648 2.438 5.94582C2.73067 5.65515 3.08467 5.50915 3.5 5.50781C3.91534 5.50648 4.26967 5.65248 4.563 5.94582C4.85634 6.23915 5.002 6.59315 5 7.00781C5 7.12448 4.98734 7.23281 4.962 7.33281C4.93667 7.43281 4.90767 7.52448 4.875 7.60781L8 9.00781L11.125 4.73281C10.9417 4.59948 10.7917 4.42448 10.675 4.20781C10.5583 3.99115 10.5 3.75781 10.5 3.50781C10.5 3.09115 10.646 2.73681 10.938 2.44481C11.23 2.15281 11.584 2.00715 12 2.00781C12.416 2.00848 12.7703 2.15448 13.063 2.44581C13.3557 2.73715 13.5013 3.09115 13.5 3.50781C13.5 3.75781 13.4417 3.99115 13.325 4.20781C13.2083 4.42448 13.0583 4.59948 12.875 4.73281L16 9.00781L19.125 7.60781C19.0917 7.52448 19.0623 7.43281 19.037 7.33281C19.0117 7.23281 18.9993 7.12448 19 7.00781C19 6.59115 19.146 6.23681 19.438 5.94481C19.73 5.65281 20.084 5.50715 20.5 5.50781C20.916 5.50848 21.2703 5.65448 21.563 5.94582C21.8557 6.23715 22.0013 6.59115 22 7.00781C21.9987 7.42448 21.853 7.77881 21.563 8.07081C21.273 8.36281 20.9187 8.50848 20.5 8.50781C20.4667 8.50781 20.4293 8.50381 20.388 8.49581C20.3467 8.48781 20.309 8.48348 20.275 8.48282L19.275 14.8328C19.1917 15.3161 18.9627 15.7161 18.588 16.0328C18.2133 16.3495 17.784 16.5078 17.3 16.5078H6.7Z" fill="#F36F0D"/>
</svg>
