<svg width="24" height="24" viewBox="0 0 24 24" fill="none" xmlns="http://www.w3.org/2000/svg">
<path d="M19.8089 17.2188C18.8549 17.2188 18.3719 17.3798 17.9047 17.5355C17.4859 17.6751 17.0902 17.807 16.2795 17.807C15.4687 17.807 15.0731 17.6751 14.6543 17.5355C14.1871 17.3798 13.704 17.2188 12.75 17.2188C11.7961 17.2188 11.313 17.3798 10.8458 17.5355C10.427 17.6751 10.0314 17.807 9.22061 17.807C8.40984 17.807 8.01425 17.6751 7.5954 17.5355C7.12822 17.3798 6.64513 17.2188 5.69118 17.2188H5.25V19.1305C5.25 19.3742 5.44753 19.5717 5.69118 19.5717H19.8089C20.0526 19.5717 20.2501 19.3742 20.2501 19.1305V17.6599C20.2501 17.4163 20.0526 17.2188 19.8089 17.2188Z" fill="black"/>
<path d="M13.4112 8.298C13.3294 8.1753 13.1917 8.10156 13.0442 8.10156H5.25V8.98392H13.8685L13.4112 8.298Z" fill="black"/>
<path d="M7.87443 16.7026C8.26837 16.8339 8.55299 16.9288 9.22061 16.9288C9.88823 16.9288 10.1728 16.8339 10.5668 16.7026C11.0759 16.5329 11.6528 16.3406 12.75 16.3406C13.8473 16.3406 14.4243 16.5329 14.9333 16.7026C15.3272 16.8339 15.6118 16.9288 16.2795 16.9288C16.5413 16.9288 16.7443 16.9142 16.918 16.8885C17.3461 16.8253 17.7444 16.6269 18.0523 16.3228C18.0536 16.3214 18.055 16.3201 18.0564 16.3187C18.8018 15.5805 19.2981 14.6448 19.4917 13.6126L19.5716 13.1865C19.6225 12.915 19.4142 12.6641 19.1379 12.6641H5.25V16.3406H5.69118C6.78839 16.3406 7.36537 16.5329 7.87443 16.7026ZM15.3971 13.9876H16.2795C16.5231 13.9876 16.7207 14.1851 16.7207 14.4288C16.7207 14.6724 16.5231 14.87 16.2795 14.87H15.3971C15.1535 14.87 14.9559 14.6724 14.9559 14.4288C14.9559 14.1851 15.1535 13.9876 15.3971 13.9876ZM12.75 13.9876H13.6324C13.8761 13.9876 14.0736 14.1851 14.0736 14.4288C14.0736 14.6724 13.8761 14.87 13.6324 14.87H12.75C12.5064 14.87 12.3089 14.6724 12.3089 14.4288C12.3089 14.1851 12.5064 13.9876 12.75 13.9876ZM10.103 13.9876H10.9853C11.229 13.9876 11.4265 14.1851 11.4265 14.4288C11.4265 14.6724 11.229 14.87 10.9853 14.87H10.103C9.85932 14.87 9.66179 14.6724 9.66179 14.4288C9.66179 14.1851 9.85932 13.9876 10.103 13.9876ZM7.4559 13.9876H8.33825C8.5819 13.9876 8.77943 14.1851 8.77943 14.4288C8.77943 14.6724 8.5819 14.87 8.33825 14.87H7.4559C7.21225 14.87 7.01472 14.6724 7.01472 14.4288C7.01472 14.1851 7.21225 13.9876 7.4559 13.9876Z" fill="black"/>
<path d="M9.36767 6.77712C9.36767 6.53347 9.17014 6.33594 8.92649 6.33594H5.69118C5.44753 6.33594 5.25 6.53347 5.25 6.77712V7.2183H9.36767V6.77712Z" fill="black"/>
<path d="M8.1905 4.9568C8.1905 4.71316 7.99297 4.51562 7.74932 4.51562H6.86696C6.62331 4.51562 6.42578 4.71316 6.42578 4.9568V5.45681H8.1905V4.9568Z" fill="black"/>
<path d="M11.4258 9.86719H13.4846V11.779H11.4258V9.86719Z" fill="black"/>
<path d="M16.0853 10.1111C16.0106 9.9616 15.8578 9.86719 15.6907 9.86719H14.3672V11.779H16.9193L16.0853 10.1111Z" fill="black"/>
<path d="M5.25 9.86719H7.60296V11.779H5.25V9.86719Z" fill="black"/>
<path d="M8.48438 9.86719H10.5432V11.779H8.48438V9.86719Z" fill="black"/>
</svg>
