<svg width="24" height="24" viewBox="0 0 24 24" fill="none" xmlns="http://www.w3.org/2000/svg">
<path d="M9.71059 9.02777L9.76872 9.20402C9.77434 9.22464 9.74997 9.25089 9.72184 9.30902C9.25872 10.2484 9.02059 10.9628 8.89309 11.6865C8.85184 11.9265 8.82559 12.1853 8.81997 12.4271C8.81434 12.6578 8.79559 12.8734 8.81247 13.104L8.86309 13.8296C8.89872 14.3453 9.02059 14.8571 9.12559 15.3559C9.16309 15.5303 9.22684 15.7159 9.28122 15.8846C9.30372 15.9559 9.31122 16.0309 9.33372 16.1021C9.33559 16.1134 9.34122 16.1246 9.34497 16.1359C9.47434 16.4696 9.46309 16.7715 9.39747 16.8521C9.28497 16.9909 9.11997 17.0959 8.96809 17.1484C8.62497 17.2684 8.22747 17.2984 7.88059 17.1746C7.55622 17.0584 7.60872 16.7734 7.53372 16.4734C7.48872 16.2971 7.45684 16.1021 7.44372 15.9128C7.41372 15.4759 7.36684 15.0371 7.37622 14.6021C7.38747 14.0378 7.42684 13.4734 7.50559 12.909C7.55434 12.5584 7.63122 12.2453 7.70247 11.8946C7.82997 11.2496 8.02872 10.7453 8.31747 10.1171C8.69247 9.30152 9.13684 8.83089 9.17434 8.84402L9.71059 9.02777Z" fill="black"/>
<path d="M4.38276 10.8068C4.32463 10.1281 4.44276 9.36309 4.92838 8.85122C5.15713 8.61122 5.51151 8.40122 5.80776 8.26059C6.60088 7.88747 7.60401 7.88559 8.50776 8.08059C8.27901 7.93622 8.04651 7.79747 7.80651 7.68309C7.55713 7.56309 7.30588 7.45997 7.04338 7.37372C6.97588 7.35122 6.92713 7.34934 6.92151 7.26872C6.91776 7.22747 6.93276 7.18434 6.94401 7.14122C6.97588 7.00622 7.04901 6.89934 7.10713 6.76997C7.16713 6.63309 7.27776 6.47372 7.23463 6.32184C7.16713 6.31059 7.03776 6.42872 6.97963 6.46434C6.87088 6.52997 6.77338 6.59934 6.67213 6.67247C6.58588 6.73434 6.50151 6.79434 6.41713 6.85997C6.37026 6.89747 6.31026 6.97809 6.25401 6.99684C6.15838 7.03059 6.03838 6.94247 5.95026 6.91622C5.88651 6.89559 5.86401 6.90497 5.87901 6.83184C5.90151 6.70809 5.94276 6.59934 5.97088 6.47747C6.00088 6.34997 6.02526 6.21309 5.98776 6.08559C5.89213 6.06872 5.71963 6.26559 5.65588 6.32184C5.59213 6.37622 5.52276 6.43997 5.46651 6.50559C5.41963 6.55997 5.40088 6.65184 5.32026 6.65747C5.27713 6.66122 5.23213 6.62747 5.19088 6.61809C5.11963 6.60309 5.07651 6.57309 5.00901 6.54872C4.87588 6.49997 4.73526 6.45309 4.60026 6.41372C4.43901 6.36684 4.44088 6.33309 4.52151 6.18684C4.56651 6.10434 4.63213 6.03309 4.69026 5.95997C4.84963 5.76497 5.00713 5.63184 5.21338 5.49497C5.28838 5.44434 5.38026 5.42559 5.45338 5.37122C5.52088 5.32247 5.58838 5.29622 5.67088 5.26809C5.84713 5.20997 6.02713 5.16309 6.21088 5.12747C7.37713 4.90247 8.58276 5.56434 9.19776 6.56372C9.16776 6.27497 9.10963 5.98809 9.06463 5.70122C9.04963 5.60372 9.04213 5.51559 9.01026 5.42372C8.98776 5.35809 8.91463 5.12184 8.97088 5.07872C9.04963 5.01684 9.77526 4.91184 9.71526 4.82372C9.65526 4.73934 9.47713 4.73747 9.38713 4.72247C9.27463 4.70372 9.16213 4.69809 9.04963 4.67184C8.96713 4.65309 8.85838 4.67747 8.78526 4.63059C8.72901 4.59497 8.71963 4.51059 8.69901 4.45434C8.66713 4.37372 8.29026 3.47184 8.36526 3.43809C8.40838 3.41934 8.50026 3.43809 8.54901 3.43622C8.62213 3.43434 8.69713 3.44934 8.77026 3.45872C8.87151 3.47184 8.97838 3.48309 9.07776 3.50934C9.29901 3.56747 9.51838 3.64247 9.72838 3.73809C9.83151 3.78497 9.93276 3.83559 10.0303 3.89372C10.4878 4.16184 10.8571 4.54434 11.0428 5.05809C11.2115 5.52309 11.1178 6.02559 10.9471 6.47934C11.1451 6.29862 11.3549 6.13137 11.5753 5.97872C12.3178 5.47434 13.3453 5.42184 14.174 5.73309C14.4609 5.84184 14.7571 5.99934 15.0046 6.17934C15.239 6.35184 15.5953 6.73809 15.6984 7.01559C15.719 7.07372 15.7378 7.13184 15.7565 7.18997C15.7528 7.19184 15.7471 7.19184 15.7434 7.19372C15.6421 7.21809 14.5921 7.52559 14.5565 7.41497C14.5303 7.32872 14.4384 7.25559 14.3896 7.18059C14.2434 6.96309 13.8309 6.56372 13.5234 6.68372C13.5215 6.75497 13.5721 6.79622 13.6078 6.85434C13.664 6.94809 13.7203 7.04184 13.7784 7.13372C13.8515 7.25372 13.9246 7.35497 13.9303 7.49934C13.8028 7.53684 13.6565 7.54622 13.5234 7.56684C13.409 7.58559 13.2965 7.61559 13.1784 7.61934C13.1746 7.61934 13.0453 7.36247 13.0246 7.32684C12.959 7.22184 12.8709 7.14122 12.7771 7.06247C12.7265 7.02122 12.599 6.91247 12.5278 6.94997C12.5128 6.95747 12.6553 7.47684 12.6646 7.51434C12.6871 7.59309 12.7246 7.66809 12.7284 7.75059C12.4828 7.86122 12.2109 7.89309 11.9521 7.96059C11.8396 7.99059 11.7271 8.02997 11.6146 8.07122C11.6221 8.06934 11.6278 8.06934 11.6353 8.06934C11.9915 8.04122 12.3515 8.04497 12.7078 8.09372C13.4128 8.19122 14.1234 8.42372 14.6728 8.87934C15.2034 9.31809 15.6178 10.2312 15.6665 10.91C15.6834 11.1668 15.6946 11.2306 15.6871 11.4893C15.6815 11.6525 15.6834 11.8493 15.6159 12.0031C15.5896 12.0631 15.5015 12.3143 15.4059 12.2618C15.3365 12.2243 15.2878 12.1325 15.2315 12.0781C15.0815 11.9281 14.9278 11.7837 14.7796 11.6337C14.7121 11.5662 14.489 11.4125 14.5115 11.3075C14.5378 11.1875 14.5284 11.0543 14.5228 10.9343C14.5153 10.7581 14.4984 10.5818 14.4553 10.4112C14.4365 10.3381 14.4159 10.2631 14.3784 10.1956C14.3634 10.1656 14.2846 10.0531 14.2453 10.0737C14.2265 10.0831 14.2378 10.1731 14.2396 10.19C14.2415 10.2593 14.2471 10.3287 14.2528 10.3981C14.2584 10.4806 14.2715 10.5612 14.2678 10.6437C14.2621 10.7431 14.2434 10.8425 14.2303 10.9418C14.2228 10.9962 14.2134 11.075 14.1721 11.1162C14.1253 11.165 14.0596 11.105 14.0203 11.0768C13.9134 11 13.8046 10.9175 13.7034 10.8368C13.6603 10.8012 13.6246 10.7543 13.5815 10.7168C13.5684 10.7056 13.5421 10.6962 13.5328 10.6831C13.514 10.6568 13.529 10.5893 13.5309 10.5593C13.5346 10.5031 13.5459 10.4468 13.5478 10.3887C13.5496 10.2668 13.5234 10.1506 13.4915 10.0343C13.4728 9.96309 13.4578 9.77184 13.3846 9.73622C13.3284 9.70809 13.3528 9.78872 13.3584 9.81872C13.3828 9.96872 13.3715 10.1168 13.3471 10.2668C13.3359 10.3287 13.3303 10.4056 13.2946 10.46C13.2459 10.535 13.1765 10.4637 13.1221 10.4281C12.9534 10.3175 12.7865 10.205 12.6159 10.0943C12.5803 10.07 12.5446 10.0475 12.5071 10.025C12.4303 9.97997 12.3515 9.93684 12.2746 9.89184C12.4621 10.0962 12.6215 10.325 12.734 10.5781C12.869 10.88 12.9834 11.285 12.9853 11.6168C12.9871 11.9187 12.9328 12.2693 12.8071 12.5487C12.7078 12.7662 12.524 13.0156 12.3271 13.1543C12.1959 13.2462 11.9915 12.845 11.9503 12.7718C11.8846 12.6575 11.8321 12.5356 11.7609 12.425C11.7046 12.3368 11.5659 12.1831 11.6109 12.0706C11.6296 12.0218 11.6596 11.9768 11.6784 11.9225C11.7834 11.6262 11.9428 11.3506 11.8528 11.0225C11.8153 11.0375 11.7871 11.1068 11.7721 11.1462C11.7365 11.2362 11.7065 11.3318 11.6634 11.42C11.6203 11.5062 11.5959 11.6018 11.5378 11.6825C11.5003 11.7368 11.4721 11.8043 11.4159 11.8418C11.3409 11.8925 11.309 11.7968 11.2846 11.7443C11.2415 11.6506 11.1721 11.5756 11.1178 11.4875C11.0671 11.4068 11.0034 11.3318 10.9509 11.2493C10.9021 11.1743 10.8121 11.0862 10.814 10.9906C10.814 10.9381 10.8571 10.8875 10.8721 10.8368C10.8928 10.7637 10.9153 10.6887 10.9321 10.6137C10.9453 10.5556 10.9546 10.4937 10.9603 10.4356C10.964 10.4037 10.9528 10.3437 10.9678 10.3231C10.9434 10.3812 10.8646 10.4393 10.8253 10.49C10.7896 10.5368 10.6696 10.7356 10.5946 10.7056C10.4896 10.6625 10.4409 10.5331 10.3828 10.445C10.304 10.3231 10.2121 10.2143 10.139 10.0925C10.0471 9.93497 9.92151 9.81872 9.79963 9.68747C9.71526 9.59559 9.61776 9.52059 9.53526 9.42872C9.48838 9.37622 9.38151 9.29372 9.34963 9.22809C8.92026 9.40809 8.47213 9.56559 8.05776 9.77934C7.89088 9.86372 7.73151 9.96309 7.56838 10.055C7.45026 10.1206 7.31901 10.1543 7.19526 10.2162C7.12588 10.2518 7.05276 10.325 6.98901 10.2443C6.94401 10.1862 6.92151 10.1075 6.87651 10.0456C6.81838 9.96497 6.78088 9.87872 6.74338 9.78684C6.71338 9.71747 6.69838 9.63497 6.65901 9.57122C6.63276 9.53184 6.58963 9.43434 6.54838 9.40997C6.46026 9.36122 6.46588 9.49809 6.45651 9.56559C6.42838 9.79059 6.48276 10.0343 6.52401 10.2537C6.54276 10.355 6.59713 10.4506 6.60088 10.5537C6.55401 10.5612 6.51276 10.6025 6.47151 10.6231C6.40401 10.6587 6.33088 10.685 6.25963 10.715C6.21651 10.7318 6.13776 10.7862 6.09651 10.7881C6.04026 10.79 6.03838 10.7412 6.00088 10.7C5.90713 10.5968 5.83401 10.4731 5.76651 10.3493C5.68026 10.1937 5.63901 10.0137 5.52838 9.87309C5.52463 9.86747 5.48526 10.0193 5.48338 10.0343C5.46651 10.1375 5.45713 10.2181 5.45901 10.3212C5.46088 10.3718 5.45338 10.4262 5.45338 10.4768C5.45338 10.5612 5.46838 10.6456 5.48151 10.7318C5.50401 10.8743 5.54338 11.0243 5.54901 11.1687C5.44588 11.2006 5.36338 11.2962 5.26776 11.345C5.19651 11.3825 4.60026 11.72 4.60213 11.7387C4.59463 11.6806 4.55526 11.6225 4.54213 11.5643C4.52338 11.4893 4.50276 11.4162 4.47463 11.3431C4.40526 11.1743 4.39776 10.9831 4.38276 10.8068Z" fill="black"/>
<path d="M0.333984 19.4766V17.1703C0.333984 17.1703 0.680859 16.2422 2.49961 16.2422C3.94898 16.2422 3.92461 16.7934 5.73398 16.7934C7.35773 16.7934 7.13461 16.2422 8.64211 16.2422C10.4159 16.2422 10.6934 16.9603 11.914 16.9603C13.1346 16.9603 13.7927 16.2422 15.0977 16.2422C16.4027 16.2422 17.2315 17.0372 18.4521 17.0372C19.6934 17.0372 19.9521 16.2497 21.349 16.2497C22.5884 16.2497 23.3121 16.9041 23.3121 17.4009V19.2422L0.333984 19.4766Z" fill="black"/>
</svg>
