<svg width="24" height="25" viewBox="0 0 24 25" fill="none" xmlns="http://www.w3.org/2000/svg">
<path d="M23.1412 23.6473H22.284C21.3748 23.6473 20.5027 23.2861 19.8597 22.6431C19.2167 22.0001 18.8555 21.128 18.8555 20.2188C18.8555 21.128 18.4943 22.0001 17.8512 22.6431C17.2082 23.2861 16.3362 23.6473 15.4269 23.6473C14.5176 23.6473 13.6455 23.2861 13.0025 22.6431C12.3595 22.0001 11.9983 21.128 11.9983 20.2188C11.9983 21.128 11.6371 22.0001 10.9941 22.6431C10.3511 23.2861 9.47906 23.6473 8.56975 23.6473C7.66045 23.6473 6.78837 23.2861 6.14539 22.6431C5.5024 22.0001 5.14118 21.128 5.14118 20.2188C5.14118 21.128 4.77997 22.0001 4.13697 22.6431C3.49399 23.2861 2.62192 23.6473 1.71261 23.6473H0.855469" stroke="black" stroke-width="2" stroke-linecap="round" stroke-linejoin="round"/>
<path d="M4.28516 4.79185C4.28516 3.88254 4.64637 3.01047 5.28937 2.36749C5.93234 1.72451 6.80442 1.36328 7.71373 1.36328C8.62304 1.36328 9.49511 1.72451 10.1381 2.36749C10.7811 3.01047 11.1423 3.88254 11.1423 4.79185V16.7919" stroke="black" stroke-width="2" stroke-linecap="round" stroke-linejoin="round"/>
<path d="M16.2852 1.36328C17.1944 1.36328 18.0665 1.72451 18.7095 2.36749C19.3525 3.01047 19.7137 3.88254 19.7137 4.79185V16.7919" stroke="black" stroke-width="2" stroke-linecap="round" stroke-linejoin="round"/>
<path d="M11.1406 8.21875H19.7121" stroke="black" stroke-width="2" stroke-linecap="round" stroke-linejoin="round"/>
<path d="M11.1406 13.3633H19.7121" stroke="black" stroke-width="2" stroke-linecap="round" stroke-linejoin="round"/>
</svg>
