<svg width="20" height="20" viewBox="0 0 20 20" fill="none" xmlns="http://www.w3.org/2000/svg">
<g clip-path="url(#clip0_1723_10481)">
<path fill-rule="evenodd" clip-rule="evenodd" d="M20 10.0078C20 7.35565 18.9464 4.81211 17.0711 2.93674C15.1957 1.06138 12.6522 0.0078125 10 0.0078125C7.34784 0.0078125 4.8043 1.06138 2.92893 2.93674C1.05357 4.81211 0 7.35565 0 10.0078C0 12.66 1.05357 15.2035 2.92893 17.0789C4.8043 18.9542 7.34784 20.0078 10 20.0078C12.6522 20.0078 15.1957 18.9542 17.0711 17.0789C18.9464 15.2035 20 12.66 20 10.0078ZM14.9143 7.0821C14.9143 7.88924 14.2614 8.54353 13.4543 8.54496H13.4514C13.0712 8.53364 12.7102 8.37477 12.445 8.10198C12.1798 7.82919 12.0312 7.4639 12.0307 7.08346C12.0301 6.70302 12.1777 6.33729 12.442 6.06373C12.7064 5.79016 13.0669 5.63024 13.4471 5.61781H13.4514C14.2586 5.61781 14.9143 6.27353 14.9143 7.0821ZM8.01286 7.0821C8.01286 7.88924 7.36 8.54353 6.55286 8.54496H6.54857C6.16831 8.53345 5.80745 8.3744 5.5424 8.10148C5.27736 7.82857 5.12894 7.46321 5.12857 7.08277C5.1282 6.70233 5.2759 6.33668 5.54041 6.06325C5.80493 5.78981 6.16547 5.63006 6.54571 5.61781H6.54857C7.35714 5.61781 8.01286 6.27353 8.01286 7.0821ZM5.98429 11.0935C5.95761 10.9763 5.90754 10.8657 5.83708 10.7683C5.76661 10.6709 5.6772 10.5887 5.5742 10.5267C5.47121 10.4647 5.35675 10.4241 5.23769 10.4074C5.11864 10.3907 4.99743 10.3982 4.88135 10.4295C4.76527 10.4608 4.65671 10.5152 4.56216 10.5895C4.46762 10.6637 4.38905 10.7563 4.33115 10.8617C4.27326 10.967 4.23725 11.083 4.22527 11.2026C4.21328 11.3222 4.22558 11.4431 4.26143 11.5578C4.60225 12.8197 5.34934 13.9342 6.38716 14.7289C7.42498 15.5237 8.69571 15.9543 10.0029 15.9543C11.31 15.9543 12.5807 15.5237 13.6186 14.7289C14.6564 13.9342 15.4035 12.8197 15.7443 11.5578C15.7753 11.4444 15.7836 11.326 15.7688 11.2094C15.754 11.0928 15.7162 10.9803 15.6578 10.8783C15.5993 10.7763 15.5213 10.6868 15.4282 10.615C15.3351 10.5433 15.2288 10.4906 15.1152 10.46C15.0017 10.4294 14.8833 10.4216 14.7667 10.4369C14.6502 10.4522 14.5378 10.4904 14.436 10.5493C14.3343 10.6081 14.2451 10.6865 14.1737 10.7799C14.1024 10.8733 14.0501 10.9799 14.02 11.0935C13.7813 11.9763 13.2585 12.7558 12.5324 13.3116C11.8063 13.8675 10.9173 14.1687 10.0029 14.1687C9.08842 14.1687 8.19945 13.8675 7.47334 13.3116C6.74723 12.7558 6.22299 11.9763 5.98429 11.0935Z" fill="#F36F0D"/>
</g>
<defs>
<clipPath id="clip0_1723_10481">
<rect width="20" height="20" fill="white" transform="translate(0 0.0078125)"/>
</clipPath>
</defs>
</svg>
