<svg width="24" height="24" viewBox="0 0 24 24" fill="none" xmlns="http://www.w3.org/2000/svg">
<path d="M10 17.0078C10 17.5382 10.2107 18.047 10.5858 18.422C10.9609 18.7971 11.4696 19.0078 12 19.0078H15.5C16.9587 19.0078 18.3576 18.4284 19.3891 17.3969C20.4205 16.3655 21 14.9665 21 13.5078V4.00781M4 7.00781H16C16.2652 7.00781 16.5196 7.11317 16.7071 7.30071C16.8946 7.48824 17 7.7426 17 8.00781V12.5078C17 13.1709 16.7366 13.8067 16.2678 14.2756C15.7989 14.7444 15.163 15.0078 14.5 15.0078H14C13.4696 15.0078 12.9609 14.7971 12.5858 14.422C12.2107 14.047 12 13.5382 12 13.0078C12 12.4774 11.7893 11.9687 11.4142 11.5936C11.0391 11.2185 10.5304 11.0078 10 11.0078C9.46957 11.0078 8.96086 11.2185 8.58579 11.5936C8.21071 11.9687 8 12.4774 8 13.0078C8 13.5382 7.78929 14.047 7.41421 14.422C7.03914 14.7971 6.53043 15.0078 6 15.0078H5.5C4.83696 15.0078 4.20107 14.7444 3.73223 14.2756C3.26339 13.8067 3 13.1709 3 12.5078V8.00781C3 7.7426 3.10536 7.48824 3.29289 7.30071C3.48043 7.11317 3.73478 7.00781 4 7.00781Z" stroke="#FF8A34" stroke-width="2" stroke-linecap="round" stroke-linejoin="round"/>
</svg>
