<svg width="21" height="20" viewBox="0 0 21 20" fill="none" xmlns="http://www.w3.org/2000/svg">
<path d="M10.4995 16.7628L5.40971 19.8203C5.18486 19.963 4.9498 20.0241 4.70451 20.0037C4.45922 19.9833 4.24459 19.9018 4.06062 19.7591C3.87665 19.6164 3.73357 19.4383 3.63136 19.2247C3.52916 19.0111 3.50872 18.7714 3.57004 18.5056L4.91913 12.7269L0.411935 8.84393C0.207526 8.66048 0.0799757 8.45134 0.0292824 8.21653C-0.0214108 7.98172 -0.00628465 7.75261 0.074661 7.52921C0.155607 7.30581 0.278251 7.12236 0.442596 6.97886C0.60694 6.83537 0.831789 6.74364 1.11714 6.70369L7.06542 6.18392L9.36501 0.741607C9.46722 0.497009 9.62584 0.31356 9.84087 0.191261C10.0559 0.0689619 10.2754 0.0078125 10.4995 0.0078125C10.7235 0.0078125 10.943 0.0689619 11.1581 0.191261C11.3731 0.31356 11.5317 0.497009 11.6339 0.741607L13.9335 6.18392L19.8818 6.70369C20.168 6.74446 20.3928 6.83618 20.5564 6.97886C20.7199 7.12155 20.8425 7.305 20.9243 7.52921C21.0061 7.75343 21.0216 7.98294 20.9709 8.21775C20.9202 8.45257 20.7922 8.66129 20.587 8.84393L16.0798 12.7269L17.4289 18.5056C17.4902 18.7705 17.4698 19.0102 17.3676 19.2247C17.2654 19.4391 17.1223 19.6173 16.9383 19.7591C16.7544 19.901 16.5397 19.9825 16.2944 20.0037C16.0492 20.0249 15.8141 19.9638 15.5892 19.8203L10.4995 16.7628Z" fill="#F36F0D"/>
</svg>
