<svg width="32" height="33" viewBox="0 0 32 33" fill="none" xmlns="http://www.w3.org/2000/svg">
<path d="M16 4.10547C15.4752 4.10547 14.9556 4.20883 14.4708 4.40965C13.986 4.61046 13.5455 4.90481 13.1744 5.27587C12.8033 5.64693 12.509 6.08745 12.3082 6.57227C12.1074 7.05708 12.004 7.57671 12.004 8.10147C12.004 8.62623 12.1074 9.14585 12.3082 9.63067C12.509 10.1155 12.8033 10.556 13.1744 10.9271C13.5455 11.2981 13.986 11.5925 14.4708 11.7933C14.9556 11.9941 15.4752 12.0975 16 12.0975C17.0598 12.0975 18.0762 11.6765 18.8256 10.9271C19.575 10.1777 19.996 9.16127 19.996 8.10147C19.996 7.04166 19.575 6.02527 18.8256 5.27587C18.0762 4.52647 17.0598 4.10547 16 4.10547ZM25 6.10147C24.2044 6.10147 23.4413 6.41754 22.8787 6.98015C22.3161 7.54276 22 8.30582 22 9.10147C22 9.89712 22.3161 10.6602 22.8787 11.2228C23.4413 11.7854 24.2044 12.1015 25 12.1015C25.7956 12.1015 26.5587 11.7854 27.1213 11.2228C27.6839 10.6602 28 9.89712 28 9.10147C28 8.30582 27.6839 7.54276 27.1213 6.98015C26.5587 6.41754 25.7956 6.10147 25 6.10147ZM7 6.10147C6.20435 6.10147 5.44129 6.41754 4.87868 6.98015C4.31607 7.54276 4 8.30582 4 9.10147C4 9.89712 4.31607 10.6602 4.87868 11.2228C5.44129 11.7854 6.20435 12.1015 7 12.1015C7.79565 12.1015 8.55871 11.7854 9.12132 11.2228C9.68393 10.6602 10 9.89712 10 9.10147C10 8.30582 9.68393 7.54276 9.12132 6.98015C8.55871 6.41754 7.79565 6.10147 7 6.10147ZM10 16.0875C10.0037 15.5595 10.216 15.0543 10.5907 14.6823C10.9654 14.3102 11.472 14.1015 12 14.1015H20C20.5304 14.1015 21.0391 14.3122 21.4142 14.6873C21.7893 15.0623 22 15.571 22 16.1015V22.1015C22.0005 22.731 21.902 23.3566 21.708 23.9555C21.2651 25.3129 20.3529 26.4679 19.135 27.2133C17.9172 27.9586 16.4735 28.2453 15.0633 28.022C13.653 27.7987 12.3686 27.0799 11.4406 25.9948C10.5126 24.9097 10.0018 23.5293 10 22.1015V16.0875ZM8 16.1015C8 15.3715 8.194 14.6895 8.536 14.1015H4C3.46957 14.1015 2.96086 14.3122 2.58579 14.6873C2.21071 15.0623 2 15.571 2 16.1015V21.1015C1.99973 21.9201 2.20045 22.7262 2.58455 23.4491C2.96864 24.1721 3.52435 24.7896 4.20288 25.2475C4.88142 25.7055 5.66201 25.9898 6.47611 26.0756C7.29022 26.1614 8.11293 26.046 8.872 25.7395C8.29759 24.6122 7.99874 23.3647 8 22.0995V16.1015ZM24 16.1015V22.1015C24 23.4115 23.686 24.6475 23.128 25.7395C23.8871 26.046 24.7098 26.1614 25.5239 26.0756C26.338 25.9898 27.1186 25.7055 27.7971 25.2475C28.4756 24.7896 29.0314 24.1721 29.4155 23.4491C29.7995 22.7262 30.0003 21.9201 30 21.1015V16.1015C30 15.571 29.7893 15.0623 29.4142 14.6873C29.0391 14.3122 28.5304 14.1015 28 14.1015H23.464C23.804 14.6895 24 15.3715 24 16.1015Z" fill="#FF8A34"/>
</svg>
