<svg width="24" height="24" viewBox="0 0 24 24" fill="none" xmlns="http://www.w3.org/2000/svg">
<path d="M8 12.0078C9.06087 12.0078 10.0783 11.5864 10.8284 10.8362C11.5786 10.0861 12 9.06868 12 8.00781C12 6.94695 11.5786 5.92953 10.8284 5.17939C10.0783 4.42924 9.06087 4.00781 8 4.00781C6.93913 4.00781 5.92172 4.42924 5.17157 5.17939C4.42143 5.92953 4 6.94695 4 8.00781C4 9.06868 4.42143 10.0861 5.17157 10.8362C5.92172 11.5864 6.93913 12.0078 8 12.0078ZM17 12.0078C17.7956 12.0078 18.5587 11.6917 19.1213 11.1291C19.6839 10.5665 20 9.80346 20 9.00781C20 8.21216 19.6839 7.4491 19.1213 6.88649C18.5587 6.32388 17.7956 6.00781 17 6.00781C16.2044 6.00781 15.4413 6.32388 14.8787 6.88649C14.3161 7.4491 14 8.21216 14 9.00781C14 9.80346 14.3161 10.5665 14.8787 11.1291C15.4413 11.6917 16.2044 12.0078 17 12.0078ZM3.375 13.5078C2.87772 13.5078 2.40081 13.7054 2.04917 14.057C1.69754 14.4086 1.5 14.8855 1.5 15.3828V16.0078C1.5 16.0078 1.5 20.5078 8 20.5078C14.5 20.5078 14.5 16.0078 14.5 16.0078V15.3828C14.5 14.8855 14.3025 14.4086 13.9508 14.057C13.5992 13.7054 13.1223 13.5078 12.625 13.5078H3.375ZM14.337 19.0523C15.025 19.3313 15.8965 19.5078 16.9995 19.5078C22.2495 19.5078 22.2495 15.5078 22.2495 15.5078V15.3828C22.2495 14.8856 22.052 14.4088 21.7005 14.0572C21.349 13.7055 20.8722 13.5079 20.375 13.5078H14.8035C15.253 14.029 15.4999 14.6946 15.499 15.3828V16.0303L15.4985 16.0588L15.4955 16.1338C15.4928 16.1915 15.487 16.2631 15.478 16.3488C15.4529 16.5721 15.4128 16.7934 15.358 17.0113C15.1684 17.7572 14.8202 18.4533 14.337 19.0523Z" fill="black"/>
</svg>
