<svg width="33" height="32" viewBox="0 0 33 32" fill="none" xmlns="http://www.w3.org/2000/svg">
<g clip-path="url(#clip0_1742_26360)">
<path d="M30.7227 27.5651C29.745 27.4762 28.8561 27.1206 28.0561 26.4984C27.6116 26.054 26.9894 25.7873 26.2783 25.7873C25.6561 25.7873 24.945 26.054 24.5005 26.4984C23.7005 27.2095 22.7227 27.4762 21.745 27.4762C20.6783 27.4762 19.6116 27.1206 18.8116 26.4984C17.745 25.5206 16.145 25.5206 15.1672 26.4984C14.3672 27.2095 13.3005 27.5651 12.145 27.5651C11.0783 27.5651 10.1005 27.2095 9.30052 26.4984C8.76719 26.054 8.14497 25.7873 7.52274 25.7873C6.81163 25.7873 6.01163 26.054 5.4783 26.4984C4.58941 27.2095 3.43385 27.5651 2.36719 27.4762V25.7873C3.0783 25.7873 3.8783 25.5206 4.41163 24.9873C5.30052 24.2762 6.36719 23.9206 7.43385 24.0095C8.50052 24.0095 9.56719 24.3651 10.3672 25.0762C11.4339 26.054 13.0339 26.054 14.1005 25.0762C15.7894 23.654 18.2783 23.654 19.8783 25.0762C20.945 26.054 22.545 26.054 23.5227 25.0762C24.3227 24.3651 25.3894 24.0095 26.4561 24.0095C27.4339 24.0095 28.4116 24.3651 29.1227 25.0762C29.6561 25.5206 29.8339 25.7873 30.7227 25.7873V27.5651Z" fill="#FF8A34"/>
<path d="M4.14358 23.2963C4.67691 22.8518 5.21024 22.5852 5.83247 22.4074V20.4518C5.83247 19.9185 6.18802 19.474 6.72135 19.474H28.9436L25.7436 22.2296H25.9214C26.6325 22.2296 27.3436 22.4074 27.8769 22.674L30.0991 20.7185L30.2769 20.5407C30.8991 19.7407 30.7214 18.674 29.9214 18.0518C29.7436 17.874 29.2991 17.7852 28.9436 17.7852H6.72135C5.21024 17.7852 4.05469 18.9407 4.05469 20.4518L4.14358 23.2963Z" fill="#FF8A34"/>
<path d="M13.7439 16.8079H8.41059C7.43281 16.8079 6.63281 16.0079 6.63281 15.0301C6.63281 14.6746 6.7217 14.319 6.98837 13.9635L10.6328 8.8079C11.1661 8.0079 12.3217 7.83012 13.1217 8.36345C13.5661 8.71901 13.8328 9.25234 13.8328 9.78568V16.8079H13.7439Z" fill="#FF8A34"/>
<path d="M22.1004 16.8069H14.7227V5.69575C14.7227 4.71797 15.5227 3.91797 16.5004 3.91797C17.1227 3.91797 17.656 4.27352 18.0115 4.80686L23.6115 14.0513C24.1449 14.9402 23.7893 16.0069 22.9893 16.4513C22.7227 16.6291 22.3671 16.718 22.1004 16.8069Z" fill="#FF8A34"/>
</g>
<defs>
<clipPath id="clip0_1742_26360">
<rect width="32" height="32" fill="white" transform="translate(0.5 0.0078125)"/>
</clipPath>
</defs>
</svg>
