<svg width="43" height="42" viewBox="0 0 43 42" fill="none" xmlns="http://www.w3.org/2000/svg">
<path d="M30.25 5.85262C32.8895 7.37662 35.0851 9.56354 36.6197 12.1969C38.1542 14.8303 38.9744 17.8187 38.999 20.8665C39.0236 23.9142 38.2518 26.9155 36.76 29.5733C35.2682 32.2311 33.1082 34.4533 30.4937 36.0197C27.8792 37.5861 24.9009 38.4426 21.8537 38.5042C18.8065 38.5659 15.796 37.8307 13.1202 36.3713C10.4445 34.9119 8.19627 32.779 6.59817 30.1838C5.00006 27.5885 4.10747 24.6209 4.00875 21.5746L4 21.0076L4.00875 20.4406C4.10676 17.4184 4.98621 14.4731 6.56137 11.8919C8.13653 9.31067 10.3536 7.18167 12.9966 5.71242C15.6395 4.24317 18.618 3.48382 21.6418 3.50839C24.6655 3.53296 27.6313 4.34062 30.25 5.85262ZM27.9872 16.2704C27.6859 15.9691 27.285 15.7881 26.8597 15.7613C26.4344 15.7346 26.014 15.8639 25.6772 16.1251L25.5128 16.2704L19.75 22.0314L17.4872 19.7704L17.3228 19.6251C16.986 19.3641 16.5656 19.2349 16.1405 19.2617C15.7153 19.2886 15.3145 19.4696 15.0132 19.7708C14.712 20.0721 14.5309 20.4729 14.5041 20.8981C14.4773 21.3233 14.6065 21.7436 14.8675 22.0804L15.0128 22.2449L18.5128 25.7449L18.6772 25.8901C18.9842 26.1282 19.3616 26.2575 19.75 26.2575C20.1384 26.2575 20.5158 26.1282 20.8228 25.8901L20.9872 25.7449L27.9872 18.7449L28.1325 18.5804C28.3937 18.2437 28.523 17.8232 28.4963 17.3979C28.4696 16.9726 28.2886 16.5717 27.9872 16.2704Z" fill="#FF8A34"/>
</svg>
