<svg width="32" height="33" viewBox="0 0 32 33" fill="none" xmlns="http://www.w3.org/2000/svg">
<path d="M4 17.4336C4 20.6162 5.26428 23.6684 7.51472 25.9189C9.76515 28.1693 12.8174 29.4336 16 29.4336C16 22.7669 10.6267 17.4336 4 17.4336ZM16 7.43359C16.8841 7.43359 17.7319 7.78478 18.357 8.4099C18.9821 9.03503 19.3333 9.88287 19.3333 10.7669C19.3333 11.651 18.9821 12.4988 18.357 13.124C17.7319 13.7491 16.8841 14.1003 16 14.1003C15.1159 14.1003 14.2681 13.7491 13.643 13.124C13.0179 12.4988 12.6667 11.651 12.6667 10.7669C12.6667 9.88287 13.0179 9.03503 13.643 8.4099C14.2681 7.78478 15.1159 7.43359 16 7.43359ZM7.46667 13.7669C7.46667 14.651 7.81786 15.4988 8.44298 16.124C9.0681 16.7491 9.91595 17.1003 10.8 17.1003C11.5067 17.1003 12.16 16.8736 12.6667 16.5136V16.7669C12.6667 17.651 13.0179 18.4988 13.643 19.124C14.2681 19.7491 15.1159 20.1003 16 20.1003C16.8841 20.1003 17.7319 19.7491 18.357 19.124C18.9821 18.4988 19.3333 17.651 19.3333 16.7669V16.5136C19.84 16.8736 20.4933 17.1003 21.2 17.1003C22.0841 17.1003 22.9319 16.7491 23.557 16.124C24.1821 15.4988 24.5333 14.651 24.5333 13.7669C24.5333 12.4336 23.7467 11.3003 22.6267 10.7669C23.7467 10.2336 24.5333 9.08693 24.5333 7.76693C24.5333 6.88287 24.1821 6.03503 23.557 5.4099C22.9319 4.78478 22.0841 4.43359 21.2 4.43359C20.4933 4.43359 19.84 4.64693 19.3333 5.02026V4.76693C19.3333 3.88287 18.9821 3.03503 18.357 2.4099C17.7319 1.78478 16.8841 1.43359 16 1.43359C15.1159 1.43359 14.2681 1.78478 13.643 2.4099C13.0179 3.03503 12.6667 3.88287 12.6667 4.76693V5.02026C12.16 4.64693 11.5067 4.43359 10.8 4.43359C9.91595 4.43359 9.0681 4.78478 8.44298 5.4099C7.81786 6.03503 7.46667 6.88287 7.46667 7.76693C7.46667 9.08693 8.25333 10.2336 9.37333 10.7669C8.25333 11.3003 7.46667 12.4336 7.46667 13.7669ZM16 29.4336C19.1826 29.4336 22.2348 28.1693 24.4853 25.9189C26.7357 23.6684 28 20.6162 28 17.4336C21.3333 17.4336 16 22.7669 16 29.4336Z" fill="#FF8A34"/>
</svg>
