<svg width="34" height="35" viewBox="0 0 34 35" fill="none" xmlns="http://www.w3.org/2000/svg">
<path d="M0.668943 17.6677C1.25466 18.2534 1.84037 18.4377 2.99609 18.4377L15.6689 18.5049C15.7861 18.5049 15.8861 18.5049 15.9368 18.5713C15.9868 18.6213 16.0032 18.722 16.0032 18.8227L16.0532 31.5127C16.0704 32.6677 16.2547 33.2534 16.8404 33.8392C17.6275 34.6427 18.7325 34.5092 19.5525 33.7056C19.9882 33.2699 20.3397 32.5506 20.6575 31.8806L33.4647 4.25845C34.1339 2.85273 34.0504 1.81416 33.3647 1.12773C32.6939 0.458447 31.6561 0.374876 30.2504 1.04416L2.62751 13.8513C1.95751 14.1692 1.23823 14.5206 0.802514 14.9563C-0.00105694 15.7763 -0.134628 16.8649 0.668943 17.6684" fill="#FF8A34"/>
</svg>
