<svg width="33" height="33" viewBox="0 0 33 33" fill="none" xmlns="http://www.w3.org/2000/svg">
<path d="M0.25 16.5078C0.25 7.53281 7.525 0.257812 16.5 0.257812C25.475 0.257812 32.75 7.53281 32.75 16.5078C32.75 25.4828 25.475 32.7578 16.5 32.7578C7.525 32.7578 0.25 25.4828 0.25 16.5078ZM10.25 9.00781C10.25 9.69781 10.81 10.2578 11.5 10.2578H14C15 10.2578 15.6867 10.6578 16.15 11.2361C16.4067 11.5578 16.6067 11.9528 16.7367 12.3861H11.5C11.1685 12.3861 10.8505 12.5178 10.6161 12.7523C10.3817 12.9867 10.25 13.3046 10.25 13.6361C10.25 13.9677 10.3817 14.2856 10.6161 14.52C10.8505 14.7544 11.1685 14.8861 11.5 14.8861H16.7367C16.6183 15.3052 16.419 15.697 16.15 16.0395C15.6867 16.6178 15 17.0178 14 17.0178H11.5C11.2553 17.0179 11.016 17.0899 10.8118 17.2248C10.6075 17.3596 10.4474 17.5515 10.3512 17.7765C10.255 18.0015 10.227 18.2499 10.2707 18.4907C10.3143 18.7315 10.4276 18.9542 10.5967 19.1311L17.68 26.5378C17.9113 26.7671 18.2229 26.897 18.5486 26.9C18.8742 26.9029 19.1882 26.7787 19.4236 26.5537C19.659 26.3287 19.7974 26.0207 19.8091 25.6952C19.8209 25.3698 19.7052 25.0526 19.4867 24.8111L14.4117 19.5028C15.1264 19.4654 15.8249 19.2765 16.4611 18.9487C17.0973 18.6208 17.6565 18.1615 18.1017 17.6011C18.7201 16.8098 19.1329 15.8776 19.3033 14.8878H21.5C21.8315 14.8878 22.1495 14.7561 22.3839 14.5217C22.6183 14.2873 22.75 13.9693 22.75 13.6378C22.75 13.3063 22.6183 12.9883 22.3839 12.7539C22.1495 12.5195 21.8315 12.3878 21.5 12.3878H19.3033C19.1695 11.6358 18.9007 10.9142 18.51 10.2578H21.5C21.8315 10.2578 22.1495 10.1261 22.3839 9.8917C22.6183 9.65727 22.75 9.33933 22.75 9.00781C22.75 8.67629 22.6183 8.35835 22.3839 8.12393C22.1495 7.88951 21.8315 7.75781 21.5 7.75781H11.5C11.1685 7.75781 10.8505 7.88951 10.6161 8.12393C10.3817 8.35835 10.25 8.67629 10.25 9.00781Z" fill="#FF8A34"/>
</svg>
