<svg width="38" height="39" viewBox="0 0 38 39" fill="none" xmlns="http://www.w3.org/2000/svg">
<path d="M37.2952 13.6795L33.8475 10.2319C33.5693 9.95747 33.1985 9.79724 32.808 9.78277C32.4175 9.76831 32.0358 9.90067 31.7381 10.1538C31.2785 10.545 30.6887 10.7492 30.0856 10.7261C29.4825 10.7029 28.9101 10.454 28.4819 10.0288C28.0568 9.60054 27.8081 9.0283 27.7849 8.42538C27.7618 7.82246 27.9659 7.23283 28.3569 6.77328C28.61 6.47559 28.7423 6.09387 28.7279 5.70341C28.7134 5.31294 28.5532 4.94207 28.2788 4.66391L24.828 1.21235C24.5364 0.921283 24.1412 0.757813 23.7291 0.757812C23.3171 0.757812 22.9219 0.921283 22.6303 1.21235L17.1342 6.70766C16.795 7.04825 16.5391 7.4627 16.3866 7.9186C16.3569 8.00625 16.3074 8.08589 16.242 8.15133C16.1765 8.21678 16.0969 8.26626 16.0092 8.29594C15.5531 8.44842 15.1386 8.70461 14.7983 9.04438L0.704533 23.1381C0.41347 23.4297 0.25 23.8249 0.25 24.237C0.25 24.649 0.41347 25.0442 0.704533 25.3358L4.1561 28.7834C4.43425 29.0578 4.80513 29.2181 5.1956 29.2325C5.58606 29.247 5.96777 29.1146 6.26547 28.8616C6.72397 28.4672 7.31457 28.2607 7.91892 28.2834C8.52327 28.3061 9.09671 28.5563 9.52435 28.9839C9.95199 29.4116 10.2022 29.985 10.2249 30.5894C10.2476 31.1937 10.0411 31.7843 9.64672 32.2428C9.39364 32.5405 9.26128 32.9222 9.27574 33.3127C9.2902 33.7032 9.45044 34.074 9.72484 34.3522L13.1725 37.7998C13.4641 38.0909 13.8593 38.2544 14.2713 38.2544C14.6833 38.2544 15.0785 38.0909 15.3702 37.7998L29.4639 23.7061C29.8036 23.366 30.0598 22.9518 30.2123 22.4959C30.2419 22.408 30.2914 22.3281 30.357 22.2625C30.4226 22.1969 30.5025 22.1474 30.5905 22.1178C31.0462 21.9654 31.4604 21.7094 31.8006 21.3702L37.2959 15.8741C37.5859 15.5825 37.7487 15.1879 37.7485 14.7766C37.7484 14.3654 37.5854 13.9709 37.2952 13.6795ZM19.4538 11.3631C19.3377 11.4792 19.1999 11.5713 19.0482 11.6342C18.8965 11.697 18.7339 11.7293 18.5698 11.7293C18.4056 11.7293 18.243 11.697 18.0913 11.6342C17.9397 11.5713 17.8019 11.4792 17.6858 11.3631L16.7866 10.4639C16.5578 10.2283 16.431 9.91217 16.4335 9.58382C16.436 9.25548 16.5675 8.94129 16.7998 8.70916C17.032 8.47702 17.3463 8.34559 17.6746 8.34327C18.003 8.34094 18.319 8.4679 18.5545 8.69672L19.4538 9.59516C19.5699 9.71123 19.662 9.84905 19.7248 10.0007C19.7876 10.1524 19.82 10.315 19.82 10.4791C19.82 10.6433 19.7876 10.8059 19.7248 10.9576C19.662 11.1092 19.5699 11.247 19.4538 11.3631ZM22.8913 14.8006C22.6569 15.0349 22.339 15.1665 22.0077 15.1665C21.6763 15.1665 21.3585 15.0349 21.1241 14.8006L20.2647 13.9413C20.0302 13.7068 19.8985 13.3888 19.8985 13.0573C19.8985 12.7257 20.0302 12.4077 20.2647 12.1733C20.4991 11.9388 20.8171 11.8071 21.1487 11.8071C21.4802 11.8071 21.7982 11.9388 22.0327 12.1733L22.892 13.0327C23.0085 13.1487 23.101 13.2866 23.1641 13.4385C23.2272 13.5904 23.2597 13.7532 23.2598 13.9177C23.2599 14.0821 23.2275 14.245 23.1645 14.3969C23.1016 14.5488 23.0092 14.6868 22.8928 14.803L22.8913 14.8006ZM26.3288 18.2381C26.2127 18.3542 26.0749 18.4463 25.9232 18.5092C25.7715 18.572 25.6089 18.6043 25.4448 18.6043C25.2806 18.6043 25.118 18.572 24.9663 18.5092C24.8147 18.4463 24.6769 18.3542 24.5608 18.2381L23.7014 17.3788C23.4727 17.1431 23.3459 16.827 23.3483 16.4987C23.3508 16.1703 23.4824 15.8561 23.7146 15.624C23.9469 15.3919 24.2611 15.2604 24.5894 15.2581C24.9178 15.2558 25.2339 15.3827 25.4694 15.6116L26.3288 16.4709C26.4456 16.5868 26.5384 16.7246 26.6018 16.8764C26.6653 17.0283 26.6981 17.1911 26.6985 17.3557C26.6989 17.5202 26.6667 17.6832 26.6039 17.8353C26.5412 17.9874 26.449 18.1256 26.3327 18.242L26.3288 18.2381ZM29.7998 21.7178C29.6838 21.8339 29.546 21.926 29.3943 21.9889C29.2426 22.0517 29.08 22.084 28.9159 22.084C28.7517 22.084 28.5891 22.0517 28.4374 21.9889C28.2858 21.926 28.148 21.8339 28.0319 21.7178L27.1381 20.8194C27.0196 20.7036 26.9252 20.5655 26.8606 20.413C26.7959 20.2605 26.7622 20.0966 26.7614 19.9309C26.7606 19.7653 26.7927 19.6011 26.8559 19.448C26.9192 19.2948 27.0122 19.1558 27.1296 19.0389C27.2471 18.9221 27.3865 18.8297 27.54 18.7673C27.6934 18.7048 27.8577 18.6734 28.0234 18.675C28.1891 18.6766 28.3528 18.7111 28.505 18.7766C28.6572 18.842 28.7948 18.937 28.91 19.0561L29.8045 19.9538C29.9206 20.0699 30.0126 20.2077 30.0754 20.3594C30.1382 20.5111 30.1704 20.6737 30.1704 20.8379C30.1703 21.0021 30.1379 21.1646 30.075 21.3163C30.0121 21.4679 29.9199 21.6057 29.8038 21.7217L29.7998 21.7178Z" fill="#FF8A34"/>
</svg>
