<svg width="833" height="395" viewBox="0 0 833 395" fill="none" xmlns="http://www.w3.org/2000/svg">
<g opacity="0.6">
<path d="M691 57V33H237V37C237 48.0457 245.954 57 257 57H691Z" fill="#C1F6E1"/>
<path d="M691.5 57.5V33H690.5V56.5L691.5 57.5ZM236.5 33V37C236.5 48.3218 245.678 57.5 257 57.5V56.5C246.23 56.5 237.5 47.7695 237.5 37V33H236.5ZM236.5 37C236.5 48.3218 245.678 57.5 257 57.5H691.5L690.5 56.5H257C246.23 56.5 237.5 47.7695 237.5 37H236.5Z" fill="#A5A5A5"/>
</g>
<path opacity="0.6" d="M690.5 0V8" stroke="black"/>
<path opacity="0.6" d="M690.5 386V394" stroke="black"/>
<path opacity="0.6" d="M236.5 0V8" stroke="black"/>
<path opacity="0.6" d="M236.5 386V394" stroke="black"/>
<path d="M690 4.50004L237 4.5" stroke="#BEBEBE"/>
<path d="M690 389.5H237" stroke="#BEBEBE"/>
<path d="M690 394.5H237" stroke="#BEBEBE"/>
<path d="M690 0.50004L237 0.5" stroke="#BEBEBE"/>
<path d="M690 385.5H237" stroke="#BEBEBE"/>
<path d="M690 8.50004L237 8.5" stroke="#BEBEBE"/>
<g opacity="0.6">
<path d="M691 9V33H237V9.00002L691 9Z" fill="black" fill-opacity="0.1"/>
<path d="M691 9H691.5V8.5H691V9ZM237 9.00002V8.50002H236.5V9.00002H237ZM690.5 9V33H691.5V9H690.5ZM237.5 33V9.00002H236.5V33H237.5ZM237 9.50002L691 9.5V8.5L237 8.50002V9.50002Z" fill="#A5A5A5"/>
</g>
<path opacity="0.8" d="M425.878 24.15C425.339 24.15 424.83 24.05 424.353 23.85C423.88 23.6444 423.464 23.3639 423.103 23.0083C422.747 22.6528 422.466 22.2389 422.261 21.7667C422.061 21.2944 421.961 20.7889 421.961 20.25C421.961 19.7111 422.061 19.2056 422.261 18.7333C422.466 18.2611 422.747 17.8472 423.103 17.4917C423.464 17.1361 423.88 16.8583 424.353 16.6583C424.83 16.4528 425.339 16.35 425.878 16.35C426.422 16.35 426.93 16.4528 427.403 16.6583C427.875 16.8583 428.289 17.1361 428.644 17.4917C429.005 17.8472 429.286 18.2611 429.486 18.7333C429.691 19.2056 429.794 19.7111 429.794 20.25C429.794 20.7889 429.691 21.2944 429.486 21.7667C429.286 22.2389 429.005 22.6528 428.644 23.0083C428.289 23.3639 427.875 23.6444 427.403 23.85C426.93 24.05 426.422 24.15 425.878 24.15ZM425.878 23.25C426.428 23.25 426.925 23.1167 427.369 22.85C427.814 22.5778 428.164 22.2139 428.419 21.7583C428.68 21.3028 428.811 20.8 428.811 20.25C428.811 19.6944 428.68 19.1917 428.419 18.7417C428.164 18.2861 427.814 17.925 427.369 17.6583C426.925 17.3861 426.428 17.25 425.878 17.25C425.328 17.25 424.83 17.3861 424.386 17.6583C423.947 17.925 423.597 18.2861 423.336 18.7417C423.075 19.1917 422.944 19.6944 422.944 20.25C422.944 20.8 423.075 21.3028 423.336 21.7583C423.597 22.2139 423.947 22.5778 424.386 22.85C424.83 23.1167 425.328 23.25 425.878 23.25ZM431.097 26.5V19H431.93V19.6583C432.158 19.4306 432.422 19.2528 432.722 19.125C433.022 18.9972 433.344 18.9333 433.688 18.9333C434.15 18.9333 434.566 19.05 434.938 19.2833C435.316 19.5111 435.616 19.8194 435.838 20.2083C436.066 20.5972 436.18 21.0278 436.18 21.5C436.18 21.9722 436.066 22.4028 435.838 22.7917C435.616 23.1806 435.316 23.4917 434.938 23.725C434.566 23.9528 434.15 24.0667 433.688 24.0667C433.361 24.0667 433.052 24.0083 432.763 23.8917C432.475 23.775 432.219 23.6139 431.997 23.4083V26.5H431.097ZM433.572 23.25C433.888 23.25 434.175 23.1722 434.43 23.0167C434.691 22.8556 434.897 22.6444 435.047 22.3833C435.202 22.1167 435.28 21.8222 435.28 21.5C435.28 21.1778 435.202 20.8861 435.047 20.625C434.897 20.3583 434.691 20.1472 434.43 19.9917C434.175 19.8306 433.888 19.75 433.572 19.75C433.255 19.75 432.966 19.8306 432.705 19.9917C432.45 20.1472 432.244 20.3583 432.088 20.625C431.938 20.8861 431.863 21.1778 431.863 21.5C431.863 21.8222 431.938 22.1167 432.088 22.3833C432.244 22.6444 432.45 22.8556 432.705 23.0167C432.966 23.1722 433.255 23.25 433.572 23.25ZM439.808 24.1C439.286 24.1 438.817 23.9833 438.4 23.75C437.989 23.5167 437.664 23.2 437.425 22.8C437.192 22.3944 437.075 21.9444 437.075 21.45C437.075 20.9778 437.189 20.55 437.417 20.1667C437.644 19.7778 437.95 19.4694 438.333 19.2417C438.722 19.0139 439.15 18.9 439.617 18.9C440.078 18.9 440.5 19.0111 440.883 19.2333C441.267 19.45 441.572 19.7444 441.8 20.1167C442.028 20.4889 442.142 20.9111 442.142 21.3833V21.75H438.875C438.731 21.75 438.583 21.7444 438.433 21.7333C438.283 21.7222 438.136 21.7056 437.992 21.6833C438.053 22.1278 438.253 22.5 438.592 22.8C438.936 23.1 439.344 23.25 439.817 23.25C440.133 23.25 440.428 23.1778 440.7 23.0333C440.972 22.8889 441.192 22.6972 441.358 22.4583L441.608 23.4833C441.369 23.6778 441.094 23.8306 440.783 23.9417C440.478 24.0472 440.153 24.1 439.808 24.1ZM437.967 21.075C438.267 21.025 438.569 21 438.875 21H440.533C440.656 21 440.775 21.0056 440.892 21.0167C441.014 21.0222 441.136 21.0306 441.258 21.0417C441.181 20.6528 440.986 20.3333 440.675 20.0833C440.364 19.8278 440.011 19.7 439.617 19.7C439.211 19.7 438.856 19.8361 438.55 20.1083C438.244 20.375 438.05 20.6972 437.967 21.075ZM443.343 24V19H444.176V19.8083C444.36 19.5139 444.596 19.2889 444.885 19.1333C445.179 18.9778 445.496 18.9 445.835 18.9C446.19 18.9 446.518 18.9889 446.818 19.1667C447.123 19.3389 447.371 19.5917 447.56 19.925C447.748 20.2528 447.843 20.6528 447.843 21.125V24H446.943V21.25C446.943 20.8556 446.823 20.5083 446.585 20.2083C446.351 19.9028 446.021 19.75 445.593 19.75C445.243 19.75 444.929 19.8778 444.651 20.1333C444.379 20.3833 444.243 20.7472 444.243 21.225V24H443.343ZM453.981 24.0667C453.525 24.0667 453.108 23.9528 452.731 23.725C452.353 23.4917 452.05 23.1806 451.822 22.7917C451.6 22.4028 451.489 21.9722 451.489 21.5C451.489 21.0278 451.6 20.5972 451.822 20.2083C452.05 19.8194 452.353 19.5111 452.731 19.2833C453.108 19.05 453.525 18.9333 453.981 18.9333C454.308 18.9333 454.617 18.9917 454.906 19.1083C455.195 19.225 455.45 19.3861 455.672 19.5917V16H456.572V24H455.739V23.3417C455.517 23.5639 455.253 23.7417 454.947 23.875C454.647 24.0028 454.325 24.0667 453.981 24.0667ZM454.097 23.25C454.414 23.25 454.7 23.1722 454.956 23.0167C455.217 22.8556 455.422 22.6444 455.572 22.3833C455.728 22.1167 455.806 21.8222 455.806 21.5C455.806 21.1778 455.728 20.8861 455.572 20.625C455.422 20.3583 455.217 20.1472 454.956 19.9917C454.7 19.8306 454.414 19.75 454.097 19.75C453.781 19.75 453.492 19.8306 453.231 19.9917C452.975 20.1472 452.77 20.3583 452.614 20.625C452.464 20.8861 452.389 21.1778 452.389 21.5C452.389 21.8222 452.464 22.1167 452.614 22.3833C452.77 22.6444 452.975 22.8556 453.231 23.0167C453.492 23.1722 453.781 23.25 454.097 23.25ZM460.55 24.1C460.028 24.1 459.559 23.9833 459.142 23.75C458.731 23.5167 458.406 23.2 458.167 22.8C457.934 22.3944 457.817 21.9444 457.817 21.45C457.817 20.9778 457.931 20.55 458.159 20.1667C458.387 19.7778 458.692 19.4694 459.075 19.2417C459.464 19.0139 459.892 18.9 460.359 18.9C460.82 18.9 461.242 19.0111 461.625 19.2333C462.009 19.45 462.314 19.7444 462.542 20.1167C462.77 20.4889 462.884 20.9111 462.884 21.3833V21.75H459.617C459.473 21.75 459.325 21.7444 459.175 21.7333C459.025 21.7222 458.878 21.7056 458.734 21.6833C458.795 22.1278 458.995 22.5 459.334 22.8C459.678 23.1 460.087 23.25 460.559 23.25C460.875 23.25 461.17 23.1778 461.442 23.0333C461.714 22.8889 461.934 22.6972 462.1 22.4583L462.35 23.4833C462.112 23.6778 461.837 23.8306 461.525 23.9417C461.22 24.0472 460.895 24.1 460.55 24.1ZM458.709 21.075C459.009 21.025 459.312 21 459.617 21H461.275C461.398 21 461.517 21.0056 461.634 21.0167C461.756 21.0222 461.878 21.0306 462 21.0417C461.923 20.6528 461.728 20.3333 461.417 20.0833C461.106 19.8278 460.753 19.7 460.359 19.7C459.953 19.7 459.598 19.8361 459.292 20.1083C458.987 20.375 458.792 20.6972 458.709 21.075ZM466.385 24.1C465.896 24.1 465.452 23.9833 465.052 23.75C464.652 23.5167 464.332 23.2028 464.093 22.8083C463.855 22.4139 463.735 21.9778 463.735 21.5C463.735 21.0222 463.855 20.5861 464.093 20.1917C464.332 19.7972 464.652 19.4833 465.052 19.25C465.452 19.0167 465.896 18.9 466.385 18.9C466.746 18.9 467.085 18.9639 467.402 19.0917C467.718 19.2194 467.996 19.3889 468.235 19.6L467.96 20.7333C467.821 20.4556 467.61 20.2222 467.327 20.0333C467.049 19.8444 466.732 19.75 466.377 19.75C466.055 19.75 465.76 19.8306 465.493 19.9917C465.232 20.1472 465.024 20.3583 464.868 20.625C464.713 20.8861 464.635 21.1778 464.635 21.5C464.635 21.8167 464.713 22.1083 464.868 22.375C465.024 22.6417 465.232 22.8556 465.493 23.0167C465.76 23.1722 466.055 23.25 466.377 23.25C466.732 23.25 467.049 23.1583 467.327 22.975C467.61 22.7917 467.821 22.5556 467.96 22.2667L468.235 23.4C467.996 23.6111 467.718 23.7806 467.402 23.9083C467.085 24.0361 466.746 24.1 466.385 24.1ZM472.593 24L470.335 21.25L472.193 19H473.235L471.41 21.1833L473.735 24H472.593ZM469.335 24V16H470.235V24H469.335ZM479.223 24.0667C478.767 24.0667 478.351 23.9528 477.973 23.725C477.595 23.4917 477.292 23.1806 477.065 22.7917C476.842 22.4028 476.731 21.9722 476.731 21.5C476.731 21.0278 476.842 20.5972 477.065 20.2083C477.292 19.8194 477.595 19.5111 477.973 19.2833C478.351 19.05 478.767 18.9333 479.223 18.9333C479.567 18.9333 479.89 18.9972 480.19 19.125C480.495 19.2528 480.759 19.4306 480.981 19.6583V19H481.815V24H480.981V23.3417C480.759 23.5639 480.495 23.7417 480.19 23.875C479.89 24.0028 479.567 24.0667 479.223 24.0667ZM479.34 23.25C479.656 23.25 479.942 23.1722 480.198 23.0167C480.459 22.8556 480.665 22.6444 480.815 22.3833C480.97 22.1167 481.048 21.8222 481.048 21.5C481.048 21.1778 480.97 20.8861 480.815 20.625C480.665 20.3583 480.459 20.1472 480.198 19.9917C479.942 19.8306 479.656 19.75 479.34 19.75C479.023 19.75 478.734 19.8306 478.473 19.9917C478.217 20.1472 478.012 20.3583 477.856 20.625C477.706 20.8861 477.631 21.1778 477.631 21.5C477.631 21.8222 477.706 22.1167 477.856 22.3833C478.012 22.6444 478.217 22.8556 478.473 23.0167C478.734 23.1722 479.023 23.25 479.34 23.25ZM485.709 24.1C485.22 24.1 484.776 23.9833 484.376 23.75C483.976 23.5167 483.657 23.2028 483.418 22.8083C483.179 22.4139 483.059 21.9778 483.059 21.5C483.059 21.0222 483.179 20.5861 483.418 20.1917C483.657 19.7972 483.976 19.4833 484.376 19.25C484.776 19.0167 485.22 18.9 485.709 18.9C486.07 18.9 486.409 18.9639 486.726 19.0917C487.043 19.2194 487.32 19.3889 487.559 19.6L487.284 20.7333C487.145 20.4556 486.934 20.2222 486.651 20.0333C486.373 19.8444 486.057 19.75 485.701 19.75C485.379 19.75 485.084 19.8306 484.818 19.9917C484.557 20.1472 484.348 20.3583 484.193 20.625C484.037 20.8861 483.959 21.1778 483.959 21.5C483.959 21.8167 484.037 22.1083 484.193 22.375C484.348 22.6417 484.557 22.8556 484.818 23.0167C485.084 23.1722 485.379 23.25 485.701 23.25C486.057 23.25 486.373 23.1583 486.651 22.975C486.934 22.7917 487.145 22.5556 487.284 22.2667L487.559 23.4C487.32 23.6111 487.043 23.7806 486.726 23.9083C486.409 24.0361 486.07 24.1 485.709 24.1ZM490.959 24.1C490.47 24.1 490.026 23.9833 489.626 23.75C489.226 23.5167 488.907 23.2028 488.668 22.8083C488.429 22.4139 488.309 21.9778 488.309 21.5C488.309 21.0222 488.429 20.5861 488.668 20.1917C488.907 19.7972 489.226 19.4833 489.626 19.25C490.026 19.0167 490.47 18.9 490.959 18.9C491.32 18.9 491.659 18.9639 491.976 19.0917C492.293 19.2194 492.57 19.3889 492.809 19.6L492.534 20.7333C492.395 20.4556 492.184 20.2222 491.901 20.0333C491.623 19.8444 491.307 19.75 490.951 19.75C490.629 19.75 490.334 19.8306 490.068 19.9917C489.807 20.1472 489.598 20.3583 489.443 20.625C489.287 20.8861 489.209 21.1778 489.209 21.5C489.209 21.8167 489.287 22.1083 489.443 22.375C489.598 22.6417 489.807 22.8556 490.068 23.0167C490.334 23.1722 490.629 23.25 490.951 23.25C491.307 23.25 491.623 23.1583 491.901 22.975C492.184 22.7917 492.395 22.5556 492.534 22.2667L492.809 23.4C492.57 23.6111 492.293 23.7806 491.976 23.9083C491.659 24.0361 491.32 24.1 490.959 24.1ZM496.293 24.1C495.77 24.1 495.301 23.9833 494.884 23.75C494.473 23.5167 494.148 23.2 493.909 22.8C493.676 22.3944 493.559 21.9444 493.559 21.45C493.559 20.9778 493.673 20.55 493.901 20.1667C494.129 19.7778 494.434 19.4694 494.818 19.2417C495.207 19.0139 495.634 18.9 496.101 18.9C496.562 18.9 496.984 19.0111 497.368 19.2333C497.751 19.45 498.057 19.7444 498.284 20.1167C498.512 20.4889 498.626 20.9111 498.626 21.3833V21.75H495.359C495.215 21.75 495.068 21.7444 494.918 21.7333C494.768 21.7222 494.62 21.7056 494.476 21.6833C494.537 22.1278 494.737 22.5 495.076 22.8C495.42 23.1 495.829 23.25 496.301 23.25C496.618 23.25 496.912 23.1778 497.184 23.0333C497.457 22.8889 497.676 22.6972 497.843 22.4583L498.093 23.4833C497.854 23.6778 497.579 23.8306 497.268 23.9417C496.962 24.0472 496.637 24.1 496.293 24.1ZM494.451 21.075C494.751 21.025 495.054 21 495.359 21H497.018C497.14 21 497.259 21.0056 497.376 21.0167C497.498 21.0222 497.62 21.0306 497.743 21.0417C497.665 20.6528 497.47 20.3333 497.159 20.0833C496.848 19.8278 496.495 19.7 496.101 19.7C495.695 19.7 495.34 19.8361 495.034 20.1083C494.729 20.375 494.534 20.6972 494.451 21.075ZM501.119 24.1C500.863 24.1 500.588 24.0528 500.294 23.9583C500.005 23.8583 499.755 23.6944 499.544 23.4667L499.794 22.4833C499.95 22.7444 500.15 22.9528 500.394 23.1083C500.638 23.2583 500.9 23.3333 501.177 23.3333C501.444 23.3333 501.644 23.2694 501.777 23.1417C501.911 23.0083 501.977 22.8472 501.977 22.6583C501.977 22.4417 501.905 22.2833 501.761 22.1833C501.622 22.0833 501.497 22.0139 501.386 21.975L500.711 21.7167C500.588 21.6667 500.441 21.5944 500.269 21.5C500.097 21.4 499.947 21.2583 499.819 21.075C499.691 20.8917 499.627 20.6528 499.627 20.3583C499.627 20.0917 499.691 19.8472 499.819 19.625C499.947 19.4028 500.127 19.2278 500.361 19.1C500.594 18.9667 500.869 18.9 501.186 18.9C501.436 18.9 501.697 18.9444 501.969 19.0333C502.241 19.1222 502.472 19.2722 502.661 19.4833L502.411 20.4667C502.277 20.2222 502.097 20.0278 501.869 19.8833C501.641 19.7389 501.405 19.6667 501.161 19.6667C500.933 19.6667 500.752 19.7306 500.619 19.8583C500.491 19.9861 500.427 20.1333 500.427 20.3C500.427 20.4333 500.472 20.5528 500.561 20.6583C500.65 20.7639 500.783 20.85 500.961 20.9167L501.636 21.175C501.758 21.2194 501.908 21.2917 502.086 21.3917C502.269 21.4917 502.43 21.6361 502.569 21.825C502.708 22.0139 502.777 22.2694 502.777 22.5917C502.777 23.0417 502.619 23.4056 502.302 23.6833C501.991 23.9611 501.597 24.1 501.119 24.1ZM505.373 24.1C505.117 24.1 504.842 24.0528 504.548 23.9583C504.259 23.8583 504.009 23.6944 503.798 23.4667L504.048 22.4833C504.203 22.7444 504.403 22.9528 504.648 23.1083C504.892 23.2583 505.153 23.3333 505.431 23.3333C505.698 23.3333 505.898 23.2694 506.031 23.1417C506.165 23.0083 506.231 22.8472 506.231 22.6583C506.231 22.4417 506.159 22.2833 506.015 22.1833C505.876 22.0833 505.751 22.0139 505.64 21.975L504.965 21.7167C504.842 21.6667 504.695 21.5944 504.523 21.5C504.351 21.4 504.201 21.2583 504.073 21.075C503.945 20.8917 503.881 20.6528 503.881 20.3583C503.881 20.0917 503.945 19.8472 504.073 19.625C504.201 19.4028 504.381 19.2278 504.615 19.1C504.848 18.9667 505.123 18.9 505.44 18.9C505.69 18.9 505.951 18.9444 506.223 19.0333C506.495 19.1222 506.726 19.2722 506.915 19.4833L506.665 20.4667C506.531 20.2222 506.351 20.0278 506.123 19.8833C505.895 19.7389 505.659 19.6667 505.415 19.6667C505.187 19.6667 505.006 19.7306 504.873 19.8583C504.745 19.9861 504.681 20.1333 504.681 20.3C504.681 20.4333 504.726 20.5528 504.815 20.6583C504.903 20.7639 505.037 20.85 505.215 20.9167L505.89 21.175C506.012 21.2194 506.162 21.2917 506.34 21.3917C506.523 21.4917 506.684 21.6361 506.823 21.825C506.962 22.0139 507.031 22.2694 507.031 22.5917C507.031 23.0417 506.873 23.4056 506.556 23.6833C506.245 23.9611 505.851 24.1 505.373 24.1Z" fill="black"/>
<g opacity="0.6">
<path d="M691 360V384H237V360H691Z" fill="black" fill-opacity="0.1"/>
<path d="M691 360H691.5V359.5H691V360ZM237 360V359.5H236.5V360H237ZM690.5 360V384H691.5V360H690.5ZM237.5 384V360H236.5V384H237.5ZM237 360.5H691V359.5H237V360.5Z" fill="#A5A5A5"/>
</g>
<path opacity="0.8" d="M426.878 375.15C426.339 375.15 425.83 375.05 425.353 374.85C424.88 374.644 424.464 374.364 424.103 374.008C423.747 373.653 423.466 373.239 423.261 372.767C423.061 372.294 422.961 371.789 422.961 371.25C422.961 370.711 423.061 370.206 423.261 369.733C423.466 369.261 423.747 368.847 424.103 368.492C424.464 368.136 424.88 367.858 425.353 367.658C425.83 367.453 426.339 367.35 426.878 367.35C427.422 367.35 427.93 367.453 428.403 367.658C428.875 367.858 429.289 368.136 429.644 368.492C430.005 368.847 430.286 369.261 430.486 369.733C430.691 370.206 430.794 370.711 430.794 371.25C430.794 371.789 430.691 372.294 430.486 372.767C430.286 373.239 430.005 373.653 429.644 374.008C429.289 374.364 428.875 374.644 428.403 374.85C427.93 375.05 427.422 375.15 426.878 375.15ZM426.878 374.25C427.428 374.25 427.925 374.117 428.369 373.85C428.814 373.578 429.164 373.214 429.419 372.758C429.68 372.303 429.811 371.8 429.811 371.25C429.811 370.694 429.68 370.192 429.419 369.742C429.164 369.286 428.814 368.925 428.369 368.658C427.925 368.386 427.428 368.25 426.878 368.25C426.328 368.25 425.83 368.386 425.386 368.658C424.947 368.925 424.597 369.286 424.336 369.742C424.075 370.192 423.944 370.694 423.944 371.25C423.944 371.8 424.075 372.303 424.336 372.758C424.597 373.214 424.947 373.578 425.386 373.85C425.83 374.117 426.328 374.25 426.878 374.25ZM432.097 377.5V370H432.93V370.658C433.158 370.431 433.422 370.253 433.722 370.125C434.022 369.997 434.344 369.933 434.688 369.933C435.15 369.933 435.566 370.05 435.938 370.283C436.316 370.511 436.616 370.819 436.838 371.208C437.066 371.597 437.18 372.028 437.18 372.5C437.18 372.972 437.066 373.403 436.838 373.792C436.616 374.181 436.316 374.492 435.938 374.725C435.566 374.953 435.15 375.067 434.688 375.067C434.361 375.067 434.052 375.008 433.763 374.892C433.475 374.775 433.219 374.614 432.997 374.408V377.5H432.097ZM434.572 374.25C434.888 374.25 435.175 374.172 435.43 374.017C435.691 373.856 435.897 373.644 436.047 373.383C436.202 373.117 436.28 372.822 436.28 372.5C436.28 372.178 436.202 371.886 436.047 371.625C435.897 371.358 435.691 371.147 435.43 370.992C435.175 370.831 434.888 370.75 434.572 370.75C434.255 370.75 433.966 370.831 433.705 370.992C433.45 371.147 433.244 371.358 433.088 371.625C432.938 371.886 432.863 372.178 432.863 372.5C432.863 372.822 432.938 373.117 433.088 373.383C433.244 373.644 433.45 373.856 433.705 374.017C433.966 374.172 434.255 374.25 434.572 374.25ZM440.808 375.1C440.286 375.1 439.817 374.983 439.4 374.75C438.989 374.517 438.664 374.2 438.425 373.8C438.192 373.394 438.075 372.944 438.075 372.45C438.075 371.978 438.189 371.55 438.417 371.167C438.644 370.778 438.95 370.469 439.333 370.242C439.722 370.014 440.15 369.9 440.617 369.9C441.078 369.9 441.5 370.011 441.883 370.233C442.267 370.45 442.572 370.744 442.8 371.117C443.028 371.489 443.142 371.911 443.142 372.383V372.75H439.875C439.731 372.75 439.583 372.744 439.433 372.733C439.283 372.722 439.136 372.706 438.992 372.683C439.053 373.128 439.253 373.5 439.592 373.8C439.936 374.1 440.344 374.25 440.817 374.25C441.133 374.25 441.428 374.178 441.7 374.033C441.972 373.889 442.192 373.697 442.358 373.458L442.608 374.483C442.369 374.678 442.094 374.831 441.783 374.942C441.478 375.047 441.153 375.1 440.808 375.1ZM438.967 372.075C439.267 372.025 439.569 372 439.875 372H441.533C441.656 372 441.775 372.006 441.892 372.017C442.014 372.022 442.136 372.031 442.258 372.042C442.181 371.653 441.986 371.333 441.675 371.083C441.364 370.828 441.011 370.7 440.617 370.7C440.211 370.7 439.856 370.836 439.55 371.108C439.244 371.375 439.05 371.697 438.967 372.075ZM444.343 375V370H445.176V370.808C445.36 370.514 445.596 370.289 445.885 370.133C446.179 369.978 446.496 369.9 446.835 369.9C447.19 369.9 447.518 369.989 447.818 370.167C448.123 370.339 448.371 370.592 448.56 370.925C448.748 371.253 448.843 371.653 448.843 372.125V375H447.943V372.25C447.943 371.856 447.823 371.508 447.585 371.208C447.351 370.903 447.021 370.75 446.593 370.75C446.243 370.75 445.929 370.878 445.651 371.133C445.379 371.383 445.243 371.747 445.243 372.225V375H444.343ZM454.981 375.067C454.525 375.067 454.108 374.953 453.731 374.725C453.353 374.492 453.05 374.181 452.822 373.792C452.6 373.403 452.489 372.972 452.489 372.5C452.489 372.028 452.6 371.597 452.822 371.208C453.05 370.819 453.353 370.511 453.731 370.283C454.108 370.05 454.525 369.933 454.981 369.933C455.308 369.933 455.617 369.992 455.906 370.108C456.195 370.225 456.45 370.386 456.672 370.592V367H457.572V375H456.739V374.342C456.517 374.564 456.253 374.742 455.947 374.875C455.647 375.003 455.325 375.067 454.981 375.067ZM455.097 374.25C455.414 374.25 455.7 374.172 455.956 374.017C456.217 373.856 456.422 373.644 456.572 373.383C456.728 373.117 456.806 372.822 456.806 372.5C456.806 372.178 456.728 371.886 456.572 371.625C456.422 371.358 456.217 371.147 455.956 370.992C455.7 370.831 455.414 370.75 455.097 370.75C454.781 370.75 454.492 370.831 454.231 370.992C453.975 371.147 453.77 371.358 453.614 371.625C453.464 371.886 453.389 372.178 453.389 372.5C453.389 372.822 453.464 373.117 453.614 373.383C453.77 373.644 453.975 373.856 454.231 374.017C454.492 374.172 454.781 374.25 455.097 374.25ZM461.55 375.1C461.028 375.1 460.559 374.983 460.142 374.75C459.731 374.517 459.406 374.2 459.167 373.8C458.934 373.394 458.817 372.944 458.817 372.45C458.817 371.978 458.931 371.55 459.159 371.167C459.387 370.778 459.692 370.469 460.075 370.242C460.464 370.014 460.892 369.9 461.359 369.9C461.82 369.9 462.242 370.011 462.625 370.233C463.009 370.45 463.314 370.744 463.542 371.117C463.77 371.489 463.884 371.911 463.884 372.383V372.75H460.617C460.473 372.75 460.325 372.744 460.175 372.733C460.025 372.722 459.878 372.706 459.734 372.683C459.795 373.128 459.995 373.5 460.334 373.8C460.678 374.1 461.087 374.25 461.559 374.25C461.875 374.25 462.17 374.178 462.442 374.033C462.714 373.889 462.934 373.697 463.1 373.458L463.35 374.483C463.112 374.678 462.837 374.831 462.525 374.942C462.22 375.047 461.895 375.1 461.55 375.1ZM459.709 372.075C460.009 372.025 460.312 372 460.617 372H462.275C462.398 372 462.517 372.006 462.634 372.017C462.756 372.022 462.878 372.031 463 372.042C462.923 371.653 462.728 371.333 462.417 371.083C462.106 370.828 461.753 370.7 461.359 370.7C460.953 370.7 460.598 370.836 460.292 371.108C459.987 371.375 459.792 371.697 459.709 372.075ZM467.385 375.1C466.896 375.1 466.452 374.983 466.052 374.75C465.652 374.517 465.332 374.203 465.093 373.808C464.855 373.414 464.735 372.978 464.735 372.5C464.735 372.022 464.855 371.586 465.093 371.192C465.332 370.797 465.652 370.483 466.052 370.25C466.452 370.017 466.896 369.9 467.385 369.9C467.746 369.9 468.085 369.964 468.402 370.092C468.718 370.219 468.996 370.389 469.235 370.6L468.96 371.733C468.821 371.456 468.61 371.222 468.327 371.033C468.049 370.844 467.732 370.75 467.377 370.75C467.055 370.75 466.76 370.831 466.493 370.992C466.232 371.147 466.024 371.358 465.868 371.625C465.713 371.886 465.635 372.178 465.635 372.5C465.635 372.817 465.713 373.108 465.868 373.375C466.024 373.642 466.232 373.856 466.493 374.017C466.76 374.172 467.055 374.25 467.377 374.25C467.732 374.25 468.049 374.158 468.327 373.975C468.61 373.792 468.821 373.556 468.96 373.267L469.235 374.4C468.996 374.611 468.718 374.781 468.402 374.908C468.085 375.036 467.746 375.1 467.385 375.1ZM473.593 375L471.335 372.25L473.193 370H474.235L472.41 372.183L474.735 375H473.593ZM470.335 375V367H471.235V375H470.335ZM480.223 375.067C479.767 375.067 479.351 374.953 478.973 374.725C478.595 374.492 478.292 374.181 478.065 373.792C477.842 373.403 477.731 372.972 477.731 372.5C477.731 372.028 477.842 371.597 478.065 371.208C478.292 370.819 478.595 370.511 478.973 370.283C479.351 370.05 479.767 369.933 480.223 369.933C480.567 369.933 480.89 369.997 481.19 370.125C481.495 370.253 481.759 370.431 481.981 370.658V370H482.815V375H481.981V374.342C481.759 374.564 481.495 374.742 481.19 374.875C480.89 375.003 480.567 375.067 480.223 375.067ZM480.34 374.25C480.656 374.25 480.942 374.172 481.198 374.017C481.459 373.856 481.665 373.644 481.815 373.383C481.97 373.117 482.048 372.822 482.048 372.5C482.048 372.178 481.97 371.886 481.815 371.625C481.665 371.358 481.459 371.147 481.198 370.992C480.942 370.831 480.656 370.75 480.34 370.75C480.023 370.75 479.734 370.831 479.473 370.992C479.217 371.147 479.012 371.358 478.856 371.625C478.706 371.886 478.631 372.178 478.631 372.5C478.631 372.822 478.706 373.117 478.856 373.383C479.012 373.644 479.217 373.856 479.473 374.017C479.734 374.172 480.023 374.25 480.34 374.25ZM486.709 375.1C486.22 375.1 485.776 374.983 485.376 374.75C484.976 374.517 484.657 374.203 484.418 373.808C484.179 373.414 484.059 372.978 484.059 372.5C484.059 372.022 484.179 371.586 484.418 371.192C484.657 370.797 484.976 370.483 485.376 370.25C485.776 370.017 486.22 369.9 486.709 369.9C487.07 369.9 487.409 369.964 487.726 370.092C488.043 370.219 488.32 370.389 488.559 370.6L488.284 371.733C488.145 371.456 487.934 371.222 487.651 371.033C487.373 370.844 487.057 370.75 486.701 370.75C486.379 370.75 486.084 370.831 485.818 370.992C485.557 371.147 485.348 371.358 485.193 371.625C485.037 371.886 484.959 372.178 484.959 372.5C484.959 372.817 485.037 373.108 485.193 373.375C485.348 373.642 485.557 373.856 485.818 374.017C486.084 374.172 486.379 374.25 486.701 374.25C487.057 374.25 487.373 374.158 487.651 373.975C487.934 373.792 488.145 373.556 488.284 373.267L488.559 374.4C488.32 374.611 488.043 374.781 487.726 374.908C487.409 375.036 487.07 375.1 486.709 375.1ZM491.959 375.1C491.47 375.1 491.026 374.983 490.626 374.75C490.226 374.517 489.907 374.203 489.668 373.808C489.429 373.414 489.309 372.978 489.309 372.5C489.309 372.022 489.429 371.586 489.668 371.192C489.907 370.797 490.226 370.483 490.626 370.25C491.026 370.017 491.47 369.9 491.959 369.9C492.32 369.9 492.659 369.964 492.976 370.092C493.293 370.219 493.57 370.389 493.809 370.6L493.534 371.733C493.395 371.456 493.184 371.222 492.901 371.033C492.623 370.844 492.307 370.75 491.951 370.75C491.629 370.75 491.334 370.831 491.068 370.992C490.807 371.147 490.598 371.358 490.443 371.625C490.287 371.886 490.209 372.178 490.209 372.5C490.209 372.817 490.287 373.108 490.443 373.375C490.598 373.642 490.807 373.856 491.068 374.017C491.334 374.172 491.629 374.25 491.951 374.25C492.307 374.25 492.623 374.158 492.901 373.975C493.184 373.792 493.395 373.556 493.534 373.267L493.809 374.4C493.57 374.611 493.293 374.781 492.976 374.908C492.659 375.036 492.32 375.1 491.959 375.1ZM497.293 375.1C496.77 375.1 496.301 374.983 495.884 374.75C495.473 374.517 495.148 374.2 494.909 373.8C494.676 373.394 494.559 372.944 494.559 372.45C494.559 371.978 494.673 371.55 494.901 371.167C495.129 370.778 495.434 370.469 495.818 370.242C496.207 370.014 496.634 369.9 497.101 369.9C497.562 369.9 497.984 370.011 498.368 370.233C498.751 370.45 499.057 370.744 499.284 371.117C499.512 371.489 499.626 371.911 499.626 372.383V372.75H496.359C496.215 372.75 496.068 372.744 495.918 372.733C495.768 372.722 495.62 372.706 495.476 372.683C495.537 373.128 495.737 373.5 496.076 373.8C496.42 374.1 496.829 374.25 497.301 374.25C497.618 374.25 497.912 374.178 498.184 374.033C498.457 373.889 498.676 373.697 498.843 373.458L499.093 374.483C498.854 374.678 498.579 374.831 498.268 374.942C497.962 375.047 497.637 375.1 497.293 375.1ZM495.451 372.075C495.751 372.025 496.054 372 496.359 372H498.018C498.14 372 498.259 372.006 498.376 372.017C498.498 372.022 498.62 372.031 498.743 372.042C498.665 371.653 498.47 371.333 498.159 371.083C497.848 370.828 497.495 370.7 497.101 370.7C496.695 370.7 496.34 370.836 496.034 371.108C495.729 371.375 495.534 371.697 495.451 372.075ZM502.119 375.1C501.863 375.1 501.588 375.053 501.294 374.958C501.005 374.858 500.755 374.694 500.544 374.467L500.794 373.483C500.95 373.744 501.15 373.953 501.394 374.108C501.638 374.258 501.9 374.333 502.177 374.333C502.444 374.333 502.644 374.269 502.777 374.142C502.911 374.008 502.977 373.847 502.977 373.658C502.977 373.442 502.905 373.283 502.761 373.183C502.622 373.083 502.497 373.014 502.386 372.975L501.711 372.717C501.588 372.667 501.441 372.594 501.269 372.5C501.097 372.4 500.947 372.258 500.819 372.075C500.691 371.892 500.627 371.653 500.627 371.358C500.627 371.092 500.691 370.847 500.819 370.625C500.947 370.403 501.127 370.228 501.361 370.1C501.594 369.967 501.869 369.9 502.186 369.9C502.436 369.9 502.697 369.944 502.969 370.033C503.241 370.122 503.472 370.272 503.661 370.483L503.411 371.467C503.277 371.222 503.097 371.028 502.869 370.883C502.641 370.739 502.405 370.667 502.161 370.667C501.933 370.667 501.752 370.731 501.619 370.858C501.491 370.986 501.427 371.133 501.427 371.3C501.427 371.433 501.472 371.553 501.561 371.658C501.65 371.764 501.783 371.85 501.961 371.917L502.636 372.175C502.758 372.219 502.908 372.292 503.086 372.392C503.269 372.492 503.43 372.636 503.569 372.825C503.708 373.014 503.777 373.269 503.777 373.592C503.777 374.042 503.619 374.406 503.302 374.683C502.991 374.961 502.597 375.1 502.119 375.1ZM506.373 375.1C506.117 375.1 505.842 375.053 505.548 374.958C505.259 374.858 505.009 374.694 504.798 374.467L505.048 373.483C505.203 373.744 505.403 373.953 505.648 374.108C505.892 374.258 506.153 374.333 506.431 374.333C506.698 374.333 506.898 374.269 507.031 374.142C507.165 374.008 507.231 373.847 507.231 373.658C507.231 373.442 507.159 373.283 507.015 373.183C506.876 373.083 506.751 373.014 506.64 372.975L505.965 372.717C505.842 372.667 505.695 372.594 505.523 372.5C505.351 372.4 505.201 372.258 505.073 372.075C504.945 371.892 504.881 371.653 504.881 371.358C504.881 371.092 504.945 370.847 505.073 370.625C505.201 370.403 505.381 370.228 505.615 370.1C505.848 369.967 506.123 369.9 506.44 369.9C506.69 369.9 506.951 369.944 507.223 370.033C507.495 370.122 507.726 370.272 507.915 370.483L507.665 371.467C507.531 371.222 507.351 371.028 507.123 370.883C506.895 370.739 506.659 370.667 506.415 370.667C506.187 370.667 506.006 370.731 505.873 370.858C505.745 370.986 505.681 371.133 505.681 371.3C505.681 371.433 505.726 371.553 505.815 371.658C505.903 371.764 506.037 371.85 506.215 371.917L506.89 372.175C507.012 372.219 507.162 372.292 507.34 372.392C507.523 372.492 507.684 372.636 507.823 372.825C507.962 373.014 508.031 373.269 508.031 373.592C508.031 374.042 507.873 374.406 507.556 374.683C507.245 374.961 506.851 375.1 506.373 375.1Z" fill="black"/>
<g opacity="0.6">
<path d="M691 337V361H237V357C237 345.954 245.954 337 257 337H691Z" fill="#C1F6E1"/>
<path d="M691.5 336.5V361H690.5V337.5L691.5 336.5ZM236.5 361V357C236.5 345.678 245.678 336.5 257 336.5V337.5C246.23 337.5 237.5 346.23 237.5 357V361H236.5ZM236.5 357C236.5 345.678 245.678 336.5 257 336.5H691.5L690.5 337.5H257C246.23 337.5 237.5 346.23 237.5 357H236.5Z" fill="#A5A5A5"/>
</g>
<path opacity="0.8" d="M429.008 49.25L426.117 41.5H427.083L428.783 46C428.844 46.1556 428.894 46.3056 428.933 46.45C428.972 46.5889 429.014 46.7556 429.058 46.95C429.103 46.7556 429.144 46.5889 429.183 46.45C429.228 46.3056 429.278 46.1556 429.333 46L431.05 41.25L432.758 46C432.808 46.1389 432.855 46.2806 432.9 46.425C432.95 46.5639 432.994 46.7389 433.033 46.95C433.078 46.7389 433.122 46.5639 433.167 46.425C433.211 46.2806 433.261 46.1389 433.317 46L435.017 41.5H435.917L433.033 49.25L431.3 44.3833C431.25 44.2389 431.203 44.1 431.158 43.9667C431.114 43.8278 431.069 43.6528 431.025 43.4417C430.98 43.6528 430.936 43.8278 430.892 43.9667C430.847 44.1 430.8 44.2389 430.75 44.3833L429.008 49.25ZM436.813 49V44H437.713V49H436.813ZM437.263 43.1C437.096 43.1 436.954 43.0417 436.838 42.925C436.721 42.8083 436.663 42.6667 436.663 42.5C436.663 42.3278 436.721 42.1861 436.838 42.075C436.954 41.9583 437.096 41.9 437.263 41.9C437.435 41.9 437.577 41.9583 437.688 42.075C437.804 42.1861 437.863 42.3278 437.863 42.5C437.863 42.6667 437.804 42.8083 437.688 42.925C437.577 43.0417 437.435 43.1 437.263 43.1ZM439.309 49V44H440.142V44.8083C440.325 44.5139 440.562 44.2889 440.85 44.1333C441.145 43.9778 441.462 43.9 441.8 43.9C442.156 43.9 442.484 43.9889 442.784 44.1667C443.089 44.3389 443.337 44.5917 443.525 44.925C443.714 45.2528 443.809 45.6528 443.809 46.125V49H442.909V46.25C442.909 45.8556 442.789 45.5083 442.55 45.2083C442.317 44.9028 441.987 44.75 441.559 44.75C441.209 44.75 440.895 44.8778 440.617 45.1333C440.345 45.3833 440.209 45.7472 440.209 46.225V49H439.309ZM447.45 49.0667C446.995 49.0667 446.578 48.9528 446.2 48.725C445.823 48.4917 445.52 48.1806 445.292 47.7917C445.07 47.4028 444.959 46.9722 444.959 46.5C444.959 46.0278 445.07 45.5972 445.292 45.2083C445.52 44.8194 445.823 44.5111 446.2 44.2833C446.578 44.05 446.995 43.9333 447.45 43.9333C447.778 43.9333 448.087 43.9917 448.375 44.1083C448.664 44.225 448.92 44.3861 449.142 44.5917V41H450.042V49H449.209V48.3417C448.987 48.5639 448.723 48.7417 448.417 48.875C448.117 49.0028 447.795 49.0667 447.45 49.0667ZM447.567 48.25C447.884 48.25 448.17 48.1722 448.425 48.0167C448.687 47.8556 448.892 47.6444 449.042 47.3833C449.198 47.1167 449.275 46.8222 449.275 46.5C449.275 46.1778 449.198 45.8861 449.042 45.625C448.892 45.3583 448.687 45.1472 448.425 44.9917C448.17 44.8306 447.884 44.75 447.567 44.75C447.25 44.75 446.962 44.8306 446.7 44.9917C446.445 45.1472 446.239 45.3583 446.084 45.625C445.934 45.8861 445.859 46.1778 445.859 46.5C445.859 46.8222 445.934 47.1167 446.084 47.3833C446.239 47.6444 446.445 47.8556 446.7 48.0167C446.962 48.1722 447.25 48.25 447.567 48.25ZM453.92 49.1C453.437 49.1 452.995 48.9833 452.595 48.75C452.195 48.5167 451.876 48.2028 451.637 47.8083C451.404 47.4139 451.287 46.9778 451.287 46.5C451.287 46.0167 451.404 45.5806 451.637 45.1917C451.876 44.7972 452.195 44.4833 452.595 44.25C452.995 44.0167 453.437 43.9 453.92 43.9C454.409 43.9 454.851 44.0167 455.245 44.25C455.645 44.4833 455.962 44.7972 456.195 45.1917C456.434 45.5806 456.554 46.0167 456.554 46.5C456.554 46.9778 456.434 47.4139 456.195 47.8083C455.962 48.2028 455.645 48.5167 455.245 48.75C454.851 48.9833 454.409 49.1 453.92 49.1ZM453.92 48.25C454.242 48.25 454.534 48.1722 454.795 48.0167C455.056 47.8556 455.265 47.6444 455.42 47.3833C455.576 47.1167 455.654 46.8222 455.654 46.5C455.654 46.1778 455.576 45.8861 455.42 45.625C455.265 45.3583 455.056 45.1472 454.795 44.9917C454.534 44.8306 454.242 44.75 453.92 44.75C453.598 44.75 453.306 44.8306 453.045 44.9917C452.784 45.1472 452.576 45.3583 452.42 45.625C452.265 45.8861 452.187 46.1778 452.187 46.5C452.187 46.8222 452.265 47.1167 452.42 47.3833C452.576 47.6444 452.784 47.8556 453.045 48.0167C453.306 48.1722 453.598 48.25 453.92 48.25ZM459.462 49.25L456.937 44H457.962L458.97 46.1667C459.065 46.3722 459.154 46.5722 459.237 46.7667C459.326 46.9611 459.412 47.2056 459.495 47.5C459.584 47.2111 459.673 46.9667 459.762 46.7667C459.856 46.5667 459.945 46.3667 460.029 46.1667L461.037 43.7667L462.037 46.1667C462.12 46.3722 462.206 46.5722 462.295 46.7667C462.384 46.9611 462.47 47.2056 462.554 47.5C462.637 47.2056 462.723 46.9611 462.812 46.7667C462.901 46.5667 462.992 46.3667 463.087 46.1667L464.112 44H465.07L462.545 49.25L461.529 47.0167C461.44 46.8167 461.351 46.6194 461.262 46.425C461.179 46.225 461.092 45.9861 461.004 45.7083C460.92 45.9861 460.834 46.225 460.745 46.425C460.656 46.6194 460.565 46.8167 460.47 47.0167L459.462 49.25ZM470.332 49.1C469.887 49.1 469.484 49.0111 469.123 48.8333C468.768 48.6556 468.484 48.4389 468.273 48.1833L468.548 47.0333C468.704 47.3444 468.937 47.625 469.248 47.875C469.559 48.125 469.932 48.25 470.365 48.25C470.759 48.25 471.084 48.125 471.34 47.875C471.601 47.625 471.732 47.3167 471.732 46.95C471.732 46.6833 471.668 46.4639 471.54 46.2917C471.412 46.1194 471.268 45.9833 471.107 45.8833C470.946 45.7833 470.818 45.7111 470.723 45.6667L469.807 45.2C469.662 45.1222 469.482 45.0139 469.265 44.875C469.054 44.7361 468.868 44.5444 468.707 44.3C468.546 44.0556 468.465 43.7389 468.465 43.35C468.465 42.9722 468.551 42.6361 468.723 42.3417C468.901 42.0472 469.146 41.8167 469.457 41.65C469.773 41.4833 470.134 41.4 470.54 41.4C470.94 41.4 471.293 41.4722 471.598 41.6167C471.904 41.7556 472.143 41.9 472.315 42.05L472.04 43.2C471.901 42.9667 471.696 42.7472 471.423 42.5417C471.151 42.3361 470.843 42.2333 470.498 42.2333C470.165 42.2333 469.898 42.3333 469.698 42.5333C469.498 42.7278 469.398 42.9694 469.398 43.2583C469.398 43.4806 469.448 43.6639 469.548 43.8083C469.654 43.9528 469.771 44.0667 469.898 44.15C470.032 44.2333 470.14 44.2972 470.223 44.3417L471.157 44.8083C471.268 44.8639 471.407 44.9417 471.573 45.0417C471.746 45.1417 471.915 45.275 472.082 45.4417C472.248 45.6028 472.387 45.8028 472.498 46.0417C472.609 46.275 472.665 46.5583 472.665 46.8917C472.665 47.3194 472.562 47.7 472.357 48.0333C472.157 48.3667 471.882 48.6278 471.532 48.8167C471.182 49.0056 470.782 49.1 470.332 49.1ZM476.344 49.1C475.822 49.1 475.353 48.9833 474.936 48.75C474.525 48.5167 474.2 48.2 473.961 47.8C473.728 47.3944 473.611 46.9444 473.611 46.45C473.611 45.9778 473.725 45.55 473.953 45.1667C474.181 44.7778 474.486 44.4694 474.869 44.2417C475.258 44.0139 475.686 43.9 476.153 43.9C476.614 43.9 477.036 44.0111 477.419 44.2333C477.803 44.45 478.108 44.7444 478.336 45.1167C478.564 45.4889 478.678 45.9111 478.678 46.3833V46.75H475.411C475.267 46.75 475.119 46.7444 474.969 46.7333C474.819 46.7222 474.672 46.7056 474.528 46.6833C474.589 47.1278 474.789 47.5 475.128 47.8C475.472 48.1 475.881 48.25 476.353 48.25C476.669 48.25 476.964 48.1778 477.236 48.0333C477.508 47.8889 477.728 47.6972 477.894 47.4583L478.144 48.4833C477.906 48.6778 477.631 48.8306 477.319 48.9417C477.014 49.0472 476.689 49.1 476.344 49.1ZM474.503 46.075C474.803 46.025 475.106 46 475.411 46H477.069C477.192 46 477.311 46.0056 477.428 46.0167C477.55 46.0222 477.672 46.0306 477.794 46.0417C477.717 45.6528 477.522 45.3333 477.211 45.0833C476.9 44.8278 476.547 44.7 476.153 44.7C475.747 44.7 475.392 44.8361 475.086 45.1083C474.781 45.375 474.586 45.6972 474.503 46.075ZM482.021 49.0667C481.565 49.0667 481.149 48.9528 480.771 48.725C480.393 48.4917 480.09 48.1806 479.862 47.7917C479.64 47.4028 479.529 46.9722 479.529 46.5C479.529 46.0278 479.64 45.5972 479.862 45.2083C480.09 44.8194 480.393 44.5111 480.771 44.2833C481.149 44.05 481.565 43.9333 482.021 43.9333C482.365 43.9333 482.687 43.9972 482.987 44.125C483.293 44.2528 483.557 44.4306 483.779 44.6583V44H484.612V49H483.779V48.3417C483.557 48.5639 483.293 48.7417 482.987 48.875C482.687 49.0028 482.365 49.0667 482.021 49.0667ZM482.137 48.25C482.454 48.25 482.74 48.1722 482.996 48.0167C483.257 47.8556 483.462 47.6444 483.612 47.3833C483.768 47.1167 483.846 46.8222 483.846 46.5C483.846 46.1778 483.768 45.8861 483.612 45.625C483.462 45.3583 483.257 45.1472 482.996 44.9917C482.74 44.8306 482.454 44.75 482.137 44.75C481.821 44.75 481.532 44.8306 481.271 44.9917C481.015 45.1472 480.81 45.3583 480.654 45.625C480.504 45.8861 480.429 46.1778 480.429 46.5C480.429 46.8222 480.504 47.1167 480.654 47.3833C480.81 47.6444 481.015 47.8556 481.271 48.0167C481.532 48.1722 481.821 48.25 482.137 48.25ZM486.791 49V44.75H485.657V44H486.816V42.3333H487.666V44H488.907V44.75H487.691V49H486.791ZM489.957 49V44H490.857V49H489.957ZM490.407 43.1C490.241 43.1 490.099 43.0417 489.982 42.925C489.866 42.8083 489.807 42.6667 489.807 42.5C489.807 42.3278 489.866 42.1861 489.982 42.075C490.099 41.9583 490.241 41.9 490.407 41.9C490.579 41.9 490.721 41.9583 490.832 42.075C490.949 42.1861 491.007 42.3278 491.007 42.5C491.007 42.6667 490.949 42.8083 490.832 42.925C490.721 43.0417 490.579 43.1 490.407 43.1ZM492.453 49V44H493.287V44.8083C493.47 44.5139 493.706 44.2889 493.995 44.1333C494.289 43.9778 494.606 43.9 494.945 43.9C495.301 43.9 495.628 43.9889 495.928 44.1667C496.234 44.3389 496.481 44.5917 496.67 44.925C496.859 45.2528 496.953 45.6528 496.953 46.125V49H496.053V46.25C496.053 45.8556 495.934 45.5083 495.695 45.2083C495.462 44.9028 495.131 44.75 494.703 44.75C494.353 44.75 494.039 44.8778 493.762 45.1333C493.489 45.3833 493.353 45.7472 493.353 46.225V49H492.453ZM500.478 51.6C500.095 51.6 499.745 51.5444 499.428 51.4333C499.117 51.3222 498.839 51.1694 498.595 50.975L498.845 49.9583C499.012 50.1972 499.234 50.3917 499.512 50.5417C499.789 50.6917 500.109 50.7667 500.47 50.7667C501.031 50.7667 501.484 50.5972 501.828 50.2583C502.178 49.9194 502.353 49.4833 502.353 48.95V48.3417C502.131 48.5639 501.867 48.7417 501.562 48.875C501.262 49.0028 500.939 49.0667 500.595 49.0667C500.139 49.0667 499.723 48.9528 499.345 48.725C498.967 48.4917 498.664 48.1806 498.437 47.7917C498.214 47.4028 498.103 46.9722 498.103 46.5C498.103 46.0278 498.214 45.5972 498.437 45.2083C498.664 44.8194 498.967 44.5111 499.345 44.2833C499.723 44.05 500.139 43.9333 500.595 43.9333C500.939 43.9333 501.262 43.9972 501.562 44.125C501.867 44.2528 502.131 44.4306 502.353 44.6583V44H503.187V49C503.187 49.5444 503.059 50.0111 502.803 50.4C502.553 50.7889 502.223 51.0861 501.812 51.2917C501.401 51.4972 500.956 51.6 500.478 51.6ZM500.712 48.25C501.028 48.25 501.314 48.1722 501.57 48.0167C501.831 47.8556 502.037 47.6444 502.187 47.3833C502.342 47.1167 502.42 46.8222 502.42 46.5C502.42 46.1778 502.342 45.8861 502.187 45.625C502.037 45.3583 501.831 45.1472 501.57 44.9917C501.314 44.8306 501.028 44.75 500.712 44.75C500.395 44.75 500.106 44.8306 499.845 44.9917C499.589 45.1472 499.384 45.3583 499.228 45.625C499.078 45.8861 499.003 46.1778 499.003 46.5C499.003 46.8222 499.078 47.1167 499.228 47.3833C499.384 47.6444 499.589 47.8556 499.845 48.0167C500.106 48.1722 500.395 48.25 500.712 48.25Z" fill="black"/>
<path opacity="0.8" d="M429.008 353.25L426.117 345.5H427.083L428.783 350C428.844 350.156 428.894 350.306 428.933 350.45C428.972 350.589 429.014 350.756 429.058 350.95C429.103 350.756 429.144 350.589 429.183 350.45C429.228 350.306 429.278 350.156 429.333 350L431.05 345.25L432.758 350C432.808 350.139 432.855 350.281 432.9 350.425C432.95 350.564 432.994 350.739 433.033 350.95C433.078 350.739 433.122 350.564 433.167 350.425C433.211 350.281 433.261 350.139 433.317 350L435.017 345.5H435.917L433.033 353.25L431.3 348.383C431.25 348.239 431.203 348.1 431.158 347.967C431.114 347.828 431.069 347.653 431.025 347.442C430.98 347.653 430.936 347.828 430.892 347.967C430.847 348.1 430.8 348.239 430.75 348.383L429.008 353.25ZM436.813 353V348H437.713V353H436.813ZM437.263 347.1C437.096 347.1 436.954 347.042 436.838 346.925C436.721 346.808 436.663 346.667 436.663 346.5C436.663 346.328 436.721 346.186 436.838 346.075C436.954 345.958 437.096 345.9 437.263 345.9C437.435 345.9 437.577 345.958 437.688 346.075C437.804 346.186 437.863 346.328 437.863 346.5C437.863 346.667 437.804 346.808 437.688 346.925C437.577 347.042 437.435 347.1 437.263 347.1ZM439.309 353V348H440.142V348.808C440.325 348.514 440.562 348.289 440.85 348.133C441.145 347.978 441.462 347.9 441.8 347.9C442.156 347.9 442.484 347.989 442.784 348.167C443.089 348.339 443.337 348.592 443.525 348.925C443.714 349.253 443.809 349.653 443.809 350.125V353H442.909V350.25C442.909 349.856 442.789 349.508 442.55 349.208C442.317 348.903 441.987 348.75 441.559 348.75C441.209 348.75 440.895 348.878 440.617 349.133C440.345 349.383 440.209 349.747 440.209 350.225V353H439.309ZM447.45 353.067C446.995 353.067 446.578 352.953 446.2 352.725C445.823 352.492 445.52 352.181 445.292 351.792C445.07 351.403 444.959 350.972 444.959 350.5C444.959 350.028 445.07 349.597 445.292 349.208C445.52 348.819 445.823 348.511 446.2 348.283C446.578 348.05 446.995 347.933 447.45 347.933C447.778 347.933 448.087 347.992 448.375 348.108C448.664 348.225 448.92 348.386 449.142 348.592V345H450.042V353H449.209V352.342C448.987 352.564 448.723 352.742 448.417 352.875C448.117 353.003 447.795 353.067 447.45 353.067ZM447.567 352.25C447.884 352.25 448.17 352.172 448.425 352.017C448.687 351.856 448.892 351.644 449.042 351.383C449.198 351.117 449.275 350.822 449.275 350.5C449.275 350.178 449.198 349.886 449.042 349.625C448.892 349.358 448.687 349.147 448.425 348.992C448.17 348.831 447.884 348.75 447.567 348.75C447.25 348.75 446.962 348.831 446.7 348.992C446.445 349.147 446.239 349.358 446.084 349.625C445.934 349.886 445.859 350.178 445.859 350.5C445.859 350.822 445.934 351.117 446.084 351.383C446.239 351.644 446.445 351.856 446.7 352.017C446.962 352.172 447.25 352.25 447.567 352.25ZM453.92 353.1C453.437 353.1 452.995 352.983 452.595 352.75C452.195 352.517 451.876 352.203 451.637 351.808C451.404 351.414 451.287 350.978 451.287 350.5C451.287 350.017 451.404 349.581 451.637 349.192C451.876 348.797 452.195 348.483 452.595 348.25C452.995 348.017 453.437 347.9 453.92 347.9C454.409 347.9 454.851 348.017 455.245 348.25C455.645 348.483 455.962 348.797 456.195 349.192C456.434 349.581 456.554 350.017 456.554 350.5C456.554 350.978 456.434 351.414 456.195 351.808C455.962 352.203 455.645 352.517 455.245 352.75C454.851 352.983 454.409 353.1 453.92 353.1ZM453.92 352.25C454.242 352.25 454.534 352.172 454.795 352.017C455.056 351.856 455.265 351.644 455.42 351.383C455.576 351.117 455.654 350.822 455.654 350.5C455.654 350.178 455.576 349.886 455.42 349.625C455.265 349.358 455.056 349.147 454.795 348.992C454.534 348.831 454.242 348.75 453.92 348.75C453.598 348.75 453.306 348.831 453.045 348.992C452.784 349.147 452.576 349.358 452.42 349.625C452.265 349.886 452.187 350.178 452.187 350.5C452.187 350.822 452.265 351.117 452.42 351.383C452.576 351.644 452.784 351.856 453.045 352.017C453.306 352.172 453.598 352.25 453.92 352.25ZM459.462 353.25L456.937 348H457.962L458.97 350.167C459.065 350.372 459.154 350.572 459.237 350.767C459.326 350.961 459.412 351.206 459.495 351.5C459.584 351.211 459.673 350.967 459.762 350.767C459.856 350.567 459.945 350.367 460.029 350.167L461.037 347.767L462.037 350.167C462.12 350.372 462.206 350.572 462.295 350.767C462.384 350.961 462.47 351.206 462.554 351.5C462.637 351.206 462.723 350.961 462.812 350.767C462.901 350.567 462.992 350.367 463.087 350.167L464.112 348H465.07L462.545 353.25L461.529 351.017C461.44 350.817 461.351 350.619 461.262 350.425C461.179 350.225 461.092 349.986 461.004 349.708C460.92 349.986 460.834 350.225 460.745 350.425C460.656 350.619 460.565 350.817 460.47 351.017L459.462 353.25ZM470.332 353.1C469.887 353.1 469.484 353.011 469.123 352.833C468.768 352.656 468.484 352.439 468.273 352.183L468.548 351.033C468.704 351.344 468.937 351.625 469.248 351.875C469.559 352.125 469.932 352.25 470.365 352.25C470.759 352.25 471.084 352.125 471.34 351.875C471.601 351.625 471.732 351.317 471.732 350.95C471.732 350.683 471.668 350.464 471.54 350.292C471.412 350.119 471.268 349.983 471.107 349.883C470.946 349.783 470.818 349.711 470.723 349.667L469.807 349.2C469.662 349.122 469.482 349.014 469.265 348.875C469.054 348.736 468.868 348.544 468.707 348.3C468.546 348.056 468.465 347.739 468.465 347.35C468.465 346.972 468.551 346.636 468.723 346.342C468.901 346.047 469.146 345.817 469.457 345.65C469.773 345.483 470.134 345.4 470.54 345.4C470.94 345.4 471.293 345.472 471.598 345.617C471.904 345.756 472.143 345.9 472.315 346.05L472.04 347.2C471.901 346.967 471.696 346.747 471.423 346.542C471.151 346.336 470.843 346.233 470.498 346.233C470.165 346.233 469.898 346.333 469.698 346.533C469.498 346.728 469.398 346.969 469.398 347.258C469.398 347.481 469.448 347.664 469.548 347.808C469.654 347.953 469.771 348.067 469.898 348.15C470.032 348.233 470.14 348.297 470.223 348.342L471.157 348.808C471.268 348.864 471.407 348.942 471.573 349.042C471.746 349.142 471.915 349.275 472.082 349.442C472.248 349.603 472.387 349.803 472.498 350.042C472.609 350.275 472.665 350.558 472.665 350.892C472.665 351.319 472.562 351.7 472.357 352.033C472.157 352.367 471.882 352.628 471.532 352.817C471.182 353.006 470.782 353.1 470.332 353.1ZM476.344 353.1C475.822 353.1 475.353 352.983 474.936 352.75C474.525 352.517 474.2 352.2 473.961 351.8C473.728 351.394 473.611 350.944 473.611 350.45C473.611 349.978 473.725 349.55 473.953 349.167C474.181 348.778 474.486 348.469 474.869 348.242C475.258 348.014 475.686 347.9 476.153 347.9C476.614 347.9 477.036 348.011 477.419 348.233C477.803 348.45 478.108 348.744 478.336 349.117C478.564 349.489 478.678 349.911 478.678 350.383V350.75H475.411C475.267 350.75 475.119 350.744 474.969 350.733C474.819 350.722 474.672 350.706 474.528 350.683C474.589 351.128 474.789 351.5 475.128 351.8C475.472 352.1 475.881 352.25 476.353 352.25C476.669 352.25 476.964 352.178 477.236 352.033C477.508 351.889 477.728 351.697 477.894 351.458L478.144 352.483C477.906 352.678 477.631 352.831 477.319 352.942C477.014 353.047 476.689 353.1 476.344 353.1ZM474.503 350.075C474.803 350.025 475.106 350 475.411 350H477.069C477.192 350 477.311 350.006 477.428 350.017C477.55 350.022 477.672 350.031 477.794 350.042C477.717 349.653 477.522 349.333 477.211 349.083C476.9 348.828 476.547 348.7 476.153 348.7C475.747 348.7 475.392 348.836 475.086 349.108C474.781 349.375 474.586 349.697 474.503 350.075ZM482.021 353.067C481.565 353.067 481.149 352.953 480.771 352.725C480.393 352.492 480.09 352.181 479.862 351.792C479.64 351.403 479.529 350.972 479.529 350.5C479.529 350.028 479.64 349.597 479.862 349.208C480.09 348.819 480.393 348.511 480.771 348.283C481.149 348.05 481.565 347.933 482.021 347.933C482.365 347.933 482.687 347.997 482.987 348.125C483.293 348.253 483.557 348.431 483.779 348.658V348H484.612V353H483.779V352.342C483.557 352.564 483.293 352.742 482.987 352.875C482.687 353.003 482.365 353.067 482.021 353.067ZM482.137 352.25C482.454 352.25 482.74 352.172 482.996 352.017C483.257 351.856 483.462 351.644 483.612 351.383C483.768 351.117 483.846 350.822 483.846 350.5C483.846 350.178 483.768 349.886 483.612 349.625C483.462 349.358 483.257 349.147 482.996 348.992C482.74 348.831 482.454 348.75 482.137 348.75C481.821 348.75 481.532 348.831 481.271 348.992C481.015 349.147 480.81 349.358 480.654 349.625C480.504 349.886 480.429 350.178 480.429 350.5C480.429 350.822 480.504 351.117 480.654 351.383C480.81 351.644 481.015 351.856 481.271 352.017C481.532 352.172 481.821 352.25 482.137 352.25ZM486.791 353V348.75H485.657V348H486.816V346.333H487.666V348H488.907V348.75H487.691V353H486.791ZM489.957 353V348H490.857V353H489.957ZM490.407 347.1C490.241 347.1 490.099 347.042 489.982 346.925C489.866 346.808 489.807 346.667 489.807 346.5C489.807 346.328 489.866 346.186 489.982 346.075C490.099 345.958 490.241 345.9 490.407 345.9C490.579 345.9 490.721 345.958 490.832 346.075C490.949 346.186 491.007 346.328 491.007 346.5C491.007 346.667 490.949 346.808 490.832 346.925C490.721 347.042 490.579 347.1 490.407 347.1ZM492.453 353V348H493.287V348.808C493.47 348.514 493.706 348.289 493.995 348.133C494.289 347.978 494.606 347.9 494.945 347.9C495.301 347.9 495.628 347.989 495.928 348.167C496.234 348.339 496.481 348.592 496.67 348.925C496.859 349.253 496.953 349.653 496.953 350.125V353H496.053V350.25C496.053 349.856 495.934 349.508 495.695 349.208C495.462 348.903 495.131 348.75 494.703 348.75C494.353 348.75 494.039 348.878 493.762 349.133C493.489 349.383 493.353 349.747 493.353 350.225V353H492.453ZM500.478 355.6C500.095 355.6 499.745 355.544 499.428 355.433C499.117 355.322 498.839 355.169 498.595 354.975L498.845 353.958C499.012 354.197 499.234 354.392 499.512 354.542C499.789 354.692 500.109 354.767 500.47 354.767C501.031 354.767 501.484 354.597 501.828 354.258C502.178 353.919 502.353 353.483 502.353 352.95V352.342C502.131 352.564 501.867 352.742 501.562 352.875C501.262 353.003 500.939 353.067 500.595 353.067C500.139 353.067 499.723 352.953 499.345 352.725C498.967 352.492 498.664 352.181 498.437 351.792C498.214 351.403 498.103 350.972 498.103 350.5C498.103 350.028 498.214 349.597 498.437 349.208C498.664 348.819 498.967 348.511 499.345 348.283C499.723 348.05 500.139 347.933 500.595 347.933C500.939 347.933 501.262 347.997 501.562 348.125C501.867 348.253 502.131 348.431 502.353 348.658V348H503.187V353C503.187 353.544 503.059 354.011 502.803 354.4C502.553 354.789 502.223 355.086 501.812 355.292C501.401 355.497 500.956 355.6 500.478 355.6ZM500.712 352.25C501.028 352.25 501.314 352.172 501.57 352.017C501.831 351.856 502.037 351.644 502.187 351.383C502.342 351.117 502.42 350.822 502.42 350.5C502.42 350.178 502.342 349.886 502.187 349.625C502.037 349.358 501.831 349.147 501.57 348.992C501.314 348.831 501.028 348.75 500.712 348.75C500.395 348.75 500.106 348.831 499.845 348.992C499.589 349.147 499.384 349.358 499.228 349.625C499.078 349.886 499.003 350.178 499.003 350.5C499.003 350.822 499.078 351.117 499.228 351.383C499.384 351.644 499.589 351.856 499.845 352.017C500.106 352.172 500.395 352.25 500.712 352.25Z" fill="black"/>
<path opacity="0.6" d="M236.75 394.5C159.869 394.5 88.9191 353.184 50.9751 286.319L15.4237 223.67C6.21294 207.439 6.21293 187.561 15.4237 171.329L50.9751 108.681C88.9191 41.8157 159.869 0.5 236.75 0.5H779.472C808.758 0.5 832.498 24.2404 832.498 53.5256V341.474C832.498 370.759 808.758 394.5 779.472 394.5H236.75Z" stroke="black"/>
<path opacity="0.6" d="M240.989 385.5C164.853 385.5 94.4725 344.974 56.2519 279.127L24.0328 223.619C14.4787 207.159 14.4786 186.841 24.0328 170.381L56.2519 114.873C94.4725 49.0257 164.853 8.5 240.989 8.5H769.978C799.264 8.5 823.004 32.2404 823.004 61.5256V332.474C823.004 361.76 799.264 385.5 769.978 385.5H240.989Z" stroke="black"/>
<path d="M236.5 385V9" stroke="#BEBEBE"/>
<path d="M691.5 385V9" stroke="#BEBEBE"/>
</svg>
