<svg width="833" height="395" viewBox="0 0 833 395" fill="none" xmlns="http://www.w3.org/2000/svg">
<path opacity="0.6" d="M236.75 0.5H779.472C808.758 0.5 832.498 24.2404 832.498 53.5256V341.474C832.498 370.76 808.758 394.5 779.472 394.5H236.75C159.869 394.5 88.9191 353.184 50.9751 286.319L15.4237 223.67C6.21294 207.439 6.21293 187.561 15.4237 171.33L50.9751 108.681C88.9191 41.8157 159.869 0.5 236.75 0.5Z" stroke="black"/>
<path opacity="0.6" d="M245.726 385.5C169.407 385.5 98.886 344.781 60.7319 278.683L28.8831 223.509C19.414 207.105 19.414 186.895 28.8831 170.491L60.7319 115.317C98.886 49.2191 169.407 8.5 245.726 8.5H770.478C799.764 8.5 823.504 32.2404 823.504 61.5256V332.474C823.504 361.76 799.764 385.5 770.478 385.5H245.726Z" stroke="black"/>
<g opacity="0.6">
<path d="M687 33V9H233V13C233 24.0457 241.954 33 253 33H687Z" fill="#FFB2B2"/>
<path d="M687.5 33.5V9H686.5V32.5L687.5 33.5ZM232.5 9V13C232.5 24.3218 241.678 33.5 253 33.5V32.5C242.23 32.5 233.5 23.7695 233.5 13V9H232.5ZM232.5 13C232.5 24.3218 241.678 33.5 253 33.5H687.5L686.5 32.5H253C242.23 32.5 233.5 23.7695 233.5 13H232.5Z" fill="#621515"/>
</g>
<path d="M390.088 26V18.55H390.638L395.148 25.02H394.938V18.55H395.588V26H395.038L390.508 19.49H390.738V26H390.088ZM399.821 26.12C399.315 26.12 398.858 26 398.451 25.76C398.045 25.52 397.721 25.19 397.481 24.77C397.248 24.3433 397.131 23.8667 397.131 23.34C397.131 22.8133 397.248 22.34 397.481 21.92C397.721 21.5 398.041 21.17 398.441 20.93C398.848 20.69 399.308 20.57 399.821 20.57C400.328 20.57 400.785 20.69 401.191 20.93C401.598 21.17 401.918 21.5 402.151 21.92C402.385 22.3333 402.501 22.8067 402.501 23.34C402.501 23.8733 402.381 24.35 402.141 24.77C401.901 25.19 401.578 25.52 401.171 25.76C400.771 26 400.321 26.12 399.821 26.12ZM399.821 25.53C400.201 25.53 400.545 25.4367 400.851 25.25C401.165 25.0567 401.411 24.7933 401.591 24.46C401.771 24.1267 401.861 23.7533 401.861 23.34C401.861 22.9267 401.771 22.5567 401.591 22.23C401.411 21.9033 401.168 21.6433 400.861 21.45C400.555 21.2567 400.208 21.16 399.821 21.16C399.435 21.16 399.085 21.2567 398.771 21.45C398.465 21.6367 398.221 21.8967 398.041 22.23C397.861 22.5567 397.771 22.9267 397.771 23.34C397.771 23.7533 397.861 24.1267 398.041 24.46C398.228 24.7933 398.475 25.0567 398.781 25.25C399.088 25.4367 399.435 25.53 399.821 25.53ZM406.754 26L404.934 20.69H405.604L407.194 25.5H406.934L408.374 20.69H408.984L410.424 25.5H410.164L411.764 20.69H412.434L410.604 26H409.994L408.604 21.36H408.754L407.364 26H406.754ZM413.426 26V20.69H414.026V26H413.426ZM413.426 19.65V18.55H414.026V19.65H413.426ZM415.672 26V20.69H416.272V21.76L416.122 21.72C416.242 21.3667 416.455 21.0867 416.762 20.88C417.075 20.6733 417.438 20.57 417.852 20.57C418.218 20.57 418.552 20.6533 418.852 20.82C419.152 20.9867 419.392 21.22 419.572 21.52C419.752 21.8133 419.842 22.15 419.842 22.53V26H419.242V22.7C419.242 22.38 419.178 22.1067 419.052 21.88C418.925 21.6467 418.748 21.47 418.522 21.35C418.302 21.2233 418.048 21.16 417.762 21.16C417.462 21.16 417.198 21.23 416.972 21.37C416.745 21.51 416.572 21.7033 416.452 21.95C416.332 22.1967 416.272 22.48 416.272 22.8V26H415.672ZM423.784 26.12C423.291 26.12 422.844 26 422.444 25.76C422.051 25.5133 421.741 25.18 421.514 24.76C421.288 24.34 421.174 23.8667 421.174 23.34C421.174 22.8133 421.288 22.34 421.514 21.92C421.741 21.5 422.051 21.17 422.444 20.93C422.844 20.69 423.291 20.57 423.784 20.57C424.271 20.57 424.704 20.6867 425.084 20.92C425.464 21.1467 425.751 21.4533 425.944 21.84L425.844 22.03V18.43H426.444V26H425.844V24.65L425.944 24.79C425.758 25.2033 425.471 25.53 425.084 25.77C424.704 26.0033 424.271 26.12 423.784 26.12ZM423.804 25.52C424.191 25.52 424.534 25.4267 424.834 25.24C425.141 25.0467 425.384 24.7867 425.564 24.46C425.744 24.1267 425.834 23.7533 425.834 23.34C425.834 22.9267 425.744 22.5567 425.564 22.23C425.384 21.9033 425.141 21.6467 424.834 21.46C424.534 21.2667 424.191 21.17 423.804 21.17C423.424 21.17 423.084 21.2667 422.784 21.46C422.484 21.6467 422.248 21.9033 422.074 22.23C421.901 22.5567 421.814 22.9267 421.814 23.34C421.814 23.7533 421.901 24.1267 422.074 24.46C422.248 24.7867 422.484 25.0467 422.784 25.24C423.084 25.4267 423.424 25.52 423.804 25.52ZM430.573 26.12C430.067 26.12 429.61 26 429.203 25.76C428.797 25.52 428.473 25.19 428.233 24.77C428 24.3433 427.883 23.8667 427.883 23.34C427.883 22.8133 428 22.34 428.233 21.92C428.473 21.5 428.793 21.17 429.193 20.93C429.6 20.69 430.06 20.57 430.573 20.57C431.08 20.57 431.537 20.69 431.943 20.93C432.35 21.17 432.67 21.5 432.903 21.92C433.137 22.3333 433.253 22.8067 433.253 23.34C433.253 23.8733 433.133 24.35 432.893 24.77C432.653 25.19 432.33 25.52 431.923 25.76C431.523 26 431.073 26.12 430.573 26.12ZM430.573 25.53C430.953 25.53 431.297 25.4367 431.603 25.25C431.917 25.0567 432.163 24.7933 432.343 24.46C432.523 24.1267 432.613 23.7533 432.613 23.34C432.613 22.9267 432.523 22.5567 432.343 22.23C432.163 21.9033 431.92 21.6433 431.613 21.45C431.307 21.2567 430.96 21.16 430.573 21.16C430.187 21.16 429.837 21.2567 429.523 21.45C429.217 21.6367 428.973 21.8967 428.793 22.23C428.613 22.5567 428.523 22.9267 428.523 23.34C428.523 23.7533 428.613 24.1267 428.793 24.46C428.98 24.7933 429.227 25.0567 429.533 25.25C429.84 25.4367 430.187 25.53 430.573 25.53ZM435.758 26L433.938 20.69H434.608L436.198 25.5H435.938L437.378 20.69H437.988L439.428 25.5H439.168L440.768 20.69H441.438L439.608 26H438.998L437.608 21.36H437.758L436.368 26H435.758ZM444.22 26.12C443.726 26.12 443.293 25.9967 442.92 25.75C442.546 25.5033 442.273 25.1667 442.1 24.74L442.62 24.5C442.786 24.8267 443.01 25.0867 443.29 25.28C443.57 25.4667 443.88 25.56 444.22 25.56C444.566 25.56 444.856 25.4767 445.09 25.31C445.33 25.1367 445.45 24.91 445.45 24.63C445.45 24.4567 445.403 24.31 445.31 24.19C445.223 24.07 445.11 23.9733 444.97 23.9C444.83 23.82 444.68 23.76 444.52 23.72L443.7 23.49C443.24 23.3633 442.9 23.1767 442.68 22.93C442.466 22.6833 442.36 22.3933 442.36 22.06C442.36 21.76 442.436 21.5 442.59 21.28C442.743 21.0533 442.95 20.88 443.21 20.76C443.47 20.6333 443.756 20.57 444.07 20.57C444.51 20.57 444.91 20.6833 445.27 20.91C445.63 21.1367 445.883 21.4433 446.03 21.83L445.49 22.08C445.35 21.78 445.153 21.5467 444.9 21.38C444.646 21.2067 444.366 21.12 444.06 21.12C443.74 21.12 443.48 21.2067 443.28 21.38C443.08 21.5467 442.98 21.76 442.98 22.02C442.98 22.1867 443.02 22.3267 443.1 22.44C443.18 22.5467 443.283 22.6367 443.41 22.71C443.543 22.7767 443.68 22.83 443.82 22.87L444.71 23.13C445.143 23.25 445.476 23.44 445.71 23.7C445.95 23.96 446.07 24.2667 446.07 24.62C446.07 24.9067 445.99 25.1633 445.83 25.39C445.67 25.6167 445.45 25.7967 445.17 25.93C444.89 26.0567 444.573 26.12 444.22 26.12ZM449.158 26V20.69H449.758V26H449.158ZM449.158 19.65V18.55H449.758V19.65H449.158ZM451.404 26V20.69H452.004V21.76L451.854 21.72C451.974 21.3667 452.188 21.0867 452.494 20.88C452.808 20.6733 453.171 20.57 453.584 20.57C453.951 20.57 454.284 20.6533 454.584 20.82C454.884 20.9867 455.124 21.22 455.304 21.52C455.484 21.8133 455.574 22.15 455.574 22.53V26H454.974V22.7C454.974 22.38 454.911 22.1067 454.784 21.88C454.658 21.6467 454.481 21.47 454.254 21.35C454.034 21.2233 453.781 21.16 453.494 21.16C453.194 21.16 452.931 21.23 452.704 21.37C452.478 21.51 452.304 21.7033 452.184 21.95C452.064 22.1967 452.004 22.48 452.004 22.8V26H451.404ZM458.887 26V18.55H463.587V19.15H459.537V21.96H463.387V22.56H459.537V25.4L463.587 25.4V26L458.887 26ZM467.33 26.12C466.823 26.12 466.37 26 465.97 25.76C465.577 25.5133 465.263 25.18 465.03 24.76C464.803 24.34 464.69 23.8667 464.69 23.34C464.69 22.8067 464.803 22.3333 465.03 21.92C465.263 21.5 465.577 21.17 465.97 20.93C466.37 20.69 466.823 20.57 467.33 20.57C467.663 20.57 467.97 20.6267 468.25 20.74C468.537 20.8533 468.79 21.0067 469.01 21.2C469.23 21.3933 469.397 21.6167 469.51 21.87L468.98 22.15C468.82 21.8433 468.597 21.6 468.31 21.42C468.023 21.24 467.697 21.15 467.33 21.15C466.95 21.15 466.607 21.2433 466.3 21.43C466 21.6167 465.76 21.8767 465.58 22.21C465.4 22.5367 465.31 22.9133 465.31 23.34C465.31 23.7667 465.4 24.1467 465.58 24.48C465.76 24.8067 466 25.0633 466.3 25.25C466.607 25.4367 466.95 25.53 467.33 25.53C467.697 25.53 468.023 25.44 468.31 25.26C468.597 25.08 468.82 24.8333 468.98 24.52L469.51 24.81C469.397 25.0567 469.23 25.28 469.01 25.48C468.79 25.6733 468.537 25.83 468.25 25.95C467.97 26.0633 467.663 26.12 467.33 26.12ZM473.415 26.12C472.909 26.12 472.452 26 472.045 25.76C471.639 25.52 471.315 25.19 471.075 24.77C470.842 24.3433 470.725 23.8667 470.725 23.34C470.725 22.8133 470.842 22.34 471.075 21.92C471.315 21.5 471.635 21.17 472.035 20.93C472.442 20.69 472.902 20.57 473.415 20.57C473.922 20.57 474.379 20.69 474.785 20.93C475.192 21.17 475.512 21.5 475.745 21.92C475.979 22.3333 476.095 22.8067 476.095 23.34C476.095 23.8733 475.975 24.35 475.735 24.77C475.495 25.19 475.172 25.52 474.765 25.76C474.365 26 473.915 26.12 473.415 26.12ZM473.415 25.53C473.795 25.53 474.139 25.4367 474.445 25.25C474.759 25.0567 475.005 24.7933 475.185 24.46C475.365 24.1267 475.455 23.7533 475.455 23.34C475.455 22.9267 475.365 22.5567 475.185 22.23C475.005 21.9033 474.762 21.6433 474.455 21.45C474.149 21.2567 473.802 21.16 473.415 21.16C473.029 21.16 472.679 21.2567 472.365 21.45C472.059 21.6367 471.815 21.8967 471.635 22.23C471.455 22.5567 471.365 22.9267 471.365 23.34C471.365 23.7533 471.455 24.1267 471.635 24.46C471.822 24.7933 472.069 25.0567 472.375 25.25C472.682 25.4367 473.029 25.53 473.415 25.53ZM477.537 26V20.69H478.137V21.76L477.987 21.72C478.107 21.3667 478.32 21.0867 478.627 20.88C478.94 20.6733 479.304 20.57 479.717 20.57C480.084 20.57 480.417 20.6533 480.717 20.82C481.017 20.9867 481.257 21.22 481.437 21.52C481.617 21.8133 481.707 22.15 481.707 22.53V26H481.107V22.7C481.107 22.38 481.044 22.1067 480.917 21.88C480.79 21.6467 480.614 21.47 480.387 21.35C480.167 21.2233 479.914 21.16 479.627 21.16C479.327 21.16 479.064 21.23 478.837 21.37C478.61 21.51 478.437 21.7033 478.317 21.95C478.197 22.1967 478.137 22.48 478.137 22.8V26H477.537ZM485.73 26.12C485.223 26.12 484.766 26 484.36 25.76C483.953 25.52 483.63 25.19 483.39 24.77C483.156 24.3433 483.04 23.8667 483.04 23.34C483.04 22.8133 483.156 22.34 483.39 21.92C483.63 21.5 483.95 21.17 484.35 20.93C484.756 20.69 485.216 20.57 485.73 20.57C486.236 20.57 486.693 20.69 487.1 20.93C487.506 21.17 487.826 21.5 488.06 21.92C488.293 22.3333 488.41 22.8067 488.41 23.34C488.41 23.8733 488.29 24.35 488.05 24.77C487.81 25.19 487.486 25.52 487.08 25.76C486.68 26 486.23 26.12 485.73 26.12ZM485.73 25.53C486.11 25.53 486.453 25.4367 486.76 25.25C487.073 25.0567 487.32 24.7933 487.5 24.46C487.68 24.1267 487.77 23.7533 487.77 23.34C487.77 22.9267 487.68 22.5567 487.5 22.23C487.32 21.9033 487.076 21.6433 486.77 21.45C486.463 21.2567 486.116 21.16 485.73 21.16C485.343 21.16 484.993 21.2567 484.68 21.45C484.373 21.6367 484.13 21.8967 483.95 22.23C483.77 22.5567 483.68 22.9267 483.68 23.34C483.68 23.7533 483.77 24.1267 483.95 24.46C484.136 24.7933 484.383 25.0567 484.69 25.25C484.996 25.4367 485.343 25.53 485.73 25.53ZM489.851 26V20.69H490.451V21.76L490.341 21.61C490.475 21.29 490.688 21.0367 490.981 20.85C491.281 20.6633 491.615 20.57 491.981 20.57C492.395 20.57 492.771 20.69 493.111 20.93C493.451 21.1633 493.688 21.4767 493.821 21.87L493.631 21.88C493.745 21.4733 493.968 21.1533 494.301 20.92C494.641 20.6867 495.018 20.57 495.431 20.57C495.785 20.57 496.108 20.6533 496.401 20.82C496.701 20.9867 496.941 21.22 497.121 21.52C497.308 21.8133 497.401 22.15 497.401 22.53V26H496.801V22.7C496.801 22.38 496.735 22.1067 496.601 21.88C496.475 21.6467 496.305 21.47 496.091 21.35C495.878 21.2233 495.638 21.16 495.371 21.16C495.085 21.16 494.831 21.23 494.611 21.37C494.398 21.51 494.228 21.7033 494.101 21.95C493.981 22.1967 493.921 22.48 493.921 22.8V26H493.321V22.7C493.321 22.38 493.258 22.1067 493.131 21.88C493.005 21.6467 492.831 21.47 492.611 21.35C492.398 21.2233 492.158 21.16 491.891 21.16C491.605 21.16 491.351 21.23 491.131 21.37C490.918 21.51 490.751 21.7033 490.631 21.95C490.511 22.1967 490.451 22.48 490.451 22.8V26H489.851ZM498.866 28.2C498.772 28.2 498.669 28.19 498.556 28.17C498.449 28.1567 498.346 28.1333 498.246 28.1V27.54C498.326 27.56 498.416 27.5767 498.516 27.59C498.622 27.6033 498.719 27.61 498.806 27.61C499.132 27.6033 499.389 27.5233 499.576 27.37C499.762 27.2167 499.932 26.9633 500.086 26.61L500.466 25.72V26.28L498.216 20.69H498.876L500.806 25.51H500.566L502.506 20.69H503.176L500.696 26.74C500.602 26.96 500.479 27.1833 500.326 27.41C500.172 27.6367 499.976 27.8233 499.736 27.97C499.502 28.1233 499.212 28.2 498.866 28.2ZM508.248 26.12C507.741 26.12 507.288 26 506.888 25.76C506.495 25.5133 506.181 25.18 505.948 24.76C505.721 24.34 505.608 23.8667 505.608 23.34C505.608 22.8067 505.721 22.3333 505.948 21.92C506.181 21.5 506.495 21.17 506.888 20.93C507.288 20.69 507.741 20.57 508.248 20.57C508.581 20.57 508.888 20.6267 509.168 20.74C509.455 20.8533 509.708 21.0067 509.928 21.2C510.148 21.3933 510.315 21.6167 510.428 21.87L509.898 22.15C509.738 21.8433 509.515 21.6 509.228 21.42C508.941 21.24 508.615 21.15 508.248 21.15C507.868 21.15 507.525 21.2433 507.218 21.43C506.918 21.6167 506.678 21.8767 506.498 22.21C506.318 22.5367 506.228 22.9133 506.228 23.34C506.228 23.7667 506.318 24.1467 506.498 24.48C506.678 24.8067 506.918 25.0633 507.218 25.25C507.525 25.4367 507.868 25.53 508.248 25.53C508.615 25.53 508.941 25.44 509.228 25.26C509.515 25.08 509.738 24.8333 509.898 24.52L510.428 24.81C510.315 25.0567 510.148 25.28 509.928 25.48C509.708 25.6733 509.455 25.83 509.168 25.95C508.888 26.0633 508.581 26.12 508.248 26.12ZM511.863 26V18.43H512.463V26H511.863ZM515.629 26.12C515.296 26.12 514.999 26.0567 514.739 25.93C514.479 25.8033 514.273 25.6267 514.119 25.4C513.966 25.1733 513.889 24.9133 513.889 24.62C513.889 24.36 513.946 24.1167 514.059 23.89C514.173 23.6633 514.356 23.47 514.609 23.31C514.863 23.1433 515.193 23.0267 515.599 22.96L517.749 22.6V23.16L515.759 23.49C515.306 23.5633 514.986 23.7 514.799 23.9C514.613 24.1 514.519 24.3333 514.519 24.6C514.519 24.8867 514.626 25.12 514.839 25.3C515.059 25.48 515.336 25.57 515.669 25.57C516.056 25.57 516.393 25.4833 516.679 25.31C516.966 25.13 517.189 24.8967 517.349 24.61C517.509 24.3167 517.589 23.9967 517.589 23.65V22.33C517.589 21.9767 517.463 21.69 517.209 21.47C516.956 21.25 516.626 21.14 516.219 21.14C515.886 21.14 515.586 21.2233 515.319 21.39C515.053 21.5567 514.849 21.7733 514.709 22.04L514.169 21.75C514.269 21.5367 514.423 21.34 514.629 21.16C514.836 20.98 515.076 20.8367 515.349 20.73C515.623 20.6233 515.913 20.57 516.219 20.57C516.606 20.57 516.946 20.6467 517.239 20.8C517.539 20.9467 517.773 21.1533 517.939 21.42C518.106 21.68 518.189 21.9833 518.189 22.33V26H517.589V24.89L517.659 24.94C517.573 25.1533 517.429 25.35 517.229 25.53C517.029 25.7033 516.793 25.8467 516.519 25.96C516.253 26.0667 515.956 26.12 515.629 26.12ZM521.632 26.12C521.138 26.12 520.705 25.9967 520.332 25.75C519.958 25.5033 519.685 25.1667 519.512 24.74L520.032 24.5C520.198 24.8267 520.422 25.0867 520.702 25.28C520.982 25.4667 521.292 25.56 521.632 25.56C521.978 25.56 522.268 25.4767 522.502 25.31C522.742 25.1367 522.862 24.91 522.862 24.63C522.862 24.4567 522.815 24.31 522.722 24.19C522.635 24.07 522.522 23.9733 522.382 23.9C522.242 23.82 522.092 23.76 521.932 23.72L521.112 23.49C520.652 23.3633 520.312 23.1767 520.092 22.93C519.878 22.6833 519.772 22.3933 519.772 22.06C519.772 21.76 519.848 21.5 520.002 21.28C520.155 21.0533 520.362 20.88 520.622 20.76C520.882 20.6333 521.168 20.57 521.482 20.57C521.922 20.57 522.322 20.6833 522.682 20.91C523.042 21.1367 523.295 21.4433 523.442 21.83L522.902 22.08C522.762 21.78 522.565 21.5467 522.312 21.38C522.058 21.2067 521.778 21.12 521.472 21.12C521.152 21.12 520.892 21.2067 520.692 21.38C520.492 21.5467 520.392 21.76 520.392 22.02C520.392 22.1867 520.432 22.3267 520.512 22.44C520.592 22.5467 520.695 22.6367 520.822 22.71C520.955 22.7767 521.092 22.83 521.232 22.87L522.122 23.13C522.555 23.25 522.888 23.44 523.122 23.7C523.362 23.96 523.482 24.2667 523.482 24.62C523.482 24.9067 523.402 25.1633 523.242 25.39C523.082 25.6167 522.862 25.7967 522.582 25.93C522.302 26.0567 521.985 26.12 521.632 26.12ZM526.71 26.12C526.217 26.12 525.783 25.9967 525.41 25.75C525.037 25.5033 524.763 25.1667 524.59 24.74L525.11 24.5C525.277 24.8267 525.5 25.0867 525.78 25.28C526.06 25.4667 526.37 25.56 526.71 25.56C527.057 25.56 527.347 25.4767 527.58 25.31C527.82 25.1367 527.94 24.91 527.94 24.63C527.94 24.4567 527.893 24.31 527.8 24.19C527.713 24.07 527.6 23.9733 527.46 23.9C527.32 23.82 527.17 23.76 527.01 23.72L526.19 23.49C525.73 23.3633 525.39 23.1767 525.17 22.93C524.957 22.6833 524.85 22.3933 524.85 22.06C524.85 21.76 524.927 21.5 525.08 21.28C525.233 21.0533 525.44 20.88 525.7 20.76C525.96 20.6333 526.247 20.57 526.56 20.57C527 20.57 527.4 20.6833 527.76 20.91C528.12 21.1367 528.373 21.4433 528.52 21.83L527.98 22.08C527.84 21.78 527.643 21.5467 527.39 21.38C527.137 21.2067 526.857 21.12 526.55 21.12C526.23 21.12 525.97 21.2067 525.77 21.38C525.57 21.5467 525.47 21.76 525.47 22.02C525.47 22.1867 525.51 22.3267 525.59 22.44C525.67 22.5467 525.773 22.6367 525.9 22.71C526.033 22.7767 526.17 22.83 526.31 22.87L527.2 23.13C527.633 23.25 527.967 23.44 528.2 23.7C528.44 23.96 528.56 24.2667 528.56 24.62C528.56 24.9067 528.48 25.1633 528.32 25.39C528.16 25.6167 527.94 25.7967 527.66 25.93C527.38 26.0567 527.063 26.12 526.71 26.12Z" fill="#060606"/>
<g opacity="0.6">
<path d="M687 361.5V385.5H233V381.5C233 370.454 241.954 361.5 253 361.5H687Z" fill="#FFB2B2"/>
<path d="M687.5 361V385.5H686.5V362L687.5 361ZM232.5 385.5V381.5C232.5 370.178 241.678 361 253 361V362C242.23 362 233.5 370.73 233.5 381.5V385.5H232.5ZM232.5 381.5C232.5 370.178 241.678 361 253 361H687.5L686.5 362H253C242.23 362 233.5 370.73 233.5 381.5H232.5Z" fill="#A5A5A5"/>
</g>
<path d="M389.94 378V370.55H390.49L395 377.02H394.79V370.55H395.44V378H394.89L390.36 371.49H390.59V378H389.94ZM399.673 378.12C399.166 378.12 398.71 378 398.303 377.76C397.896 377.52 397.573 377.19 397.333 376.77C397.1 376.343 396.983 375.867 396.983 375.34C396.983 374.813 397.1 374.34 397.333 373.92C397.573 373.5 397.893 373.17 398.293 372.93C398.7 372.69 399.16 372.57 399.673 372.57C400.18 372.57 400.636 372.69 401.043 372.93C401.45 373.17 401.77 373.5 402.003 373.92C402.236 374.333 402.353 374.807 402.353 375.34C402.353 375.873 402.233 376.35 401.993 376.77C401.753 377.19 401.43 377.52 401.023 377.76C400.623 378 400.173 378.12 399.673 378.12ZM399.673 377.53C400.053 377.53 400.396 377.437 400.703 377.25C401.016 377.057 401.263 376.793 401.443 376.46C401.623 376.127 401.713 375.753 401.713 375.34C401.713 374.927 401.623 374.557 401.443 374.23C401.263 373.903 401.02 373.643 400.713 373.45C400.406 373.257 400.06 373.16 399.673 373.16C399.286 373.16 398.936 373.257 398.623 373.45C398.316 373.637 398.073 373.897 397.893 374.23C397.713 374.557 397.623 374.927 397.623 375.34C397.623 375.753 397.713 376.127 397.893 376.46C398.08 376.793 398.326 377.057 398.633 377.25C398.94 377.437 399.286 377.53 399.673 377.53ZM406.605 378L404.785 372.69H405.455L407.045 377.5H406.785L408.225 372.69H408.835L410.275 377.5H410.015L411.615 372.69H412.285L410.455 378H409.845L408.455 373.36H408.605L407.215 378H406.605ZM413.277 378V372.69H413.877V378H413.277ZM413.277 371.65V370.55H413.877V371.65H413.277ZM415.523 378V372.69H416.123V373.76L415.973 373.72C416.093 373.367 416.307 373.087 416.613 372.88C416.927 372.673 417.29 372.57 417.703 372.57C418.07 372.57 418.403 372.653 418.703 372.82C419.003 372.987 419.243 373.22 419.423 373.52C419.603 373.813 419.693 374.15 419.693 374.53V378H419.093V374.7C419.093 374.38 419.03 374.107 418.903 373.88C418.777 373.647 418.6 373.47 418.373 373.35C418.153 373.223 417.9 373.16 417.613 373.16C417.313 373.16 417.05 373.23 416.823 373.37C416.597 373.51 416.423 373.703 416.303 373.95C416.183 374.197 416.123 374.48 416.123 374.8V378H415.523ZM423.636 378.12C423.143 378.12 422.696 378 422.296 377.76C421.903 377.513 421.593 377.18 421.366 376.76C421.139 376.34 421.026 375.867 421.026 375.34C421.026 374.813 421.139 374.34 421.366 373.92C421.593 373.5 421.903 373.17 422.296 372.93C422.696 372.69 423.143 372.57 423.636 372.57C424.123 372.57 424.556 372.687 424.936 372.92C425.316 373.147 425.603 373.453 425.796 373.84L425.696 374.03V370.43H426.296V378H425.696V376.65L425.796 376.79C425.609 377.203 425.323 377.53 424.936 377.77C424.556 378.003 424.123 378.12 423.636 378.12ZM423.656 377.52C424.043 377.52 424.386 377.427 424.686 377.24C424.993 377.047 425.236 376.787 425.416 376.46C425.596 376.127 425.686 375.753 425.686 375.34C425.686 374.927 425.596 374.557 425.416 374.23C425.236 373.903 424.993 373.647 424.686 373.46C424.386 373.267 424.043 373.17 423.656 373.17C423.276 373.17 422.936 373.267 422.636 373.46C422.336 373.647 422.099 373.903 421.926 374.23C421.753 374.557 421.666 374.927 421.666 375.34C421.666 375.753 421.753 376.127 421.926 376.46C422.099 376.787 422.336 377.047 422.636 377.24C422.936 377.427 423.276 377.52 423.656 377.52ZM430.425 378.12C429.918 378.12 429.462 378 429.055 377.76C428.648 377.52 428.325 377.19 428.085 376.77C427.852 376.343 427.735 375.867 427.735 375.34C427.735 374.813 427.852 374.34 428.085 373.92C428.325 373.5 428.645 373.17 429.045 372.93C429.452 372.69 429.912 372.57 430.425 372.57C430.932 372.57 431.388 372.69 431.795 372.93C432.202 373.17 432.522 373.5 432.755 373.92C432.988 374.333 433.105 374.807 433.105 375.34C433.105 375.873 432.985 376.35 432.745 376.77C432.505 377.19 432.182 377.52 431.775 377.76C431.375 378 430.925 378.12 430.425 378.12ZM430.425 377.53C430.805 377.53 431.148 377.437 431.455 377.25C431.768 377.057 432.015 376.793 432.195 376.46C432.375 376.127 432.465 375.753 432.465 375.34C432.465 374.927 432.375 374.557 432.195 374.23C432.015 373.903 431.772 373.643 431.465 373.45C431.158 373.257 430.812 373.16 430.425 373.16C430.038 373.16 429.688 373.257 429.375 373.45C429.068 373.637 428.825 373.897 428.645 374.23C428.465 374.557 428.375 374.927 428.375 375.34C428.375 375.753 428.465 376.127 428.645 376.46C428.832 376.793 429.078 377.057 429.385 377.25C429.692 377.437 430.038 377.53 430.425 377.53ZM435.609 378L433.789 372.69H434.459L436.049 377.5H435.789L437.229 372.69H437.839L439.279 377.5H439.019L440.619 372.69H441.289L439.459 378H438.849L437.459 373.36H437.609L436.219 378H435.609ZM444.071 378.12C443.578 378.12 443.145 377.997 442.771 377.75C442.398 377.503 442.125 377.167 441.951 376.74L442.471 376.5C442.638 376.827 442.861 377.087 443.141 377.28C443.421 377.467 443.731 377.56 444.071 377.56C444.418 377.56 444.708 377.477 444.941 377.31C445.181 377.137 445.301 376.91 445.301 376.63C445.301 376.457 445.255 376.31 445.161 376.19C445.075 376.07 444.961 375.973 444.821 375.9C444.681 375.82 444.531 375.76 444.371 375.72L443.551 375.49C443.091 375.363 442.751 375.177 442.531 374.93C442.318 374.683 442.211 374.393 442.211 374.06C442.211 373.76 442.288 373.5 442.441 373.28C442.595 373.053 442.801 372.88 443.061 372.76C443.321 372.633 443.608 372.57 443.921 372.57C444.361 372.57 444.761 372.683 445.121 372.91C445.481 373.137 445.735 373.443 445.881 373.83L445.341 374.08C445.201 373.78 445.005 373.547 444.751 373.38C444.498 373.207 444.218 373.12 443.911 373.12C443.591 373.12 443.331 373.207 443.131 373.38C442.931 373.547 442.831 373.76 442.831 374.02C442.831 374.187 442.871 374.327 442.951 374.44C443.031 374.547 443.135 374.637 443.261 374.71C443.395 374.777 443.531 374.83 443.671 374.87L444.561 375.13C444.995 375.25 445.328 375.44 445.561 375.7C445.801 375.96 445.921 376.267 445.921 376.62C445.921 376.907 445.841 377.163 445.681 377.39C445.521 377.617 445.301 377.797 445.021 377.93C444.741 378.057 444.425 378.12 444.071 378.12ZM449.01 378V372.69H449.61V378H449.01ZM449.01 371.65V370.55H449.61V371.65H449.01ZM451.256 378V372.69H451.856V373.76L451.706 373.72C451.826 373.367 452.039 373.087 452.346 372.88C452.659 372.673 453.022 372.57 453.436 372.57C453.802 372.57 454.136 372.653 454.436 372.82C454.736 372.987 454.976 373.22 455.156 373.52C455.336 373.813 455.426 374.15 455.426 374.53V378H454.826V374.7C454.826 374.38 454.762 374.107 454.636 373.88C454.509 373.647 454.332 373.47 454.106 373.35C453.886 373.223 453.632 373.16 453.346 373.16C453.046 373.16 452.782 373.23 452.556 373.37C452.329 373.51 452.156 373.703 452.036 373.95C451.916 374.197 451.856 374.48 451.856 374.8V378H451.256ZM458.739 378V370.55H463.439V371.15H459.389V373.96H463.239V374.56H459.389V377.4H463.439V378H458.739ZM467.182 378.12C466.675 378.12 466.222 378 465.822 377.76C465.428 377.513 465.115 377.18 464.882 376.76C464.655 376.34 464.542 375.867 464.542 375.34C464.542 374.807 464.655 374.333 464.882 373.92C465.115 373.5 465.428 373.17 465.822 372.93C466.222 372.69 466.675 372.57 467.182 372.57C467.515 372.57 467.822 372.627 468.102 372.74C468.388 372.853 468.642 373.007 468.862 373.2C469.082 373.393 469.248 373.617 469.362 373.87L468.832 374.15C468.672 373.843 468.448 373.6 468.162 373.42C467.875 373.24 467.548 373.15 467.182 373.15C466.802 373.15 466.458 373.243 466.152 373.43C465.852 373.617 465.612 373.877 465.432 374.21C465.252 374.537 465.162 374.913 465.162 375.34C465.162 375.767 465.252 376.147 465.432 376.48C465.612 376.807 465.852 377.063 466.152 377.25C466.458 377.437 466.802 377.53 467.182 377.53C467.548 377.53 467.875 377.44 468.162 377.26C468.448 377.08 468.672 376.833 468.832 376.52L469.362 376.81C469.248 377.057 469.082 377.28 468.862 377.48C468.642 377.673 468.388 377.83 468.102 377.95C467.822 378.063 467.515 378.12 467.182 378.12ZM473.267 378.12C472.76 378.12 472.303 378 471.897 377.76C471.49 377.52 471.167 377.19 470.927 376.77C470.693 376.343 470.577 375.867 470.577 375.34C470.577 374.813 470.693 374.34 470.927 373.92C471.167 373.5 471.487 373.17 471.887 372.93C472.293 372.69 472.753 372.57 473.267 372.57C473.773 372.57 474.23 372.69 474.637 372.93C475.043 373.17 475.363 373.5 475.597 373.92C475.83 374.333 475.947 374.807 475.947 375.34C475.947 375.873 475.827 376.35 475.587 376.77C475.347 377.19 475.023 377.52 474.617 377.76C474.217 378 473.767 378.12 473.267 378.12ZM473.267 377.53C473.647 377.53 473.99 377.437 474.297 377.25C474.61 377.057 474.857 376.793 475.037 376.46C475.217 376.127 475.307 375.753 475.307 375.34C475.307 374.927 475.217 374.557 475.037 374.23C474.857 373.903 474.613 373.643 474.307 373.45C474 373.257 473.653 373.16 473.267 373.16C472.88 373.16 472.53 373.257 472.217 373.45C471.91 373.637 471.667 373.897 471.487 374.23C471.307 374.557 471.217 374.927 471.217 375.34C471.217 375.753 471.307 376.127 471.487 376.46C471.673 376.793 471.92 377.057 472.227 377.25C472.533 377.437 472.88 377.53 473.267 377.53ZM477.389 378V372.69H477.989V373.76L477.839 373.72C477.959 373.367 478.172 373.087 478.479 372.88C478.792 372.673 479.155 372.57 479.569 372.57C479.935 372.57 480.269 372.653 480.569 372.82C480.869 372.987 481.109 373.22 481.289 373.52C481.469 373.813 481.559 374.15 481.559 374.53V378H480.959V374.7C480.959 374.38 480.895 374.107 480.769 373.88C480.642 373.647 480.465 373.47 480.239 373.35C480.019 373.223 479.765 373.16 479.479 373.16C479.179 373.16 478.915 373.23 478.689 373.37C478.462 373.51 478.289 373.703 478.169 373.95C478.049 374.197 477.989 374.48 477.989 374.8V378H477.389ZM485.581 378.12C485.075 378.12 484.618 378 484.211 377.76C483.805 377.52 483.481 377.19 483.241 376.77C483.008 376.343 482.891 375.867 482.891 375.34C482.891 374.813 483.008 374.34 483.241 373.92C483.481 373.5 483.801 373.17 484.201 372.93C484.608 372.69 485.068 372.57 485.581 372.57C486.088 372.57 486.545 372.69 486.951 372.93C487.358 373.17 487.678 373.5 487.911 373.92C488.145 374.333 488.261 374.807 488.261 375.34C488.261 375.873 488.141 376.35 487.901 376.77C487.661 377.19 487.338 377.52 486.931 377.76C486.531 378 486.081 378.12 485.581 378.12ZM485.581 377.53C485.961 377.53 486.305 377.437 486.611 377.25C486.925 377.057 487.171 376.793 487.351 376.46C487.531 376.127 487.621 375.753 487.621 375.34C487.621 374.927 487.531 374.557 487.351 374.23C487.171 373.903 486.928 373.643 486.621 373.45C486.315 373.257 485.968 373.16 485.581 373.16C485.195 373.16 484.845 373.257 484.531 373.45C484.225 373.637 483.981 373.897 483.801 374.23C483.621 374.557 483.531 374.927 483.531 375.34C483.531 375.753 483.621 376.127 483.801 376.46C483.988 376.793 484.235 377.057 484.541 377.25C484.848 377.437 485.195 377.53 485.581 377.53ZM489.703 378V372.69H490.303V373.76L490.193 373.61C490.326 373.29 490.54 373.037 490.833 372.85C491.133 372.663 491.466 372.57 491.833 372.57C492.246 372.57 492.623 372.69 492.963 372.93C493.303 373.163 493.54 373.477 493.673 373.87L493.483 373.88C493.596 373.473 493.82 373.153 494.153 372.92C494.493 372.687 494.87 372.57 495.283 372.57C495.636 372.57 495.96 372.653 496.253 372.82C496.553 372.987 496.793 373.22 496.973 373.52C497.16 373.813 497.253 374.15 497.253 374.53V378H496.653V374.7C496.653 374.38 496.586 374.107 496.453 373.88C496.326 373.647 496.156 373.47 495.943 373.35C495.73 373.223 495.49 373.16 495.223 373.16C494.936 373.16 494.683 373.23 494.463 373.37C494.25 373.51 494.08 373.703 493.953 373.95C493.833 374.197 493.773 374.48 493.773 374.8V378H493.173V374.7C493.173 374.38 493.11 374.107 492.983 373.88C492.856 373.647 492.683 373.47 492.463 373.35C492.25 373.223 492.01 373.16 491.743 373.16C491.456 373.16 491.203 373.23 490.983 373.37C490.77 373.51 490.603 373.703 490.483 373.95C490.363 374.197 490.303 374.48 490.303 374.8V378H489.703ZM498.717 380.2C498.624 380.2 498.521 380.19 498.407 380.17C498.301 380.157 498.197 380.133 498.097 380.1V379.54C498.177 379.56 498.267 379.577 498.367 379.59C498.474 379.603 498.571 379.61 498.657 379.61C498.984 379.603 499.241 379.523 499.427 379.37C499.614 379.217 499.784 378.963 499.937 378.61L500.317 377.72V378.28L498.067 372.69H498.727L500.657 377.51H500.417L502.357 372.69H503.027L500.547 378.74C500.454 378.96 500.331 379.183 500.177 379.41C500.024 379.637 499.827 379.823 499.587 379.97C499.354 380.123 499.064 380.2 498.717 380.2ZM508.1 378.12C507.593 378.12 507.14 378 506.74 377.76C506.346 377.513 506.033 377.18 505.8 376.76C505.573 376.34 505.46 375.867 505.46 375.34C505.46 374.807 505.573 374.333 505.8 373.92C506.033 373.5 506.346 373.17 506.74 372.93C507.14 372.69 507.593 372.57 508.1 372.57C508.433 372.57 508.74 372.627 509.02 372.74C509.306 372.853 509.56 373.007 509.78 373.2C510 373.393 510.166 373.617 510.28 373.87L509.75 374.15C509.59 373.843 509.366 373.6 509.08 373.42C508.793 373.24 508.466 373.15 508.1 373.15C507.72 373.15 507.376 373.243 507.07 373.43C506.77 373.617 506.53 373.877 506.35 374.21C506.17 374.537 506.08 374.913 506.08 375.34C506.08 375.767 506.17 376.147 506.35 376.48C506.53 376.807 506.77 377.063 507.07 377.25C507.376 377.437 507.72 377.53 508.1 377.53C508.466 377.53 508.793 377.44 509.08 377.26C509.366 377.08 509.59 376.833 509.75 376.52L510.28 376.81C510.166 377.057 510 377.28 509.78 377.48C509.56 377.673 509.306 377.83 509.02 377.95C508.74 378.063 508.433 378.12 508.1 378.12ZM511.715 378V370.43H512.315V378H511.715ZM515.481 378.12C515.148 378.12 514.851 378.057 514.591 377.93C514.331 377.803 514.124 377.627 513.971 377.4C513.818 377.173 513.741 376.913 513.741 376.62C513.741 376.36 513.798 376.117 513.911 375.89C514.024 375.663 514.208 375.47 514.461 375.31C514.714 375.143 515.044 375.027 515.451 374.96L517.601 374.6V375.16L515.611 375.49C515.158 375.563 514.838 375.7 514.651 375.9C514.464 376.1 514.371 376.333 514.371 376.6C514.371 376.887 514.478 377.12 514.691 377.3C514.911 377.48 515.188 377.57 515.521 377.57C515.908 377.57 516.244 377.483 516.531 377.31C516.818 377.13 517.041 376.897 517.201 376.61C517.361 376.317 517.441 375.997 517.441 375.65V374.33C517.441 373.977 517.314 373.69 517.061 373.47C516.808 373.25 516.478 373.14 516.071 373.14C515.738 373.14 515.438 373.223 515.171 373.39C514.904 373.557 514.701 373.773 514.561 374.04L514.021 373.75C514.121 373.537 514.274 373.34 514.481 373.16C514.688 372.98 514.928 372.837 515.201 372.73C515.474 372.623 515.764 372.57 516.071 372.57C516.458 372.57 516.798 372.647 517.091 372.8C517.391 372.947 517.624 373.153 517.791 373.42C517.958 373.68 518.041 373.983 518.041 374.33V378H517.441V376.89L517.511 376.94C517.424 377.153 517.281 377.35 517.081 377.53C516.881 377.703 516.644 377.847 516.371 377.96C516.104 378.067 515.808 378.12 515.481 378.12ZM521.483 378.12C520.99 378.12 520.557 377.997 520.183 377.75C519.81 377.503 519.537 377.167 519.363 376.74L519.883 376.5C520.05 376.827 520.273 377.087 520.553 377.28C520.833 377.467 521.143 377.56 521.483 377.56C521.83 377.56 522.12 377.477 522.353 377.31C522.593 377.137 522.713 376.91 522.713 376.63C522.713 376.457 522.667 376.31 522.573 376.19C522.487 376.07 522.373 375.973 522.233 375.9C522.093 375.82 521.943 375.76 521.783 375.72L520.963 375.49C520.503 375.363 520.163 375.177 519.943 374.93C519.73 374.683 519.623 374.393 519.623 374.06C519.623 373.76 519.7 373.5 519.853 373.28C520.007 373.053 520.213 372.88 520.473 372.76C520.733 372.633 521.02 372.57 521.333 372.57C521.773 372.57 522.173 372.683 522.533 372.91C522.893 373.137 523.147 373.443 523.293 373.83L522.753 374.08C522.613 373.78 522.417 373.547 522.163 373.38C521.91 373.207 521.63 373.12 521.323 373.12C521.003 373.12 520.743 373.207 520.543 373.38C520.343 373.547 520.243 373.76 520.243 374.02C520.243 374.187 520.283 374.327 520.363 374.44C520.443 374.547 520.547 374.637 520.673 374.71C520.807 374.777 520.943 374.83 521.083 374.87L521.973 375.13C522.407 375.25 522.74 375.44 522.973 375.7C523.213 375.96 523.333 376.267 523.333 376.62C523.333 376.907 523.253 377.163 523.093 377.39C522.933 377.617 522.713 377.797 522.433 377.93C522.153 378.057 521.837 378.12 521.483 378.12ZM526.561 378.12C526.068 378.12 525.635 377.997 525.261 377.75C524.888 377.503 524.615 377.167 524.441 376.74L524.961 376.5C525.128 376.827 525.351 377.087 525.631 377.28C525.911 377.467 526.221 377.56 526.561 377.56C526.908 377.56 527.198 377.477 527.431 377.31C527.671 377.137 527.791 376.91 527.791 376.63C527.791 376.457 527.745 376.31 527.651 376.19C527.565 376.07 527.451 375.973 527.311 375.9C527.171 375.82 527.021 375.76 526.861 375.72L526.041 375.49C525.581 375.363 525.241 375.177 525.021 374.93C524.808 374.683 524.701 374.393 524.701 374.06C524.701 373.76 524.778 373.5 524.931 373.28C525.085 373.053 525.291 372.88 525.551 372.76C525.811 372.633 526.098 372.57 526.411 372.57C526.851 372.57 527.251 372.683 527.611 372.91C527.971 373.137 528.225 373.443 528.371 373.83L527.831 374.08C527.691 373.78 527.495 373.547 527.241 373.38C526.988 373.207 526.708 373.12 526.401 373.12C526.081 373.12 525.821 373.207 525.621 373.38C525.421 373.547 525.321 373.76 525.321 374.02C525.321 374.187 525.361 374.327 525.441 374.44C525.521 374.547 525.625 374.637 525.751 374.71C525.885 374.777 526.021 374.83 526.161 374.87L527.051 375.13C527.485 375.25 527.818 375.44 528.051 375.7C528.291 375.96 528.411 376.267 528.411 376.62C528.411 376.907 528.331 377.163 528.171 377.39C528.011 377.617 527.791 377.797 527.511 377.93C527.231 378.057 526.915 378.12 526.561 378.12Z" fill="#060606"/>
</svg>
