<svg width="833" height="395" viewBox="0 0 833 395" fill="none" xmlns="http://www.w3.org/2000/svg">
<path opacity="0.6" d="M236.75 0.5H779.472C808.758 0.5 832.498 24.2404 832.498 53.5256V341.474C832.498 370.76 808.758 394.5 779.472 394.5H236.75C159.869 394.5 88.9191 353.184 50.9751 286.319L15.4237 223.67C6.21294 207.439 6.21293 187.561 15.4237 171.33L50.9751 108.681C88.9191 41.8157 159.869 0.5 236.75 0.5Z" stroke="black"/>
<path d="M687 8.50004L234 8.5" stroke="#BEBEBE"/>
<path opacity="0.6" d="M245.726 385.5C169.407 385.5 98.886 344.781 60.7319 278.683L28.8831 223.509C19.414 207.105 19.414 186.895 28.8831 170.491L60.7319 115.317C98.886 49.2191 169.407 8.5 245.726 8.5H770.478C799.764 8.5 823.504 32.2404 823.504 61.5256V332.474C823.504 361.76 799.764 385.5 770.478 385.5H245.726Z" stroke="black"/>
<g opacity="0.6">
<path d="M687 33V9.00002L233 9V33H687Z" fill="black" fill-opacity="0.1"/>
<path d="M687 33H687.5V33.5H687V33ZM233 33V33.5H232.5V33H233ZM686.5 33V9.00002H687.5V33H686.5ZM233.5 9V33H232.5V9H233.5ZM233 32.5H687V33.5H233V32.5Z" fill="#A5A5A5"/>
</g>
<path opacity="0.8" d="M419.878 24.15C419.339 24.15 418.83 24.05 418.353 23.85C417.88 23.6444 417.464 23.3639 417.103 23.0083C416.747 22.6528 416.466 22.2389 416.261 21.7667C416.061 21.2944 415.961 20.7889 415.961 20.25C415.961 19.7111 416.061 19.2056 416.261 18.7333C416.466 18.2611 416.747 17.8472 417.103 17.4917C417.464 17.1361 417.88 16.8583 418.353 16.6583C418.83 16.4528 419.339 16.35 419.878 16.35C420.422 16.35 420.93 16.4528 421.403 16.6583C421.875 16.8583 422.289 17.1361 422.644 17.4917C423.005 17.8472 423.286 18.2611 423.486 18.7333C423.691 19.2056 423.794 19.7111 423.794 20.25C423.794 20.7889 423.691 21.2944 423.486 21.7667C423.286 22.2389 423.005 22.6528 422.644 23.0083C422.289 23.3639 421.875 23.6444 421.403 23.85C420.93 24.05 420.422 24.15 419.878 24.15ZM419.878 23.25C420.428 23.25 420.925 23.1167 421.369 22.85C421.814 22.5778 422.164 22.2139 422.419 21.7583C422.68 21.3028 422.811 20.8 422.811 20.25C422.811 19.6944 422.68 19.1917 422.419 18.7417C422.164 18.2861 421.814 17.925 421.369 17.6583C420.925 17.3861 420.428 17.25 419.878 17.25C419.328 17.25 418.83 17.3861 418.386 17.6583C417.947 17.925 417.597 18.2861 417.336 18.7417C417.075 19.1917 416.944 19.6944 416.944 20.25C416.944 20.8 417.075 21.3028 417.336 21.7583C417.597 22.2139 417.947 22.5778 418.386 22.85C418.83 23.1167 419.328 23.25 419.878 23.25ZM425.097 26.5V19H425.93V19.6583C426.158 19.4306 426.422 19.2528 426.722 19.125C427.022 18.9972 427.344 18.9333 427.688 18.9333C428.15 18.9333 428.566 19.05 428.938 19.2833C429.316 19.5111 429.616 19.8194 429.838 20.2083C430.066 20.5972 430.18 21.0278 430.18 21.5C430.18 21.9722 430.066 22.4028 429.838 22.7917C429.616 23.1806 429.316 23.4917 428.938 23.725C428.566 23.9528 428.15 24.0667 427.688 24.0667C427.361 24.0667 427.052 24.0083 426.763 23.8917C426.475 23.775 426.219 23.6139 425.997 23.4083V26.5H425.097ZM427.572 23.25C427.888 23.25 428.175 23.1722 428.43 23.0167C428.691 22.8556 428.897 22.6444 429.047 22.3833C429.202 22.1167 429.28 21.8222 429.28 21.5C429.28 21.1778 429.202 20.8861 429.047 20.625C428.897 20.3583 428.691 20.1472 428.43 19.9917C428.175 19.8306 427.888 19.75 427.572 19.75C427.255 19.75 426.966 19.8306 426.705 19.9917C426.45 20.1472 426.244 20.3583 426.088 20.625C425.938 20.8861 425.863 21.1778 425.863 21.5C425.863 21.8222 425.938 22.1167 426.088 22.3833C426.244 22.6444 426.45 22.8556 426.705 23.0167C426.966 23.1722 427.255 23.25 427.572 23.25ZM433.808 24.1C433.286 24.1 432.817 23.9833 432.4 23.75C431.989 23.5167 431.664 23.2 431.425 22.8C431.192 22.3944 431.075 21.9444 431.075 21.45C431.075 20.9778 431.189 20.55 431.417 20.1667C431.644 19.7778 431.95 19.4694 432.333 19.2417C432.722 19.0139 433.15 18.9 433.617 18.9C434.078 18.9 434.5 19.0111 434.883 19.2333C435.267 19.45 435.572 19.7444 435.8 20.1167C436.028 20.4889 436.142 20.9111 436.142 21.3833V21.75H432.875C432.731 21.75 432.583 21.7444 432.433 21.7333C432.283 21.7222 432.136 21.7056 431.992 21.6833C432.053 22.1278 432.253 22.5 432.592 22.8C432.936 23.1 433.344 23.25 433.817 23.25C434.133 23.25 434.428 23.1778 434.7 23.0333C434.972 22.8889 435.192 22.6972 435.358 22.4583L435.608 23.4833C435.369 23.6778 435.094 23.8306 434.783 23.9417C434.478 24.0472 434.153 24.1 433.808 24.1ZM431.967 21.075C432.267 21.025 432.569 21 432.875 21H434.533C434.656 21 434.775 21.0056 434.892 21.0167C435.014 21.0222 435.136 21.0306 435.258 21.0417C435.181 20.6528 434.986 20.3333 434.675 20.0833C434.364 19.8278 434.011 19.7 433.617 19.7C433.211 19.7 432.856 19.8361 432.55 20.1083C432.244 20.375 432.05 20.6972 431.967 21.075ZM437.343 24V19H438.176V19.8083C438.36 19.5139 438.596 19.2889 438.885 19.1333C439.179 18.9778 439.496 18.9 439.835 18.9C440.19 18.9 440.518 18.9889 440.818 19.1667C441.123 19.3389 441.371 19.5917 441.56 19.925C441.748 20.2528 441.843 20.6528 441.843 21.125V24H440.943V21.25C440.943 20.8556 440.823 20.5083 440.585 20.2083C440.351 19.9028 440.021 19.75 439.593 19.75C439.243 19.75 438.929 19.8778 438.651 20.1333C438.379 20.3833 438.243 20.7472 438.243 21.225V24H437.343ZM447.981 24.0667C447.525 24.0667 447.108 23.9528 446.731 23.725C446.353 23.4917 446.05 23.1806 445.822 22.7917C445.6 22.4028 445.489 21.9722 445.489 21.5C445.489 21.0278 445.6 20.5972 445.822 20.2083C446.05 19.8194 446.353 19.5111 446.731 19.2833C447.108 19.05 447.525 18.9333 447.981 18.9333C448.308 18.9333 448.617 18.9917 448.906 19.1083C449.195 19.225 449.45 19.3861 449.672 19.5917V16H450.572V24H449.739V23.3417C449.517 23.5639 449.253 23.7417 448.947 23.875C448.647 24.0028 448.325 24.0667 447.981 24.0667ZM448.097 23.25C448.414 23.25 448.7 23.1722 448.956 23.0167C449.217 22.8556 449.422 22.6444 449.572 22.3833C449.728 22.1167 449.806 21.8222 449.806 21.5C449.806 21.1778 449.728 20.8861 449.572 20.625C449.422 20.3583 449.217 20.1472 448.956 19.9917C448.7 19.8306 448.414 19.75 448.097 19.75C447.781 19.75 447.492 19.8306 447.231 19.9917C446.975 20.1472 446.77 20.3583 446.614 20.625C446.464 20.8861 446.389 21.1778 446.389 21.5C446.389 21.8222 446.464 22.1167 446.614 22.3833C446.77 22.6444 446.975 22.8556 447.231 23.0167C447.492 23.1722 447.781 23.25 448.097 23.25ZM454.55 24.1C454.028 24.1 453.559 23.9833 453.142 23.75C452.731 23.5167 452.406 23.2 452.167 22.8C451.934 22.3944 451.817 21.9444 451.817 21.45C451.817 20.9778 451.931 20.55 452.159 20.1667C452.387 19.7778 452.692 19.4694 453.075 19.2417C453.464 19.0139 453.892 18.9 454.359 18.9C454.82 18.9 455.242 19.0111 455.625 19.2333C456.009 19.45 456.314 19.7444 456.542 20.1167C456.77 20.4889 456.884 20.9111 456.884 21.3833V21.75H453.617C453.473 21.75 453.325 21.7444 453.175 21.7333C453.025 21.7222 452.878 21.7056 452.734 21.6833C452.795 22.1278 452.995 22.5 453.334 22.8C453.678 23.1 454.087 23.25 454.559 23.25C454.875 23.25 455.17 23.1778 455.442 23.0333C455.714 22.8889 455.934 22.6972 456.1 22.4583L456.35 23.4833C456.112 23.6778 455.837 23.8306 455.525 23.9417C455.22 24.0472 454.895 24.1 454.55 24.1ZM452.709 21.075C453.009 21.025 453.312 21 453.617 21H455.275C455.398 21 455.517 21.0056 455.634 21.0167C455.756 21.0222 455.878 21.0306 456 21.0417C455.923 20.6528 455.728 20.3333 455.417 20.0833C455.106 19.8278 454.753 19.7 454.359 19.7C453.953 19.7 453.598 19.8361 453.292 20.1083C452.987 20.375 452.792 20.6972 452.709 21.075ZM460.385 24.1C459.896 24.1 459.452 23.9833 459.052 23.75C458.652 23.5167 458.332 23.2028 458.093 22.8083C457.855 22.4139 457.735 21.9778 457.735 21.5C457.735 21.0222 457.855 20.5861 458.093 20.1917C458.332 19.7972 458.652 19.4833 459.052 19.25C459.452 19.0167 459.896 18.9 460.385 18.9C460.746 18.9 461.085 18.9639 461.402 19.0917C461.718 19.2194 461.996 19.3889 462.235 19.6L461.96 20.7333C461.821 20.4556 461.61 20.2222 461.327 20.0333C461.049 19.8444 460.732 19.75 460.377 19.75C460.055 19.75 459.76 19.8306 459.493 19.9917C459.232 20.1472 459.024 20.3583 458.868 20.625C458.713 20.8861 458.635 21.1778 458.635 21.5C458.635 21.8167 458.713 22.1083 458.868 22.375C459.024 22.6417 459.232 22.8556 459.493 23.0167C459.76 23.1722 460.055 23.25 460.377 23.25C460.732 23.25 461.049 23.1583 461.327 22.975C461.61 22.7917 461.821 22.5556 461.96 22.2667L462.235 23.4C461.996 23.6111 461.718 23.7806 461.402 23.9083C461.085 24.0361 460.746 24.1 460.385 24.1ZM466.593 24L464.335 21.25L466.193 19H467.235L465.41 21.1833L467.735 24H466.593ZM463.335 24V16H464.235V24H463.335ZM473.223 24.0667C472.767 24.0667 472.351 23.9528 471.973 23.725C471.595 23.4917 471.292 23.1806 471.065 22.7917C470.842 22.4028 470.731 21.9722 470.731 21.5C470.731 21.0278 470.842 20.5972 471.065 20.2083C471.292 19.8194 471.595 19.5111 471.973 19.2833C472.351 19.05 472.767 18.9333 473.223 18.9333C473.567 18.9333 473.89 18.9972 474.19 19.125C474.495 19.2528 474.759 19.4306 474.981 19.6583V19H475.815V24H474.981V23.3417C474.759 23.5639 474.495 23.7417 474.19 23.875C473.89 24.0028 473.567 24.0667 473.223 24.0667ZM473.34 23.25C473.656 23.25 473.942 23.1722 474.198 23.0167C474.459 22.8556 474.665 22.6444 474.815 22.3833C474.97 22.1167 475.048 21.8222 475.048 21.5C475.048 21.1778 474.97 20.8861 474.815 20.625C474.665 20.3583 474.459 20.1472 474.198 19.9917C473.942 19.8306 473.656 19.75 473.34 19.75C473.023 19.75 472.734 19.8306 472.473 19.9917C472.217 20.1472 472.012 20.3583 471.856 20.625C471.706 20.8861 471.631 21.1778 471.631 21.5C471.631 21.8222 471.706 22.1167 471.856 22.3833C472.012 22.6444 472.217 22.8556 472.473 23.0167C472.734 23.1722 473.023 23.25 473.34 23.25ZM479.709 24.1C479.22 24.1 478.776 23.9833 478.376 23.75C477.976 23.5167 477.657 23.2028 477.418 22.8083C477.179 22.4139 477.059 21.9778 477.059 21.5C477.059 21.0222 477.179 20.5861 477.418 20.1917C477.657 19.7972 477.976 19.4833 478.376 19.25C478.776 19.0167 479.22 18.9 479.709 18.9C480.07 18.9 480.409 18.9639 480.726 19.0917C481.043 19.2194 481.32 19.3889 481.559 19.6L481.284 20.7333C481.145 20.4556 480.934 20.2222 480.651 20.0333C480.373 19.8444 480.057 19.75 479.701 19.75C479.379 19.75 479.084 19.8306 478.818 19.9917C478.557 20.1472 478.348 20.3583 478.193 20.625C478.037 20.8861 477.959 21.1778 477.959 21.5C477.959 21.8167 478.037 22.1083 478.193 22.375C478.348 22.6417 478.557 22.8556 478.818 23.0167C479.084 23.1722 479.379 23.25 479.701 23.25C480.057 23.25 480.373 23.1583 480.651 22.975C480.934 22.7917 481.145 22.5556 481.284 22.2667L481.559 23.4C481.32 23.6111 481.043 23.7806 480.726 23.9083C480.409 24.0361 480.07 24.1 479.709 24.1ZM484.959 24.1C484.47 24.1 484.026 23.9833 483.626 23.75C483.226 23.5167 482.907 23.2028 482.668 22.8083C482.429 22.4139 482.309 21.9778 482.309 21.5C482.309 21.0222 482.429 20.5861 482.668 20.1917C482.907 19.7972 483.226 19.4833 483.626 19.25C484.026 19.0167 484.47 18.9 484.959 18.9C485.32 18.9 485.659 18.9639 485.976 19.0917C486.293 19.2194 486.57 19.3889 486.809 19.6L486.534 20.7333C486.395 20.4556 486.184 20.2222 485.901 20.0333C485.623 19.8444 485.307 19.75 484.951 19.75C484.629 19.75 484.334 19.8306 484.068 19.9917C483.807 20.1472 483.598 20.3583 483.443 20.625C483.287 20.8861 483.209 21.1778 483.209 21.5C483.209 21.8167 483.287 22.1083 483.443 22.375C483.598 22.6417 483.807 22.8556 484.068 23.0167C484.334 23.1722 484.629 23.25 484.951 23.25C485.307 23.25 485.623 23.1583 485.901 22.975C486.184 22.7917 486.395 22.5556 486.534 22.2667L486.809 23.4C486.57 23.6111 486.293 23.7806 485.976 23.9083C485.659 24.0361 485.32 24.1 484.959 24.1ZM490.293 24.1C489.77 24.1 489.301 23.9833 488.884 23.75C488.473 23.5167 488.148 23.2 487.909 22.8C487.676 22.3944 487.559 21.9444 487.559 21.45C487.559 20.9778 487.673 20.55 487.901 20.1667C488.129 19.7778 488.434 19.4694 488.818 19.2417C489.207 19.0139 489.634 18.9 490.101 18.9C490.562 18.9 490.984 19.0111 491.368 19.2333C491.751 19.45 492.057 19.7444 492.284 20.1167C492.512 20.4889 492.626 20.9111 492.626 21.3833V21.75H489.359C489.215 21.75 489.068 21.7444 488.918 21.7333C488.768 21.7222 488.62 21.7056 488.476 21.6833C488.537 22.1278 488.737 22.5 489.076 22.8C489.42 23.1 489.829 23.25 490.301 23.25C490.618 23.25 490.912 23.1778 491.184 23.0333C491.457 22.8889 491.676 22.6972 491.843 22.4583L492.093 23.4833C491.854 23.6778 491.579 23.8306 491.268 23.9417C490.962 24.0472 490.637 24.1 490.293 24.1ZM488.451 21.075C488.751 21.025 489.054 21 489.359 21H491.018C491.14 21 491.259 21.0056 491.376 21.0167C491.498 21.0222 491.62 21.0306 491.743 21.0417C491.665 20.6528 491.47 20.3333 491.159 20.0833C490.848 19.8278 490.495 19.7 490.101 19.7C489.695 19.7 489.34 19.8361 489.034 20.1083C488.729 20.375 488.534 20.6972 488.451 21.075ZM495.119 24.1C494.863 24.1 494.588 24.0528 494.294 23.9583C494.005 23.8583 493.755 23.6944 493.544 23.4667L493.794 22.4833C493.95 22.7444 494.15 22.9528 494.394 23.1083C494.638 23.2583 494.9 23.3333 495.177 23.3333C495.444 23.3333 495.644 23.2694 495.777 23.1417C495.911 23.0083 495.977 22.8472 495.977 22.6583C495.977 22.4417 495.905 22.2833 495.761 22.1833C495.622 22.0833 495.497 22.0139 495.386 21.975L494.711 21.7167C494.588 21.6667 494.441 21.5944 494.269 21.5C494.097 21.4 493.947 21.2583 493.819 21.075C493.691 20.8917 493.627 20.6528 493.627 20.3583C493.627 20.0917 493.691 19.8472 493.819 19.625C493.947 19.4028 494.127 19.2278 494.361 19.1C494.594 18.9667 494.869 18.9 495.186 18.9C495.436 18.9 495.697 18.9444 495.969 19.0333C496.241 19.1222 496.472 19.2722 496.661 19.4833L496.411 20.4667C496.277 20.2222 496.097 20.0278 495.869 19.8833C495.641 19.7389 495.405 19.6667 495.161 19.6667C494.933 19.6667 494.752 19.7306 494.619 19.8583C494.491 19.9861 494.427 20.1333 494.427 20.3C494.427 20.4333 494.472 20.5528 494.561 20.6583C494.65 20.7639 494.783 20.85 494.961 20.9167L495.636 21.175C495.758 21.2194 495.908 21.2917 496.086 21.3917C496.269 21.4917 496.43 21.6361 496.569 21.825C496.708 22.0139 496.777 22.2694 496.777 22.5917C496.777 23.0417 496.619 23.4056 496.302 23.6833C495.991 23.9611 495.597 24.1 495.119 24.1ZM499.373 24.1C499.117 24.1 498.842 24.0528 498.548 23.9583C498.259 23.8583 498.009 23.6944 497.798 23.4667L498.048 22.4833C498.203 22.7444 498.403 22.9528 498.648 23.1083C498.892 23.2583 499.153 23.3333 499.431 23.3333C499.698 23.3333 499.898 23.2694 500.031 23.1417C500.165 23.0083 500.231 22.8472 500.231 22.6583C500.231 22.4417 500.159 22.2833 500.015 22.1833C499.876 22.0833 499.751 22.0139 499.64 21.975L498.965 21.7167C498.842 21.6667 498.695 21.5944 498.523 21.5C498.351 21.4 498.201 21.2583 498.073 21.075C497.945 20.8917 497.881 20.6528 497.881 20.3583C497.881 20.0917 497.945 19.8472 498.073 19.625C498.201 19.4028 498.381 19.2278 498.615 19.1C498.848 18.9667 499.123 18.9 499.44 18.9C499.69 18.9 499.951 18.9444 500.223 19.0333C500.495 19.1222 500.726 19.2722 500.915 19.4833L500.665 20.4667C500.531 20.2222 500.351 20.0278 500.123 19.8833C499.895 19.7389 499.659 19.6667 499.415 19.6667C499.187 19.6667 499.006 19.7306 498.873 19.8583C498.745 19.9861 498.681 20.1333 498.681 20.3C498.681 20.4333 498.726 20.5528 498.815 20.6583C498.903 20.7639 499.037 20.85 499.215 20.9167L499.89 21.175C500.012 21.2194 500.162 21.2917 500.34 21.3917C500.523 21.4917 500.684 21.6361 500.823 21.825C500.962 22.0139 501.031 22.2694 501.031 22.5917C501.031 23.0417 500.873 23.4056 500.556 23.6833C500.245 23.9611 499.851 24.1 499.373 24.1Z" fill="black"/>
<g opacity="0.6">
<path d="M687 57V33H233V37C233 48.0457 241.954 57 253 57H687Z" fill="#C1F6E1"/>
<path d="M687.5 57.5V33H686.5V56.5L687.5 57.5ZM232.5 33V37C232.5 48.3218 241.678 57.5 253 57.5V56.5C242.23 56.5 233.5 47.7695 233.5 37V33H232.5ZM232.5 37C232.5 48.3218 241.678 57.5 253 57.5H687.5L686.5 56.5H253C242.23 56.5 233.5 47.7695 233.5 37H232.5Z" fill="#A5A5A5"/>
</g>
<path opacity="0.8" d="M424.008 49.25L421.117 41.5H422.083L423.783 46C423.844 46.1556 423.894 46.3056 423.933 46.45C423.972 46.5889 424.014 46.7556 424.058 46.95C424.103 46.7556 424.144 46.5889 424.183 46.45C424.228 46.3056 424.278 46.1556 424.333 46L426.05 41.25L427.758 46C427.808 46.1389 427.855 46.2806 427.9 46.425C427.95 46.5639 427.994 46.7389 428.033 46.95C428.078 46.7389 428.122 46.5639 428.167 46.425C428.211 46.2806 428.261 46.1389 428.317 46L430.017 41.5H430.917L428.033 49.25L426.3 44.3833C426.25 44.2389 426.203 44.1 426.158 43.9667C426.114 43.8278 426.069 43.6528 426.025 43.4417C425.98 43.6528 425.936 43.8278 425.892 43.9667C425.847 44.1 425.8 44.2389 425.75 44.3833L424.008 49.25ZM431.813 49V44H432.713V49H431.813ZM432.263 43.1C432.096 43.1 431.954 43.0417 431.838 42.925C431.721 42.8083 431.663 42.6667 431.663 42.5C431.663 42.3278 431.721 42.1861 431.838 42.075C431.954 41.9583 432.096 41.9 432.263 41.9C432.435 41.9 432.577 41.9583 432.688 42.075C432.804 42.1861 432.863 42.3278 432.863 42.5C432.863 42.6667 432.804 42.8083 432.688 42.925C432.577 43.0417 432.435 43.1 432.263 43.1ZM434.309 49V44H435.142V44.8083C435.325 44.5139 435.562 44.2889 435.85 44.1333C436.145 43.9778 436.462 43.9 436.8 43.9C437.156 43.9 437.484 43.9889 437.784 44.1667C438.089 44.3389 438.337 44.5917 438.525 44.925C438.714 45.2528 438.809 45.6528 438.809 46.125V49H437.909V46.25C437.909 45.8556 437.789 45.5083 437.55 45.2083C437.317 44.9028 436.987 44.75 436.559 44.75C436.209 44.75 435.895 44.8778 435.617 45.1333C435.345 45.3833 435.209 45.7472 435.209 46.225V49H434.309ZM442.45 49.0667C441.995 49.0667 441.578 48.9528 441.2 48.725C440.823 48.4917 440.52 48.1806 440.292 47.7917C440.07 47.4028 439.959 46.9722 439.959 46.5C439.959 46.0278 440.07 45.5972 440.292 45.2083C440.52 44.8194 440.823 44.5111 441.2 44.2833C441.578 44.05 441.995 43.9333 442.45 43.9333C442.778 43.9333 443.087 43.9917 443.375 44.1083C443.664 44.225 443.92 44.3861 444.142 44.5917V41H445.042V49H444.209V48.3417C443.987 48.5639 443.723 48.7417 443.417 48.875C443.117 49.0028 442.795 49.0667 442.45 49.0667ZM442.567 48.25C442.884 48.25 443.17 48.1722 443.425 48.0167C443.687 47.8556 443.892 47.6444 444.042 47.3833C444.198 47.1167 444.275 46.8222 444.275 46.5C444.275 46.1778 444.198 45.8861 444.042 45.625C443.892 45.3583 443.687 45.1472 443.425 44.9917C443.17 44.8306 442.884 44.75 442.567 44.75C442.25 44.75 441.962 44.8306 441.7 44.9917C441.445 45.1472 441.239 45.3583 441.084 45.625C440.934 45.8861 440.859 46.1778 440.859 46.5C440.859 46.8222 440.934 47.1167 441.084 47.3833C441.239 47.6444 441.445 47.8556 441.7 48.0167C441.962 48.1722 442.25 48.25 442.567 48.25ZM448.92 49.1C448.437 49.1 447.995 48.9833 447.595 48.75C447.195 48.5167 446.876 48.2028 446.637 47.8083C446.404 47.4139 446.287 46.9778 446.287 46.5C446.287 46.0167 446.404 45.5806 446.637 45.1917C446.876 44.7972 447.195 44.4833 447.595 44.25C447.995 44.0167 448.437 43.9 448.92 43.9C449.409 43.9 449.851 44.0167 450.245 44.25C450.645 44.4833 450.962 44.7972 451.195 45.1917C451.434 45.5806 451.554 46.0167 451.554 46.5C451.554 46.9778 451.434 47.4139 451.195 47.8083C450.962 48.2028 450.645 48.5167 450.245 48.75C449.851 48.9833 449.409 49.1 448.92 49.1ZM448.92 48.25C449.242 48.25 449.534 48.1722 449.795 48.0167C450.056 47.8556 450.265 47.6444 450.42 47.3833C450.576 47.1167 450.654 46.8222 450.654 46.5C450.654 46.1778 450.576 45.8861 450.42 45.625C450.265 45.3583 450.056 45.1472 449.795 44.9917C449.534 44.8306 449.242 44.75 448.92 44.75C448.598 44.75 448.306 44.8306 448.045 44.9917C447.784 45.1472 447.576 45.3583 447.42 45.625C447.265 45.8861 447.187 46.1778 447.187 46.5C447.187 46.8222 447.265 47.1167 447.42 47.3833C447.576 47.6444 447.784 47.8556 448.045 48.0167C448.306 48.1722 448.598 48.25 448.92 48.25ZM454.462 49.25L451.937 44H452.962L453.97 46.1667C454.065 46.3722 454.154 46.5722 454.237 46.7667C454.326 46.9611 454.412 47.2056 454.495 47.5C454.584 47.2111 454.673 46.9667 454.762 46.7667C454.856 46.5667 454.945 46.3667 455.029 46.1667L456.037 43.7667L457.037 46.1667C457.12 46.3722 457.206 46.5722 457.295 46.7667C457.384 46.9611 457.47 47.2056 457.554 47.5C457.637 47.2056 457.723 46.9611 457.812 46.7667C457.901 46.5667 457.992 46.3667 458.087 46.1667L459.112 44H460.07L457.545 49.25L456.529 47.0167C456.44 46.8167 456.351 46.6194 456.262 46.425C456.179 46.225 456.092 45.9861 456.004 45.7083C455.92 45.9861 455.834 46.225 455.745 46.425C455.656 46.6194 455.565 46.8167 455.47 47.0167L454.462 49.25ZM465.332 49.1C464.887 49.1 464.484 49.0111 464.123 48.8333C463.768 48.6556 463.484 48.4389 463.273 48.1833L463.548 47.0333C463.704 47.3444 463.937 47.625 464.248 47.875C464.559 48.125 464.932 48.25 465.365 48.25C465.759 48.25 466.084 48.125 466.34 47.875C466.601 47.625 466.732 47.3167 466.732 46.95C466.732 46.6833 466.668 46.4639 466.54 46.2917C466.412 46.1194 466.268 45.9833 466.107 45.8833C465.946 45.7833 465.818 45.7111 465.723 45.6667L464.807 45.2C464.662 45.1222 464.482 45.0139 464.265 44.875C464.054 44.7361 463.868 44.5444 463.707 44.3C463.546 44.0556 463.465 43.7389 463.465 43.35C463.465 42.9722 463.551 42.6361 463.723 42.3417C463.901 42.0472 464.146 41.8167 464.457 41.65C464.773 41.4833 465.134 41.4 465.54 41.4C465.94 41.4 466.293 41.4722 466.598 41.6167C466.904 41.7556 467.143 41.9 467.315 42.05L467.04 43.2C466.901 42.9667 466.696 42.7472 466.423 42.5417C466.151 42.3361 465.843 42.2333 465.498 42.2333C465.165 42.2333 464.898 42.3333 464.698 42.5333C464.498 42.7278 464.398 42.9694 464.398 43.2583C464.398 43.4806 464.448 43.6639 464.548 43.8083C464.654 43.9528 464.771 44.0667 464.898 44.15C465.032 44.2333 465.14 44.2972 465.223 44.3417L466.157 44.8083C466.268 44.8639 466.407 44.9417 466.573 45.0417C466.746 45.1417 466.915 45.275 467.082 45.4417C467.248 45.6028 467.387 45.8028 467.498 46.0417C467.609 46.275 467.665 46.5583 467.665 46.8917C467.665 47.3194 467.562 47.7 467.357 48.0333C467.157 48.3667 466.882 48.6278 466.532 48.8167C466.182 49.0056 465.782 49.1 465.332 49.1ZM471.344 49.1C470.822 49.1 470.353 48.9833 469.936 48.75C469.525 48.5167 469.2 48.2 468.961 47.8C468.728 47.3944 468.611 46.9444 468.611 46.45C468.611 45.9778 468.725 45.55 468.953 45.1667C469.181 44.7778 469.486 44.4694 469.869 44.2417C470.258 44.0139 470.686 43.9 471.153 43.9C471.614 43.9 472.036 44.0111 472.419 44.2333C472.803 44.45 473.108 44.7444 473.336 45.1167C473.564 45.4889 473.678 45.9111 473.678 46.3833V46.75H470.411C470.267 46.75 470.119 46.7444 469.969 46.7333C469.819 46.7222 469.672 46.7056 469.528 46.6833C469.589 47.1278 469.789 47.5 470.128 47.8C470.472 48.1 470.881 48.25 471.353 48.25C471.669 48.25 471.964 48.1778 472.236 48.0333C472.508 47.8889 472.728 47.6972 472.894 47.4583L473.144 48.4833C472.906 48.6778 472.631 48.8306 472.319 48.9417C472.014 49.0472 471.689 49.1 471.344 49.1ZM469.503 46.075C469.803 46.025 470.106 46 470.411 46H472.069C472.192 46 472.311 46.0056 472.428 46.0167C472.55 46.0222 472.672 46.0306 472.794 46.0417C472.717 45.6528 472.522 45.3333 472.211 45.0833C471.9 44.8278 471.547 44.7 471.153 44.7C470.747 44.7 470.392 44.8361 470.086 45.1083C469.781 45.375 469.586 45.6972 469.503 46.075ZM477.021 49.0667C476.565 49.0667 476.149 48.9528 475.771 48.725C475.393 48.4917 475.09 48.1806 474.862 47.7917C474.64 47.4028 474.529 46.9722 474.529 46.5C474.529 46.0278 474.64 45.5972 474.862 45.2083C475.09 44.8194 475.393 44.5111 475.771 44.2833C476.149 44.05 476.565 43.9333 477.021 43.9333C477.365 43.9333 477.687 43.9972 477.987 44.125C478.293 44.2528 478.557 44.4306 478.779 44.6583V44H479.612V49H478.779V48.3417C478.557 48.5639 478.293 48.7417 477.987 48.875C477.687 49.0028 477.365 49.0667 477.021 49.0667ZM477.137 48.25C477.454 48.25 477.74 48.1722 477.996 48.0167C478.257 47.8556 478.462 47.6444 478.612 47.3833C478.768 47.1167 478.846 46.8222 478.846 46.5C478.846 46.1778 478.768 45.8861 478.612 45.625C478.462 45.3583 478.257 45.1472 477.996 44.9917C477.74 44.8306 477.454 44.75 477.137 44.75C476.821 44.75 476.532 44.8306 476.271 44.9917C476.015 45.1472 475.81 45.3583 475.654 45.625C475.504 45.8861 475.429 46.1778 475.429 46.5C475.429 46.8222 475.504 47.1167 475.654 47.3833C475.81 47.6444 476.015 47.8556 476.271 48.0167C476.532 48.1722 476.821 48.25 477.137 48.25ZM481.791 49V44.75H480.657V44H481.816V42.3333H482.666V44H483.907V44.75H482.691V49H481.791ZM484.957 49V44H485.857V49H484.957ZM485.407 43.1C485.241 43.1 485.099 43.0417 484.982 42.925C484.866 42.8083 484.807 42.6667 484.807 42.5C484.807 42.3278 484.866 42.1861 484.982 42.075C485.099 41.9583 485.241 41.9 485.407 41.9C485.579 41.9 485.721 41.9583 485.832 42.075C485.949 42.1861 486.007 42.3278 486.007 42.5C486.007 42.6667 485.949 42.8083 485.832 42.925C485.721 43.0417 485.579 43.1 485.407 43.1ZM487.453 49V44H488.287V44.8083C488.47 44.5139 488.706 44.2889 488.995 44.1333C489.289 43.9778 489.606 43.9 489.945 43.9C490.301 43.9 490.628 43.9889 490.928 44.1667C491.234 44.3389 491.481 44.5917 491.67 44.925C491.859 45.2528 491.953 45.6528 491.953 46.125V49H491.053V46.25C491.053 45.8556 490.934 45.5083 490.695 45.2083C490.462 44.9028 490.131 44.75 489.703 44.75C489.353 44.75 489.039 44.8778 488.762 45.1333C488.489 45.3833 488.353 45.7472 488.353 46.225V49H487.453ZM495.478 51.6C495.095 51.6 494.745 51.5444 494.428 51.4333C494.117 51.3222 493.839 51.1694 493.595 50.975L493.845 49.9583C494.012 50.1972 494.234 50.3917 494.512 50.5417C494.789 50.6917 495.109 50.7667 495.47 50.7667C496.031 50.7667 496.484 50.5972 496.828 50.2583C497.178 49.9194 497.353 49.4833 497.353 48.95V48.3417C497.131 48.5639 496.867 48.7417 496.562 48.875C496.262 49.0028 495.939 49.0667 495.595 49.0667C495.139 49.0667 494.723 48.9528 494.345 48.725C493.967 48.4917 493.664 48.1806 493.437 47.7917C493.214 47.4028 493.103 46.9722 493.103 46.5C493.103 46.0278 493.214 45.5972 493.437 45.2083C493.664 44.8194 493.967 44.5111 494.345 44.2833C494.723 44.05 495.139 43.9333 495.595 43.9333C495.939 43.9333 496.262 43.9972 496.562 44.125C496.867 44.2528 497.131 44.4306 497.353 44.6583V44H498.187V49C498.187 49.5444 498.059 50.0111 497.803 50.4C497.553 50.7889 497.223 51.0861 496.812 51.2917C496.401 51.4972 495.956 51.6 495.478 51.6ZM495.712 48.25C496.028 48.25 496.314 48.1722 496.57 48.0167C496.831 47.8556 497.037 47.6444 497.187 47.3833C497.342 47.1167 497.42 46.8222 497.42 46.5C497.42 46.1778 497.342 45.8861 497.187 45.625C497.037 45.3583 496.831 45.1472 496.57 44.9917C496.314 44.8306 496.028 44.75 495.712 44.75C495.395 44.75 495.106 44.8306 494.845 44.9917C494.589 45.1472 494.384 45.3583 494.228 45.625C494.078 45.8861 494.003 46.1778 494.003 46.5C494.003 46.8222 494.078 47.1167 494.228 47.3833C494.384 47.6444 494.589 47.8556 494.845 48.0167C495.106 48.1722 495.395 48.25 495.712 48.25Z" fill="black"/>
<g opacity="0.6">
<path d="M687 338V362H233V358C233 346.954 241.954 338 253 338H687Z" fill="#C1F6E1"/>
<path d="M687.5 337.5V362H686.5V338.5L687.5 337.5ZM232.5 362V358C232.5 346.678 241.678 337.5 253 337.5V338.5C242.23 338.5 233.5 347.23 233.5 358V362H232.5ZM232.5 358C232.5 346.678 241.678 337.5 253 337.5H687.5L686.5 338.5H253C242.23 338.5 233.5 347.23 233.5 358H232.5Z" fill="#A5A5A5"/>
</g>
<path opacity="0.8" d="M424.008 354.25L421.117 346.5H422.083L423.783 351C423.844 351.156 423.894 351.306 423.933 351.45C423.972 351.589 424.014 351.756 424.058 351.95C424.103 351.756 424.144 351.589 424.183 351.45C424.228 351.306 424.278 351.156 424.333 351L426.05 346.25L427.758 351C427.808 351.139 427.855 351.281 427.9 351.425C427.95 351.564 427.994 351.739 428.033 351.95C428.078 351.739 428.122 351.564 428.167 351.425C428.211 351.281 428.261 351.139 428.317 351L430.017 346.5H430.917L428.033 354.25L426.3 349.383C426.25 349.239 426.203 349.1 426.158 348.967C426.114 348.828 426.069 348.653 426.025 348.442C425.98 348.653 425.936 348.828 425.892 348.967C425.847 349.1 425.8 349.239 425.75 349.383L424.008 354.25ZM431.813 354V349H432.713V354H431.813ZM432.263 348.1C432.096 348.1 431.954 348.042 431.838 347.925C431.721 347.808 431.663 347.667 431.663 347.5C431.663 347.328 431.721 347.186 431.838 347.075C431.954 346.958 432.096 346.9 432.263 346.9C432.435 346.9 432.577 346.958 432.688 347.075C432.804 347.186 432.863 347.328 432.863 347.5C432.863 347.667 432.804 347.808 432.688 347.925C432.577 348.042 432.435 348.1 432.263 348.1ZM434.309 354V349H435.142V349.808C435.325 349.514 435.562 349.289 435.85 349.133C436.145 348.978 436.462 348.9 436.8 348.9C437.156 348.9 437.484 348.989 437.784 349.167C438.089 349.339 438.337 349.592 438.525 349.925C438.714 350.253 438.809 350.653 438.809 351.125V354H437.909V351.25C437.909 350.856 437.789 350.508 437.55 350.208C437.317 349.903 436.987 349.75 436.559 349.75C436.209 349.75 435.895 349.878 435.617 350.133C435.345 350.383 435.209 350.747 435.209 351.225V354H434.309ZM442.45 354.067C441.995 354.067 441.578 353.953 441.2 353.725C440.823 353.492 440.52 353.181 440.292 352.792C440.07 352.403 439.959 351.972 439.959 351.5C439.959 351.028 440.07 350.597 440.292 350.208C440.52 349.819 440.823 349.511 441.2 349.283C441.578 349.05 441.995 348.933 442.45 348.933C442.778 348.933 443.087 348.992 443.375 349.108C443.664 349.225 443.92 349.386 444.142 349.592V346H445.042V354H444.209V353.342C443.987 353.564 443.723 353.742 443.417 353.875C443.117 354.003 442.795 354.067 442.45 354.067ZM442.567 353.25C442.884 353.25 443.17 353.172 443.425 353.017C443.687 352.856 443.892 352.644 444.042 352.383C444.198 352.117 444.275 351.822 444.275 351.5C444.275 351.178 444.198 350.886 444.042 350.625C443.892 350.358 443.687 350.147 443.425 349.992C443.17 349.831 442.884 349.75 442.567 349.75C442.25 349.75 441.962 349.831 441.7 349.992C441.445 350.147 441.239 350.358 441.084 350.625C440.934 350.886 440.859 351.178 440.859 351.5C440.859 351.822 440.934 352.117 441.084 352.383C441.239 352.644 441.445 352.856 441.7 353.017C441.962 353.172 442.25 353.25 442.567 353.25ZM448.92 354.1C448.437 354.1 447.995 353.983 447.595 353.75C447.195 353.517 446.876 353.203 446.637 352.808C446.404 352.414 446.287 351.978 446.287 351.5C446.287 351.017 446.404 350.581 446.637 350.192C446.876 349.797 447.195 349.483 447.595 349.25C447.995 349.017 448.437 348.9 448.92 348.9C449.409 348.9 449.851 349.017 450.245 349.25C450.645 349.483 450.962 349.797 451.195 350.192C451.434 350.581 451.554 351.017 451.554 351.5C451.554 351.978 451.434 352.414 451.195 352.808C450.962 353.203 450.645 353.517 450.245 353.75C449.851 353.983 449.409 354.1 448.92 354.1ZM448.92 353.25C449.242 353.25 449.534 353.172 449.795 353.017C450.056 352.856 450.265 352.644 450.42 352.383C450.576 352.117 450.654 351.822 450.654 351.5C450.654 351.178 450.576 350.886 450.42 350.625C450.265 350.358 450.056 350.147 449.795 349.992C449.534 349.831 449.242 349.75 448.92 349.75C448.598 349.75 448.306 349.831 448.045 349.992C447.784 350.147 447.576 350.358 447.42 350.625C447.265 350.886 447.187 351.178 447.187 351.5C447.187 351.822 447.265 352.117 447.42 352.383C447.576 352.644 447.784 352.856 448.045 353.017C448.306 353.172 448.598 353.25 448.92 353.25ZM454.462 354.25L451.937 349H452.962L453.97 351.167C454.065 351.372 454.154 351.572 454.237 351.767C454.326 351.961 454.412 352.206 454.495 352.5C454.584 352.211 454.673 351.967 454.762 351.767C454.856 351.567 454.945 351.367 455.029 351.167L456.037 348.767L457.037 351.167C457.12 351.372 457.206 351.572 457.295 351.767C457.384 351.961 457.47 352.206 457.554 352.5C457.637 352.206 457.723 351.961 457.812 351.767C457.901 351.567 457.992 351.367 458.087 351.167L459.112 349H460.07L457.545 354.25L456.529 352.017C456.44 351.817 456.351 351.619 456.262 351.425C456.179 351.225 456.092 350.986 456.004 350.708C455.92 350.986 455.834 351.225 455.745 351.425C455.656 351.619 455.565 351.817 455.47 352.017L454.462 354.25ZM465.332 354.1C464.887 354.1 464.484 354.011 464.123 353.833C463.768 353.656 463.484 353.439 463.273 353.183L463.548 352.033C463.704 352.344 463.937 352.625 464.248 352.875C464.559 353.125 464.932 353.25 465.365 353.25C465.759 353.25 466.084 353.125 466.34 352.875C466.601 352.625 466.732 352.317 466.732 351.95C466.732 351.683 466.668 351.464 466.54 351.292C466.412 351.119 466.268 350.983 466.107 350.883C465.946 350.783 465.818 350.711 465.723 350.667L464.807 350.2C464.662 350.122 464.482 350.014 464.265 349.875C464.054 349.736 463.868 349.544 463.707 349.3C463.546 349.056 463.465 348.739 463.465 348.35C463.465 347.972 463.551 347.636 463.723 347.342C463.901 347.047 464.146 346.817 464.457 346.65C464.773 346.483 465.134 346.4 465.54 346.4C465.94 346.4 466.293 346.472 466.598 346.617C466.904 346.756 467.143 346.9 467.315 347.05L467.04 348.2C466.901 347.967 466.696 347.747 466.423 347.542C466.151 347.336 465.843 347.233 465.498 347.233C465.165 347.233 464.898 347.333 464.698 347.533C464.498 347.728 464.398 347.969 464.398 348.258C464.398 348.481 464.448 348.664 464.548 348.808C464.654 348.953 464.771 349.067 464.898 349.15C465.032 349.233 465.14 349.297 465.223 349.342L466.157 349.808C466.268 349.864 466.407 349.942 466.573 350.042C466.746 350.142 466.915 350.275 467.082 350.442C467.248 350.603 467.387 350.803 467.498 351.042C467.609 351.275 467.665 351.558 467.665 351.892C467.665 352.319 467.562 352.7 467.357 353.033C467.157 353.367 466.882 353.628 466.532 353.817C466.182 354.006 465.782 354.1 465.332 354.1ZM471.344 354.1C470.822 354.1 470.353 353.983 469.936 353.75C469.525 353.517 469.2 353.2 468.961 352.8C468.728 352.394 468.611 351.944 468.611 351.45C468.611 350.978 468.725 350.55 468.953 350.167C469.181 349.778 469.486 349.469 469.869 349.242C470.258 349.014 470.686 348.9 471.153 348.9C471.614 348.9 472.036 349.011 472.419 349.233C472.803 349.45 473.108 349.744 473.336 350.117C473.564 350.489 473.678 350.911 473.678 351.383V351.75H470.411C470.267 351.75 470.119 351.744 469.969 351.733C469.819 351.722 469.672 351.706 469.528 351.683C469.589 352.128 469.789 352.5 470.128 352.8C470.472 353.1 470.881 353.25 471.353 353.25C471.669 353.25 471.964 353.178 472.236 353.033C472.508 352.889 472.728 352.697 472.894 352.458L473.144 353.483C472.906 353.678 472.631 353.831 472.319 353.942C472.014 354.047 471.689 354.1 471.344 354.1ZM469.503 351.075C469.803 351.025 470.106 351 470.411 351H472.069C472.192 351 472.311 351.006 472.428 351.017C472.55 351.022 472.672 351.031 472.794 351.042C472.717 350.653 472.522 350.333 472.211 350.083C471.9 349.828 471.547 349.7 471.153 349.7C470.747 349.7 470.392 349.836 470.086 350.108C469.781 350.375 469.586 350.697 469.503 351.075ZM477.021 354.067C476.565 354.067 476.149 353.953 475.771 353.725C475.393 353.492 475.09 353.181 474.862 352.792C474.64 352.403 474.529 351.972 474.529 351.5C474.529 351.028 474.64 350.597 474.862 350.208C475.09 349.819 475.393 349.511 475.771 349.283C476.149 349.05 476.565 348.933 477.021 348.933C477.365 348.933 477.687 348.997 477.987 349.125C478.293 349.253 478.557 349.431 478.779 349.658V349H479.612V354H478.779V353.342C478.557 353.564 478.293 353.742 477.987 353.875C477.687 354.003 477.365 354.067 477.021 354.067ZM477.137 353.25C477.454 353.25 477.74 353.172 477.996 353.017C478.257 352.856 478.462 352.644 478.612 352.383C478.768 352.117 478.846 351.822 478.846 351.5C478.846 351.178 478.768 350.886 478.612 350.625C478.462 350.358 478.257 350.147 477.996 349.992C477.74 349.831 477.454 349.75 477.137 349.75C476.821 349.75 476.532 349.831 476.271 349.992C476.015 350.147 475.81 350.358 475.654 350.625C475.504 350.886 475.429 351.178 475.429 351.5C475.429 351.822 475.504 352.117 475.654 352.383C475.81 352.644 476.015 352.856 476.271 353.017C476.532 353.172 476.821 353.25 477.137 353.25ZM481.791 354V349.75H480.657V349H481.816V347.333H482.666V349H483.907V349.75H482.691V354H481.791ZM484.957 354V349H485.857V354H484.957ZM485.407 348.1C485.241 348.1 485.099 348.042 484.982 347.925C484.866 347.808 484.807 347.667 484.807 347.5C484.807 347.328 484.866 347.186 484.982 347.075C485.099 346.958 485.241 346.9 485.407 346.9C485.579 346.9 485.721 346.958 485.832 347.075C485.949 347.186 486.007 347.328 486.007 347.5C486.007 347.667 485.949 347.808 485.832 347.925C485.721 348.042 485.579 348.1 485.407 348.1ZM487.453 354V349H488.287V349.808C488.47 349.514 488.706 349.289 488.995 349.133C489.289 348.978 489.606 348.9 489.945 348.9C490.301 348.9 490.628 348.989 490.928 349.167C491.234 349.339 491.481 349.592 491.67 349.925C491.859 350.253 491.953 350.653 491.953 351.125V354H491.053V351.25C491.053 350.856 490.934 350.508 490.695 350.208C490.462 349.903 490.131 349.75 489.703 349.75C489.353 349.75 489.039 349.878 488.762 350.133C488.489 350.383 488.353 350.747 488.353 351.225V354H487.453ZM495.478 356.6C495.095 356.6 494.745 356.544 494.428 356.433C494.117 356.322 493.839 356.169 493.595 355.975L493.845 354.958C494.012 355.197 494.234 355.392 494.512 355.542C494.789 355.692 495.109 355.767 495.47 355.767C496.031 355.767 496.484 355.597 496.828 355.258C497.178 354.919 497.353 354.483 497.353 353.95V353.342C497.131 353.564 496.867 353.742 496.562 353.875C496.262 354.003 495.939 354.067 495.595 354.067C495.139 354.067 494.723 353.953 494.345 353.725C493.967 353.492 493.664 353.181 493.437 352.792C493.214 352.403 493.103 351.972 493.103 351.5C493.103 351.028 493.214 350.597 493.437 350.208C493.664 349.819 493.967 349.511 494.345 349.283C494.723 349.05 495.139 348.933 495.595 348.933C495.939 348.933 496.262 348.997 496.562 349.125C496.867 349.253 497.131 349.431 497.353 349.658V349H498.187V354C498.187 354.544 498.059 355.011 497.803 355.4C497.553 355.789 497.223 356.086 496.812 356.292C496.401 356.497 495.956 356.6 495.478 356.6ZM495.712 353.25C496.028 353.25 496.314 353.172 496.57 353.017C496.831 352.856 497.037 352.644 497.187 352.383C497.342 352.117 497.42 351.822 497.42 351.5C497.42 351.178 497.342 350.886 497.187 350.625C497.037 350.358 496.831 350.147 496.57 349.992C496.314 349.831 496.028 349.75 495.712 349.75C495.395 349.75 495.106 349.831 494.845 349.992C494.589 350.147 494.384 350.358 494.228 350.625C494.078 350.886 494.003 351.178 494.003 351.5C494.003 351.822 494.078 352.117 494.228 352.383C494.384 352.644 494.589 352.856 494.845 353.017C495.106 353.172 495.395 353.25 495.712 353.25Z" fill="black"/>
<g opacity="0.6">
<path d="M687 362V386H233V362H687Z" fill="black" fill-opacity="0.1"/>
<path d="M687 362H687.5V361.5H687V362ZM233 362V361.5H232.5V362H233ZM686.5 362V386H687.5V362H686.5ZM233.5 386V362H232.5V386H233.5ZM233 362.5H687V361.5H233V362.5Z" fill="#A5A5A5"/>
</g>
<path opacity="0.8" d="M419.878 378.15C419.339 378.15 418.83 378.05 418.353 377.85C417.88 377.644 417.464 377.364 417.103 377.008C416.747 376.653 416.466 376.239 416.261 375.767C416.061 375.294 415.961 374.789 415.961 374.25C415.961 373.711 416.061 373.206 416.261 372.733C416.466 372.261 416.747 371.847 417.103 371.492C417.464 371.136 417.88 370.858 418.353 370.658C418.83 370.453 419.339 370.35 419.878 370.35C420.422 370.35 420.93 370.453 421.403 370.658C421.875 370.858 422.289 371.136 422.644 371.492C423.005 371.847 423.286 372.261 423.486 372.733C423.691 373.206 423.794 373.711 423.794 374.25C423.794 374.789 423.691 375.294 423.486 375.767C423.286 376.239 423.005 376.653 422.644 377.008C422.289 377.364 421.875 377.644 421.403 377.85C420.93 378.05 420.422 378.15 419.878 378.15ZM419.878 377.25C420.428 377.25 420.925 377.117 421.369 376.85C421.814 376.578 422.164 376.214 422.419 375.758C422.68 375.303 422.811 374.8 422.811 374.25C422.811 373.694 422.68 373.192 422.419 372.742C422.164 372.286 421.814 371.925 421.369 371.658C420.925 371.386 420.428 371.25 419.878 371.25C419.328 371.25 418.83 371.386 418.386 371.658C417.947 371.925 417.597 372.286 417.336 372.742C417.075 373.192 416.944 373.694 416.944 374.25C416.944 374.8 417.075 375.303 417.336 375.758C417.597 376.214 417.947 376.578 418.386 376.85C418.83 377.117 419.328 377.25 419.878 377.25ZM425.097 380.5V373H425.93V373.658C426.158 373.431 426.422 373.253 426.722 373.125C427.022 372.997 427.344 372.933 427.688 372.933C428.15 372.933 428.566 373.05 428.938 373.283C429.316 373.511 429.616 373.819 429.838 374.208C430.066 374.597 430.18 375.028 430.18 375.5C430.18 375.972 430.066 376.403 429.838 376.792C429.616 377.181 429.316 377.492 428.938 377.725C428.566 377.953 428.15 378.067 427.688 378.067C427.361 378.067 427.052 378.008 426.763 377.892C426.475 377.775 426.219 377.614 425.997 377.408V380.5H425.097ZM427.572 377.25C427.888 377.25 428.175 377.172 428.43 377.017C428.691 376.856 428.897 376.644 429.047 376.383C429.202 376.117 429.28 375.822 429.28 375.5C429.28 375.178 429.202 374.886 429.047 374.625C428.897 374.358 428.691 374.147 428.43 373.992C428.175 373.831 427.888 373.75 427.572 373.75C427.255 373.75 426.966 373.831 426.705 373.992C426.45 374.147 426.244 374.358 426.088 374.625C425.938 374.886 425.863 375.178 425.863 375.5C425.863 375.822 425.938 376.117 426.088 376.383C426.244 376.644 426.45 376.856 426.705 377.017C426.966 377.172 427.255 377.25 427.572 377.25ZM433.808 378.1C433.286 378.1 432.817 377.983 432.4 377.75C431.989 377.517 431.664 377.2 431.425 376.8C431.192 376.394 431.075 375.944 431.075 375.45C431.075 374.978 431.189 374.55 431.417 374.167C431.644 373.778 431.95 373.469 432.333 373.242C432.722 373.014 433.15 372.9 433.617 372.9C434.078 372.9 434.5 373.011 434.883 373.233C435.267 373.45 435.572 373.744 435.8 374.117C436.028 374.489 436.142 374.911 436.142 375.383V375.75H432.875C432.731 375.75 432.583 375.744 432.433 375.733C432.283 375.722 432.136 375.706 431.992 375.683C432.053 376.128 432.253 376.5 432.592 376.8C432.936 377.1 433.344 377.25 433.817 377.25C434.133 377.25 434.428 377.178 434.7 377.033C434.972 376.889 435.192 376.697 435.358 376.458L435.608 377.483C435.369 377.678 435.094 377.831 434.783 377.942C434.478 378.047 434.153 378.1 433.808 378.1ZM431.967 375.075C432.267 375.025 432.569 375 432.875 375H434.533C434.656 375 434.775 375.006 434.892 375.017C435.014 375.022 435.136 375.031 435.258 375.042C435.181 374.653 434.986 374.333 434.675 374.083C434.364 373.828 434.011 373.7 433.617 373.7C433.211 373.7 432.856 373.836 432.55 374.108C432.244 374.375 432.05 374.697 431.967 375.075ZM437.343 378V373H438.176V373.808C438.36 373.514 438.596 373.289 438.885 373.133C439.179 372.978 439.496 372.9 439.835 372.9C440.19 372.9 440.518 372.989 440.818 373.167C441.123 373.339 441.371 373.592 441.56 373.925C441.748 374.253 441.843 374.653 441.843 375.125V378H440.943V375.25C440.943 374.856 440.823 374.508 440.585 374.208C440.351 373.903 440.021 373.75 439.593 373.75C439.243 373.75 438.929 373.878 438.651 374.133C438.379 374.383 438.243 374.747 438.243 375.225V378H437.343ZM447.981 378.067C447.525 378.067 447.108 377.953 446.731 377.725C446.353 377.492 446.05 377.181 445.822 376.792C445.6 376.403 445.489 375.972 445.489 375.5C445.489 375.028 445.6 374.597 445.822 374.208C446.05 373.819 446.353 373.511 446.731 373.283C447.108 373.05 447.525 372.933 447.981 372.933C448.308 372.933 448.617 372.992 448.906 373.108C449.195 373.225 449.45 373.386 449.672 373.592V370H450.572V378H449.739V377.342C449.517 377.564 449.253 377.742 448.947 377.875C448.647 378.003 448.325 378.067 447.981 378.067ZM448.097 377.25C448.414 377.25 448.7 377.172 448.956 377.017C449.217 376.856 449.422 376.644 449.572 376.383C449.728 376.117 449.806 375.822 449.806 375.5C449.806 375.178 449.728 374.886 449.572 374.625C449.422 374.358 449.217 374.147 448.956 373.992C448.7 373.831 448.414 373.75 448.097 373.75C447.781 373.75 447.492 373.831 447.231 373.992C446.975 374.147 446.77 374.358 446.614 374.625C446.464 374.886 446.389 375.178 446.389 375.5C446.389 375.822 446.464 376.117 446.614 376.383C446.77 376.644 446.975 376.856 447.231 377.017C447.492 377.172 447.781 377.25 448.097 377.25ZM454.55 378.1C454.028 378.1 453.559 377.983 453.142 377.75C452.731 377.517 452.406 377.2 452.167 376.8C451.934 376.394 451.817 375.944 451.817 375.45C451.817 374.978 451.931 374.55 452.159 374.167C452.387 373.778 452.692 373.469 453.075 373.242C453.464 373.014 453.892 372.9 454.359 372.9C454.82 372.9 455.242 373.011 455.625 373.233C456.009 373.45 456.314 373.744 456.542 374.117C456.77 374.489 456.884 374.911 456.884 375.383V375.75H453.617C453.473 375.75 453.325 375.744 453.175 375.733C453.025 375.722 452.878 375.706 452.734 375.683C452.795 376.128 452.995 376.5 453.334 376.8C453.678 377.1 454.087 377.25 454.559 377.25C454.875 377.25 455.17 377.178 455.442 377.033C455.714 376.889 455.934 376.697 456.1 376.458L456.35 377.483C456.112 377.678 455.837 377.831 455.525 377.942C455.22 378.047 454.895 378.1 454.55 378.1ZM452.709 375.075C453.009 375.025 453.312 375 453.617 375H455.275C455.398 375 455.517 375.006 455.634 375.017C455.756 375.022 455.878 375.031 456 375.042C455.923 374.653 455.728 374.333 455.417 374.083C455.106 373.828 454.753 373.7 454.359 373.7C453.953 373.7 453.598 373.836 453.292 374.108C452.987 374.375 452.792 374.697 452.709 375.075ZM460.385 378.1C459.896 378.1 459.452 377.983 459.052 377.75C458.652 377.517 458.332 377.203 458.093 376.808C457.855 376.414 457.735 375.978 457.735 375.5C457.735 375.022 457.855 374.586 458.093 374.192C458.332 373.797 458.652 373.483 459.052 373.25C459.452 373.017 459.896 372.9 460.385 372.9C460.746 372.9 461.085 372.964 461.402 373.092C461.718 373.219 461.996 373.389 462.235 373.6L461.96 374.733C461.821 374.456 461.61 374.222 461.327 374.033C461.049 373.844 460.732 373.75 460.377 373.75C460.055 373.75 459.76 373.831 459.493 373.992C459.232 374.147 459.024 374.358 458.868 374.625C458.713 374.886 458.635 375.178 458.635 375.5C458.635 375.817 458.713 376.108 458.868 376.375C459.024 376.642 459.232 376.856 459.493 377.017C459.76 377.172 460.055 377.25 460.377 377.25C460.732 377.25 461.049 377.158 461.327 376.975C461.61 376.792 461.821 376.556 461.96 376.267L462.235 377.4C461.996 377.611 461.718 377.781 461.402 377.908C461.085 378.036 460.746 378.1 460.385 378.1ZM466.593 378L464.335 375.25L466.193 373H467.235L465.41 375.183L467.735 378H466.593ZM463.335 378V370H464.235V378H463.335ZM473.223 378.067C472.767 378.067 472.351 377.953 471.973 377.725C471.595 377.492 471.292 377.181 471.065 376.792C470.842 376.403 470.731 375.972 470.731 375.5C470.731 375.028 470.842 374.597 471.065 374.208C471.292 373.819 471.595 373.511 471.973 373.283C472.351 373.05 472.767 372.933 473.223 372.933C473.567 372.933 473.89 372.997 474.19 373.125C474.495 373.253 474.759 373.431 474.981 373.658V373H475.815V378H474.981V377.342C474.759 377.564 474.495 377.742 474.19 377.875C473.89 378.003 473.567 378.067 473.223 378.067ZM473.34 377.25C473.656 377.25 473.942 377.172 474.198 377.017C474.459 376.856 474.665 376.644 474.815 376.383C474.97 376.117 475.048 375.822 475.048 375.5C475.048 375.178 474.97 374.886 474.815 374.625C474.665 374.358 474.459 374.147 474.198 373.992C473.942 373.831 473.656 373.75 473.34 373.75C473.023 373.75 472.734 373.831 472.473 373.992C472.217 374.147 472.012 374.358 471.856 374.625C471.706 374.886 471.631 375.178 471.631 375.5C471.631 375.822 471.706 376.117 471.856 376.383C472.012 376.644 472.217 376.856 472.473 377.017C472.734 377.172 473.023 377.25 473.34 377.25ZM479.709 378.1C479.22 378.1 478.776 377.983 478.376 377.75C477.976 377.517 477.657 377.203 477.418 376.808C477.179 376.414 477.059 375.978 477.059 375.5C477.059 375.022 477.179 374.586 477.418 374.192C477.657 373.797 477.976 373.483 478.376 373.25C478.776 373.017 479.22 372.9 479.709 372.9C480.07 372.9 480.409 372.964 480.726 373.092C481.043 373.219 481.32 373.389 481.559 373.6L481.284 374.733C481.145 374.456 480.934 374.222 480.651 374.033C480.373 373.844 480.057 373.75 479.701 373.75C479.379 373.75 479.084 373.831 478.818 373.992C478.557 374.147 478.348 374.358 478.193 374.625C478.037 374.886 477.959 375.178 477.959 375.5C477.959 375.817 478.037 376.108 478.193 376.375C478.348 376.642 478.557 376.856 478.818 377.017C479.084 377.172 479.379 377.25 479.701 377.25C480.057 377.25 480.373 377.158 480.651 376.975C480.934 376.792 481.145 376.556 481.284 376.267L481.559 377.4C481.32 377.611 481.043 377.781 480.726 377.908C480.409 378.036 480.07 378.1 479.709 378.1ZM484.959 378.1C484.47 378.1 484.026 377.983 483.626 377.75C483.226 377.517 482.907 377.203 482.668 376.808C482.429 376.414 482.309 375.978 482.309 375.5C482.309 375.022 482.429 374.586 482.668 374.192C482.907 373.797 483.226 373.483 483.626 373.25C484.026 373.017 484.47 372.9 484.959 372.9C485.32 372.9 485.659 372.964 485.976 373.092C486.293 373.219 486.57 373.389 486.809 373.6L486.534 374.733C486.395 374.456 486.184 374.222 485.901 374.033C485.623 373.844 485.307 373.75 484.951 373.75C484.629 373.75 484.334 373.831 484.068 373.992C483.807 374.147 483.598 374.358 483.443 374.625C483.287 374.886 483.209 375.178 483.209 375.5C483.209 375.817 483.287 376.108 483.443 376.375C483.598 376.642 483.807 376.856 484.068 377.017C484.334 377.172 484.629 377.25 484.951 377.25C485.307 377.25 485.623 377.158 485.901 376.975C486.184 376.792 486.395 376.556 486.534 376.267L486.809 377.4C486.57 377.611 486.293 377.781 485.976 377.908C485.659 378.036 485.32 378.1 484.959 378.1ZM490.293 378.1C489.77 378.1 489.301 377.983 488.884 377.75C488.473 377.517 488.148 377.2 487.909 376.8C487.676 376.394 487.559 375.944 487.559 375.45C487.559 374.978 487.673 374.55 487.901 374.167C488.129 373.778 488.434 373.469 488.818 373.242C489.207 373.014 489.634 372.9 490.101 372.9C490.562 372.9 490.984 373.011 491.368 373.233C491.751 373.45 492.057 373.744 492.284 374.117C492.512 374.489 492.626 374.911 492.626 375.383V375.75H489.359C489.215 375.75 489.068 375.744 488.918 375.733C488.768 375.722 488.62 375.706 488.476 375.683C488.537 376.128 488.737 376.5 489.076 376.8C489.42 377.1 489.829 377.25 490.301 377.25C490.618 377.25 490.912 377.178 491.184 377.033C491.457 376.889 491.676 376.697 491.843 376.458L492.093 377.483C491.854 377.678 491.579 377.831 491.268 377.942C490.962 378.047 490.637 378.1 490.293 378.1ZM488.451 375.075C488.751 375.025 489.054 375 489.359 375H491.018C491.14 375 491.259 375.006 491.376 375.017C491.498 375.022 491.62 375.031 491.743 375.042C491.665 374.653 491.47 374.333 491.159 374.083C490.848 373.828 490.495 373.7 490.101 373.7C489.695 373.7 489.34 373.836 489.034 374.108C488.729 374.375 488.534 374.697 488.451 375.075ZM495.119 378.1C494.863 378.1 494.588 378.053 494.294 377.958C494.005 377.858 493.755 377.694 493.544 377.467L493.794 376.483C493.95 376.744 494.15 376.953 494.394 377.108C494.638 377.258 494.9 377.333 495.177 377.333C495.444 377.333 495.644 377.269 495.777 377.142C495.911 377.008 495.977 376.847 495.977 376.658C495.977 376.442 495.905 376.283 495.761 376.183C495.622 376.083 495.497 376.014 495.386 375.975L494.711 375.717C494.588 375.667 494.441 375.594 494.269 375.5C494.097 375.4 493.947 375.258 493.819 375.075C493.691 374.892 493.627 374.653 493.627 374.358C493.627 374.092 493.691 373.847 493.819 373.625C493.947 373.403 494.127 373.228 494.361 373.1C494.594 372.967 494.869 372.9 495.186 372.9C495.436 372.9 495.697 372.944 495.969 373.033C496.241 373.122 496.472 373.272 496.661 373.483L496.411 374.467C496.277 374.222 496.097 374.028 495.869 373.883C495.641 373.739 495.405 373.667 495.161 373.667C494.933 373.667 494.752 373.731 494.619 373.858C494.491 373.986 494.427 374.133 494.427 374.3C494.427 374.433 494.472 374.553 494.561 374.658C494.65 374.764 494.783 374.85 494.961 374.917L495.636 375.175C495.758 375.219 495.908 375.292 496.086 375.392C496.269 375.492 496.43 375.636 496.569 375.825C496.708 376.014 496.777 376.269 496.777 376.592C496.777 377.042 496.619 377.406 496.302 377.683C495.991 377.961 495.597 378.1 495.119 378.1ZM499.373 378.1C499.117 378.1 498.842 378.053 498.548 377.958C498.259 377.858 498.009 377.694 497.798 377.467L498.048 376.483C498.203 376.744 498.403 376.953 498.648 377.108C498.892 377.258 499.153 377.333 499.431 377.333C499.698 377.333 499.898 377.269 500.031 377.142C500.165 377.008 500.231 376.847 500.231 376.658C500.231 376.442 500.159 376.283 500.015 376.183C499.876 376.083 499.751 376.014 499.64 375.975L498.965 375.717C498.842 375.667 498.695 375.594 498.523 375.5C498.351 375.4 498.201 375.258 498.073 375.075C497.945 374.892 497.881 374.653 497.881 374.358C497.881 374.092 497.945 373.847 498.073 373.625C498.201 373.403 498.381 373.228 498.615 373.1C498.848 372.967 499.123 372.9 499.44 372.9C499.69 372.9 499.951 372.944 500.223 373.033C500.495 373.122 500.726 373.272 500.915 373.483L500.665 374.467C500.531 374.222 500.351 374.028 500.123 373.883C499.895 373.739 499.659 373.667 499.415 373.667C499.187 373.667 499.006 373.731 498.873 373.858C498.745 373.986 498.681 374.133 498.681 374.3C498.681 374.433 498.726 374.553 498.815 374.658C498.903 374.764 499.037 374.85 499.215 374.917L499.89 375.175C500.012 375.219 500.162 375.292 500.34 375.392C500.523 375.492 500.684 375.636 500.823 375.825C500.962 376.014 501.031 376.269 501.031 376.592C501.031 377.042 500.873 377.406 500.556 377.683C500.245 377.961 499.851 378.1 499.373 378.1Z" fill="black"/>
<path d="M687 385.5H234" stroke="#BEBEBE"/>
</svg>
