<svg width="395" height="833" viewBox="0 0 395 833" fill="none" xmlns="http://www.w3.org/2000/svg">
<g clip-path="url(#clip0_559_2520)">
<g opacity="0.6">
<path d="M338 691L362 691L362 237L358 237C346.954 237 338 245.954 338 257L338 691Z" fill="#C1F6E1"/>
<path d="M337.5 691.5L362 691.5L362 690.5L338.5 690.5L337.5 691.5ZM362 236.5L358 236.5C346.678 236.5 337.5 245.678 337.5 257L338.5 257C338.5 246.23 347.231 237.5 358 237.5L362 237.5L362 236.5ZM358 236.5C346.678 236.5 337.5 245.678 337.5 257L337.5 691.5L338.5 690.5L338.5 257C338.5 246.23 347.231 237.5 358 237.5L358 236.5Z" fill="#A5A5A5"/>
</g>
<path opacity="0.6" d="M395 690.5L387 690.5" stroke="black"/>
<path opacity="0.6" d="M9 690.5L1 690.5" stroke="black"/>
<path opacity="0.6" d="M395 236.5L387 236.5" stroke="black"/>
<path opacity="0.6" d="M9 236.5L1 236.5" stroke="black"/>
<path d="M390.5 690L390.5 237" stroke="#BEBEBE"/>
<path d="M5.49998 690L5.5 237" stroke="#BEBEBE"/>
<path d="M0.49998 690L0.5 237" stroke="#BEBEBE"/>
<path d="M394.5 690L394.5 237" stroke="#BEBEBE"/>
<path d="M9.49998 690L9.5 237" stroke="#BEBEBE"/>
<path d="M386.5 690L386.5 237" stroke="#BEBEBE"/>
<g opacity="0.6">
<path d="M386 691L362 691L362 237L386 237L386 691Z" fill="black" fill-opacity="0.1"/>
<path d="M386 691L386 691.5L386.5 691.5L386.5 691L386 691ZM386 237L386.5 237L386.5 236.5L386 236.5L386 237ZM386 690.5L362 690.5L362 691.5L386 691.5L386 690.5ZM362 237.5L386 237.5L386 236.5L362 236.5L362 237.5ZM385.5 237L385.5 691L386.5 691L386.5 237L385.5 237Z" fill="#A5A5A5"/>
</g>
<path opacity="0.8" d="M370.85 425.88C370.85 425.341 370.95 424.832 371.15 424.355C371.356 423.882 371.636 423.466 371.992 423.105C372.347 422.749 372.761 422.468 373.233 422.263C373.706 422.063 374.211 421.963 374.75 421.963C375.289 421.963 375.794 422.063 376.267 422.263C376.739 422.468 377.153 422.749 377.508 423.105C377.864 423.466 378.142 423.882 378.342 424.355C378.547 424.832 378.65 425.341 378.65 425.88C378.65 426.424 378.547 426.932 378.342 427.405C378.142 427.877 377.864 428.291 377.508 428.646C377.153 429.007 376.739 429.288 376.267 429.488C375.794 429.693 375.289 429.796 374.75 429.796C374.211 429.796 373.706 429.693 373.233 429.488C372.761 429.288 372.347 429.007 371.992 428.646C371.636 428.291 371.356 427.877 371.15 427.405C370.95 426.932 370.85 426.424 370.85 425.88ZM371.75 425.88C371.75 426.43 371.883 426.927 372.15 427.371C372.422 427.816 372.786 428.166 373.242 428.421C373.697 428.682 374.2 428.813 374.75 428.813C375.306 428.813 375.808 428.682 376.258 428.421C376.714 428.166 377.075 427.816 377.342 427.371C377.614 426.927 377.75 426.43 377.75 425.88C377.75 425.33 377.614 424.832 377.342 424.388C377.075 423.949 376.714 423.599 376.258 423.338C375.808 423.077 375.306 422.946 374.75 422.946C374.2 422.946 373.697 423.077 373.242 423.338C372.786 423.599 372.422 423.949 372.15 424.388C371.883 424.832 371.75 425.33 371.75 425.88ZM368.5 431.099L376 431.099L376 431.932L375.342 431.932C375.569 432.16 375.747 432.424 375.875 432.724C376.003 433.024 376.067 433.346 376.067 433.69C376.067 434.152 375.95 434.568 375.717 434.94C375.489 435.318 375.181 435.618 374.792 435.84C374.403 436.068 373.972 436.182 373.5 436.182C373.028 436.182 372.597 436.068 372.208 435.84C371.819 435.618 371.508 435.318 371.275 434.94C371.047 434.568 370.933 434.152 370.933 433.69C370.933 433.363 370.992 433.054 371.108 432.765C371.225 432.477 371.386 432.221 371.592 431.999L368.5 431.999L368.5 431.099ZM371.75 433.574C371.75 433.89 371.828 434.177 371.983 434.432C372.144 434.693 372.356 434.899 372.617 435.049C372.883 435.204 373.178 435.282 373.5 435.282C373.822 435.282 374.114 435.204 374.375 435.049C374.642 434.899 374.853 434.693 375.008 434.432C375.169 434.177 375.25 433.89 375.25 433.574C375.25 433.257 375.169 432.968 375.008 432.707C374.853 432.452 374.642 432.246 374.375 432.09C374.114 431.94 373.822 431.865 373.5 431.865C373.178 431.865 372.883 431.94 372.617 432.09C372.356 432.246 372.144 432.452 371.983 432.707C371.828 432.968 371.75 433.257 371.75 433.574ZM370.9 439.81C370.9 439.288 371.017 438.819 371.25 438.402C371.483 437.991 371.8 437.666 372.2 437.427C372.606 437.194 373.056 437.077 373.55 437.077C374.022 437.077 374.45 437.191 374.833 437.419C375.222 437.646 375.531 437.952 375.758 438.335C375.986 438.724 376.1 439.152 376.1 439.619C376.1 440.08 375.989 440.502 375.767 440.885C375.55 441.269 375.256 441.574 374.883 441.802C374.511 442.03 374.089 442.144 373.617 442.144L373.25 442.144L373.25 438.877C373.25 438.733 373.256 438.585 373.267 438.435C373.278 438.285 373.294 438.138 373.317 437.994C372.872 438.055 372.5 438.255 372.2 438.594C371.9 438.938 371.75 439.346 371.75 439.819C371.75 440.135 371.822 440.43 371.967 440.702C372.111 440.974 372.303 441.194 372.542 441.36L371.517 441.61C371.322 441.371 371.169 441.096 371.058 440.785C370.953 440.48 370.9 440.155 370.9 439.81ZM373.925 437.969C373.975 438.269 374 438.571 374 438.877L374 440.535C374 440.658 373.994 440.777 373.983 440.894C373.978 441.016 373.969 441.138 373.958 441.26C374.347 441.183 374.667 440.988 374.917 440.677C375.172 440.366 375.3 440.013 375.3 439.619C375.3 439.213 375.164 438.858 374.892 438.552C374.625 438.246 374.303 438.052 373.925 437.969ZM371 443.345L376 443.345L376 444.178L375.192 444.178C375.486 444.362 375.711 444.598 375.867 444.887C376.022 445.181 376.1 445.498 376.1 445.837C376.1 446.192 376.011 446.52 375.833 446.82C375.661 447.125 375.408 447.373 375.075 447.562C374.747 447.75 374.347 447.845 373.875 447.845L371 447.845L371 446.945L373.75 446.945C374.144 446.945 374.492 446.825 374.792 446.587C375.097 446.353 375.25 446.023 375.25 445.595C375.25 445.245 375.122 444.931 374.867 444.653C374.617 444.381 374.253 444.245 373.775 444.245L371 444.245L371 443.345ZM370.933 453.983C370.933 453.527 371.047 453.11 371.275 452.733C371.508 452.355 371.819 452.052 372.208 451.824C372.597 451.602 373.028 451.491 373.5 451.491C373.972 451.491 374.403 451.602 374.792 451.824C375.181 452.052 375.489 452.355 375.717 452.733C375.95 453.11 376.067 453.527 376.067 453.983C376.067 454.31 376.008 454.619 375.892 454.908C375.775 455.197 375.614 455.452 375.408 455.674L379 455.674L379 456.574L371 456.574L371 455.741L371.658 455.741C371.436 455.519 371.258 455.255 371.125 454.949C370.997 454.649 370.933 454.327 370.933 453.983ZM371.75 454.099C371.75 454.416 371.828 454.702 371.983 454.958C372.144 455.219 372.356 455.424 372.617 455.574C372.883 455.73 373.178 455.808 373.5 455.808C373.822 455.808 374.114 455.73 374.375 455.574C374.642 455.424 374.853 455.219 375.008 454.958C375.169 454.702 375.25 454.416 375.25 454.099C375.25 453.783 375.169 453.494 375.008 453.233C374.853 452.977 374.642 452.772 374.375 452.616C374.114 452.466 373.822 452.391 373.5 452.391C373.178 452.391 372.883 452.466 372.617 452.616C372.356 452.772 372.144 452.977 371.983 453.233C371.828 453.494 371.75 453.783 371.75 454.099ZM370.9 460.552C370.9 460.03 371.017 459.561 371.25 459.144C371.483 458.733 371.8 458.408 372.2 458.169C372.606 457.936 373.056 457.819 373.55 457.819C374.022 457.819 374.45 457.933 374.833 458.161C375.222 458.389 375.531 458.694 375.758 459.077C375.986 459.466 376.1 459.894 376.1 460.361C376.1 460.822 375.989 461.244 375.767 461.627C375.55 462.011 375.256 462.316 374.883 462.544C374.511 462.772 374.089 462.886 373.617 462.886L373.25 462.886L373.25 459.619C373.25 459.475 373.256 459.327 373.267 459.177C373.278 459.027 373.294 458.88 373.317 458.736C372.872 458.797 372.5 458.997 372.2 459.336C371.9 459.68 371.75 460.089 371.75 460.561C371.75 460.877 371.822 461.172 371.967 461.444C372.111 461.716 372.303 461.936 372.542 462.102L371.517 462.352C371.322 462.114 371.169 461.839 371.058 461.527C370.953 461.222 370.9 460.897 370.9 460.552ZM373.925 458.711C373.975 459.011 374 459.314 374 459.619L374 461.277C374 461.4 373.994 461.519 373.983 461.636C373.978 461.758 373.969 461.88 373.958 462.002C374.347 461.925 374.667 461.73 374.917 461.419C375.172 461.108 375.3 460.755 375.3 460.361C375.3 459.955 375.164 459.6 374.892 459.294C374.625 458.989 374.303 458.794 373.925 458.711ZM370.9 466.387C370.9 465.898 371.017 465.454 371.25 465.054C371.483 464.654 371.797 464.334 372.192 464.095C372.586 463.857 373.022 463.737 373.5 463.737C373.978 463.737 374.414 463.857 374.808 464.095C375.203 464.334 375.517 464.654 375.75 465.054C375.983 465.454 376.1 465.898 376.1 466.387C376.1 466.748 376.036 467.087 375.908 467.404C375.781 467.72 375.611 467.998 375.4 468.237L374.267 467.962C374.544 467.823 374.778 467.612 374.967 467.329C375.156 467.051 375.25 466.734 375.25 466.379C375.25 466.057 375.169 465.762 375.008 465.495C374.853 465.234 374.642 465.026 374.375 464.87C374.114 464.715 373.822 464.637 373.5 464.637C373.183 464.637 372.892 464.715 372.625 464.87C372.358 465.026 372.144 465.234 371.983 465.495C371.828 465.762 371.75 466.057 371.75 466.379C371.75 466.734 371.842 467.051 372.025 467.329C372.208 467.612 372.444 467.823 372.733 467.962L371.6 468.237C371.389 467.998 371.219 467.72 371.092 467.404C370.964 467.087 370.9 466.748 370.9 466.387ZM371 472.595L373.75 470.337L376 472.195L376 473.237L373.817 471.412L371 473.737L371 472.595ZM371 469.337L379 469.337L379 470.237L371 470.237L371 469.337ZM370.933 479.225C370.933 478.769 371.047 478.353 371.275 477.975C371.508 477.597 371.819 477.294 372.208 477.067C372.597 476.844 373.028 476.733 373.5 476.733C373.972 476.733 374.403 476.844 374.792 477.067C375.181 477.294 375.489 477.597 375.717 477.975C375.95 478.353 376.067 478.769 376.067 479.225C376.067 479.569 376.003 479.892 375.875 480.192C375.747 480.497 375.569 480.761 375.342 480.983L376 480.983L376 481.817L371 481.817L371 480.983L371.658 480.983C371.436 480.761 371.258 480.497 371.125 480.192C370.997 479.892 370.933 479.569 370.933 479.225ZM371.75 479.342C371.75 479.658 371.828 479.944 371.983 480.2C372.144 480.461 372.356 480.667 372.617 480.817C372.883 480.972 373.178 481.05 373.5 481.05C373.822 481.05 374.114 480.972 374.375 480.817C374.642 480.667 374.853 480.461 375.008 480.2C375.169 479.944 375.25 479.658 375.25 479.342C375.25 479.025 375.169 478.736 375.008 478.475C374.853 478.219 374.642 478.014 374.375 477.858C374.114 477.708 373.822 477.633 373.5 477.633C373.178 477.633 372.883 477.708 372.617 477.858C372.356 478.014 372.144 478.219 371.983 478.475C371.828 478.736 371.75 479.025 371.75 479.342ZM370.9 485.711C370.9 485.222 371.017 484.778 371.25 484.378C371.483 483.978 371.797 483.659 372.192 483.42C372.586 483.181 373.022 483.061 373.5 483.061C373.978 483.061 374.414 483.181 374.808 483.42C375.203 483.659 375.517 483.978 375.75 484.378C375.983 484.778 376.1 485.222 376.1 485.711C376.1 486.072 376.036 486.411 375.908 486.728C375.781 487.045 375.611 487.322 375.4 487.561L374.267 487.286C374.544 487.147 374.778 486.936 374.967 486.653C375.156 486.375 375.25 486.059 375.25 485.703C375.25 485.381 375.169 485.086 375.008 484.82C374.853 484.559 374.642 484.35 374.375 484.195C374.114 484.039 373.822 483.961 373.5 483.961C373.183 483.961 372.892 484.039 372.625 484.195C372.358 484.35 372.144 484.559 371.983 484.82C371.828 485.086 371.75 485.381 371.75 485.703C371.75 486.059 371.842 486.375 372.025 486.653C372.208 486.936 372.444 487.147 372.733 487.286L371.6 487.561C371.389 487.322 371.219 487.045 371.092 486.728C370.964 486.411 370.9 486.072 370.9 485.711ZM370.9 490.961C370.9 490.472 371.017 490.028 371.25 489.628C371.483 489.228 371.797 488.909 372.192 488.67C372.586 488.431 373.022 488.311 373.5 488.311C373.978 488.311 374.414 488.431 374.808 488.67C375.203 488.909 375.517 489.228 375.75 489.628C375.983 490.028 376.1 490.472 376.1 490.961C376.1 491.322 376.036 491.661 375.908 491.978C375.781 492.295 375.611 492.572 375.4 492.811L374.267 492.536C374.544 492.397 374.778 492.186 374.967 491.903C375.156 491.625 375.25 491.309 375.25 490.953C375.25 490.631 375.169 490.336 375.008 490.07C374.853 489.809 374.642 489.6 374.375 489.445C374.114 489.289 373.822 489.211 373.5 489.211C373.183 489.211 372.892 489.289 372.625 489.445C372.358 489.6 372.144 489.809 371.983 490.07C371.828 490.336 371.75 490.631 371.75 490.953C371.75 491.309 371.842 491.625 372.025 491.903C372.208 492.186 372.444 492.397 372.733 492.536L371.6 492.811C371.389 492.572 371.219 492.295 371.092 491.978C370.964 491.661 370.9 491.322 370.9 490.961ZM370.9 496.295C370.9 495.772 371.017 495.303 371.25 494.886C371.483 494.475 371.8 494.15 372.2 493.911C372.606 493.678 373.056 493.561 373.55 493.561C374.022 493.561 374.45 493.675 374.833 493.903C375.222 494.131 375.531 494.436 375.758 494.82C375.986 495.209 376.1 495.636 376.1 496.103C376.1 496.564 375.989 496.986 375.767 497.37C375.55 497.753 375.256 498.059 374.883 498.286C374.511 498.514 374.089 498.628 373.617 498.628L373.25 498.628L373.25 495.361C373.25 495.217 373.256 495.07 373.267 494.92C373.278 494.77 373.294 494.622 373.317 494.478C372.872 494.539 372.5 494.739 372.2 495.078C371.9 495.422 371.75 495.831 371.75 496.303C371.75 496.62 371.822 496.914 371.967 497.186C372.111 497.459 372.303 497.678 372.542 497.845L371.517 498.095C371.322 497.856 371.169 497.581 371.058 497.27C370.953 496.964 370.9 496.639 370.9 496.295ZM373.925 494.453C373.975 494.753 374 495.056 374 495.361L374 497.02C374 497.142 373.994 497.261 373.983 497.378C373.978 497.5 373.969 497.622 373.958 497.745C374.347 497.667 374.667 497.472 374.917 497.161C375.172 496.85 375.3 496.497 375.3 496.103C375.3 495.697 375.164 495.342 374.892 495.036C374.625 494.731 374.303 494.536 373.925 494.453ZM370.9 501.121C370.9 500.865 370.947 500.59 371.042 500.296C371.142 500.007 371.306 499.757 371.533 499.546L372.517 499.796C372.256 499.952 372.047 500.152 371.892 500.396C371.742 500.64 371.667 500.902 371.667 501.179C371.667 501.446 371.731 501.646 371.858 501.779C371.992 501.913 372.153 501.979 372.342 501.979C372.558 501.979 372.717 501.907 372.817 501.763C372.917 501.624 372.986 501.499 373.025 501.388L373.283 500.713C373.333 500.59 373.406 500.443 373.5 500.271C373.6 500.099 373.742 499.949 373.925 499.821C374.108 499.693 374.347 499.629 374.642 499.629C374.908 499.629 375.153 499.693 375.375 499.821C375.597 499.949 375.772 500.129 375.9 500.363C376.033 500.596 376.1 500.871 376.1 501.188C376.1 501.438 376.056 501.699 375.967 501.971C375.878 502.243 375.728 502.474 375.517 502.663L374.533 502.413C374.778 502.279 374.972 502.099 375.117 501.871C375.261 501.643 375.333 501.407 375.333 501.163C375.333 500.935 375.269 500.754 375.142 500.621C375.014 500.493 374.867 500.429 374.7 500.429C374.567 500.429 374.447 500.474 374.342 500.563C374.236 500.652 374.15 500.785 374.083 500.963L373.825 501.638C373.781 501.76 373.708 501.91 373.608 502.088C373.508 502.271 373.364 502.432 373.175 502.571C372.986 502.71 372.731 502.779 372.408 502.779C371.958 502.779 371.594 502.621 371.317 502.304C371.039 501.993 370.9 501.599 370.9 501.121ZM370.9 505.375C370.9 505.119 370.947 504.844 371.042 504.55C371.142 504.261 371.306 504.011 371.533 503.8L372.517 504.05C372.256 504.205 372.047 504.405 371.892 504.65C371.742 504.894 371.667 505.155 371.667 505.433C371.667 505.7 371.731 505.9 371.858 506.033C371.992 506.167 372.153 506.233 372.342 506.233C372.558 506.233 372.717 506.161 372.817 506.017C372.917 505.878 372.986 505.753 373.025 505.642L373.283 504.967C373.333 504.844 373.406 504.697 373.5 504.525C373.6 504.353 373.742 504.203 373.925 504.075C374.108 503.947 374.347 503.883 374.642 503.883C374.908 503.883 375.153 503.947 375.375 504.075C375.597 504.203 375.772 504.383 375.9 504.617C376.033 504.85 376.1 505.125 376.1 505.442C376.1 505.692 376.056 505.953 375.967 506.225C375.878 506.497 375.728 506.728 375.517 506.917L374.533 506.667C374.778 506.533 374.972 506.353 375.117 506.125C375.261 505.897 375.333 505.661 375.333 505.417C375.333 505.189 375.269 505.008 375.142 504.875C375.014 504.747 374.867 504.683 374.7 504.683C374.567 504.683 374.447 504.728 374.342 504.817C374.236 504.905 374.15 505.039 374.083 505.217L373.825 505.892C373.781 506.014 373.708 506.164 373.608 506.342C373.508 506.525 373.364 506.686 373.175 506.825C372.986 506.964 372.731 507.033 372.408 507.033C371.958 507.033 371.594 506.875 371.317 506.558C371.039 506.247 370.9 505.853 370.9 505.375Z" fill="black"/>
<g opacity="0.6">
<path d="M35 691L11 691L11 237L35 237L35 691Z" fill="black" fill-opacity="0.1"/>
<path d="M35 691L35 691.5L35.5 691.5L35.5 691L35 691ZM35 237L35.5 237L35.5 236.5L35 236.5L35 237ZM35 690.5L11 690.5L11 691.5L35 691.5L35 690.5ZM11 237.5L35 237.5L35 236.5L11 236.5L11 237.5ZM34.5 237L34.5 691L35.5 691L35.5 237L34.5 237Z" fill="#A5A5A5"/>
</g>
<path opacity="0.8" d="M19.85 426.88C19.85 426.341 19.95 425.832 20.15 425.355C20.356 424.882 20.636 424.466 20.992 424.105C21.347 423.749 21.761 423.468 22.233 423.263C22.706 423.063 23.211 422.963 23.75 422.963C24.289 422.963 24.794 423.063 25.267 423.263C25.739 423.468 26.153 423.749 26.508 424.105C26.864 424.466 27.142 424.882 27.342 425.355C27.547 425.832 27.65 426.341 27.65 426.88C27.65 427.424 27.547 427.932 27.342 428.405C27.142 428.877 26.864 429.291 26.508 429.646C26.153 430.007 25.739 430.288 25.267 430.488C24.794 430.693 24.289 430.796 23.75 430.796C23.211 430.796 22.706 430.693 22.233 430.488C21.761 430.288 21.347 430.007 20.992 429.646C20.636 429.291 20.356 428.877 20.15 428.405C19.95 427.932 19.85 427.424 19.85 426.88ZM20.75 426.88C20.75 427.43 20.883 427.927 21.15 428.371C21.422 428.816 21.786 429.166 22.242 429.421C22.697 429.682 23.2 429.813 23.75 429.813C24.306 429.813 24.808 429.682 25.258 429.421C25.714 429.166 26.075 428.816 26.342 428.371C26.614 427.927 26.75 427.43 26.75 426.88C26.75 426.33 26.614 425.832 26.342 425.388C26.075 424.949 25.714 424.599 25.258 424.338C24.808 424.077 24.306 423.946 23.75 423.946C23.2 423.946 22.697 424.077 22.242 424.338C21.786 424.599 21.422 424.949 21.15 425.388C20.883 425.832 20.75 426.33 20.75 426.88ZM17.5 432.099L25 432.099L25 432.932L24.342 432.932C24.569 433.16 24.747 433.424 24.875 433.724C25.003 434.024 25.067 434.346 25.067 434.69C25.067 435.152 24.95 435.568 24.717 435.94C24.489 436.318 24.181 436.618 23.792 436.84C23.403 437.068 22.972 437.182 22.5 437.182C22.028 437.182 21.597 437.068 21.208 436.84C20.819 436.618 20.508 436.318 20.275 435.94C20.047 435.568 19.933 435.152 19.933 434.69C19.933 434.363 19.992 434.054 20.108 433.765C20.225 433.477 20.386 433.221 20.592 432.999L17.5 432.999L17.5 432.099ZM20.75 434.574C20.75 434.89 20.828 435.177 20.983 435.432C21.144 435.693 21.356 435.899 21.617 436.049C21.883 436.204 22.178 436.282 22.5 436.282C22.822 436.282 23.114 436.204 23.375 436.049C23.642 435.899 23.853 435.693 24.008 435.432C24.169 435.177 24.25 434.89 24.25 434.574C24.25 434.257 24.169 433.968 24.008 433.707C23.853 433.452 23.642 433.246 23.375 433.09C23.114 432.94 22.822 432.865 22.5 432.865C22.178 432.865 21.883 432.94 21.617 433.09C21.356 433.246 21.144 433.452 20.983 433.707C20.828 433.968 20.75 434.257 20.75 434.574ZM19.9 440.81C19.9 440.288 20.017 439.819 20.25 439.402C20.483 438.991 20.8 438.666 21.2 438.427C21.606 438.194 22.056 438.077 22.55 438.077C23.022 438.077 23.45 438.191 23.833 438.419C24.222 438.646 24.531 438.952 24.758 439.335C24.986 439.724 25.1 440.152 25.1 440.619C25.1 441.08 24.989 441.502 24.767 441.885C24.55 442.269 24.256 442.574 23.883 442.802C23.511 443.03 23.089 443.144 22.617 443.144L22.25 443.144L22.25 439.877C22.25 439.733 22.256 439.585 22.267 439.435C22.278 439.285 22.294 439.138 22.317 438.994C21.872 439.055 21.5 439.255 21.2 439.594C20.9 439.938 20.75 440.346 20.75 440.819C20.75 441.135 20.822 441.43 20.967 441.702C21.111 441.974 21.303 442.194 21.542 442.36L20.517 442.61C20.322 442.371 20.169 442.096 20.058 441.785C19.953 441.48 19.9 441.155 19.9 440.81ZM22.925 438.969C22.975 439.269 23 439.571 23 439.877L23 441.535C23 441.658 22.994 441.777 22.983 441.894C22.978 442.016 22.969 442.138 22.958 442.26C23.347 442.183 23.667 441.988 23.917 441.677C24.172 441.366 24.3 441.013 24.3 440.619C24.3 440.213 24.164 439.858 23.892 439.552C23.625 439.246 23.303 439.052 22.925 438.969ZM20 444.345L25 444.345L25 445.178L24.192 445.178C24.486 445.362 24.711 445.598 24.867 445.887C25.022 446.181 25.1 446.498 25.1 446.837C25.1 447.192 25.011 447.52 24.833 447.82C24.661 448.125 24.408 448.373 24.075 448.562C23.747 448.75 23.347 448.845 22.875 448.845L20 448.845L20 447.945L22.75 447.945C23.144 447.945 23.492 447.825 23.792 447.587C24.097 447.353 24.25 447.023 24.25 446.595C24.25 446.245 24.122 445.931 23.867 445.653C23.617 445.381 23.253 445.245 22.775 445.245L20 445.245L20 444.345ZM19.933 454.983C19.933 454.527 20.047 454.11 20.275 453.733C20.508 453.355 20.819 453.052 21.208 452.824C21.597 452.602 22.028 452.491 22.5 452.491C22.972 452.491 23.403 452.602 23.792 452.824C24.181 453.052 24.489 453.355 24.717 453.733C24.95 454.11 25.067 454.527 25.067 454.983C25.067 455.31 25.008 455.619 24.892 455.908C24.775 456.197 24.614 456.452 24.408 456.674L28 456.674L28 457.574L20 457.574L20 456.741L20.658 456.741C20.436 456.519 20.258 456.255 20.125 455.949C19.997 455.649 19.933 455.327 19.933 454.983ZM20.75 455.099C20.75 455.416 20.828 455.702 20.983 455.958C21.144 456.219 21.356 456.424 21.617 456.574C21.883 456.73 22.178 456.808 22.5 456.808C22.822 456.808 23.114 456.73 23.375 456.574C23.642 456.424 23.853 456.219 24.008 455.958C24.169 455.702 24.25 455.416 24.25 455.099C24.25 454.783 24.169 454.494 24.008 454.233C23.853 453.977 23.642 453.772 23.375 453.616C23.114 453.466 22.822 453.391 22.5 453.391C22.178 453.391 21.883 453.466 21.617 453.616C21.356 453.772 21.144 453.977 20.983 454.233C20.828 454.494 20.75 454.783 20.75 455.099ZM19.9 461.552C19.9 461.03 20.017 460.561 20.25 460.144C20.483 459.733 20.8 459.408 21.2 459.169C21.606 458.936 22.056 458.819 22.55 458.819C23.022 458.819 23.45 458.933 23.833 459.161C24.222 459.389 24.531 459.694 24.758 460.077C24.986 460.466 25.1 460.894 25.1 461.361C25.1 461.822 24.989 462.244 24.767 462.627C24.55 463.011 24.256 463.316 23.883 463.544C23.511 463.772 23.089 463.886 22.617 463.886L22.25 463.886L22.25 460.619C22.25 460.475 22.256 460.327 22.267 460.177C22.278 460.027 22.294 459.88 22.317 459.736C21.872 459.797 21.5 459.997 21.2 460.336C20.9 460.68 20.75 461.089 20.75 461.561C20.75 461.877 20.822 462.172 20.967 462.444C21.111 462.716 21.303 462.936 21.542 463.102L20.517 463.352C20.322 463.114 20.169 462.839 20.058 462.527C19.953 462.222 19.9 461.897 19.9 461.552ZM22.925 459.711C22.975 460.011 23 460.314 23 460.619L23 462.277C23 462.4 22.994 462.519 22.983 462.636C22.978 462.758 22.969 462.88 22.958 463.002C23.347 462.925 23.667 462.73 23.917 462.419C24.172 462.108 24.3 461.755 24.3 461.361C24.3 460.955 24.164 460.6 23.892 460.294C23.625 459.989 23.303 459.794 22.925 459.711ZM19.9 467.387C19.9 466.898 20.017 466.454 20.25 466.054C20.483 465.654 20.797 465.334 21.192 465.095C21.586 464.857 22.022 464.737 22.5 464.737C22.978 464.737 23.414 464.857 23.808 465.095C24.203 465.334 24.517 465.654 24.75 466.054C24.983 466.454 25.1 466.898 25.1 467.387C25.1 467.748 25.036 468.087 24.908 468.404C24.781 468.72 24.611 468.998 24.4 469.237L23.267 468.962C23.544 468.823 23.778 468.612 23.967 468.329C24.156 468.051 24.25 467.734 24.25 467.379C24.25 467.057 24.169 466.762 24.008 466.495C23.853 466.234 23.642 466.026 23.375 465.87C23.114 465.715 22.822 465.637 22.5 465.637C22.183 465.637 21.892 465.715 21.625 465.87C21.358 466.026 21.144 466.234 20.983 466.495C20.828 466.762 20.75 467.057 20.75 467.379C20.75 467.734 20.842 468.051 21.025 468.329C21.208 468.612 21.444 468.823 21.733 468.962L20.6 469.237C20.389 468.998 20.219 468.72 20.092 468.404C19.964 468.087 19.9 467.748 19.9 467.387ZM20 473.595L22.75 471.337L25 473.195L25 474.237L22.817 472.412L20 474.737L20 473.595ZM20 470.337L28 470.337L28 471.237L20 471.237L20 470.337ZM19.933 480.225C19.933 479.769 20.047 479.353 20.275 478.975C20.508 478.597 20.819 478.294 21.208 478.067C21.597 477.844 22.028 477.733 22.5 477.733C22.972 477.733 23.403 477.844 23.792 478.067C24.181 478.294 24.489 478.597 24.717 478.975C24.95 479.353 25.067 479.769 25.067 480.225C25.067 480.569 25.003 480.892 24.875 481.192C24.747 481.497 24.569 481.761 24.342 481.983L25 481.983L25 482.817L20 482.817L20 481.983L20.658 481.983C20.436 481.761 20.258 481.497 20.125 481.192C19.997 480.892 19.933 480.569 19.933 480.225ZM20.75 480.342C20.75 480.658 20.828 480.944 20.983 481.2C21.144 481.461 21.356 481.667 21.617 481.817C21.883 481.972 22.178 482.05 22.5 482.05C22.822 482.05 23.114 481.972 23.375 481.817C23.642 481.667 23.853 481.461 24.008 481.2C24.169 480.944 24.25 480.658 24.25 480.342C24.25 480.025 24.169 479.736 24.008 479.475C23.853 479.219 23.642 479.014 23.375 478.858C23.114 478.708 22.822 478.633 22.5 478.633C22.178 478.633 21.883 478.708 21.617 478.858C21.356 479.014 21.144 479.219 20.983 479.475C20.828 479.736 20.75 480.025 20.75 480.342ZM19.9 486.711C19.9 486.222 20.017 485.778 20.25 485.378C20.483 484.978 20.797 484.659 21.192 484.42C21.586 484.181 22.022 484.061 22.5 484.061C22.978 484.061 23.414 484.181 23.808 484.42C24.203 484.659 24.517 484.978 24.75 485.378C24.983 485.778 25.1 486.222 25.1 486.711C25.1 487.072 25.036 487.411 24.908 487.728C24.781 488.045 24.611 488.322 24.4 488.561L23.267 488.286C23.544 488.147 23.778 487.936 23.967 487.653C24.156 487.375 24.25 487.059 24.25 486.703C24.25 486.381 24.169 486.086 24.008 485.82C23.853 485.559 23.642 485.35 23.375 485.195C23.114 485.039 22.822 484.961 22.5 484.961C22.183 484.961 21.892 485.039 21.625 485.195C21.358 485.35 21.144 485.559 20.983 485.82C20.828 486.086 20.75 486.381 20.75 486.703C20.75 487.059 20.842 487.375 21.025 487.653C21.208 487.936 21.444 488.147 21.733 488.286L20.6 488.561C20.389 488.322 20.219 488.045 20.092 487.728C19.964 487.411 19.9 487.072 19.9 486.711ZM19.9 491.961C19.9 491.472 20.017 491.028 20.25 490.628C20.483 490.228 20.797 489.909 21.192 489.67C21.586 489.431 22.022 489.311 22.5 489.311C22.978 489.311 23.414 489.431 23.808 489.67C24.203 489.909 24.517 490.228 24.75 490.628C24.983 491.028 25.1 491.472 25.1 491.961C25.1 492.322 25.036 492.661 24.908 492.978C24.781 493.295 24.611 493.572 24.4 493.811L23.267 493.536C23.544 493.397 23.778 493.186 23.967 492.903C24.156 492.625 24.25 492.309 24.25 491.953C24.25 491.631 24.169 491.336 24.008 491.07C23.853 490.809 23.642 490.6 23.375 490.445C23.114 490.289 22.822 490.211 22.5 490.211C22.183 490.211 21.892 490.289 21.625 490.445C21.358 490.6 21.144 490.809 20.983 491.07C20.828 491.336 20.75 491.631 20.75 491.953C20.75 492.309 20.842 492.625 21.025 492.903C21.208 493.186 21.444 493.397 21.733 493.536L20.6 493.811C20.389 493.572 20.219 493.295 20.092 492.978C19.964 492.661 19.9 492.322 19.9 491.961ZM19.9 497.295C19.9 496.772 20.017 496.303 20.25 495.886C20.483 495.475 20.8 495.15 21.2 494.911C21.606 494.678 22.056 494.561 22.55 494.561C23.022 494.561 23.45 494.675 23.833 494.903C24.222 495.131 24.531 495.436 24.758 495.82C24.986 496.209 25.1 496.636 25.1 497.103C25.1 497.564 24.989 497.986 24.767 498.37C24.55 498.753 24.256 499.059 23.883 499.286C23.511 499.514 23.089 499.628 22.617 499.628L22.25 499.628L22.25 496.361C22.25 496.217 22.256 496.07 22.267 495.92C22.278 495.77 22.294 495.622 22.317 495.478C21.872 495.539 21.5 495.739 21.2 496.078C20.9 496.422 20.75 496.831 20.75 497.303C20.75 497.62 20.822 497.914 20.967 498.186C21.111 498.459 21.303 498.678 21.542 498.845L20.517 499.095C20.322 498.856 20.169 498.581 20.058 498.27C19.953 497.964 19.9 497.639 19.9 497.295ZM22.925 495.453C22.975 495.753 23 496.056 23 496.361L23 498.02C23 498.142 22.994 498.261 22.983 498.378C22.978 498.5 22.969 498.622 22.958 498.745C23.347 498.667 23.667 498.472 23.917 498.161C24.172 497.85 24.3 497.497 24.3 497.103C24.3 496.697 24.164 496.342 23.892 496.036C23.625 495.731 23.303 495.536 22.925 495.453ZM19.9 502.121C19.9 501.865 19.947 501.59 20.042 501.296C20.142 501.007 20.306 500.757 20.533 500.546L21.517 500.796C21.256 500.952 21.047 501.152 20.892 501.396C20.742 501.64 20.667 501.902 20.667 502.179C20.667 502.446 20.731 502.646 20.858 502.779C20.992 502.913 21.153 502.979 21.342 502.979C21.558 502.979 21.717 502.907 21.817 502.763C21.917 502.624 21.986 502.499 22.025 502.388L22.283 501.713C22.333 501.59 22.406 501.443 22.5 501.271C22.6 501.099 22.742 500.949 22.925 500.821C23.108 500.693 23.347 500.629 23.642 500.629C23.908 500.629 24.153 500.693 24.375 500.821C24.597 500.949 24.772 501.129 24.9 501.363C25.033 501.596 25.1 501.871 25.1 502.188C25.1 502.438 25.056 502.699 24.967 502.971C24.878 503.243 24.728 503.474 24.517 503.663L23.533 503.413C23.778 503.279 23.972 503.099 24.117 502.871C24.261 502.643 24.333 502.407 24.333 502.163C24.333 501.935 24.269 501.754 24.142 501.621C24.014 501.493 23.867 501.429 23.7 501.429C23.567 501.429 23.447 501.474 23.342 501.563C23.236 501.652 23.15 501.785 23.083 501.963L22.825 502.638C22.781 502.76 22.708 502.91 22.608 503.088C22.508 503.271 22.364 503.432 22.175 503.571C21.986 503.71 21.731 503.779 21.408 503.779C20.958 503.779 20.594 503.621 20.317 503.304C20.039 502.993 19.9 502.599 19.9 502.121ZM19.9 506.375C19.9 506.119 19.947 505.844 20.042 505.55C20.142 505.261 20.306 505.011 20.533 504.8L21.517 505.05C21.256 505.205 21.047 505.405 20.892 505.65C20.742 505.894 20.667 506.155 20.667 506.433C20.667 506.7 20.731 506.9 20.858 507.033C20.992 507.167 21.153 507.233 21.342 507.233C21.558 507.233 21.717 507.161 21.817 507.017C21.917 506.878 21.986 506.753 22.025 506.642L22.283 505.967C22.333 505.844 22.406 505.697 22.5 505.525C22.6 505.353 22.742 505.203 22.925 505.075C23.108 504.947 23.347 504.883 23.642 504.883C23.908 504.883 24.153 504.947 24.375 505.075C24.597 505.203 24.772 505.383 24.9 505.617C25.033 505.85 25.1 506.125 25.1 506.442C25.1 506.692 25.056 506.953 24.967 507.225C24.878 507.497 24.728 507.728 24.517 507.917L23.533 507.667C23.778 507.533 23.972 507.353 24.117 507.125C24.261 506.897 24.333 506.661 24.333 506.417C24.333 506.189 24.269 506.008 24.142 505.875C24.014 505.747 23.867 505.683 23.7 505.683C23.567 505.683 23.447 505.728 23.342 505.817C23.236 505.905 23.15 506.039 23.083 506.217L22.825 506.892C22.781 507.014 22.708 507.164 22.608 507.342C22.508 507.525 22.364 507.686 22.175 507.825C21.986 507.964 21.731 508.033 21.408 508.033C20.958 508.033 20.594 507.875 20.317 507.558C20.039 507.247 19.9 506.853 19.9 506.375Z" fill="black"/>
<g opacity="0.6">
<path d="M58 691L34 691L34 237L38 237C49.046 237 58 245.954 58 257L58 691Z" fill="#C1F6E1"/>
<path d="M58.5 691.5L34 691.5L34 690.5L57.5 690.5L58.5 691.5ZM34 236.5L38 236.5C49.322 236.5 58.5 245.678 58.5 257L57.5 257C57.5 246.23 48.77 237.5 38 237.5L34 237.5L34 236.5ZM38 236.5C49.322 236.5 58.5 245.678 58.5 257L58.5 691.5L57.5 690.5L57.5 257C57.5 246.23 48.77 237.5 38 237.5L38 236.5Z" fill="#A5A5A5"/>
</g>
<path opacity="0.8" d="M345.75 429.008L353.5 426.117L353.5 427.083L349 428.783C348.844 428.844 348.694 428.894 348.55 428.933C348.411 428.972 348.244 429.014 348.05 429.058C348.244 429.103 348.411 429.144 348.55 429.183C348.694 429.228 348.844 429.278 349 429.333L353.75 431.05L349 432.758C348.861 432.808 348.719 432.855 348.575 432.9C348.436 432.95 348.261 432.994 348.05 433.033C348.261 433.078 348.436 433.122 348.575 433.167C348.719 433.211 348.861 433.261 349 433.317L353.5 435.017L353.5 435.917L345.75 433.033L350.617 431.3C350.761 431.25 350.9 431.203 351.033 431.158C351.172 431.114 351.347 431.069 351.558 431.025C351.347 430.98 351.172 430.936 351.033 430.892C350.9 430.847 350.761 430.8 350.617 430.75L345.75 429.008ZM346 436.813L351 436.813L351 437.713L346 437.713L346 436.813ZM351.9 437.263C351.9 437.096 351.958 436.954 352.075 436.838C352.192 436.721 352.333 436.663 352.5 436.663C352.672 436.663 352.814 436.721 352.925 436.838C353.042 436.954 353.1 437.096 353.1 437.263C353.1 437.435 353.042 437.577 352.925 437.688C352.814 437.804 352.672 437.863 352.5 437.863C352.333 437.863 352.192 437.804 352.075 437.688C351.958 437.577 351.9 437.435 351.9 437.263ZM346 439.309L351 439.309L351 440.142L350.192 440.142C350.486 440.325 350.711 440.562 350.867 440.85C351.022 441.145 351.1 441.462 351.1 441.8C351.1 442.156 351.011 442.484 350.833 442.784C350.661 443.089 350.408 443.337 350.075 443.525C349.747 443.714 349.347 443.809 348.875 443.809L346 443.809L346 442.909L348.75 442.909C349.144 442.909 349.492 442.789 349.792 442.55C350.097 442.317 350.25 441.987 350.25 441.559C350.25 441.209 350.122 440.895 349.867 440.617C349.617 440.345 349.253 440.209 348.775 440.209L346 440.209L346 439.309ZM345.933 447.45C345.933 446.995 346.047 446.578 346.275 446.2C346.508 445.823 346.819 445.52 347.208 445.292C347.597 445.07 348.028 444.959 348.5 444.959C348.972 444.959 349.403 445.07 349.792 445.292C350.181 445.52 350.489 445.823 350.717 446.2C350.95 446.578 351.067 446.995 351.067 447.45C351.067 447.778 351.008 448.087 350.892 448.375C350.775 448.664 350.614 448.92 350.408 449.142L354 449.142L354 450.042L346 450.042L346 449.209L346.658 449.209C346.436 448.987 346.258 448.723 346.125 448.417C345.997 448.117 345.933 447.795 345.933 447.45ZM346.75 447.567C346.75 447.884 346.828 448.17 346.983 448.425C347.144 448.687 347.356 448.892 347.617 449.042C347.883 449.198 348.178 449.275 348.5 449.275C348.822 449.275 349.114 449.198 349.375 449.042C349.642 448.892 349.853 448.687 350.008 448.425C350.169 448.17 350.25 447.884 350.25 447.567C350.25 447.25 350.169 446.962 350.008 446.7C349.853 446.445 349.642 446.239 349.375 446.084C349.114 445.934 348.822 445.859 348.5 445.859C348.178 445.859 347.883 445.934 347.617 446.084C347.356 446.239 347.144 446.445 346.983 446.7C346.828 446.962 346.75 447.25 346.75 447.567ZM345.9 453.92C345.9 453.437 346.017 452.995 346.25 452.595C346.483 452.195 346.797 451.876 347.192 451.637C347.586 451.404 348.022 451.287 348.5 451.287C348.983 451.287 349.419 451.404 349.808 451.637C350.203 451.876 350.517 452.195 350.75 452.595C350.983 452.995 351.1 453.437 351.1 453.92C351.1 454.409 350.983 454.851 350.75 455.245C350.517 455.645 350.203 455.962 349.808 456.195C349.419 456.434 348.983 456.554 348.5 456.554C348.022 456.554 347.586 456.434 347.192 456.195C346.797 455.962 346.483 455.645 346.25 455.245C346.017 454.851 345.9 454.409 345.9 453.92ZM346.75 453.92C346.75 454.242 346.828 454.534 346.983 454.795C347.144 455.056 347.356 455.265 347.617 455.42C347.883 455.576 348.178 455.654 348.5 455.654C348.822 455.654 349.114 455.576 349.375 455.42C349.642 455.265 349.853 455.056 350.008 454.795C350.169 454.534 350.25 454.242 350.25 453.92C350.25 453.598 350.169 453.306 350.008 453.045C349.853 452.784 349.642 452.576 349.375 452.42C349.114 452.265 348.822 452.187 348.5 452.187C348.178 452.187 347.883 452.265 347.617 452.42C347.356 452.576 347.144 452.784 346.983 453.045C346.828 453.306 346.75 453.598 346.75 453.92ZM345.75 459.462L351 456.937L351 457.962L348.833 458.97C348.628 459.065 348.428 459.154 348.233 459.237C348.039 459.326 347.794 459.412 347.5 459.495C347.789 459.584 348.033 459.673 348.233 459.762C348.433 459.856 348.633 459.945 348.833 460.029L351.233 461.037L348.833 462.037C348.628 462.12 348.428 462.206 348.233 462.295C348.039 462.384 347.794 462.47 347.5 462.554C347.794 462.637 348.039 462.723 348.233 462.812C348.433 462.901 348.633 462.992 348.833 463.087L351 464.112L351 465.07L345.75 462.545L347.983 461.529C348.183 461.44 348.381 461.351 348.575 461.262C348.775 461.179 349.014 461.092 349.292 461.004C349.014 460.92 348.775 460.834 348.575 460.745C348.381 460.656 348.183 460.565 347.983 460.47L345.75 459.462ZM345.9 470.332C345.9 469.887 345.989 469.484 346.167 469.123C346.344 468.768 346.561 468.484 346.817 468.273L347.967 468.548C347.656 468.704 347.375 468.937 347.125 469.248C346.875 469.559 346.75 469.932 346.75 470.365C346.75 470.759 346.875 471.084 347.125 471.34C347.375 471.601 347.683 471.732 348.05 471.732C348.317 471.732 348.536 471.668 348.708 471.54C348.881 471.412 349.017 471.268 349.117 471.107C349.217 470.946 349.289 470.818 349.333 470.723L349.8 469.807C349.878 469.662 349.986 469.482 350.125 469.265C350.264 469.054 350.456 468.868 350.7 468.707C350.944 468.546 351.261 468.465 351.65 468.465C352.028 468.465 352.364 468.551 352.658 468.723C352.953 468.901 353.183 469.146 353.35 469.457C353.517 469.773 353.6 470.134 353.6 470.54C353.6 470.94 353.528 471.293 353.383 471.598C353.244 471.904 353.1 472.143 352.95 472.315L351.8 472.04C352.033 471.901 352.253 471.696 352.458 471.423C352.664 471.151 352.767 470.843 352.767 470.498C352.767 470.165 352.667 469.898 352.467 469.698C352.272 469.498 352.031 469.398 351.742 469.398C351.519 469.398 351.336 469.448 351.192 469.548C351.047 469.654 350.933 469.771 350.85 469.898C350.767 470.032 350.703 470.14 350.658 470.223L350.192 471.157C350.136 471.268 350.058 471.407 349.958 471.573C349.858 471.746 349.725 471.915 349.558 472.082C349.397 472.248 349.197 472.387 348.958 472.498C348.725 472.609 348.442 472.665 348.108 472.665C347.681 472.665 347.3 472.562 346.967 472.357C346.633 472.157 346.372 471.882 346.183 471.532C345.994 471.182 345.9 470.782 345.9 470.332ZM345.9 476.344C345.9 475.822 346.017 475.353 346.25 474.936C346.483 474.525 346.8 474.2 347.2 473.961C347.606 473.728 348.056 473.611 348.55 473.611C349.022 473.611 349.45 473.725 349.833 473.953C350.222 474.181 350.531 474.486 350.758 474.869C350.986 475.258 351.1 475.686 351.1 476.153C351.1 476.614 350.989 477.036 350.767 477.419C350.55 477.803 350.256 478.108 349.883 478.336C349.511 478.564 349.089 478.678 348.617 478.678L348.25 478.678L348.25 475.411C348.25 475.267 348.256 475.119 348.267 474.969C348.278 474.819 348.294 474.672 348.317 474.528C347.872 474.589 347.5 474.789 347.2 475.128C346.9 475.472 346.75 475.881 346.75 476.353C346.75 476.669 346.822 476.964 346.967 477.236C347.111 477.508 347.303 477.728 347.542 477.894L346.517 478.144C346.322 477.906 346.169 477.631 346.058 477.319C345.953 477.014 345.9 476.689 345.9 476.344ZM348.925 474.503C348.975 474.803 349 475.106 349 475.411L349 477.069C349 477.192 348.994 477.311 348.983 477.428C348.978 477.55 348.969 477.672 348.958 477.794C349.347 477.717 349.667 477.522 349.917 477.211C350.172 476.9 350.3 476.547 350.3 476.153C350.3 475.747 350.164 475.392 349.892 475.086C349.625 474.781 349.303 474.586 348.925 474.503ZM345.933 482.021C345.933 481.565 346.047 481.149 346.275 480.771C346.508 480.393 346.819 480.09 347.208 479.862C347.597 479.64 348.028 479.529 348.5 479.529C348.972 479.529 349.403 479.64 349.792 479.862C350.181 480.09 350.489 480.393 350.717 480.771C350.95 481.149 351.067 481.565 351.067 482.021C351.067 482.365 351.003 482.687 350.875 482.987C350.747 483.293 350.569 483.557 350.342 483.779L351 483.779L351 484.612L346 484.612L346 483.779L346.658 483.779C346.436 483.557 346.258 483.293 346.125 482.987C345.997 482.687 345.933 482.365 345.933 482.021ZM346.75 482.137C346.75 482.454 346.828 482.74 346.983 482.996C347.144 483.257 347.356 483.462 347.617 483.612C347.883 483.768 348.178 483.846 348.5 483.846C348.822 483.846 349.114 483.768 349.375 483.612C349.642 483.462 349.853 483.257 350.008 482.996C350.169 482.74 350.25 482.454 350.25 482.137C350.25 481.821 350.169 481.532 350.008 481.271C349.853 481.015 349.642 480.81 349.375 480.654C349.114 480.504 348.822 480.429 348.5 480.429C348.178 480.429 347.883 480.504 347.617 480.654C347.356 480.81 347.144 481.015 346.983 481.271C346.828 481.532 346.75 481.821 346.75 482.137ZM346 486.791L350.25 486.791L350.25 485.657L351 485.657L351 486.816L352.667 486.816L352.667 487.666L351 487.666L351 488.907L350.25 488.907L350.25 487.691L346 487.691L346 486.791ZM346 489.957L351 489.957L351 490.857L346 490.857L346 489.957ZM351.9 490.407C351.9 490.241 351.958 490.099 352.075 489.982C352.192 489.866 352.333 489.807 352.5 489.807C352.672 489.807 352.814 489.866 352.925 489.982C353.042 490.099 353.1 490.241 353.1 490.407C353.1 490.579 353.042 490.721 352.925 490.832C352.814 490.949 352.672 491.007 352.5 491.007C352.333 491.007 352.192 490.949 352.075 490.832C351.958 490.721 351.9 490.579 351.9 490.407ZM346 492.453L351 492.453L351 493.287L350.192 493.287C350.486 493.47 350.711 493.706 350.867 493.995C351.022 494.289 351.1 494.606 351.1 494.945C351.1 495.301 351.011 495.628 350.833 495.928C350.661 496.234 350.408 496.481 350.075 496.67C349.747 496.859 349.347 496.953 348.875 496.953L346 496.953L346 496.053L348.75 496.053C349.144 496.053 349.492 495.934 349.792 495.695C350.097 495.462 350.25 495.131 350.25 494.703C350.25 494.353 350.122 494.039 349.867 493.762C349.617 493.489 349.253 493.353 348.775 493.353L346 493.353L346 492.453ZM343.4 500.478C343.4 500.095 343.456 499.745 343.567 499.428C343.678 499.117 343.831 498.839 344.025 498.595L345.042 498.845C344.803 499.012 344.608 499.234 344.458 499.512C344.308 499.789 344.233 500.109 344.233 500.47C344.233 501.031 344.403 501.484 344.742 501.828C345.081 502.178 345.517 502.353 346.05 502.353L346.658 502.353C346.436 502.131 346.258 501.867 346.125 501.562C345.997 501.262 345.933 500.939 345.933 500.595C345.933 500.139 346.047 499.723 346.275 499.345C346.508 498.967 346.819 498.664 347.208 498.437C347.597 498.214 348.028 498.103 348.5 498.103C348.972 498.103 349.403 498.214 349.792 498.437C350.181 498.664 350.489 498.967 350.717 499.345C350.95 499.723 351.067 500.139 351.067 500.595C351.067 500.939 351.003 501.262 350.875 501.562C350.747 501.867 350.569 502.131 350.342 502.353L351 502.353L351 503.187L346 503.187C345.456 503.187 344.989 503.059 344.6 502.803C344.211 502.553 343.914 502.223 343.708 501.812C343.503 501.401 343.4 500.956 343.4 500.478ZM346.75 500.712C346.75 501.028 346.828 501.314 346.983 501.57C347.144 501.831 347.356 502.037 347.617 502.187C347.883 502.342 348.178 502.42 348.5 502.42C348.822 502.42 349.114 502.342 349.375 502.187C349.642 502.037 349.853 501.831 350.008 501.57C350.169 501.314 350.25 501.028 350.25 500.712C350.25 500.395 350.169 500.106 350.008 499.845C349.853 499.589 349.642 499.384 349.375 499.228C349.114 499.078 348.822 499.003 348.5 499.003C348.178 499.003 347.883 499.078 347.617 499.228C347.356 499.384 347.144 499.589 346.983 499.845C346.828 500.106 346.75 500.395 346.75 500.712Z" fill="black"/>
<path opacity="0.8" d="M41.75 429.008L49.5 426.117L49.5 427.083L45 428.783C44.844 428.844 44.694 428.894 44.55 428.933C44.411 428.972 44.244 429.014 44.05 429.058C44.244 429.103 44.411 429.144 44.55 429.183C44.694 429.228 44.844 429.278 45 429.333L49.75 431.05L45 432.758C44.861 432.808 44.719 432.855 44.575 432.9C44.436 432.95 44.261 432.994 44.05 433.033C44.261 433.078 44.436 433.122 44.575 433.167C44.719 433.211 44.861 433.261 45 433.317L49.5 435.017L49.5 435.917L41.75 433.033L46.617 431.3C46.761 431.25 46.9 431.203 47.033 431.158C47.172 431.114 47.347 431.069 47.558 431.025C47.347 430.98 47.172 430.936 47.033 430.892C46.9 430.847 46.761 430.8 46.617 430.75L41.75 429.008ZM42 436.813L47 436.813L47 437.713L42 437.713L42 436.813ZM47.9 437.263C47.9 437.096 47.958 436.954 48.075 436.838C48.192 436.721 48.333 436.663 48.5 436.663C48.672 436.663 48.814 436.721 48.925 436.838C49.042 436.954 49.1 437.096 49.1 437.263C49.1 437.435 49.042 437.577 48.925 437.688C48.814 437.804 48.672 437.863 48.5 437.863C48.333 437.863 48.192 437.804 48.075 437.688C47.958 437.577 47.9 437.435 47.9 437.263ZM42 439.309L47 439.309L47 440.142L46.192 440.142C46.486 440.325 46.711 440.562 46.867 440.85C47.022 441.145 47.1 441.462 47.1 441.8C47.1 442.156 47.011 442.484 46.833 442.784C46.661 443.089 46.408 443.337 46.075 443.525C45.747 443.714 45.347 443.809 44.875 443.809L42 443.809L42 442.909L44.75 442.909C45.144 442.909 45.492 442.789 45.792 442.55C46.097 442.317 46.25 441.987 46.25 441.559C46.25 441.209 46.122 440.895 45.867 440.617C45.617 440.345 45.253 440.209 44.775 440.209L42 440.209L42 439.309ZM41.933 447.45C41.933 446.995 42.047 446.578 42.275 446.2C42.508 445.823 42.819 445.52 43.208 445.292C43.597 445.07 44.028 444.959 44.5 444.959C44.972 444.959 45.403 445.07 45.792 445.292C46.181 445.52 46.489 445.823 46.717 446.2C46.95 446.578 47.067 446.995 47.067 447.45C47.067 447.778 47.008 448.087 46.892 448.375C46.775 448.664 46.614 448.92 46.408 449.142L50 449.142L50 450.042L42 450.042L42 449.209L42.658 449.209C42.436 448.987 42.258 448.723 42.125 448.417C41.997 448.117 41.933 447.795 41.933 447.45ZM42.75 447.567C42.75 447.884 42.828 448.17 42.983 448.425C43.144 448.687 43.356 448.892 43.617 449.042C43.883 449.198 44.178 449.275 44.5 449.275C44.822 449.275 45.114 449.198 45.375 449.042C45.642 448.892 45.853 448.687 46.008 448.425C46.169 448.17 46.25 447.884 46.25 447.567C46.25 447.25 46.169 446.962 46.008 446.7C45.853 446.445 45.642 446.239 45.375 446.084C45.114 445.934 44.822 445.859 44.5 445.859C44.178 445.859 43.883 445.934 43.617 446.084C43.356 446.239 43.144 446.445 42.983 446.7C42.828 446.962 42.75 447.25 42.75 447.567ZM41.9 453.92C41.9 453.437 42.017 452.995 42.25 452.595C42.483 452.195 42.797 451.876 43.192 451.637C43.586 451.404 44.022 451.287 44.5 451.287C44.983 451.287 45.419 451.404 45.808 451.637C46.203 451.876 46.517 452.195 46.75 452.595C46.983 452.995 47.1 453.437 47.1 453.92C47.1 454.409 46.983 454.851 46.75 455.245C46.517 455.645 46.203 455.962 45.808 456.195C45.419 456.434 44.983 456.554 44.5 456.554C44.022 456.554 43.586 456.434 43.192 456.195C42.797 455.962 42.483 455.645 42.25 455.245C42.017 454.851 41.9 454.409 41.9 453.92ZM42.75 453.92C42.75 454.242 42.828 454.534 42.983 454.795C43.144 455.056 43.356 455.265 43.617 455.42C43.883 455.576 44.178 455.654 44.5 455.654C44.822 455.654 45.114 455.576 45.375 455.42C45.642 455.265 45.853 455.056 46.008 454.795C46.169 454.534 46.25 454.242 46.25 453.92C46.25 453.598 46.169 453.306 46.008 453.045C45.853 452.784 45.642 452.576 45.375 452.42C45.114 452.265 44.822 452.187 44.5 452.187C44.178 452.187 43.883 452.265 43.617 452.42C43.356 452.576 43.144 452.784 42.983 453.045C42.828 453.306 42.75 453.598 42.75 453.92ZM41.75 459.462L47 456.937L47 457.962L44.833 458.97C44.628 459.065 44.428 459.154 44.233 459.237C44.039 459.326 43.794 459.412 43.5 459.495C43.789 459.584 44.033 459.673 44.233 459.762C44.433 459.856 44.633 459.945 44.833 460.029L47.233 461.037L44.833 462.037C44.628 462.12 44.428 462.206 44.233 462.295C44.039 462.384 43.794 462.47 43.5 462.554C43.794 462.637 44.039 462.723 44.233 462.812C44.433 462.901 44.633 462.992 44.833 463.087L47 464.112L47 465.07L41.75 462.545L43.983 461.529C44.183 461.44 44.381 461.351 44.575 461.262C44.775 461.179 45.014 461.092 45.292 461.004C45.014 460.92 44.775 460.834 44.575 460.745C44.381 460.656 44.183 460.565 43.983 460.47L41.75 459.462ZM41.9 470.332C41.9 469.887 41.989 469.484 42.167 469.123C42.344 468.768 42.561 468.484 42.817 468.273L43.967 468.548C43.656 468.704 43.375 468.937 43.125 469.248C42.875 469.559 42.75 469.932 42.75 470.365C42.75 470.759 42.875 471.084 43.125 471.34C43.375 471.601 43.683 471.732 44.05 471.732C44.317 471.732 44.536 471.668 44.708 471.54C44.881 471.412 45.017 471.268 45.117 471.107C45.217 470.946 45.289 470.818 45.333 470.723L45.8 469.807C45.878 469.662 45.986 469.482 46.125 469.265C46.264 469.054 46.456 468.868 46.7 468.707C46.944 468.546 47.261 468.465 47.65 468.465C48.028 468.465 48.364 468.551 48.658 468.723C48.953 468.901 49.183 469.146 49.35 469.457C49.517 469.773 49.6 470.134 49.6 470.54C49.6 470.94 49.528 471.293 49.383 471.598C49.244 471.904 49.1 472.143 48.95 472.315L47.8 472.04C48.033 471.901 48.253 471.696 48.458 471.423C48.664 471.151 48.767 470.843 48.767 470.498C48.767 470.165 48.667 469.898 48.467 469.698C48.272 469.498 48.031 469.398 47.742 469.398C47.519 469.398 47.336 469.448 47.192 469.548C47.047 469.654 46.933 469.771 46.85 469.898C46.767 470.032 46.703 470.14 46.658 470.223L46.192 471.157C46.136 471.268 46.058 471.407 45.958 471.573C45.858 471.746 45.725 471.915 45.558 472.082C45.397 472.248 45.197 472.387 44.958 472.498C44.725 472.609 44.442 472.665 44.108 472.665C43.681 472.665 43.3 472.562 42.967 472.357C42.633 472.157 42.372 471.882 42.183 471.532C41.994 471.182 41.9 470.782 41.9 470.332ZM41.9 476.344C41.9 475.822 42.017 475.353 42.25 474.936C42.483 474.525 42.8 474.2 43.2 473.961C43.606 473.728 44.056 473.611 44.55 473.611C45.022 473.611 45.45 473.725 45.833 473.953C46.222 474.181 46.531 474.486 46.758 474.869C46.986 475.258 47.1 475.686 47.1 476.153C47.1 476.614 46.989 477.036 46.767 477.419C46.55 477.803 46.256 478.108 45.883 478.336C45.511 478.564 45.089 478.678 44.617 478.678L44.25 478.678L44.25 475.411C44.25 475.267 44.256 475.119 44.267 474.969C44.278 474.819 44.294 474.672 44.317 474.528C43.872 474.589 43.5 474.789 43.2 475.128C42.9 475.472 42.75 475.881 42.75 476.353C42.75 476.669 42.822 476.964 42.967 477.236C43.111 477.508 43.303 477.728 43.542 477.894L42.517 478.144C42.322 477.906 42.169 477.631 42.058 477.319C41.953 477.014 41.9 476.689 41.9 476.344ZM44.925 474.503C44.975 474.803 45 475.106 45 475.411L45 477.069C45 477.192 44.994 477.311 44.983 477.428C44.978 477.55 44.969 477.672 44.958 477.794C45.347 477.717 45.667 477.522 45.917 477.211C46.172 476.9 46.3 476.547 46.3 476.153C46.3 475.747 46.164 475.392 45.892 475.086C45.625 474.781 45.303 474.586 44.925 474.503ZM41.933 482.021C41.933 481.565 42.047 481.149 42.275 480.771C42.508 480.393 42.819 480.09 43.208 479.862C43.597 479.64 44.028 479.529 44.5 479.529C44.972 479.529 45.403 479.64 45.792 479.862C46.181 480.09 46.489 480.393 46.717 480.771C46.95 481.149 47.067 481.565 47.067 482.021C47.067 482.365 47.003 482.687 46.875 482.987C46.747 483.293 46.569 483.557 46.342 483.779L47 483.779L47 484.612L42 484.612L42 483.779L42.658 483.779C42.436 483.557 42.258 483.293 42.125 482.987C41.997 482.687 41.933 482.365 41.933 482.021ZM42.75 482.137C42.75 482.454 42.828 482.74 42.983 482.996C43.144 483.257 43.356 483.462 43.617 483.612C43.883 483.768 44.178 483.846 44.5 483.846C44.822 483.846 45.114 483.768 45.375 483.612C45.642 483.462 45.853 483.257 46.008 482.996C46.169 482.74 46.25 482.454 46.25 482.137C46.25 481.821 46.169 481.532 46.008 481.271C45.853 481.015 45.642 480.81 45.375 480.654C45.114 480.504 44.822 480.429 44.5 480.429C44.178 480.429 43.883 480.504 43.617 480.654C43.356 480.81 43.144 481.015 42.983 481.271C42.828 481.532 42.75 481.821 42.75 482.137ZM42 486.791L46.25 486.791L46.25 485.657L47 485.657L47 486.816L48.667 486.816L48.667 487.666L47 487.666L47 488.907L46.25 488.907L46.25 487.691L42 487.691L42 486.791ZM42 489.957L47 489.957L47 490.857L42 490.857L42 489.957ZM47.9 490.407C47.9 490.241 47.958 490.099 48.075 489.982C48.192 489.866 48.333 489.807 48.5 489.807C48.672 489.807 48.814 489.866 48.925 489.982C49.042 490.099 49.1 490.241 49.1 490.407C49.1 490.579 49.042 490.721 48.925 490.832C48.814 490.949 48.672 491.007 48.5 491.007C48.333 491.007 48.192 490.949 48.075 490.832C47.958 490.721 47.9 490.579 47.9 490.407ZM42 492.453L47 492.453L47 493.287L46.192 493.287C46.486 493.47 46.711 493.706 46.867 493.995C47.022 494.289 47.1 494.606 47.1 494.945C47.1 495.301 47.011 495.628 46.833 495.928C46.661 496.234 46.408 496.481 46.075 496.67C45.747 496.859 45.347 496.953 44.875 496.953L42 496.953L42 496.053L44.75 496.053C45.144 496.053 45.492 495.934 45.792 495.695C46.097 495.462 46.25 495.131 46.25 494.703C46.25 494.353 46.122 494.039 45.867 493.762C45.617 493.489 45.253 493.353 44.775 493.353L42 493.353L42 492.453ZM39.4 500.478C39.4 500.095 39.456 499.745 39.567 499.428C39.678 499.117 39.831 498.839 40.025 498.595L41.042 498.845C40.803 499.012 40.608 499.234 40.458 499.512C40.308 499.789 40.233 500.109 40.233 500.47C40.233 501.031 40.403 501.484 40.742 501.828C41.081 502.178 41.517 502.353 42.05 502.353L42.658 502.353C42.436 502.131 42.258 501.867 42.125 501.562C41.997 501.262 41.933 500.939 41.933 500.595C41.933 500.139 42.047 499.723 42.275 499.345C42.508 498.967 42.819 498.664 43.208 498.437C43.597 498.214 44.028 498.103 44.5 498.103C44.972 498.103 45.403 498.214 45.792 498.437C46.181 498.664 46.489 498.967 46.717 499.345C46.95 499.723 47.067 500.139 47.067 500.595C47.067 500.939 47.003 501.262 46.875 501.562C46.747 501.867 46.569 502.131 46.342 502.353L47 502.353L47 503.187L42 503.187C41.456 503.187 40.989 503.059 40.6 502.803C40.211 502.553 39.914 502.223 39.708 501.812C39.503 501.401 39.4 500.956 39.4 500.478ZM42.75 500.712C42.75 501.028 42.828 501.314 42.983 501.57C43.144 501.831 43.356 502.037 43.617 502.187C43.883 502.342 44.178 502.42 44.5 502.42C44.822 502.42 45.114 502.342 45.375 502.187C45.642 502.037 45.853 501.831 46.008 501.57C46.169 501.314 46.25 501.028 46.25 500.712C46.25 500.395 46.169 500.106 46.008 499.845C45.853 499.589 45.642 499.384 45.375 499.228C45.114 499.078 44.822 499.003 44.5 499.003C44.178 499.003 43.883 499.078 43.617 499.228C43.356 499.384 43.144 499.589 42.983 499.845C42.828 500.106 42.75 500.395 42.75 500.712Z" fill="black"/>
<path opacity="0.6" d="M0.499868 236.752C0.499871 159.871 41.8159 88.921 108.681 50.977L171.33 15.4256C187.561 6.21489 207.439 6.21488 223.671 15.4256L286.319 50.977C353.184 88.921 394.5 159.871 394.5 236.752L394.5 779.474C394.5 808.76 370.76 832.5 341.474 832.5L53.5258 832.5C24.2408 832.5 0.499843 808.76 0.499844 779.474L0.499868 236.752Z" stroke="black"/>
<path opacity="0.6" d="M9.49999 240.985C9.49999 164.849 50.026 94.4685 115.873 56.2479L171.381 24.0288C187.841 14.4747 208.159 14.4747 224.619 24.0289L280.127 56.2479C345.974 94.4685 386.5 164.849 386.5 240.985L386.5 769.974C386.5 799.26 362.76 823 333.474 823L62.526 823C33.24 823 9.49997 799.26 9.49997 769.974L9.49999 240.985Z" stroke="black"/>
<path d="M10 236.5L386 236.5" stroke="#BEBEBE"/>
<path d="M10 691.5L386 691.5" stroke="#BEBEBE"/>
</g>
<defs>
<clipPath id="clip0_559_2520">
<rect width="833" height="395" fill="white" transform="translate(395) rotate(90)"/>
</clipPath>
</defs>
</svg>
