<svg width="395" height="833" viewBox="0 0 395 833" fill="none" xmlns="http://www.w3.org/2000/svg">
<g clip-path="url(#clip0_559_2568)">
<path opacity="0.6" d="M394.5 236.752L394.5 779.474C394.5 808.76 370.76 832.5 341.474 832.5L53.526 832.5C24.24 832.5 0.499965 808.76 0.499966 779.474L0.49999 236.752C0.499993 159.871 41.816 88.921 108.681 50.977L171.33 15.4256C187.561 6.21489 207.439 6.21488 223.67 15.4256L286.319 50.977C353.184 88.921 394.5 159.871 394.5 236.752Z" stroke="black"/>
<path d="M386.5 687L386.5 234" stroke="#BEBEBE"/>
<path opacity="0.6" d="M9.49999 245.722C9.49999 169.403 50.219 98.8821 116.317 60.728L171.491 28.8792C187.895 19.4101 208.105 19.4101 224.509 28.8792L279.683 60.728C345.781 98.8821 386.5 169.403 386.5 245.722L386.5 770.474C386.5 799.76 362.76 823.5 333.474 823.5L62.526 823.5C33.24 823.5 9.49997 799.76 9.49997 770.474L9.49999 245.722Z" stroke="black"/>
<g opacity="0.6">
<path d="M362 687L386 687L386 233L362 233L362 687Z" fill="black" fill-opacity="0.1"/>
<path d="M362 687L362 687.5L361.5 687.5L361.5 687L362 687ZM362 233L361.5 233L361.5 232.5L362 232.5L362 233ZM362 686.5L386 686.5L386 687.5L362 687.5L362 686.5ZM386 233.5L362 233.5L362 232.5L386 232.5L386 233.5ZM362.5 233L362.5 687L361.5 687L361.5 233L362.5 233Z" fill="#A5A5A5"/>
</g>
<path opacity="0.8" d="M370.85 419.88C370.85 419.341 370.95 418.832 371.15 418.355C371.356 417.882 371.636 417.466 371.992 417.105C372.347 416.749 372.761 416.468 373.233 416.263C373.706 416.063 374.211 415.963 374.75 415.963C375.289 415.963 375.794 416.063 376.267 416.263C376.739 416.468 377.153 416.749 377.508 417.105C377.864 417.466 378.142 417.882 378.342 418.355C378.547 418.832 378.65 419.341 378.65 419.88C378.65 420.424 378.547 420.932 378.342 421.405C378.142 421.877 377.864 422.291 377.508 422.646C377.153 423.007 376.739 423.288 376.267 423.488C375.794 423.693 375.289 423.796 374.75 423.796C374.211 423.796 373.706 423.693 373.233 423.488C372.761 423.288 372.347 423.007 371.992 422.646C371.636 422.291 371.356 421.877 371.15 421.405C370.95 420.932 370.85 420.424 370.85 419.88ZM371.75 419.88C371.75 420.43 371.883 420.927 372.15 421.371C372.422 421.816 372.786 422.166 373.242 422.421C373.697 422.682 374.2 422.813 374.75 422.813C375.306 422.813 375.808 422.682 376.258 422.421C376.714 422.166 377.075 421.816 377.342 421.371C377.614 420.927 377.75 420.43 377.75 419.88C377.75 419.33 377.614 418.832 377.342 418.388C377.075 417.949 376.714 417.599 376.258 417.338C375.808 417.077 375.306 416.946 374.75 416.946C374.2 416.946 373.697 417.077 373.242 417.338C372.786 417.599 372.422 417.949 372.15 418.388C371.883 418.832 371.75 419.33 371.75 419.88ZM368.5 425.099L376 425.099L376 425.932L375.342 425.932C375.569 426.16 375.747 426.424 375.875 426.724C376.003 427.024 376.067 427.346 376.067 427.69C376.067 428.152 375.95 428.568 375.717 428.94C375.489 429.318 375.181 429.618 374.792 429.84C374.403 430.068 373.972 430.182 373.5 430.182C373.028 430.182 372.597 430.068 372.208 429.84C371.819 429.618 371.508 429.318 371.275 428.94C371.047 428.568 370.933 428.152 370.933 427.69C370.933 427.363 370.992 427.054 371.108 426.765C371.225 426.477 371.386 426.221 371.592 425.999L368.5 425.999L368.5 425.099ZM371.75 427.574C371.75 427.89 371.828 428.177 371.983 428.432C372.144 428.693 372.356 428.899 372.617 429.049C372.883 429.204 373.178 429.282 373.5 429.282C373.822 429.282 374.114 429.204 374.375 429.049C374.642 428.899 374.853 428.693 375.008 428.432C375.169 428.177 375.25 427.89 375.25 427.574C375.25 427.257 375.169 426.968 375.008 426.707C374.853 426.452 374.642 426.246 374.375 426.09C374.114 425.94 373.822 425.865 373.5 425.865C373.178 425.865 372.883 425.94 372.617 426.09C372.356 426.246 372.144 426.452 371.983 426.707C371.828 426.968 371.75 427.257 371.75 427.574ZM370.9 433.81C370.9 433.288 371.017 432.819 371.25 432.402C371.483 431.991 371.8 431.666 372.2 431.427C372.606 431.194 373.056 431.077 373.55 431.077C374.022 431.077 374.45 431.191 374.833 431.419C375.222 431.646 375.531 431.952 375.758 432.335C375.986 432.724 376.1 433.152 376.1 433.619C376.1 434.08 375.989 434.502 375.767 434.885C375.55 435.269 375.256 435.574 374.883 435.802C374.511 436.03 374.089 436.144 373.617 436.144L373.25 436.144L373.25 432.877C373.25 432.733 373.256 432.585 373.267 432.435C373.278 432.285 373.294 432.138 373.317 431.994C372.872 432.055 372.5 432.255 372.2 432.594C371.9 432.938 371.75 433.346 371.75 433.819C371.75 434.135 371.822 434.43 371.967 434.702C372.111 434.974 372.303 435.194 372.542 435.36L371.517 435.61C371.322 435.371 371.169 435.096 371.058 434.785C370.953 434.48 370.9 434.155 370.9 433.81ZM373.925 431.969C373.975 432.269 374 432.571 374 432.877L374 434.535C374 434.658 373.994 434.777 373.983 434.894C373.978 435.016 373.969 435.138 373.958 435.26C374.347 435.183 374.667 434.988 374.917 434.677C375.172 434.366 375.3 434.013 375.3 433.619C375.3 433.213 375.164 432.858 374.892 432.552C374.625 432.246 374.303 432.052 373.925 431.969ZM371 437.345L376 437.345L376 438.178L375.192 438.178C375.486 438.362 375.711 438.598 375.867 438.887C376.022 439.181 376.1 439.498 376.1 439.837C376.1 440.192 376.011 440.52 375.833 440.82C375.661 441.125 375.408 441.373 375.075 441.562C374.747 441.75 374.347 441.845 373.875 441.845L371 441.845L371 440.945L373.75 440.945C374.144 440.945 374.492 440.825 374.792 440.587C375.097 440.353 375.25 440.023 375.25 439.595C375.25 439.245 375.122 438.931 374.867 438.653C374.617 438.381 374.253 438.245 373.775 438.245L371 438.245L371 437.345ZM370.933 447.983C370.933 447.527 371.047 447.11 371.275 446.733C371.508 446.355 371.819 446.052 372.208 445.824C372.597 445.602 373.028 445.491 373.5 445.491C373.972 445.491 374.403 445.602 374.792 445.824C375.181 446.052 375.489 446.355 375.717 446.733C375.95 447.11 376.067 447.527 376.067 447.983C376.067 448.31 376.008 448.619 375.892 448.908C375.775 449.197 375.614 449.452 375.408 449.674L379 449.674L379 450.574L371 450.574L371 449.741L371.658 449.741C371.436 449.519 371.258 449.255 371.125 448.949C370.997 448.649 370.933 448.327 370.933 447.983ZM371.75 448.099C371.75 448.416 371.828 448.702 371.983 448.958C372.144 449.219 372.356 449.424 372.617 449.574C372.883 449.73 373.178 449.808 373.5 449.808C373.822 449.808 374.114 449.73 374.375 449.574C374.642 449.424 374.853 449.219 375.008 448.958C375.169 448.702 375.25 448.416 375.25 448.099C375.25 447.783 375.169 447.494 375.008 447.233C374.853 446.977 374.642 446.772 374.375 446.616C374.114 446.466 373.822 446.391 373.5 446.391C373.178 446.391 372.883 446.466 372.617 446.616C372.356 446.772 372.144 446.977 371.983 447.233C371.828 447.494 371.75 447.783 371.75 448.099ZM370.9 454.552C370.9 454.03 371.017 453.561 371.25 453.144C371.483 452.733 371.8 452.408 372.2 452.169C372.606 451.936 373.056 451.819 373.55 451.819C374.022 451.819 374.45 451.933 374.833 452.161C375.222 452.389 375.531 452.694 375.758 453.077C375.986 453.466 376.1 453.894 376.1 454.361C376.1 454.822 375.989 455.244 375.767 455.627C375.55 456.011 375.256 456.316 374.883 456.544C374.511 456.772 374.089 456.886 373.617 456.886L373.25 456.886L373.25 453.619C373.25 453.475 373.256 453.327 373.267 453.177C373.278 453.027 373.294 452.88 373.317 452.736C372.872 452.797 372.5 452.997 372.2 453.336C371.9 453.68 371.75 454.089 371.75 454.561C371.75 454.877 371.822 455.172 371.967 455.444C372.111 455.716 372.303 455.936 372.542 456.102L371.517 456.352C371.322 456.114 371.169 455.839 371.058 455.527C370.953 455.222 370.9 454.897 370.9 454.552ZM373.925 452.711C373.975 453.011 374 453.314 374 453.619L374 455.277C374 455.4 373.994 455.519 373.983 455.636C373.978 455.758 373.969 455.88 373.958 456.002C374.347 455.925 374.667 455.73 374.917 455.419C375.172 455.108 375.3 454.755 375.3 454.361C375.3 453.955 375.164 453.6 374.892 453.294C374.625 452.989 374.303 452.794 373.925 452.711ZM370.9 460.387C370.9 459.898 371.017 459.454 371.25 459.054C371.483 458.654 371.797 458.334 372.192 458.095C372.586 457.857 373.022 457.737 373.5 457.737C373.978 457.737 374.414 457.857 374.808 458.095C375.203 458.334 375.517 458.654 375.75 459.054C375.983 459.454 376.1 459.898 376.1 460.387C376.1 460.748 376.036 461.087 375.908 461.404C375.781 461.72 375.611 461.998 375.4 462.237L374.267 461.962C374.544 461.823 374.778 461.612 374.967 461.329C375.156 461.051 375.25 460.734 375.25 460.379C375.25 460.057 375.169 459.762 375.008 459.495C374.853 459.234 374.642 459.026 374.375 458.87C374.114 458.715 373.822 458.637 373.5 458.637C373.183 458.637 372.892 458.715 372.625 458.87C372.358 459.026 372.144 459.234 371.983 459.495C371.828 459.762 371.75 460.057 371.75 460.379C371.75 460.734 371.842 461.051 372.025 461.329C372.208 461.612 372.444 461.823 372.733 461.962L371.6 462.237C371.389 461.998 371.219 461.72 371.092 461.404C370.964 461.087 370.9 460.748 370.9 460.387ZM371 466.595L373.75 464.337L376 466.195L376 467.237L373.817 465.412L371 467.737L371 466.595ZM371 463.337L379 463.337L379 464.237L371 464.237L371 463.337ZM370.933 473.225C370.933 472.769 371.047 472.353 371.275 471.975C371.508 471.597 371.819 471.294 372.208 471.067C372.597 470.844 373.028 470.733 373.5 470.733C373.972 470.733 374.403 470.844 374.792 471.067C375.181 471.294 375.489 471.597 375.717 471.975C375.95 472.353 376.067 472.769 376.067 473.225C376.067 473.569 376.003 473.892 375.875 474.192C375.747 474.497 375.569 474.761 375.342 474.983L376 474.983L376 475.817L371 475.817L371 474.983L371.658 474.983C371.436 474.761 371.258 474.497 371.125 474.192C370.997 473.892 370.933 473.569 370.933 473.225ZM371.75 473.342C371.75 473.658 371.828 473.944 371.983 474.2C372.144 474.461 372.356 474.667 372.617 474.817C372.883 474.972 373.178 475.05 373.5 475.05C373.822 475.05 374.114 474.972 374.375 474.817C374.642 474.667 374.853 474.461 375.008 474.2C375.169 473.944 375.25 473.658 375.25 473.342C375.25 473.025 375.169 472.736 375.008 472.475C374.853 472.219 374.642 472.014 374.375 471.858C374.114 471.708 373.822 471.633 373.5 471.633C373.178 471.633 372.883 471.708 372.617 471.858C372.356 472.014 372.144 472.219 371.983 472.475C371.828 472.736 371.75 473.025 371.75 473.342ZM370.9 479.711C370.9 479.222 371.017 478.778 371.25 478.378C371.483 477.978 371.797 477.659 372.192 477.42C372.586 477.181 373.022 477.061 373.5 477.061C373.978 477.061 374.414 477.181 374.808 477.42C375.203 477.659 375.517 477.978 375.75 478.378C375.983 478.778 376.1 479.222 376.1 479.711C376.1 480.072 376.036 480.411 375.908 480.728C375.781 481.045 375.611 481.322 375.4 481.561L374.267 481.286C374.544 481.147 374.778 480.936 374.967 480.653C375.156 480.375 375.25 480.059 375.25 479.703C375.25 479.381 375.169 479.086 375.008 478.82C374.853 478.559 374.642 478.35 374.375 478.195C374.114 478.039 373.822 477.961 373.5 477.961C373.183 477.961 372.892 478.039 372.625 478.195C372.358 478.35 372.144 478.559 371.983 478.82C371.828 479.086 371.75 479.381 371.75 479.703C371.75 480.059 371.842 480.375 372.025 480.653C372.208 480.936 372.444 481.147 372.733 481.286L371.6 481.561C371.389 481.322 371.219 481.045 371.092 480.728C370.964 480.411 370.9 480.072 370.9 479.711ZM370.9 484.961C370.9 484.472 371.017 484.028 371.25 483.628C371.483 483.228 371.797 482.909 372.192 482.67C372.586 482.431 373.022 482.311 373.5 482.311C373.978 482.311 374.414 482.431 374.808 482.67C375.203 482.909 375.517 483.228 375.75 483.628C375.983 484.028 376.1 484.472 376.1 484.961C376.1 485.322 376.036 485.661 375.908 485.978C375.781 486.295 375.611 486.572 375.4 486.811L374.267 486.536C374.544 486.397 374.778 486.186 374.967 485.903C375.156 485.625 375.25 485.309 375.25 484.953C375.25 484.631 375.169 484.336 375.008 484.07C374.853 483.809 374.642 483.6 374.375 483.445C374.114 483.289 373.822 483.211 373.5 483.211C373.183 483.211 372.892 483.289 372.625 483.445C372.358 483.6 372.144 483.809 371.983 484.07C371.828 484.336 371.75 484.631 371.75 484.953C371.75 485.309 371.842 485.625 372.025 485.903C372.208 486.186 372.444 486.397 372.733 486.536L371.6 486.811C371.389 486.572 371.219 486.295 371.092 485.978C370.964 485.661 370.9 485.322 370.9 484.961ZM370.9 490.295C370.9 489.772 371.017 489.303 371.25 488.886C371.483 488.475 371.8 488.15 372.2 487.911C372.606 487.678 373.056 487.561 373.55 487.561C374.022 487.561 374.45 487.675 374.833 487.903C375.222 488.131 375.531 488.436 375.758 488.82C375.986 489.209 376.1 489.636 376.1 490.103C376.1 490.564 375.989 490.986 375.767 491.37C375.55 491.753 375.256 492.059 374.883 492.286C374.511 492.514 374.089 492.628 373.617 492.628L373.25 492.628L373.25 489.361C373.25 489.217 373.256 489.07 373.267 488.92C373.278 488.77 373.294 488.622 373.317 488.478C372.872 488.539 372.5 488.739 372.2 489.078C371.9 489.422 371.75 489.831 371.75 490.303C371.75 490.62 371.822 490.914 371.967 491.186C372.111 491.459 372.303 491.678 372.542 491.845L371.517 492.095C371.322 491.856 371.169 491.581 371.058 491.27C370.953 490.964 370.9 490.639 370.9 490.295ZM373.925 488.453C373.975 488.753 374 489.056 374 489.361L374 491.02C374 491.142 373.994 491.261 373.983 491.378C373.978 491.5 373.969 491.622 373.958 491.745C374.347 491.667 374.667 491.472 374.917 491.161C375.172 490.85 375.3 490.497 375.3 490.103C375.3 489.697 375.164 489.342 374.892 489.036C374.625 488.731 374.303 488.536 373.925 488.453ZM370.9 495.121C370.9 494.865 370.947 494.59 371.042 494.296C371.142 494.007 371.306 493.757 371.533 493.546L372.517 493.796C372.256 493.952 372.047 494.152 371.892 494.396C371.742 494.64 371.667 494.902 371.667 495.179C371.667 495.446 371.731 495.646 371.858 495.779C371.992 495.913 372.153 495.979 372.342 495.979C372.558 495.979 372.717 495.907 372.817 495.763C372.917 495.624 372.986 495.499 373.025 495.388L373.283 494.713C373.333 494.59 373.406 494.443 373.5 494.271C373.6 494.099 373.742 493.949 373.925 493.821C374.108 493.693 374.347 493.629 374.642 493.629C374.908 493.629 375.153 493.693 375.375 493.821C375.597 493.949 375.772 494.129 375.9 494.363C376.033 494.596 376.1 494.871 376.1 495.188C376.1 495.438 376.056 495.699 375.967 495.971C375.878 496.243 375.728 496.474 375.517 496.663L374.533 496.413C374.778 496.279 374.972 496.099 375.117 495.871C375.261 495.643 375.333 495.407 375.333 495.163C375.333 494.935 375.269 494.754 375.142 494.621C375.014 494.493 374.867 494.429 374.7 494.429C374.567 494.429 374.447 494.474 374.342 494.563C374.236 494.652 374.15 494.785 374.083 494.963L373.825 495.638C373.781 495.76 373.708 495.91 373.608 496.088C373.508 496.271 373.364 496.432 373.175 496.571C372.986 496.71 372.731 496.779 372.408 496.779C371.958 496.779 371.594 496.621 371.317 496.304C371.039 495.993 370.9 495.599 370.9 495.121ZM370.9 499.375C370.9 499.119 370.947 498.844 371.042 498.55C371.142 498.261 371.306 498.011 371.533 497.8L372.517 498.05C372.256 498.205 372.047 498.405 371.892 498.65C371.742 498.894 371.667 499.155 371.667 499.433C371.667 499.7 371.731 499.9 371.858 500.033C371.992 500.167 372.153 500.233 372.342 500.233C372.558 500.233 372.717 500.161 372.817 500.017C372.917 499.878 372.986 499.753 373.025 499.642L373.283 498.967C373.333 498.844 373.406 498.697 373.5 498.525C373.6 498.353 373.742 498.203 373.925 498.075C374.108 497.947 374.347 497.883 374.642 497.883C374.908 497.883 375.153 497.947 375.375 498.075C375.597 498.203 375.772 498.383 375.9 498.617C376.033 498.85 376.1 499.125 376.1 499.442C376.1 499.692 376.056 499.953 375.967 500.225C375.878 500.497 375.728 500.728 375.517 500.917L374.533 500.667C374.778 500.533 374.972 500.353 375.117 500.125C375.261 499.897 375.333 499.661 375.333 499.417C375.333 499.189 375.269 499.008 375.142 498.875C375.014 498.747 374.867 498.683 374.7 498.683C374.567 498.683 374.447 498.728 374.342 498.817C374.236 498.905 374.15 499.039 374.083 499.217L373.825 499.892C373.781 500.014 373.708 500.164 373.608 500.342C373.508 500.525 373.364 500.686 373.175 500.825C372.986 500.964 372.731 501.033 372.408 501.033C371.958 501.033 371.594 500.875 371.317 500.558C371.039 500.247 370.9 499.853 370.9 499.375Z" fill="black"/>
<g opacity="0.6">
<path d="M338 687L362 687L362 233L358 233C346.954 233 338 241.954 338 253L338 687Z" fill="#C1F6E1"/>
<path d="M337.5 687.5L362 687.5L362 686.5L338.5 686.5L337.5 687.5ZM362 232.5L358 232.5C346.678 232.5 337.5 241.678 337.5 253L338.5 253C338.5 242.23 347.231 233.5 358 233.5L362 233.5L362 232.5ZM358 232.5C346.678 232.5 337.5 241.678 337.5 253L337.5 687.5L338.5 686.5L338.5 253C338.5 242.23 347.231 233.5 358 233.5L358 232.5Z" fill="#A5A5A5"/>
</g>
<path opacity="0.8" d="M345.75 424.008L353.5 421.117L353.5 422.083L349 423.783C348.844 423.844 348.694 423.894 348.55 423.933C348.411 423.972 348.244 424.014 348.05 424.058C348.244 424.103 348.411 424.144 348.55 424.183C348.694 424.228 348.844 424.278 349 424.333L353.75 426.05L349 427.758C348.861 427.808 348.719 427.855 348.575 427.9C348.436 427.95 348.261 427.994 348.05 428.033C348.261 428.078 348.436 428.122 348.575 428.167C348.719 428.211 348.861 428.261 349 428.317L353.5 430.017L353.5 430.917L345.75 428.033L350.617 426.3C350.761 426.25 350.9 426.203 351.033 426.158C351.172 426.114 351.347 426.069 351.558 426.025C351.347 425.98 351.172 425.936 351.033 425.892C350.9 425.847 350.761 425.8 350.617 425.75L345.75 424.008ZM346 431.813L351 431.813L351 432.713L346 432.713L346 431.813ZM351.9 432.263C351.9 432.096 351.958 431.954 352.075 431.838C352.192 431.721 352.333 431.663 352.5 431.663C352.672 431.663 352.814 431.721 352.925 431.838C353.042 431.954 353.1 432.096 353.1 432.263C353.1 432.435 353.042 432.577 352.925 432.688C352.814 432.804 352.672 432.863 352.5 432.863C352.333 432.863 352.192 432.804 352.075 432.688C351.958 432.577 351.9 432.435 351.9 432.263ZM346 434.309L351 434.309L351 435.142L350.192 435.142C350.486 435.325 350.711 435.562 350.867 435.85C351.022 436.145 351.1 436.462 351.1 436.8C351.1 437.156 351.011 437.484 350.833 437.784C350.661 438.089 350.408 438.337 350.075 438.525C349.747 438.714 349.347 438.809 348.875 438.809L346 438.809L346 437.909L348.75 437.909C349.144 437.909 349.492 437.789 349.792 437.55C350.097 437.317 350.25 436.987 350.25 436.559C350.25 436.209 350.122 435.895 349.867 435.617C349.617 435.345 349.253 435.209 348.775 435.209L346 435.209L346 434.309ZM345.933 442.45C345.933 441.995 346.047 441.578 346.275 441.2C346.508 440.823 346.819 440.52 347.208 440.292C347.597 440.07 348.028 439.959 348.5 439.959C348.972 439.959 349.403 440.07 349.792 440.292C350.181 440.52 350.489 440.823 350.717 441.2C350.95 441.578 351.067 441.995 351.067 442.45C351.067 442.778 351.008 443.087 350.892 443.375C350.775 443.664 350.614 443.92 350.408 444.142L354 444.142L354 445.042L346 445.042L346 444.209L346.658 444.209C346.436 443.987 346.258 443.723 346.125 443.417C345.997 443.117 345.933 442.795 345.933 442.45ZM346.75 442.567C346.75 442.884 346.828 443.17 346.983 443.425C347.144 443.687 347.356 443.892 347.617 444.042C347.883 444.198 348.178 444.275 348.5 444.275C348.822 444.275 349.114 444.198 349.375 444.042C349.642 443.892 349.853 443.687 350.008 443.425C350.169 443.17 350.25 442.884 350.25 442.567C350.25 442.25 350.169 441.962 350.008 441.7C349.853 441.445 349.642 441.239 349.375 441.084C349.114 440.934 348.822 440.859 348.5 440.859C348.178 440.859 347.883 440.934 347.617 441.084C347.356 441.239 347.144 441.445 346.983 441.7C346.828 441.962 346.75 442.25 346.75 442.567ZM345.9 448.92C345.9 448.437 346.017 447.995 346.25 447.595C346.483 447.195 346.797 446.876 347.192 446.637C347.586 446.404 348.022 446.287 348.5 446.287C348.983 446.287 349.419 446.404 349.808 446.637C350.203 446.876 350.517 447.195 350.75 447.595C350.983 447.995 351.1 448.437 351.1 448.92C351.1 449.409 350.983 449.851 350.75 450.245C350.517 450.645 350.203 450.962 349.808 451.195C349.419 451.434 348.983 451.554 348.5 451.554C348.022 451.554 347.586 451.434 347.192 451.195C346.797 450.962 346.483 450.645 346.25 450.245C346.017 449.851 345.9 449.409 345.9 448.92ZM346.75 448.92C346.75 449.242 346.828 449.534 346.983 449.795C347.144 450.056 347.356 450.265 347.617 450.42C347.883 450.576 348.178 450.654 348.5 450.654C348.822 450.654 349.114 450.576 349.375 450.42C349.642 450.265 349.853 450.056 350.008 449.795C350.169 449.534 350.25 449.242 350.25 448.92C350.25 448.598 350.169 448.306 350.008 448.045C349.853 447.784 349.642 447.576 349.375 447.42C349.114 447.265 348.822 447.187 348.5 447.187C348.178 447.187 347.883 447.265 347.617 447.42C347.356 447.576 347.144 447.784 346.983 448.045C346.828 448.306 346.75 448.598 346.75 448.92ZM345.75 454.462L351 451.937L351 452.962L348.833 453.97C348.628 454.065 348.428 454.154 348.233 454.237C348.039 454.326 347.794 454.412 347.5 454.495C347.789 454.584 348.033 454.673 348.233 454.762C348.433 454.856 348.633 454.945 348.833 455.029L351.233 456.037L348.833 457.037C348.628 457.12 348.428 457.206 348.233 457.295C348.039 457.384 347.794 457.47 347.5 457.554C347.794 457.637 348.039 457.723 348.233 457.812C348.433 457.901 348.633 457.992 348.833 458.087L351 459.112L351 460.07L345.75 457.545L347.983 456.529C348.183 456.44 348.381 456.351 348.575 456.262C348.775 456.179 349.014 456.092 349.292 456.004C349.014 455.92 348.775 455.834 348.575 455.745C348.381 455.656 348.183 455.565 347.983 455.47L345.75 454.462ZM345.9 465.332C345.9 464.887 345.989 464.484 346.167 464.123C346.344 463.768 346.561 463.484 346.817 463.273L347.967 463.548C347.656 463.704 347.375 463.937 347.125 464.248C346.875 464.559 346.75 464.932 346.75 465.365C346.75 465.759 346.875 466.084 347.125 466.34C347.375 466.601 347.683 466.732 348.05 466.732C348.317 466.732 348.536 466.668 348.708 466.54C348.881 466.412 349.017 466.268 349.117 466.107C349.217 465.946 349.289 465.818 349.333 465.723L349.8 464.807C349.878 464.662 349.986 464.482 350.125 464.265C350.264 464.054 350.456 463.868 350.7 463.707C350.944 463.546 351.261 463.465 351.65 463.465C352.028 463.465 352.364 463.551 352.658 463.723C352.953 463.901 353.183 464.146 353.35 464.457C353.517 464.773 353.6 465.134 353.6 465.54C353.6 465.94 353.528 466.293 353.383 466.598C353.244 466.904 353.1 467.143 352.95 467.315L351.8 467.04C352.033 466.901 352.253 466.696 352.458 466.423C352.664 466.151 352.767 465.843 352.767 465.498C352.767 465.165 352.667 464.898 352.467 464.698C352.272 464.498 352.031 464.398 351.742 464.398C351.519 464.398 351.336 464.448 351.192 464.548C351.047 464.654 350.933 464.771 350.85 464.898C350.767 465.032 350.703 465.14 350.658 465.223L350.192 466.157C350.136 466.268 350.058 466.407 349.958 466.573C349.858 466.746 349.725 466.915 349.558 467.082C349.397 467.248 349.197 467.387 348.958 467.498C348.725 467.609 348.442 467.665 348.108 467.665C347.681 467.665 347.3 467.562 346.967 467.357C346.633 467.157 346.372 466.882 346.183 466.532C345.994 466.182 345.9 465.782 345.9 465.332ZM345.9 471.344C345.9 470.822 346.017 470.353 346.25 469.936C346.483 469.525 346.8 469.2 347.2 468.961C347.606 468.728 348.056 468.611 348.55 468.611C349.022 468.611 349.45 468.725 349.833 468.953C350.222 469.181 350.531 469.486 350.758 469.869C350.986 470.258 351.1 470.686 351.1 471.153C351.1 471.614 350.989 472.036 350.767 472.419C350.55 472.803 350.256 473.108 349.883 473.336C349.511 473.564 349.089 473.678 348.617 473.678L348.25 473.678L348.25 470.411C348.25 470.267 348.256 470.119 348.267 469.969C348.278 469.819 348.294 469.672 348.317 469.528C347.872 469.589 347.5 469.789 347.2 470.128C346.9 470.472 346.75 470.881 346.75 471.353C346.75 471.669 346.822 471.964 346.967 472.236C347.111 472.508 347.303 472.728 347.542 472.894L346.517 473.144C346.322 472.906 346.169 472.631 346.058 472.319C345.953 472.014 345.9 471.689 345.9 471.344ZM348.925 469.503C348.975 469.803 349 470.106 349 470.411L349 472.069C349 472.192 348.994 472.311 348.983 472.428C348.978 472.55 348.969 472.672 348.958 472.794C349.347 472.717 349.667 472.522 349.917 472.211C350.172 471.9 350.3 471.547 350.3 471.153C350.3 470.747 350.164 470.392 349.892 470.086C349.625 469.781 349.303 469.586 348.925 469.503ZM345.933 477.021C345.933 476.565 346.047 476.149 346.275 475.771C346.508 475.393 346.819 475.09 347.208 474.862C347.597 474.64 348.028 474.529 348.5 474.529C348.972 474.529 349.403 474.64 349.792 474.862C350.181 475.09 350.489 475.393 350.717 475.771C350.95 476.149 351.067 476.565 351.067 477.021C351.067 477.365 351.003 477.687 350.875 477.987C350.747 478.293 350.569 478.557 350.342 478.779L351 478.779L351 479.612L346 479.612L346 478.779L346.658 478.779C346.436 478.557 346.258 478.293 346.125 477.987C345.997 477.687 345.933 477.365 345.933 477.021ZM346.75 477.137C346.75 477.454 346.828 477.74 346.983 477.996C347.144 478.257 347.356 478.462 347.617 478.612C347.883 478.768 348.178 478.846 348.5 478.846C348.822 478.846 349.114 478.768 349.375 478.612C349.642 478.462 349.853 478.257 350.008 477.996C350.169 477.74 350.25 477.454 350.25 477.137C350.25 476.821 350.169 476.532 350.008 476.271C349.853 476.015 349.642 475.81 349.375 475.654C349.114 475.504 348.822 475.429 348.5 475.429C348.178 475.429 347.883 475.504 347.617 475.654C347.356 475.81 347.144 476.015 346.983 476.271C346.828 476.532 346.75 476.821 346.75 477.137ZM346 481.791L350.25 481.791L350.25 480.657L351 480.657L351 481.816L352.667 481.816L352.667 482.666L351 482.666L351 483.907L350.25 483.907L350.25 482.691L346 482.691L346 481.791ZM346 484.957L351 484.957L351 485.857L346 485.857L346 484.957ZM351.9 485.407C351.9 485.241 351.958 485.099 352.075 484.982C352.192 484.866 352.333 484.807 352.5 484.807C352.672 484.807 352.814 484.866 352.925 484.982C353.042 485.099 353.1 485.241 353.1 485.407C353.1 485.579 353.042 485.721 352.925 485.832C352.814 485.949 352.672 486.007 352.5 486.007C352.333 486.007 352.192 485.949 352.075 485.832C351.958 485.721 351.9 485.579 351.9 485.407ZM346 487.453L351 487.453L351 488.287L350.192 488.287C350.486 488.47 350.711 488.706 350.867 488.995C351.022 489.289 351.1 489.606 351.1 489.945C351.1 490.301 351.011 490.628 350.833 490.928C350.661 491.234 350.408 491.481 350.075 491.67C349.747 491.859 349.347 491.953 348.875 491.953L346 491.953L346 491.053L348.75 491.053C349.144 491.053 349.492 490.934 349.792 490.695C350.097 490.462 350.25 490.131 350.25 489.703C350.25 489.353 350.122 489.039 349.867 488.762C349.617 488.489 349.253 488.353 348.775 488.353L346 488.353L346 487.453ZM343.4 495.478C343.4 495.095 343.456 494.745 343.567 494.428C343.678 494.117 343.831 493.839 344.025 493.595L345.042 493.845C344.803 494.012 344.608 494.234 344.458 494.512C344.308 494.789 344.233 495.109 344.233 495.47C344.233 496.031 344.403 496.484 344.742 496.828C345.081 497.178 345.517 497.353 346.05 497.353L346.658 497.353C346.436 497.131 346.258 496.867 346.125 496.562C345.997 496.262 345.933 495.939 345.933 495.595C345.933 495.139 346.047 494.723 346.275 494.345C346.508 493.967 346.819 493.664 347.208 493.437C347.597 493.214 348.028 493.103 348.5 493.103C348.972 493.103 349.403 493.214 349.792 493.437C350.181 493.664 350.489 493.967 350.717 494.345C350.95 494.723 351.067 495.139 351.067 495.595C351.067 495.939 351.003 496.262 350.875 496.562C350.747 496.867 350.569 497.131 350.342 497.353L351 497.353L351 498.187L346 498.187C345.456 498.187 344.989 498.059 344.6 497.803C344.211 497.553 343.914 497.223 343.708 496.812C343.503 496.401 343.4 495.956 343.4 495.478ZM346.75 495.712C346.75 496.028 346.828 496.314 346.983 496.57C347.144 496.831 347.356 497.037 347.617 497.187C347.883 497.342 348.178 497.42 348.5 497.42C348.822 497.42 349.114 497.342 349.375 497.187C349.642 497.037 349.853 496.831 350.008 496.57C350.169 496.314 350.25 496.028 350.25 495.712C350.25 495.395 350.169 495.106 350.008 494.845C349.853 494.589 349.642 494.384 349.375 494.228C349.114 494.078 348.822 494.003 348.5 494.003C348.178 494.003 347.883 494.078 347.617 494.228C347.356 494.384 347.144 494.589 346.983 494.845C346.828 495.106 346.75 495.395 346.75 495.712Z" fill="black"/>
<g opacity="0.6">
<path d="M57 687L33 687L33 233L37 233C48.046 233 57 241.954 57 253L57 687Z" fill="#C1F6E1"/>
<path d="M57.5 687.5L33 687.5L33 686.5L56.5 686.5L57.5 687.5ZM33 232.5L37 232.5C48.322 232.5 57.5 241.678 57.5 253L56.5 253C56.5 242.23 47.77 233.5 37 233.5L33 233.5L33 232.5ZM37 232.5C48.322 232.5 57.5 241.678 57.5 253L57.5 687.5L56.5 686.5L56.5 253C56.5 242.23 47.77 233.5 37 233.5L37 232.5Z" fill="#A5A5A5"/>
</g>
<path opacity="0.8" d="M40.75 424.008L48.5 421.117L48.5 422.083L44 423.783C43.844 423.844 43.694 423.894 43.55 423.933C43.411 423.972 43.244 424.014 43.05 424.058C43.244 424.103 43.411 424.144 43.55 424.183C43.694 424.228 43.844 424.278 44 424.333L48.75 426.05L44 427.758C43.861 427.808 43.719 427.855 43.575 427.9C43.436 427.95 43.261 427.994 43.05 428.033C43.261 428.078 43.436 428.122 43.575 428.167C43.719 428.211 43.861 428.261 44 428.317L48.5 430.017L48.5 430.917L40.75 428.033L45.617 426.3C45.761 426.25 45.9 426.203 46.033 426.158C46.172 426.114 46.347 426.069 46.558 426.025C46.347 425.98 46.172 425.936 46.033 425.892C45.9 425.847 45.761 425.8 45.617 425.75L40.75 424.008ZM41 431.813L46 431.813L46 432.713L41 432.713L41 431.813ZM46.9 432.263C46.9 432.096 46.958 431.954 47.075 431.838C47.192 431.721 47.333 431.663 47.5 431.663C47.672 431.663 47.814 431.721 47.925 431.838C48.042 431.954 48.1 432.096 48.1 432.263C48.1 432.435 48.042 432.577 47.925 432.688C47.814 432.804 47.672 432.863 47.5 432.863C47.333 432.863 47.192 432.804 47.075 432.688C46.958 432.577 46.9 432.435 46.9 432.263ZM41 434.309L46 434.309L46 435.142L45.192 435.142C45.486 435.325 45.711 435.562 45.867 435.85C46.022 436.145 46.1 436.462 46.1 436.8C46.1 437.156 46.011 437.484 45.833 437.784C45.661 438.089 45.408 438.337 45.075 438.525C44.747 438.714 44.347 438.809 43.875 438.809L41 438.809L41 437.909L43.75 437.909C44.144 437.909 44.492 437.789 44.792 437.55C45.097 437.317 45.25 436.987 45.25 436.559C45.25 436.209 45.122 435.895 44.867 435.617C44.617 435.345 44.253 435.209 43.775 435.209L41 435.209L41 434.309ZM40.933 442.45C40.933 441.995 41.047 441.578 41.275 441.2C41.508 440.823 41.819 440.52 42.208 440.292C42.597 440.07 43.028 439.959 43.5 439.959C43.972 439.959 44.403 440.07 44.792 440.292C45.181 440.52 45.489 440.823 45.717 441.2C45.95 441.578 46.067 441.995 46.067 442.45C46.067 442.778 46.008 443.087 45.892 443.375C45.775 443.664 45.614 443.92 45.408 444.142L49 444.142L49 445.042L41 445.042L41 444.209L41.658 444.209C41.436 443.987 41.258 443.723 41.125 443.417C40.997 443.117 40.933 442.795 40.933 442.45ZM41.75 442.567C41.75 442.884 41.828 443.17 41.983 443.425C42.144 443.687 42.356 443.892 42.617 444.042C42.883 444.198 43.178 444.275 43.5 444.275C43.822 444.275 44.114 444.198 44.375 444.042C44.642 443.892 44.853 443.687 45.008 443.425C45.169 443.17 45.25 442.884 45.25 442.567C45.25 442.25 45.169 441.962 45.008 441.7C44.853 441.445 44.642 441.239 44.375 441.084C44.114 440.934 43.822 440.859 43.5 440.859C43.178 440.859 42.883 440.934 42.617 441.084C42.356 441.239 42.144 441.445 41.983 441.7C41.828 441.962 41.75 442.25 41.75 442.567ZM40.9 448.92C40.9 448.437 41.017 447.995 41.25 447.595C41.483 447.195 41.797 446.876 42.192 446.637C42.586 446.404 43.022 446.287 43.5 446.287C43.983 446.287 44.419 446.404 44.808 446.637C45.203 446.876 45.517 447.195 45.75 447.595C45.983 447.995 46.1 448.437 46.1 448.92C46.1 449.409 45.983 449.851 45.75 450.245C45.517 450.645 45.203 450.962 44.808 451.195C44.419 451.434 43.983 451.554 43.5 451.554C43.022 451.554 42.586 451.434 42.192 451.195C41.797 450.962 41.483 450.645 41.25 450.245C41.017 449.851 40.9 449.409 40.9 448.92ZM41.75 448.92C41.75 449.242 41.828 449.534 41.983 449.795C42.144 450.056 42.356 450.265 42.617 450.42C42.883 450.576 43.178 450.654 43.5 450.654C43.822 450.654 44.114 450.576 44.375 450.42C44.642 450.265 44.853 450.056 45.008 449.795C45.169 449.534 45.25 449.242 45.25 448.92C45.25 448.598 45.169 448.306 45.008 448.045C44.853 447.784 44.642 447.576 44.375 447.42C44.114 447.265 43.822 447.187 43.5 447.187C43.178 447.187 42.883 447.265 42.617 447.42C42.356 447.576 42.144 447.784 41.983 448.045C41.828 448.306 41.75 448.598 41.75 448.92ZM40.75 454.462L46 451.937L46 452.962L43.833 453.97C43.628 454.065 43.428 454.154 43.233 454.237C43.039 454.326 42.794 454.412 42.5 454.495C42.789 454.584 43.033 454.673 43.233 454.762C43.433 454.856 43.633 454.945 43.833 455.029L46.233 456.037L43.833 457.037C43.628 457.12 43.428 457.206 43.233 457.295C43.039 457.384 42.794 457.47 42.5 457.554C42.794 457.637 43.039 457.723 43.233 457.812C43.433 457.901 43.633 457.992 43.833 458.087L46 459.112L46 460.07L40.75 457.545L42.983 456.529C43.183 456.44 43.381 456.351 43.575 456.262C43.775 456.179 44.014 456.092 44.292 456.004C44.014 455.92 43.775 455.834 43.575 455.745C43.381 455.656 43.183 455.565 42.983 455.47L40.75 454.462ZM40.9 465.332C40.9 464.887 40.989 464.484 41.167 464.123C41.344 463.768 41.561 463.484 41.817 463.273L42.967 463.548C42.656 463.704 42.375 463.937 42.125 464.248C41.875 464.559 41.75 464.932 41.75 465.365C41.75 465.759 41.875 466.084 42.125 466.34C42.375 466.601 42.683 466.732 43.05 466.732C43.317 466.732 43.536 466.668 43.708 466.54C43.881 466.412 44.017 466.268 44.117 466.107C44.217 465.946 44.289 465.818 44.333 465.723L44.8 464.807C44.878 464.662 44.986 464.482 45.125 464.265C45.264 464.054 45.456 463.868 45.7 463.707C45.944 463.546 46.261 463.465 46.65 463.465C47.028 463.465 47.364 463.551 47.658 463.723C47.953 463.901 48.183 464.146 48.35 464.457C48.517 464.773 48.6 465.134 48.6 465.54C48.6 465.94 48.528 466.293 48.383 466.598C48.244 466.904 48.1 467.143 47.95 467.315L46.8 467.04C47.033 466.901 47.253 466.696 47.458 466.423C47.664 466.151 47.767 465.843 47.767 465.498C47.767 465.165 47.667 464.898 47.467 464.698C47.272 464.498 47.031 464.398 46.742 464.398C46.519 464.398 46.336 464.448 46.192 464.548C46.047 464.654 45.933 464.771 45.85 464.898C45.767 465.032 45.703 465.14 45.658 465.223L45.192 466.157C45.136 466.268 45.058 466.407 44.958 466.573C44.858 466.746 44.725 466.915 44.558 467.082C44.397 467.248 44.197 467.387 43.958 467.498C43.725 467.609 43.442 467.665 43.108 467.665C42.681 467.665 42.3 467.562 41.967 467.357C41.633 467.157 41.372 466.882 41.183 466.532C40.994 466.182 40.9 465.782 40.9 465.332ZM40.9 471.344C40.9 470.822 41.017 470.353 41.25 469.936C41.483 469.525 41.8 469.2 42.2 468.961C42.606 468.728 43.056 468.611 43.55 468.611C44.022 468.611 44.45 468.725 44.833 468.953C45.222 469.181 45.531 469.486 45.758 469.869C45.986 470.258 46.1 470.686 46.1 471.153C46.1 471.614 45.989 472.036 45.767 472.419C45.55 472.803 45.256 473.108 44.883 473.336C44.511 473.564 44.089 473.678 43.617 473.678L43.25 473.678L43.25 470.411C43.25 470.267 43.256 470.119 43.267 469.969C43.278 469.819 43.294 469.672 43.317 469.528C42.872 469.589 42.5 469.789 42.2 470.128C41.9 470.472 41.75 470.881 41.75 471.353C41.75 471.669 41.822 471.964 41.967 472.236C42.111 472.508 42.303 472.728 42.542 472.894L41.517 473.144C41.322 472.906 41.169 472.631 41.058 472.319C40.953 472.014 40.9 471.689 40.9 471.344ZM43.925 469.503C43.975 469.803 44 470.106 44 470.411L44 472.069C44 472.192 43.994 472.311 43.983 472.428C43.978 472.55 43.969 472.672 43.958 472.794C44.347 472.717 44.667 472.522 44.917 472.211C45.172 471.9 45.3 471.547 45.3 471.153C45.3 470.747 45.164 470.392 44.892 470.086C44.625 469.781 44.303 469.586 43.925 469.503ZM40.933 477.021C40.933 476.565 41.047 476.149 41.275 475.771C41.508 475.393 41.819 475.09 42.208 474.862C42.597 474.64 43.028 474.529 43.5 474.529C43.972 474.529 44.403 474.64 44.792 474.862C45.181 475.09 45.489 475.393 45.717 475.771C45.95 476.149 46.067 476.565 46.067 477.021C46.067 477.365 46.003 477.687 45.875 477.987C45.747 478.293 45.569 478.557 45.342 478.779L46 478.779L46 479.612L41 479.612L41 478.779L41.658 478.779C41.436 478.557 41.258 478.293 41.125 477.987C40.997 477.687 40.933 477.365 40.933 477.021ZM41.75 477.137C41.75 477.454 41.828 477.74 41.983 477.996C42.144 478.257 42.356 478.462 42.617 478.612C42.883 478.768 43.178 478.846 43.5 478.846C43.822 478.846 44.114 478.768 44.375 478.612C44.642 478.462 44.853 478.257 45.008 477.996C45.169 477.74 45.25 477.454 45.25 477.137C45.25 476.821 45.169 476.532 45.008 476.271C44.853 476.015 44.642 475.81 44.375 475.654C44.114 475.504 43.822 475.429 43.5 475.429C43.178 475.429 42.883 475.504 42.617 475.654C42.356 475.81 42.144 476.015 41.983 476.271C41.828 476.532 41.75 476.821 41.75 477.137ZM41 481.791L45.25 481.791L45.25 480.657L46 480.657L46 481.816L47.667 481.816L47.667 482.666L46 482.666L46 483.907L45.25 483.907L45.25 482.691L41 482.691L41 481.791ZM41 484.957L46 484.957L46 485.857L41 485.857L41 484.957ZM46.9 485.407C46.9 485.241 46.958 485.099 47.075 484.982C47.192 484.866 47.333 484.807 47.5 484.807C47.672 484.807 47.814 484.866 47.925 484.982C48.042 485.099 48.1 485.241 48.1 485.407C48.1 485.579 48.042 485.721 47.925 485.832C47.814 485.949 47.672 486.007 47.5 486.007C47.333 486.007 47.192 485.949 47.075 485.832C46.958 485.721 46.9 485.579 46.9 485.407ZM41 487.453L46 487.453L46 488.287L45.192 488.287C45.486 488.47 45.711 488.706 45.867 488.995C46.022 489.289 46.1 489.606 46.1 489.945C46.1 490.301 46.011 490.628 45.833 490.928C45.661 491.234 45.408 491.481 45.075 491.67C44.747 491.859 44.347 491.953 43.875 491.953L41 491.953L41 491.053L43.75 491.053C44.144 491.053 44.492 490.934 44.792 490.695C45.097 490.462 45.25 490.131 45.25 489.703C45.25 489.353 45.122 489.039 44.867 488.762C44.617 488.489 44.253 488.353 43.775 488.353L41 488.353L41 487.453ZM38.4 495.478C38.4 495.095 38.456 494.745 38.567 494.428C38.678 494.117 38.831 493.839 39.025 493.595L40.042 493.845C39.803 494.012 39.608 494.234 39.458 494.512C39.308 494.789 39.233 495.109 39.233 495.47C39.233 496.031 39.403 496.484 39.742 496.828C40.081 497.178 40.517 497.353 41.05 497.353L41.658 497.353C41.436 497.131 41.258 496.867 41.125 496.562C40.997 496.262 40.933 495.939 40.933 495.595C40.933 495.139 41.047 494.723 41.275 494.345C41.508 493.967 41.819 493.664 42.208 493.437C42.597 493.214 43.028 493.103 43.5 493.103C43.972 493.103 44.403 493.214 44.792 493.437C45.181 493.664 45.489 493.967 45.717 494.345C45.95 494.723 46.067 495.139 46.067 495.595C46.067 495.939 46.003 496.262 45.875 496.562C45.747 496.867 45.569 497.131 45.342 497.353L46 497.353L46 498.187L41 498.187C40.456 498.187 39.989 498.059 39.6 497.803C39.211 497.553 38.914 497.223 38.708 496.812C38.503 496.401 38.4 495.956 38.4 495.478ZM41.75 495.712C41.75 496.028 41.828 496.314 41.983 496.57C42.144 496.831 42.356 497.037 42.617 497.187C42.883 497.342 43.178 497.42 43.5 497.42C43.822 497.42 44.114 497.342 44.375 497.187C44.642 497.037 44.853 496.831 45.008 496.57C45.169 496.314 45.25 496.028 45.25 495.712C45.25 495.395 45.169 495.106 45.008 494.845C44.853 494.589 44.642 494.384 44.375 494.228C44.114 494.078 43.822 494.003 43.5 494.003C43.178 494.003 42.883 494.078 42.617 494.228C42.356 494.384 42.144 494.589 41.983 494.845C41.828 495.106 41.75 495.395 41.75 495.712Z" fill="black"/>
<g opacity="0.6">
<path d="M33 687L8.99998 687L9 233L33 233L33 687Z" fill="black" fill-opacity="0.1"/>
<path d="M33 687L33 687.5L33.5 687.5L33.5 687L33 687ZM33 233L33.5 233L33.5 232.5L33 232.5L33 233ZM33 686.5L8.99998 686.5L8.99998 687.5L33 687.5L33 686.5ZM9 233.5L33 233.5L33 232.5L9 232.5L9 233.5ZM32.5 233L32.5 687L33.5 687L33.5 233L32.5 233Z" fill="#A5A5A5"/>
</g>
<path opacity="0.8" d="M16.85 419.88C16.85 419.341 16.95 418.832 17.15 418.355C17.356 417.882 17.636 417.466 17.992 417.105C18.347 416.749 18.761 416.468 19.233 416.263C19.706 416.063 20.211 415.963 20.75 415.963C21.289 415.963 21.794 416.063 22.267 416.263C22.739 416.468 23.153 416.749 23.508 417.105C23.864 417.466 24.142 417.882 24.342 418.355C24.547 418.832 24.65 419.341 24.65 419.88C24.65 420.424 24.547 420.932 24.342 421.405C24.142 421.877 23.864 422.291 23.508 422.646C23.153 423.007 22.739 423.288 22.267 423.488C21.794 423.693 21.289 423.796 20.75 423.796C20.211 423.796 19.706 423.693 19.233 423.488C18.761 423.288 18.347 423.007 17.992 422.646C17.636 422.291 17.356 421.877 17.15 421.405C16.95 420.932 16.85 420.424 16.85 419.88ZM17.75 419.88C17.75 420.43 17.883 420.927 18.15 421.371C18.422 421.816 18.786 422.166 19.242 422.421C19.697 422.682 20.2 422.813 20.75 422.813C21.306 422.813 21.808 422.682 22.258 422.421C22.714 422.166 23.075 421.816 23.342 421.371C23.614 420.927 23.75 420.43 23.75 419.88C23.75 419.33 23.614 418.832 23.342 418.388C23.075 417.949 22.714 417.599 22.258 417.338C21.808 417.077 21.306 416.946 20.75 416.946C20.2 416.946 19.697 417.077 19.242 417.338C18.786 417.599 18.422 417.949 18.15 418.388C17.883 418.832 17.75 419.33 17.75 419.88ZM14.5 425.099L22 425.099L22 425.932L21.342 425.932C21.569 426.16 21.747 426.424 21.875 426.724C22.003 427.024 22.067 427.346 22.067 427.69C22.067 428.152 21.95 428.568 21.717 428.94C21.489 429.318 21.181 429.618 20.792 429.84C20.403 430.068 19.972 430.182 19.5 430.182C19.028 430.182 18.597 430.068 18.208 429.84C17.819 429.618 17.508 429.318 17.275 428.94C17.047 428.568 16.933 428.152 16.933 427.69C16.933 427.363 16.992 427.054 17.108 426.765C17.225 426.477 17.386 426.221 17.592 425.999L14.5 425.999L14.5 425.099ZM17.75 427.574C17.75 427.89 17.828 428.177 17.983 428.432C18.144 428.693 18.356 428.899 18.617 429.049C18.883 429.204 19.178 429.282 19.5 429.282C19.822 429.282 20.114 429.204 20.375 429.049C20.642 428.899 20.853 428.693 21.008 428.432C21.169 428.177 21.25 427.89 21.25 427.574C21.25 427.257 21.169 426.968 21.008 426.707C20.853 426.452 20.642 426.246 20.375 426.09C20.114 425.94 19.822 425.865 19.5 425.865C19.178 425.865 18.883 425.94 18.617 426.09C18.356 426.246 18.144 426.452 17.983 426.707C17.828 426.968 17.75 427.257 17.75 427.574ZM16.9 433.81C16.9 433.288 17.017 432.819 17.25 432.402C17.483 431.991 17.8 431.666 18.2 431.427C18.606 431.194 19.056 431.077 19.55 431.077C20.022 431.077 20.45 431.191 20.833 431.419C21.222 431.646 21.531 431.952 21.758 432.335C21.986 432.724 22.1 433.152 22.1 433.619C22.1 434.08 21.989 434.502 21.767 434.885C21.55 435.269 21.256 435.574 20.883 435.802C20.511 436.03 20.089 436.144 19.617 436.144L19.25 436.144L19.25 432.877C19.25 432.733 19.256 432.585 19.267 432.435C19.278 432.285 19.294 432.138 19.317 431.994C18.872 432.055 18.5 432.255 18.2 432.594C17.9 432.938 17.75 433.346 17.75 433.819C17.75 434.135 17.822 434.43 17.967 434.702C18.111 434.974 18.303 435.194 18.542 435.36L17.517 435.61C17.322 435.371 17.169 435.096 17.058 434.785C16.953 434.48 16.9 434.155 16.9 433.81ZM19.925 431.969C19.975 432.269 20 432.571 20 432.877L20 434.535C20 434.658 19.994 434.777 19.983 434.894C19.978 435.016 19.969 435.138 19.958 435.26C20.347 435.183 20.667 434.988 20.917 434.677C21.172 434.366 21.3 434.013 21.3 433.619C21.3 433.213 21.164 432.858 20.892 432.552C20.625 432.246 20.303 432.052 19.925 431.969ZM17 437.345L22 437.345L22 438.178L21.192 438.178C21.486 438.362 21.711 438.598 21.867 438.887C22.022 439.181 22.1 439.498 22.1 439.837C22.1 440.192 22.011 440.52 21.833 440.82C21.661 441.125 21.408 441.373 21.075 441.562C20.747 441.75 20.347 441.845 19.875 441.845L17 441.845L17 440.945L19.75 440.945C20.144 440.945 20.492 440.825 20.792 440.587C21.097 440.353 21.25 440.023 21.25 439.595C21.25 439.245 21.122 438.931 20.867 438.653C20.617 438.381 20.253 438.245 19.775 438.245L17 438.245L17 437.345ZM16.933 447.983C16.933 447.527 17.047 447.11 17.275 446.733C17.508 446.355 17.819 446.052 18.208 445.824C18.597 445.602 19.028 445.491 19.5 445.491C19.972 445.491 20.403 445.602 20.792 445.824C21.181 446.052 21.489 446.355 21.717 446.733C21.95 447.11 22.067 447.527 22.067 447.983C22.067 448.31 22.008 448.619 21.892 448.908C21.775 449.197 21.614 449.452 21.408 449.674L25 449.674L25 450.574L17 450.574L17 449.741L17.658 449.741C17.436 449.519 17.258 449.255 17.125 448.949C16.997 448.649 16.933 448.327 16.933 447.983ZM17.75 448.099C17.75 448.416 17.828 448.702 17.983 448.958C18.144 449.219 18.356 449.424 18.617 449.574C18.883 449.73 19.178 449.808 19.5 449.808C19.822 449.808 20.114 449.73 20.375 449.574C20.642 449.424 20.853 449.219 21.008 448.958C21.169 448.702 21.25 448.416 21.25 448.099C21.25 447.783 21.169 447.494 21.008 447.233C20.853 446.977 20.642 446.772 20.375 446.616C20.114 446.466 19.822 446.391 19.5 446.391C19.178 446.391 18.883 446.466 18.617 446.616C18.356 446.772 18.144 446.977 17.983 447.233C17.828 447.494 17.75 447.783 17.75 448.099ZM16.9 454.552C16.9 454.03 17.017 453.561 17.25 453.144C17.483 452.733 17.8 452.408 18.2 452.169C18.606 451.936 19.056 451.819 19.55 451.819C20.022 451.819 20.45 451.933 20.833 452.161C21.222 452.389 21.531 452.694 21.758 453.077C21.986 453.466 22.1 453.894 22.1 454.361C22.1 454.822 21.989 455.244 21.767 455.627C21.55 456.011 21.256 456.316 20.883 456.544C20.511 456.772 20.089 456.886 19.617 456.886L19.25 456.886L19.25 453.619C19.25 453.475 19.256 453.327 19.267 453.177C19.278 453.027 19.294 452.88 19.317 452.736C18.872 452.797 18.5 452.997 18.2 453.336C17.9 453.68 17.75 454.089 17.75 454.561C17.75 454.877 17.822 455.172 17.967 455.444C18.111 455.716 18.303 455.936 18.542 456.102L17.517 456.352C17.322 456.114 17.169 455.839 17.058 455.527C16.953 455.222 16.9 454.897 16.9 454.552ZM19.925 452.711C19.975 453.011 20 453.314 20 453.619L20 455.277C20 455.4 19.994 455.519 19.983 455.636C19.978 455.758 19.969 455.88 19.958 456.002C20.347 455.925 20.667 455.73 20.917 455.419C21.172 455.108 21.3 454.755 21.3 454.361C21.3 453.955 21.164 453.6 20.892 453.294C20.625 452.989 20.303 452.794 19.925 452.711ZM16.9 460.387C16.9 459.898 17.017 459.454 17.25 459.054C17.483 458.654 17.797 458.334 18.192 458.095C18.586 457.857 19.022 457.737 19.5 457.737C19.978 457.737 20.414 457.857 20.808 458.095C21.203 458.334 21.517 458.654 21.75 459.054C21.983 459.454 22.1 459.898 22.1 460.387C22.1 460.748 22.036 461.087 21.908 461.404C21.781 461.72 21.611 461.998 21.4 462.237L20.267 461.962C20.544 461.823 20.778 461.612 20.967 461.329C21.156 461.051 21.25 460.734 21.25 460.379C21.25 460.057 21.169 459.762 21.008 459.495C20.853 459.234 20.642 459.026 20.375 458.87C20.114 458.715 19.822 458.637 19.5 458.637C19.183 458.637 18.892 458.715 18.625 458.87C18.358 459.026 18.144 459.234 17.983 459.495C17.828 459.762 17.75 460.057 17.75 460.379C17.75 460.734 17.842 461.051 18.025 461.329C18.208 461.612 18.444 461.823 18.733 461.962L17.6 462.237C17.389 461.998 17.219 461.72 17.092 461.404C16.964 461.087 16.9 460.748 16.9 460.387ZM17 466.595L19.75 464.337L22 466.195L22 467.237L19.817 465.412L17 467.737L17 466.595ZM17 463.337L25 463.337L25 464.237L17 464.237L17 463.337ZM16.933 473.225C16.933 472.769 17.047 472.353 17.275 471.975C17.508 471.597 17.819 471.294 18.208 471.067C18.597 470.844 19.028 470.733 19.5 470.733C19.972 470.733 20.403 470.844 20.792 471.067C21.181 471.294 21.489 471.597 21.717 471.975C21.95 472.353 22.067 472.769 22.067 473.225C22.067 473.569 22.003 473.892 21.875 474.192C21.747 474.497 21.569 474.761 21.342 474.983L22 474.983L22 475.817L17 475.817L17 474.983L17.658 474.983C17.436 474.761 17.258 474.497 17.125 474.192C16.997 473.892 16.933 473.569 16.933 473.225ZM17.75 473.342C17.75 473.658 17.828 473.944 17.983 474.2C18.144 474.461 18.356 474.667 18.617 474.817C18.883 474.972 19.178 475.05 19.5 475.05C19.822 475.05 20.114 474.972 20.375 474.817C20.642 474.667 20.853 474.461 21.008 474.2C21.169 473.944 21.25 473.658 21.25 473.342C21.25 473.025 21.169 472.736 21.008 472.475C20.853 472.219 20.642 472.014 20.375 471.858C20.114 471.708 19.822 471.633 19.5 471.633C19.178 471.633 18.883 471.708 18.617 471.858C18.356 472.014 18.144 472.219 17.983 472.475C17.828 472.736 17.75 473.025 17.75 473.342ZM16.9 479.711C16.9 479.222 17.017 478.778 17.25 478.378C17.483 477.978 17.797 477.659 18.192 477.42C18.586 477.181 19.022 477.061 19.5 477.061C19.978 477.061 20.414 477.181 20.808 477.42C21.203 477.659 21.517 477.978 21.75 478.378C21.983 478.778 22.1 479.222 22.1 479.711C22.1 480.072 22.036 480.411 21.908 480.728C21.781 481.045 21.611 481.322 21.4 481.561L20.267 481.286C20.544 481.147 20.778 480.936 20.967 480.653C21.156 480.375 21.25 480.059 21.25 479.703C21.25 479.381 21.169 479.086 21.008 478.82C20.853 478.559 20.642 478.35 20.375 478.195C20.114 478.039 19.822 477.961 19.5 477.961C19.183 477.961 18.892 478.039 18.625 478.195C18.358 478.35 18.144 478.559 17.983 478.82C17.828 479.086 17.75 479.381 17.75 479.703C17.75 480.059 17.842 480.375 18.025 480.653C18.208 480.936 18.444 481.147 18.733 481.286L17.6 481.561C17.389 481.322 17.219 481.045 17.092 480.728C16.964 480.411 16.9 480.072 16.9 479.711ZM16.9 484.961C16.9 484.472 17.017 484.028 17.25 483.628C17.483 483.228 17.797 482.909 18.192 482.67C18.586 482.431 19.022 482.311 19.5 482.311C19.978 482.311 20.414 482.431 20.808 482.67C21.203 482.909 21.517 483.228 21.75 483.628C21.983 484.028 22.1 484.472 22.1 484.961C22.1 485.322 22.036 485.661 21.908 485.978C21.781 486.295 21.611 486.572 21.4 486.811L20.267 486.536C20.544 486.397 20.778 486.186 20.967 485.903C21.156 485.625 21.25 485.309 21.25 484.953C21.25 484.631 21.169 484.336 21.008 484.07C20.853 483.809 20.642 483.6 20.375 483.445C20.114 483.289 19.822 483.211 19.5 483.211C19.183 483.211 18.892 483.289 18.625 483.445C18.358 483.6 18.144 483.809 17.983 484.07C17.828 484.336 17.75 484.631 17.75 484.953C17.75 485.309 17.842 485.625 18.025 485.903C18.208 486.186 18.444 486.397 18.733 486.536L17.6 486.811C17.389 486.572 17.219 486.295 17.092 485.978C16.964 485.661 16.9 485.322 16.9 484.961ZM16.9 490.295C16.9 489.772 17.017 489.303 17.25 488.886C17.483 488.475 17.8 488.15 18.2 487.911C18.606 487.678 19.056 487.561 19.55 487.561C20.022 487.561 20.45 487.675 20.833 487.903C21.222 488.131 21.531 488.436 21.758 488.82C21.986 489.209 22.1 489.636 22.1 490.103C22.1 490.564 21.989 490.986 21.767 491.37C21.55 491.753 21.256 492.059 20.883 492.286C20.511 492.514 20.089 492.628 19.617 492.628L19.25 492.628L19.25 489.361C19.25 489.217 19.256 489.07 19.267 488.92C19.278 488.77 19.294 488.622 19.317 488.478C18.872 488.539 18.5 488.739 18.2 489.078C17.9 489.422 17.75 489.831 17.75 490.303C17.75 490.62 17.822 490.914 17.967 491.186C18.111 491.459 18.303 491.678 18.542 491.845L17.517 492.095C17.322 491.856 17.169 491.581 17.058 491.27C16.953 490.964 16.9 490.639 16.9 490.295ZM19.925 488.453C19.975 488.753 20 489.056 20 489.361L20 491.02C20 491.142 19.994 491.261 19.983 491.378C19.978 491.5 19.969 491.622 19.958 491.745C20.347 491.667 20.667 491.472 20.917 491.161C21.172 490.85 21.3 490.497 21.3 490.103C21.3 489.697 21.164 489.342 20.892 489.036C20.625 488.731 20.303 488.536 19.925 488.453ZM16.9 495.121C16.9 494.865 16.947 494.59 17.042 494.296C17.142 494.007 17.306 493.757 17.533 493.546L18.517 493.796C18.256 493.952 18.047 494.152 17.892 494.396C17.742 494.64 17.667 494.902 17.667 495.179C17.667 495.446 17.731 495.646 17.858 495.779C17.992 495.913 18.153 495.979 18.342 495.979C18.558 495.979 18.717 495.907 18.817 495.763C18.917 495.624 18.986 495.499 19.025 495.388L19.283 494.713C19.333 494.59 19.406 494.443 19.5 494.271C19.6 494.099 19.742 493.949 19.925 493.821C20.108 493.693 20.347 493.629 20.642 493.629C20.908 493.629 21.153 493.693 21.375 493.821C21.597 493.949 21.772 494.129 21.9 494.363C22.033 494.596 22.1 494.871 22.1 495.188C22.1 495.438 22.056 495.699 21.967 495.971C21.878 496.243 21.728 496.474 21.517 496.663L20.533 496.413C20.778 496.279 20.972 496.099 21.117 495.871C21.261 495.643 21.333 495.407 21.333 495.163C21.333 494.935 21.269 494.754 21.142 494.621C21.014 494.493 20.867 494.429 20.7 494.429C20.567 494.429 20.447 494.474 20.342 494.563C20.236 494.652 20.15 494.785 20.083 494.963L19.825 495.638C19.781 495.76 19.708 495.91 19.608 496.088C19.508 496.271 19.364 496.432 19.175 496.571C18.986 496.71 18.731 496.779 18.408 496.779C17.958 496.779 17.594 496.621 17.317 496.304C17.039 495.993 16.9 495.599 16.9 495.121ZM16.9 499.375C16.9 499.119 16.947 498.844 17.042 498.55C17.142 498.261 17.306 498.011 17.533 497.8L18.517 498.05C18.256 498.205 18.047 498.405 17.892 498.65C17.742 498.894 17.667 499.155 17.667 499.433C17.667 499.7 17.731 499.9 17.858 500.033C17.992 500.167 18.153 500.233 18.342 500.233C18.558 500.233 18.717 500.161 18.817 500.017C18.917 499.878 18.986 499.753 19.025 499.642L19.283 498.967C19.333 498.844 19.406 498.697 19.5 498.525C19.6 498.353 19.742 498.203 19.925 498.075C20.108 497.947 20.347 497.883 20.642 497.883C20.908 497.883 21.153 497.947 21.375 498.075C21.597 498.203 21.772 498.383 21.9 498.617C22.033 498.85 22.1 499.125 22.1 499.442C22.1 499.692 22.056 499.953 21.967 500.225C21.878 500.497 21.728 500.728 21.517 500.917L20.533 500.667C20.778 500.533 20.972 500.353 21.117 500.125C21.261 499.897 21.333 499.661 21.333 499.417C21.333 499.189 21.269 499.008 21.142 498.875C21.014 498.747 20.867 498.683 20.7 498.683C20.567 498.683 20.447 498.728 20.342 498.817C20.236 498.905 20.15 499.039 20.083 499.217L19.825 499.892C19.781 500.014 19.708 500.164 19.608 500.342C19.508 500.525 19.364 500.686 19.175 500.825C18.986 500.964 18.731 501.033 18.408 501.033C17.958 501.033 17.594 500.875 17.317 500.558C17.039 500.247 16.9 499.853 16.9 499.375Z" fill="black"/>
<path d="M9.49998 687L9.5 234" stroke="#BEBEBE"/>
</g>
<defs>
<clipPath id="clip0_559_2568">
<rect width="833" height="395" fill="white" transform="translate(395) rotate(90)"/>
</clipPath>
</defs>
</svg>
