<svg width="395" height="833" viewBox="0 0 395 833" fill="none" xmlns="http://www.w3.org/2000/svg">
<g clip-path="url(#clip0_593_143)">
<path opacity="0.6" d="M394.5 236.752L394.5 779.474C394.5 808.76 370.76 832.5 341.474 832.5L53.526 832.5C24.24 832.5 0.499965 808.76 0.499966 779.474L0.49999 236.752C0.499993 159.871 41.816 88.921 108.681 50.977L171.33 15.4256C187.561 6.21489 207.439 6.21488 223.67 15.4256L286.319 50.977C353.184 88.921 394.5 159.871 394.5 236.752Z" stroke="black"/>
<path opacity="0.6" d="M9.49999 245.722C9.49999 169.403 50.219 98.8821 116.317 60.728L171.491 28.8792C187.895 19.4101 208.105 19.4101 224.509 28.8792L279.683 60.728C345.781 98.8821 386.5 169.403 386.5 245.722L386.5 770.474C386.5 799.76 362.76 823.5 333.474 823.5L62.526 823.5C33.24 823.5 9.49997 799.76 9.49997 770.474L9.49999 245.722Z" stroke="black"/>
<g opacity="0.6">
<path d="M362 687L386 687L386 233L382 233C370.954 233 362 241.954 362 253L362 687Z" fill="#FFB2B2"/>
<path d="M361.5 687.5L386 687.5L386 686.5L362.5 686.5L361.5 687.5ZM386 232.5L382 232.5C370.678 232.5 361.5 241.678 361.5 253L362.5 253C362.5 242.23 371.231 233.5 382 233.5L386 233.5L386 232.5ZM382 232.5C370.678 232.5 361.5 241.678 361.5 253L361.5 687.5L362.5 686.5L362.5 253C362.5 242.23 371.231 233.5 382 233.5L382 232.5Z" fill="#621515"/>
</g>
<path d="M369 390.092L376.45 390.092L376.45 390.642L369.98 395.152L369.98 394.942L376.45 394.942L376.45 395.592L369 395.592L369 395.042L375.51 390.512L375.51 390.742L369 390.742L369 390.092ZM368.88 399.825C368.88 399.319 369 398.862 369.24 398.455C369.48 398.049 369.81 397.725 370.23 397.485C370.657 397.252 371.133 397.135 371.66 397.135C372.187 397.135 372.66 397.252 373.08 397.485C373.5 397.725 373.83 398.045 374.07 398.445C374.31 398.852 374.43 399.312 374.43 399.825C374.43 400.332 374.31 400.789 374.07 401.195C373.83 401.602 373.5 401.922 373.08 402.155C372.667 402.389 372.193 402.505 371.66 402.505C371.127 402.505 370.65 402.385 370.23 402.145C369.81 401.905 369.48 401.582 369.24 401.175C369 400.775 368.88 400.325 368.88 399.825ZM369.47 399.825C369.47 400.205 369.563 400.549 369.75 400.855C369.943 401.169 370.207 401.415 370.54 401.595C370.873 401.775 371.247 401.865 371.66 401.865C372.073 401.865 372.443 401.775 372.77 401.595C373.097 401.415 373.357 401.172 373.55 400.865C373.743 400.559 373.84 400.212 373.84 399.825C373.84 399.439 373.743 399.089 373.55 398.775C373.363 398.469 373.103 398.225 372.77 398.045C372.443 397.865 372.073 397.775 371.66 397.775C371.247 397.775 370.873 397.865 370.54 398.045C370.207 398.232 369.943 398.479 369.75 398.785C369.563 399.092 369.47 399.439 369.47 399.825ZM369 406.758L374.31 404.938L374.31 405.608L369.5 407.198L369.5 406.938L374.31 408.378L374.31 408.988L369.5 410.428L369.5 410.168L374.31 411.768L374.31 412.438L369 410.608L369 409.998L373.64 408.608L373.64 408.758L369 407.368L369 406.758ZM369 413.43L374.31 413.43L374.31 414.03L369 414.03L369 413.43ZM375.35 413.43L376.45 413.43L376.45 414.03L375.35 414.03L375.35 413.43ZM369 415.676L374.31 415.676L374.31 416.276L373.24 416.276L373.28 416.126C373.633 416.246 373.913 416.459 374.12 416.766C374.327 417.079 374.43 417.442 374.43 417.856C374.43 418.222 374.347 418.556 374.18 418.856C374.013 419.156 373.78 419.396 373.48 419.576C373.187 419.756 372.85 419.846 372.47 419.846L369 419.846L369 419.246L372.3 419.246C372.62 419.246 372.893 419.182 373.12 419.056C373.353 418.929 373.53 418.752 373.65 418.526C373.777 418.306 373.84 418.052 373.84 417.766C373.84 417.466 373.77 417.202 373.63 416.976C373.49 416.749 373.297 416.576 373.05 416.456C372.803 416.336 372.52 416.276 372.2 416.276L369 416.276L369 415.676ZM368.88 423.788C368.88 423.295 369 422.848 369.24 422.448C369.487 422.055 369.82 421.745 370.24 421.518C370.66 421.292 371.133 421.178 371.66 421.178C372.187 421.178 372.66 421.292 373.08 421.518C373.5 421.745 373.83 422.055 374.07 422.448C374.31 422.848 374.43 423.295 374.43 423.788C374.43 424.275 374.313 424.708 374.08 425.088C373.853 425.468 373.547 425.755 373.16 425.948L372.97 425.848L376.57 425.848L376.57 426.448L369 426.448L369 425.848L370.35 425.848L370.21 425.948C369.797 425.762 369.47 425.475 369.23 425.088C368.997 424.708 368.88 424.275 368.88 423.788ZM369.48 423.808C369.48 424.195 369.573 424.538 369.76 424.838C369.953 425.145 370.213 425.388 370.54 425.568C370.873 425.748 371.247 425.838 371.66 425.838C372.073 425.838 372.443 425.748 372.77 425.568C373.097 425.388 373.353 425.145 373.54 424.838C373.733 424.538 373.83 424.195 373.83 423.808C373.83 423.428 373.733 423.088 373.54 422.788C373.353 422.488 373.097 422.252 372.77 422.078C372.443 421.905 372.073 421.818 371.66 421.818C371.247 421.818 370.873 421.905 370.54 422.078C370.213 422.252 369.953 422.488 369.76 422.788C369.573 423.088 369.48 423.428 369.48 423.808ZM368.88 430.577C368.88 430.071 369 429.614 369.24 429.207C369.48 428.801 369.81 428.477 370.23 428.237C370.657 428.004 371.133 427.887 371.66 427.887C372.187 427.887 372.66 428.004 373.08 428.237C373.5 428.477 373.83 428.797 374.07 429.197C374.31 429.604 374.43 430.064 374.43 430.577C374.43 431.084 374.31 431.541 374.07 431.947C373.83 432.354 373.5 432.674 373.08 432.907C372.667 433.141 372.193 433.257 371.66 433.257C371.127 433.257 370.65 433.137 370.23 432.897C369.81 432.657 369.48 432.334 369.24 431.927C369 431.527 368.88 431.077 368.88 430.577ZM369.47 430.577C369.47 430.957 369.563 431.301 369.75 431.607C369.943 431.921 370.207 432.167 370.54 432.347C370.873 432.527 371.247 432.617 371.66 432.617C372.073 432.617 372.443 432.527 372.77 432.347C373.097 432.167 373.357 431.924 373.55 431.617C373.743 431.311 373.84 430.964 373.84 430.577C373.84 430.191 373.743 429.841 373.55 429.527C373.363 429.221 373.103 428.977 372.77 428.797C372.443 428.617 372.073 428.527 371.66 428.527C371.247 428.527 370.873 428.617 370.54 428.797C370.207 428.984 369.943 429.231 369.75 429.537C369.563 429.844 369.47 430.191 369.47 430.577ZM369 435.761L374.31 433.941L374.31 434.611L369.5 436.201L369.5 435.941L374.31 437.381L374.31 437.991L369.5 439.431L369.5 439.171L374.31 440.771L374.31 441.441L369 439.611L369 439.001L373.64 437.611L373.64 437.761L369 436.371L369 435.761ZM368.88 444.224C368.88 443.73 369.003 443.297 369.25 442.924C369.497 442.55 369.833 442.277 370.26 442.104L370.5 442.624C370.173 442.79 369.913 443.014 369.72 443.294C369.533 443.574 369.44 443.884 369.44 444.224C369.44 444.57 369.523 444.86 369.69 445.094C369.863 445.334 370.09 445.454 370.37 445.454C370.543 445.454 370.69 445.407 370.81 445.314C370.93 445.227 371.027 445.114 371.1 444.974C371.18 444.834 371.24 444.684 371.28 444.524L371.51 443.704C371.637 443.244 371.823 442.904 372.07 442.684C372.317 442.47 372.607 442.364 372.94 442.364C373.24 442.364 373.5 442.44 373.72 442.594C373.947 442.747 374.12 442.954 374.24 443.214C374.367 443.474 374.43 443.76 374.43 444.074C374.43 444.514 374.317 444.914 374.09 445.274C373.863 445.634 373.557 445.887 373.17 446.034L372.92 445.494C373.22 445.354 373.453 445.157 373.62 444.904C373.793 444.65 373.88 444.37 373.88 444.064C373.88 443.744 373.793 443.484 373.62 443.284C373.453 443.084 373.24 442.984 372.98 442.984C372.813 442.984 372.673 443.024 372.56 443.104C372.453 443.184 372.363 443.287 372.29 443.414C372.223 443.547 372.17 443.684 372.13 443.824L371.87 444.714C371.75 445.147 371.56 445.48 371.3 445.714C371.04 445.954 370.733 446.074 370.38 446.074C370.093 446.074 369.837 445.994 369.61 445.834C369.383 445.674 369.203 445.454 369.07 445.174C368.943 444.894 368.88 444.577 368.88 444.224ZM369 449.162L374.31 449.162L374.31 449.762L369 449.762L369 449.162ZM375.35 449.162L376.45 449.162L376.45 449.762L375.35 449.762L375.35 449.162ZM369 451.408L374.31 451.408L374.31 452.008L373.24 452.008L373.28 451.858C373.633 451.978 373.913 452.191 374.12 452.498C374.327 452.811 374.43 453.175 374.43 453.588C374.43 453.955 374.347 454.288 374.18 454.588C374.013 454.888 373.78 455.128 373.48 455.308C373.187 455.488 372.85 455.578 372.47 455.578L369 455.578L369 454.978L372.3 454.978C372.62 454.978 372.893 454.915 373.12 454.788C373.353 454.661 373.53 454.485 373.65 454.258C373.777 454.038 373.84 453.785 373.84 453.498C373.84 453.198 373.77 452.935 373.63 452.708C373.49 452.481 373.297 452.308 373.05 452.188C372.803 452.068 372.52 452.008 372.2 452.008L369 452.008L369 451.408ZM369 458.891L376.45 458.891L376.45 463.591L375.85 463.591L375.85 459.541L373.04 459.541L373.04 463.391L372.44 463.391L372.44 459.541L369.6 459.541L369.6 463.591L369 463.591L369 458.891ZM368.88 467.334C368.88 466.827 369 466.374 369.24 465.974C369.487 465.581 369.82 465.267 370.24 465.034C370.66 464.807 371.133 464.694 371.66 464.694C372.193 464.694 372.667 464.807 373.08 465.034C373.5 465.267 373.83 465.581 374.07 465.974C374.31 466.374 374.43 466.827 374.43 467.334C374.43 467.667 374.373 467.974 374.26 468.254C374.147 468.541 373.993 468.794 373.8 469.014C373.607 469.234 373.383 469.401 373.13 469.514L372.85 468.984C373.157 468.824 373.4 468.601 373.58 468.314C373.76 468.027 373.85 467.701 373.85 467.334C373.85 466.954 373.757 466.611 373.57 466.304C373.383 466.004 373.123 465.764 372.79 465.584C372.463 465.404 372.087 465.314 371.66 465.314C371.233 465.314 370.853 465.404 370.52 465.584C370.193 465.764 369.937 466.004 369.75 466.304C369.563 466.611 369.47 466.954 369.47 467.334C369.47 467.701 369.56 468.027 369.74 468.314C369.92 468.601 370.167 468.824 370.48 468.984L370.19 469.514C369.943 469.401 369.72 469.234 369.52 469.014C369.327 468.794 369.17 468.541 369.05 468.254C368.937 467.974 368.88 467.667 368.88 467.334ZM368.88 473.419C368.88 472.912 369 472.456 369.24 472.049C369.48 471.642 369.81 471.319 370.23 471.079C370.657 470.846 371.133 470.729 371.66 470.729C372.187 470.729 372.66 470.846 373.08 471.079C373.5 471.319 373.83 471.639 374.07 472.039C374.31 472.446 374.43 472.906 374.43 473.419C374.43 473.926 374.31 474.382 374.07 474.789C373.83 475.196 373.5 475.516 373.08 475.749C372.667 475.982 372.193 476.099 371.66 476.099C371.127 476.099 370.65 475.979 370.23 475.739C369.81 475.499 369.48 475.176 369.24 474.769C369 474.369 368.88 473.919 368.88 473.419ZM369.47 473.419C369.47 473.799 369.563 474.142 369.75 474.449C369.943 474.762 370.207 475.009 370.54 475.189C370.873 475.369 371.247 475.459 371.66 475.459C372.073 475.459 372.443 475.369 372.77 475.189C373.097 475.009 373.357 474.766 373.55 474.459C373.743 474.152 373.84 473.806 373.84 473.419C373.84 473.032 373.743 472.682 373.55 472.369C373.363 472.062 373.103 471.819 372.77 471.639C372.443 471.459 372.073 471.369 371.66 471.369C371.247 471.369 370.873 471.459 370.54 471.639C370.207 471.826 369.943 472.072 369.75 472.379C369.563 472.686 369.47 473.032 369.47 473.419ZM369 477.541L374.31 477.541L374.31 478.141L373.24 478.141L373.28 477.991C373.633 478.111 373.913 478.324 374.12 478.631C374.327 478.944 374.43 479.308 374.43 479.721C374.43 480.088 374.347 480.421 374.18 480.721C374.013 481.021 373.78 481.261 373.48 481.441C373.187 481.621 372.85 481.711 372.47 481.711L369 481.711L369 481.111L372.3 481.111C372.62 481.111 372.893 481.048 373.12 480.921C373.353 480.794 373.53 480.618 373.65 480.391C373.777 480.171 373.84 479.918 373.84 479.631C373.84 479.331 373.77 479.068 373.63 478.841C373.49 478.614 373.297 478.441 373.05 478.321C372.803 478.201 372.52 478.141 372.2 478.141L369 478.141L369 477.541ZM368.88 485.734C368.88 485.227 369 484.77 369.24 484.364C369.48 483.957 369.81 483.634 370.23 483.394C370.657 483.16 371.133 483.044 371.66 483.044C372.187 483.044 372.66 483.16 373.08 483.394C373.5 483.634 373.83 483.954 374.07 484.354C374.31 484.76 374.43 485.22 374.43 485.734C374.43 486.24 374.31 486.697 374.07 487.104C373.83 487.51 373.5 487.83 373.08 488.064C372.667 488.297 372.193 488.414 371.66 488.414C371.127 488.414 370.65 488.294 370.23 488.054C369.81 487.814 369.48 487.49 369.24 487.084C369 486.684 368.88 486.234 368.88 485.734ZM369.47 485.734C369.47 486.114 369.563 486.457 369.75 486.764C369.943 487.077 370.207 487.324 370.54 487.504C370.873 487.684 371.247 487.774 371.66 487.774C372.073 487.774 372.443 487.684 372.77 487.504C373.097 487.324 373.357 487.08 373.55 486.774C373.743 486.467 373.84 486.12 373.84 485.734C373.84 485.347 373.743 484.997 373.55 484.684C373.363 484.377 373.103 484.134 372.77 483.954C372.443 483.774 372.073 483.684 371.66 483.684C371.247 483.684 370.873 483.774 370.54 483.954C370.207 484.14 369.943 484.387 369.75 484.694C369.563 485 369.47 485.347 369.47 485.734ZM369 489.855L374.31 489.855L374.31 490.455L373.24 490.455L373.39 490.345C373.71 490.479 373.963 490.692 374.15 490.985C374.337 491.285 374.43 491.619 374.43 491.985C374.43 492.399 374.31 492.775 374.07 493.115C373.837 493.455 373.523 493.692 373.13 493.825L373.12 493.635C373.527 493.749 373.847 493.972 374.08 494.305C374.313 494.645 374.43 495.022 374.43 495.435C374.43 495.789 374.347 496.112 374.18 496.405C374.013 496.705 373.78 496.945 373.48 497.125C373.187 497.312 372.85 497.405 372.47 497.405L369 497.405L369 496.805L372.3 496.805C372.62 496.805 372.893 496.739 373.12 496.605C373.353 496.479 373.53 496.309 373.65 496.095C373.777 495.882 373.84 495.642 373.84 495.375C373.84 495.089 373.77 494.835 373.63 494.615C373.49 494.402 373.297 494.232 373.05 494.105C372.803 493.985 372.52 493.925 372.2 493.925L369 493.925L369 493.325L372.3 493.325C372.62 493.325 372.893 493.262 373.12 493.135C373.353 493.009 373.53 492.835 373.65 492.615C373.777 492.402 373.84 492.162 373.84 491.895C373.84 491.609 373.77 491.355 373.63 491.135C373.49 490.922 373.297 490.755 373.05 490.635C372.803 490.515 372.52 490.455 372.2 490.455L369 490.455L369 489.855ZM366.8 498.87C366.8 498.776 366.81 498.673 366.83 498.56C366.843 498.453 366.867 498.35 366.9 498.25L367.46 498.25C367.44 498.33 367.423 498.42 367.41 498.52C367.397 498.626 367.39 498.723 367.39 498.81C367.397 499.136 367.477 499.393 367.63 499.58C367.783 499.766 368.037 499.936 368.39 500.09L369.28 500.47L368.72 500.47L374.31 498.22L374.31 498.88L369.49 500.81L369.49 500.57L374.31 502.51L374.31 503.18L368.26 500.7C368.04 500.606 367.817 500.483 367.59 500.33C367.363 500.176 367.177 499.98 367.03 499.74C366.877 499.506 366.8 499.216 366.8 498.87ZM368.88 508.252C368.88 507.745 369 507.292 369.24 506.892C369.487 506.499 369.82 506.185 370.24 505.952C370.66 505.725 371.133 505.612 371.66 505.612C372.193 505.612 372.667 505.725 373.08 505.952C373.5 506.185 373.83 506.499 374.07 506.892C374.31 507.292 374.43 507.745 374.43 508.252C374.43 508.585 374.373 508.892 374.26 509.172C374.147 509.459 373.993 509.712 373.8 509.932C373.607 510.152 373.383 510.319 373.13 510.432L372.85 509.902C373.157 509.742 373.4 509.519 373.58 509.232C373.76 508.945 373.85 508.619 373.85 508.252C373.85 507.872 373.757 507.529 373.57 507.222C373.383 506.922 373.123 506.682 372.79 506.502C372.463 506.322 372.087 506.232 371.66 506.232C371.233 506.232 370.853 506.322 370.52 506.502C370.193 506.682 369.937 506.922 369.75 507.222C369.563 507.529 369.47 507.872 369.47 508.252C369.47 508.619 369.56 508.945 369.74 509.232C369.92 509.519 370.167 509.742 370.48 509.902L370.19 510.432C369.943 510.319 369.72 510.152 369.52 509.932C369.327 509.712 369.17 509.459 369.05 509.172C368.937 508.892 368.88 508.585 368.88 508.252ZM369 511.867L376.57 511.867L376.57 512.467L369 512.467L369 511.867ZM368.88 515.633C368.88 515.3 368.943 515.003 369.07 514.743C369.197 514.483 369.373 514.277 369.6 514.123C369.827 513.97 370.087 513.893 370.38 513.893C370.64 513.893 370.883 513.95 371.11 514.063C371.337 514.177 371.53 514.36 371.69 514.613C371.857 514.867 371.973 515.197 372.04 515.603L372.4 517.753L371.84 517.753L371.51 515.763C371.437 515.31 371.3 514.99 371.1 514.803C370.9 514.617 370.667 514.523 370.4 514.523C370.113 514.523 369.88 514.63 369.7 514.843C369.52 515.063 369.43 515.34 369.43 515.673C369.43 516.06 369.517 516.397 369.69 516.683C369.87 516.97 370.103 517.193 370.39 517.353C370.683 517.513 371.003 517.593 371.35 517.593L372.67 517.593C373.023 517.593 373.31 517.467 373.53 517.213C373.75 516.96 373.86 516.63 373.86 516.223C373.86 515.89 373.777 515.59 373.61 515.323C373.443 515.057 373.227 514.853 372.96 514.713L373.25 514.173C373.463 514.273 373.66 514.427 373.84 514.633C374.02 514.84 374.163 515.08 374.27 515.353C374.377 515.627 374.43 515.917 374.43 516.223C374.43 516.61 374.353 516.95 374.2 517.243C374.053 517.543 373.847 517.777 373.58 517.943C373.32 518.11 373.017 518.193 372.67 518.193L369 518.193L369 517.593L370.11 517.593L370.06 517.663C369.847 517.577 369.65 517.433 369.47 517.233C369.297 517.033 369.153 516.797 369.04 516.523C368.933 516.257 368.88 515.96 368.88 515.633ZM368.88 521.636C368.88 521.142 369.003 520.709 369.25 520.336C369.497 519.962 369.833 519.689 370.26 519.516L370.5 520.036C370.173 520.202 369.913 520.426 369.72 520.706C369.533 520.986 369.44 521.296 369.44 521.636C369.44 521.982 369.523 522.272 369.69 522.506C369.863 522.746 370.09 522.866 370.37 522.866C370.543 522.866 370.69 522.819 370.81 522.726C370.93 522.639 371.027 522.526 371.1 522.386C371.18 522.246 371.24 522.096 371.28 521.936L371.51 521.116C371.637 520.656 371.823 520.316 372.07 520.096C372.317 519.882 372.607 519.776 372.94 519.776C373.24 519.776 373.5 519.852 373.72 520.006C373.947 520.159 374.12 520.366 374.24 520.626C374.367 520.886 374.43 521.172 374.43 521.486C374.43 521.926 374.317 522.326 374.09 522.686C373.863 523.046 373.557 523.299 373.17 523.446L372.92 522.906C373.22 522.766 373.453 522.569 373.62 522.316C373.793 522.062 373.88 521.782 373.88 521.476C373.88 521.156 373.793 520.896 373.62 520.696C373.453 520.496 373.24 520.396 372.98 520.396C372.813 520.396 372.673 520.436 372.56 520.516C372.453 520.596 372.363 520.699 372.29 520.826C372.223 520.959 372.17 521.096 372.13 521.236L371.87 522.126C371.75 522.559 371.56 522.892 371.3 523.126C371.04 523.366 370.733 523.486 370.38 523.486C370.093 523.486 369.837 523.406 369.61 523.246C369.383 523.086 369.203 522.866 369.07 522.586C368.943 522.306 368.88 521.989 368.88 521.636ZM368.88 526.714C368.88 526.22 369.003 525.787 369.25 525.414C369.497 525.04 369.833 524.767 370.26 524.594L370.5 525.114C370.173 525.28 369.913 525.504 369.72 525.784C369.533 526.064 369.44 526.374 369.44 526.714C369.44 527.06 369.523 527.35 369.69 527.584C369.863 527.824 370.09 527.944 370.37 527.944C370.543 527.944 370.69 527.897 370.81 527.804C370.93 527.717 371.027 527.604 371.1 527.464C371.18 527.324 371.24 527.174 371.28 527.014L371.51 526.194C371.637 525.734 371.823 525.394 372.07 525.174C372.317 524.96 372.607 524.854 372.94 524.854C373.24 524.854 373.5 524.93 373.72 525.084C373.947 525.237 374.12 525.444 374.24 525.704C374.367 525.964 374.43 526.25 374.43 526.564C374.43 527.004 374.317 527.404 374.09 527.764C373.863 528.124 373.557 528.377 373.17 528.524L372.92 527.984C373.22 527.844 373.453 527.647 373.62 527.394C373.793 527.14 373.88 526.86 373.88 526.554C373.88 526.234 373.793 525.974 373.62 525.774C373.453 525.574 373.24 525.474 372.98 525.474C372.813 525.474 372.673 525.514 372.56 525.594C372.453 525.674 372.363 525.777 372.29 525.904C372.223 526.037 372.17 526.174 372.13 526.314L371.87 527.204C371.75 527.637 371.56 527.97 371.3 528.204C371.04 528.444 370.733 528.564 370.38 528.564C370.093 528.564 369.837 528.484 369.61 528.324C369.383 528.164 369.203 527.944 369.07 527.664C368.943 527.384 368.88 527.067 368.88 526.714Z" fill="#060606"/>
<g opacity="0.6">
<path d="M33.5 687L9.49998 687L9.5 233L13.5 233C24.546 233 33.5 241.954 33.5 253L33.5 687Z" fill="#FFB2B2"/>
<path d="M34 687.5L9.49998 687.5L9.49998 686.5L33 686.5L34 687.5ZM9.5 232.5L13.5 232.5C24.822 232.5 34 241.678 34 253L33 253C33 242.23 24.27 233.5 13.5 233.5L9.5 233.5L9.5 232.5ZM13.5 232.5C24.822 232.5 34 241.678 34 253L34 687.5L33 686.5L33 253C33 242.23 24.27 233.5 13.5 233.5L13.5 232.5Z" fill="#A5A5A5"/>
</g>
<path d="M17 389.94L24.45 389.94L24.45 390.49L17.98 395L17.98 394.79L24.45 394.79L24.45 395.44L17 395.44L17 394.89L23.51 390.36L23.51 390.59L17 390.59L17 389.94ZM16.88 399.673C16.88 399.166 17 398.71 17.24 398.303C17.48 397.896 17.81 397.573 18.23 397.333C18.6567 397.1 19.1333 396.983 19.66 396.983C20.1867 396.983 20.66 397.1 21.08 397.333C21.5 397.573 21.83 397.893 22.07 398.293C22.31 398.7 22.43 399.16 22.43 399.673C22.43 400.18 22.31 400.636 22.07 401.043C21.83 401.45 21.5 401.77 21.08 402.003C20.6667 402.236 20.1933 402.353 19.66 402.353C19.1267 402.353 18.65 402.233 18.23 401.993C17.81 401.753 17.48 401.43 17.24 401.023C17 400.623 16.88 400.173 16.88 399.673ZM17.47 399.673C17.47 400.053 17.5633 400.396 17.75 400.703C17.9433 401.016 18.2067 401.263 18.54 401.443C18.8733 401.623 19.2467 401.713 19.66 401.713C20.0733 401.713 20.4433 401.623 20.77 401.443C21.0967 401.263 21.3567 401.02 21.55 400.713C21.7433 400.406 21.84 400.06 21.84 399.673C21.84 399.286 21.7433 398.936 21.55 398.623C21.3633 398.316 21.1033 398.073 20.77 397.893C20.4433 397.713 20.0733 397.623 19.66 397.623C19.2467 397.623 18.8733 397.713 18.54 397.893C18.2067 398.08 17.9433 398.326 17.75 398.633C17.5633 398.94 17.47 399.286 17.47 399.673ZM17 406.605L22.31 404.785L22.31 405.455L17.5 407.045L17.5 406.785L22.31 408.225L22.31 408.835L17.5 410.275L17.5 410.015L22.31 411.615L22.31 412.285L17 410.455L17 409.845L21.64 408.455L21.64 408.605L17 407.215L17 406.605ZM17 413.277L22.31 413.277L22.31 413.877L17 413.877L17 413.277ZM23.35 413.277L24.45 413.277L24.45 413.877L23.35 413.877L23.35 413.277ZM17 415.523L22.31 415.523L22.31 416.123L21.24 416.123L21.28 415.973C21.6333 416.093 21.9133 416.307 22.12 416.613C22.3267 416.927 22.43 417.29 22.43 417.703C22.43 418.07 22.3467 418.403 22.18 418.703C22.0133 419.003 21.78 419.243 21.48 419.423C21.1867 419.603 20.85 419.693 20.47 419.693L17 419.693L17 419.093L20.3 419.093C20.62 419.093 20.8933 419.03 21.12 418.903C21.3533 418.777 21.53 418.6 21.65 418.373C21.7767 418.153 21.84 417.9 21.84 417.613C21.84 417.313 21.77 417.05 21.63 416.823C21.49 416.597 21.2967 416.423 21.05 416.303C20.8033 416.183 20.52 416.123 20.2 416.123L17 416.123L17 415.523ZM16.88 423.636C16.88 423.143 17 422.696 17.24 422.296C17.4867 421.903 17.82 421.593 18.24 421.366C18.66 421.139 19.1333 421.026 19.66 421.026C20.1867 421.026 20.66 421.139 21.08 421.366C21.5 421.593 21.83 421.903 22.07 422.296C22.31 422.696 22.43 423.143 22.43 423.636C22.43 424.123 22.3133 424.556 22.08 424.936C21.8533 425.316 21.5467 425.603 21.16 425.796L20.97 425.696L24.57 425.696L24.57 426.296L17 426.296L17 425.696L18.35 425.696L18.21 425.796C17.7967 425.609 17.47 425.323 17.23 424.936C16.9967 424.556 16.88 424.123 16.88 423.636ZM17.48 423.656C17.48 424.043 17.5733 424.386 17.76 424.686C17.9533 424.993 18.2133 425.236 18.54 425.416C18.8733 425.596 19.2467 425.686 19.66 425.686C20.0733 425.686 20.4433 425.596 20.77 425.416C21.0967 425.236 21.3533 424.993 21.54 424.686C21.7333 424.386 21.83 424.043 21.83 423.656C21.83 423.276 21.7333 422.936 21.54 422.636C21.3533 422.336 21.0967 422.099 20.77 421.926C20.4433 421.753 20.0733 421.666 19.66 421.666C19.2467 421.666 18.8733 421.753 18.54 421.926C18.2133 422.099 17.9533 422.336 17.76 422.636C17.5733 422.936 17.48 423.276 17.48 423.656ZM16.88 430.425C16.88 429.918 17 429.462 17.24 429.055C17.48 428.648 17.81 428.325 18.23 428.085C18.6567 427.852 19.1333 427.735 19.66 427.735C20.1867 427.735 20.66 427.852 21.08 428.085C21.5 428.325 21.83 428.645 22.07 429.045C22.31 429.452 22.43 429.912 22.43 430.425C22.43 430.932 22.31 431.388 22.07 431.795C21.83 432.202 21.5 432.522 21.08 432.755C20.6667 432.988 20.1933 433.105 19.66 433.105C19.1267 433.105 18.65 432.985 18.23 432.745C17.81 432.505 17.48 432.182 17.24 431.775C17 431.375 16.88 430.925 16.88 430.425ZM17.47 430.425C17.47 430.805 17.5633 431.148 17.75 431.455C17.9433 431.768 18.2067 432.015 18.54 432.195C18.8733 432.375 19.2467 432.465 19.66 432.465C20.0733 432.465 20.4433 432.375 20.77 432.195C21.0967 432.015 21.3567 431.772 21.55 431.465C21.7433 431.158 21.84 430.812 21.84 430.425C21.84 430.038 21.7433 429.688 21.55 429.375C21.3633 429.068 21.1033 428.825 20.77 428.645C20.4433 428.465 20.0733 428.375 19.66 428.375C19.2467 428.375 18.8733 428.465 18.54 428.645C18.2067 428.832 17.9433 429.078 17.75 429.385C17.5633 429.692 17.47 430.038 17.47 430.425ZM17 435.609L22.31 433.789L22.31 434.459L17.5 436.049L17.5 435.789L22.31 437.229L22.31 437.839L17.5 439.279L17.5 439.019L22.31 440.619L22.31 441.289L17 439.459L17 438.849L21.64 437.459L21.64 437.609L17 436.219L17 435.609ZM16.88 444.071C16.88 443.578 17.0033 443.145 17.25 442.771C17.4967 442.398 17.8333 442.125 18.26 441.951L18.5 442.471C18.1733 442.638 17.9133 442.861 17.72 443.141C17.5333 443.421 17.44 443.731 17.44 444.071C17.44 444.418 17.5233 444.708 17.69 444.941C17.8633 445.181 18.09 445.301 18.37 445.301C18.5433 445.301 18.69 445.255 18.81 445.161C18.93 445.075 19.0267 444.961 19.1 444.821C19.18 444.681 19.24 444.531 19.28 444.371L19.51 443.551C19.6367 443.091 19.8233 442.751 20.07 442.531C20.3167 442.318 20.6067 442.211 20.94 442.211C21.24 442.211 21.5 442.288 21.72 442.441C21.9467 442.595 22.12 442.801 22.24 443.061C22.3667 443.321 22.43 443.608 22.43 443.921C22.43 444.361 22.3167 444.761 22.09 445.121C21.8633 445.481 21.5567 445.735 21.17 445.881L20.92 445.341C21.22 445.201 21.4533 445.005 21.62 444.751C21.7933 444.498 21.88 444.218 21.88 443.911C21.88 443.591 21.7933 443.331 21.62 443.131C21.4533 442.931 21.24 442.831 20.98 442.831C20.8133 442.831 20.6733 442.871 20.56 442.951C20.4533 443.031 20.3633 443.135 20.29 443.261C20.2233 443.395 20.17 443.531 20.13 443.671L19.87 444.561C19.75 444.995 19.56 445.328 19.3 445.561C19.04 445.801 18.7333 445.921 18.38 445.921C18.0933 445.921 17.8367 445.841 17.61 445.681C17.3833 445.521 17.2033 445.301 17.07 445.021C16.9433 444.741 16.88 444.425 16.88 444.071ZM17 449.01L22.31 449.01L22.31 449.61L17 449.61L17 449.01ZM23.35 449.01L24.45 449.01L24.45 449.61L23.35 449.61L23.35 449.01ZM17 451.256L22.31 451.256L22.31 451.856L21.24 451.856L21.28 451.706C21.6333 451.826 21.9133 452.039 22.12 452.346C22.3267 452.659 22.43 453.022 22.43 453.436C22.43 453.802 22.3467 454.136 22.18 454.436C22.0133 454.736 21.78 454.976 21.48 455.156C21.1867 455.336 20.85 455.426 20.47 455.426L17 455.426L17 454.826L20.3 454.826C20.62 454.826 20.8933 454.762 21.12 454.636C21.3533 454.509 21.53 454.332 21.65 454.106C21.7767 453.886 21.84 453.632 21.84 453.346C21.84 453.046 21.77 452.782 21.63 452.556C21.49 452.329 21.2967 452.156 21.05 452.036C20.8033 451.916 20.52 451.856 20.2 451.856L17 451.856L17 451.256ZM17 458.739L24.45 458.739L24.45 463.439L23.85 463.439L23.85 459.389L21.04 459.389L21.04 463.239L20.44 463.239L20.44 459.389L17.6 459.389L17.6 463.439L17 463.439L17 458.739ZM16.88 467.182C16.88 466.675 17 466.222 17.24 465.822C17.4867 465.428 17.82 465.115 18.24 464.882C18.66 464.655 19.1333 464.542 19.66 464.542C20.1933 464.542 20.6667 464.655 21.08 464.882C21.5 465.115 21.83 465.428 22.07 465.822C22.31 466.222 22.43 466.675 22.43 467.182C22.43 467.515 22.3733 467.822 22.26 468.102C22.1467 468.388 21.9933 468.642 21.8 468.862C21.6067 469.082 21.3833 469.248 21.13 469.362L20.85 468.832C21.1567 468.672 21.4 468.448 21.58 468.162C21.76 467.875 21.85 467.548 21.85 467.182C21.85 466.802 21.7567 466.458 21.57 466.152C21.3833 465.852 21.1233 465.612 20.79 465.432C20.4633 465.252 20.0867 465.162 19.66 465.162C19.2333 465.162 18.8533 465.252 18.52 465.432C18.1933 465.612 17.9367 465.852 17.75 466.152C17.5633 466.458 17.47 466.802 17.47 467.182C17.47 467.548 17.56 467.875 17.74 468.162C17.92 468.448 18.1667 468.672 18.48 468.832L18.19 469.362C17.9433 469.248 17.72 469.082 17.52 468.862C17.3267 468.642 17.17 468.388 17.05 468.102C16.9367 467.822 16.88 467.515 16.88 467.182ZM16.88 473.267C16.88 472.76 17 472.303 17.24 471.897C17.48 471.49 17.81 471.167 18.23 470.927C18.6567 470.693 19.1333 470.577 19.66 470.577C20.1867 470.577 20.66 470.693 21.08 470.927C21.5 471.167 21.83 471.487 22.07 471.887C22.31 472.293 22.43 472.753 22.43 473.267C22.43 473.773 22.31 474.23 22.07 474.637C21.83 475.043 21.5 475.363 21.08 475.597C20.6667 475.83 20.1933 475.947 19.66 475.947C19.1267 475.947 18.65 475.827 18.23 475.587C17.81 475.347 17.48 475.023 17.24 474.617C17 474.217 16.88 473.767 16.88 473.267ZM17.47 473.267C17.47 473.647 17.5633 473.99 17.75 474.297C17.9433 474.61 18.2067 474.857 18.54 475.037C18.8733 475.217 19.2467 475.307 19.66 475.307C20.0733 475.307 20.4433 475.217 20.77 475.037C21.0967 474.857 21.3567 474.613 21.55 474.307C21.7433 474 21.84 473.653 21.84 473.267C21.84 472.88 21.7433 472.53 21.55 472.217C21.3633 471.91 21.1033 471.667 20.77 471.487C20.4433 471.307 20.0733 471.217 19.66 471.217C19.2467 471.217 18.8733 471.307 18.54 471.487C18.2067 471.673 17.9433 471.92 17.75 472.227C17.5633 472.533 17.47 472.88 17.47 473.267ZM17 477.389L22.31 477.389L22.31 477.989L21.24 477.989L21.28 477.839C21.6333 477.959 21.9133 478.172 22.12 478.479C22.3267 478.792 22.43 479.155 22.43 479.569C22.43 479.935 22.3467 480.269 22.18 480.569C22.0133 480.869 21.78 481.109 21.48 481.289C21.1867 481.469 20.85 481.559 20.47 481.559L17 481.559L17 480.959L20.3 480.959C20.62 480.959 20.8933 480.895 21.12 480.769C21.3533 480.642 21.53 480.465 21.65 480.239C21.7767 480.019 21.84 479.765 21.84 479.479C21.84 479.179 21.77 478.915 21.63 478.689C21.49 478.462 21.2967 478.289 21.05 478.169C20.8033 478.049 20.52 477.989 20.2 477.989L17 477.989L17 477.389ZM16.88 485.581C16.88 485.075 17 484.618 17.24 484.211C17.48 483.805 17.81 483.481 18.23 483.241C18.6567 483.008 19.1333 482.891 19.66 482.891C20.1867 482.891 20.66 483.008 21.08 483.241C21.5 483.481 21.83 483.801 22.07 484.201C22.31 484.608 22.43 485.068 22.43 485.581C22.43 486.088 22.31 486.545 22.07 486.951C21.83 487.358 21.5 487.678 21.08 487.911C20.6667 488.145 20.1933 488.261 19.66 488.261C19.1267 488.261 18.65 488.141 18.23 487.901C17.81 487.661 17.48 487.338 17.24 486.931C17 486.531 16.88 486.081 16.88 485.581ZM17.47 485.581C17.47 485.961 17.5633 486.305 17.75 486.611C17.9433 486.925 18.2067 487.171 18.54 487.351C18.8733 487.531 19.2467 487.621 19.66 487.621C20.0733 487.621 20.4433 487.531 20.77 487.351C21.0967 487.171 21.3567 486.928 21.55 486.621C21.7433 486.315 21.84 485.968 21.84 485.581C21.84 485.195 21.7433 484.845 21.55 484.531C21.3633 484.225 21.1033 483.981 20.77 483.801C20.4433 483.621 20.0733 483.531 19.66 483.531C19.2467 483.531 18.8733 483.621 18.54 483.801C18.2067 483.988 17.9433 484.235 17.75 484.541C17.5633 484.848 17.47 485.195 17.47 485.581ZM17 489.703L22.31 489.703L22.31 490.303L21.24 490.303L21.39 490.193C21.71 490.326 21.9633 490.54 22.15 490.833C22.3367 491.133 22.43 491.466 22.43 491.833C22.43 492.246 22.31 492.623 22.07 492.963C21.8367 493.303 21.5233 493.54 21.13 493.673L21.12 493.483C21.5267 493.596 21.8467 493.82 22.08 494.153C22.3133 494.493 22.43 494.87 22.43 495.283C22.43 495.636 22.3467 495.96 22.18 496.253C22.0133 496.553 21.78 496.793 21.48 496.973C21.1867 497.16 20.85 497.253 20.47 497.253L17 497.253L17 496.653L20.3 496.653C20.62 496.653 20.8933 496.586 21.12 496.453C21.3533 496.326 21.53 496.156 21.65 495.943C21.7767 495.73 21.84 495.49 21.84 495.223C21.84 494.936 21.77 494.683 21.63 494.463C21.49 494.25 21.2967 494.08 21.05 493.953C20.8033 493.833 20.52 493.773 20.2 493.773L17 493.773L17 493.173L20.3 493.173C20.62 493.173 20.8933 493.11 21.12 492.983C21.3533 492.856 21.53 492.683 21.65 492.463C21.7767 492.25 21.84 492.01 21.84 491.743C21.84 491.456 21.77 491.203 21.63 490.983C21.49 490.77 21.2967 490.603 21.05 490.483C20.8033 490.363 20.52 490.303 20.2 490.303L17 490.303L17 489.703ZM14.8 498.717C14.8 498.624 14.81 498.521 14.83 498.407C14.8433 498.301 14.8667 498.197 14.9 498.097L15.46 498.097C15.44 498.177 15.4233 498.267 15.41 498.367C15.3967 498.474 15.39 498.571 15.39 498.657C15.3967 498.984 15.4767 499.241 15.63 499.427C15.7833 499.614 16.0367 499.784 16.39 499.937L17.28 500.317L16.72 500.317L22.31 498.067L22.31 498.727L17.49 500.657L17.49 500.417L22.31 502.357L22.31 503.027L16.26 500.547C16.04 500.454 15.8167 500.331 15.59 500.177C15.3633 500.024 15.1767 499.827 15.03 499.587C14.8767 499.354 14.8 499.064 14.8 498.717ZM16.88 508.1C16.88 507.593 17 507.14 17.24 506.74C17.4867 506.346 17.82 506.033 18.24 505.8C18.66 505.573 19.1333 505.46 19.66 505.46C20.1933 505.46 20.6667 505.573 21.08 505.8C21.5 506.033 21.83 506.346 22.07 506.74C22.31 507.14 22.43 507.593 22.43 508.1C22.43 508.433 22.3733 508.74 22.26 509.02C22.1467 509.306 21.9933 509.56 21.8 509.78C21.6067 510 21.3833 510.166 21.13 510.28L20.85 509.75C21.1567 509.59 21.4 509.366 21.58 509.08C21.76 508.793 21.85 508.466 21.85 508.1C21.85 507.72 21.7567 507.376 21.57 507.07C21.3833 506.77 21.1233 506.53 20.79 506.35C20.4633 506.17 20.0867 506.08 19.66 506.08C19.2333 506.08 18.8533 506.17 18.52 506.35C18.1933 506.53 17.9367 506.77 17.75 507.07C17.5633 507.376 17.47 507.72 17.47 508.1C17.47 508.466 17.56 508.793 17.74 509.08C17.92 509.366 18.1667 509.59 18.48 509.75L18.19 510.28C17.9433 510.166 17.72 510 17.52 509.78C17.3267 509.56 17.17 509.306 17.05 509.02C16.9367 508.74 16.88 508.433 16.88 508.1ZM17 511.715L24.57 511.715L24.57 512.315L17 512.315L17 511.715ZM16.88 515.481C16.88 515.148 16.9433 514.851 17.07 514.591C17.1967 514.331 17.3733 514.124 17.6 513.971C17.8267 513.818 18.0867 513.741 18.38 513.741C18.64 513.741 18.8833 513.798 19.11 513.911C19.3367 514.024 19.53 514.208 19.69 514.461C19.8567 514.714 19.9733 515.044 20.04 515.451L20.4 517.601L19.84 517.601L19.51 515.611C19.4367 515.158 19.3 514.838 19.1 514.651C18.9 514.464 18.6667 514.371 18.4 514.371C18.1133 514.371 17.88 514.478 17.7 514.691C17.52 514.911 17.43 515.188 17.43 515.521C17.43 515.908 17.5167 516.244 17.69 516.531C17.87 516.818 18.1033 517.041 18.39 517.201C18.6833 517.361 19.0033 517.441 19.35 517.441L20.67 517.441C21.0233 517.441 21.31 517.314 21.53 517.061C21.75 516.808 21.86 516.478 21.86 516.071C21.86 515.738 21.7767 515.438 21.61 515.171C21.4433 514.904 21.2267 514.701 20.96 514.561L21.25 514.021C21.4633 514.121 21.66 514.274 21.84 514.481C22.02 514.688 22.1633 514.928 22.27 515.201C22.3767 515.474 22.43 515.764 22.43 516.071C22.43 516.458 22.3533 516.798 22.2 517.091C22.0533 517.391 21.8467 517.624 21.58 517.791C21.32 517.958 21.0167 518.041 20.67 518.041L17 518.041L17 517.441L18.11 517.441L18.06 517.511C17.8467 517.424 17.65 517.281 17.47 517.081C17.2967 516.881 17.1533 516.644 17.04 516.371C16.9333 516.104 16.88 515.808 16.88 515.481ZM16.88 521.483C16.88 520.99 17.0033 520.557 17.25 520.183C17.4967 519.81 17.8333 519.537 18.26 519.363L18.5 519.883C18.1733 520.05 17.9133 520.273 17.72 520.553C17.5333 520.833 17.44 521.143 17.44 521.483C17.44 521.83 17.5233 522.12 17.69 522.353C17.8633 522.593 18.09 522.713 18.37 522.713C18.5433 522.713 18.69 522.667 18.81 522.573C18.93 522.487 19.0267 522.373 19.1 522.233C19.18 522.093 19.24 521.943 19.28 521.783L19.51 520.963C19.6367 520.503 19.8233 520.163 20.07 519.943C20.3167 519.73 20.6067 519.623 20.94 519.623C21.24 519.623 21.5 519.7 21.72 519.853C21.9467 520.007 22.12 520.213 22.24 520.473C22.3667 520.733 22.43 521.02 22.43 521.333C22.43 521.773 22.3167 522.173 22.09 522.533C21.8633 522.893 21.5567 523.147 21.17 523.293L20.92 522.753C21.22 522.613 21.4533 522.417 21.62 522.163C21.7933 521.91 21.88 521.63 21.88 521.323C21.88 521.003 21.7933 520.743 21.62 520.543C21.4533 520.343 21.24 520.243 20.98 520.243C20.8133 520.243 20.6733 520.283 20.56 520.363C20.4533 520.443 20.3633 520.547 20.29 520.673C20.2233 520.807 20.17 520.943 20.13 521.083L19.87 521.973C19.75 522.407 19.56 522.74 19.3 522.973C19.04 523.213 18.7333 523.333 18.38 523.333C18.0933 523.333 17.8367 523.253 17.61 523.093C17.3833 522.933 17.2033 522.713 17.07 522.433C16.9433 522.153 16.88 521.837 16.88 521.483ZM16.88 526.561C16.88 526.068 17.0033 525.635 17.25 525.261C17.4967 524.888 17.8333 524.615 18.26 524.441L18.5 524.961C18.1733 525.128 17.9133 525.351 17.72 525.631C17.5333 525.911 17.44 526.221 17.44 526.561C17.44 526.908 17.5233 527.198 17.69 527.431C17.8633 527.671 18.09 527.791 18.37 527.791C18.5433 527.791 18.69 527.745 18.81 527.651C18.93 527.565 19.0267 527.451 19.1 527.311C19.18 527.171 19.24 527.021 19.28 526.861L19.51 526.041C19.6367 525.581 19.8233 525.241 20.07 525.021C20.3167 524.808 20.6067 524.701 20.94 524.701C21.24 524.701 21.5 524.778 21.72 524.931C21.9467 525.085 22.12 525.291 22.24 525.551C22.3667 525.811 22.43 526.098 22.43 526.411C22.43 526.851 22.3167 527.251 22.09 527.611C21.8633 527.971 21.5567 528.225 21.17 528.371L20.92 527.831C21.22 527.691 21.4533 527.495 21.62 527.241C21.7933 526.988 21.88 526.708 21.88 526.401C21.88 526.081 21.7933 525.821 21.62 525.621C21.4533 525.421 21.24 525.321 20.98 525.321C20.8133 525.321 20.6733 525.361 20.56 525.441C20.4533 525.521 20.3633 525.625 20.29 525.751C20.2233 525.885 20.17 526.021 20.13 526.161L19.87 527.051C19.75 527.485 19.56 527.818 19.3 528.051C19.04 528.291 18.7333 528.411 18.38 528.411C18.0933 528.411 17.8367 528.331 17.61 528.171C17.3833 528.011 17.2033 527.791 17.07 527.511C16.9433 527.231 16.88 526.915 16.88 526.561Z" fill="#060606"/>
</g>
<defs>
<clipPath id="clip0_593_143">
<rect width="833" height="395" fill="white" transform="translate(395) rotate(90)"/>
</clipPath>
</defs>
</svg>
