<svg width="120" height="83" viewBox="0 0 120 83" fill="none" xmlns="http://www.w3.org/2000/svg">
<path d="M2.85533 28.7887C14.0951 22.6012 29.2605 21.4457 41.5464 23.8664C53.3295 26.1607 67.6802 32.9092 68.4442 44.9105C68.7159 49.299 66.0719 53.9284 60.4408 53.6045C55.2287 53.3368 52.1083 49.2159 52.9258 44.7077C55.0944 32.6568 74.2652 31.5835 84.4058 33.7403C90.8254 35.0792 96.7601 37.8118 101.69 41.6202C106.235 45.1643 110.797 50.0809 111.924 55.5112C112.109 56.2859 110.652 56.7755 110.215 56.0852C107.967 52.4591 106.137 48.8892 103.001 45.7583C99.7134 42.5303 95.706 39.9381 91.2468 38.0883C82.4456 34.3987 69.775 32.8948 60.7129 37.957C55.9557 40.6379 51.6719 48.378 58.3105 51.1695C60.9593 52.2981 64.3607 51.6972 65.6825 49.0871C66.9207 46.7021 66.3987 43.7268 65.5589 41.3998C62.0318 31.9511 49.9449 26.9529 39.5365 25.1323C33.6869 24.0941 27.5532 23.939 21.571 24.6192C15.1029 25.3641 9.33965 27.3491 3.3252 29.5662C2.75566 29.8559 2.28578 29.0784 2.85533 28.7887Z" fill="#ff8a34"/>
<path d="M96.0262 48.8612C98.7595 49.6549 101.343 50.7923 103.977 51.7662C105.227 52.2267 106.477 52.6872 107.677 53.1644C108.26 53.3597 111.094 54.853 111.644 54.522C111.927 54.3781 111.441 51.3635 111.441 50.9237C111.373 49.7242 111.306 48.5248 111.238 47.3253C111.069 44.9865 110.401 42.2289 111.198 39.908C111.448 39.0911 112.697 38.9651 113.048 39.7274C113.716 41.1654 113.617 42.8117 113.668 44.4077C113.736 46.1936 113.871 48.0061 113.939 49.792C114.024 51.4745 115.127 55.2108 113.128 56.4681C111.213 57.6485 107.895 55.3398 106.278 54.6602C102.612 53.202 98.7281 51.9142 95.2775 50.139C94.3274 49.7245 95.0096 48.5668 96.0262 48.8612Z" fill="#ff8a34"/>
</svg>
