<svg width="428" height="453" viewBox="0 0 428 453" fill="none" xmlns="http://www.w3.org/2000/svg">
<g clip-path="url(#clip0_620_33)">
<rect width="428" height="453" fill="#6DD1EA"/>
<path d="M553.587 264H0V453H553.587V264Z" fill="url(#paint0_linear_620_33)"/>
<path opacity="0.43" d="M263.583 368.239C294.884 367.05 320.023 362.59 337.576 358.585C344.02 357.115 374.925 349.743 374.574 345.055C374.202 340.094 338.996 339.992 335.249 339.981C317.608 339.929 310.575 340.053 298.567 339.9C274.716 339.596 268.567 336.38 243.451 333.786C202.842 329.59 175.012 333.459 174.992 332.734C174.972 331.977 205.22 328.177 244.266 329.351C279.153 330.399 280.055 334.185 305.424 334.183C353.633 334.178 393.961 320.504 393.697 317.384C393.548 315.629 385.976 316.29 367.772 315.115C354.16 314.236 352.12 313.591 345.819 313.162C327.271 311.897 319.743 314.102 304.103 314.612C275.2 315.553 253.292 309.574 253.326 309.055C253.362 308.532 275.815 313.229 307.877 310.989C322.992 309.932 326.524 308.294 348.649 305.19C389.366 299.479 410.558 300.384 410.562 298.908C410.576 293.706 220.686 288 222.181 288H427.996V368.241H263.582L263.583 368.239Z" fill="#156EA0"/>
<path opacity="0.43" d="M178.811 309.387C183.983 308.068 190.039 306.89 196.848 306.229C201.9 305.739 206.568 305.611 210.765 305.696C215.183 305.617 220.047 305.775 225.27 306.324C235.819 307.431 244.83 309.813 252.011 312.322C236.069 309.45 222.488 308.764 212.148 308.81C203.688 308.848 197.091 309.376 187.37 310.176C171.99 311.44 158.843 313.104 148.586 314.614C158.66 312.872 168.736 311.13 178.81 309.389L178.811 309.387Z" fill="#156EA0"/>
<path opacity="0.43" d="M12.2843 288C7.29768 289.284 4.02379 290.547 4.07308 291.659C4.21232 294.807 30.8667 295.424 30.8446 296.116C30.8359 296.397 26.5011 295.944 20.5892 296.976C11.9208 298.488 4.50557 303.157 4.67068 303.901C4.70026 304.034 4.99968 303.93 5.74021 304.062C7.51085 304.379 8.71838 305.504 9.07448 305.794C11.6325 307.874 20.4376 307.768 25.2443 307.686C32.8049 307.559 35.9605 307.398 35.9716 307.606C35.9864 307.871 30.9148 308.398 24.8118 309.488C17.2463 310.838 5.5024 313.806 5.61207 315.741C5.73405 317.888 20.4401 318.665 23.7953 318.842C28.91 319.111 32.7273 318.987 32.7704 319.586C32.853 320.76 18.3281 322.826 18.4119 324.401C18.4723 325.532 26.0736 325.698 26.0612 326.091C26.0526 326.357 22.5619 326.559 19.3607 326.573C16.0831 326.589 14.8571 326.401 13.0729 327.223C11.9381 327.747 9.42195 329.202 9.45152 330.319C9.59569 335.833 57.2217 337.121 57.2069 339.5C57.1922 342.007 4.56841 340.845 4.16549 346.507C3.89934 350.248 26.4358 357.003 84.7239 368.242H-3.01562V288.002H12.2843V288Z" fill="#156EA0"/>
<path d="M286.664 105.229L305.408 101.816L320.677 96.7592L333.103 94.2578L348.044 81.8501L364.521 80.4748L413.495 78.3503L432.105 38.9713L432.068 9.45432C431.572 9.19566 426.654 6.7258 421.951 9.1515C417.574 11.41 415.235 16.9538 416.713 22.4724C416.338 23.5322 415.963 24.5905 415.589 25.6504C414.796 25.2151 413.525 24.6694 411.908 24.5889C407.928 24.3918 405.222 27.1834 404.763 27.6708C399.442 19.6161 388.453 18.4506 382.295 23.8682C376.597 28.8805 375.893 38.7725 381.926 45.2989C381.457 45.7074 378.696 48.1915 378.568 52.3221C378.454 56.0001 380.506 58.4621 380.987 59.0109C380.438 59.1481 379.074 59.5677 377.905 60.831C376.597 62.2426 376.347 63.8308 376.287 64.3733C363.717 56.3029 351.382 57.7555 347.84 63.3324C344.829 68.0718 348.401 75.4294 349.178 76.9577C348.856 76.8899 348.171 76.7921 347.396 77.0697C346.104 77.5318 345.577 78.6736 345.481 78.896C344.232 78.6342 343.129 78.6043 342.205 78.6736C335.792 79.1547 331.864 84.9272 331.06 86.1637C330.408 86.0028 328.261 85.558 325.896 86.6242C323.242 87.8197 322.165 90.0846 321.918 90.6429C320.531 90.9615 319.143 91.2801 317.757 91.5987C316.82 90.9552 315.424 90.236 313.669 90.1051C310.069 89.8369 306.446 92.1617 304.296 95.9722C302.662 95.693 299.66 95.4202 296.262 96.5794C290.032 98.7054 287.264 104.009 286.666 105.229H286.664Z" fill="#FCFEE9"/>
<path d="M180.849 123.696C250.689 115.439 316.588 108.823 317.341 113.468C317.702 115.697 302.968 119.947 303.522 121.925C304.158 124.196 324.164 120.562 333.827 118.785C351.272 115.574 365.374 112.235 374.799 109.845C362.018 109.413 355.591 108.587 355.513 107.366C355.36 104.92 380.716 100.89 431.574 95.2752L329.447 101.787C330.57 101.265 332.218 100.526 334.234 99.7134C349.479 93.564 362.227 92.7123 371.741 92.0262C393.264 90.4758 414.645 88.2142 414.244 88.2268C403.188 88.558 391.346 88.5327 378.81 87.9839C367.098 87.4713 356.034 86.5597 345.684 85.3863C345.207 85.0077 341.642 82.2619 337.462 83.3186C333.172 84.4037 329.975 89.0516 330.393 94.485C330.235 94.2406 328.98 92.3732 326.596 92.1366C324.776 91.9568 322.98 92.7927 321.89 94.3147C321.504 94.2516 320.633 94.1633 319.638 94.5465C318.562 94.9613 317.955 95.6931 317.724 96.0054C317.212 95.5433 315.189 93.8289 312.451 94.015C309.205 94.2358 306.27 97.0385 305.529 100.956C304.757 100.504 300.181 97.9201 294.476 99.5462C288.915 101.131 286.4 105.544 285.957 106.356C277.15 108.503 268.079 110.534 258.748 112.421C231.3 117.971 205.214 121.543 180.844 123.696H180.849Z" fill="#9FE3ED"/>
<path d="M356.907 78.9586C353.444 74.9021 352.932 69.598 355.258 66.4562C358.43 62.1742 365.834 63.3192 370.006 66.2954C374.98 69.844 375.319 75.9682 375.354 76.8593C376.343 72.0237 380.002 68.9766 383.344 69.2289C385.735 69.4103 387.37 71.2351 387.916 71.9086C390.553 71.4496 394.732 71.0995 399.548 72.3423C401.75 72.9101 403.611 73.6892 405.108 74.4557C404.157 73.3753 402.65 71.8565 400.521 70.4497C395.551 67.1613 390.703 66.8001 390.778 65.8632C390.804 65.5162 391.507 65.0731 394.717 64.7214C389.247 60.3857 386.976 55.4286 388.456 52.8673C388.757 52.3452 389.467 51.4841 391.355 50.9857C388.152 47.3172 387.866 42.7623 389.632 40.8712C391.645 38.7168 397.401 38.8682 401.352 43.5713C404.274 43.3979 406.151 44.2858 407.059 44.8284C411.334 47.3787 413.277 53.6637 411.579 60.4093C412.22 59.8005 418.026 54.0927 416.822 46.1705C416.184 41.9752 413.883 39.1537 412.752 37.9408C413.769 37.4093 415.407 36.7311 417.428 36.7422C420.282 36.7579 421.571 38.1332 423.931 38.4944C425.658 38.7578 428.293 38.5291 431.914 35.9062C431.852 51.5424 431.789 67.1786 431.727 82.8132C430.127 80.8323 427.474 78.2031 423.648 77.2552C415.078 75.1339 410.805 83.963 399.232 84.5875C389.787 85.097 389.209 79.4049 379.999 80.9679C375.392 81.7502 371.288 83.8951 365.057 82.6176C362.842 82.1634 361.088 81.4269 359.924 80.8543C358.919 80.2219 357.912 79.5894 356.907 78.957V78.9586Z" fill="#9FE3ED"/>
<path d="M272.251 99.0844C279.19 97.6862 284.606 95.5194 284.348 94.2447C284.089 92.97 278.254 93.0701 271.315 94.4683C264.375 95.8665 258.96 98.0333 259.218 99.308C259.477 100.583 265.312 100.483 272.251 99.0844Z" fill="#9FE3ED"/>
<path d="M341.453 70.8746C341.448 71.6585 339.408 72.2815 336.898 72.2673C334.387 72.2531 332.355 71.6064 332.359 70.8226C332.364 70.0387 334.404 69.4157 336.914 69.4299C339.426 69.4441 341.458 70.0908 341.453 70.8746Z" fill="#FCFEE9"/>
<path d="M360.133 34.4314C360.14 33.1292 352.828 32.0315 343.802 31.9797C334.775 31.9279 327.451 32.9415 327.443 34.2437C327.436 35.5459 334.747 36.6436 343.774 36.6954C352.801 36.7472 360.125 35.7336 360.133 34.4314Z" fill="#9FE3ED"/>
<path d="M11.4511 140.866C11.7581 140.82 12.9245 140.677 13.7648 141.328C14.8442 142.166 15.023 144.039 13.8012 145.626C14.0861 145.681 14.5577 145.807 15.0436 146.121C15.618 146.493 15.9266 146.941 16.0707 147.187C18.071 146.318 20.4417 146.624 22.0671 147.956C23.7905 149.367 24.3507 151.667 23.4439 153.659C24.4536 153.416 25.0613 153.625 25.3303 153.75C26.7341 154.401 27.3687 156.657 26.4413 159.237C26.9588 159.1 28.3024 158.814 29.8265 159.311C30.0575 159.387 32.5881 160.256 33.248 162.683C33.7354 164.48 33.0043 166.416 31.3837 167.643C33.5882 167.039 35.8197 167.647 36.9212 169.082C37.771 170.189 37.6808 171.438 37.6238 171.885C38.5148 172.053 40.2572 172.501 41.9459 173.794C43.318 174.845 44.0728 176.007 44.4574 176.72C45.0398 175.613 46.1571 175.003 47.0782 175.182C47.8837 175.34 48.4693 176.086 48.6987 176.67C48.9804 177.384 48.7146 177.813 49.0232 178.009C49.5233 178.324 50.3858 177.28 51.454 177.364C52.4716 177.444 53.2328 178.411 53.7503 179.322C55.8773 179.056 58.5819 179.002 59.6486 180.406C60.1123 181.016 59.7847 181.371 60.1883 181.86C61.5952 183.567 66.1815 180.401 70.4165 181.926C73.2161 182.934 73.4044 185.106 75.7102 185.101C77.785 185.097 77.8451 183.34 80.2475 183.018C83.1088 182.635 84.579 184.917 87.847 184.242C88.7681 184.051 89.3663 183.721 89.5942 183.614C91.7845 182.57 97.7872 183.832 112.771 191.695C78.1901 192.355 52.0554 193.058 35.6519 194.12C32.8492 194.301 28.6047 193.393 23.1195 192.553C22.7143 192.492 2.375 165.934 2.375 165.934V143.842L11.4511 140.866Z" fill="#C0F6F9"/>
<path d="M0 201.949C4.40749 205.202 10.6539 208.663 18.3579 209.145C37.6971 210.356 45.0624 191.482 63.8556 193.582C74.1297 194.73 78.8062 201.139 86.9533 197.87C92.1759 195.775 95.974 190.847 100.948 192.233C103.526 192.951 103.539 194.563 106.604 195.455C110.043 196.455 112.306 195.093 118.08 193.522C126.127 191.334 130.993 191.463 130.971 190.665C130.946 189.743 124.47 190.978 118.812 187.478C117.841 186.877 115.6 185.451 112.211 184.292C111.487 184.044 110.689 183.835 109.738 183.663C101.907 182.254 99.6678 186.342 90.8307 186.062C82.7706 185.806 81.351 182.302 74.5142 183.336C69.3139 184.123 70.1637 186.145 64.1072 187.697C55.4283 189.919 53.2111 185.888 42.0793 187.67C39.4537 188.091 36.8773 188.748 35.4039 187.522C33.3387 185.804 35.8344 182.377 33.853 180.721C31.506 178.758 26.2898 182.138 23.6422 180.067C22.0185 178.797 23.1991 176.914 22.1292 174.343C21.2715 172.283 18.9514 169.736 12.3916 167.803C15.9904 166.744 18.3912 163.866 18.3469 160.771C18.2978 157.204 15.0092 154.037 10.5954 153.576C11.1888 152.69 12.7287 150.113 11.9184 147.145C10.8407 143.175 6.00273 140.106 0 140V201.949Z" fill="#99E0F2"/>
<path d="M8.58594 170.688C9.82826 171.99 12.2718 174.925 13.0187 179.228C13.5252 182.143 13.0567 184.565 12.6199 186.06C13.3717 185.291 15.0413 183.365 15.4559 180.501C15.7614 178.389 15.2534 176.686 14.8894 175.758C14.595 175.171 14.174 174.498 13.5663 173.813C11.8872 171.926 9.7523 171.064 8.58752 170.689L8.58594 170.688Z" fill="#C0F6F9"/>
<path d="M41.2041 182.443C40.9287 182.622 39.468 179.546 35.6919 178.217C31.2591 176.657 27.3818 178.822 25.7581 176.923C25.1915 176.261 25.0063 175.229 25.3593 174.411C25.8356 173.307 27.1761 172.848 27.559 172.734C30.5359 171.854 34.0935 174.581 35.7125 175.824C39.5107 178.737 41.5063 182.249 41.2041 182.443Z" fill="#9FE4EC"/>
<path d="M47.0399 293.161C46.6664 292.727 47.1404 292.088 47.6658 292.319C49.3658 293.074 51.4831 293.787 53.9584 294.154C56.3435 294.509 58.2083 294.414 59.6147 294.319C66.3683 293.859 73.2558 292.66 77.699 291.785C69.9615 295.135 62.2213 298.485 54.4838 301.832L47.0399 293.158V293.161Z" fill="#C4A283"/>
<path d="M74.0717 282.683C74.0202 283.738 73.9996 284.808 74.0099 285.863C74.0279 287.924 74.167 290.009 74.4169 292.06L73.9043 292.121C73.6519 290.052 73.5128 287.947 73.4948 285.866C73.4845 284.8 73.5051 283.72 73.5566 282.654L74.0717 282.68V282.683Z" fill="#69779E"/>
<path d="M59.5412 287.754C59.5824 288.991 59.6519 290.246 59.7421 291.479C59.9146 293.791 60.1774 296.13 60.5251 298.425L60.0151 298.502C59.6648 296.194 59.3995 293.843 59.2269 291.517C59.1342 290.277 59.0672 289.017 59.0234 287.772L59.5386 287.754H59.5412Z" fill="#69779E"/>
<path d="M46.4614 293.047L46.2656 292.572C53.7559 289.502 61.4368 286.617 69.0919 284.001C73.4655 282.507 77.9267 281.067 82.3466 279.725L82.496 280.215C78.0786 281.557 73.6252 282.995 69.2567 284.486C61.6093 287.099 53.9388 289.98 46.4588 293.047H46.4614Z" fill="white"/>
<path d="M46.4614 293.434L46.2656 292.959C53.7559 289.889 61.4368 287.004 69.0919 284.388C73.4655 282.894 77.9267 281.454 82.3466 280.111L82.496 280.602C78.0786 281.944 73.6252 283.382 69.2567 284.873C61.6093 287.486 53.9388 290.366 46.4588 293.434H46.4614Z" fill="#69779E"/>
<path d="M73.8061 282.776C73.7546 283.831 73.734 284.902 73.7443 285.957C73.7623 288.018 73.9014 290.102 74.1513 292.153L73.6387 292.215C73.3863 290.146 73.2472 288.041 73.2291 285.959C73.2188 284.894 73.2394 283.813 73.291 282.748L73.8061 282.774V282.776Z" fill="white"/>
<path d="M59.4005 287.754C59.4417 288.991 59.5113 290.246 59.6014 291.479C59.774 293.791 60.0367 296.13 60.3845 298.425L59.8745 298.502C59.5242 296.194 59.2589 293.843 59.0863 291.517C58.9936 290.277 58.9266 289.017 58.8828 287.772L59.398 287.754H59.4005Z" fill="white"/>
<path d="M85.1324 246.002C84.5632 247.239 84.0017 248.628 83.5045 250.163C82.5876 252.989 82.1136 255.584 81.8767 257.774C81.6912 257.735 81.5058 257.694 81.3203 257.656C81.5264 255.517 81.9952 252.868 83.0229 249.965C83.5947 248.353 84.2412 246.933 84.8877 245.709C84.9701 245.807 85.0526 245.904 85.135 246.002H85.1324Z" fill="#69779E"/>
<path d="M114.677 244.577C114.221 243.625 113.731 242.672 113.219 241.746C112.222 239.938 111.109 238.167 109.914 236.481L110.334 236.186C111.539 237.887 112.662 239.677 113.667 241.502C114.182 242.436 114.677 243.396 115.138 244.359L114.674 244.579L114.677 244.577Z" fill="#69779E"/>
<path d="M96.6916 252.356C96.4495 251.14 96.1817 249.915 95.8932 248.711C95.3497 246.455 94.7135 244.191 94 241.981L94.4894 241.824C95.208 244.047 95.8468 246.324 96.3929 248.593C96.6839 249.802 96.9544 251.034 97.1965 252.256L96.6916 252.356Z" fill="#69779E"/>
<path d="M84.977 245.891L84.7812 245.416C92.2715 242.346 99.9524 239.461 107.607 236.845C111.981 235.351 116.442 233.911 120.862 232.568L121.012 233.059C116.594 234.401 112.141 235.839 107.772 237.33C100.125 239.943 92.4544 242.823 84.9744 245.891H84.977Z" fill="white"/>
<path d="M84.977 246.278L84.7812 245.803C92.2715 242.733 99.9524 239.847 107.607 237.232C111.981 235.738 116.442 234.298 120.862 232.955L121.012 233.445C116.594 234.788 112.141 236.225 107.772 237.717C100.125 240.33 92.4544 243.21 84.9744 246.278H84.977Z" fill="#69779E"/>
<path d="M114.45 244.577C113.994 243.625 113.505 242.672 112.992 241.746C111.995 239.938 110.883 238.167 109.688 236.481L110.107 236.186C111.313 237.887 112.436 239.677 113.44 241.502C113.956 242.436 114.45 243.396 114.911 244.359L114.447 244.579L114.45 244.577Z" fill="white"/>
<path d="M96.4807 252.214C96.2386 250.997 95.9707 249.773 95.6822 248.569C95.1388 246.312 94.5025 244.048 93.7891 241.838L94.2785 241.682C94.9971 243.905 95.6359 246.182 96.1819 248.451C96.473 249.66 96.7434 250.892 96.9856 252.114L96.4807 252.214Z" fill="white"/>
<path d="M85.0309 245.701C84.4616 246.938 83.9001 248.327 83.403 249.862C82.486 252.688 82.0121 255.283 81.7751 257.473C81.5897 257.434 81.4042 257.393 81.2188 257.355C81.4248 255.217 81.8936 252.567 82.9213 249.664C83.4931 248.052 84.1396 246.633 84.7862 245.408C84.8686 245.506 84.951 245.603 85.0334 245.701H85.0309Z" fill="white"/>
<path d="M238.58 273.526L236.641 107.318H237.068L239.6 273.295L238.58 273.526Z" fill="#FFF3DE"/>
<path d="M170.477 226.971C167.352 226.971 164.82 229.086 164.82 231.694C164.82 234.302 167.352 236.417 170.477 236.417C173.601 236.417 176.133 234.302 176.133 231.694C176.133 229.086 173.601 226.971 170.477 226.971ZM170.629 234.715C168.336 234.715 166.477 233.162 166.477 231.247C166.477 229.332 168.336 227.779 170.629 227.779C172.921 227.779 174.781 229.332 174.781 231.247C174.781 233.162 172.921 234.715 170.629 234.715Z" fill="#38434C"/>
<path d="M151.508 165.383C151.163 162.934 151.874 160.858 153.267 160.206C153.548 160.075 153.953 159.957 154.506 159.987C155.063 160.003 155.459 160.157 155.725 160.306C157.025 161.037 157.597 163.011 157.165 165.244C155.279 165.291 153.394 165.337 151.508 165.383Z" fill="#FFF3DE"/>
<path d="M152.976 165.348C152.904 164.84 152.78 163.608 153.167 162.437C153.167 162.437 153.517 161.377 154.138 161.01C154.233 160.954 154.333 160.915 154.333 160.915C154.496 160.854 154.697 160.812 154.946 160.83C155.173 160.838 155.359 160.889 155.508 160.959C155.508 160.959 155.629 161.013 155.742 161.095C156.345 161.521 156.644 162.653 156.644 162.653C156.907 163.646 156.889 164.581 156.814 165.258C155.534 165.289 154.256 165.323 152.976 165.353V165.348Z" fill="#FFF3DE"/>
<path d="M151.508 165.396C151.778 165.417 152.165 165.471 152.597 165.625C152.644 165.64 153.082 165.799 153.432 166.033C154.305 166.616 154.632 167.668 154.725 168.012C155.539 167.093 156.35 166.174 157.164 165.258L151.508 165.396Z" fill="#FFF3DE"/>
<path d="M170.975 173.336H173.649L162.04 179.728V180.677H160.891V179.892L157.437 180.896V187.493H155.727L155.891 179.235L170.975 173.336Z" fill="#C4A283"/>
<path d="M169.867 186.451L155.727 189.891V188.287L169.867 186.451Z" fill="#C4A283"/>
<path d="M119.195 191.293L120.447 191.588L154.233 189.884L153.754 188.441L119.195 191.293Z" fill="#C4A283"/>
<path d="M171.202 213.175C170.269 206.55 172.191 200.933 175.959 199.167C176.716 198.813 177.809 198.489 179.31 198.574C180.817 198.615 181.886 199.031 182.607 199.437C186.126 201.416 187.671 206.758 186.499 212.798C181.399 212.923 176.299 213.049 171.199 213.175H171.202Z" fill="#FFFCFA"/>
<path d="M175.179 213.076C174.986 211.698 174.646 208.369 175.694 205.201C175.694 205.201 176.642 202.331 178.322 201.338C178.579 201.184 178.852 201.079 178.852 201.079C179.29 200.909 179.836 200.799 180.508 200.848C181.121 200.868 181.624 201.009 182.028 201.194C182.028 201.194 182.355 201.343 182.659 201.559C184.287 202.714 185.101 205.774 185.101 205.774C185.814 208.459 185.763 210.987 185.559 212.82C182.1 212.905 178.638 212.989 175.179 213.076Z" fill="#F0E6D7"/>
<path d="M171.203 213.174C171.937 213.227 172.978 213.376 174.152 213.795C174.276 213.838 175.463 214.267 176.411 214.899C178.773 216.472 179.657 219.324 179.907 220.251C182.106 217.766 184.303 215.281 186.503 212.799L171.203 213.176V213.174Z" fill="#C4A283"/>
<path d="M176 213.078C175.851 212.002 175.583 209.397 176.402 206.922C176.402 206.922 177.144 204.679 178.455 203.903C178.656 203.783 178.869 203.701 178.869 203.701C179.212 203.57 179.64 203.482 180.165 203.521C180.644 203.539 181.036 203.649 181.352 203.793C181.352 203.793 181.607 203.908 181.847 204.078C183.119 204.981 183.756 207.374 183.756 207.374C184.312 209.474 184.273 211.448 184.114 212.88C181.409 212.947 178.705 213.013 176 213.08V213.078Z" fill="#253D4C"/>
<path d="M138.726 200.018L135.867 201.853L141.786 203.195H161.022L165.056 201.632H146.618L138.726 200.018Z" fill="#C4A283"/>
<path d="M155.898 203.133V211.368L163.912 209.425V203.133L162.423 201.164H159.103L155.898 203.133Z" fill="#FFF3DE"/>
<path opacity="0.42" d="M163.912 203.131L155.898 207.249V203.131L159.002 201.227L162.827 201.699L163.912 203.131Z" fill="#C4A283"/>
<path d="M153.785 167.434V178.772L152.912 178.962C152.539 179.042 152.273 179.373 152.273 179.753V181.265H153.523V198.566H156.876V166.387L153.785 167.437V167.434Z" fill="#FFF3DE"/>
<path d="M138.727 200.007L146.619 201.622H165.056L163.227 198.937L156.878 198.564H153.524L141.38 198.849L138.727 200.007Z" fill="#FFF3DE"/>
<path d="M141.211 203.058V211.295L149.224 209.35V203.058L147.735 201.092H144.415L141.211 203.058Z" fill="#FFF3DE"/>
<path opacity="0.42" d="M149.224 203.069L141.211 207.186V203.069L144.312 201.164L148.14 201.636L149.224 203.069Z" fill="#C4A283"/>
<path d="M110.58 213.584C109.447 205.524 111.783 198.693 116.368 196.544C117.287 196.113 118.619 195.72 120.445 195.823C122.279 195.874 123.58 196.378 124.456 196.873C128.737 199.281 130.614 205.778 129.19 213.127C122.985 213.281 116.782 213.432 110.578 213.586L110.58 213.584Z" fill="#FFFCFA"/>
<path d="M115.411 213.459C115.177 211.783 114.765 207.732 116.037 203.879C116.037 203.879 117.191 200.385 119.234 199.179C119.548 198.994 119.88 198.866 119.88 198.866C120.411 198.66 121.078 198.527 121.894 198.583C122.641 198.609 123.252 198.781 123.744 199.007C123.744 199.007 124.143 199.189 124.511 199.451C126.492 200.855 127.481 204.58 127.481 204.58C128.347 207.845 128.287 210.92 128.04 213.151C123.831 213.253 119.623 213.359 115.414 213.461L115.411 213.459Z" fill="#F0E6D7"/>
<path d="M118.195 213.476C118.046 212.401 117.778 209.795 118.597 207.321C118.597 207.321 119.339 205.077 120.65 204.302C120.851 204.181 121.065 204.099 121.065 204.099C121.407 203.968 121.835 203.881 122.36 203.919C122.839 203.937 123.231 204.048 123.548 204.191C123.548 204.191 123.803 204.307 124.042 204.476C125.315 205.38 125.951 207.772 125.951 207.772C126.507 209.872 126.469 211.846 126.309 213.278C123.604 213.345 120.9 213.412 118.195 213.479V213.476Z" fill="#253D4C"/>
<path d="M110.581 213.577C111.474 213.643 112.739 213.823 114.169 214.331C114.318 214.385 115.766 214.906 116.914 215.674C119.786 217.589 120.863 221.057 121.167 222.184C123.841 219.162 126.517 216.138 129.19 213.117L110.578 213.577H110.581Z" fill="#C4A283"/>
<path d="M106.219 221.617L108.336 223.368C109.632 224.439 111.262 225.026 112.944 225.026H127.394L130.771 220.352L112.182 219.436L106.219 221.62V221.617Z" fill="#C4A283"/>
<path d="M179.438 218.541L191.647 237.416L218.012 233.776L189.828 217.494L179.438 218.541Z" fill="#C4A283"/>
<path d="M205.608 215.884C198.11 218.263 190.614 220.643 183.116 223.02C175.86 222.216 167.78 221.718 159.002 221.795C145.549 221.916 133.6 223.366 123.534 225.248C120.948 223.544 118.359 221.839 115.773 220.137L146.178 210.963H177.723L203.503 213.453L205.608 215.884Z" fill="#C4A283"/>
<path d="M185.313 226.971C182.188 226.971 179.656 229.086 179.656 231.694C179.656 234.302 182.188 236.417 185.313 236.417C188.437 236.417 190.969 234.302 190.969 231.694C190.969 229.086 188.437 226.971 185.313 226.971ZM185.465 234.715C183.172 234.715 181.312 233.162 181.312 231.247C181.312 229.332 183.172 227.779 185.465 227.779C187.757 227.779 189.617 229.332 189.617 231.247C189.617 233.162 187.757 234.715 185.465 234.715Z" fill="#38434C"/>
<path d="M70.8281 267.909L76.1445 259.731C78.4884 257.867 81.3166 255.883 84.6496 253.994C89.4559 251.273 93.9686 249.515 97.7137 248.357C111.963 243.783 126.212 239.211 140.461 234.636C143.134 233.368 145.811 232.103 148.484 230.835C162.865 230.504 177.984 230.583 193.774 231.207C203.348 231.584 212.646 232.141 221.659 232.845C223.369 234.462 225.079 236.079 226.787 237.694C236.598 238.448 246.994 240.048 257.783 242.851C259.084 243.19 260.372 243.539 261.642 243.901C256.745 245.574 251.851 247.25 246.955 248.924L72.286 269.067L70.8281 267.909Z" fill="#FFF3DE"/>
<path d="M72.2812 269.073L93.8943 270.647L106.369 264.442L107.18 261.637L72.2812 269.073Z" fill="#AD896C"/>
<path d="M99.5996 271.379C97.7451 273.705 95.6974 276.677 93.8454 280.325C92.5962 282.786 91.6612 285.115 90.9529 287.207H85.2656L93.2556 270.889L99.3395 268.104L99.6022 271.382L99.5996 271.379Z" fill="#D6B89F"/>
<path d="M77.7031 290.658C79.0786 286.243 80.8404 281.414 83.1173 276.319C84.7323 272.707 86.4169 269.388 88.0937 266.367C94.6927 264.629 104.46 262.119 115.78 259.452C118.529 258.805 122.511 257.888 127.881 257.683C132.461 257.506 136.258 257.917 138.841 258.317C134.246 259 129.215 260.006 123.868 261.485C113.98 264.218 105.66 267.83 99.0097 271.316C97.2659 273.4 95.3701 275.965 93.5517 279.027C91.9444 281.735 90.7158 284.302 89.7731 286.587C85.7498 287.942 81.7264 289.3 77.7031 290.658Z" fill="#C4A283"/>
<path d="M139.453 253.164C142.827 250.921 147.149 248.475 152.409 246.413C155.835 245.071 159.047 244.129 161.911 243.464C164.816 242.727 168.987 241.785 174.063 241.041C179.277 240.276 185.088 239.773 197.062 239.796C209.895 239.821 219.698 240.432 222.052 240.581C231.526 241.19 244.028 242.296 258.813 244.447C258.79 244.819 258.769 245.189 258.746 245.561L162.22 244.501L139.453 253.162V253.164Z" fill="#C4A283"/>
<path d="M139.448 253.165C144.501 250.526 151.057 247.623 158.98 245.366C173.257 241.3 185.257 241.308 200.936 241.303C206.131 241.303 211.641 241.557 222.66 242.068C235.848 242.679 243.531 243.308 252.034 244.514C254.862 244.914 257.188 245.297 258.741 245.564C264.776 250.051 270.813 254.535 276.848 259.022C242.305 260.46 205.07 259.839 165.597 256.083C156.716 255.239 147.997 254.261 139.445 253.167L139.448 253.165Z" fill="url(#paint1_linear_620_33)"/>
<path d="M145.591 252.373C158.779 254.121 169.507 254.812 176.544 255.125C213.673 256.786 234.065 251.816 270.981 257.964C273.539 258.39 275.607 258.775 276.856 259.014C247.359 261.196 214.276 261.434 178.385 258.054C166.908 256.973 155.843 255.587 145.205 253.965C143.288 253.698 141.369 253.428 139.453 253.161L145.591 252.376V252.373Z" fill="#0B3F72"/>
<path d="M128.797 257.358L139.45 253.164C145.191 254.014 154.871 255.307 166.938 256.178C194.321 258.152 208.114 256.08 237.174 256.701C246.055 256.891 259.802 257.405 276.851 259.017C284.392 261.843 291.932 264.667 299.473 267.493L361.191 276.947L243.487 284.599C229.761 283.744 214.461 281.973 197.981 278.721C170.666 273.33 147.435 265.319 128.797 257.356V257.358Z" fill="#FEF3DF"/>
<path d="M48.875 308.574V308.618C48.875 309.293 49.4236 309.842 50.1036 309.842H85.7906L88.2452 299.312L56.5044 303.943L48.875 308.574Z" fill="#AD896C"/>
<path d="M84.0159 304.288L48.875 308.57C65.4911 304.809 83.3488 301.352 102.363 298.456C123.242 295.276 143.011 293.15 161.463 291.795C135.647 295.961 109.833 300.125 84.0159 304.288Z" fill="#D6B89F"/>
<path d="M84.0163 304.288V307.828L79.0193 319.035L77.7031 326.377L133.406 319.888L152.521 302.805L147.413 294.927C152.096 293.882 156.781 292.84 161.464 291.795C135.647 295.961 109.833 300.125 84.0163 304.288Z" fill="#C4A283"/>
<path d="M56.3884 298.387C74.6658 291.456 94.5429 284.705 115.947 278.506C132.576 273.69 148.577 269.657 163.823 266.271C173.657 270.178 184.975 274.003 197.668 277.194C214.691 281.473 230.22 283.611 243.483 284.6C213.735 287.208 183.991 289.813 154.243 292.421C140.195 293.915 125.738 295.714 110.904 297.86C89.2574 300.992 68.5613 304.614 48.8672 308.565C51.3734 305.171 53.8796 301.778 56.3858 298.384L56.3884 298.387Z" fill="#FEFEE8"/>
<path d="M91.3117 307.439L89.8203 324.386L136.645 318.967L149.709 305.991V300.441C141.485 300.731 132.709 301.33 123.457 302.354C111.864 303.637 101.12 305.416 91.3117 307.436V307.439Z" fill="#035B89"/>
<path d="M90.9245 311.854L149.711 302.649V300.441C141.03 300.747 131.704 301.396 121.826 302.539C110.838 303.809 100.638 305.514 91.3108 307.436C91.182 308.907 91.0507 310.381 90.9219 311.852L90.9245 311.854Z" fill="#0B3F72"/>
<path d="M90.6333 314.895C88.2842 315.714 85.9351 316.533 83.5835 317.352L82.4141 324.154L89.8245 323.343C90.0949 320.527 90.3654 317.709 90.6333 314.893V314.895Z" fill="url(#paint2_linear_620_33)"/>
<path d="M90.6328 314.894L149.71 302.637L91.3128 307.427L90.6328 314.894Z" fill="#0B3F72"/>
<path d="M91.3117 307.43L92.8468 308.297L91.662 323.109L89.8203 323.347L91.3117 307.43Z" fill="#D6B89F"/>
<path d="M90.6317 314.894L92.3471 314.537L91.662 323.142L89.8203 323.344L90.6317 314.894Z" fill="#EAD8C3"/>
<path d="M92.8451 308.307C100.84 306.633 109.394 305.113 118.471 303.861C129.539 302.333 139.991 301.396 149.71 300.878V300.441C139.932 300.765 129.307 301.537 117.979 302.975C108.457 304.184 99.5497 305.722 91.3125 307.436C91.8251 307.726 92.3351 308.016 92.8476 308.304L92.8451 308.307Z" fill="#B29176"/>
<path d="M147.409 294.914L161.46 291.783C169.032 290.707 176.893 289.747 185.025 288.941C197.162 287.737 208.794 286.985 219.857 286.582C197.216 291.685 174.573 296.788 151.932 301.894L147.406 294.914H147.409Z" fill="#F8EED0"/>
<path d="M122.357 319.743C128.273 317.143 135.112 313.323 141.865 307.64C143.697 306.1 145.374 304.547 146.906 303.009C147.841 302.886 148.776 302.762 149.711 302.637L149.273 306.135L135.496 319.088L122.352 319.743H122.357Z" fill="#0B3F72"/>
<path d="M139.448 253.157L145.586 252.372C148.316 251.142 152.311 249.471 157.259 247.856C169.275 243.939 183.176 241.588 216.609 243.02C228.175 243.516 242.928 244.499 260.07 246.542C259.627 246.214 259.184 245.885 258.741 245.554C256.503 245.169 253.445 244.679 249.803 244.199C245.007 243.57 240.749 243.167 235.333 242.769C223.53 241.904 213.969 241.626 211.741 241.565C204.318 241.362 195.04 241.262 184.292 241.519C178.476 241.591 171.15 242.204 162.923 244.175C153.081 246.532 145.174 250.059 139.445 253.155L139.448 253.157Z" fill="#0B3F72"/>
<path d="M165.586 244.858L176.633 255.475H178.387L165.98 244.334L165.586 244.858Z" fill="#0B3F72"/>
<path d="M189.18 242.553L203.854 255.837H205.605L189.574 242.029L189.18 242.553Z" fill="#0B3F72"/>
<path d="M215.75 243.026L230.421 256.31H232.176L216.144 242.502L215.75 243.026Z" fill="#0B3F72"/>
<path d="M242.383 244.141L257.057 257.423H258.811L242.777 243.615L242.383 244.141Z" fill="#0B3F72"/>
<path d="M99.3588 271.124L97.1875 283.843C109.878 279.998 123.099 276.281 136.838 272.761C146.006 270.413 155.005 268.251 163.827 266.262C161.674 265.127 159.294 264.011 156.682 262.984C149.802 260.281 143.427 259.026 138.204 258.461C134.873 258.838 131.329 259.406 127.615 260.23C116.065 262.797 106.592 267.037 99.3614 271.121L99.3588 271.124Z" fill="#0B3F72"/>
<path d="M81.6208 279.79L96.0784 275.123C94.9399 276.735 93.7525 278.591 92.596 280.688C91.4446 282.78 90.5174 284.77 89.7653 286.587C87.8618 287.26 85.9325 287.924 83.975 288.587C81.8603 289.3 79.7662 289.991 77.6953 290.658C78.1255 289.054 78.6432 287.352 79.2742 285.573C80.0186 283.466 80.8171 281.538 81.6208 279.79Z" fill="#FFF3E4"/>
<path d="M100.981 274.709C102.274 273.772 104.265 272.404 106.817 270.959C112.948 267.491 117.924 266.146 127.879 263.458C132.619 262.177 136.096 261.425 140.572 261.689C142.167 261.784 143.483 261.985 144.387 262.149C150.868 263.525 157.351 264.901 163.831 266.279L97.1094 284.23C97.5292 281.794 97.9516 279.358 98.3715 276.922C99.2421 276.185 100.113 275.448 100.983 274.712L100.981 274.709Z" fill="#005987"/>
<path d="M70.8229 267.908L105.382 260.631C111.831 259.507 118.482 258.531 125.333 257.738C126.492 257.604 127.644 257.476 128.793 257.355C129.019 257.453 129.246 257.548 129.47 257.646C127.997 257.902 126.521 258.164 125.042 258.426C107.12 261.624 89.5331 265.182 72.2782 269.066C71.7914 268.681 71.3071 268.293 70.8203 267.908H70.8229Z" fill="#D6B89F"/>
<path d="M129.476 257.643C131.121 257.664 132.909 257.761 134.815 257.977C136.002 258.11 137.133 258.277 138.202 258.467C136.438 258.714 134.676 258.96 132.912 259.206L129.148 258.685L129.476 257.641V257.643Z" fill="#C4A283"/>
<path d="M128.797 257.356C136.707 256.714 147.847 257.092 159.487 262.118C161.681 263.065 163.711 264.1 165.581 265.175C164.996 265.54 164.412 265.904 163.827 266.269C161.092 264.829 157.9 263.373 154.266 262.095C148.146 259.941 142.564 258.919 138.031 258.439C134.953 258.078 131.875 257.716 128.799 257.356H128.797Z" fill="#D6B89F"/>
<path opacity="0.45" d="M165.582 265.182L186.209 274.045C187.906 274.474 190.472 275.034 193.642 275.385C197.681 275.832 200.744 275.719 200.744 275.801C200.744 275.886 197.436 276.066 193.444 275.942C189.495 275.822 186.253 275.444 184.035 275.126C177.299 272.177 170.564 269.225 163.828 266.275V265.182H165.582Z" fill="#D6B89F"/>
<path d="M200.745 275.793C195.256 275.929 186.731 276.314 176.368 277.541C168.36 278.488 161.439 279.682 155.912 280.781C154.603 281.04 153.431 281.284 152.337 281.52C148.331 282.38 145.632 283.042 143.96 283.44C140.236 284.32 138.404 284.605 133.098 285.624C130.762 286.074 125.912 287.075 116.209 289.077C109.159 290.532 93.6999 293.836 57.2969 301.835C57.3999 301.719 57.5004 301.601 57.6034 301.486C88.994 294.66 109.049 290.266 121.899 287.439C123.112 287.172 130.17 285.681 144.28 282.698C163.77 278.578 168.239 277.659 174.751 276.887C180.652 276.186 189.129 275.503 199.55 275.793H200.75H200.745Z" fill="#D6B89F"/>
<path d="M165.585 265.182V266.963L132.492 274.705L163.831 266.275L164.576 265.182H165.585Z" fill="#D6B89F"/>
<path opacity="0.49" d="M96.0788 275.123L96.3647 275.906C95.2365 277.677 94.08 279.728 93.0033 282.059C92.3594 283.453 91.8133 284.798 91.3471 286.071C90.8191 286.243 90.2937 286.415 89.7656 286.587C90.4946 284.821 91.3858 282.903 92.483 280.891C93.6704 278.712 94.8991 276.789 96.0762 275.123H96.0788Z" fill="#FFF3E4"/>
<path d="M160.061 265.182L97.1094 284.226L163.831 266.275L160.983 265.182H160.061Z" fill="#0B3F72"/>
<path d="M137.435 264.022C137.677 264.923 134.105 266.661 129.456 267.901C124.806 269.143 120.84 269.418 120.598 268.517C120.355 267.616 123.928 265.878 128.577 264.638C133.226 263.396 137.193 263.121 137.435 264.022Z" fill="#0C81AF"/>
<path d="M123.465 270.966C123.545 271.266 122.358 271.843 120.81 272.257C119.264 272.67 117.943 272.762 117.863 272.462C117.783 272.162 118.971 271.584 120.519 271.171C122.064 270.758 123.386 270.665 123.465 270.966Z" fill="#0C81AF"/>
<path d="M121.243 310.972C121.39 311.519 119.224 312.571 116.406 313.324C113.588 314.076 111.185 314.242 111.038 313.696C110.891 313.149 113.058 312.097 115.876 311.344C118.693 310.592 121.097 310.425 121.243 310.972Z" fill="#0C81AF"/>
<path d="M112.772 315.173C112.821 315.356 112.1 315.705 111.162 315.956C110.225 316.205 109.426 316.262 109.377 316.08C109.328 315.897 110.05 315.548 110.987 315.297C111.925 315.048 112.723 314.991 112.772 315.173Z" fill="#0C81AF"/>
<path d="M109.249 317.991C109.275 318.091 108.883 318.281 108.373 318.417C107.863 318.553 107.428 318.584 107.4 318.483C107.374 318.383 107.765 318.193 108.275 318.057C108.785 317.921 109.221 317.89 109.249 317.991Z" fill="#0C81AF"/>
<path opacity="0.55" d="M174.523 257.415C182.006 261.45 191.866 265.837 203.897 268.953C222.025 273.648 237.789 273.571 248.55 272.624C238.556 272.97 224.768 272.331 209.092 268.06C198.277 265.113 189.288 261.178 182.284 257.487C179.698 257.461 177.112 257.438 174.523 257.412V257.415Z" fill="#D6B89F"/>
<path opacity="0.45" d="M193.444 275.94L212.515 282.46C206.454 283.353 200.291 284.334 194.037 285.41C182.639 287.371 171.63 289.53 161.023 291.832C174.376 290.356 185.279 289.345 192.852 288.685C198.73 288.174 202.537 287.884 217.746 286.67C227.537 285.887 236.4 285.173 243.488 284.601C235.9 284.062 227.588 283.13 218.697 281.608C209.455 280.024 201.009 278.05 193.444 275.938V275.94Z" fill="#D6B89F"/>
<path d="M111.367 221.17L123.576 240.045C126.85 239.288 130.379 238.33 134.101 237.119C137.869 235.889 141.323 234.565 144.447 233.23C136.885 228.861 129.323 224.492 121.758 220.123L111.367 221.173V221.17Z" fill="#FFF3DE"/>
<path d="M111.37 221.18L106.219 221.617C107.72 220.639 110.057 219.211 113.057 217.771C119.564 214.65 125.205 213.384 131.121 212.091C133.522 211.567 136.891 210.902 140.986 210.335C154.138 208.895 169.299 208.289 186.013 209.513C192.702 210.004 199.054 210.743 205.04 211.654C205.199 211.811 206.4 213.03 206.137 214.624C206.047 215.176 205.81 215.597 205.612 215.877C204.11 215.523 201.882 215.027 199.167 214.537C191.193 213.097 184.547 212.704 171.372 212.527C165.165 212.442 157.723 212.411 149.275 212.512C148.487 212.522 147.704 212.589 146.926 212.714C143.008 213.343 138.629 214.28 133.931 215.674C129.362 217.029 125.295 218.58 121.766 220.13C118.302 220.479 114.84 220.829 111.375 221.18H111.37Z" fill="#FFF3DE"/>
<path d="M209.846 232.058C204.64 228.051 199.432 224.044 194.227 220.037L215.631 232.405C213.702 232.289 211.775 232.176 209.846 232.061V232.058Z" fill="#FFF3DE"/>
<path d="M121.758 220.123L121.078 221.609L141.826 234.087L144.448 233.232L121.758 220.123Z" fill="#FFFAF5"/>
<path d="M141.823 234.095L151.371 236.908C157.393 236.113 163.621 235.432 170.048 234.898C189.101 233.317 206.855 233.271 223.031 234.151C222.57 233.715 222.109 233.281 221.65 232.845C210.567 231.98 198.981 231.33 186.929 230.968C173.548 230.568 160.713 230.553 148.476 230.835C147.477 231.138 146.33 231.561 145.099 232.157C143.798 232.786 142.706 233.466 141.82 234.095H141.823Z" fill="#FFFAF5"/>
<path d="M160.695 230.663L161.21 230.239C162.109 229.5 163.243 229.099 164.407 229.11L193.582 229.371C194.005 229.374 194.417 229.489 194.783 229.7L197.66 231.376L160.695 230.663Z" fill="#38434C"/>
<path opacity="0.45" d="M76.1432 259.728C81.323 257.256 86.7295 254.825 92.3652 252.461C106.836 246.393 120.711 241.664 133.675 237.955C130.309 238.653 126.945 239.354 123.578 240.052C118.679 241.569 112.809 243.415 106.174 245.558C94.2095 249.422 89.568 251.082 83.9657 254.373C80.5426 256.386 77.8921 258.342 76.1406 259.728H76.1432Z" fill="#D6B89F"/>
<path opacity="0.45" d="M111.367 221.188L112.756 221.047L127.906 239.162L123.576 240.063L111.367 221.188Z" fill="#D6B89F"/>
<path d="M205.039 211.656L206.159 213.897C195.163 211.707 181.566 209.895 165.954 209.777C150.662 209.661 137.289 211.201 126.414 213.16C129.641 212.375 134.347 211.338 140.084 210.465C154.817 208.224 166.289 208.606 176.342 208.991C183.781 209.276 193.566 209.964 205.036 211.656H205.039Z" fill="#FFFAF5"/>
<path d="M255.594 272.027C266.814 270.723 279.123 269.83 292.383 269.663C301.174 269.553 309.532 269.774 317.404 270.228C318.913 269.168 320.42 268.105 321.929 267.045C300.126 267.81 278.322 268.575 256.516 269.34L255.596 272.027H255.594Z" fill="#D6B89F"/>
<path opacity="0.55" d="M256.512 269.359L233.539 269.074L255.593 272.044L256.512 269.359Z" fill="#D6B89F"/>
<path d="M233.539 269.067L297.606 266.793L321.926 267.057L256.512 269.352L233.539 269.067Z" fill="#FFFAF5"/>
<path d="M193.242 258.269C193.247 258.069 245.017 259.335 259.204 259.843C263.712 260.005 268.062 260.213 268.062 260.213C272.858 260.444 277.59 260.718 282.255 261.036C283.151 261.373 284.047 261.709 284.944 262.045C279.589 261.658 274.146 261.316 268.616 261.024C260.41 260.59 254.256 260.384 251.771 260.302C212.751 258.998 193.24 258.344 193.242 258.272V258.269Z" fill="#D6B89F"/>
<path d="M282.258 261.046L283.188 260.615C283.708 260.374 283.571 259.604 282.999 259.555L276.854 259.023L276.109 260.035L282.258 261.046Z" fill="#FEF3DF"/>
<path d="M261.64 243.893L260.073 246.539L258.234 245.466L258.811 244.439L261.64 243.893Z" fill="#C4A283"/>
<path d="M180.299 240.309C180.284 240.16 175.565 240.445 153.658 242.493C148.924 246.046 144.187 249.601 139.453 253.154C144.736 250.112 151.77 246.708 160.433 244.11C171.199 240.881 180.32 240.514 180.299 240.309Z" fill="#C4A283"/>
<path d="M153.657 242.508L131.102 233.113L155.569 242.331L153.657 242.508Z" fill="#FFFAF5"/>
<path opacity="0.45" d="M131.102 233.113L153.23 242.914L153.657 242.508L131.102 233.113Z" fill="#D6B89F"/>
<path d="M56.389 298.389L47.3069 292.444C46.5548 291.951 45.5838 292.611 45.7641 293.486L48.8704 308.567L55.0831 303.366L56.389 298.387V298.389Z" fill="#FEFEE8"/>
<path d="M114.547 253.781L136.029 242.51C140.446 242.6 144.863 242.692 149.281 242.782C145.301 246.157 141.324 249.533 137.345 252.908C134.576 252.505 131.369 252.226 127.809 252.254C122.635 252.295 118.145 252.973 114.547 253.784V253.781Z" fill="#005987"/>
<path d="M136.029 242.502C136.085 242.707 136.139 242.915 136.196 243.121C133.033 244.633 129.63 246.458 126.099 248.673C123.912 250.044 121.893 251.427 120.031 252.793C118.202 253.119 116.376 253.447 114.547 253.773L136.029 242.502Z" fill="#D6B89F"/>
<path d="M136.031 242.502L149.281 242.774L148.701 243.267L136.196 243.123L136.031 242.502Z" fill="#D6B89F"/>
<path d="M136.195 243.119L145.27 244.082L136.414 252.768L137.344 252.897L148.701 243.263L136.195 243.119Z" fill="#0B3F72"/>
<path d="M136.199 243.119C133.863 244.356 131.045 246.169 128.256 248.818C126.999 250.011 125.932 251.202 125.028 252.327C123.362 252.481 121.698 252.637 120.031 252.791C122.277 251.143 124.791 249.444 127.573 247.765C130.597 245.943 133.497 244.408 136.197 243.119H136.199Z" fill="#0B3F72"/>
<path d="M124.438 251.587C125.362 251.615 126.305 251.658 127.266 251.717C130.511 251.92 133.566 252.29 136.415 252.767C134.439 252.552 132.317 252.393 130.06 252.323C128.299 252.269 126.617 252.274 125.025 252.323C124.829 252.077 124.633 251.83 124.438 251.584V251.587Z" fill="#0B3F72"/>
<path d="M246.773 260.16C249.967 262.001 253.947 263.944 258.679 265.553C261.803 266.616 264.729 267.353 267.359 267.869C271.508 267.722 275.658 267.574 279.807 267.427C276.644 266.945 272.629 265.992 268.281 264.047C265.929 262.994 263.9 261.836 262.182 260.717C257.046 260.532 251.909 260.348 246.773 260.16Z" fill="#D6B89F"/>
<path d="M211.742 256.741C225.646 257.036 239.856 257.526 254.36 258.235C264.215 258.717 273.923 259.287 283.482 259.937C283.32 259.808 283.16 259.68 282.998 259.554C278.155 259.082 273.223 258.653 268.195 258.271C261.797 257.786 255.53 257.403 249.402 257.108C244.338 256.885 239.153 256.728 233.852 256.643C226.251 256.523 218.877 256.564 211.742 256.738V256.741Z" fill="#FFFAF5"/>
<path d="M190.398 242.725L215.754 243.022L222.66 249.275L195.04 246.721L190.398 242.725Z" fill="url(#paint3_linear_620_33)"/>
<path d="M193.525 246.481C189.388 246.021 184.801 245.716 179.83 245.695C175.598 245.677 171.649 245.87 168.03 246.185C167.68 245.87 167.327 245.554 166.977 245.241C170.333 244.573 173.993 243.983 177.929 243.541C182.027 243.082 185.875 242.846 189.416 242.764C190.787 244.004 192.154 245.243 193.525 246.483V246.481Z" fill="url(#paint4_linear_620_33)"/>
<path d="M84.0136 307.442C90.3705 305.783 96.882 304.184 103.545 302.652C118.289 299.263 132.548 296.499 146.249 294.25C125.504 297.597 104.759 300.945 84.0136 304.289L82.4141 306.15L84.0136 307.442Z" fill="#AD896C"/>
<path d="M99.3595 271.131C97.8296 273.267 96.2094 275.796 94.6665 278.722C93.2859 281.34 92.2041 283.822 91.3516 286.069C93.2705 285.453 95.1868 284.836 97.1058 284.218L99.3595 271.129V271.131Z" fill="#005987"/>
<path d="M98.3679 276.91C97.9661 277.251 97.5643 277.616 97.165 277.998C94.445 280.614 92.6085 283.473 91.3516 286.066C92.4488 283.248 93.8758 280.124 95.7406 276.84C96.9358 274.738 98.1593 272.836 99.3595 271.129C99.6248 271.591 99.8876 272.053 100.153 272.515L98.3705 276.91H98.3679Z" fill="#0B3F72"/>
<path d="M114.552 253.775L79.3906 261.63L118.032 251.947L114.552 253.775Z" fill="#FFFAF5"/>
<path d="M128.797 257.355L129.474 257.646L132.8 257.825L131.28 257.463L128.797 257.355Z" fill="#D6B89F"/>
<path d="M290.312 269.705L355.94 276.142L317.399 270.238C315.604 270.072 313.775 269.925 311.918 269.807C304.288 269.322 297.066 269.343 290.312 269.705Z" fill="#FFFAF5"/>
<path d="M156.156 177.967L170.799 172.854L170.977 173.334L156.156 180.893V177.967Z" fill="#FFF3DE"/>
<path d="M119.195 190.466L154.006 186.664V189.198L119.195 191.295V190.466Z" fill="#FFF3DE"/>
<path d="M156.281 187.032L169.863 185.852V186.442L156.281 189.13V187.032Z" fill="#FFF3DE"/>
<path d="M170.797 172.854L173.416 172.959L173.648 173.334H170.975L170.797 172.854Z" fill="#FFFCFA"/>
<path d="M151.508 165.396L153.785 167.45L156.876 166.4L157.164 165.258L151.508 165.396Z" fill="#F0E6D7"/>
<path d="M156.88 166.387L153.789 170.286V167.437L156.88 166.387Z" fill="#C4A283"/>
<path d="M156.88 166.387L156.156 167.301V198.566H156.88L157.011 186.661L156.88 166.387Z" fill="#C4A283"/>
<path d="M170.624 222.022C173.705 220.716 176.976 219.43 180.43 218.19C183.222 217.189 185.939 216.288 188.572 215.479C182.31 215.186 175.909 214.963 169.37 214.824C161.926 214.665 154.652 214.619 147.558 214.67C144.297 215.317 140.761 216.175 137.013 217.314C132.439 218.706 128.341 220.282 124.75 221.863C126.159 222.677 127.565 223.49 128.974 224.304C136.006 223.185 143.875 222.312 152.462 221.958C158.943 221.691 165.017 221.753 170.621 222.022H170.624Z" fill="#253D4C"/>
<path d="M86.8067 258.704L84.8672 92.4961H85.2948L87.8267 258.473L86.8067 258.704Z" fill="#FFF3DE"/>
<path d="M77.7068 259.317L76.1484 257.841L78.8813 257.166L80.7822 258.657L77.7068 259.317Z" fill="#253D4C"/>
<path d="M76.1484 257.849L77.578 256.558L79.8214 256.014L78.8813 257.174L76.1484 257.849Z" fill="#FFF3DE"/>
<path d="M79.823 256.014L82.3369 256.807L80.7837 258.665L78.8828 257.174L79.823 256.014Z" fill="#D6B89F"/>
<path d="M82.308 258.244L80.4844 256.519L83.6809 255.729L85.9063 257.471L82.308 258.244Z" fill="#253D4C"/>
<path d="M80.4844 256.515L82.1586 255.003L84.7807 254.369L83.6809 255.724L80.4844 256.515Z" fill="#FFF3DE"/>
<path d="M84.7795 254.369L87.7236 255.293L85.9051 257.467L83.6797 255.724L84.7795 254.369Z" fill="#D6B89F"/>
<path d="M72.1576 294.053L70.8594 292.824L73.1389 292.262L74.723 293.504L72.1576 294.053Z" fill="#253D4C"/>
<path d="M70.8594 292.826L72.0519 291.751L73.9219 291.299L73.1389 292.264L70.8594 292.826Z" fill="#FFF3DE"/>
<path d="M73.9236 291.299L76.0203 291.959L74.7247 293.506L73.1406 292.264L73.9236 291.299Z" fill="#D6B89F"/>
<path d="M78.6603 292.275L77.1406 290.835L79.8039 290.178L81.6585 291.631L78.6603 292.275Z" fill="#253D4C"/>
<path d="M77.1406 290.836L78.5341 289.578L80.7209 289.047L79.8039 290.179L77.1406 290.836Z" fill="#FFF3DE"/>
<path d="M80.7217 289.047L83.1738 289.82L81.6592 291.632L79.8047 290.179L80.7217 289.047Z" fill="#D6B89F"/>
<path d="M121.938 190.417V131.934L122.517 190.347L121.938 190.417Z" fill="#FFF3DE"/>
<path d="M74.3272 314.27L69.5078 330L70.4932 330.3L75.3126 314.57L74.3272 314.27Z" fill="#69779E"/>
<path d="M98.3609 310.575L94.8984 324.252L95.8974 324.503L99.3599 310.826L98.3609 310.575Z" fill="#69779E"/>
<path d="M128.061 299.25L122.719 322.893L123.724 323.118L129.066 299.475L128.061 299.25Z" fill="#69779E"/>
<path d="M160.457 284.181L150.227 308.82L151.179 309.213L161.409 284.574L160.457 284.181Z" fill="#69779E"/>
<path d="M192.423 278.063L187.43 297.584L188.428 297.838L193.421 278.316L192.423 278.063Z" fill="#69779E"/>
<path d="M239.906 270.901L231.945 294.766L232.923 295.09L240.884 271.225L239.906 270.901Z" fill="#69779E"/>
<path d="M287.225 265.486L276.438 286.631L277.356 287.096L288.143 265.951L287.225 265.486Z" fill="#69779E"/>
<path d="M338.081 262.432L326.336 280.764L327.204 281.316L338.95 262.985L338.081 262.432Z" fill="#69779E"/>
<path d="M383.095 261.75L371.781 280.953L372.67 281.473L383.984 262.27L383.095 261.75Z" fill="#69779E"/>
<path d="M46.1476 317.208L41.3281 332.938L42.3135 333.237L47.1329 317.508L46.1476 317.208Z" fill="#69779E"/>
<path d="M39.5175 318.769L39.4531 317.744C58.475 316.579 77.6179 314.361 96.3487 311.153C101.24 310.316 106.193 309.394 111.074 308.414C114.291 307.767 117.264 306.486 119.912 304.607C124.244 301.529 128.734 298.551 133.257 295.756C136.185 293.946 139.191 292.175 142.189 290.489C146.65 287.981 151.446 286.176 156.443 285.121C196.95 276.581 238.388 270.297 279.608 266.449C322.875 262.409 366.843 260.963 410.285 262.149C411.231 262.175 412.078 262.676 412.555 263.492C413.031 264.306 413.049 265.291 412.606 266.123L406.904 276.812L405.994 276.329L411.697 265.64C411.973 265.124 411.96 264.514 411.666 264.008C411.37 263.502 410.844 263.192 410.26 263.176C366.856 261.99 322.932 263.435 279.706 267.471C238.525 271.316 197.127 277.592 156.66 286.125C151.766 287.157 147.07 288.925 142.699 291.382C139.711 293.061 136.718 294.824 133.803 296.629C129.298 299.411 124.826 302.379 120.512 305.444C117.748 307.407 114.642 308.747 111.28 309.422C106.392 310.403 101.426 311.327 96.5264 312.166C77.7596 315.383 58.5806 317.603 39.5201 318.771L39.5175 318.769Z" fill="#69779E"/>
<path d="M39.5175 318.335L39.4531 317.311C58.475 316.145 77.6179 313.928 96.3487 310.719C101.24 309.882 106.193 308.961 111.074 307.98C114.291 307.333 117.264 306.052 119.912 304.173C124.244 301.095 128.734 298.118 133.257 295.322C136.185 293.513 139.191 291.741 142.189 290.055C146.65 287.547 151.446 285.742 156.443 284.687C196.95 276.147 238.388 269.863 279.608 266.015C322.875 261.975 366.843 260.53 410.285 261.716C411.231 261.741 412.078 262.242 412.555 263.058C413.031 263.872 413.049 264.858 412.606 265.689L406.904 276.378L405.994 275.896L411.697 265.207C411.973 264.691 411.96 264.08 411.666 263.574C411.37 263.069 410.844 262.758 410.26 262.743C366.856 261.557 322.932 263.002 279.706 267.037C238.525 270.882 197.127 277.159 156.66 285.691C151.766 286.723 147.07 288.492 142.699 290.948C139.711 292.627 136.718 294.391 133.803 296.195C129.298 298.978 124.826 301.945 120.512 305.01C117.748 306.974 114.642 308.314 111.28 308.989C106.392 309.969 101.426 310.893 96.5264 311.733C77.7596 314.949 58.5806 317.17 39.5201 318.338L39.5175 318.335Z" fill="white"/>
<path d="M73.6319 314.27L68.8125 330L69.7979 330.3L74.6173 314.57L73.6319 314.27Z" fill="white"/>
<path d="M45.4366 317.099L40.6172 332.828L41.6026 333.128L46.422 317.398L45.4366 317.099Z" fill="white"/>
<path d="M97.7359 310.575L94.2734 324.252L95.2724 324.503L98.7349 310.826L97.7359 310.575Z" fill="white"/>
<path d="M127.365 299.25L122.023 322.893L123.029 323.118L128.371 299.476L127.365 299.25Z" fill="white"/>
<path d="M159.934 284.181L149.703 308.82L150.655 309.213L160.886 284.574L159.934 284.181Z" fill="white"/>
<path d="M191.727 278.063L186.734 297.584L187.733 297.838L192.726 278.316L191.727 278.063Z" fill="white"/>
<path d="M239.258 270.901L231.297 294.766L232.275 295.09L240.236 271.225L239.258 270.901Z" fill="white"/>
<path d="M286.663 265.361L275.875 286.506L276.793 286.971L287.581 265.826L286.663 265.361Z" fill="white"/>
<path d="M337.449 262.432L325.703 280.764L326.571 281.316L338.317 262.985L337.449 262.432Z" fill="white"/>
<path d="M382.501 261.545L371.188 280.748L372.076 281.268L383.39 262.065L382.501 261.545Z" fill="white"/>
<path d="M37.4494 329.129L122.526 319.758C123.598 319.449 125.236 318.944 127.173 318.176C136.889 314.331 142.831 308.442 144.711 306.715C150.823 301.106 159.264 298.673 176.145 293.803C197.076 287.766 216.221 286.659 255.048 283.743C307.279 279.821 305.221 279.379 324.114 278.509C333.433 278.08 354.915 277.223 380.582 276.15C381.875 276.096 385.502 275.945 390.373 275.765C396.382 275.544 402.355 275.352 408.289 275.188C408.562 275.267 410.819 275.955 411.71 278.245C412.375 279.954 411.859 281.474 411.71 281.872C400.858 289.896 387.302 301.573 374.181 317.832C362.511 332.289 354.531 346.22 349.104 357.505C348.411 359.409 346.899 362.718 343.667 365.632C341.995 367.138 340.321 368.129 338.976 368.779C233.827 367.526 128.68 366.273 23.53 365.021L22.4766 361.963L37.4494 329.129Z" fill="url(#paint5_linear_620_33)"/>
<path d="M27.1258 351.755C75.0423 351.652 115.312 350.276 145.497 348.846C193.738 346.562 218.542 345.325 252.035 340.72C289.125 335.619 326.824 327.934 339.896 325.251C353.936 322.371 365.689 319.76 374.181 317.822C369.285 323.891 364.126 330.996 359.1 339.179C355.162 345.592 351.865 351.755 349.104 357.497C348.576 358.971 347.682 360.934 346.134 362.944C343.638 366.189 340.707 367.922 338.976 368.769C233.827 367.516 128.68 366.263 23.53 365.011L22.4766 361.953C24.0272 358.555 25.5778 355.154 27.1258 351.755Z" fill="#F1E1CA"/>
<path d="M283.822 335.82C271.472 322.859 259.124 309.901 246.773 296.941C236.009 296.525 224.179 296.612 211.457 297.531C181.493 299.692 158.026 306.148 157.992 305.987C157.969 305.876 168.712 303.065 189.625 298.91C233.462 290.195 268.247 286.244 282.483 284.753C282.483 284.753 299.795 282.697 358.571 279.642C364.466 279.337 375.313 278.803 389.611 279.642C397.485 280.104 404.867 280.89 411.708 281.87C405.186 286.693 398.052 292.569 390.754 299.659C384.289 305.94 378.8 312.106 374.18 317.831C349.95 325.637 325.719 333.443 301.489 341.249C295.601 339.439 289.711 337.632 283.822 335.822V335.82Z" fill="#93BBBB"/>
<path d="M37.4531 338.619L390.76 299.65C386.258 304.024 381.549 309.004 376.815 314.631C373.459 318.62 370.435 322.527 367.71 326.29C257.625 331.273 147.54 336.258 37.4531 341.24V338.619Z" fill="#2F5868"/>
<path d="M283.828 335.829C287.491 340.862 290.314 345.311 292.374 348.769C296.493 355.676 297.776 358.965 298.6 361.701C299.414 364.404 299.826 366.717 300.048 368.316C313.024 368.47 326.001 368.624 338.98 368.781C340.78 367.911 343.925 366.073 346.478 362.553C347.817 360.708 348.618 358.916 349.108 357.507C355.308 347.105 361.51 336.704 367.71 326.303L329.115 327.751L283.828 335.826V335.829Z" fill="#93BBBB"/>
<path d="M22.8203 362.951H346.135C345.504 363.778 344.693 364.704 343.668 365.629C341.981 367.151 340.299 368.139 338.977 368.776C233.828 367.523 128.681 366.27 23.5312 365.018L22.8203 362.954V362.951Z" fill="#015282"/>
<path d="M349.104 357.51C348.986 357.954 348.816 358.475 348.561 359.035C348.313 359.581 348.043 360.043 347.793 360.421C239.354 360.937 130.915 361.453 22.4766 361.969L23.4219 359.894L349.104 357.51Z" fill="#015282"/>
<path d="M262.909 313.751L278.804 330.315C298.946 329.404 319.088 328.493 339.231 327.579C348.722 327.15 358.214 326.719 367.703 326.29C370.052 322.994 372.636 319.596 375.471 316.138C380.633 309.849 385.813 304.376 390.753 299.65C377.529 300.567 364.081 301.665 350.415 302.964C320.052 305.85 290.861 309.513 262.906 313.751H262.909Z" fill="#253D4C"/>
<path d="M256.778 307.43L38.3521 337.222L37.4531 338.621L262.916 313.752L256.778 307.43Z" fill="#F3E2CA"/>
<path d="M157.992 305.984C178.92 300.999 201.445 296.371 225.456 292.428C248.875 288.583 271.16 285.811 292.114 283.85C278.166 284.735 263.52 286.085 248.262 288.026C238.78 289.233 229.598 290.598 220.73 292.09C215.14 293.091 209.484 294.169 203.763 295.324C187.84 298.538 172.576 302.129 157.992 305.984Z" fill="#417F8F"/>
<path d="M369.75 279.22C383.736 278.892 397.723 278.563 411.709 278.234C411.861 278.643 412.057 279.315 412.036 280.162C412.021 280.894 411.851 281.479 411.709 281.861C397.723 280.981 383.736 280.101 369.75 279.223V279.22Z" fill="#93BBBB"/>
<path d="M296.42 356.16L23.4219 359.89L297.633 357.883L298.421 356.807L296.42 356.16Z" fill="#93BBBB"/>
<path d="M264.22 286.185C295.42 282.971 328.15 280.525 362.304 279.116C379.062 278.423 395.477 278.009 411.537 277.84C411.596 277.973 411.655 278.109 411.715 278.243C395.408 278.464 378.742 278.933 361.735 279.685C327.078 281.215 293.859 283.785 262.188 287.125C262.865 286.811 263.542 286.501 264.22 286.188V286.185Z" fill="#417F8F"/>
<path d="M25.9863 354.266L15.0703 356.409V360.383L22.4781 361.956L27.5652 355.097L25.9863 354.266Z" fill="#F1E1CA"/>
<path d="M24.0236 359.871L15.0703 360.379L22.4782 361.953L25.1106 361.167L24.0236 359.871Z" fill="#015282"/>
<path d="M27.1328 351.755C68.3602 351.162 101.858 349.989 124.898 349.021C171.217 347.078 196.748 345.068 216.617 343.166C244.286 340.517 267.187 337.477 283.19 335.146C283.404 335.37 283.615 335.593 283.829 335.816C266.672 338.609 243.155 342.023 215.054 344.819C181.09 348.197 155.624 349.16 124.372 350.286C98.7771 351.211 65.8025 351.973 27.1328 351.755Z" fill="#E8D4BA"/>
<path d="M167.692 310.92C167.942 311.991 167.324 313.051 166.309 313.287C165.294 313.523 164.269 312.845 164.016 311.775C163.767 310.705 164.385 309.644 165.4 309.408C166.414 309.172 167.44 309.85 167.692 310.92Z" fill="#D3B694"/>
<path d="M167.829 310.954C168.082 312.027 167.554 313.069 166.652 313.28C165.75 313.49 164.813 312.79 164.563 311.717C164.311 310.644 164.839 309.601 165.74 309.391C166.642 309.18 167.579 309.881 167.829 310.954Z" fill="#252221"/>
<path d="M194.655 306.708C194.985 308.12 194.171 309.516 192.834 309.827C191.497 310.137 190.145 309.247 189.815 307.835C189.486 306.423 190.3 305.027 191.637 304.716C192.973 304.405 194.326 305.296 194.655 306.708Z" fill="#D3B694"/>
<path d="M194.835 306.741C195.167 308.156 194.472 309.526 193.282 309.804C192.092 310.081 190.861 309.157 190.528 307.742C190.196 306.328 190.891 304.957 192.081 304.68C193.271 304.403 194.503 305.327 194.835 306.741Z" fill="#252221"/>
<path d="M221.123 302.956C221.479 304.467 220.603 305.964 219.174 306.295C217.742 306.629 216.294 305.674 215.939 304.162C215.583 302.65 216.459 301.153 217.888 300.822C219.32 300.489 220.768 301.444 221.123 302.956Z" fill="#D3B694"/>
<path d="M221.316 302.992C221.672 304.507 220.928 305.975 219.655 306.273C218.383 306.568 217.061 305.582 216.706 304.065C216.35 302.551 217.095 301.082 218.367 300.785C219.64 300.489 220.961 301.475 221.316 302.992Z" fill="#252221"/>
<path d="M256.778 307.43L121.469 325.886L202.63 313.978L256.778 307.43Z" fill="#FFFAF5"/>
<path d="M246.773 296.942C279.897 295.163 314.07 294.108 349.234 293.928C358.767 293.879 368.114 293.915 368.114 293.915C379.437 293.974 389.086 294.149 396.452 294.321C394.554 296.1 392.656 297.878 390.757 299.657C382.711 298.98 372.557 298.215 360.786 297.537C360.786 297.537 353.656 297.126 346.604 296.811C311.669 295.252 278.329 295.455 246.776 296.942H246.773Z" fill="#7EA8A6"/>
<path d="M37.4487 338.621L32.8973 339.101L31.6172 341.907L37.4487 341.242L37.647 339.178L37.4487 338.621Z" fill="#2F5868"/>
<path d="M31.8105 341.5C31.2 342.84 30.587 344.18 29.9766 345.522C43.4606 344.37 56.9497 343.266 70.4441 342.213C106 339.438 141.586 337.01 177.201 334.926C142.457 336.504 107.71 338.078 72.9657 339.646C59.2473 340.265 45.5289 340.884 31.8105 341.5Z" fill="#E8D4BA"/>
<path d="M148.922 303.545C157.844 300.241 170.762 295.998 186.803 292.612C194.948 290.892 201.153 289.973 208.975 288.828C220.391 287.157 236.039 285.178 255.05 283.73C245.564 284.275 235.763 285.014 225.669 285.979C214.956 287.003 204.612 288.22 194.662 289.578C189.08 290.569 183.11 291.873 176.835 293.593C166.264 296.491 156.932 299.992 148.922 303.54V303.545Z" fill="#FFFAF5"/>
<path d="M262.914 313.754L203.242 320.449L265.915 314.601L262.914 313.754Z" fill="#253D4C"/>
<path d="M278.808 330.323L225.531 332.733L278.808 329.406V330.323Z" fill="#253D4C"/>
<path d="M25.9844 354.263L85.958 351.352L27.128 351.755L25.9844 354.263Z" fill="#E8D4BA"/>
<path d="M390.761 299.65C385.749 303.147 380.19 307.503 374.493 312.883C369.48 317.616 365.279 322.273 361.797 326.557C363.767 326.467 365.738 326.378 367.708 326.29C370.433 322.527 373.46 318.62 376.813 314.631C381.548 309.004 386.256 304.027 390.759 299.65H390.761Z" fill="#2F5868"/>
<path d="M361.793 326.57C359.349 329.966 356.778 334.004 354.365 338.696C350.798 345.632 348.546 352.103 347.086 357.507H349.103C352.562 351.705 356.019 345.904 359.478 340.103C362.221 335.503 364.962 330.903 367.705 326.303C365.734 326.393 363.764 326.482 361.793 326.57Z" fill="#ABD6D5"/>
<path d="M242.387 284.513C262.774 282.455 283.913 280.712 305.768 279.377C324.759 278.217 343.245 277.423 361.193 276.949C359.442 276.679 357.69 276.412 355.939 276.143C339.665 276.564 322.84 277.316 305.506 278.458C283.025 279.942 261.463 281.972 240.883 284.4C241.385 284.439 241.885 284.477 242.387 284.513Z" fill="#D6B89F"/>
<path d="M408.297 275.19C375.381 276.617 342.487 278.353 309.607 280.391C287.757 281.746 265.915 283.235 244.085 284.857C243.521 284.744 242.955 284.634 242.391 284.521C264.109 282.326 286.389 280.524 309.211 279.177C315.225 278.822 321.203 278.504 327.145 278.219C354.196 277.208 381.249 276.199 408.299 275.188L408.297 275.19Z" fill="#FFFAF5"/>
<path d="M297.211 357.89L298.264 360.654L347.791 360.421L349.102 357.51L297.211 357.89Z" fill="#033751"/>
<path d="M298.953 362.951L300.043 368.314L338.975 368.778C339.967 368.432 341.381 367.81 342.833 366.681C344.526 365.364 345.556 363.916 346.133 362.954C330.406 362.954 314.681 362.954 298.953 362.954V362.951Z" fill="#033751"/>
<path d="M23.5312 365.009C64.55 365.019 97.4654 364.231 120.238 363.492C140.725 362.827 149.168 362.324 167.193 362.18C197.726 361.937 209.827 364.557 242.691 363.754C258.349 363.372 266.383 363.148 276.492 361.59C290.788 359.39 294.68 357.059 306.482 357.067C310.008 357.07 314.031 357.28 319.502 355.886C321.846 355.288 322.274 354.716 324.504 354.179C329.97 352.865 332.479 354.338 336.556 354.179C344.435 353.879 344.585 348.019 353.391 346.838C355.138 346.604 361.531 345.747 366.26 349.394C369.727 352.069 369.276 355.201 372.859 357.411C376.609 359.724 380.872 359.732 383.994 359.334C380.769 360.214 375.996 360.961 371.017 359.246C366.092 357.552 363.694 354.351 362.118 355.293C359.437 356.895 364.73 367.099 361.111 369.997C359.604 371.203 358.28 369.756 352.606 370.084C348.616 370.315 348.484 371.075 342.983 371.809C339.428 372.284 336.469 372.779 332.922 372.202C328.481 371.478 327.183 370.004 323.649 369.252C318.176 368.09 316.695 370.649 308.326 372.004C300.802 373.223 294.574 372.361 287.743 371.414C281.479 370.546 280.4 369.766 276.235 369.119C264.106 367.237 254.29 370.906 250.06 372.199C232.262 377.646 220.303 369.563 176.077 368.464C147.937 367.764 148.043 370.918 116.495 369.64C101.723 369.042 96.0848 368.123 75.8523 366.891C53.4588 365.528 35.2844 365.127 23.5364 365.002L23.5312 365.009Z" fill="#FAFDFF"/>
<path style="mix-blend-mode:color-dodge" d="M422.548 69.0426C440.046 112.128 416.486 160.182 369.927 176.373C323.366 192.566 271.436 170.764 253.938 127.681C236.439 84.5952 259.999 36.5416 306.559 20.3503C353.12 4.15735 405.049 25.9587 422.548 69.0426Z" fill="url(#paint6_radial_620_33)"/>
<path style="mix-blend-mode:screen" d="M424.321 69.0426C441.82 112.128 418.26 160.182 371.7 176.373C325.139 192.566 273.21 170.764 255.711 127.681C238.213 84.5952 261.773 36.5416 308.332 20.3503C354.893 4.15735 406.822 25.9587 424.321 69.0426Z" fill="url(#paint7_radial_620_33)"/>
<path opacity="0.54" d="M343.595 94.233L314.664 20.3516L346.841 93.1038L343.595 94.233Z" fill="#F5FFFF"/>
<path opacity="0.54" d="M350.258 95.357L430.099 68.5859L351.476 98.36L350.258 95.357Z" fill="#F5FFFF"/>
<path opacity="0.54" d="M349.788 96.5966L270.469 123.74L349.44 95.2812L349.788 96.5966Z" fill="#F5FFFF"/>
<path opacity="0.54" d="M350.156 105.472L273.328 72.7656L350.916 104.314L350.156 105.472Z" fill="#F5FFFF"/>
<path opacity="0.54" d="M349.227 86.3778L377.735 30.0156L352.384 87.7026L349.227 86.3778Z" fill="#F5FFFF"/>
<path opacity="0.54" d="M341.664 112.158L352.304 50.7109L345.094 112.628L341.664 112.158Z" fill="#F5FFFF"/>
<path opacity="0.54" d="M343.975 98.9894L305.414 72.7656L345.357 96.8145L343.975 98.9894Z" fill="#F5FFFF"/>
<path opacity="0.54" d="M349.72 95.4143L311.781 122.521L348.144 93.375L349.72 95.4143Z" fill="#F5FFFF"/>
<path opacity="0.54" d="M345.195 93.0068L342.477 139.452L342.613 92.9453L345.195 93.0068Z" fill="#F5FFFF"/>
<path opacity="0.54" d="M350.612 101.383L383.257 134.639L348.828 103.244L350.612 101.383Z" fill="#F5FFFF"/>
<path opacity="0.54" d="M350.762 112.453L365.173 146.134L349.82 112.819L350.762 112.453Z" fill="#F5FFFF"/>
<path opacity="0.54" d="M352.248 100.711L479.566 152.558L351.562 102.11L352.248 100.711Z" fill="#F5FFFF"/>
<path opacity="0.54" d="M342.031 97.7969L314.336 154.501L343.542 98.4325L342.031 97.7969Z" fill="#F5FFFF"/>
<path d="M344.765 115.008C353.506 115.008 360.592 107.946 360.592 99.2343C360.592 90.5229 353.506 83.4609 344.765 83.4609C336.024 83.4609 328.938 90.5229 328.938 99.2343C328.938 107.946 336.024 115.008 344.765 115.008Z" fill="#F5FFFF"/>
</g>
<defs>
<linearGradient id="paint0_linear_620_33" x1="276.387" y1="244.942" x2="279.952" y2="425.478" gradientUnits="userSpaceOnUse">
<stop stop-color="#64C0D7"/>
<stop offset="1" stop-color="#177FB1"/>
</linearGradient>
<linearGradient id="paint1_linear_620_33" x1="208.596" y1="261.533" x2="207.55" y2="248.687" gradientUnits="userSpaceOnUse">
<stop offset="0.23" stop-color="#065A8C"/>
<stop offset="0.54" stop-color="#075E90"/>
<stop offset="0.89" stop-color="#0B6C9E"/>
<stop offset="0.98" stop-color="#0D71A3"/>
</linearGradient>
<linearGradient id="paint2_linear_620_33" x1="82.4141" y1="319.526" x2="90.6333" y2="319.526" gradientUnits="userSpaceOnUse">
<stop stop-color="#FEF5DF"/>
<stop offset="0.5" stop-color="#FFEED7"/>
<stop offset="0.98" stop-color="#FFEED7"/>
</linearGradient>
<linearGradient id="paint3_linear_620_33" x1="206.368" y1="238.936" x2="206.629" y2="250.559" gradientUnits="userSpaceOnUse">
<stop offset="0.35" stop-color="#1785BC"/>
<stop offset="0.59" stop-color="#1581B7"/>
<stop offset="0.86" stop-color="#1076A9"/>
<stop offset="0.98" stop-color="#0D6FA1"/>
</linearGradient>
<linearGradient id="paint4_linear_620_33" x1="180.146" y1="241.175" x2="180.282" y2="247.261" gradientUnits="userSpaceOnUse">
<stop offset="0.35" stop-color="#1785BC"/>
<stop offset="0.59" stop-color="#1581B7"/>
<stop offset="0.86" stop-color="#1076A9"/>
<stop offset="0.98" stop-color="#0D6FA1"/>
</linearGradient>
<linearGradient id="paint5_linear_620_33" x1="22.4766" y1="321.986" x2="412.042" y2="321.986" gradientUnits="userSpaceOnUse">
<stop stop-color="#FEF5DF"/>
<stop offset="0.5" stop-color="#FFEED7"/>
<stop offset="0.98" stop-color="#FFEED7"/>
</linearGradient>
<radialGradient id="paint6_radial_620_33" cx="0" cy="0" r="1" gradientTransform="matrix(84.1566 -29.2721 27.8531 79.5314 342.368 97.0374)" gradientUnits="userSpaceOnUse">
<stop stop-color="#FFFDC0"/>
<stop offset="0.05" stop-color="#D1CF9D"/>
<stop offset="0.1" stop-color="#A5A47C"/>
<stop offset="0.16" stop-color="#7E7D5E"/>
<stop offset="0.22" stop-color="#5B5B45"/>
<stop offset="0.29" stop-color="#3F3E2F"/>
<stop offset="0.36" stop-color="#27271D"/>
<stop offset="0.45" stop-color="#151510"/>
<stop offset="0.55" stop-color="#090907"/>
<stop offset="0.69" stop-color="#020201"/>
<stop offset="1"/>
</radialGradient>
<radialGradient id="paint7_radial_620_33" cx="0" cy="0" r="1" gradientTransform="matrix(84.1567 -29.2721 27.8531 79.5314 344.112 97.0477)" gradientUnits="userSpaceOnUse">
<stop stop-color="#FFFDC0"/>
<stop offset="0.13" stop-color="#CECC9B"/>
<stop offset="0.31" stop-color="#908F6C"/>
<stop offset="0.48" stop-color="#5C5C45"/>
<stop offset="0.64" stop-color="#343427"/>
<stop offset="0.78" stop-color="#171711"/>
<stop offset="0.91" stop-color="#060604"/>
<stop offset="1"/>
</radialGradient>
<clipPath id="clip0_620_33">
<rect width="428" height="453" fill="white"/>
</clipPath>
</defs>
</svg>
