<svg width="1439" height="20" viewBox="0 0 1439 20" fill="none" xmlns="http://www.w3.org/2000/svg">
<path d="M-1 1.09766C54.3846 1.09766 54.3846 19.4284 109.769 19.4284C165.154 19.4284 165.154 1.09766 220.538 1.09766C275.923 1.09766 275.923 19.4284 331.308 19.4284C386.692 19.4284 386.692 1.09766 442.077 1.09766C497.462 1.09766 497.462 19.4284 552.846 19.4284C608.231 19.4284 608.231 1.09766 663.615 1.09766C719 1.09766 719 19.4284 774.385 19.4284C829.769 19.4284 829.769 1.09766 885.154 1.09766C940.538 1.09766 940.538 19.4284 995.923 19.4284C1051.31 19.4284 1051.31 1.09766 1106.69 1.09766C1162.08 1.09766 1162.08 19.4284 1217.46 19.4284C1272.85 19.4284 1272.85 1.09766 1328.23 1.09766C1383.62 1.09766 1383.62 19.4284 1439 19.4284" stroke="#3E8CFF" stroke-opacity="0.08" stroke-miterlimit="10"/>
</svg>
