<svg width="1439" height="30" viewBox="0 0 1439 30" fill="none" xmlns="http://www.w3.org/2000/svg">
<path d="M0 1.05078C61.2308 1.05078 61.2308 28.8308 122.462 28.8308C183.692 28.8308 183.692 1.05078 244.923 1.05078C306.154 1.05078 306.154 28.8308 367.385 28.8308C428.615 28.8308 428.615 1.05078 489.846 1.05078C551.077 1.05078 551.077 28.8308 612.308 28.8308C673.538 28.8308 673.538 1.05078 734.769 1.05078C796 1.05078 796 28.8308 857.231 28.8308C918.462 28.8308 918.462 1.05078 979.692 1.05078C1040.92 1.05078 1040.92 28.8308 1102.15 28.8308C1163.38 28.8308 1163.38 1.05078 1224.62 1.05078C1285.85 1.05078 1285.85 28.8308 1347.08 28.8308C1408.31 28.8308 1408.31 1.05078 1469.54 1.05078C1530.77 1.05078 1530.77 28.8308 1592 28.8308" stroke="white" stroke-opacity="0.09" stroke-miterlimit="10"/>
</svg>
