<svg width="1439" height="78" viewBox="0 0 1439 78" fill="none" xmlns="http://www.w3.org/2000/svg">
<path d="M119 48.5463C59 48.5463 59 21.0078 -1 21.0078V78.0078H1439V21.0078C1379 21.0078 1379 48.5463 1319 48.5463C1259 48.5463 1259 21.0078 1199 21.0078C1139 21.0078 1139 48.5463 1079 48.5463C1019 48.5463 1019 21.0078 959 21.0078C899 21.0078 899 48.5463 839 48.5463C779 48.5463 779 21.0078 719 21.0078C659 21.0078 659 48.5463 599 48.5463C539 48.5463 539 21.0078 479 21.0078C419 21.0078 419 48.5463 359 48.5463C299 48.5463 299 21.0078 239 21.0078C179 21.0078 179 48.5463 119 48.5463Z" fill="#3E8CFF"/>
<path d="M1229.32 31.7806L1212.98 15.4648L1289.3 35.846L1305.65 52.1617L1229.32 31.7806Z" fill="#3E8CFF"/>
<path d="M1287.57 22.9629L1284.99 32.6244L1231.37 18.306L1250.68 13.113L1287.57 22.9629ZM1250.82 15.2206L1239.61 18.4376L1250.24 21.2755L1253.72 15.9946L1250.82 15.2206ZM1256.62 16.7686L1253.14 22.0495L1269.56 26.4353L1271.11 20.6384L1256.62 16.7686Z" fill="#3E8CFF"/>
<rect x="1288.47" y="27.3438" width="3" height="6" transform="rotate(14.9508 1288.47 27.3438)" fill="#3E8CFF"/>
<path d="M1288.6 19.1016L1286.15 20.5179L1274.56 17.422L1277.01 16.0057L1288.6 19.1016Z" fill="#3E8CFF"/>
</svg>
