<svg width="1201" height="20" viewBox="0 0 1201 20" fill="none" xmlns="http://www.w3.org/2000/svg">
<path d="M0.5 1C46.6538 1 46.6538 19.4252 92.8077 19.4252C138.962 19.4252 138.962 1 185.115 1C231.269 1 231.269 19.4252 277.423 19.4252C323.577 19.4252 323.577 1 369.731 1C415.885 1 415.885 19.4252 462.038 19.4252C508.192 19.4252 508.192 1 554.346 1C600.5 1 600.5 19.4252 646.654 19.4252C692.808 19.4252 692.808 1 738.961 1C785.115 1 785.115 19.4252 831.269 19.4252C877.423 19.4252 877.423 1 923.577 1C969.731 1 969.731 19.4252 1015.88 19.4252C1062.04 19.4252 1062.04 1 1108.19 1C1154.35 1 1154.35 19.4252 1200.5 19.4252" stroke="#002CBA" stroke-opacity="0.08" stroke-miterlimit="10"/>
</svg>
